<svg width="147" height="46" viewBox="0 0 147 46" fill="none" xmlns="http://www.w3.org/2000/svg">
<path d="M27.2 45V43.98L32.66 43.32V42.06L27.98 29.76H10.82L6.14 42.06V43.32L11.3 43.98V45H0.62V43.98L3.92 43.26L18.56 5.04L17.3 1.68V0.959998H21.5L37.82 43.26L41.12 43.98V45H27.2ZM11.36 28.26H27.44L19.4 7.2L11.36 28.26ZM44.0787 2.76L39.8187 2.16V1.32L47.0187 0.239997H47.7987V20.22H47.9787L48.3387 19.74C50.3787 16.44 53.2588 14.52 57.0987 14.52C64.0587 14.52 68.7988 20.76 68.7988 29.52C68.7988 39 62.9788 45.9 55.1188 45.9C52.2387 45.9 49.4187 44.94 46.5387 43.08L44.0787 41.52V2.76ZM47.7987 40.62L49.1788 41.82C51.0387 43.56 53.0187 44.46 55.3587 44.46C60.8188 44.46 64.8388 38.88 64.8388 30.84C64.8388 22.62 60.9987 16.8 55.4188 16.8C52.1787 16.8 50.0788 18.66 48.2187 21L47.7987 21.54V40.62ZM85.558 45.9C77.818 45.9 72.418 39.42 72.418 30.12C72.418 20.82 77.998 14.34 85.978 14.34C93.658 14.34 99.058 20.82 99.058 30.12C99.058 39.42 93.478 45.9 85.558 45.9ZM76.438 29.28C76.438 38.4 80.398 44.4 86.278 44.4C91.558 44.4 95.038 38.94 95.038 30.96C95.038 21.84 91.078 15.84 85.198 15.84C79.918 15.84 76.438 21.3 76.438 29.28ZM111.962 45.72C106.982 45.72 104.162 42.12 104.162 35.58V16.98L100.382 16.44V15.54L107.162 15H107.942V35.22C107.942 40.32 109.922 43.08 113.462 43.08C116.222 43.08 118.442 41.34 120.362 37.56L121.622 35.04V17.04L117.182 16.44V15.54L124.502 15H125.402V43.02L126.362 43.5L129.182 43.86V44.76L122.522 45.18H121.622L121.802 41.7L121.982 36.06H121.862L121.142 37.92C119.162 42.84 116.342 45.72 111.962 45.72ZM139.545 45.54C136.185 45.54 134.685 43.2 134.685 39.3V16.98H129.225V15.84L134.625 15.36L137.445 6.48H138.405V15.24L145.425 15H146.385V16.98H138.405V38.82C138.405 41.64 138.945 43.2 141.105 43.2C142.665 43.2 143.865 42.12 145.305 40.56L145.905 39.9L146.745 40.8L146.205 41.4C143.685 44.28 142.065 45.54 139.545 45.54Z" fill="#E0D1B6"/>
</svg>
