<svg width="106" height="111" viewBox="0 0 106 111" fill="none" xmlns="http://www.w3.org/2000/svg">
<path fill-rule="evenodd" clip-rule="evenodd" d="M58.4609 104.938C84.7826 102.037 105.258 79.7239 105.258 52.6289C105.258 23.5628 81.695 0 52.6289 0C23.5628 0 0 23.5628 0 52.6289C0 79.7237 20.475 102.036 46.7965 104.938L52.6287 110.771L58.4609 104.938Z" fill="#E0D1B6"/>
<path fill-rule="evenodd" clip-rule="evenodd" d="M58.4609 104.938C84.7826 102.037 105.258 79.7239 105.258 52.6289C105.258 23.5628 81.695 0 52.6289 0C23.5628 0 0 23.5628 0 52.6289C0 79.7237 20.475 102.036 46.7965 104.938L52.6287 110.771L58.4609 104.938Z" fill="#162D24"/>
<path d="M60.3687 84.2895C60.3687 83.5382 60.6719 83.0273 61.3084 82.5369H64.3969C65.6591 82.5369 66.1398 83.1529 66.1398 83.8523C66.1398 84.8016 65.0649 85.9189 62.9149 85.9189C61.5995 85.9177 60.3687 85.3754 60.3687 84.2895ZM63.0816 80.0113C61.8604 80.0113 60.911 78.9677 60.911 77.5376C60.911 76.2851 61.7143 75.3466 62.8835 75.3466C64.0937 75.3466 65.0649 76.3793 65.0649 77.8202C65.0649 79.0619 64.2508 80.0113 63.0816 80.0113ZM36.5861 82.8389C35.6886 82.8389 35.156 82.4632 34.6245 81.8895V76.9433C35.1463 76.2126 35.679 75.6183 36.6078 75.6183C38.0476 75.6183 39.0392 77.1209 39.0392 79.2503C39.038 81.3363 38.0053 82.8389 36.5861 82.8389ZM47.5232 72.7895C47.5232 73.2485 47.8783 73.5927 48.3373 73.5927C48.7866 73.5927 49.1308 73.2485 49.1308 72.7895C49.1308 72.3305 48.7866 71.996 48.3373 71.996C47.8771 71.9972 47.5232 72.3305 47.5232 72.7895ZM68.1956 82.3594C68.9058 82.8087 69.7815 83.1734 70.7526 83.1734C72.2552 83.1734 73.4341 82.3279 73.4341 81.0863C73.4341 80.2311 72.8917 79.5209 71.8578 78.9882L70.1777 78.1331C69.4264 77.7466 69.0508 77.267 69.0508 76.6716C69.0508 75.9312 69.6148 75.4299 70.627 75.4299C72.1815 75.4299 72.7867 76.3901 73.0898 77.8094H73.3302L73.1321 75.8478C72.4642 75.3466 71.609 75.0543 70.7526 75.0543C69.4276 75.0543 68.1956 75.7427 68.1956 77.0158C68.1956 77.8504 68.7174 78.5075 69.6462 78.9882L71.3264 79.8543C72.1924 80.3036 72.5886 80.8242 72.5886 81.4305C72.5886 82.2023 71.8687 82.7773 70.8879 82.7773C69.2078 82.7773 68.5507 81.7542 68.2681 80.3145H67.9963L68.1956 82.3594ZM54.2123 82.9645V82.7036C53.2424 82.6831 53.0431 82.6202 53.0431 82.2857V77.8504L53.4079 77.1716C53.9296 76.2017 54.5034 75.7838 55.2027 75.7838C56.204 75.7838 56.7572 76.5351 56.7572 77.8396V82.2845C56.7572 82.6178 56.6425 82.6806 55.6098 82.7024V82.9633H58.7514V82.7024C57.8431 82.6818 57.7283 82.619 57.7283 82.2845V77.6934C57.7283 76.0242 56.9662 75.0736 55.6412 75.0736C54.5662 75.0736 53.7835 75.7306 53.1892 77.0569L53.0008 77.4748H52.9489L53.0431 75.169H52.845L50.9764 75.4408V75.6594L51.7169 75.7222C52.0406 75.7536 52.0611 75.8055 52.0611 76.035V82.2857C52.0611 82.619 51.9464 82.6818 50.9752 82.7036V82.9645H54.2123ZM24.3867 82.0042C25.2226 82.7459 26.5887 83.2048 27.8931 83.2048C30.1059 83.2048 31.7015 82.0042 31.7015 80.3459C31.7015 79.2709 31.0541 78.3626 29.6663 77.5593L26.7143 75.8369C25.806 75.3043 25.3784 74.5844 25.3784 73.8126C25.3784 72.6748 26.3181 71.903 27.6528 71.903C29.6977 71.903 30.7835 73.5517 31.1072 75.0543H31.3476L31.0976 72.6748C30.0745 71.944 28.9065 71.5479 27.8207 71.5479C25.8482 71.5479 24.4604 72.6639 24.4604 74.2196C24.4604 75.2837 25.0656 76.1715 26.2553 76.8697L29.2085 78.6017C30.1482 79.1549 30.67 79.8857 30.67 80.7408C30.67 81.9414 29.6578 82.8075 28.1033 82.8075C25.8181 82.8075 24.7225 81.4607 24.388 79.4581H24.1367L24.3867 82.0042ZM59.4822 84.4574C59.4822 85.6785 60.9533 86.3042 62.5815 86.3042C65.5347 86.3042 67.0373 84.7074 67.0373 83.4029C67.0373 82.485 66.4321 81.7119 64.7931 81.7119H61.4534C61.3386 81.4933 61.2867 81.2324 61.2867 80.9607C61.2867 80.6575 61.3592 80.3447 61.4848 80.0632C61.8918 80.2299 62.3713 80.3241 62.904 80.3241C64.7303 80.3241 66.0239 79.2081 66.0239 77.6004C66.0239 76.6402 65.5444 75.8683 64.7508 75.4299H66.8271V74.6049H66.7124C65.9188 74.6774 65.1047 74.9914 64.531 75.3139C64.1131 75.1364 63.613 75.0216 63.0695 75.0216C61.2323 75.0216 59.9279 76.1377 59.9279 77.7562C59.9279 78.7165 60.4291 79.4992 61.2951 79.969C60.9618 80.4183 60.5958 81.044 60.5958 81.5863C60.5958 81.9197 60.7311 82.212 61.0971 82.4113C60.3373 82.8497 59.4822 83.4657 59.4822 84.4574ZM47.929 76.035V82.2857C47.929 82.619 47.8143 82.6818 46.8432 82.7036V82.9645H49.9945V82.7036C49.1079 82.6831 48.9086 82.6202 48.9086 82.2857V75.169H48.7105L46.8444 75.4408V75.6594L47.5848 75.7222C47.9085 75.7536 47.929 75.8055 47.929 76.035ZM41.8354 76.035V82.2857C41.8354 82.619 41.7207 82.6818 40.8341 82.7036V82.9645H44.6739V82.7036C43.0143 82.6831 42.8162 82.6202 42.8162 82.2857V78.1319L43.2341 77.2453C43.6303 76.4107 44.2149 76.1908 45.0918 76.1908H45.8853V75.1787H45.3744C44.3622 75.1787 43.6315 75.669 43.1206 76.8697L42.7872 77.6632H42.693L42.8186 75.169H42.6205L40.752 75.4408V75.6594L41.4924 75.7222C41.8149 75.7536 41.8354 75.8055 41.8354 76.035ZM33.6643 76.035V85.3959C33.6643 85.7293 33.5495 85.7921 32.663 85.8138V86.0747H36.5027V85.8138C34.8431 85.7933 34.6245 85.7305 34.6245 85.3959V82.7241C35.2611 83.0684 35.8867 83.1517 36.5233 83.1517C38.5585 83.1517 40.0707 81.3677 40.0707 78.9146C40.0707 76.6402 38.8399 75.0216 37.0342 75.0216C36.0425 75.0216 35.3746 75.5748 34.7695 76.3781L34.6752 76.5037H34.6233V75.169H34.4252L32.5567 75.4408V75.6594L33.2971 75.7222C33.622 75.7536 33.6643 75.8055 33.6643 76.035Z" fill="#F5E8D1"/>
<path d="M81.4714 66.9616H80.5208L82.7638 65.4892V65.2803H82.0415L80.0957 67.086L82.0415 69.2396H82.7638V69.0307L80.5365 67.2382H81.4859C84.3063 67.2382 85.8765 69.3507 85.8765 71.4065C85.8765 73.3656 84.4597 75.2837 81.4026 75.2837C78.4288 75.2837 75.9419 73.4635 75.9419 69.7952H75.6641C75.6641 73.9502 78.2767 75.9372 81.4026 75.9372C84.7375 75.9372 86.4466 73.6579 86.4466 71.3932C86.4454 69.1708 84.7918 66.9616 81.4714 66.9616Z" fill="#F5E8D1"/>
<path d="M81.5557 63.1548C78.2208 63.1548 76.5117 65.434 76.5117 67.6987C76.5117 69.9224 78.1653 72.1316 81.4857 72.1316H82.4362L80.1933 73.6039V73.8129H80.9156L82.8614 72.0071L80.9156 69.8535H80.1933V70.0625L82.4205 71.855H81.4712C78.6508 71.855 77.0806 69.7424 77.0806 67.6867C77.0806 65.7275 78.4974 63.8094 81.5545 63.8094C84.5282 63.8094 87.0152 65.6297 87.0152 69.2979H87.293C87.2942 65.1417 84.6816 63.1548 81.5557 63.1548Z" fill="#F5E8D1"/>
<path d="M49.1312 26.9731H45.165C44.5519 26.9731 44.0547 27.4671 44.0547 28.0762V58.4142H64.4219V28.0762C64.4219 27.4671 63.9248 26.9731 63.3116 26.9731H59.5518H60.1132" stroke="#F5E8D1" stroke-width="0.7" stroke-miterlimit="10"/>
<path d="M60.133 25.6302V20.4199H48.5547V25.6302M60.133 25.6302H48.5547M60.133 25.6302V27.3669M48.5547 25.6302L48.5547 27.3669" stroke="#F5E8D1" stroke-width="0.7" stroke-miterlimit="10"/>
<path d="M56.6856 18.0004H51.7305V16.3705C51.7305 15.004 52.8408 13.9009 54.2163 13.9009C55.5918 13.9009 56.7021 15.004 56.7021 16.3705V18.0004H56.6856Z" stroke="#F5E8D1" stroke-width="0.7" stroke-miterlimit="10"/>
<path d="M51.8125 25.0512V24.8572C51.8125 24.1821 52.3195 23.3145 52.999 23.3145H55.5014C56.1809 23.3145 56.7676 24.1821 56.7676 24.8572V25.0512" stroke="#F5E8D1" stroke-width="0.7" stroke-miterlimit="10"/>
<path d="M51.7305 19.8058V19.1143C51.7305 18.4393 52.2774 17.896 52.9568 17.896H55.4592C56.1387 17.896 56.6856 18.4393 56.6856 19.1143V19.8058" stroke="#F5E8D1" stroke-width="0.7" stroke-miterlimit="10"/>
<path d="M51.9766 32.0406V28.124C51.9766 27.7124 52.4737 27.3667 53.1035 27.3667H55.407C56.0368 27.3667 56.5339 27.7124 56.5339 28.124V31.9418" stroke="#F5E8D1" stroke-width="0.7" stroke-miterlimit="10"/>
<path d="M51.7307 20.3164H49.1289V20.1188C49.1289 19.4273 49.6924 18.8511 50.405 18.8511H51.7307V20.3164Z" stroke="#F5E8D1" stroke-width="0.7" stroke-miterlimit="10"/>
<path d="M59.2854 20.3164H56.6836V18.8511H58.0094C58.7054 18.8511 59.2854 19.4109 59.2854 20.1188V20.3164Z" stroke="#F5E8D1" stroke-width="0.7" stroke-miterlimit="10"/>
<path d="M65.3205 58.4141H35.1094V61.6575H65.3205V58.4141Z" stroke="#F5E8D1" stroke-width="0.7" stroke-miterlimit="10"/>
<path d="M64.377 31.5478H59.9025L59.5545 32.0747H56.704C56.5383 31.7783 56.0743 31.5478 55.5274 31.5478H52.9919C52.4284 31.5478 51.9644 31.7783 51.8152 32.0747H49.2134L48.8654 31.5478H44.0429" stroke="#F5E8D1" stroke-width="0.7" stroke-miterlimit="10"/>
<path d="M64.4239 37.7354H59.6014L59.2534 38.2622H56.751C56.5853 37.9658 56.1213 37.7354 55.5744 37.7354H53.0388C52.4754 37.7354 52.0114 37.9658 51.8622 38.2622H49.2604L48.9124 37.7354H44.0898" stroke="#F5E8D1" stroke-width="0.7" stroke-miterlimit="10"/>
<path d="M64.4239 43.1685H59.6014L59.2534 43.6953H56.751C56.5853 43.399 56.1213 43.1685 55.5744 43.1685H53.0388C52.4754 43.1685 52.0114 43.399 51.8622 43.6953H49.2604L48.9124 43.1685H44.0898" stroke="#F5E8D1" stroke-width="0.7" stroke-miterlimit="10"/>
<path d="M64.4239 48.6016H59.6014L59.2534 49.1284H56.751C56.5853 48.8321 56.1213 48.6016 55.5744 48.6016H53.0388C52.4754 48.6016 52.0114 48.8321 51.8622 49.1284H49.2604L48.9124 48.6016H44.0898" stroke="#F5E8D1" stroke-width="0.7" stroke-miterlimit="10"/>
<path d="M64.4239 54.0347H59.6014L59.2534 54.5615H56.751C56.5853 54.2652 56.1213 54.0347 55.5744 54.0347H53.0388C52.4754 54.0347 52.0114 54.2652 51.8622 54.5615H49.2604L48.9124 54.0347H44.0898" stroke="#F5E8D1" stroke-width="0.7" stroke-miterlimit="10"/>
<path d="M59.4531 31.998L59.4531 58.101" stroke="#F5E8D1" stroke-width="0.7" stroke-miterlimit="10"/>
<path d="M49.1758 31.998L49.1758 58.2999" stroke="#F5E8D1" stroke-width="0.7" stroke-miterlimit="10"/>
<path d="M59.4531 53.8208V55.2038" stroke="#F5E8D1" stroke-width="0.7" stroke-miterlimit="10"/>
<path d="M38.6055 58.4307V61.6576" stroke="#F5E8D1" stroke-width="0.7" stroke-miterlimit="10"/>
<path d="M43.2383 58.4307V61.6576" stroke="#F5E8D1" stroke-width="0.7" stroke-miterlimit="10"/>
<path d="M47.8711 58.4307V61.6576" stroke="#F5E8D1" stroke-width="0.7" stroke-miterlimit="10"/>
<path d="M52.5 58.4307V61.6576" stroke="#F5E8D1" stroke-width="0.7" stroke-miterlimit="10"/>
<path d="M57.1328 58.4307V61.6576" stroke="#F5E8D1" stroke-width="0.7" stroke-miterlimit="10"/>
<path d="M61.7617 58.4307V61.6576" stroke="#F5E8D1" stroke-width="0.7" stroke-miterlimit="10"/>
<path d="M56.7656 31.9985V58.5789" stroke="#F5E8D1" stroke-width="0.7" stroke-miterlimit="10"/>
<path d="M51.8125 31.998L51.8125 58.5785" stroke="#F5E8D1" stroke-width="0.7" stroke-miterlimit="10"/>
</svg>
