<svg xmlns="http://www.w3.org/2000/svg" version="1.1" xmlns:xlink="http://www.w3.org/1999/xlink"><svg data-name="Слой_1" xmlns="http://www.w3.org/2000/svg" xmlns:xlink="http://www.w3.org/1999/xlink" version="1.1" viewBox="0 0 560 560">
  
  <defs>
    <style>
      .st0_981709667, .st1_981709667, .st2_981709667, .st3_981709667, .st4_981709667, .st5_981709667, .st6_981709667 {
        fill: none;
      }

      .st1_981709667, .st2_981709667, .st3_981709667, .st4_981709667, .st5_981709667, .st7_981709667, .st8_981709667, .st9_981709667, .st10_981709667, .st11_981709667, .st12_981709667, .st13_981709667, .st6_981709667, .st14_981709667, .st15_981709667 {
        stroke-linecap: round;
        stroke-linejoin: round;
      }

      .st1_981709667, .st5_981709667, .st8_981709667, .st9_981709667, .st6_981709667, .st14_981709667, .st15_981709667 {
        stroke-width: .5px;
      }

      .st1_981709667, .st8_981709667 {
        stroke: #d8cbb5;
      }

      .st2_981709667 {
        stroke-width: .25px;
      }

      .st2_981709667, .st3_981709667, .st4_981709667, .st5_981709667, .st7_981709667, .st9_981709667, .st10_981709667, .st11_981709667, .st12_981709667, .st13_981709667, .st6_981709667, .st15_981709667 {
        stroke: #1b4732;
      }

      .st3_981709667 {
        stroke-width: .5px;
      }

      .st4_981709667 {
        stroke-width: .5px;
      }

      .st7_981709667 {
        fill: #fff;
        stroke-width: .5px;
      }

      .st8_981709667 {
        fill: url(#_Терраса);
      }

      .st16_981709667 {
        fill: #1b4732;
      }

      .st9_981709667, .st10_981709667, .st11_981709667, .st12_981709667, .st13_981709667 {
        fill: #f5e8d1;
      }

      .st10_981709667 {
        stroke-width: .5px;
      }

      .st11_981709667 {
        stroke-width: .5px;
      }

      .st12_981709667 {
        stroke-width: .5px;
      }

      .st13_981709667 {
        stroke-width: .5px;
      }

      .st6_981709667 {
        stroke-dasharray: 3;
      }

      .st14_981709667 {
        fill: #666c35;
        stroke: #666c35;
      }

      .st15_981709667 {
        fill: #e1d1b6;
      }
    </style>
    <pattern data-name="Терраса" x="0" y="0" width="10.1" height="8.7" patternTransform="translate(-8 -15304) scale(1 -1)" patternUnits="userSpaceOnUse" viewBox="0 0 10.1 8.7">
      <g>
        <rect class=" st0_981709667" width="10.1" height="8.7"></rect>
        <g>
          <rect class=" st0_981709667" width="10.1" height="8.7"></rect>
          <g>
            <line class=" st1_981709667" x1="10.15" y1="6.4" x2="20.15" y2="6.4"></line>
            <line class=" st1_981709667" x1="10.15" y1="2.3" x2="20.15" y2="2.3"></line>
          </g>
          <g>
            <line class=" st1_981709667" x1=".05" y1="6.4" x2="10.05" y2="6.4"></line>
            <line class=" st1_981709667" x1=".05" y1="2.3" x2="10.05" y2="2.3"></line>
          </g>
          <g>
            <line class=" st1_981709667" x1="-10.05" y1="6.4" x2="-.05" y2="6.4"></line>
            <line class=" st1_981709667" x1="-10.05" y1="2.3" x2="-.05" y2="2.3"></line>
          </g>
        </g>
      </g>
    </pattern>
  </defs>
  <g>
    <line class=" st6_981709667" x1="337.97" y1="316.56" x2="337.97" y2="284.45"></line>
    <line class=" st6_981709667" x1="414.62" y1="284.36" x2="372.28" y2="284.36"></line>
  </g>
  <g>
    <path class=" st8_981709667" d="M85.68,389.59c2.87-3.48,7.22-5.71,12.09-5.71s9.22,2.23,12.09,5.71c3.97,4.82,10.01,7.45,16.26,7.45h9.21c.96,0,1.77.53,2.23,1.3l-.06-102.66h-67.16v101.32c5.92-.24,11.57-2.82,15.35-7.41Z"></path>
  </g>
  <g>
    <rect class=" st5_981709667" x="63.99" y="231.78" width="8.38" height="30.3"></rect>
    <rect class=" st5_981709667" x="63.99" y="203.82" width="8.38" height="25.14"></rect>
    <polygon class=" st5_981709667" points="72.34 231.5 72.37 231.4 72.37 231.5 72.34 231.5"></polygon>
    <rect class=" st5_981709667" x="63.99" y="170.27" width="8.38" height="30.73"></rect>
    <rect class=" st5_981709667" x="63.99" y="201" width="8.38" height="2.82"></rect>
    <polygon class=" st5_981709667" points="72.37 231.4 72.34 231.5 72.37 231.5 72.37 231.78 63.99 231.78 63.99 228.96 72.37 228.96 72.37 231.4"></polygon>
    <polygon class=" st5_981709667" points="72.37 231.4 72.37 231.5 72.34 231.5 72.37 231.4"></polygon>
    <rect class=" st5_981709667" x="63.99" y="262.08" width="8.38" height="2.84"></rect>
    <rect class=" st5_981709667" x="64" y="292.86" width="8.36" height="2.83"></rect>
    <rect class=" st5_981709667" x="63.99" y="295.68" width="6.34" height="103.98"></rect>
    <rect class=" st5_981709667" x="63.99" y="167.45" width="8.38" height="2.82"></rect>
    <rect class=" st5_981709667" x="63.99" y="170.27" width="1.41" height="30.73"></rect>
    <rect class=" st5_981709667" x="63.99" y="203.82" width="1.41" height="25.14"></rect>
    <rect class=" st5_981709667" x="63.99" y="231.78" width="1.41" height="30.3"></rect>
  </g>
  <g>
    <rect class=" st7_981709667" x="63.86" y="216.66" width="24.53" height="1.19" transform="translate(-153.43 234.56) rotate(-75)"></rect>
  </g>
  <g>
    <path class=" st2_981709667" d="M147.44,289.08h11.41v95.93h-11.41v-95.93ZM147.57,295.08h11.16M147.57,301.07h11.16M147.57,307.07h11.16M147.57,313.07h11.16M147.57,319.06h11.16M147.57,325.06h11.16M147.57,331.05h11.16M147.57,337.05h11.16M147.57,343.04h11.16M147.57,349.04h11.16M147.57,355.04h11.16M147.57,361.03h11.16M147.57,367.03h11.16M147.57,373.02h11.16M147.57,379.02h11.16M83.78,270.67h-11.41v-102.95h11.41v102.95ZM83.78,173.77h-11.16M83.78,179.77h-11.16M83.78,185.76h-11.16M83.78,191.76h-11.16M83.78,197.75h-11.16M83.78,203.75h-11.16M83.78,209.74h-11.16M83.78,215.74h-11.16M83.78,221.74h-11.16M83.78,227.73h-11.16M83.78,233.73h-11.16M83.78,239.72h-11.16M83.78,245.72h-11.16M83.78,251.71h-11.16M83.78,257.71h-11.16M83.78,263.71h-11.16"></path>
  </g>
  <g>
    <rect class=" st13_981709667" x="263.01" y="194.01" width="28.45" height="1.33"></rect>
    <rect class=" st9_981709667" x="201.2" y="167.72" width="18.09" height="48.51"></rect>
    <g>
      <path class=" st9_981709667" d="M216.45,182.6h-9.84v18.48h9.84c.55,0,1-.45,1-1v-16.48c0-.55-.45-1-1-1Z"></path>
      <rect class=" st9_981709667" x="205.19" y="182.6" width="1.42" height="18.48"></rect>
      <rect class=" st9_981709667" x="203.05" y="190.94" width="5.43" height="1.78"></rect>
      <circle class=" st9_981709667" cx="211.37" cy="191.84" r="1.26"></circle>
    </g>
    <g>
      <path class=" st9_981709667" d="M270.68,214.38v-10.85c0-.83.67-1.5,1.5-1.5h15.23v13.85h-15.23c-.83,0-1.5-.67-1.5-1.5Z"></path>
      <rect class=" st9_981709667" x="287.41" y="202.03" width="4.04" height="13.85"></rect>
    </g>
    <g>
      <path class=" st9_981709667" d="M291.45,173.41h-3.62c-.28,0-.5.22-.5.5v8.88c0,.28.22.5.5.5h3.62v-9.88Z"></path>
      <rect class=" st9_981709667" x="285.58" y="173.98" width="1.75" height="2.96"></rect>
      <ellipse class=" st9_981709667" cx="275.44" cy="178.35" rx="4.48" ry="4.59"></ellipse>
      <line class=" st5_981709667" x1="291.45" y1="178.35" x2="275.44" y2="178.35"></line>
    </g>
    <g>
      <rect class=" st9_981709667" x="166.17" y="163.97" width="19.53" height="15.68"></rect>
      <rect class=" st9_981709667" x="166.17" y="179.66" width="19.53" height="2.1"></rect>
      <rect class=" st9_981709667" x="83.68" y="163.97" width="19.53" height="15.69"></rect>
      <rect class=" st9_981709667" x="83.68" y="179.66" width="19.53" height="2.1"></rect>
      <rect class=" st9_981709667" x="103.21" y="163.97" width="62.96" height="3.59"></rect>
      <rect class=" st9_981709667" x="103.21" y="167.56" width="62.97" height="19.64"></rect>
      <rect class=" st9_981709667" x="136.22" y="170.4" width="26.07" height="14.08"></rect>
      <rect class=" st9_981709667" x="107.09" y="170.4" width="26.03" height="14.08"></rect>
      <polygon class=" st9_981709667" points="129.55 179.04 155.07 190.9 160.11 188.64 166.17 187.2 166.17 235.7 103.21 235.7 103.21 179.04 129.55 179.04"></polygon>
      <polygon class=" st9_981709667" points="166.17 187.2 160.11 188.64 155.07 190.9 129.55 179.04 134.06 179.04 166.17 187.2"></polygon>
    </g>
    <g>
      <path class=" st9_981709667" d="M124,342.6l-7.42,7.42c-.78.78-2.05.78-2.83,0l-35.39-35.39c-.78-.78-.78-2.05,0-2.83l7.42-7.42c.78-.78,2.05-.78,2.83,0l35.39,35.39c.78.78.78,2.05,0,2.83Z"></path>
      <path class=" st9_981709667" d="M121.21,339.8l-7.42,7.42c-.78.78-2.05.78-2.83,0l-29.8-29.8c-.78-.78-.78-2.05,0-2.83l7.42-7.42c.78-.78,2.05-.78,2.83,0l29.8,29.8c.78.78.78,2.05,0,2.83Z"></path>
      <path class=" st9_981709667" d="M116.59,304.38l7.42,7.42c.78.78.78,2.05,0,2.83l-35.39,35.39c-.78.78-2.05.78-2.83,0l-7.42-7.42c-.78-.78-.78-2.05,0-2.83l35.39-35.39c.78-.78,2.05-.78,2.83,0Z"></path>
      <path class=" st9_981709667" d="M113.79,307.17l7.42,7.42c.78.78.78,2.05,0,2.83l-29.8,29.8c-.78.78-2.05.78-2.83,0l-7.42-7.42c-.78-.78-.78-2.05,0-2.83l29.8-29.8c.78-.78,2.05-.78,2.83,0Z"></path>
      <circle class=" st9_981709667" cx="101.19" cy="327.2" r="16.2"></circle>
    </g>
    <rect class=" st9_981709667" x="72.36" y="288.49" width="65.24" height="7.19"></rect>
    <rect class=" st10_981709667" x="330.23" y="224.71" width="38.16" height="18.08"></rect>
    <g>
      <path class=" st9_981709667" d="M358.95,239.49v-9.84h-18.48v9.84c0,.55.45,1,1,1h16.48c.55,0,1-.45,1-1Z"></path>
      <rect class=" st10_981709667" x="340.48" y="228.23" width="18.48" height="1.42"></rect>
      <rect class=" st10_981709667" x="348.83" y="226.1" width="1.78" height="5.43"></rect>
      <circle class=" st9_981709667" cx="349.72" cy="234.41" r="1.26"></circle>
    </g>
    <g>
      <path class=" st9_981709667" d="M329.45,255.72v10.85c0,.83-.67,1.5-1.5,1.5h-15.23v-13.85h15.23c.83,0,1.5.67,1.5,1.5Z"></path>
      <rect class=" st11_981709667" x="308.68" y="254.22" width="4.04" height="13.85"></rect>
    </g>
    <g>
      <g>
        <rect class=" st9_981709667" x="109.84" y="271.25" width="39.54" height="1.63"></rect>
        <rect class=" st9_981709667" x="126.94" y="272.88" width="5.34" height="1.23"></rect>
      </g>
      <polyline class=" st5_981709667" points="138.13 267.85 129.59 271.25 121.05 267.85"></polyline>
    </g>
    <g>
      <rect class=" st9_981709667" x="337.97" y="316.56" width="35.01" height="74.72"></rect>
      <g>
        <path class=" st9_981709667" d="M322.49,380.16h15.48v-19.65h-15.48c-1.11,0-2,.89-2,2v15.65c0,1.1.9,2,2,2Z"></path>
        <path class=" st9_981709667" d="M327.26,380.16h10.7v-19.65h-10.7c-1.11,0-2,.89-2,2v15.65c0,1.1.9,2,2,2Z"></path>
      </g>
      <g>
        <path class=" st9_981709667" d="M322.49,350.14h15.48v-19.65h-15.48c-1.11,0-2,.89-2,2v15.65c0,1.1.9,2,2,2Z"></path>
        <path class=" st9_981709667" d="M327.26,350.14h10.7v-19.65h-10.7c-1.11,0-2,.89-2,2v15.65c0,1.1.9,2,2,2Z"></path>
      </g>
    </g>
    <rect class=" st9_981709667" x="414.62" y="285.2" width="23.26" height="105.65"></rect>
    <g>
      <rect class=" st9_981709667" x="414.62" y="363.24" width="23.26" height="22.87"></rect>
      <circle class=" st9_981709667" cx="421.12" cy="369.49" r="3.47"></circle>
      <circle class=" st9_981709667" cx="421.12" cy="379.86" r="3.47"></circle>
      <circle class=" st9_981709667" cx="431.38" cy="369.49" r="3.47"></circle>
      <circle class=" st9_981709667" cx="431.38" cy="379.86" r="3.47"></circle>
    </g>
    <g>
      <rect class=" st12_981709667" x="414.62" y="330.83" width="23.26" height="32.41"></rect>
      <path class=" st9_981709667" d="M416.88,334.35v25.38c0,.55.45,1,1,1h14.46c.55,0,1-.45,1-1v-25.38c0-.55-.45-1-1-1h-14.46c-.55,0-1,.45-1,1Z"></path>
      <rect class=" st12_981709667" x="429.62" y="345.81" width="7.07" height="2.44"></rect>
      <circle class=" st9_981709667" cx="425.84" cy="347.03" r="1.52"></circle>
      <rect class=" st12_981709667" x="434.59" y="345.81" width="2.1" height="2.44"></rect>
    </g>
    <g>
      <g>
        <rect class=" st9_981709667" x="414.62" y="308.46" width="23.26" height="22.36"></rect>
        <rect class=" st9_981709667" x="414.62" y="308.46" width="1.78" height="22.36"></rect>
        <path class=" st9_981709667" d="M421.41,319.64h0c0-1.32.63-2.19,1.53-2.72,1.11-.64,2.49-.65,3.67-.13l6.53,2.85-6.34,2.83c-1.05.47-2.26.52-3.32.06-1.15-.49-2.07-1.42-2.07-2.9Z"></path>
      </g>
      <g>
        <rect class=" st9_981709667" x="414.62" y="285.2" width="23.26" height="23.26"></rect>
        <rect class=" st9_981709667" x="414.62" y="285.2" width="1.78" height="23.26"></rect>
        <rect class=" st9_981709667" x="413.08" y="302.76" width="1.54" height="3.91"></rect>
        <g>
          <line class=" st5_981709667" x1="420.56" y1="296.83" x2="431.94" y2="296.83"></line>
          <line class=" st5_981709667" x1="429.09" y1="301.74" x2="423.4" y2="291.92"></line>
          <line class=" st5_981709667" x1="429.09" y1="291.92" x2="423.4" y2="301.74"></line>
        </g>
      </g>
    </g>
    <g>
      <rect class=" st9_981709667" x="489.68" y="307.27" width="21.14" height="60.73"></rect>
      <g>
        <line class=" st5_981709667" x1="508.03" y1="332.84" x2="492.48" y2="334.17"></line>
        <line class=" st5_981709667" x1="508.03" y1="344.08" x2="492.48" y2="345.41"></line>
        <line class=" st5_981709667" x1="508.03" y1="360.95" x2="492.48" y2="362.27"></line>
        <line class=" st5_981709667" x1="508.03" y1="349.71" x2="492.48" y2="351.03"></line>
        <line class=" st5_981709667" x1="508.03" y1="324.24" x2="492.48" y2="322.92"></line>
        <line class=" st5_981709667" x1="508.03" y1="339.79" x2="492.48" y2="338.46"></line>
        <line class=" st5_981709667" x1="508.03" y1="356.65" x2="492.48" y2="355.33"></line>
        <line class=" st5_981709667" x1="508.03" y1="328.54" x2="492.48" y2="328.54"></line>
        <line class=" st5_981709667" x1="508.03" y1="317.3" x2="492.48" y2="318.62"></line>
        <line class=" st5_981709667" x1="508.03" y1="313" x2="492.48" y2="313"></line>
      </g>
      <line class=" st5_981709667" x1="500.26" y1="364.48" x2="500.26" y2="310.79"></line>
    </g>
    <g>
      <rect class=" st9_981709667" x="488.62" y="224.71" width="19.16" height="56.23"></rect>
      <g>
        <line class=" st5_981709667" x1="505.24" y1="243.41" x2="491.16" y2="244.75"></line>
        <line class=" st5_981709667" x1="505.24" y1="254.41" x2="491.16" y2="255.76"></line>
        <line class=" st5_981709667" x1="505.24" y1="272.02" x2="491.16" y2="273.37"></line>
        <line class=" st5_981709667" x1="505.24" y1="261.01" x2="491.16" y2="262.36"></line>
        <line class=" st5_981709667" x1="505.24" y1="233.63" x2="491.16" y2="232.28"></line>
        <line class=" st5_981709667" x1="505.24" y1="249.79" x2="491.16" y2="248.45"></line>
        <line class=" st5_981709667" x1="505.24" y1="267.4" x2="491.16" y2="266.05"></line>
        <line class=" st5_981709667" x1="505.24" y1="239.23" x2="491.16" y2="239.23"></line>
      </g>
      <line class=" st5_981709667" x1="498.2" y1="277.41" x2="498.2" y2="228.24"></line>
    </g>
    <g>
      <rect class=" st9_981709667" x="195.19" y="259.34" width="84.52" height="20.57"></rect>
      <g>
        <line class=" st5_981709667" x1="275.96" y1="262.06" x2="274.72" y2="277.19"></line>
        <line class=" st5_981709667" x1="269.58" y1="262.06" x2="270.82" y2="277.19"></line>
        <line class=" st5_981709667" x1="265.53" y1="262.06" x2="265.53" y2="277.19"></line>
        <line class=" st5_981709667" x1="261.71" y1="262.06" x2="260.47" y2="277.19"></line>
        <line class=" st5_981709667" x1="246.34" y1="262.06" x2="245.09" y2="277.19"></line>
        <line class=" st5_981709667" x1="236.17" y1="262.06" x2="234.92" y2="277.19"></line>
        <line class=" st5_981709667" x1="219.9" y1="262.06" x2="218.66" y2="277.19"></line>
        <line class=" st5_981709667" x1="230.07" y1="262.06" x2="228.83" y2="277.19"></line>
        <line class=" st5_981709667" x1="255.37" y1="262.06" x2="256.62" y2="277.19"></line>
        <line class=" st5_981709667" x1="240.44" y1="262.06" x2="241.68" y2="277.19"></line>
        <line class=" st5_981709667" x1="224.17" y1="262.06" x2="225.41" y2="277.19"></line>
        <line class=" st5_981709667" x1="250.19" y1="262.06" x2="250.19" y2="277.19"></line>
        <line class=" st5_981709667" x1="210.35" y1="262.06" x2="209.11" y2="277.19"></line>
        <line class=" st5_981709667" x1="200.18" y1="262.06" x2="198.94" y2="277.19"></line>
        <line class=" st5_981709667" x1="204.45" y1="262.06" x2="205.7" y2="277.19"></line>
        <line class=" st5_981709667" x1="214.21" y1="262.06" x2="214.21" y2="277.19"></line>
      </g>
      <line class=" st5_981709667" x1="197.88" y1="269.62" x2="277.03" y2="269.62"></line>
    </g>
    <g>
      <rect class=" st9_981709667" x="279.71" y="226.95" width="20.97" height="17.45"></rect>
      <g>
        <line class=" st5_981709667" x1="297.9" y1="235.27" x2="282.49" y2="236.08"></line>
        <line class=" st5_981709667" x1="297.9" y1="232.33" x2="282.49" y2="231.51"></line>
        <line class=" st5_981709667" x1="297.9" y1="239.84" x2="282.49" y2="239.02"></line>
      </g>
      <line class=" st5_981709667" x1="290.2" y1="242.06" x2="290.2" y2="229.29"></line>
    </g>
    <g>
      <rect class=" st9_981709667" x="441.93" y="368" width="68.89" height="22.85"></rect>
      <g>
        <line class=" st5_981709667" x1="480.63" y1="371.03" x2="481.62" y2="387.83"></line>
        <line class=" st5_981709667" x1="465.89" y1="371.03" x2="466.89" y2="387.83"></line>
        <line class=" st5_981709667" x1="472.13" y1="371.03" x2="471.13" y2="387.83"></line>
        <line class=" st5_981709667" x1="486.87" y1="371.03" x2="485.87" y2="387.83"></line>
        <line class=" st5_981709667" x1="491.12" y1="371.03" x2="491.12" y2="387.83"></line>
        <line class=" st5_981709667" x1="451.15" y1="371.03" x2="452.15" y2="387.83"></line>
        <line class=" st5_981709667" x1="457.39" y1="371.03" x2="456.4" y2="387.83"></line>
        <line class=" st5_981709667" x1="461.64" y1="371.03" x2="461.64" y2="387.83"></line>
        <line class=" st5_981709667" x1="495.36" y1="371.03" x2="496.36" y2="387.83"></line>
        <line class=" st5_981709667" x1="501.61" y1="371.03" x2="500.61" y2="387.83"></line>
        <line class=" st5_981709667" x1="505.85" y1="371.03" x2="505.85" y2="387.83"></line>
        <line class=" st5_981709667" x1="476.38" y1="371.03" x2="476.38" y2="387.83"></line>
        <line class=" st5_981709667" x1="446.9" y1="371.03" x2="446.9" y2="387.83"></line>
      </g>
      <line class=" st5_981709667" x1="507.99" y1="379.43" x2="444.77" y2="379.43"></line>
    </g>
    <g>
      <circle class=" st9_981709667" cx="228.41" cy="332.17" r="37.67"></circle>
      <circle class=" st9_981709667" cx="219" cy="337.76" r="13.9"></circle>
    </g>
    <g>
      <path class=" st9_981709667" d="M281.53,350.79h-.02c8.93-18.17-19.29-30.04-26.01-10.92l.04.02c-3.19,6.04-7.76,12.07-14.19,15.39-7.06,3.64-14.99,3.71-22.26,2.45h0c-.2-.05-.42-.05-.62-.08-.07-.02-.14-.04-.21-.07-.1,0-.2,0-.3,0-1.19-.12-2.41-.04-3.61.28-14.88,2.86-14.72,26.74,2.45,27.64,25.26,4.04,54.13-11.48,64.72-34.7Z"></path>
      <path class=" st9_981709667" d="M275.28,346.49c-5.1,10.57-13.49,20.33-24.71,26.13-11.57,5.97-24.26,7.53-36.14,5.27v-.06c-2.77-.69-5.25-2.54-6.67-5.28-2.61-5.07-.63-11.29,4.44-13.9,2.21-1.14,4.63-1.4,6.88-.92h0c7.26,1.26,15.2,1.19,22.26-2.45,6.9-3.56,11.69-10.25,14.89-16.72v.03c.9-2.13,2.52-3.96,4.74-5.11,5.07-2.61,11.29-.63,13.9,4.44,1.43,2.77,1.48,5.89.41,8.58Z"></path>
      <g>
        <line class=" st5_981709667" x1="230.7" y1="358.36" x2="232.68" y2="385.59"></line>
        <line class=" st5_981709667" x1="249.72" y1="348.54" x2="272.44" y2="364.5"></line>
      </g>
    </g>
    <g>
      <path class=" st9_981709667" d="M164.4,342.1l.04-20.04c0-2.32,1.89-4.2,4.21-4.2l18.56.03c.21,0,.38.17.38.39l-.05,28.08c0,.21-.17.38-.38.38l-18.15-.03c-2.55,0-4.61-2.07-4.61-4.62Z"></path>
      <path class=" st9_981709667" d="M168.98,339.83l.02-14.17c0-1.97,1.6-3.56,3.57-3.56l17.74.03c.49,0,.89.4.89.89l-.03,18.63c0,.49-.4.89-.89.89l-18.63-.03c-1.48,0-2.67-1.2-2.67-2.68Z"></path>
      <path class=" st9_981709667" d="M179.12,340.12l-5.35-10.48c-.13-.25-.43-.34-.67-.22l-5.7,2.91c-.25.13-.34.43-.22.67l5.35,10.48c.13.25.43.34.67.22l5.7-2.91c.25-.13.34-.43.22-.67Z"></path>
    </g>
    <g>
      <path class=" st9_981709667" d="M393.71,241.68h-16.29c-.55,0-1-.45-1-1v-10.82c0-.55.45-1,1-1h16.3c.55,0,1,.45,1,1v10.82c0,.55-.45,1-1,1Z"></path>
      <g>
        <line class=" st5_981709667" x1="391.34" y1="230.77" x2="388.74" y2="233.37"></line>
        <line class=" st5_981709667" x1="391.34" y1="233.37" x2="388.74" y2="230.77"></line>
        <line class=" st5_981709667" x1="381.99" y1="230.77" x2="379.39" y2="233.37"></line>
        <line class=" st5_981709667" x1="381.99" y1="233.37" x2="379.39" y2="230.77"></line>
        <line class=" st5_981709667" x1="381.99" y1="237.16" x2="379.39" y2="239.76"></line>
        <line class=" st5_981709667" x1="381.99" y1="239.76" x2="379.39" y2="237.16"></line>
        <line class=" st5_981709667" x1="388.74" y1="237.16" x2="391.34" y2="239.76"></line>
        <line class=" st5_981709667" x1="391.34" y1="237.16" x2="388.74" y2="239.76"></line>
      </g>
    </g>
  </g>
  <g>
    <path class=" st15_981709667" d="M162.14,284.36h-16.57v8.49h-8.08v-4.37h-64.99v4.37h-8.49v-27.93h8.49v9.2h84.37v5.79h5.27v4.45ZM438.3,214.64v10.07h-66.02v20.79h-3.89v-20.79h-59.71v55.2h59.71v-3.24h3.89v7.69h-177.09v-4.45h84.52v-35.51h20.97v-17.45h-48.22v-3.81h38.99v-62.95h-90.25v62.95h21.58v3.78l-25.16.02v-63h-125.12v3.14h-8.51v-22.53h141.47v4.07h104.58v63.71h121.05v2.31h7.21ZM297.68,247.62h-13.6v32.16h13.6v-32.16ZM301.89,156.45h-7.29v66.56h7.29v-66.56ZM520,214.65v187.78H137.74v-1.75h0c-.4.95-1.33,1.61-2.41,1.61h-9.21c-6.25,0-12.28,2.63-16.26,7.45-2.87,3.48-7.22,5.71-12.09,5.71s-9.22-2.23-12.09-5.71c-3.97-4.82-10.01-7.45-16.26-7.45h-2.66c-1.44,0-2.62-1.17-2.62-2.62s1.17-2.62,2.62-2.62h2.66c6.25,0,12.28-2.63,16.26-7.45,2.87-3.48,7.22-5.71,12.09-5.71s9.22,2.23,12.09,5.71c3.97,4.82,10.01,7.45,16.26,7.45h9.21c1.08,0,2.01.66,2.41,1.6h0s0-13.63,0-13.63h7.93v5.84h292.21v-105.65h-23.26v-4.26h31.07v4.26h-3.76v105.65h68.89v-83.58h-21.14v-22.07h-9.08v-4.26h27.18v-56.23h-27.01v-10.07h39.22ZM515.28,285.2h-22.1v17.51l22.1-.15v-17.36Z"></path>
  </g>
  <g>
    <path class=" st5_981709667" d="M64,167.78h-24M64,230.28h-24M40,291.44h24"></path>
    <path class=" st5_981709667" d="M40,144.55v153.78c0,13.26,10.75,24.01,24.01,24.01v-177.79h-24.01Z"></path>
  </g>
  <g>
    <g>
      <rect class=" st3_981709667" x="249.14" y="197.27" width="1.7" height="26.52"></rect>
      <rect class=" st3_981709667" x="250.84" y="223.14" width="1.49" height="2.75"></rect>
      <rect class=" st3_981709667" x="222.65" y="223.14" width="1.49" height="2.75"></rect>
      <path class=" st5_981709667" d="M249.14,197.27c-14.54,0-24.99,15.07-24.99,25.79"></path>
    </g>
    <g>
      <rect class=" st4_981709667" x="447.45" y="284.45" width="2" height="31.19"></rect>
      <rect class=" st4_981709667" x="445.69" y="281.97" width="1.76" height="3.23"></rect>
      <rect class=" st4_981709667" x="478.84" y="281.97" width="1.76" height="3.23"></rect>
      <path class=" st5_981709667" d="M449.45,315.64c17.1,0,29.4-17.73,29.4-30.33"></path>
    </g>
    <g>
      <rect class=" st3_981709667" x="476.09" y="223.9" width="2.42" height="37.84"></rect>
      <rect class=" st3_981709667" x="478.52" y="220.89" width="2.13" height="3.92"></rect>
      <rect class=" st3_981709667" x="438.3" y="220.89" width="2.13" height="3.92"></rect>
      <path class=" st5_981709667" d="M476.09,261.74c-20.74,0-35.67-21.51-35.67-36.8"></path>
    </g>
    <g>
      <rect class=" st3_981709667" x="191.52" y="251.21" width="1.88" height="29.41"></rect>
      <rect class=" st3_981709667" x="193.4" y="279.91" width="1.66" height="3.05"></rect>
      <rect class=" st3_981709667" x="162.14" y="279.91" width="1.66" height="3.05"></rect>
      <path class=" st5_981709667" d="M191.52,251.21c-16.12,0-27.72,16.72-27.72,28.6"></path>
    </g>
    <g>
      <rect class=" st5_981709667" x="343.65" y="273.32" width="26.52" height="1.78"></rect>
      <rect class=" st5_981709667" x="369.53" y="275.11" width="2.75" height="1.57"></rect>
      <rect class=" st5_981709667" x="369.53" y="245.5" width="2.75" height="1.57"></rect>
      <path class=" st5_981709667" d="M343.65,273.32c0-15.27,15.07-26.25,25.79-26.25"></path>
    </g>
    <rect class=" st5_981709667" x="137.71" y="382.19" width="9.85" height="2.83"></rect>
    <rect class=" st5_981709667" x="137.6" y="292.85" width="9.83" height="2.83"></rect>
    <rect class=" st5_981709667" x="139.38" y="339.81" width="1.78" height="42.38"></rect>
    <rect class=" st5_981709667" x="137.61" y="295.68" width="1.78" height="44.13"></rect>
  </g>
  <g>
    <polygon class=" st14_981709667" points="468.7 202.04 468.27 202.04 459.83 212.61 460.63 188.96 460.63 188.44 458.67 188.44 458.67 188.96 459.48 212.61 451.05 202.04 450.61 202.04 450.61 204.61 459.63 213.68 468.7 204.61 468.7 202.04"></polygon>
  </g>
  <g>
    <g>
      <path class=" st16_981709667" d="M112.41,249.64v6.3h-.95v-5l-.85.55-.45-.75,1.6-1.1h.65Z"></path>
      <path class=" st16_981709667" d="M115.83,251.69c.29,0,.56.05.82.16s.48.26.67.46.34.43.45.69.17.54.17.84-.06.58-.17.84-.27.49-.47.69-.43.35-.7.46-.56.16-.87.16-.6-.05-.85-.14-.47-.22-.65-.38-.32-.34-.43-.55-.16-.44-.18-.68h.95c.01.11.05.22.11.33s.14.2.24.29.22.15.36.21.29.08.44.08c.17,0,.33-.03.49-.1s.29-.16.4-.27.2-.25.27-.41.1-.33.1-.52-.03-.36-.1-.52-.15-.3-.27-.41-.25-.2-.4-.27-.32-.1-.49-.1c-.2,0-.37.04-.52.12s-.27.17-.36.26c-.11.11-.21.24-.27.37h-.8l.4-3.65h3.35v.9h-2.54l-.16,1.5c.07-.06.17-.12.27-.17.09-.04.19-.09.32-.12s.26-.06.41-.06Z"></path>
      <path class=" st16_981709667" d="M119.21,254.89c.15,0,.28.06.39.17s.16.26.16.43c0,.25-.04.47-.12.64s-.18.32-.28.43c-.12.13-.25.24-.4.32l-.15-.2c.07-.05.13-.11.19-.18.05-.06.1-.13.15-.22s.08-.19.11-.3c-.17,0-.32-.05-.43-.16s-.17-.24-.17-.39.05-.28.16-.39.24-.16.39-.16Z"></path>
      <path class=" st16_981709667" d="M122.6,255.99c-.33,0-.62-.05-.88-.15s-.49-.23-.68-.4-.33-.36-.44-.59-.16-.46-.16-.71c0-.3.05-.55.16-.75s.22-.37.35-.5c.15-.15.31-.26.5-.35-.14-.09-.27-.19-.38-.31-.09-.11-.18-.24-.25-.39s-.11-.34-.11-.55c0-.23.05-.44.14-.65s.22-.38.39-.54.37-.28.61-.37.49-.14.76-.14.53.05.76.14.43.22.61.37.3.34.4.54.14.42.14.65c0,.21-.04.4-.12.55s-.17.28-.26.39c-.11.12-.24.23-.37.31.19.09.35.2.5.35.13.13.24.29.34.5s.15.46.15.75c0,.25-.05.49-.15.71s-.25.42-.43.59-.41.3-.68.4-.56.15-.88.15ZM122.6,253.04c-.38,0-.68.1-.89.3s-.32.45-.32.75.11.55.32.75.5.3.89.3.68-.1.89-.3.32-.45.32-.75-.11-.55-.32-.75-.51-.3-.89-.3ZM122.6,252.19c.28,0,.51-.08.68-.25s.26-.37.26-.6c0-.25-.09-.47-.26-.64s-.4-.26-.68-.26-.51.09-.69.26-.27.39-.27.64c0,.23.09.43.27.6s.41.25.69.25Z"></path>
    </g>
    <g>
      <path class=" st16_981709667" d="M296.79,306.7v6.3h-.95v-5l-.85.55-.45-.75,1.6-1.1h.65Z"></path>
      <path class=" st16_981709667" d="M301.91,306.7v.65l-2.6,5.65h-1l2.5-5.4h-2.85v-.9h3.95Z"></path>
      <path class=" st16_981709667" d="M303.09,311.95c.15,0,.28.06.39.17s.16.26.16.43c0,.25-.04.47-.12.64-.08.18-.18.32-.28.43-.12.13-.25.24-.4.32l-.15-.2c.07-.05.13-.11.19-.18.05-.06.1-.13.15-.22s.08-.19.11-.3c-.17,0-.32-.05-.43-.16-.11-.11-.17-.23-.17-.39s.05-.28.16-.39.24-.16.39-.16Z"></path>
      <path class=" st16_981709667" d="M304.37,308.4c.01-.24.07-.47.17-.68.1-.21.24-.4.42-.55.18-.16.39-.29.64-.38.24-.09.52-.14.82-.14.29,0,.55.05.79.14.24.1.45.23.64.39.18.16.32.35.42.56.1.21.15.43.15.66s-.04.42-.12.59c-.08.16-.18.3-.28.4-.12.12-.25.22-.4.31.19.09.35.2.5.34.13.12.24.28.34.48.1.2.15.44.15.73,0,.24-.05.47-.15.68-.1.21-.25.4-.43.57-.19.17-.41.3-.68.4s-.56.15-.88.15-.62-.05-.88-.14c-.26-.09-.48-.22-.67-.38-.18-.16-.33-.34-.43-.55-.1-.21-.16-.43-.18-.68h.95c.01.11.05.22.11.33.06.11.14.2.24.29.1.09.23.15.37.2.15.05.3.08.48.08.38,0,.68-.1.89-.29.21-.19.31-.43.31-.71s-.11-.52-.32-.71-.51-.29-.88-.29h-.45v-.85h.4c.33,0,.58-.09.77-.26.19-.17.28-.39.28-.64,0-.28-.09-.51-.28-.68-.19-.18-.44-.26-.77-.26s-.58.09-.78.26-.3.39-.33.64h-.95Z"></path>
    </g>
    <g>
      <path class=" st16_981709667" d="M418.89,257.34c-.31,0-.6-.05-.87-.16s-.5-.26-.7-.46c-.2-.2-.35-.43-.47-.69s-.17-.54-.17-.84c0-.19.03-.37.1-.56.06-.19.13-.35.21-.5.09-.17.19-.34.3-.49l1.75-2.65h1.05l-1.4,2.1s.07-.01.12-.02c.03,0,.07-.01.12-.02.05,0,.1,0,.15,0,.26,0,.51.05.76.16.24.11.45.26.64.46.18.2.33.43.44.69s.17.54.17.84-.06.58-.17.84c-.11.26-.27.49-.47.69-.2.2-.43.35-.7.46s-.56.16-.87.16ZM417.64,255.2c0,.19.03.36.1.52.06.16.15.3.27.41s.25.2.4.27.32.1.49.1.33-.03.49-.1.29-.16.4-.27.2-.25.27-.41c.06-.16.1-.33.1-.52s-.03-.36-.1-.52c-.06-.16-.15-.3-.27-.41s-.25-.2-.4-.27-.32-.1-.49-.1-.33.03-.49.1-.29.16-.4.27-.2.25-.27.41c-.07.16-.1.34-.1.52Z"></path>
      <path class=" st16_981709667" d="M422.32,256.24c.15,0,.28.06.39.17s.16.26.16.43c0,.25-.04.47-.12.64-.08.18-.18.32-.28.43-.12.13-.25.24-.4.32l-.15-.2c.07-.05.13-.11.19-.18.05-.06.1-.13.15-.22s.08-.19.11-.3c-.17,0-.32-.05-.43-.16s-.17-.23-.17-.39.05-.28.16-.39.24-.16.39-.16Z"></path>
      <path class=" st16_981709667" d="M425.75,250.95c.31,0,.6.05.87.16s.5.26.7.46c.2.2.35.43.47.69s.17.54.17.84c0,.19-.03.38-.1.56-.06.18-.13.35-.21.5-.09.17-.19.34-.3.49l-1.75,2.65h-1.05l1.4-2.1s-.07.02-.11.03c-.03,0-.07.01-.12.01-.05,0-.1,0-.16,0-.26,0-.51-.05-.76-.16-.24-.11-.45-.26-.64-.46-.18-.2-.33-.43-.44-.69s-.17-.54-.17-.84.06-.58.17-.84.27-.49.47-.69c.2-.2.43-.35.7-.46s.56-.16.87-.16ZM427,253.1c0-.19-.03-.36-.1-.52-.06-.16-.15-.3-.27-.41s-.25-.2-.4-.27-.32-.1-.49-.1-.33.03-.49.1-.29.16-.4.27-.2.25-.27.41c-.06.16-.1.33-.1.52s.03.36.1.52c.06.16.15.3.27.41s.25.2.4.27.32.1.49.1.33-.03.49-.1.29-.16.4-.27.2-.25.27-.41c.07-.16.1-.33.1-.52Z"></path>
    </g>
    <g>
      <path class=" st16_981709667" d="M464.24,336.06c.29,0,.56.05.82.16.26.11.48.26.67.46.19.2.34.42.45.69s.17.54.17.84-.06.58-.17.84-.27.49-.47.69c-.2.2-.43.35-.7.46-.27.11-.56.16-.87.16s-.6-.05-.85-.14c-.25-.09-.47-.22-.65-.38s-.32-.34-.42-.55c-.1-.21-.16-.43-.18-.68h.95c.01.11.05.22.11.33.06.11.14.2.24.29.1.09.22.15.36.2.14.05.29.08.44.08.17,0,.33-.03.49-.1.15-.07.29-.16.4-.27.11-.11.2-.25.27-.41.06-.16.1-.33.1-.52s-.03-.36-.1-.52c-.06-.16-.15-.3-.27-.41-.11-.11-.25-.2-.4-.27-.15-.07-.32-.1-.49-.1-.2,0-.37.04-.52.12-.15.08-.27.17-.36.26-.11.11-.2.24-.27.37h-.8l.4-3.65h3.35v.9h-2.54l-.16,1.5c.08-.06.16-.11.27-.17.09-.05.19-.09.32-.12.12-.03.26-.05.41-.05Z"></path>
      <path class=" st16_981709667" d="M467.62,339.26c.15,0,.28.06.39.17s.16.26.16.43c0,.25-.04.47-.12.64-.08.18-.18.32-.28.43-.12.13-.25.24-.4.32l-.15-.2c.07-.05.13-.11.19-.18.05-.06.1-.13.15-.22s.08-.19.11-.3c-.17,0-.32-.05-.43-.16-.11-.11-.17-.23-.17-.39s.05-.28.16-.39.24-.16.39-.16Z"></path>
      <path class=" st16_981709667" d="M471.05,333.96c.31,0,.6.05.87.16.27.11.5.26.7.46.2.2.35.42.47.69s.17.54.17.84c0,.19-.03.38-.1.56-.06.18-.13.35-.21.49-.09.17-.19.33-.3.49l-1.75,2.65h-1.05l1.4-2.1s-.07.02-.11.03c-.03,0-.07.01-.12.02-.05,0-.1,0-.16,0-.26,0-.51-.05-.76-.16-.24-.11-.45-.26-.64-.46-.18-.2-.33-.42-.44-.69s-.17-.54-.17-.84.06-.58.17-.84.27-.49.47-.69c.2-.2.43-.35.7-.46.27-.11.56-.16.87-.16ZM472.3,336.11c0-.19-.03-.36-.1-.52-.06-.16-.15-.3-.27-.41-.11-.11-.25-.2-.4-.27-.15-.07-.32-.1-.49-.1s-.33.03-.49.1c-.15.07-.29.16-.4.27-.11.11-.2.25-.27.41-.06.16-.1.33-.1.52s.03.36.1.52c.06.16.15.3.27.41s.25.2.4.27c.15.07.32.1.49.1s.33-.03.49-.1c.15-.07.29-.16.4-.27s.2-.25.27-.41c.07-.16.1-.33.1-.52Z"></path>
    </g>
    <g>
      <path class=" st16_981709667" d="M391.24,356.89c.31,0,.6.05.87.16.27.11.5.26.7.46.2.2.35.42.47.69s.17.54.17.84c0,.19-.03.38-.1.56-.06.18-.13.35-.21.49-.09.17-.19.33-.3.49l-1.75,2.65h-1.05l1.4-2.1s-.07.02-.11.03c-.03,0-.07.01-.12.02-.05,0-.1,0-.16,0-.26,0-.51-.05-.76-.16-.24-.11-.45-.26-.64-.46-.18-.2-.33-.42-.44-.69s-.17-.54-.17-.84.06-.58.17-.84.27-.49.47-.69c.2-.2.43-.35.7-.46.27-.11.56-.16.87-.16ZM392.49,359.04c0-.19-.03-.36-.1-.52-.06-.16-.15-.3-.27-.41-.11-.11-.25-.2-.4-.27-.15-.07-.32-.1-.49-.1s-.33.03-.49.1c-.15.07-.29.16-.4.27-.11.11-.2.25-.27.41-.06.16-.1.33-.1.52s.03.36.1.52c.06.16.15.3.27.41s.25.2.4.27c.15.07.32.1.49.1s.33-.03.49-.1c.15-.07.29-.16.4-.27s.2-.25.27-.41c.07-.16.1-.33.1-.52Z"></path>
      <path class=" st16_981709667" d="M394.67,362.19c.15,0,.28.06.39.17s.16.26.16.43c0,.25-.04.47-.12.64-.08.18-.18.32-.28.43-.12.13-.25.24-.4.32l-.15-.2c.07-.05.13-.11.19-.18.05-.06.1-.13.15-.22s.08-.19.11-.3c-.17,0-.32-.05-.43-.16-.11-.11-.17-.23-.17-.39s.05-.28.16-.39.24-.16.39-.16Z"></path>
      <path class=" st16_981709667" d="M398.05,356.94v6.3h-.95v-5l-.85.55-.45-.75,1.6-1.1h.65Z"></path>
    </g>
    <g>
      <path class=" st16_981709667" d="M240.05,176.46c.29,0,.56.05.82.16s.48.26.67.46.34.43.45.69.17.54.17.84-.06.58-.17.84-.27.49-.47.69-.43.35-.7.46-.56.16-.87.16-.6-.05-.85-.14-.47-.22-.65-.38-.32-.34-.43-.55-.16-.44-.18-.68h.95c.01.11.05.22.11.33s.14.2.24.29.22.15.36.21.29.08.44.08c.17,0,.34-.03.49-.1s.29-.16.4-.27.2-.25.27-.41.1-.33.1-.52-.03-.36-.1-.52-.15-.3-.27-.41-.25-.2-.4-.27-.32-.1-.49-.1c-.2,0-.37.04-.52.12s-.27.17-.36.26c-.11.11-.21.24-.27.37h-.8l.4-3.65h3.35v.9h-2.54l-.16,1.5c.07-.06.16-.12.27-.17.09-.04.19-.09.32-.12s.26-.06.41-.06Z"></path>
      <path class=" st16_981709667" d="M243.43,179.66c.15,0,.28.06.39.17s.16.26.16.43c0,.25-.04.47-.12.65s-.18.32-.28.43c-.12.13-.25.24-.4.32l-.15-.2c.07-.04.13-.11.19-.18.05-.06.1-.13.15-.22s.08-.19.11-.3c-.17,0-.32-.05-.43-.16s-.17-.24-.17-.39.05-.28.16-.39.24-.16.39-.16Z"></path>
      <path class=" st16_981709667" d="M246.96,176.46c.29,0,.56.05.82.16s.48.26.67.46.34.43.45.69.17.54.17.84-.06.58-.17.84-.27.49-.47.69-.43.35-.7.46-.56.16-.87.16-.6-.05-.85-.14-.47-.22-.65-.38-.32-.34-.43-.55-.16-.44-.18-.68h.95c.01.11.05.22.11.33s.14.2.24.29.22.15.36.21.29.08.44.08c.17,0,.34-.03.49-.1s.29-.16.4-.27.2-.25.27-.41.1-.33.1-.52-.03-.36-.1-.52-.15-.3-.27-.41-.25-.2-.4-.27-.32-.1-.49-.1c-.2,0-.37.04-.52.12s-.27.17-.36.26c-.11.11-.21.24-.27.37h-.8l.4-3.65h3.35v.9h-2.54l-.16,1.5c.07-.06.16-.12.27-.17.09-.04.19-.09.32-.12s.26-.06.41-.06Z"></path>
    </g>
    <g>
      <path class=" st16_981709667" d="M334.74,251.34c.01-.24.07-.47.17-.68.1-.21.24-.4.42-.55.18-.16.39-.29.64-.38.24-.09.52-.14.82-.14.29,0,.55.05.79.14.24.1.45.23.64.39.18.16.32.35.42.56.1.21.15.43.15.66s-.04.42-.12.59c-.08.16-.18.3-.28.4-.12.12-.25.22-.4.31.19.09.35.2.5.34.13.12.24.28.34.48.1.2.15.44.15.73,0,.24-.05.47-.15.68-.1.21-.25.4-.43.57-.19.16-.41.3-.68.4s-.56.15-.88.15-.62-.05-.88-.14-.48-.22-.67-.38c-.18-.16-.33-.34-.43-.55-.1-.21-.16-.44-.18-.68h.95c.01.11.05.22.11.33.06.11.14.2.24.29.1.09.23.15.37.21.15.05.3.08.48.08.38,0,.68-.1.89-.29.21-.19.31-.43.31-.71s-.11-.52-.32-.71-.51-.29-.88-.29h-.45v-.85h.4c.33,0,.58-.09.77-.26.19-.17.28-.39.28-.64,0-.28-.09-.51-.28-.68-.19-.18-.44-.26-.77-.26s-.58.09-.78.26-.3.39-.33.64h-.95Z"></path>
      <path class=" st16_981709667" d="M340.26,254.89c.15,0,.28.06.39.17s.16.26.16.43c0,.25-.04.47-.12.64-.08.18-.18.32-.28.43-.12.13-.25.24-.4.32l-.15-.2c.07-.05.13-.11.19-.18.05-.06.1-.13.15-.22s.08-.19.11-.3c-.17,0-.32-.05-.43-.16s-.17-.24-.17-.39.05-.28.16-.39.24-.16.39-.16Z"></path>
      <path class=" st16_981709667" d="M341.54,251.34c.01-.24.07-.47.17-.68.1-.21.24-.4.42-.55.18-.16.39-.29.64-.38.24-.09.52-.14.82-.14.29,0,.55.05.79.14.24.1.45.23.64.39.18.16.32.35.42.56.1.21.15.43.15.66s-.04.42-.12.59c-.08.16-.18.3-.28.4-.12.12-.25.22-.4.31.19.09.35.2.5.34.13.12.24.28.34.48.1.2.15.44.15.73,0,.24-.05.47-.15.68-.1.21-.25.4-.43.57-.19.16-.41.3-.68.4s-.56.15-.88.15-.62-.05-.88-.14-.48-.22-.67-.38c-.18-.16-.33-.34-.43-.55-.1-.21-.16-.44-.18-.68h.95c.01.11.05.22.11.33.06.11.14.2.24.29.1.09.23.15.37.21.15.05.3.08.48.08.38,0,.68-.1.89-.29.21-.19.31-.43.31-.71s-.11-.52-.32-.71-.51-.29-.88-.29h-.45v-.85h.4c.33,0,.58-.09.77-.26.19-.17.28-.39.28-.64,0-.28-.09-.51-.28-.68-.19-.18-.44-.26-.77-.26s-.58.09-.78.26-.3.39-.33.64h-.95Z"></path>
    </g>
    <g>
      <path class=" st16_981709667" d="M88.97,365.19c.29,0,.56.05.82.16.26.11.48.26.67.46.19.2.34.42.45.69s.17.54.17.84-.06.58-.17.84-.27.49-.47.69c-.2.2-.43.35-.7.46-.27.11-.56.16-.87.16s-.6-.05-.85-.14c-.25-.09-.47-.22-.65-.38s-.32-.34-.43-.55c-.1-.21-.16-.43-.18-.68h.95c.01.11.05.22.11.33.06.11.14.2.24.29.1.09.22.15.36.2.14.05.29.08.44.08.17,0,.33-.03.49-.1.15-.07.29-.16.4-.27.11-.11.2-.25.27-.41.06-.16.1-.33.1-.52s-.03-.36-.1-.52c-.06-.16-.15-.3-.27-.41-.11-.11-.25-.2-.4-.27-.15-.07-.32-.1-.49-.1-.2,0-.37.04-.52.12-.15.08-.27.17-.36.26-.11.11-.21.24-.27.37h-.8l.4-3.65h3.35v.9h-2.54l-.16,1.5c.07-.06.17-.11.27-.17.09-.05.19-.09.32-.12s.26-.05.41-.05Z"></path>
      <path class=" st16_981709667" d="M92.35,368.39c.15,0,.28.06.39.17s.16.26.16.43c0,.25-.04.47-.12.64s-.18.32-.28.43c-.12.13-.25.24-.4.32l-.15-.2c.07-.05.13-.11.19-.18.05-.06.1-.13.15-.22s.08-.19.11-.3c-.17,0-.32-.05-.43-.16-.11-.11-.17-.23-.17-.39s.05-.28.16-.39.24-.16.39-.16Z"></path>
      <path class=" st16_981709667" d="M97.93,368.19h-.7v1.25h-.95v-1.25h-2.8v-.8l2.65-4.25h1.1v4.15h.7v.9h0ZM96.28,367.29v-2.75l-1.7,2.75h1.7Z"></path>
      <path class=" st16_981709667" d="M101.34,371.24h-.85l2.6-8.1h.85l-2.6,8.1Z"></path>
      <path class=" st16_981709667" d="M110.74,368.54v.9h-4.05v-.7l2.5-2.7c.11-.12.21-.24.3-.37.07-.11.14-.24.21-.37s.1-.27.1-.41c0-.28-.1-.51-.29-.68s-.46-.26-.81-.26c-.33,0-.59.1-.8.3-.21.2-.31.47-.31.79h-.95c0-.29.05-.55.14-.79s.23-.45.41-.61.39-.3.64-.4c.25-.1.54-.14.85-.14s.6.05.85.14c.25.09.47.22.64.39s.31.36.41.59.14.47.14.73c0,.2-.05.4-.14.6s-.2.38-.31.53c-.13.18-.28.35-.45.52l-1.79,1.95h2.69Z"></path>
      <path class=" st16_981709667" d="M112.07,368.39c.15,0,.28.06.39.17s.16.26.16.43c0,.25-.04.47-.12.64s-.18.32-.28.43c-.12.13-.25.24-.4.32l-.15-.2c.07-.05.13-.11.19-.18.05-.06.1-.13.15-.22s.08-.19.11-.3c-.17,0-.32-.05-.43-.16-.11-.11-.17-.23-.17-.39s.05-.28.16-.39.24-.16.39-.16Z"></path>
      <path class=" st16_981709667" d="M117.3,363.14v.65l-2.6,5.65h-1l2.5-5.4h-2.85v-.9h3.95Z"></path>
      <path class=" st16_981709667" d="M118.83,364.74l-1-.25.2-.65.95.35-.05-1.05h.7l-.05,1.05.95-.35.2.65-1,.25.65.8-.6.4-.5-.85-.5.85-.6-.4.65-.8Z"></path>
    </g>
  </g>
</svg></svg>