<svg xmlns="http://www.w3.org/2000/svg" version="1.1" xmlns:xlink="http://www.w3.org/1999/xlink"><svg data-name="Слой_1" xmlns="http://www.w3.org/2000/svg" xmlns:xlink="http://www.w3.org/1999/xlink" version="1.1" viewBox="0 0 560 560">
  
  <defs>
    <style>
      .st0_29407583, .st1_29407583, .st2_29407583, .st3_29407583, .st4_29407583, .st5_29407583, .st6_29407583 {
        fill: none;
      }

      .st1_29407583, .st2_29407583, .st3_29407583, .st4_29407583, .st5_29407583, .st7_29407583, .st8_29407583, .st9_29407583, .st10_29407583, .st11_29407583, .st12_29407583, .st13_29407583, .st6_29407583, .st14_29407583, .st15_29407583 {
        stroke-linecap: round;
        stroke-linejoin: round;
      }

      .st1_29407583, .st5_29407583, .st8_29407583, .st9_29407583, .st6_29407583, .st14_29407583, .st15_29407583 {
        stroke-width: .5px;
      }

      .st1_29407583, .st8_29407583 {
        stroke: #d8cbb5;
      }

      .st2_29407583 {
        stroke-width: .25px;
      }

      .st2_29407583, .st3_29407583, .st4_29407583, .st5_29407583, .st7_29407583, .st9_29407583, .st10_29407583, .st11_29407583, .st12_29407583, .st13_29407583, .st6_29407583, .st15_29407583 {
        stroke: #1b4732;
      }

      .st3_29407583 {
        stroke-width: .5px;
      }

      .st4_29407583 {
        stroke-width: .5px;
      }

      .st7_29407583 {
        fill: #fff;
        stroke-width: .5px;
      }

      .st8_29407583 {
        fill: url(#_Терраса);
      }

      .st16_29407583 {
        fill: #1b4732;
      }

      .st9_29407583, .st10_29407583, .st11_29407583, .st12_29407583, .st13_29407583 {
        fill: #f5e8d1;
      }

      .st10_29407583 {
        stroke-width: .5px;
      }

      .st11_29407583 {
        stroke-width: .5px;
      }

      .st12_29407583 {
        stroke-width: .5px;
      }

      .st13_29407583 {
        stroke-width: .5px;
      }

      .st6_29407583 {
        stroke-dasharray: 3;
      }

      .st14_29407583 {
        fill: #666c35;
        stroke: #666c35;
      }

      .st15_29407583 {
        fill: #e1d1b6;
      }
    </style>
    <pattern data-name="Терраса" x="0" y="0" width="10.1" height="8.7" patternTransform="translate(-8 -15304) scale(1 -1)" patternUnits="userSpaceOnUse" viewBox="0 0 10.1 8.7">
      <g>
        <rect class=" st0_29407583" width="10.1" height="8.7"></rect>
        <g>
          <rect class=" st0_29407583" width="10.1" height="8.7"></rect>
          <g>
            <line class=" st1_29407583" x1="10.15" y1="6.4" x2="20.15" y2="6.4"></line>
            <line class=" st1_29407583" x1="10.15" y1="2.3" x2="20.15" y2="2.3"></line>
          </g>
          <g>
            <line class=" st1_29407583" x1=".05" y1="6.4" x2="10.05" y2="6.4"></line>
            <line class=" st1_29407583" x1=".05" y1="2.3" x2="10.05" y2="2.3"></line>
          </g>
          <g>
            <line class=" st1_29407583" x1="-10.05" y1="6.4" x2="-.05" y2="6.4"></line>
            <line class=" st1_29407583" x1="-10.05" y1="2.3" x2="-.05" y2="2.3"></line>
          </g>
        </g>
      </g>
    </pattern>
  </defs>
  <g>
    <line class=" st6_29407583" x1="221.91" y1="316.59" x2="221.91" y2="284.45"></line>
    <line class=" st6_29407583" x1="145.2" y1="284.37" x2="187.57" y2="284.37"></line>
  </g>
  <g>
    <path class=" st8_29407583" d="M422.32,398.75c.4-.94,1.33-1.6,2.41-1.6h9.22c6.25,0,12.29-2.64,16.27-7.46,2.87-3.49,7.22-5.71,12.1-5.71s9.23,2.23,12.1,5.71c3.75,4.55,9.35,7.13,15.22,7.4v-101.39h-67.32v103.05Z"></path>
  </g>
  <g>
    <rect class=" st5_29407583" x="487.61" y="231.74" width="8.36" height="30.33"></rect>
    <rect class=" st5_29407583" x="487.61" y="203.75" width="8.36" height="25.16"></rect>
    <rect class=" st5_29407583" x="487.61" y="169.1" width="8.36" height="31.84"></rect>
    <rect class=" st5_29407583" x="487.61" y="166.27" width="8.36" height="2.82"></rect>
    <rect class=" st5_29407583" x="487.61" y="200.93" width="8.36" height="2.82"></rect>
    <rect class=" st5_29407583" x="487.61" y="228.92" width="8.36" height="2.82"></rect>
    <rect class=" st5_29407583" x="487.61" y="262.06" width="8.36" height="2.85"></rect>
    <rect class=" st5_29407583" x="487.61" y="292.87" width="8.37" height="2.83"></rect>
    <rect class=" st5_29407583" x="489.63" y="295.7" width="6.35" height="104.07"></rect>
    <rect class=" st5_29407583" x="494.56" y="169.1" width="1.41" height="31.84"></rect>
    <rect class=" st5_29407583" x="494.56" y="203.75" width="1.41" height="25.16"></rect>
    <rect class=" st5_29407583" x="494.56" y="231.74" width="1.41" height="30.33"></rect>
  </g>
  <g>
    <rect class=" st7_29407583" x="483.26" y="204.92" width="1.19" height="24.55" transform="translate(-39.73 132.63) rotate(-15)"></rect>
  </g>
  <g>
    <path class=" st2_29407583" d="M476.44,167.62h11.42v103.04h-11.42v-103.04ZM476.44,173.68h11.17M476.44,179.68h11.17M476.44,185.68h11.17M476.44,191.68h11.17M476.44,197.68h11.17M476.44,203.69h11.17M476.44,209.69h11.17M476.44,215.69h11.17M476.44,221.69h11.17M476.44,227.69h11.17M476.44,233.69h11.17M476.44,239.69h11.17M476.44,245.69h11.17M476.44,251.69h11.17M476.44,257.69h11.17M476.44,263.69h11.17M401.05,289.09h11.42v96.01h-11.42v-96.01ZM401.17,295.09h11.17M401.17,301.09h11.17M401.17,307.09h11.17M401.17,313.09h11.17M401.17,319.09h11.17M401.17,325.1h11.17M401.17,331.1h11.17M401.17,337.1h11.17M401.17,343.1h11.17M401.17,349.1h11.17M401.17,355.1h11.17M401.17,361.1h11.17M401.17,367.1h11.17M401.17,373.1h11.17M401.17,379.1h11.17"></path>
  </g>
  <g>
    <g>
      <path class=" st9_29407583" d="M268.47,183.08h3.62c.28,0,.5-.22.5-.5v-8.89c0-.28-.22-.5-.5-.5h-3.62v9.89Z"></path>
      <rect class=" st9_29407583" x="272.59" y="179.54" width="1.75" height="2.96"></rect>
      <ellipse class=" st9_29407583" cx="284.49" cy="178.14" rx="4.48" ry="4.59"></ellipse>
      <line class=" st5_29407583" x1="268.47" y1="178.14" x2="284.49" y2="178.14"></line>
    </g>
    <rect class=" st13_29407583" x="268.47" y="193.81" width="28.47" height="1.33"></rect>
    <g>
      <path class=" st9_29407583" d="M435.92,342.65l7.42,7.42c.78.78,2.05.78,2.83,0l35.42-35.42c.78-.78.78-2.05,0-2.83l-7.42-7.42c-.78-.78-2.05-.78-2.83,0l-35.42,35.42c-.78.78-.78,2.05,0,2.83Z"></path>
      <path class=" st9_29407583" d="M438.72,339.85l7.42,7.42c.78.78,2.05.78,2.83,0l29.83-29.83c.78-.78.78-2.05,0-2.83l-7.42-7.42c-.78-.78-2.05-.78-2.83,0l-29.83,29.83c-.78.78-.78,2.05,0,2.83Z"></path>
      <path class=" st9_29407583" d="M443.35,304.4l-7.42,7.42c-.78.78-.78,2.05,0,2.83l35.42,35.42c.78.78,2.05.78,2.83,0l7.42-7.42c.78-.78.78-2.05,0-2.83l-35.42-35.42c-.78-.78-2.05-.78-2.83,0Z"></path>
      <path class=" st9_29407583" d="M446.15,307.2l-7.42,7.42c-.78.78-.78,2.05,0,2.83l29.83,29.83c.78.78,2.05.78,2.83,0l7.42-7.42c.78-.78.78-2.05,0-2.83l-29.83-29.83c-.78-.78-2.05-.78-2.83,0Z"></path>
      <circle class=" st9_29407583" cx="458.76" cy="327.23" r="16.22"></circle>
    </g>
    <rect class=" st10_29407583" x="191.46" y="224.66" width="38.19" height="18.1"></rect>
    <g>
      <path class=" st9_29407583" d="M200.91,239.46v-9.85h18.49v9.85c0,.55-.45,1-1,1h-16.49c-.55,0-1-.45-1-1Z"></path>
      <rect class=" st10_29407583" x="200.91" y="228.19" width="18.49" height="1.42"></rect>
      <rect class=" st10_29407583" x="209.26" y="226.05" width="1.78" height="5.43"></rect>
      <circle class=" st9_29407583" cx="210.15" cy="234.37" r="1.26"></circle>
    </g>
    <rect class=" st9_29407583" x="340.69" y="167.5" width="18.11" height="48.55"></rect>
    <g>
      <path class=" st9_29407583" d="M343.54,182.38h9.85v18.49h-9.85c-.55,0-1-.45-1-1v-16.49c0-.55.45-1,1-1Z"></path>
      <rect class=" st9_29407583" x="353.38" y="182.38" width="1.42" height="18.49"></rect>
      <rect class=" st9_29407583" x="351.51" y="190.74" width="5.43" height="1.78"></rect>
      <circle class=" st9_29407583" cx="348.62" cy="191.63" r="1.26"></circle>
    </g>
    <g>
      <path class=" st9_29407583" d="M230.44,255.7v10.86c0,.83.67,1.5,1.5,1.5h15.24v-13.86h-15.24c-.83,0-1.5.67-1.5,1.5Z"></path>
      <rect class=" st11_29407583" x="247.19" y="254.2" width="4.04" height="13.86"></rect>
    </g>
    <g>
      <path class=" st9_29407583" d="M289.25,214.2v-10.86c0-.83-.67-1.5-1.5-1.5h-15.24v13.86h15.24c.83,0,1.5-.67,1.5-1.5Z"></path>
      <rect class=" st9_29407583" x="268.47" y="201.84" width="4.04" height="13.86"></rect>
    </g>
    <g>
      <rect class=" st9_29407583" x="370.82" y="163.88" width="19.55" height="15.7"></rect>
      <rect class=" st9_29407583" x="370.82" y="179.57" width="19.55" height="2.1"></rect>
      <rect class=" st9_29407583" x="453.39" y="163.87" width="19.55" height="15.7"></rect>
      <rect class=" st9_29407583" x="453.39" y="179.57" width="19.54" height="2.1"></rect>
      <rect class=" st9_29407583" x="390.37" y="163.87" width="63.02" height="3.6"></rect>
      <rect class=" st9_29407583" x="390.37" y="167.47" width="63.02" height="19.66"></rect>
      <rect class=" st9_29407583" x="394.26" y="170.31" width="26.09" height="14.09"></rect>
      <rect class=" st9_29407583" x="423.45" y="170.31" width="26.05" height="14.09"></rect>
      <polygon class=" st9_29407583" points="427.02 178.95 401.48 190.83 396.44 188.56 390.37 187.12 390.37 235.66 453.39 235.66 453.39 178.95 427.02 178.95"></polygon>
      <polygon class=" st9_29407583" points="390.37 187.12 396.44 188.56 401.48 190.83 427.02 178.95 422.51 178.95 390.37 187.12"></polygon>
    </g>
    <rect class=" st9_29407583" x="422.31" y="288.5" width="65.3" height="7.2"></rect>
    <g>
      <rect class=" st9_29407583" x="186.87" y="316.59" width="35.04" height="74.78"></rect>
      <g>
        <path class=" st9_29407583" d="M237.4,380.24h-15.49v-19.67h15.49c1.1,0,2,.89,2,2v15.67c0,1.1-.9,2-2,2Z"></path>
        <path class=" st9_29407583" d="M232.63,380.24h-10.72v-19.67h10.72c1.1,0,2,.89,2,2v15.67c0,1.1-.9,2-2,2Z"></path>
      </g>
      <g>
        <path class=" st9_29407583" d="M237.4,350.2h-15.49v-19.67h15.49c1.1,0,2,.89,2,2v15.67c0,1.1-.9,2-2,2Z"></path>
        <path class=" st9_29407583" d="M232.63,350.2h-10.72v-19.67h10.72c1.1,0,2,.89,2,2v15.67c0,1.1-.9,2-2,2Z"></path>
      </g>
    </g>
    <rect class=" st9_29407583" x="121.92" y="285.2" width="23.28" height="105.74"></rect>
    <g>
      <rect class=" st9_29407583" x="121.92" y="363.31" width="23.28" height="22.89"></rect>
      <circle class=" st9_29407583" cx="138.69" cy="369.56" r="3.48"></circle>
      <circle class=" st9_29407583" cx="138.69" cy="379.94" r="3.48"></circle>
      <circle class=" st9_29407583" cx="128.42" cy="369.56" r="3.48"></circle>
      <circle class=" st9_29407583" cx="128.42" cy="379.94" r="3.48"></circle>
    </g>
    <g>
      <rect class=" st12_29407583" x="121.92" y="330.87" width="23.28" height="32.44"></rect>
      <path class=" st9_29407583" d="M142.93,334.39v25.4c0,.55-.45,1-1,1h-14.47c-.55,0-1-.45-1-1v-25.4c0-.55.45-1,1-1h14.47c.55,0,1,.45,1,1Z"></path>
      <rect class=" st12_29407583" x="123.11" y="345.87" width="7.07" height="2.44"></rect>
      <circle class=" st9_29407583" cx="133.96" cy="347.09" r="1.52"></circle>
      <rect class=" st12_29407583" x="123.11" y="345.87" width="2.1" height="2.44"></rect>
    </g>
    <g>
      <g>
        <rect class=" st9_29407583" x="121.92" y="308.48" width="23.28" height="22.38"></rect>
        <rect class=" st9_29407583" x="143.42" y="308.48" width="1.78" height="22.38"></rect>
        <path class=" st9_29407583" d="M138.4,319.68h0c0-1.32-.63-2.19-1.53-2.72-1.11-.64-2.49-.65-3.67-.13l-6.54,2.85,6.35,2.84c1.05.47,2.26.52,3.32.06,1.15-.49,2.07-1.42,2.07-2.9Z"></path>
      </g>
      <g>
        <rect class=" st9_29407583" x="121.92" y="285.2" width="23.28" height="23.28"></rect>
        <rect class=" st9_29407583" x="143.42" y="285.2" width="1.78" height="23.28"></rect>
        <rect class=" st9_29407583" x="145.2" y="302.78" width="1.54" height="3.91"></rect>
        <g>
          <line class=" st5_29407583" x1="139.25" y1="296.84" x2="127.86" y2="296.84"></line>
          <line class=" st5_29407583" x1="130.71" y1="301.76" x2="136.4" y2="291.93"></line>
          <line class=" st5_29407583" x1="130.71" y1="291.93" x2="136.4" y2="301.76"></line>
        </g>
      </g>
    </g>
    <g>
      <rect class=" st9_29407583" x="48.19" y="307.3" width="21.88" height="60.78"></rect>
      <g>
        <line class=" st5_29407583" x1="51.08" y1="332.89" x2="67.17" y2="334.21"></line>
        <line class=" st5_29407583" x1="51.08" y1="344.14" x2="67.17" y2="345.46"></line>
        <line class=" st5_29407583" x1="51.08" y1="361.02" x2="67.17" y2="362.34"></line>
        <line class=" st5_29407583" x1="51.08" y1="349.77" x2="67.17" y2="351.09"></line>
        <line class=" st5_29407583" x1="51.08" y1="324.28" x2="67.17" y2="322.96"></line>
        <line class=" st5_29407583" x1="51.08" y1="339.84" x2="67.17" y2="338.51"></line>
        <line class=" st5_29407583" x1="51.08" y1="356.71" x2="67.17" y2="355.39"></line>
        <line class=" st5_29407583" x1="51.08" y1="328.58" x2="67.17" y2="328.58"></line>
        <line class=" st5_29407583" x1="51.08" y1="317.33" x2="67.17" y2="318.66"></line>
        <line class=" st5_29407583" x1="51.08" y1="313.03" x2="67.17" y2="313.03"></line>
      </g>
      <line class=" st5_29407583" x1="59.13" y1="364.56" x2="59.13" y2="310.81"></line>
    </g>
    <g>
      <rect class=" st9_29407583" x="51.95" y="224.66" width="19.18" height="56.27"></rect>
      <g>
        <line class=" st5_29407583" x1="54.49" y1="243.38" x2="68.59" y2="244.72"></line>
        <line class=" st5_29407583" x1="54.49" y1="254.39" x2="68.59" y2="255.74"></line>
        <line class=" st5_29407583" x1="54.49" y1="272.01" x2="68.59" y2="273.36"></line>
        <line class=" st5_29407583" x1="54.49" y1="261" x2="68.59" y2="262.35"></line>
        <line class=" st5_29407583" x1="54.49" y1="233.59" x2="68.59" y2="232.24"></line>
        <line class=" st5_29407583" x1="54.49" y1="249.77" x2="68.59" y2="248.42"></line>
        <line class=" st5_29407583" x1="54.49" y1="267.39" x2="68.59" y2="266.04"></line>
        <line class=" st5_29407583" x1="54.49" y1="239.2" x2="68.59" y2="239.2"></line>
      </g>
      <line class=" st5_29407583" x1="61.54" y1="277.41" x2="61.54" y2="228.19"></line>
    </g>
    <g>
      <rect class=" st9_29407583" x="280.22" y="259.32" width="84.59" height="20.59"></rect>
      <g>
        <line class=" st5_29407583" x1="283.97" y1="262.05" x2="285.22" y2="277.18"></line>
        <line class=" st5_29407583" x1="290.36" y1="262.05" x2="289.11" y2="277.18"></line>
        <line class=" st5_29407583" x1="294.41" y1="262.05" x2="294.41" y2="277.18"></line>
        <line class=" st5_29407583" x1="298.23" y1="262.05" x2="299.48" y2="277.18"></line>
        <line class=" st5_29407583" x1="313.62" y1="262.05" x2="314.87" y2="277.18"></line>
        <line class=" st5_29407583" x1="323.8" y1="262.05" x2="325.04" y2="277.18"></line>
        <line class=" st5_29407583" x1="340.08" y1="262.05" x2="341.32" y2="277.18"></line>
        <line class=" st5_29407583" x1="329.9" y1="262.05" x2="331.14" y2="277.18"></line>
        <line class=" st5_29407583" x1="304.58" y1="262.05" x2="303.33" y2="277.18"></line>
        <line class=" st5_29407583" x1="319.53" y1="262.05" x2="318.28" y2="277.18"></line>
        <line class=" st5_29407583" x1="335.81" y1="262.05" x2="334.56" y2="277.18"></line>
        <line class=" st5_29407583" x1="309.76" y1="262.05" x2="309.76" y2="277.18"></line>
        <line class=" st5_29407583" x1="349.64" y1="262.05" x2="350.88" y2="277.18"></line>
        <line class=" st5_29407583" x1="359.81" y1="262.05" x2="361.06" y2="277.18"></line>
        <line class=" st5_29407583" x1="355.54" y1="262.05" x2="354.3" y2="277.18"></line>
        <line class=" st5_29407583" x1="345.78" y1="262.05" x2="345.78" y2="277.18"></line>
      </g>
      <line class=" st5_29407583" x1="362.12" y1="269.62" x2="282.9" y2="269.62"></line>
    </g>
    <g>
      <rect class=" st9_29407583" x="259.23" y="226.9" width="20.99" height="17.46"></rect>
      <g>
        <line class=" st5_29407583" x1="262.01" y1="235.23" x2="277.44" y2="236.05"></line>
        <line class=" st5_29407583" x1="262.01" y1="232.29" x2="277.44" y2="231.47"></line>
        <line class=" st5_29407583" x1="262.01" y1="239.81" x2="277.44" y2="238.99"></line>
      </g>
      <line class=" st5_29407583" x1="269.72" y1="242.03" x2="269.72" y2="229.24"></line>
    </g>
    <g>
      <rect class=" st9_29407583" x="48.19" y="368.07" width="69.67" height="22.87"></rect>
      <g>
        <line class=" st5_29407583" x1="78.73" y1="371.1" x2="77.72" y2="387.92"></line>
        <line class=" st5_29407583" x1="93.63" y1="371.1" x2="92.62" y2="387.92"></line>
        <line class=" st5_29407583" x1="87.32" y1="371.1" x2="88.33" y2="387.92"></line>
        <line class=" st5_29407583" x1="72.41" y1="371.1" x2="73.42" y2="387.92"></line>
        <line class=" st5_29407583" x1="68.12" y1="371.1" x2="68.12" y2="387.92"></line>
        <line class=" st5_29407583" x1="108.54" y1="371.1" x2="107.53" y2="387.92"></line>
        <line class=" st5_29407583" x1="102.22" y1="371.1" x2="103.23" y2="387.92"></line>
        <line class=" st5_29407583" x1="97.93" y1="371.1" x2="97.93" y2="387.92"></line>
        <line class=" st5_29407583" x1="63.82" y1="371.1" x2="62.81" y2="387.92"></line>
        <line class=" st5_29407583" x1="57.51" y1="371.1" x2="58.52" y2="387.92"></line>
        <line class=" st5_29407583" x1="53.21" y1="371.1" x2="53.21" y2="387.92"></line>
        <line class=" st5_29407583" x1="83.02" y1="371.1" x2="83.02" y2="387.92"></line>
        <line class=" st5_29407583" x1="112.83" y1="371.1" x2="112.83" y2="387.92"></line>
      </g>
      <line class=" st5_29407583" x1="51.05" y1="379.51" x2="114.99" y2="379.51"></line>
    </g>
    <g>
      <circle class=" st9_29407583" cx="326.87" cy="332.21" r="37.7"></circle>
      <circle class=" st9_29407583" cx="336.29" cy="337.81" r="13.91"></circle>
    </g>
    <g>
      <path class=" st9_29407583" d="M273.71,350.85h.02c-8.94-18.18,19.31-30.07,26.03-10.93l-.04.02c3.19,6.04,7.77,12.08,14.2,15.4,7.06,3.64,15,3.71,22.27,2.45h0c.2-.05.42-.05.62-.08.07-.02.14-.04.21-.07.1,0,.2,0,.3,0,1.2-.12,2.41-.04,3.61.28,14.89,2.87,14.73,26.76-2.45,27.66-25.29,4.04-54.18-11.48-64.78-34.73Z"></path>
      <path class=" st9_29407583" d="M279.95,346.55c5.1,10.58,13.5,20.35,24.74,26.15,11.58,5.98,24.28,7.53,36.17,5.28l-.02-.06c2.78-.69,5.27-2.54,6.69-5.29,2.62-5.07.63-11.3-4.44-13.92-2.21-1.14-4.64-1.41-6.89-.92h0c-7.27,1.26-15.21,1.2-22.27-2.45-6.91-3.57-11.7-10.26-14.9-16.74v.03c-.9-2.13-2.53-3.96-4.74-5.11-5.07-2.62-11.3-.63-13.92,4.44-1.43,2.78-1.48,5.9-.41,8.59Z"></path>
      <g>
        <line class=" st5_29407583" x1="324.58" y1="358.43" x2="322.59" y2="385.67"></line>
        <line class=" st5_29407583" x1="305.54" y1="348.6" x2="282.8" y2="364.57"></line>
      </g>
    </g>
    <g>
      <path class=" st9_29407583" d="M390.93,342.16l-.04-20.06c0-2.32-1.89-4.2-4.21-4.2l-18.58.03c-.21,0-.38.17-.38.39l.05,28.11c0,.21.17.38.39.38l18.17-.03c2.55,0,4.61-2.07,4.6-4.62Z"></path>
      <path class=" st9_29407583" d="M386.35,339.88l-.02-14.19c0-1.97-1.6-3.56-3.57-3.56l-17.76.03c-.49,0-.89.4-.89.89l.03,18.64c0,.49.4.89.89.89l18.65-.03c1.48,0,2.67-1.2,2.67-2.68Z"></path>
      <path class=" st9_29407583" d="M376.2,340.17l5.36-10.49c.13-.25.43-.34.67-.22l5.7,2.91c.25.13.34.43.22.67l-5.36,10.49c-.13.25-.43.34-.67.22l-5.7-2.91c-.25-.13-.34-.43-.22-.67Z"></path>
    </g>
    <g>
      <path class=" st9_29407583" d="M166.12,241.65h16.31c.55,0,1-.45,1-1v-10.84c0-.55-.45-1-1-1h-16.31c-.55,0-1,.45-1,1v10.84c0,.55.45,1,1,1Z"></path>
      <g>
        <line class=" st5_29407583" x1="168.49" y1="230.73" x2="171.1" y2="233.33"></line>
        <line class=" st5_29407583" x1="168.49" y1="233.33" x2="171.1" y2="230.73"></line>
        <line class=" st5_29407583" x1="177.85" y1="230.73" x2="180.46" y2="233.33"></line>
        <line class=" st5_29407583" x1="177.85" y1="233.33" x2="180.46" y2="230.73"></line>
        <line class=" st5_29407583" x1="177.85" y1="237.12" x2="180.46" y2="239.73"></line>
        <line class=" st5_29407583" x1="177.85" y1="239.73" x2="180.46" y2="237.12"></line>
        <line class=" st5_29407583" x1="171.1" y1="237.12" x2="168.49" y2="239.73"></line>
        <line class=" st5_29407583" x1="168.49" y1="237.12" x2="171.1" y2="239.73"></line>
      </g>
    </g>
    <g>
      <g>
        <rect class=" st9_29407583" x="410.66" y="271.25" width="39.57" height="1.63"></rect>
        <rect class=" st9_29407583" x="427.77" y="272.88" width="5.34" height="1.24"></rect>
      </g>
      <polyline class=" st5_29407583" points="421.92 267.83 430.46 271.25 439.01 267.84"></polyline>
    </g>
  </g>
  <g>
    <path class=" st15_29407583" d="M495.97,264.91v27.96h-8.36v-4.37h-65.18v4.37h-7.96v-8.5h-16.72v-4.46h5.41v-5.8h84.44v-9.2h8.36ZM495.97,144.44v22.55h-8.36v-3.14h-125.23v63.05l-25.18-.02v-3.78h21.6v-63h-90.32v63s39.02,0,39.02,0v3.81h-48.26v17.46h20.99v35.54h84.59v4.46h-177.24v-7.7h3.89v3.24h59.76v-55.25h-59.76v20.81h-3.89v-20.81h-66.2v-10.08h7.35v-2.31h121.15v-63.76h104.67v-4.08h141.43ZM262.15,279.91h13.62v-32.19h-13.62v32.19ZM265.23,156.48h-7.29v66.62h7.29v-66.62ZM495.97,399.77c0,1.45-1.17,2.62-2.62,2.62h-2.67c-6.25,0-12.29,2.64-16.27,7.46-2.87,3.49-7.23,5.71-12.1,5.71s-9.23-2.23-12.1-5.71c-3.98-4.83-10.02-7.46-16.27-7.46h-9.22c-1.08,0-2.02-.66-2.41-1.6h0s0,1.74,0,1.74H40v-187.93h0s38.98,0,38.98,0v10.08h-27.03v56.27h27.1v4.27h-8.99v22.09h-21.88v83.65h69.67v-105.74h-3.76v-4.27h31.1v4.27h-23.28v105.74h292.46v-5.84h7.94v13.65h0c.4-.94,1.33-1.6,2.41-1.6h9.22c6.25,0,12.29-2.64,16.27-7.46,2.87-3.49,7.22-5.71,12.1-5.71s9.23,2.23,12.1,5.71c3.98,4.83,10.02,7.46,16.27,7.46h2.67c1.45,0,2.62,1.17,2.62,2.62ZM44.31,302.73h22.24v-17.52h-22.24v17.52Z"></path>
  </g>
  <g>
    <path class=" st5_29407583" d="M495.98,167.69h24.02M495.98,230.24h24.02M495.98,291.45h24.02"></path>
    <path class=" st5_29407583" d="M520,144.44v147.01c0,15.22-12.01,24.67-24.03,24.67v-171.68h24.03Z"></path>
  </g>
  <g>
    <g>
      <rect class=" st4_29407583" x="110.34" y="284.45" width="2" height="31.22"></rect>
      <rect class=" st4_29407583" x="112.34" y="281.97" width="1.76" height="3.24"></rect>
      <rect class=" st4_29407583" x="79.16" y="281.97" width="1.76" height="3.24"></rect>
      <path class=" st5_29407583" d="M110.34,315.67c-17.11,0-29.42-17.74-29.42-30.36"></path>
    </g>
    <g>
      <rect class=" st3_29407583" x="308.98" y="197.2" width="1.7" height="26.54"></rect>
      <rect class=" st3_29407583" x="307.49" y="223.1" width="1.49" height="2.75"></rect>
      <rect class=" st3_29407583" x="335.7" y="223.1" width="1.49" height="2.75"></rect>
      <path class=" st5_29407583" d="M310.68,197.2c14.55,0,25.01,15.08,25.01,25.81"></path>
    </g>
    <g>
      <rect class=" st3_29407583" x="81.12" y="223.85" width="2.42" height="37.87"></rect>
      <rect class=" st3_29407583" x="78.98" y="220.84" width="2.13" height="3.93"></rect>
      <rect class=" st3_29407583" x="119.24" y="220.84" width="2.13" height="3.93"></rect>
      <path class=" st5_29407583" d="M83.54,261.73c20.76,0,35.7-21.52,35.7-36.83"></path>
    </g>
    <g>
      <rect class=" st3_29407583" x="366.47" y="251.19" width="1.88" height="29.44"></rect>
      <rect class=" st3_29407583" x="364.81" y="279.91" width="1.66" height="3.05"></rect>
      <rect class=" st3_29407583" x="396.1" y="279.91" width="1.66" height="3.05"></rect>
      <path class=" st5_29407583" d="M368.35,251.18c16.13,0,27.74,16.73,27.74,28.63"></path>
    </g>
    <g>
      <rect class=" st5_29407583" x="189.68" y="273.32" width="26.54" height="1.78"></rect>
      <rect class=" st5_29407583" x="187.57" y="275.1" width="2.75" height="1.57"></rect>
      <rect class=" st5_29407583" x="187.57" y="245.48" width="2.75" height="1.57"></rect>
      <path class=" st5_29407583" d="M216.22,273.32c0-15.28-15.08-26.27-25.81-26.27"></path>
    </g>
    <rect class=" st5_29407583" x="412.47" y="382.27" width="9.84" height="2.83"></rect>
    <rect class=" st5_29407583" x="412.47" y="292.87" width="9.84" height="2.83"></rect>
    <rect class=" st5_29407583" x="418.75" y="339.86" width="1.78" height="42.41"></rect>
    <rect class=" st5_29407583" x="420.53" y="295.69" width="1.78" height="44.17"></rect>
  </g>
  <g>
    <polygon class=" st14_29407583" points="109.23 201.97 108.8 201.97 100.35 212.55 101.16 188.88 101.16 188.36 99.19 188.36 99.19 188.88 100 212.55 91.56 201.97 91.12 201.97 91.12 204.55 100.15 213.62 109.23 204.55 109.23 201.97"></polygon>
  </g>
  <g>
    <g>
      <path class=" st16_29407583" d="M416.82,247.83v6.3h-.95v-5l-.85.55-.45-.75,1.6-1.1h.65Z"></path>
      <path class=" st16_29407583" d="M420.25,249.88c.29,0,.56.05.82.16s.48.26.67.46c.19.2.34.43.45.69s.17.54.17.84-.06.58-.17.84-.27.49-.47.69c-.2.2-.43.35-.7.46s-.56.16-.87.16-.6-.05-.85-.14-.47-.22-.65-.38-.32-.34-.42-.55-.16-.44-.18-.68h.95c.01.11.05.22.11.33.06.11.14.2.24.29s.22.15.36.21.29.08.44.08c.17,0,.33-.03.49-.1s.29-.16.4-.27.2-.25.27-.41c.06-.16.1-.33.1-.52s-.03-.36-.1-.52c-.06-.16-.15-.3-.27-.41s-.25-.2-.4-.27-.32-.1-.49-.1c-.2,0-.37.04-.52.12-.15.08-.27.17-.36.26-.11.11-.2.24-.27.37h-.8l.4-3.65h3.35v.9h-2.54l-.16,1.5c.08-.06.16-.12.27-.17.09-.04.19-.09.32-.12.12-.04.26-.06.41-.06Z"></path>
      <path class=" st16_29407583" d="M423.63,253.08c.15,0,.28.06.39.17s.16.26.16.43c0,.25-.04.47-.12.65-.08.18-.18.32-.28.43-.12.13-.25.24-.4.32l-.15-.2c.07-.04.13-.11.19-.18.05-.06.1-.13.15-.22s.08-.19.11-.3c-.17,0-.32-.05-.43-.16s-.17-.24-.17-.39.05-.28.16-.39.24-.16.39-.16Z"></path>
      <path class=" st16_29407583" d="M427.01,254.18c-.33,0-.62-.05-.88-.15s-.49-.23-.68-.4c-.19-.17-.33-.36-.44-.59s-.16-.46-.16-.71c0-.3.05-.55.16-.75s.22-.37.35-.5c.15-.15.31-.26.5-.35-.14-.09-.27-.19-.38-.31-.1-.11-.18-.24-.25-.39s-.11-.34-.11-.55c0-.23.05-.44.14-.65.09-.2.22-.38.39-.54s.37-.28.61-.37.49-.14.76-.14.53.05.76.14c.23.09.43.22.61.37.17.16.3.34.39.54.09.2.14.42.14.65,0,.21-.04.4-.12.55-.08.15-.17.28-.26.39-.11.12-.24.23-.37.31.19.09.35.2.5.35.13.13.24.29.34.5.1.2.15.46.15.75,0,.25-.05.49-.15.71-.1.22-.25.42-.43.59-.19.17-.41.3-.68.4s-.56.15-.88.15ZM427.01,251.23c-.38,0-.68.1-.89.3-.21.2-.31.45-.31.75s.11.55.31.75c.21.2.51.3.89.3s.68-.1.89-.3c.21-.2.31-.45.31-.75s-.11-.55-.31-.75c-.21-.2-.51-.3-.89-.3ZM427.01,250.38c.28,0,.51-.08.68-.25s.26-.37.26-.6c0-.25-.09-.47-.26-.64s-.4-.26-.68-.26-.51.09-.69.26c-.18.17-.27.39-.27.64,0,.23.09.43.27.6.18.17.41.25.69.25Z"></path>
    </g>
    <g>
      <path class=" st16_29407583" d="M247.12,302.7v6.3h-.95v-5l-.85.55-.45-.75,1.6-1.1h.65Z"></path>
      <path class=" st16_29407583" d="M252.24,302.7v.65l-2.6,5.65h-1l2.5-5.4h-2.85v-.9h3.95Z"></path>
      <path class=" st16_29407583" d="M253.42,307.95c.15,0,.28.06.39.17s.16.26.16.43c0,.25-.04.47-.12.64s-.18.32-.28.43c-.12.13-.25.24-.4.32l-.15-.2c.07-.05.13-.11.19-.18.05-.06.1-.13.15-.22s.08-.19.11-.3c-.17,0-.32-.05-.43-.16-.11-.11-.17-.23-.17-.39s.05-.28.16-.39.24-.16.39-.16Z"></path>
      <path class=" st16_29407583" d="M254.7,304.4c.01-.24.07-.47.17-.68.1-.21.24-.4.42-.55s.39-.29.63-.38c.25-.09.52-.14.82-.14.29,0,.55.05.79.14.24.1.45.23.64.39s.32.35.42.56c.1.21.15.43.15.66s-.04.42-.12.59-.17.3-.28.4c-.12.12-.25.22-.4.31.19.09.35.2.5.34.13.12.24.28.34.48.1.2.15.44.15.73,0,.24-.05.47-.15.68s-.25.4-.43.57c-.19.17-.41.3-.68.4-.26.1-.56.15-.88.15s-.62-.05-.88-.14c-.26-.09-.48-.22-.67-.38s-.33-.34-.43-.55c-.1-.21-.16-.43-.18-.68h.95c.01.11.05.22.11.33.06.11.14.2.24.29.1.09.23.15.37.2.14.05.3.08.48.08.38,0,.68-.1.89-.29.21-.19.32-.43.32-.71s-.11-.52-.32-.71-.51-.29-.88-.29h-.45v-.85h.4c.33,0,.58-.09.77-.26s.28-.39.28-.64c0-.28-.09-.51-.28-.68s-.44-.26-.77-.26-.58.09-.78.26-.3.39-.33.64h-.95Z"></path>
    </g>
    <g>
      <path class=" st16_29407583" d="M165.42,359.74c.31,0,.6.05.87.16.27.11.5.26.7.46.2.2.35.42.47.69s.17.54.17.84c0,.19-.03.38-.1.56s-.13.35-.21.49c-.09.17-.19.33-.3.49l-1.75,2.65h-1.05l1.4-2.1s-.07.02-.11.03c-.03,0-.07.01-.12.02s-.1,0-.16,0c-.26,0-.51-.05-.75-.16-.24-.11-.46-.26-.64-.46-.18-.2-.33-.42-.44-.69s-.17-.54-.17-.84.06-.58.17-.84.27-.49.47-.69c.2-.2.43-.35.7-.46.27-.11.56-.16.87-.16ZM166.67,361.89c0-.19-.03-.36-.1-.52-.06-.16-.15-.3-.27-.41-.11-.11-.25-.2-.4-.27-.15-.07-.32-.1-.49-.1s-.34.03-.49.1c-.15.07-.29.16-.4.27-.11.11-.2.25-.27.41s-.1.33-.1.52.03.36.1.52.15.3.27.41.25.2.4.27c.15.07.32.1.49.1s.34-.03.49-.1c.15-.07.29-.16.4-.27s.2-.25.27-.41.1-.33.1-.52Z"></path>
      <path class=" st16_29407583" d="M168.85,365.04c.15,0,.28.06.39.17s.16.26.16.43c0,.25-.04.47-.12.64s-.18.32-.28.43c-.12.13-.25.24-.4.32l-.15-.2c.07-.05.13-.11.19-.18.05-.06.1-.13.15-.22s.08-.19.11-.3c-.17,0-.32-.05-.43-.16-.11-.11-.17-.23-.17-.39s.05-.28.16-.39.24-.16.39-.16Z"></path>
      <path class=" st16_29407583" d="M172.23,359.79v6.3h-.95v-5l-.85.55-.45-.75,1.6-1.1h.65Z"></path>
    </g>
    <g>
      <path class=" st16_29407583" d="M130.92,257.32c-.31,0-.6-.05-.87-.16s-.5-.26-.7-.46-.35-.43-.47-.69-.17-.54-.17-.84c0-.19.03-.37.1-.56s.13-.35.21-.5c.09-.17.19-.34.3-.49l1.75-2.65h1.05l-1.4,2.1s.07-.01.12-.02c.03,0,.07-.01.12-.02s.1,0,.15,0c.26,0,.51.05.75.16s.46.26.64.46.33.43.44.69.17.54.17.84-.06.58-.17.84c-.11.26-.27.49-.47.69s-.43.35-.7.46-.56.16-.87.16ZM129.67,255.17c0,.19.03.36.1.52s.15.3.27.41c.11.11.25.2.4.27s.32.1.49.1.34-.03.49-.1.29-.16.4-.27.2-.25.27-.41.1-.33.1-.52-.03-.36-.1-.52-.15-.3-.27-.41-.25-.2-.4-.27-.32-.1-.49-.1-.34.03-.49.1-.29.16-.4.27-.2.25-.27.41-.1.34-.1.52Z"></path>
      <path class=" st16_29407583" d="M134.35,256.22c.15,0,.28.06.39.17s.16.26.16.43c0,.25-.04.47-.12.64s-.18.32-.28.43c-.12.13-.25.24-.4.32l-.15-.2c.07-.05.13-.11.19-.18.05-.06.1-.13.15-.22s.08-.19.11-.3c-.17,0-.32-.05-.43-.16s-.17-.23-.17-.39.05-.28.16-.39.24-.16.39-.16Z"></path>
      <path class=" st16_29407583" d="M137.78,250.92c.31,0,.6.05.87.16s.5.26.7.46.35.43.47.69.17.54.17.84c0,.19-.03.38-.1.56s-.13.35-.21.5c-.09.17-.19.34-.3.49l-1.75,2.65h-1.05l1.4-2.1s-.07.02-.11.03c-.03,0-.07.01-.12.01s-.1,0-.16,0c-.26,0-.51-.05-.75-.16s-.46-.26-.64-.46-.33-.43-.44-.69-.17-.54-.17-.84.06-.58.17-.84.27-.49.47-.69.43-.35.7-.46.56-.16.87-.16ZM139.03,253.07c0-.19-.03-.36-.1-.52s-.15-.3-.27-.41-.25-.2-.4-.27-.32-.1-.49-.1-.34.03-.49.1-.29.16-.4.27-.2.25-.27.41-.1.33-.1.52.03.36.1.52.15.3.27.41.25.2.4.27.32.1.49.1.34-.03.49-.1.29-.16.4-.27.2-.25.27-.41.1-.33.1-.52Z"></path>
    </g>
    <g>
      <path class=" st16_29407583" d="M90.93,338.65c.29,0,.56.05.82.16.26.11.48.26.67.46.19.2.34.42.45.69s.17.54.17.84-.06.58-.17.84-.27.49-.47.69c-.2.2-.43.35-.7.46-.27.11-.56.16-.87.16s-.6-.05-.85-.14c-.25-.09-.47-.22-.65-.38s-.32-.34-.43-.55c-.1-.21-.16-.43-.18-.68h.95c.01.11.05.22.11.33.06.11.14.2.24.29.1.09.22.15.36.2.14.05.29.08.44.08.17,0,.33-.03.49-.1.15-.07.29-.16.4-.27.11-.11.2-.25.27-.41.06-.16.1-.33.1-.52s-.03-.36-.1-.52c-.06-.16-.15-.3-.27-.41-.11-.11-.25-.2-.4-.27-.15-.07-.32-.1-.49-.1-.2,0-.37.04-.52.12-.15.08-.27.17-.36.26-.11.11-.21.24-.27.37h-.79l.4-3.65h3.35v.9h-2.54l-.16,1.5c.07-.06.17-.11.27-.17.09-.05.19-.09.32-.12s.26-.05.41-.05Z"></path>
      <path class=" st16_29407583" d="M94.31,341.85c.15,0,.28.06.39.17s.16.26.16.43c0,.25-.04.47-.12.64s-.18.32-.28.43c-.12.13-.25.24-.4.32l-.15-.2c.07-.05.13-.11.19-.18.05-.06.1-.13.15-.22s.08-.19.11-.3c-.17,0-.32-.05-.43-.16-.11-.11-.17-.23-.17-.39s.05-.28.16-.39.24-.16.39-.16Z"></path>
      <path class=" st16_29407583" d="M97.74,336.55c.31,0,.6.05.87.16.27.11.5.26.7.46.2.2.35.42.47.69s.17.54.17.84c0,.19-.03.38-.1.56s-.13.35-.21.49c-.09.17-.19.33-.3.49l-1.75,2.65h-1.05l1.4-2.1s-.07.02-.11.03c-.03,0-.07.01-.12.02s-.11,0-.16,0c-.26,0-.51-.05-.75-.16-.24-.11-.46-.26-.64-.46-.18-.2-.33-.42-.44-.69s-.17-.54-.17-.84.06-.58.17-.84.27-.49.47-.69c.2-.2.43-.35.7-.46.27-.11.56-.16.87-.16ZM98.99,338.7c0-.19-.03-.36-.1-.52-.06-.16-.15-.3-.27-.41-.11-.11-.25-.2-.4-.27-.15-.07-.32-.1-.49-.1s-.33.03-.49.1c-.15.07-.29.16-.4.27-.11.11-.2.25-.27.41s-.1.33-.1.52.03.36.1.52.15.3.27.41.25.2.4.27c.15.07.32.1.49.1s.33-.03.49-.1c.15-.07.29-.16.4-.27s.2-.25.27-.41.1-.33.1-.52Z"></path>
    </g>
    <g>
      <path class=" st16_29407583" d="M213.5,249.53c.01-.24.07-.47.17-.68s.24-.4.42-.55.39-.29.63-.38.52-.14.82-.14c.29,0,.55.05.79.14s.45.23.63.39.32.35.42.56.15.43.15.66-.04.42-.12.59-.18.3-.28.4c-.12.12-.25.22-.4.31.19.09.35.2.5.34.13.12.24.28.34.48s.15.44.15.73c0,.24-.05.47-.15.68s-.25.4-.43.57-.41.3-.68.4-.56.15-.88.15-.62-.05-.88-.14-.48-.22-.67-.38-.33-.34-.43-.55-.16-.44-.18-.68h.95c.01.11.05.22.11.33s.14.2.24.29.23.15.37.21.3.08.48.08c.38,0,.68-.1.89-.29s.32-.43.32-.71-.11-.52-.32-.71-.51-.29-.88-.29h-.45v-.85h.4c.33,0,.58-.09.77-.26s.28-.39.28-.64c0-.28-.09-.51-.28-.68s-.44-.26-.77-.26-.58.09-.78.26-.3.39-.33.64h-.95Z"></path>
      <path class=" st16_29407583" d="M219.02,253.08c.15,0,.28.06.39.17s.16.26.16.43c0,.25-.04.47-.12.65s-.18.32-.28.43c-.12.13-.25.24-.4.32l-.15-.2c.07-.04.13-.11.19-.18.05-.06.1-.13.15-.22s.08-.19.11-.3c-.17,0-.32-.05-.43-.16s-.17-.24-.17-.39.05-.28.16-.39.24-.16.39-.16Z"></path>
      <path class=" st16_29407583" d="M220.3,249.53c.01-.24.07-.47.17-.68s.24-.4.42-.55.39-.29.63-.38.52-.14.82-.14c.29,0,.55.05.79.14s.45.23.63.39.32.35.42.56.15.43.15.66-.04.42-.12.59-.18.3-.28.4c-.12.12-.25.22-.4.31.19.09.35.2.5.34.13.12.24.28.34.48s.15.44.15.73c0,.24-.05.47-.15.68s-.25.4-.43.57-.41.3-.68.4-.56.15-.88.15-.62-.05-.88-.14-.48-.22-.67-.38-.33-.34-.43-.55-.16-.44-.18-.68h.95c.01.11.05.22.11.33s.14.2.24.29.23.15.37.21.3.08.48.08c.38,0,.68-.1.89-.29s.32-.43.32-.71-.11-.52-.32-.71-.51-.29-.88-.29h-.45v-.85h.4c.33,0,.58-.09.77-.26s.28-.39.28-.64c0-.28-.09-.51-.28-.68s-.44-.26-.77-.26-.58.09-.78.26-.3.39-.33.64h-.95Z"></path>
    </g>
    <g>
      <path class=" st16_29407583" d="M310.84,175.43c.29,0,.56.05.82.16s.48.26.67.46c.19.2.34.43.45.69s.17.54.17.84-.06.58-.17.84-.27.49-.47.69c-.2.2-.43.35-.7.46s-.56.16-.87.16-.6-.05-.85-.14-.47-.22-.65-.38-.32-.34-.42-.55-.16-.44-.18-.68h.95c.01.11.05.22.11.33.06.11.14.2.24.29s.22.15.36.21.29.08.44.08c.17,0,.33-.03.49-.1s.29-.16.4-.27.2-.25.27-.41c.06-.16.1-.33.1-.52s-.03-.36-.1-.52c-.06-.16-.15-.3-.27-.41s-.25-.2-.4-.27-.32-.1-.49-.1c-.2,0-.37.04-.52.12-.15.08-.27.17-.36.26-.11.11-.2.24-.27.37h-.8l.4-3.65h3.35v.9h-2.54l-.16,1.5c.08-.06.16-.12.27-.17.09-.04.19-.09.32-.12.12-.04.26-.06.41-.06Z"></path>
      <path class=" st16_29407583" d="M314.22,178.63c.15,0,.28.06.39.17s.16.26.16.43c0,.25-.04.47-.12.65-.08.18-.18.32-.28.43-.12.13-.25.24-.4.32l-.15-.2c.07-.04.13-.11.19-.18.05-.06.1-.13.15-.22s.08-.19.11-.3c-.17,0-.32-.05-.43-.16s-.17-.24-.17-.39.05-.28.16-.39.24-.16.39-.16Z"></path>
      <path class=" st16_29407583" d="M317.74,175.43c.29,0,.56.05.82.16s.48.26.67.46c.19.2.34.43.45.69s.17.54.17.84-.06.58-.17.84-.27.49-.47.69c-.2.2-.43.35-.7.46s-.56.16-.87.16-.6-.05-.85-.14-.47-.22-.65-.38-.32-.34-.42-.55-.16-.44-.18-.68h.95c.01.11.05.22.11.33.06.11.14.2.24.29s.22.15.36.21.29.08.44.08c.17,0,.33-.03.49-.1s.29-.16.4-.27.2-.25.27-.41c.06-.16.1-.33.1-.52s-.03-.36-.1-.52c-.06-.16-.15-.3-.27-.41s-.25-.2-.4-.27-.32-.1-.49-.1c-.2,0-.37.04-.52.12-.15.08-.27.17-.36.26-.11.11-.2.24-.27.37h-.8l.4-3.65h3.35v.9h-2.54l-.16,1.5c.08-.06.16-.12.27-.17.09-.04.19-.09.32-.12.12-.04.26-.06.41-.06Z"></path>
    </g>
    <g>
      <path class=" st16_29407583" d="M442.43,364.59c.29,0,.56.05.82.16.26.11.48.26.67.46.19.2.34.42.45.69s.17.54.17.84-.06.58-.17.84-.27.49-.47.69c-.2.2-.43.35-.7.46-.27.11-.56.16-.87.16s-.6-.05-.85-.14c-.25-.09-.47-.22-.65-.38s-.32-.34-.42-.55c-.1-.21-.16-.43-.18-.68h.95c.01.11.05.22.11.33.06.11.14.2.24.29.1.09.22.15.36.2.14.05.29.08.44.08.17,0,.33-.03.49-.1.15-.07.29-.16.4-.27.11-.11.2-.25.27-.41.06-.16.1-.33.1-.52s-.03-.36-.1-.52c-.06-.16-.15-.3-.27-.41-.11-.11-.25-.2-.4-.27-.15-.07-.32-.1-.49-.1-.2,0-.37.04-.52.12-.15.08-.27.17-.36.26-.11.11-.2.24-.27.37h-.8l.4-3.65h3.35v.9h-2.54l-.16,1.5c.08-.06.16-.11.27-.17.09-.05.19-.09.32-.12.12-.03.26-.05.41-.05Z"></path>
      <path class=" st16_29407583" d="M445.81,367.79c.15,0,.28.06.39.17s.16.26.16.43c0,.25-.04.47-.12.64-.08.18-.18.32-.28.43-.12.13-.25.24-.4.32l-.15-.2c.07-.05.13-.11.19-.18.05-.06.1-.13.15-.22s.08-.19.11-.3c-.17,0-.32-.05-.43-.16-.11-.11-.17-.23-.17-.39s.05-.28.16-.39.24-.16.39-.16Z"></path>
      <path class=" st16_29407583" d="M451.39,367.59h-.7v1.25h-.95v-1.25h-2.8v-.8l2.65-4.25h1.1v4.15h.7v.9ZM449.74,366.69v-2.75l-1.7,2.75h1.7Z"></path>
      <path class=" st16_29407583" d="M454.8,370.64h-.85l2.6-8.1h.85l-2.6,8.1Z"></path>
      <path class=" st16_29407583" d="M464.2,367.94v.9h-4.05v-.7l2.5-2.7c.11-.12.21-.24.3-.37.08-.11.14-.24.21-.37.06-.13.1-.27.1-.41,0-.28-.1-.51-.29-.68-.19-.18-.46-.26-.81-.26-.33,0-.59.1-.8.3-.2.2-.31.47-.31.79h-.95c0-.29.05-.55.14-.79.1-.24.23-.45.41-.61.18-.17.39-.3.64-.4.25-.1.54-.14.85-.14s.6.05.85.14c.25.09.47.22.64.39.18.17.31.36.41.59.1.23.14.47.14.73,0,.2-.05.4-.14.6-.09.2-.2.38-.31.53-.13.18-.28.35-.45.52l-1.79,1.95h2.69Z"></path>
      <path class=" st16_29407583" d="M465.53,367.79c.15,0,.28.06.39.17s.16.26.16.43c0,.25-.04.47-.12.64-.08.18-.18.32-.28.43-.12.13-.25.24-.4.32l-.15-.2c.07-.05.13-.11.19-.18.05-.06.1-.13.15-.22s.08-.19.11-.3c-.17,0-.32-.05-.43-.16-.11-.11-.17-.23-.17-.39s.05-.28.16-.39.24-.16.39-.16Z"></path>
      <path class=" st16_29407583" d="M470.76,362.54v.65l-2.6,5.65h-1l2.5-5.4h-2.85v-.9h3.95Z"></path>
      <path class=" st16_29407583" d="M472.29,364.14l-1-.25.2-.65.95.35-.05-1.05h.7l-.05,1.05.95-.35.2.65-1,.25.65.8-.6.4-.5-.85-.5.85-.6-.4.65-.8Z"></path>
    </g>
  </g>
</svg></svg>