<svg width="244" height="35" viewBox="0 0 244 35" fill="none" xmlns="http://www.w3.org/2000/svg">
<path d="M16.92 27V26.388L20.196 25.992V25.236L17.388 17.856H7.092L4.284 25.236V25.992L7.38 26.388V27H0.972V26.388L2.952 25.956L11.736 3.024L10.98 1.008V0.575999H13.5L23.292 25.956L25.272 26.388V27H16.92ZM7.416 16.956H17.064L12.24 4.32L7.416 16.956ZM30.5826 5.292C29.5386 5.292 28.7106 4.5 28.7106 3.42C28.7106 2.376 29.5386 1.584 30.5826 1.584C31.6266 1.584 32.4186 2.376 32.4186 3.42C32.4186 4.5 31.6266 5.292 30.5826 5.292ZM27.4506 27V26.388L29.2506 26.28L29.9706 25.812V10.44L27.4506 10.08V9.576L31.7706 8.928H32.2386V25.812L32.9586 26.28L34.7586 26.388V27H27.4506ZM37.1228 27V26.388L38.8148 26.28L39.4628 25.812V10.44L36.9428 10.08V9.576L41.2628 8.928H41.7308L41.6228 12.024L41.5148 14.724H41.6588L42.4148 12.888C43.5668 10.08 45.2948 8.964 47.6348 8.964H48.8228V11.304H46.9868C44.9707 11.304 43.7468 11.88 42.7028 13.752L41.7308 15.804V25.812L42.9548 26.28L46.0148 26.388V27H37.1228ZM57.6214 27V26.388L59.6374 26.28L60.4294 25.812V2.268L59.6374 1.8L57.6214 1.692V1.08H67.3414C73.2094 1.08 76.8094 3.708 76.8094 8.064C76.8094 12.816 72.9934 15.696 66.9454 15.552L64.3894 15.516V14.724H67.0174C71.4814 14.688 74.2534 12.276 74.2534 8.46C74.2534 4.572 71.4094 2.088 66.7654 2.088H62.9854V25.812L64.2454 26.28L67.4854 26.388V27H57.6214ZM85.6741 27.54C81.4621 27.54 78.1861 23.868 78.1861 18.36C78.1861 12.564 81.5341 8.604 85.9981 8.604C89.8501 8.604 92.5861 11.556 92.4421 17.136H80.3461V17.28C80.3461 22.32 82.7941 25.92 86.6101 25.92C88.6261 25.92 90.2101 24.84 91.6501 22.752L92.1901 23.184C90.6421 25.884 88.4821 27.54 85.6741 27.54ZM80.3821 16.2H89.9581C90.0661 12.276 88.3381 9.468 85.4221 9.468C82.6501 9.468 80.6701 12.132 80.3821 16.2ZM94.5329 27V26.388L96.2249 26.28L96.8729 25.812V10.44L94.3529 10.08V9.576L98.6729 8.928H99.1409L99.0329 12.024L98.9249 14.724H99.0689L99.8249 12.888C100.977 10.08 102.705 8.964 105.045 8.964H106.233V11.304H104.397C102.381 11.304 101.157 11.88 100.113 13.752L99.1409 15.804V25.812L100.365 26.28L103.425 26.388V27H94.5329ZM114.23 27.468C111.998 27.468 109.946 26.64 108.326 25.596L107.858 20.844H108.722L109.01 21.852C109.766 24.984 111.746 26.568 114.554 26.568C116.822 26.568 118.478 25.236 118.478 23.436C118.478 22.032 117.542 20.844 115.562 19.8L111.674 17.784C109.514 16.668 108.326 15.156 108.326 13.212C108.326 10.26 111.17 8.676 114.23 8.676C116.21 8.676 118.19 9.36 119.738 10.512L120.206 15.048H119.414L119.09 14.112C118.334 11.196 116.534 9.54 113.942 9.54C111.602 9.54 110.306 10.692 110.306 12.42C110.306 13.788 111.17 14.904 112.898 15.804L116.786 17.784C119.198 19.008 120.458 20.664 120.458 22.644C120.458 25.524 117.722 27.468 114.23 27.468ZM122.214 34.2V33.588L124.014 33.48L124.734 33.012V10.44L122.178 10.08V9.576L126.498 8.928H126.966L126.894 12.024H127.074L127.29 11.736C128.514 9.756 130.242 8.604 132.546 8.604C136.722 8.604 139.566 12.348 139.566 17.604C139.566 23.292 136.074 27.432 131.358 27.432C129.882 27.432 128.442 27 126.966 26.208V33.012L128.154 33.48L131.07 33.588V34.2H122.214ZM126.966 24.264L127.794 24.984C128.91 26.028 130.098 26.568 131.502 26.568C134.778 26.568 137.19 23.22 137.19 18.396C137.19 13.464 134.886 9.972 131.538 9.972C129.594 9.972 128.334 11.088 127.218 12.492L126.966 12.816V24.264ZM149.94 27.54C145.728 27.54 142.452 23.868 142.452 18.36C142.452 12.564 145.8 8.604 150.264 8.604C154.116 8.604 156.852 11.556 156.708 17.136H144.612V17.28C144.612 22.32 147.06 25.92 150.876 25.92C152.892 25.92 154.476 24.84 155.916 22.752L156.456 23.184C154.908 25.884 152.748 27.54 149.94 27.54ZM144.648 16.2H154.224C154.332 12.276 152.604 9.468 149.688 9.468C146.916 9.468 144.936 12.132 144.648 16.2ZM166.848 27.54C162.636 27.54 159.432 23.652 159.432 18.324C159.432 12.636 163.068 8.604 167.496 8.604C171.06 8.604 173.508 11.196 173.364 15.552H170.7C171.312 11.952 169.656 9.432 167.028 9.432C163.968 9.432 161.7 12.924 161.7 17.424C161.7 22.32 164.292 25.956 167.712 25.956C169.728 25.956 171.672 24.588 172.752 22.608L173.328 23.004C171.816 26.208 169.368 27.54 166.848 27.54ZM181.215 27.324C179.199 27.324 178.299 25.92 178.299 23.58V10.188H175.023V9.504L178.263 9.216L179.955 3.888H180.531V9.144L184.743 9H185.319V10.188H180.531V23.292C180.531 24.984 180.855 25.92 182.151 25.92C183.087 25.92 183.807 25.272 184.671 24.336L185.031 23.94L185.535 24.48L185.211 24.84C183.699 26.568 182.727 27.324 181.215 27.324ZM191.141 5.292C190.097 5.292 189.269 4.5 189.269 3.42C189.269 2.376 190.097 1.584 191.141 1.584C192.185 1.584 192.977 2.376 192.977 3.42C192.977 4.5 192.185 5.292 191.141 5.292ZM188.009 27V26.388L189.809 26.28L190.529 25.812V10.44L188.009 10.08V9.576L192.329 8.928H192.797V25.812L193.517 26.28L195.317 26.388V27H188.009ZM204.296 27.18L197.456 10.188L195.872 9.756V9.144H203.432V9.756L200.228 10.152V10.908L205.232 24.012H205.484L210.452 10.908V10.152L207.896 9.756V9.144H213.26V9.756L211.856 10.188L205.232 27.18H204.296ZM221.623 27.54C217.411 27.54 214.135 23.868 214.135 18.36C214.135 12.564 217.483 8.604 221.947 8.604C225.799 8.604 228.535 11.556 228.391 17.136H216.295V17.28C216.295 22.32 218.743 25.92 222.559 25.92C224.575 25.92 226.159 24.84 227.599 22.752L228.139 23.184C226.591 25.884 224.431 27.54 221.623 27.54ZM216.331 16.2H225.907C226.015 12.276 224.287 9.468 221.371 9.468C218.599 9.468 216.619 12.132 216.331 16.2ZM237.417 27.468C235.185 27.468 233.133 26.64 231.513 25.596L231.045 20.844H231.909L232.197 21.852C232.953 24.984 234.933 26.568 237.741 26.568C240.009 26.568 241.665 25.236 241.665 23.436C241.665 22.032 240.729 20.844 238.749 19.8L234.861 17.784C232.701 16.668 231.513 15.156 231.513 13.212C231.513 10.26 234.357 8.676 237.417 8.676C239.397 8.676 241.377 9.36 242.925 10.512L243.393 15.048H242.601L242.277 14.112C241.521 11.196 239.721 9.54 237.129 9.54C234.789 9.54 233.493 10.692 233.493 12.42C233.493 13.788 234.357 14.904 236.085 15.804L239.973 17.784C242.385 19.008 243.645 20.664 243.645 22.644C243.645 25.524 240.909 27.468 237.417 27.468Z" fill="#E0D1B6"/>
</svg>
