<svg xmlns="http://www.w3.org/2000/svg" version="1.1" xmlns:xlink="http://www.w3.org/1999/xlink"><svg version="1.1" xmlns="http://www.w3.org/2000/svg" xmlns:xlink="http://www.w3.org/1999/xlink" x="0px" y="0px" viewBox="0 0 560 560" style="enable-background:new 0 0 560 560;" xml:space="preserve">
<style type="text/css">
	.st0_692097957{fill:none;}
	.st1_692097957{fill:none;stroke:#1B4732;stroke-width:0.5;stroke-linecap:round;stroke-linejoin:round;stroke-dasharray:3;}
	.st2_692097957{fill:none;stroke:#1B4732;stroke-width:0.5;stroke-linecap:round;stroke-linejoin:round;stroke-miterlimit:10;}
	.st3_692097957{fill:#FFFFFF;stroke:#1B4732;stroke-width:0.5;stroke-linecap:round;stroke-linejoin:round;stroke-miterlimit:10;}
	.st4_692097957{fill:none;stroke:#1B4732;stroke-width:0.25;stroke-linecap:round;stroke-linejoin:round;}
	.st5_692097957{fill:#F5E8D1;stroke:#1B4732;stroke-width:0.5;stroke-linecap:round;stroke-linejoin:round;stroke-miterlimit:10;}
	.st6_692097957{fill:#F5E8D1;stroke:#1B4732;stroke-width:0.5;stroke-linecap:round;stroke-linejoin:round;}
	.st7_692097957{fill:none;stroke:#1B4732;stroke-width:0.5;stroke-linecap:round;stroke-linejoin:round;}
	.st8_692097957{fill:#E1D1B6;stroke:#1B4732;stroke-width:0.5;stroke-linecap:round;stroke-linejoin:round;stroke-miterlimit:10;}
	.st9_692097957{fill:#666C35;stroke:#666C35;stroke-width:0.5;stroke-linecap:round;stroke-linejoin:round;stroke-miterlimit:10;}
	.st10_692097957{fill:#1B4732;}
</style>

<g>
	<line class=" st1_692097957" x1="231.714" y1="324.154" x2="156.99" y2="324.153"></line>
	<line class=" st1_692097957" x1="284.267" y1="244.555" x2="231.714" y2="244.555"></line>
	<line class=" st1_692097957" x1="231.714" y1="324.154" x2="231.714" y2="244.555"></line>
	<line class=" st1_692097957" x1="352.009" y1="202.334" x2="383.765" y2="202.334"></line>
</g>
<g>
	<rect x="307.635" y="359.358" class=" st2_692097957" width="38.055" height="9.256"></rect>
	<rect x="348.84" y="359.358" class=" st2_692097957" width="28.102" height="9.256"></rect>
	<rect x="380.093" y="359.358" class=" st2_692097957" width="34.096" height="9.256"></rect>
	<rect x="144.068" y="484.173" class=" st2_692097957" width="54.922" height="9.256"></rect>
	<rect x="202.112" y="484.173" class=" st2_692097957" width="27.489" height="9.256"></rect>
	<path class=" st2_692097957" d="M298.351,453.534l1.087-1.924c-12.378,24.45-37.553,41.317-66.715,41.791v-9.256
		c11.486-0.223,22.275-3.318,31.643-8.615l3.903,6.747l0.669,1.143l2.704-1.561l-0.669-1.171l-3.931-6.747
		c9.73-6.133,17.787-14.692,23.251-24.84l6.83,3.764L298.351,453.534z"></path>
	<path class=" st2_692097957" d="M307.551,420.385c-0.418,10.873-3.15,21.16-7.695,30.388l-1.283-0.697l-6.803-3.764
		c4.098-8.503,6.468-18.038,6.579-28.102v2.174H307.551z"></path>
	<path class=" st2_692097957" d="M271.643,481.859l-2.704,1.561l-0.669-1.143l-3.903-6.747c0.892-0.502,1.812-1.032,2.676-1.589l3.931,6.747
		L271.643,481.859z"></path>
	<path class=" st2_692097957" d="M298.574,450.077c4.377-8.977,6.97-19.042,7.416-29.691"></path>
	<path class=" st2_692097957" d="M270.974,480.688c10.984-6.803,20.017-16.393,26.151-27.823"></path>
	<path class=" st2_692097957" d="M268.27,482.277c-10.483,5.883-22.582,9.312-35.546,9.535"></path>
	<line class=" st2_692097957" x1="198.99" y1="491.84" x2="144.068" y2="491.84"></line>
	<polyline class=" st2_692097957" points="202.112,491.84 217.808,491.84 229.601,491.84 	"></polyline>
	<rect x="376.943" y="359.358" class=" st2_692097957" width="3.15" height="9.256"></rect>
	<rect x="376.943" y="359.33" class=" st2_692097957" width="3.15" height="0.028"></rect>
	
		<rect x="407.992" y="362.407" transform="matrix(-4.554242e-11 1 -1 -4.554242e-11 776.5964 -48.6532)" class=" st2_692097957" width="9.266" height="3.129"></rect>
	<rect x="345.69" y="359.358" class=" st2_692097957" width="3.15" height="9.256"></rect>
	<rect x="345.69" y="359.33" class=" st2_692097957" width="3.15" height="0.028"></rect>
	
		<rect x="304.558" y="362.407" transform="matrix(-4.554242e-11 1 -1 -4.554242e-11 673.1624 54.7808)" class=" st2_692097957" width="9.266" height="3.129"></rect>
	<path class=" st2_692097957" d="M267.043,473.941c-0.864,0.558-1.784,1.087-2.676,1.589l-0.139-0.251l2.704-1.561L267.043,473.941z"></path>
	<path class=" st2_692097957" d="M232.724,484.145v9.256c-0.418,0.028-0.864,0.028-1.283,0.028h-1.84v-9.256h1.84c0.39,0,0.753,0,1.143-0.028
		H232.724z"></path>
	<path class=" st2_692097957" d="M231.441,484.173h-1.84v-0.028h2.983C232.194,484.173,231.831,484.173,231.441,484.173z"></path>
	<path class=" st2_692097957" d="M232.724,493.401v0.028h-1.283C231.859,493.429,232.305,493.429,232.724,493.401z"></path>
	<rect x="198.99" y="484.173" class=" st2_692097957" width="3.122" height="9.256"></rect>
	<rect x="198.99" y="484.145" class=" st2_692097957" width="3.122" height="0.028"></rect>
	<rect x="140.945" y="484.173" class=" st2_692097957" width="3.122" height="9.256"></rect>
	<rect x="140.945" y="484.145" class=" st2_692097957" width="3.122" height="0.028"></rect>
	<path class=" st2_692097957" d="M307.635,417.235c0,1.059-0.028,2.091-0.084,3.15h-9.2v-2.174c0.028-0.307,0.028-0.641,0.028-0.976H307.635z"></path>
	<path class=" st2_692097957" d="M298.351,417.235h0.028c0,0.335,0,0.669-0.028,0.976V417.235z"></path>
	<path class=" st2_692097957" d="M307.635,417.235v3.15h-0.084C307.607,419.326,307.635,418.294,307.635,417.235z"></path>
	<path class=" st2_692097957" d="M299.857,450.774c-0.139,0.279-0.279,0.558-0.418,0.836l-1.087,1.924l-1.227-0.669l-6.83-3.764
		c0.474-0.809,0.92-1.673,1.31-2.509l0.167-0.279l6.803,3.764L299.857,450.774z"></path>
	<path class=" st2_692097957" d="M290.238,449.073l1.366-2.481c-0.39,0.836-0.836,1.701-1.31,2.509L290.238,449.073z"></path>
	<path class=" st2_692097957" d="M299.885,450.802l-0.446,0.808c0.139-0.279,0.279-0.558,0.418-0.836L299.885,450.802z"></path>
	<rect x="310.757" y="367.053" class=" st2_692097957" width="34.933" height="1.561"></rect>
	<rect x="348.84" y="367.053" class=" st2_692097957" width="28.102" height="1.561"></rect>
	<rect x="380.093" y="367.053" class=" st2_692097957" width="30.974" height="1.561"></rect>
</g>
<g>
	
		<rect x="202.325" y="479.463" transform="matrix(-0.9659 -0.2588 0.2588 -0.9659 300.9605 999.6646)" class=" st3_692097957" width="27.918" height="1.116"></rect>
	
		<rect x="348.207" y="354.549" transform="matrix(0.9659 -0.2588 0.2588 0.9659 -79.6062 105.7423)" class=" st3_692097957" width="27.174" height="1.315"></rect>
</g>
<g>
	<path class=" st4_692097957" d="M305.84,359.358l0-12.644l111.907,0l0,12.644L305.84,359.358z M313.222,346.742v12.588 M320.693,346.742
		v12.588 M328.163,346.742v12.588 M335.634,346.742v12.588 M343.104,346.742v12.588 M350.575,346.742v12.588 M358.045,346.742
		v12.588 M365.516,346.742v12.588 M372.986,346.742v12.588 M380.457,346.742v12.588 M387.927,346.742v12.588 M395.398,346.742
		v12.588 M402.868,346.742v12.588 M410.339,346.742v12.588 M232.348,471.043c29.098,0,52.686-23.363,52.686-52.182v-2.21h13.539
		v2.209c0.864,32.75-28.331,63.694-66.227,65.313l-96.534,0l0-13.13H232.348z M158.01,484.298v-13.114 M165.409,484.298l0-13.114
		 M172.808,484.298v-13.114 M180.207,484.298v-13.114 M143.212,484.298l0-13.114 M150.611,484.298v-13.114 M187.606,484.298
		l0-13.114 M195.005,484.298v-13.114 M202.404,484.298v-13.114 M209.803,484.298l0-13.114 M217.202,484.298v-13.114
		 M224.601,484.298v-13.114 M232,484.298l0-13.114 M240.141,483.686l-1.536-12.905 M248.149,481.98l-3.091-12.389 M255.88,479.378
		l-4.563-11.731 M263.233,475.914l-5.928-10.934 M270.23,471.794l-7.362-10.274 M276.505,466.656l-8.536-9.238 M282.182,460.883
		l-9.628-8.128 M287.074,454.441l-10.569-6.886 M291.614,447.68l-11.881-5.789 M294.78,440.168l-12.518-4.273 M297.013,432.331
		l-12.959-2.689 M298.159,424.274l-13.196-1.075"></path>
</g>
<g>
	
		<rect x="357.196" y="92.728" transform="matrix(4.474649e-11 -1 1 4.474649e-11 253.0046 481.429)" class=" st5_692097957" width="20.041" height="42.969"></rect>
	<g>
		<path class=" st5_692097957" d="M356.983,121.185V110.18l20.468,0v11.004c0,0.552-0.448,1-1,1l-18.468,0
			C357.431,122.185,356.983,121.737,356.983,121.185z"></path>
		
			<rect x="366.429" y="99.158" transform="matrix(-3.659897e-07 -1 1 -3.659897e-07 257.8246 476.6091)" class=" st5_692097957" width="1.576" height="20.468"></rect>
		
			<rect x="364.209" y="108.262" transform="matrix(-3.659813e-07 -1 1 -3.659813e-07 257.9693 476.4638)" class=" st5_692097957" width="6.015" height="1.97"></rect>
		<circle class=" st5_692097957" cx="367.217" cy="115.45" r="1.395"></circle>
	</g>
	<g>
		<path class=" st5_692097957" d="M341.934,155.496v-12.339c0-0.828-0.672-1.5-1.5-1.5H323.4l0,15.339h17.034
			C341.263,156.996,341.934,156.324,341.934,155.496z"></path>
		
			<rect x="313.494" y="147.09" transform="matrix(1.956989e-08 1 -1 1.956989e-08 470.4895 -171.8366)" class=" st5_692097957" width="15.339" height="4.474"></rect>
	</g>
	<g>
		<g>
			
				<rect x="376.186" y="122.094" transform="matrix(4.484641e-11 -1 1 4.484641e-11 271.9891 548.1998)" class=" st5_692097957" width="67.817" height="32.022"></rect>
			<path class=" st5_692097957" d="M396.357,109.268v55.471c0,1.919,1.556,3.475,3.475,3.475h19.514c1.919,0,3.475-1.556,3.475-3.475v-55.471
				c0-1.097-0.889-1.985-1.985-1.985h-22.492C397.245,107.283,396.357,108.172,396.357,109.268z"></path>
			<path class=" st5_692097957" d="M415.967,104.631v4.11c0,0.276-0.224,0.5-0.5,0.5h-10.625c-0.276,0-0.5-0.224-0.5-0.5v-4.11H415.967z"></path>
			
				<rect x="412.571" y="108.479" transform="matrix(4.638141e-11 -1 1 4.638141e-11 303.3299 523.7731)" class=" st5_692097957" width="1.961" height="3.484"></rect>
			<ellipse class=" st5_692097957" cx="410.155" cy="122.553" rx="5.402" ry="5.013"></ellipse>
		</g>
		<line class=" st2_692097957" x1="410.155" y1="104.197" x2="410.155" y2="122.553"></line>
	</g>
	<g>
		
			<rect x="407.031" y="302.273" transform="matrix(-6.726114e-12 -1 1 -6.726114e-12 106.2414 728.3717)" class=" st5_692097957" width="20.552" height="17.584"></rect>
		
			<rect x="397.062" y="309.888" transform="matrix(-7.080497e-12 -1 1 -7.080497e-12 96.2732 718.4035)" class=" st5_692097957" width="20.552" height="2.353"></rect>
		
			<rect x="407.034" y="215.454" transform="matrix(-7.433992e-12 -1 1 -7.433992e-12 193.0606 641.5592)" class=" st5_692097957" width="20.552" height="17.591"></rect>
		
			<rect x="397.063" y="223.073" transform="matrix(-7.434880e-12 -1 1 -7.434880e-12 183.0884 631.588)" class=" st5_692097957" width="20.551" height="2.353"></rect>
		
			<rect x="390.959" y="265.643" transform="matrix(-7.164652e-12 -1 1 -7.164652e-12 156.434 691.7484)" class=" st5_692097957" width="66.264" height="4.028"></rect>
		
			<rect x="377.934" y="256.646" transform="matrix(-7.246587e-12 -1 1 -7.246587e-12 143.4122 678.7229)" class=" st5_692097957" width="66.268" height="22.02"></rect>
		
			<rect x="397.284" y="275.091" transform="matrix(-7.226158e-12 -1 1 -7.226158e-12 128.0193 693.9857)" class=" st5_692097957" width="27.437" height="15.785"></rect>
		
			<rect x="397.308" y="244.414" transform="matrix(-7.171980e-12 -1 1 -7.171980e-12 158.6954 663.3096)" class=" st5_692097957" width="27.39" height="15.785"></rect>
		<g>
			<polygon class=" st5_692097957" points="409.21,262.249 395.905,289.099 398.448,294.404 400.058,300.789 345.69,300.789 345.69,234.521 
				409.21,234.521 			"></polygon>
		</g>
		<polygon class=" st5_692097957" points="400.058,300.789 398.448,294.404 395.905,289.099 409.21,262.249 409.21,266.988 		"></polygon>
	</g>
	<g>
		<g>
			
				<rect x="270.837" y="265.156" transform="matrix(-7.123909e-07 -1 1 -7.123909e-07 25.3632 557.3672)" class=" st5_692097957" width="41.055" height="1.693"></rect>
			
				<rect x="287.106" y="265.357" transform="matrix(-7.123891e-07 -1 1 -7.123891e-07 23.8792 555.8756)" class=" st5_692097957" width="5.543" height="1.283"></rect>
		</g>
		<polyline class=" st2_692097957" points="295.75,257.151 292.211,266.021 295.75,274.891 		"></polyline>
	</g>
	
		<rect x="130.305" y="169.412" transform="matrix(-1 -4.443436e-11 4.443436e-11 -1 284.947 358.5648)" class=" st5_692097957" width="24.337" height="19.74"></rect>
	
		<rect x="140.754" y="165.264" transform="matrix(-1 -4.512047e-11 4.512047e-11 -1 295.3955 334.6759)" class=" st5_692097957" width="13.888" height="4.149"></rect>
	<g>
		
			<rect x="198.845" y="264.459" transform="matrix(4.502804e-11 -1 1 4.502804e-11 -80.6404 510.1225)" class=" st5_692097957" width="31.792" height="61.845"></rect>
		<g>
			<path class=" st5_692097957" d="M189.53,324.902v-13.625h17.571v13.625c0,1.105-0.895,2-2,2H191.53
				C190.425,326.902,189.53,326.007,189.53,324.902z"></path>
			<path class=" st5_692097957" d="M189.53,320.637v-9.359h17.571v9.359c0,1.105-0.895,2-2,2H191.53
				C190.425,322.637,189.53,321.742,189.53,320.637z"></path>
		</g>
		<g>
			<path class=" st5_692097957" d="M221.935,324.902v-13.625h17.571v13.625c0,1.105-0.895,2-2,2h-13.571
				C222.831,326.902,221.935,326.007,221.935,324.902z"></path>
			<path class=" st5_692097957" d="M221.935,320.637v-9.359h17.571v9.359c0,1.105-0.895,2-2,2h-13.571
				C222.831,322.637,221.935,321.742,221.935,320.637z"></path>
		</g>
		<g>
			<path class=" st5_692097957" d="M239.507,265.861v13.625h-17.571l0-13.625c0-1.105,0.895-2,2-2h13.571
				C238.611,263.861,239.507,264.756,239.507,265.861z"></path>
			<path class=" st5_692097957" d="M239.507,270.126v9.359h-17.571l0-9.359c0-1.105,0.895-2,2-2h13.571
				C238.611,268.126,239.507,269.021,239.507,270.126z"></path>
		</g>
		<g>
			<path class=" st5_692097957" d="M207.101,265.861v13.625H189.53v-13.625c0-1.105,0.895-2,2-2h13.571
				C206.206,263.861,207.101,264.756,207.101,265.861z"></path>
			<path class=" st5_692097957" d="M207.101,270.126v9.359H189.53v-9.359c0-1.105,0.895-2,2-2h13.571
				C206.206,268.126,207.101,269.021,207.101,270.126z"></path>
		</g>
	</g>
	<g>
		
			<rect x="130.225" y="189.22" transform="matrix(-4.498376e-11 1 -1 -4.498376e-11 343.8618 58.9275)" class=" st5_692097957" width="24.485" height="24.349"></rect>
		
			<rect x="146.693" y="205.51" transform="matrix(-4.529373e-11 1 -1 -4.529373e-11 357.0668 57.9988)" class=" st5_692097957" width="5.683" height="4.046"></rect>
		
			<rect x="146.909" y="200.488" transform="matrix(-4.500774e-11 1 -1 -4.500774e-11 357.2635 45.8651)" class=" st5_692097957" width="17.581" height="2.153"></rect>
	</g>
	
		<rect x="183.424" y="108.764" transform="matrix(-1 -4.491264e-11 4.491264e-11 -1 393.8613 233.184)" class=" st5_692097957" width="27.014" height="15.655"></rect>
	<g>
		<path class=" st5_692097957" d="M188.846,121.89l0-8.483l16.168,0v8.483c0,0.552-0.448,1-1,1l-14.168,0
			C189.294,122.89,188.846,122.442,188.846,121.89z"></path>
		
			<rect x="196.308" y="104.7" transform="matrix(-3.659833e-07 -1 1 -3.659833e-07 84.1461 309.7152)" class=" st5_692097957" width="1.245" height="16.168"></rect>
		
			<rect x="194.555" y="111.892" transform="matrix(-3.659800e-07 -1 1 -3.659800e-07 84.2604 309.6005)" class=" st5_692097957" width="4.752" height="1.556"></rect>
		<circle class=" st5_692097957" cx="196.931" cy="117.569" r="1.102"></circle>
	</g>
	<g>
		<path class=" st5_692097957" d="M169.364,148.693v-12.339c0-0.828-0.672-1.5-1.5-1.5h-17.034v15.339h17.034
			C168.692,150.193,169.364,149.522,169.364,148.693z"></path>
		
			<rect x="140.923" y="140.287" transform="matrix(-4.518182e-11 1 -1 -4.518182e-11 291.1161 -6.0686)" class=" st5_692097957" width="15.339" height="4.474"></rect>
	</g>
	<g>
		<g>
			
				<rect x="248.67" y="369.056" transform="matrix(6.927755e-07 1 -1 6.927755e-07 651.2924 89.4775)" class=" st5_692097957" width="64.475" height="2.659"></rect>
			
				<rect x="278.891" y="369.384" transform="matrix(6.927754e-07 1 -1 6.927754e-07 653.6349 87.147)" class=" st5_692097957" width="8.705" height="2.014"></rect>
		</g>
		<polyline class=" st2_692097957" points="274.021,384.285 279.578,370.356 274.021,356.426 		"></polyline>
	</g>
	<g>
		
			<rect x="184.097" y="135.768" transform="matrix(4.537421e-11 -1 1 4.537421e-11 18.855 362.7277)" class=" st5_692097957" width="13.39" height="72.338"></rect>
		<line class=" st5_692097957" x1="226.96" y1="178.631" x2="154.623" y2="165.242"></line>
		<line class=" st5_692097957" x1="226.96" y1="165.242" x2="154.623" y2="178.631"></line>
	</g>
	<g>
		<circle class=" st5_692097957" cx="197.153" cy="383.88" r="41.725"></circle>
		<circle class=" st5_692097957" cx="194.286" cy="395.663" r="15.398"></circle>
	</g>
	<g>
		<path class=" st5_692097957" d="M160.167,333.68l0.014,0.014c16.327-15.365,38.081,10.668,20.012,24l-0.031-0.031
			c-5.358,5.336-10.259,12.139-11.683,20.028c-1.563,8.657,0.943,17.082,4.64,24.365l0.001-0.001
			c0.113,0.202,0.186,0.425,0.287,0.634c0.047,0.069,0.089,0.133,0.137,0.202c0.039,0.107,0.061,0.21,0.098,0.317
			c0.515,1.225,0.821,2.539,0.88,3.909c1.805,16.691-23.532,24.279-30.064,6.388C131.97,388.059,139.013,352.444,160.167,333.68z"></path>
		<path class=" st5_692097957" d="M166.747,338.894c-9.532,8.836-17.147,20.891-19.634,34.666c-2.564,14.198-0.085,28.14,6.16,39.985
			l0.06-0.036c1.638,2.721,4.395,4.749,7.766,5.358c6.214,1.122,12.161-3.006,13.283-9.22c0.489-2.707-0.019-5.363-1.261-7.592
			l-0.001,0.001c-3.697-7.283-6.203-15.707-4.64-24.364c1.53-8.47,7.059-15.711,12.868-21.203l-0.025,0.022
			c1.956-1.655,3.371-3.974,3.862-6.693c1.122-6.214-3.006-12.161-9.22-13.283C172.563,335.92,169.241,336.88,166.747,338.894z"></path>
		<g>
			<line class=" st2_692097957" x1="168.665" y1="389.972" x2="139.19" y2="396.715"></line>
			<line class=" st2_692097957" x1="172.88" y1="366.632" x2="148.593" y2="347.756"></line>
		</g>
	</g>
	<g>
		<path class=" st5_692097957" d="M207.072,463.676h-23.148c-2.321,0-4.202-1.881-4.202-4.202v-21.051c0-0.212,0.172-0.384,0.384-0.384h31.195
			c0.212,0,0.384,0.172,0.384,0.384v20.64C211.685,461.611,209.62,463.676,207.072,463.676z"></path>
		<path class=" st5_692097957" d="M204.335,458.604h-16.372c-1.968,0-3.563-1.595-3.563-3.563v-20.129c0-0.492,0.399-0.891,0.891-0.891h20.826
			c0.492,0,0.891,0.399,0.891,0.891v21.019C207.007,457.408,205.811,458.604,204.335,458.604z"></path>
		<path class=" st5_692097957" d="M204.397,447.352l-11.699,5.996c-0.246,0.126-0.343,0.427-0.217,0.673l3.281,6.402
			c0.126,0.246,0.427,0.343,0.673,0.217l11.699-5.996c0.246-0.126,0.343-0.427,0.217-0.673l-3.281-6.402
			C204.944,447.324,204.643,447.227,204.397,447.352z"></path>
	</g>
	<g>
		<path class=" st5_692097957" d="M249.783,445.653l16.714-16.015c1.676-1.606,1.733-4.266,0.127-5.941l-14.564-15.2
			c-0.147-0.153-0.39-0.159-0.544-0.012l-22.524,21.582c-0.153,0.147-0.159,0.39-0.012,0.544l14.279,14.903
			C245.023,447.353,247.944,447.415,249.783,445.653z"></path>
		<path class=" st5_692097957" d="M248.25,440.097l11.822-11.327c1.421-1.361,1.469-3.617,0.108-5.038l-13.926-14.534
			c-0.34-0.355-0.904-0.367-1.259-0.027l-15.037,14.408c-0.355,0.34-0.367,0.904-0.027,1.259l14.542,15.177
			C245.493,441.081,247.184,441.118,248.25,440.097z"></path>
		<path class=" st5_692097957" d="M240.421,432.015l12.595-3.764c0.265-0.079,0.543,0.071,0.622,0.336l2.06,6.893
			c0.079,0.265-0.071,0.543-0.336,0.622l-12.595,3.764c-0.265,0.079-0.543-0.071-0.622-0.336l-2.06-6.893
			C240.006,432.373,240.157,432.094,240.421,432.015z"></path>
	</g>
	
		<rect x="130.292" y="219.59" transform="matrix(-1 -5.156598e-11 5.156598e-11 -1 357.9088 464.7489)" class=" st6_692097957" width="97.324" height="25.568"></rect>
	
		<rect x="130.292" y="219.59" transform="matrix(-1 -3.688750e-11 3.688750e-11 -1 286.1531 543.7438)" class=" st6_692097957" width="25.568" height="104.563"></rect>
	<g>
		
			<rect x="155.861" y="219.603" transform="matrix(-1 -7.046509e-11 7.046509e-11 -1 333.4309 464.7739)" class=" st5_692097957" width="21.71" height="25.568"></rect>
		<path class=" st5_692097957" d="M158.891,242.686h15.649c0.552,0,1-0.448,1-1v-16.088c0-0.552-0.448-1-1-1h-15.649c-0.552,0-1,0.448-1,1
			v16.088C157.891,242.238,158.339,242.686,158.891,242.686z"></path>
		
			<rect x="165.373" y="220.916" transform="matrix(-1 -4.166635e-11 4.166635e-11 -1 333.4309 449.5985)" class=" st5_692097957" width="2.685" height="7.767"></rect>
		<circle class=" st5_692097957" cx="166.715" cy="232.834" r="1.667"></circle>
		
			<rect x="165.373" y="220.916" transform="matrix(-1 -4.166635e-11 4.166635e-11 -1 333.4309 444.1369)" class=" st5_692097957" width="2.685" height="2.305"></rect>
	</g>
	<g>
		
			<rect x="130.292" y="254.628" transform="matrix(-1 -4.517554e-11 4.517554e-11 -1 286.1531 534.3926)" class=" st5_692097957" width="25.568" height="25.137"></rect>
		<circle class=" st5_692097957" cx="148.717" cy="261.497" r="3.816"></circle>
		<circle class=" st5_692097957" cx="148.717" cy="272.898" r="3.816"></circle>
		<circle class=" st5_692097957" cx="137.438" cy="261.497" r="3.816"></circle>
		<circle class=" st5_692097957" cx="137.438" cy="272.898" r="3.816"></circle>
	</g>
	<g>
		
			<rect x="202.155" y="219.59" transform="matrix(4.464191e-11 -1 1 4.464191e-11 -17.4358 447.3132)" class=" st6_692097957" width="25.568" height="25.568"></rect>
		<rect x="202.155" y="243.206" class=" st6_692097957" width="25.462" height="1.952"></rect>
		
			<rect x="205.41" y="243.864" transform="matrix(4.254203e-11 -1 1 4.254203e-11 -39.7487 452.2576)" class=" st6_692097957" width="1.689" height="4.278"></rect>
		<g>
			<line class=" st7_692097957" x1="214.885" y1="238.547" x2="214.885" y2="226.095"></line>
			<line class=" st7_692097957" x1="209.514" y1="229.209" x2="220.257" y2="235.434"></line>
			<line class=" st7_692097957" x1="220.257" y1="229.209" x2="209.514" y2="235.434"></line>
		</g>
	</g>
	<g>
		<rect x="177.57" y="219.59" class=" st6_692097957" width="24.584" height="25.568"></rect>
		<rect x="177.57" y="243.192" class=" st6_692097957" width="24.584" height="1.967"></rect>
		<path class=" st5_692097957" d="M189.86,237.697L189.86,237.697c1.451,0,2.41-0.689,2.985-1.681c0.706-1.217,0.711-2.739,0.146-4.033
			l-3.131-7.181l-3.116,6.971c-0.515,1.152-0.567,2.488-0.069,3.648C187.217,236.683,188.238,237.697,189.86,237.697z"></path>
	</g>
	<g>
		
			<rect x="284.464" y="115.275" transform="matrix(-1 -4.497659e-11 4.497659e-11 -1 592.1018 287.2892)" class=" st5_692097957" width="23.174" height="56.738"></rect>
		<g>
			<line class=" st5_692097957" x1="287.533" y1="134.142" x2="304.569" y2="135.502"></line>
			<line class=" st5_692097957" x1="287.533" y1="145.25" x2="304.569" y2="146.609"></line>
			<line class=" st5_692097957" x1="287.533" y1="163.016" x2="304.569" y2="164.376"></line>
			<line class=" st5_692097957" x1="287.533" y1="151.909" x2="304.569" y2="153.268"></line>
			<line class=" st5_692097957" x1="287.533" y1="124.273" x2="304.569" y2="122.914"></line>
			<line class=" st5_692097957" x1="287.533" y1="140.589" x2="304.569" y2="139.229"></line>
			<line class=" st5_692097957" x1="287.533" y1="158.355" x2="304.569" y2="156.996"></line>
			<line class=" st5_692097957" x1="287.533" y1="129.932" x2="304.569" y2="129.932"></line>
		</g>
		<line class=" st5_692097957" x1="296.051" y1="168.456" x2="296.051" y2="118.834"></line>
	</g>
	<g>
		
			<rect x="308.368" y="158.738" transform="matrix(4.548546e-11 -1 1 4.548546e-11 130.3878 510.7021)" class=" st5_692097957" width="24.354" height="62.838"></rect>
		<g>
			<line class=" st5_692097957" x1="294.791" y1="181.206" x2="295.99" y2="199.109"></line>
			<line class=" st5_692097957" x1="302.123" y1="181.206" x2="300.924" y2="199.109"></line>
			<line class=" st5_692097957" x1="340.396" y1="181.206" x2="340.396" y2="199.109"></line>
			<line class=" st5_692097957" x1="306.651" y1="181.206" x2="307.85" y2="199.109"></line>
			<line class=" st5_692097957" x1="317.966" y1="181.206" x2="319.165" y2="199.109"></line>
			<line class=" st5_692097957" x1="334.858" y1="181.206" x2="336.057" y2="199.109"></line>
			<line class=" st5_692097957" x1="313.983" y1="181.206" x2="312.784" y2="199.109"></line>
			<line class=" st5_692097957" x1="330.365" y1="181.206" x2="329.166" y2="199.109"></line>
			<line class=" st5_692097957" x1="346.299" y1="181.206" x2="345.1" y2="199.109"></line>
			<line class=" st5_692097957" x1="323.414" y1="181.206" x2="323.414" y2="199.109"></line>
		</g>
		<line class=" st5_692097957" x1="349.363" y1="190.157" x2="291.727" y2="190.157"></line>
	</g>
	<g>
		
			<rect x="392.758" y="168.987" transform="matrix(4.518703e-11 -1 1 4.518703e-11 214.7778 595.092)" class=" st5_692097957" width="24.354" height="42.341"></rect>
		<g>
			<line class=" st5_692097957" x1="415.643" y1="181.206" x2="415.643" y2="199.109"></line>
			<line class=" st5_692097957" x1="393.516" y1="181.206" x2="394.699" y2="199.109"></line>
			<line class=" st5_692097957" x1="410.18" y1="181.206" x2="411.363" y2="199.109"></line>
			<line class=" st5_692097957" x1="389.587" y1="181.206" x2="388.404" y2="199.109"></line>
			<line class=" st5_692097957" x1="405.747" y1="181.206" x2="404.564" y2="199.109"></line>
			<line class=" st5_692097957" x1="421.466" y1="181.206" x2="420.283" y2="199.109"></line>
			<line class=" st5_692097957" x1="398.89" y1="181.206" x2="398.89" y2="199.109"></line>
		</g>
		<line class=" st5_692097957" x1="423.771" y1="190.157" x2="386.098" y2="190.157"></line>
	</g>
</g>
<g>
	<path class=" st8_692097957" d="M307.635,359.358v57.877h-9.284v-8.754h-13.972V242.225h4.746v88.808h11.034v28.325H307.635z M440.601,72.894
		v295.722l-26.28-0.011v-9.247h11.784V177.98h-42.341v-5.966h42.341v-67.817l-107.179-0.008l0,67.824h33.083v5.966h-62.883l0,27.045
		h-4.746l0-33.011h23.255l0-54.989h-23.255V83.757h-2.834V72.863L440.601,72.894z M408.829,83.453h7.192v-7.192h-7.192V83.453z
		 M307.635,85.169H289.26v26.383h18.375V85.169z M331.242,84.641h-18.47v15.474h18.408L331.242,84.641z M403.379,77.285h-67.158
		v17.582h67.158V77.285z M425.791,88.498h-16.962v11.617h16.905L425.791,88.498z M241.324,72.863v10.893h-9.565l-0.044,41.88h-4.754
		v-16.872l-80.6-0.013l-0.009,50.525h80.609v-1.615h4.754v21.26h-4.754v-13.679h-86.206v23.636h-10.461v24.759h96.668v-2.691h4.754
		v34.213h-4.098v-25.556h-97.324v264.57h10.788v9.281h-21.681V99.173h96.998v-26.31H241.324z M130.348,119.043h-7.009v59.878h7.009
		V119.043z M137.042,113.83l-0.049-9.521h-9.605v9.521H137.042z"></path>
</g>
<g>
	<path class=" st2_692097957" d="M431.225,395.185v-26.569 M378.515,395.185v-26.569 M307.618,418.813h26.586 M299.298,451.947l24.27,13.82
		 M284.562,506.88l-14.32-24.047 M231.441,493.431V520 M179.286,493.431V520 M307.625,368.606l26.579,26.579 M124.605,520v-26.569"></path>
	<path class=" st2_692097957" d="M440.601,395.185H307.635v-26.569h132.966V395.185z M307.635,395.185v22.078
		c0,42.066-34.102,76.168-76.168,76.168H119.399V520H235.31c54.617,0,98.894-44.276,98.894-98.894v-25.922H307.635z"></path>
</g>
<g>
	<g>
		
			<rect x="288.323" y="206.898" transform="matrix(-1 1.000315e-06 -1.000315e-06 -1 609.8833 415.9225)" class=" st2_692097957" width="33.237" height="2.127"></rect>
		
			<rect x="285.68" y="205.025" transform="matrix(-1 1.000312e-06 -1.000312e-06 -1 574.806 411.9228)" class=" st2_692097957" width="3.445" height="1.873"></rect>
		
			<rect x="285.68" y="240.352" transform="matrix(-1 1.000315e-06 -1.000315e-06 -1 574.8062 482.5765)" class=" st2_692097957" width="3.445" height="1.873"></rect>
		<path class=" st2_692097957" d="M321.56,209.025c0,18.218-18.891,31.327-32.324,31.327"></path>
	</g>
	<g>
		
			<rect x="367.048" y="157.584" transform="matrix(-1.000180e-06 1 -1 -1.000180e-06 539.7482 -222.7609)" class=" st2_692097957" width="28.413" height="1.819"></rect>
		
			<rect x="381.491" y="172.686" transform="matrix(-1.000167e-06 1 -1 -1.000167e-06 556.4509 -209.4774)" class=" st2_692097957" width="2.945" height="1.601"></rect>
		
			<rect x="351.292" y="172.686" transform="matrix(-1.000179e-06 1 -1 -1.000179e-06 526.2512 -179.2777)" class=" st2_692097957" width="2.945" height="1.601"></rect>
		<path class=" st2_692097957" d="M380.345,144.287c-15.574,0-26.78,16.149-26.78,27.633"></path>
	</g>
	<g>
		
			<rect x="260.411" y="99.701" transform="matrix(-1.000719e-06 -1 1 -1.000719e-06 177.5219 379.223)" class=" st2_692097957" width="35.922" height="2.299"></rect>
		
			<rect x="278.672" y="80.883" transform="matrix(-1.000711e-06 -1 1 -1.000711e-06 198.6391 362.4286)" class=" st2_692097957" width="3.724" height="2.024"></rect>
		
			<rect x="240.49" y="80.883" transform="matrix(-1.000715e-06 -1 1 -1.000715e-06 160.4577 324.2474)" class=" st2_692097957" width="3.724" height="2.024"></rect>
		<path class=" st2_692097957" d="M277.223,118.812c-19.69,0-33.858-20.417-33.858-34.936"></path>
	</g>
	<g>
		<rect x="199.038" y="154.218" class=" st2_692097957" width="28.613" height="1.831"></rect>
		<rect x="226.96" y="156.049" class=" st2_692097957" width="2.966" height="1.612"></rect>
		<rect x="226.96" y="125.636" class=" st2_692097957" width="2.966" height="1.612"></rect>
		<path class=" st2_692097957" d="M199.038,154.218c0-15.684,16.263-26.969,27.827-26.969"></path>
	</g>
	<g>
		<rect x="199.038" y="207.502" class=" st2_692097957" width="28.613" height="1.831"></rect>
		<rect x="226.96" y="209.334" class=" st2_692097957" width="2.966" height="1.612"></rect>
		<rect x="226.96" y="178.921" class=" st2_692097957" width="2.966" height="1.612"></rect>
		<path class=" st2_692097957" d="M199.038,207.502c0-15.684,16.263-26.969,27.827-26.969"></path>
	</g>
</g>
<g>
	<polygon class=" st9_692097957" points="271.464,55.066 270.984,55.066 261.639,66.779 262.53,40.58 262.53,40 260.356,40 260.356,40.58 
		261.253,66.779 251.907,55.066 251.422,55.066 251.422,57.918 261.42,67.962 271.464,57.919 	"></polygon>
</g>
<g>
	<g>
		<g>
			<path class=" st10_692097957" d="M313.206,290.695v6.299h-0.952v-5l-0.85,0.552l-0.449-0.752l1.602-1.099H313.206z"></path>
			<path class=" st10_692097957" d="M318.682,295.744h-0.698v1.25h-0.952v-1.25h-2.798v-0.801l2.651-4.248h1.099v4.15h0.698V295.744z
				 M317.031,294.846v-2.754l-1.699,2.754H317.031z"></path>
			<path class=" st10_692097957" d="M319.812,295.944c0.153,0,0.283,0.057,0.391,0.171s0.161,0.257,0.161,0.43c0,0.254-0.042,0.469-0.124,0.645
				c-0.084,0.176-0.176,0.32-0.276,0.435c-0.12,0.134-0.254,0.241-0.4,0.322l-0.151-0.2c0.065-0.046,0.129-0.105,0.19-0.181
				c0.052-0.059,0.102-0.132,0.149-0.22c0.047-0.088,0.083-0.188,0.109-0.303c-0.173,0-0.315-0.053-0.43-0.158
				c-0.114-0.106-0.171-0.235-0.171-0.389s0.054-0.283,0.161-0.391S319.658,295.944,319.812,295.944z"></path>
			<path class=" st10_692097957" d="M323.241,297.043c-0.312,0-0.603-0.055-0.869-0.164c-0.267-0.108-0.499-0.262-0.695-0.459
				c-0.197-0.196-0.353-0.425-0.467-0.686s-0.171-0.54-0.171-0.84c0-0.186,0.032-0.372,0.095-0.559
				c0.064-0.188,0.133-0.354,0.208-0.501c0.088-0.173,0.188-0.337,0.298-0.493l1.753-2.646h1.05l-1.401,2.1
				c0.032-0.007,0.073-0.013,0.122-0.02c0.032-0.007,0.074-0.013,0.125-0.02c0.05-0.007,0.102-0.01,0.153-0.01
				c0.261,0,0.512,0.055,0.755,0.164c0.242,0.108,0.455,0.262,0.639,0.459c0.185,0.196,0.332,0.425,0.442,0.686
				s0.166,0.54,0.166,0.84s-0.057,0.579-0.171,0.84s-0.27,0.489-0.467,0.686c-0.196,0.197-0.429,0.351-0.695,0.459
				C323.844,296.988,323.554,297.043,323.241,297.043z M321.991,294.895c0,0.186,0.031,0.359,0.096,0.52
				c0.062,0.162,0.151,0.299,0.266,0.41c0.114,0.113,0.247,0.202,0.4,0.27c0.153,0.066,0.315,0.1,0.488,0.1s0.335-0.033,0.488-0.1
				c0.153-0.067,0.286-0.156,0.4-0.27c0.114-0.111,0.203-0.248,0.266-0.41c0.064-0.16,0.096-0.334,0.096-0.52
				s-0.031-0.359-0.096-0.52c-0.062-0.162-0.151-0.299-0.266-0.41c-0.114-0.113-0.247-0.202-0.4-0.27
				c-0.153-0.066-0.315-0.1-0.488-0.1s-0.335,0.033-0.488,0.1c-0.153,0.067-0.286,0.156-0.4,0.27
				c-0.114,0.111-0.203,0.248-0.266,0.41C322.022,294.535,321.991,294.709,321.991,294.895z"></path>
		</g>
	</g>
	<g>
		<g>
			<path class=" st10_692097957" d="M366.287,190.28v0.898h-4.048v-0.698l2.5-2.7c0.114-0.121,0.213-0.244,0.298-0.371
				c0.075-0.114,0.144-0.238,0.208-0.371c0.062-0.133,0.095-0.27,0.095-0.41c0-0.28-0.095-0.508-0.286-0.684
				c-0.189-0.176-0.461-0.264-0.812-0.264c-0.325,0-0.591,0.102-0.796,0.305s-0.308,0.468-0.308,0.793h-0.947
				c0-0.287,0.048-0.55,0.145-0.791c0.096-0.241,0.232-0.446,0.41-0.615c0.177-0.169,0.392-0.302,0.645-0.398
				c0.252-0.096,0.536-0.144,0.852-0.144c0.312,0,0.595,0.046,0.848,0.139c0.252,0.093,0.467,0.222,0.645,0.388
				c0.177,0.166,0.313,0.363,0.41,0.591c0.096,0.228,0.144,0.47,0.144,0.728c0,0.199-0.046,0.399-0.14,0.601
				c-0.092,0.202-0.195,0.379-0.31,0.532c-0.134,0.179-0.283,0.352-0.449,0.518l-1.792,1.953H366.287z"></path>
			<path class=" st10_692097957" d="M367.617,190.129c0.153,0,0.283,0.057,0.391,0.171s0.161,0.257,0.161,0.43c0,0.254-0.042,0.469-0.124,0.645
				c-0.084,0.176-0.176,0.321-0.276,0.435c-0.12,0.133-0.254,0.241-0.4,0.322l-0.151-0.2c0.065-0.045,0.129-0.106,0.19-0.181
				c0.052-0.059,0.102-0.132,0.149-0.22c0.047-0.088,0.083-0.189,0.109-0.303c-0.173,0-0.315-0.053-0.43-0.159
				s-0.171-0.235-0.171-0.388s0.054-0.283,0.161-0.391S367.464,190.129,367.617,190.129z"></path>
			<path class=" st10_692097957" d="M373.195,189.929h-0.698v1.25h-0.952v-1.25h-2.798v-0.801l2.651-4.248h1.099v4.15h0.698V189.929z
				 M371.545,189.03v-2.754l-1.699,2.754H371.545z"></path>
		</g>
	</g>
	<g>
		<g>
			<path class=" st10_692097957" d="M354.562,139.396c0.286,0,0.559,0.055,0.815,0.164s0.481,0.262,0.671,0.459
				c0.191,0.197,0.342,0.426,0.452,0.686s0.166,0.541,0.166,0.84s-0.057,0.58-0.171,0.84s-0.27,0.489-0.467,0.686
				c-0.196,0.197-0.429,0.35-0.695,0.459s-0.557,0.164-0.869,0.164s-0.596-0.046-0.85-0.139s-0.471-0.219-0.649-0.378
				s-0.32-0.344-0.425-0.554s-0.163-0.436-0.176-0.676h0.947c0.013,0.114,0.05,0.224,0.109,0.33
				c0.061,0.106,0.142,0.202,0.242,0.288s0.22,0.155,0.356,0.205s0.285,0.076,0.444,0.076c0.173,0,0.335-0.033,0.488-0.1
				s0.286-0.156,0.4-0.269s0.203-0.249,0.266-0.41c0.064-0.161,0.096-0.334,0.096-0.52s-0.031-0.359-0.096-0.52
				c-0.062-0.161-0.151-0.298-0.266-0.41s-0.247-0.202-0.4-0.269s-0.315-0.1-0.488-0.1c-0.198,0-0.372,0.04-0.52,0.12
				c-0.148,0.08-0.269,0.167-0.359,0.261c-0.114,0.114-0.205,0.236-0.273,0.366h-0.796l0.4-3.647h3.35v0.898h-2.544l-0.156,1.499
				c0.075-0.059,0.164-0.116,0.269-0.171c0.088-0.045,0.192-0.086,0.315-0.122C354.271,139.415,354.408,139.396,354.562,139.396z"></path>
			<path class=" st10_692097957" d="M357.942,142.595c0.153,0,0.283,0.057,0.391,0.171s0.161,0.257,0.161,0.43c0,0.254-0.042,0.469-0.124,0.645
				c-0.084,0.176-0.176,0.321-0.276,0.435c-0.12,0.133-0.254,0.241-0.4,0.322l-0.151-0.2c0.065-0.045,0.129-0.106,0.19-0.181
				c0.052-0.059,0.102-0.132,0.149-0.22c0.047-0.088,0.083-0.189,0.109-0.303c-0.173,0-0.315-0.053-0.43-0.159
				s-0.171-0.235-0.171-0.388s0.054-0.283,0.161-0.391S357.789,142.595,357.942,142.595z"></path>
			<path class=" st10_692097957" d="M363.174,137.346v0.649l-2.603,5.649h-1.001l2.5-5.4h-2.847v-0.898H363.174z"></path>
		</g>
	</g>
	<g>
		<g>
			<path class=" st10_692097957" d="M247.813,352.138v0.898h-4.048v-0.698l2.5-2.7c0.114-0.12,0.213-0.244,0.298-0.371
				c0.075-0.114,0.144-0.237,0.208-0.371s0.095-0.271,0.095-0.41c0-0.28-0.095-0.508-0.286-0.684s-0.461-0.264-0.813-0.264
				c-0.326,0-0.591,0.102-0.796,0.305c-0.205,0.204-0.308,0.469-0.308,0.794h-0.947c0-0.286,0.048-0.55,0.144-0.791
				s0.233-0.446,0.41-0.615s0.392-0.302,0.645-0.397c0.252-0.097,0.536-0.145,0.852-0.145c0.312,0,0.595,0.047,0.847,0.139
				c0.252,0.094,0.467,0.223,0.645,0.389s0.314,0.363,0.41,0.591s0.144,0.471,0.144,0.728c0,0.198-0.046,0.398-0.139,0.601
				s-0.196,0.379-0.31,0.532c-0.133,0.179-0.283,0.352-0.449,0.518l-1.792,1.953H247.813z"></path>
			<path class=" st10_692097957" d="M252.742,352.138v0.898h-4.048v-0.698l2.5-2.7c0.114-0.12,0.213-0.244,0.298-0.371
				c0.075-0.114,0.144-0.237,0.208-0.371s0.095-0.271,0.095-0.41c0-0.28-0.095-0.508-0.286-0.684s-0.461-0.264-0.813-0.264
				c-0.326,0-0.591,0.102-0.796,0.305c-0.205,0.204-0.308,0.469-0.308,0.794h-0.947c0-0.286,0.048-0.55,0.144-0.791
				s0.233-0.446,0.41-0.615s0.392-0.302,0.645-0.397c0.252-0.097,0.536-0.145,0.852-0.145c0.312,0,0.595,0.047,0.847,0.139
				c0.252,0.094,0.467,0.223,0.645,0.389s0.314,0.363,0.41,0.591s0.144,0.471,0.144,0.728c0,0.198-0.046,0.398-0.139,0.601
				s-0.196,0.379-0.31,0.532c-0.133,0.179-0.283,0.352-0.449,0.518l-1.792,1.953H252.742z"></path>
			<path class=" st10_692097957" d="M254.072,351.986c0.153,0,0.283,0.057,0.391,0.171s0.161,0.257,0.161,0.43c0,0.254-0.042,0.469-0.125,0.645
				s-0.175,0.32-0.276,0.435c-0.121,0.134-0.254,0.241-0.4,0.322l-0.151-0.2c0.065-0.046,0.128-0.105,0.19-0.181
				c0.052-0.059,0.102-0.132,0.149-0.22s0.084-0.188,0.11-0.303c-0.172,0-0.316-0.053-0.43-0.158
				c-0.114-0.106-0.171-0.235-0.171-0.389s0.054-0.283,0.161-0.391S253.919,351.986,254.072,351.986z"></path>
			<path class=" st10_692097957" d="M259.303,346.737v0.649l-2.603,5.649H255.7l2.5-5.4h-2.847v-0.898H259.303z"></path>
		</g>
	</g>
	<g>
		<g>
			<path class=" st10_692097957" d="M253.922,171.968c-0.312,0-0.602-0.055-0.869-0.164s-0.499-0.262-0.696-0.459s-0.353-0.426-0.466-0.686
				s-0.171-0.541-0.171-0.84c0-0.186,0.032-0.372,0.095-0.559s0.133-0.354,0.208-0.5c0.088-0.172,0.187-0.337,0.298-0.493
				l1.753-2.646h1.05l-1.401,2.1c0.033-0.006,0.073-0.013,0.122-0.02c0.033-0.006,0.074-0.013,0.125-0.02s0.102-0.01,0.154-0.01
				c0.26,0,0.512,0.055,0.754,0.164s0.456,0.262,0.64,0.459s0.331,0.426,0.442,0.686s0.166,0.541,0.166,0.84s-0.057,0.58-0.171,0.84
				s-0.27,0.489-0.466,0.686s-0.429,0.35-0.696,0.459S254.235,171.968,253.922,171.968z M252.672,169.82
				c0,0.186,0.032,0.359,0.095,0.52s0.152,0.298,0.266,0.41s0.248,0.202,0.4,0.269s0.316,0.1,0.488,0.1s0.335-0.033,0.488-0.1
				s0.287-0.156,0.4-0.269s0.203-0.249,0.266-0.41s0.095-0.334,0.095-0.52s-0.032-0.359-0.095-0.52s-0.152-0.298-0.266-0.41
				s-0.248-0.202-0.4-0.269s-0.316-0.1-0.488-0.1s-0.335,0.033-0.488,0.1s-0.287,0.156-0.4,0.269s-0.203,0.249-0.266,0.41
				S252.672,169.634,252.672,169.82z"></path>
			<path class=" st10_692097957" d="M257.352,170.87c0.153,0,0.283,0.057,0.391,0.171s0.161,0.257,0.161,0.43c0,0.254-0.042,0.469-0.125,0.645
				s-0.175,0.321-0.276,0.435c-0.121,0.133-0.254,0.241-0.4,0.322l-0.151-0.2c0.065-0.045,0.128-0.106,0.19-0.181
				c0.052-0.059,0.102-0.132,0.149-0.22s0.084-0.189,0.11-0.303c-0.172,0-0.316-0.053-0.43-0.159s-0.171-0.235-0.171-0.388
				s0.054-0.283,0.161-0.391S257.199,170.87,257.352,170.87z"></path>
			<path class=" st10_692097957" d="M260.782,165.572c0.312,0,0.602,0.055,0.869,0.164s0.499,0.262,0.696,0.459s0.353,0.426,0.466,0.686
				s0.171,0.541,0.171,0.84c0,0.192-0.032,0.38-0.095,0.564s-0.133,0.349-0.208,0.496c-0.088,0.172-0.187,0.335-0.298,0.488
				l-1.753,2.651h-1.05l1.401-2.1c-0.033,0.013-0.07,0.023-0.112,0.029c-0.033,0.006-0.074,0.011-0.125,0.015
				s-0.105,0.005-0.164,0.005c-0.26,0-0.512-0.055-0.754-0.164s-0.456-0.262-0.64-0.459s-0.331-0.426-0.442-0.686
				s-0.166-0.541-0.166-0.84s0.057-0.58,0.171-0.84s0.27-0.489,0.466-0.686s0.429-0.35,0.696-0.459S260.469,165.572,260.782,165.572
				z M262.032,167.72c0-0.186-0.032-0.359-0.095-0.52s-0.152-0.298-0.266-0.41s-0.248-0.202-0.4-0.269s-0.316-0.1-0.488-0.1
				s-0.335,0.033-0.488,0.1s-0.287,0.156-0.4,0.269s-0.203,0.248-0.266,0.408s-0.095,0.333-0.095,0.522
				c0,0.186,0.032,0.358,0.095,0.518s0.152,0.296,0.266,0.41s0.248,0.204,0.4,0.271s0.316,0.1,0.488,0.1s0.335-0.033,0.488-0.1
				s0.287-0.157,0.4-0.271s0.203-0.25,0.266-0.41S262.032,167.906,262.032,167.72z"></path>
		</g>
	</g>
	<g>
		<g>
			<path class=" st10_692097957" d="M169.697,260.247h-0.698v1.25h-0.952v-1.25h-2.798v-0.801l2.651-4.248h1.099v4.15h0.698V260.247z
				 M168.047,259.349v-2.754l-1.699,2.754H168.047z"></path>
			<path class=" st10_692097957" d="M170.827,260.447c0.153,0,0.283,0.057,0.391,0.171s0.161,0.257,0.161,0.43c0,0.254-0.042,0.469-0.125,0.645
				s-0.175,0.321-0.276,0.435c-0.121,0.133-0.254,0.241-0.4,0.322l-0.151-0.2c0.065-0.045,0.128-0.106,0.19-0.181
				c0.052-0.059,0.102-0.132,0.149-0.22s0.084-0.189,0.11-0.303c-0.172,0-0.316-0.053-0.43-0.159s-0.171-0.235-0.171-0.388
				s0.054-0.283,0.161-0.391S170.674,260.447,170.827,260.447z"></path>
			<path class=" st10_692097957" d="M174.354,257.249c0.287,0,0.558,0.055,0.815,0.164s0.481,0.262,0.671,0.459s0.341,0.426,0.452,0.686
				s0.166,0.541,0.166,0.84s-0.057,0.58-0.171,0.84s-0.27,0.489-0.466,0.686s-0.429,0.35-0.696,0.459s-0.557,0.164-0.869,0.164
				s-0.596-0.046-0.85-0.139s-0.47-0.219-0.649-0.378s-0.321-0.344-0.425-0.554s-0.163-0.436-0.176-0.676h0.947
				c0.013,0.114,0.05,0.224,0.11,0.33s0.141,0.202,0.242,0.288s0.22,0.155,0.356,0.205s0.285,0.076,0.444,0.076
				c0.172,0,0.335-0.033,0.488-0.1s0.287-0.156,0.4-0.269s0.203-0.249,0.266-0.41s0.095-0.334,0.095-0.52s-0.032-0.359-0.095-0.52
				s-0.152-0.298-0.266-0.41s-0.248-0.202-0.4-0.269s-0.316-0.1-0.488-0.1c-0.199,0-0.372,0.04-0.52,0.12s-0.268,0.167-0.359,0.261
				c-0.114,0.114-0.205,0.236-0.273,0.366h-0.796l0.4-3.647h3.35v0.898h-2.544l-0.156,1.499c0.075-0.059,0.165-0.116,0.269-0.171
				c0.088-0.045,0.193-0.086,0.315-0.122S174.202,257.249,174.354,257.249z"></path>
		</g>
	</g>
	<g>
		<g>
			<path class=" st10_692097957" d="M180.713,139.045c0.013-0.241,0.071-0.466,0.173-0.676s0.243-0.395,0.42-0.554s0.389-0.286,0.635-0.378
				s0.52-0.139,0.823-0.139c0.287,0,0.551,0.048,0.793,0.144s0.454,0.226,0.635,0.388s0.321,0.349,0.42,0.559
				s0.149,0.429,0.149,0.657s-0.042,0.423-0.125,0.586s-0.175,0.298-0.276,0.405c-0.121,0.121-0.254,0.223-0.4,0.308
				c0.186,0.088,0.353,0.202,0.503,0.342c0.127,0.121,0.242,0.281,0.344,0.481s0.154,0.443,0.154,0.73
				c0,0.241-0.051,0.469-0.154,0.684s-0.248,0.404-0.435,0.569s-0.413,0.296-0.676,0.396s-0.558,0.149-0.884,0.149
				s-0.619-0.046-0.879-0.139s-0.482-0.219-0.667-0.378s-0.327-0.344-0.43-0.554s-0.162-0.436-0.178-0.676h0.952
				c0.013,0.114,0.05,0.224,0.11,0.33s0.142,0.202,0.244,0.288s0.226,0.155,0.371,0.205s0.304,0.076,0.476,0.076
				c0.381,0,0.676-0.097,0.886-0.291s0.315-0.431,0.315-0.71s-0.106-0.516-0.317-0.708s-0.506-0.288-0.884-0.288h-0.449v-0.854h0.4
				c0.326,0,0.582-0.086,0.769-0.259s0.281-0.386,0.281-0.64c0-0.28-0.094-0.508-0.281-0.684s-0.443-0.264-0.769-0.264
				s-0.584,0.086-0.776,0.259s-0.301,0.386-0.327,0.64H180.713z"></path>
			<path class=" st10_692097957" d="M186.237,142.595c0.153,0,0.283,0.057,0.391,0.171s0.161,0.257,0.161,0.43c0,0.254-0.042,0.469-0.125,0.645
				s-0.175,0.321-0.276,0.435c-0.121,0.133-0.254,0.241-0.4,0.322l-0.151-0.2c0.065-0.045,0.128-0.106,0.19-0.181
				c0.052-0.059,0.102-0.132,0.149-0.22s0.084-0.189,0.11-0.303c-0.172,0-0.316-0.053-0.43-0.159s-0.171-0.235-0.171-0.388
				s0.054-0.283,0.161-0.391S186.084,142.595,186.237,142.595z"></path>
			<path class=" st10_692097957" d="M187.519,139.045c0.013-0.241,0.071-0.466,0.173-0.676s0.243-0.395,0.42-0.554s0.389-0.286,0.635-0.378
				s0.52-0.139,0.823-0.139c0.287,0,0.551,0.048,0.793,0.144s0.454,0.226,0.635,0.388s0.321,0.349,0.42,0.559
				s0.149,0.429,0.149,0.657s-0.042,0.423-0.125,0.586s-0.175,0.298-0.276,0.405c-0.121,0.121-0.254,0.223-0.4,0.308
				c0.186,0.088,0.353,0.202,0.503,0.342c0.127,0.121,0.242,0.281,0.344,0.481s0.154,0.443,0.154,0.73
				c0,0.241-0.051,0.469-0.154,0.684s-0.248,0.404-0.435,0.569s-0.413,0.296-0.676,0.396s-0.558,0.149-0.884,0.149
				s-0.619-0.046-0.879-0.139s-0.482-0.219-0.667-0.378s-0.327-0.344-0.43-0.554s-0.162-0.436-0.178-0.676h0.952
				c0.013,0.114,0.05,0.224,0.11,0.33s0.142,0.202,0.244,0.288s0.226,0.155,0.371,0.205s0.304,0.076,0.476,0.076
				c0.381,0,0.676-0.097,0.886-0.291s0.315-0.431,0.315-0.71s-0.106-0.516-0.317-0.708s-0.506-0.288-0.884-0.288h-0.449v-0.854h0.4
				c0.326,0,0.582-0.086,0.769-0.259s0.281-0.386,0.281-0.64c0-0.28-0.094-0.508-0.281-0.684s-0.443-0.264-0.769-0.264
				s-0.584,0.086-0.776,0.259s-0.301,0.386-0.327,0.64H187.519z"></path>
		</g>
	</g>
	<g>
		<g>
			<path class=" st10_692097957" d="M177.922,193.859c0.013-0.241,0.071-0.466,0.173-0.676s0.243-0.395,0.42-0.554s0.389-0.286,0.635-0.378
				s0.52-0.139,0.823-0.139c0.287,0,0.551,0.048,0.793,0.144s0.454,0.226,0.635,0.388s0.321,0.349,0.42,0.559
				s0.149,0.429,0.149,0.657s-0.042,0.423-0.125,0.586s-0.175,0.298-0.276,0.405c-0.121,0.121-0.254,0.223-0.4,0.308
				c0.186,0.088,0.353,0.202,0.503,0.342c0.127,0.121,0.242,0.281,0.344,0.481s0.154,0.443,0.154,0.73
				c0,0.241-0.051,0.469-0.154,0.684s-0.248,0.404-0.435,0.569s-0.413,0.296-0.676,0.396s-0.558,0.149-0.884,0.149
				s-0.619-0.046-0.879-0.139s-0.482-0.219-0.667-0.378s-0.327-0.344-0.43-0.554s-0.162-0.436-0.178-0.676h0.952
				c0.013,0.114,0.05,0.224,0.11,0.33s0.142,0.202,0.244,0.288s0.226,0.155,0.371,0.205s0.304,0.076,0.476,0.076
				c0.381,0,0.676-0.097,0.886-0.291s0.315-0.431,0.315-0.71s-0.106-0.516-0.317-0.708s-0.506-0.288-0.884-0.288h-0.449v-0.854h0.4
				c0.326,0,0.582-0.086,0.769-0.259s0.281-0.386,0.281-0.64c0-0.28-0.094-0.508-0.281-0.684s-0.443-0.264-0.769-0.264
				s-0.584,0.086-0.776,0.259s-0.301,0.386-0.327,0.64H177.922z"></path>
			<path class=" st10_692097957" d="M183.446,197.409c0.153,0,0.283,0.057,0.391,0.171s0.161,0.257,0.161,0.43c0,0.254-0.042,0.469-0.125,0.645
				s-0.175,0.321-0.276,0.435c-0.121,0.133-0.254,0.241-0.4,0.322l-0.151-0.2c0.065-0.045,0.128-0.106,0.19-0.181
				c0.052-0.059,0.102-0.132,0.149-0.22s0.084-0.189,0.11-0.303c-0.172,0-0.316-0.053-0.43-0.159s-0.171-0.235-0.171-0.388
				s0.054-0.283,0.161-0.391S183.293,197.409,183.446,197.409z"></path>
			<path class=" st10_692097957" d="M186.827,192.16v6.299h-0.952v-5l-0.85,0.552l-0.449-0.752l1.602-1.099H186.827z"></path>
		</g>
	</g>
</g>

</svg></svg>