<svg xmlns="http://www.w3.org/2000/svg" version="1.1" xmlns:xlink="http://www.w3.org/1999/xlink"><svg data-name="Слой_1" xmlns="http://www.w3.org/2000/svg" xmlns:xlink="http://www.w3.org/1999/xlink" version="1.1" viewBox="0 0 560 560">
  
  <defs>
    <style>
      .st0_2086193464, .st1_2086193464, .st2_2086193464, .st3_2086193464, .st4_2086193464, .st5_2086193464, .st6_2086193464 {
        fill: none;
      }

      .st1_2086193464, .st2_2086193464, .st3_2086193464, .st4_2086193464, .st5_2086193464, .st7_2086193464, .st8_2086193464, .st9_2086193464, .st10_2086193464, .st11_2086193464, .st12_2086193464, .st13_2086193464, .st14_2086193464, .st15_2086193464, .st16_2086193464, .st6_2086193464, .st17_2086193464, .st18_2086193464 {
        stroke-linecap: round;
        stroke-linejoin: round;
      }

      .st1_2086193464, .st5_2086193464, .st9_2086193464, .st11_2086193464, .st6_2086193464, .st17_2086193464, .st18_2086193464 {
        stroke-width: .5px;
      }

      .st1_2086193464, .st9_2086193464 {
        stroke: #d8cbb5;
      }

      .st2_2086193464 {
        stroke-width: .25px;
      }

      .st2_2086193464, .st3_2086193464, .st4_2086193464, .st5_2086193464, .st7_2086193464, .st8_2086193464, .st10_2086193464, .st11_2086193464, .st12_2086193464, .st13_2086193464, .st14_2086193464, .st15_2086193464, .st16_2086193464, .st6_2086193464, .st18_2086193464 {
        stroke: #1b4732;
      }

      .st3_2086193464 {
        stroke-width: .5px;
      }

      .st4_2086193464 {
        stroke-width: .5px;
      }

      .st7_2086193464 {
        stroke-width: .5px;
      }

      .st7_2086193464, .st8_2086193464 {
        fill: #fff;
      }

      .st8_2086193464 {
        stroke-width: .5px;
      }

      .st9_2086193464 {
        fill: url(#_Терраса);
      }

      .st19_2086193464 {
        fill: #1b4732;
      }

      .st10_2086193464 {
        stroke-width: .5px;
      }

      .st10_2086193464, .st11_2086193464, .st12_2086193464, .st13_2086193464, .st14_2086193464, .st15_2086193464, .st16_2086193464 {
        fill: #f5e8d1;
      }

      .st12_2086193464 {
        stroke-width: .5px;
      }

      .st13_2086193464 {
        stroke-width: .5px;
      }

      .st14_2086193464 {
        stroke-width: .5px;
      }

      .st15_2086193464 {
        stroke-width: .5px;
      }

      .st16_2086193464 {
        stroke-width: .5px;
      }

      .st6_2086193464 {
        stroke-dasharray: 3;
      }

      .st17_2086193464 {
        fill: #666c35;
        stroke: #666c35;
      }

      .st18_2086193464 {
        fill: #e1d1b6;
      }
    </style>
    <pattern data-name="Терраса" x="0" y="0" width="10.1" height="8.7" patternTransform="translate(-8 -15304) scale(1 -1)" patternUnits="userSpaceOnUse" viewBox="0 0 10.1 8.7">
      <g>
        <rect class=" st0_2086193464" width="10.1" height="8.7"></rect>
        <g>
          <rect class=" st0_2086193464" width="10.1" height="8.7"></rect>
          <g>
            <line class=" st1_2086193464" x1="10.15" y1="6.4" x2="20.15" y2="6.4"></line>
            <line class=" st1_2086193464" x1="10.15" y1="2.3" x2="20.15" y2="2.3"></line>
          </g>
          <g>
            <line class=" st1_2086193464" x1=".05" y1="6.4" x2="10.05" y2="6.4"></line>
            <line class=" st1_2086193464" x1=".05" y1="2.3" x2="10.05" y2="2.3"></line>
          </g>
          <g>
            <line class=" st1_2086193464" x1="-10.05" y1="6.4" x2="-.05" y2="6.4"></line>
            <line class=" st1_2086193464" x1="-10.05" y1="2.3" x2="-.05" y2="2.3"></line>
          </g>
        </g>
      </g>
    </pattern>
  </defs>
  <g>
    <line class=" st6_2086193464" x1="340.11" y1="295.43" x2="340.11" y2="203.55"></line>
    <line class=" st6_2086193464" x1="349.29" y1="295.43" x2="317.86" y2="295.43"></line>
  </g>
  <g>
    <path class=" st9_2086193464" d="M500.8,191.01c0-22.29-18.14-40.43-40.43-40.43h-127.37c-22.42,0-40.67,18.14-40.87,40.51h49.77s-.02,3.07-.02,3.07h108.65v-3.08l50.27-.07h0Z"></path>
  </g>
  <g>
    <rect class=" st5_2086193464" x="499.53" y="350.41" width="5.29" height="23.89"></rect>
    <rect class=" st5_2086193464" x="499.53" y="332.82" width="5.29" height="15.81"></rect>
    <rect class=" st5_2086193464" x="499.53" y="307.21" width="5.29" height="23.83"></rect>
    <rect class=" st5_2086193464" x="499.53" y="274.77" width="5.29" height="30.66"></rect>
    <rect class=" st5_2086193464" x="499.53" y="257.12" width="5.29" height="15.85"></rect>
    <rect class=" st5_2086193464" x="499.53" y="224.17" width="5.29" height="31.17"></rect>
    <rect class=" st5_2086193464" x="450.54" y="191.09" width="28.25" height="5.29"></rect>
    <polygon class=" st5_2086193464" points="504.81 191.09 504.81 222.38 499.53 222.38 499.53 196.38 480.59 196.38 480.59 191.09 504.81 191.09"></polygon>
    <rect class=" st5_2086193464" x="312.03" y="191.09" width="29.86" height="5.29"></rect>
    <rect class=" st5_2086193464" x="150.65" y="217.9" width="19.79" height="5.29"></rect>
    <rect class=" st5_2086193464" x="172.23" y="217.9" width="15.55" height="5.29"></rect>
    <rect class=" st5_2086193464" x="189.56" y="217.9" width="58.4" height="5.29"></rect>
    <rect class=" st5_2086193464" x="249.75" y="217.9" width="15.55" height="5.29"></rect>
    <rect class=" st5_2086193464" x="267.08" y="217.9" width="21.03" height="5.29"></rect>
    <rect class=" st5_2086193464" x="499.53" y="222.38" width="5.29" height="1.78"></rect>
    <rect class=" st5_2086193464" x="286.32" y="217.89" width="1.79" height="5.29"></rect>
    <rect class=" st5_2086193464" x="265.3" y="217.9" width="1.78" height="5.29"></rect>
    <rect class=" st5_2086193464" x="247.96" y="217.9" width="1.78" height="5.29"></rect>
    <rect class=" st5_2086193464" x="187.78" y="217.9" width="1.78" height="5.29"></rect>
    <rect class=" st5_2086193464" x="170.45" y="217.9" width="1.78" height="5.29"></rect>
    <rect class=" st5_2086193464" x="148.92" y="217.9" width="1.73" height="5.29"></rect>
    <rect class=" st5_2086193464" x="228.42" y="217.89" width="1.79" height="5.29"></rect>
    <rect class=" st5_2086193464" x="208.66" y="217.89" width="1.79" height="5.29"></rect>
    <rect class=" st5_2086193464" x="312.59" y="191.09" width="1.79" height="5.29"></rect>
    <rect class=" st5_2086193464" x="499.53" y="255.33" width="5.29" height="1.78"></rect>
    <rect class=" st5_2086193464" x="499.53" y="272.97" width="5.29" height="1.8"></rect>
    <rect class=" st5_2086193464" x="499.53" y="305.43" width="5.29" height="1.78"></rect>
    <rect class=" st5_2086193464" x="499.53" y="331.04" width="5.29" height="1.78"></rect>
    <rect class=" st5_2086193464" x="499.53" y="348.63" width="5.29" height="1.78"></rect>
    <rect class=" st5_2086193464" x="499.53" y="374.3" width="5.29" height="1.78"></rect>
    <rect class=" st5_2086193464" x="54.72" y="146.57" width="31.63" height="5.36"></rect>
    <rect class=" st5_2086193464" x="88.14" y="146.57" width="15.83" height="5.36"></rect>
    <path class=" st5_2086193464" d="M125.54,157.77c5.6,3.5,10.24,8.32,13.39,14.11l5.32-3c-8.04-14.79-20.44-22-38.48-22.29v5.34c6.61.13,12.83,1.91,18.22,4.93l1.54.91Z"></path>
    <path class=" st5_2086193464" d="M148.87,188.78c-.24-6.21-1.19-12.85-3.81-18.12l-5.28,2.88c2.36,4.85,3.73,9.57,3.79,15.31l5.3-.07Z"></path>
    <path class=" st5_2086193464" d="M128.71,152.27l-1.57-.86-.56.95-2.58,4.5c.51.29,1.04.59,1.54.91l2.6-4.5.58-1Z"></path>
    <path class=" st5_2086193464" d="M128.14,153.27c6.33,3.88,11.58,9.65,15.12,16.18"></path>
    <path class=" st5_2086193464" d="M126.5,152.49c-6.04-3.36-13.26-4.65-20.73-4.77"></path>
    <line class=" st5_2086193464" x1="86.35" y1="147.72" x2="54.72" y2="147.72"></line>
    <polyline class=" st5_2086193464" points="88.14 147.72 97.18 147.72 103.98 147.72"></polyline>
    <path class=" st5_2086193464" d="M105.78,151.93v-5.34c-.24-.02-1.8-.02-1.8-.02v5.36h1.8Z"></path>
    <rect class=" st5_2086193464" x="86.35" y="146.57" width="1.8" height="5.36"></rect>
    <rect class=" st5_2086193464" x="86.35" y="151.93" width="1.8" height=".02"></rect>
    <rect class=" st5_2086193464" x="52.92" y="146.57" width="1.8" height="5.36"></rect>
    <path class=" st5_2086193464" d="M148.92,190.58c0-.6-.02-1.19-.05-1.8l-5.3.07.02.86c.02.18,0,.67,0,.86h5.33Z"></path>
    <path class=" st5_2086193464" d="M143.57,190.14h.02c0-.19,0-.38-.02-.56v.56Z"></path>
    <path class=" st5_2086193464" d="M145.06,170.67c-.13-.4-.81-1.79-.81-1.79l-5.32,3c.27.46.85,1.66.85,1.66l5.28-2.88Z"></path>
    <polygon class=" st5_2086193464" points="504.81 192.35 504.81 222.38 503.92 222.38 503.92 193.26 504.81 192.35"></polygon>
    <rect class=" st5_2086193464" x="503.92" y="224.17" width=".89" height="31.17"></rect>
    <rect class=" st5_2086193464" x="450.54" y="191.09" width="1.8" height="5.29"></rect>
    <line class=" st5_2086193464" x1="450.54" y1="191.09" x2="450.54" y2="191.98"></line>
    <rect class=" st5_2086193464" x="478.79" y="191.09" width="1.8" height="5.29"></rect>
    <rect class=" st5_2086193464" x="452.33" y="191.09" width="26.45" height=".89"></rect>
    <polygon class=" st5_2086193464" points="503.55 191.09 502.68 191.98 480.59 191.98 480.59 191.09 503.55 191.09"></polygon>
    <rect class=" st5_2086193464" x="503.92" y="257.12" width=".89" height="15.85"></rect>
    <rect class=" st5_2086193464" x="503.92" y="274.77" width=".89" height="30.66"></rect>
    <rect class=" st5_2086193464" x="503.92" y="307.21" width=".89" height="23.83"></rect>
    <rect class=" st5_2086193464" x="503.92" y="332.82" width=".89" height="15.81"></rect>
    <rect class=" st5_2086193464" x="503.92" y="350.41" width=".89" height="23.89"></rect>
    <rect class=" st5_2086193464" x="340.11" y="191.09" width="1.78" height="5.29"></rect>
    <rect class=" st5_2086193464" x="314.37" y="191.09" width="25.74" height=".89"></rect>
    <line class=" st5_2086193464" x1="341.9" y1="191.98" x2="341.9" y2="191.09"></line>
    <rect class=" st5_2086193464" x="150.65" y="217.9" width="19.79" height=".89"></rect>
    <rect class=" st5_2086193464" x="172.23" y="217.9" width="15.55" height=".89"></rect>
    <rect class=" st5_2086193464" x="189.56" y="217.9" width="19.1" height=".89"></rect>
    <rect class=" st5_2086193464" x="210.45" y="217.88" width="17.98" height=".89"></rect>
    <polygon class=" st5_2086193464" points="286.36 217.88 286.36 218.77 267.08 218.77 267.08 217.9 265.3 217.9 265.3 218.77 249.75 218.77 249.75 217.9 247.96 217.9 247.96 218.77 230.2 218.77 230.2 217.88 286.36 217.88"></polygon>
    <line class=" st5_2086193464" x1="499.53" y1="197.63" x2="504.81" y2="192.35"></line>
    <line class=" st5_2086193464" x1="503.55" y1="191.09" x2="498.26" y2="196.38"></line>
    <path class=" st5_2086193464" d="M144.06,171.21c2.52,5.13,3.51,11.49,3.77,17.57"></path>
  </g>
  <g>
    <rect class=" st7_2086193464" x="257.04" y="217.57" width=".64" height="15.94" transform="translate(-27.1 415.76) rotate(-75)"></rect>
    <rect class=" st7_2086193464" x="172.27" y="225.24" width="15.94" height=".64" transform="translate(-52.23 54.33) rotate(-15)"></rect>
    <rect class=" st8_2086193464" x="496.84" y="257.4" width=".64" height="15.94" transform="translate(-51.74 137.71) rotate(-15)"></rect>
    <rect class=" st8_2086193464" x="489.17" y="340.11" width="15.94" height=".64" transform="translate(39.64 732.53) rotate(-75)"></rect>
    <rect class=" st7_2086193464" x="88.23" y="153.98" width="15.94" height=".64" transform="translate(-36.66 30.15) rotate(-15)"></rect>
  </g>
  <g>
    <path class=" st2_2086193464" d="M305.95,203.54v-7.2s193.58.03,193.58.03l-7.69,7.2-185.89-.03ZM491.76,203.46v-7M495.7,200.21v-3.76M487.33,203.56v-7.19M482.98,203.56v-7.19M478.63,203.56v-7.19M474.28,203.56v-7.19M469.93,203.56v-7.19M465.58,203.56v-7.19M461.23,203.56v-7.19M456.88,203.56v-7.19M452.53,203.56v-7.19M448.18,203.56v-7.19M443.83,203.56v-7.19M439.48,203.56v-7.19M435.14,203.56v-7.19M430.79,203.56v-7.19M426.44,203.56v-7.19M422.09,203.56v-7.19M417.74,203.55v-7.19M413.67,203.55v-7.19M409.61,203.55v-7.19M405.54,203.55v-7.19M401.48,203.55v-7.19M397.41,203.55v-7.19M393.34,203.55v-7.19M389.28,203.55v-7.19M385.21,203.55v-7.19M381.14,203.55v-7.19M377.08,203.55v-7.19M373.01,203.55v-7.19M368.87,203.55v-7.19M364.72,203.55v-7.19M360.57,203.55v-7.19M356.36,203.55v-7.19M352.14,203.55v-7.19M347.93,203.55v-7.19M343.71,203.55v-7.19M339.5,203.55v-7.19M335.28,203.55v-7.19M330.73,203.55v-7.19M326.1,203.55v-7.19M321.97,203.55v-7.19M317.41,203.55v-7.19M312.79,203.55v-7.19M308.65,203.55v-7.19M499.53,196.38v104.93h-7.2v-97.76M495.7,200.21h3.74M492.41,204.17h7.04M499.54,208.61h-7.23M499.54,212.96h-7.23M499.54,217.23h-7.23M499.54,221.5h-7.23M499.54,225.77h-7.23M499.54,230.04h-7.23M499.54,234.3h-7.23M499.54,238.57h-7.23M499.54,242.84h-7.23M499.54,247.11h-7.23M499.54,251.38h-7.23M499.54,255.65h-7.23M499.54,259.92h-7.23M499.54,264.19h-7.23M499.54,268.46h-7.23M499.54,272.73h-7.23M499.54,277h-7.23M499.54,281.27h-7.23M499.54,285.54h-7.23M499.54,289.8h-7.23M499.54,294.07h-7.23M499.54,298.34h-7.23M492.39,311.18h7.22v64.02h-7.22v-64.02ZM499.53,314.97h-7.06M499.53,318.76h-7.06M499.53,322.55h-7.06M499.53,326.35h-7.06M499.53,330.14h-7.06M499.53,333.93h-7.06M499.53,337.72h-7.06M499.53,341.52h-7.06M499.53,345.31h-7.06M499.53,349.1h-7.06M499.53,352.89h-7.06M499.53,356.68h-7.06M499.53,360.48h-7.06M499.53,364.27h-7.06M499.53,368.06h-7.06M499.53,371.85h-7.06M50.66,159.49v-7.5h55.12c21.64.92,38.31,18.59,37.81,37.29v1.26h-7.73v-1.26c0-16.46-13.47-29.79-30.08-29.79h-55.12ZM63.33,151.93v7.49M67.56,151.93v7.49M71.78,151.93v7.49M76,151.93v7.49M54.88,151.93v7.49M59.11,151.93v7.49M80.23,151.93v7.49M84.45,151.93v7.49M88.68,151.93v7.49M92.9,151.93v7.49M97.13,151.93v7.49M101.35,151.93v7.49M105.58,151.93v7.49M110.22,152.27l-.88,7.37M114.8,153.25l-1.76,7.07M119.21,154.73l-2.61,6.7M123.41,156.71l-3.39,6.24M127.4,159.06l-4.2,5.87M130.99,162l-4.87,5.27M134.23,165.29l-5.5,4.64M137.02,168.97l-6.04,3.93M139.61,172.83l-6.78,3.3M141.42,177.12l-7.15,2.44M142.7,181.6l-7.4,1.54M143.35,186.2l-7.53.61M229.53,230.23v-7.06M233.29,230.23v-7.06M237.04,230.23v-7.06M240.8,230.23v-7.06M244.55,230.23v-7.06M248.31,230.23v-7.06M252.07,230.23v-7.06M255.82,230.23v-7.06M259.58,230.23v-7.06M263.34,230.23v-7.06M267.1,230.23v-7.06M270.85,230.23v-7.06M274.61,230.23v-7.06M278.36,230.23v-7.06M282.12,230.23v-7.06M285.88,230.23v-7.06M222.75,230.39h66.85v-7.22h-66.85v7.22ZM225.97,230.23v-7.06M211.35,230.23v-7.06M207.6,230.23v-7.06M203.84,230.23v-7.06M200.08,230.23v-7.06M196.33,230.23v-7.06M192.57,230.23v-7.06M188.81,230.23v-7.06M185.06,230.23v-7.06M181.3,230.23v-7.06M177.54,230.23v-7.06M173.79,230.23v-7.06M170.03,230.23v-7.06M166.27,230.23v-7.06M162.52,230.23v-7.06M158.76,230.23v-7.06M155.01,230.23v-7.06M151.25,230.23v-7.06M147.73,230.39h67.46v-7.22h-67.47v7.22h0Z"></path>
  </g>
  <g>
    <polygon class=" st11_2086193464" points="279.2 374.29 276.43 374.29 276.43 364.51 282.27 364.51 282.27 378.4 279.2 378.4 279.2 374.29"></polygon>
    <rect class=" st11_2086193464" x="77.28" y="352.96" width=".84" height="24.46"></rect>
    <rect class=" st11_2086193464" x="173.52" y="345.54" width=".84" height="17.99"></rect>
    <rect class=" st15_2086193464" x="92.25" y="352.96" width="15.83" height=".84"></rect>
    <rect class=" st16_2086193464" x="76.35" y="347.84" width="14.13" height=".84" transform="translate(-221.82 160.98) rotate(-45)"></rect>
    <rect class=" st14_2086193464" x="47.7" y="352.96" width="15.45" height=".84"></rect>
    <rect class=" st16_2086193464" x="71.57" y="341.2" width=".84" height="14.13" transform="translate(-225.17 152.91) rotate(-45)"></rect>
    <g>
      <rect class=" st11_2086193464" x="324.78" y="162.8" width="29.47" height="15.15"></rect>
      <g>
        <path class=" st11_2086193464" d="M327.5,183.4v-5.45h8.37v5.45c0,1.1-.89,2-2,2h-4.37c-1.1,0-2-.9-2-2Z"></path>
        <path class=" st11_2086193464" d="M327.5,181.36v-3.41h8.37v3.41c0,1.1-.89,2-2,2h-4.37c-1.1,0-2-.9-2-2Z"></path>
      </g>
      <g>
        <path class=" st11_2086193464" d="M342.94,183.4v-5.45h8.37v5.45c0,1.1-.89,2-2,2h-4.37c-1.1,0-2-.9-2-2Z"></path>
        <path class=" st11_2086193464" d="M342.94,181.36v-3.41h8.37v3.41c0,1.1-.89,2-2,2h-4.37c-1.1,0-2-.9-2-2Z"></path>
      </g>
      <g>
        <path class=" st11_2086193464" d="M351.32,157.35v5.45h-8.37v-5.45c0-1.1.89-2,2-2h4.37c1.1,0,2,.9,2,2Z"></path>
        <path class=" st11_2086193464" d="M351.32,159.38v3.41h-8.37v-3.41c0-1.1.89-2,2-2h4.37c1.1,0,2,.9,2,2Z"></path>
      </g>
      <g>
        <path class=" st11_2086193464" d="M335.87,157.35v5.45h-8.37v-5.45c0-1.1.89-2,2-2h4.37c1.11,0,2,.9,2,2Z"></path>
        <path class=" st11_2086193464" d="M335.87,159.38v3.41h-8.37v-3.41c0-1.1.89-2,2-2h4.37c1.11,0,2,.9,2,2Z"></path>
      </g>
    </g>
    <g>
      <rect class=" st11_2086193464" x="337.76" y="222.39" width="22.5" height="45.62"></rect>
      <g>
        <path class=" st11_2086193464" d="M367.64,265.46h-7.38v-10.55h7.38c1.11,0,2,.9,2,2v6.55c0,1.1-.9,2-2,2Z"></path>
        <path class=" st11_2086193464" d="M365.08,265.46h-4.82v-10.55h4.82c1.11,0,2,.9,2,2v6.55c0,1.1-.89,2-2,2Z"></path>
      </g>
      <g>
        <path class=" st11_2086193464" d="M367.64,250.74h-7.38v-10.55h7.38c1.11,0,2,.9,2,2v6.55c0,1.1-.9,2-2,2Z"></path>
        <path class=" st11_2086193464" d="M365.08,250.74h-4.82v-10.55h4.82c1.11,0,2,.9,2,2v6.55c0,1.1-.89,2-2,2Z"></path>
      </g>
      <g>
        <path class=" st11_2086193464" d="M367.64,236.15h-7.38v-10.55h7.38c1.11,0,2,.9,2,2v6.55c0,1.1-.9,2-2,2Z"></path>
        <path class=" st11_2086193464" d="M365.08,236.15h-4.82v-10.55h4.82c1.11,0,2,.9,2,2v6.55c0,1.1-.89,2-2,2Z"></path>
      </g>
      <g>
        <path class=" st11_2086193464" d="M330.37,265.46h7.38v-10.55h-7.38c-1.11,0-2,.9-2,2v6.55c0,1.1.9,2,2,2Z"></path>
        <path class=" st11_2086193464" d="M332.93,265.46h4.82v-10.55h-4.82c-1.11,0-2,.9-2,2v6.55c0,1.1.9,2,2,2Z"></path>
      </g>
      <g>
        <path class=" st11_2086193464" d="M330.37,250.74h7.38v-10.55h-7.38c-1.11,0-2,.9-2,2v6.55c0,1.1.9,2,2,2Z"></path>
        <path class=" st11_2086193464" d="M332.93,250.74h4.82v-10.55h-4.82c-1.11,0-2,.9-2,2v6.55c0,1.1.9,2,2,2Z"></path>
      </g>
      <g>
        <path class=" st11_2086193464" d="M330.37,236.15h7.38v-10.55h-7.38c-1.11,0-2,.9-2,2v6.55c0,1.1.9,2,2,2Z"></path>
        <path class=" st11_2086193464" d="M332.93,236.15h4.82v-10.55h-4.82c-1.11,0-2,.9-2,2v6.55c0,1.1.9,2,2,2Z"></path>
      </g>
    </g>
    <rect class=" st11_2086193464" x="219.91" y="223.17" width="72.52" height="9.2"></rect>
    <g>
      <path class=" st11_2086193464" d="M281.25,232.37v6.96c0,1.1-.89,2-2,2h-8.39c-1.11,0-2-.9-2-2v-6.96h12.39Z"></path>
      <path class=" st11_2086193464" d="M281.25,232.37v4.51c0,1.1-.89,2-2,2h-8.39c-1.11,0-2-.9-2-2v-4.51h12.39Z"></path>
    </g>
    <circle class=" st11_2086193464" cx="452.09" cy="162.35" r="6.85"></circle>
    <g>
      <path class=" st11_2086193464" d="M467.26,182.05c.11.1.2.21.31.31,5.31,4.81,13.51,4.4,18.31-.91s4.4-13.51-.91-18.31c-.11-.1-.23-.18-.34-.28l-17.37,19.19Z"></path>
      <circle class=" st11_2086193464" cx="475.95" cy="172.46" r="9.95"></circle>
      <path class=" st11_2086193464" d="M487.24,174.93l-7.72,8.52c-.18.21-.5.22-.71.04l-3.83-3.47c-.2-.18-.22-.5-.04-.71l7.72-8.52c.18-.21.5-.22.71-.04l3.83,3.47c.21.19.22.5.04.71Z"></path>
    </g>
    <g>
      <path class=" st11_2086193464" d="M438.79,181.45c-.1.11-.18.23-.28.34-4.81,5.31-13.01,5.72-18.31.91-5.31-4.81-5.72-13.01-.91-18.31.1-.11.21-.21.31-.31l19.19,17.37Z"></path>
      <circle class=" st11_2086193464" cx="429.19" cy="172.76" r="9.95"></circle>
      <path class=" st11_2086193464" d="M418.2,176.34l8.52,7.72c.2.18.52.17.71-.04l3.47-3.83c.18-.21.17-.52-.04-.71l-8.52-7.72c-.2-.18-.52-.17-.71.04l-3.47,3.83c-.19.2-.17.52.04.71Z"></path>
    </g>
    <g>
      <rect class=" st11_2086193464" x="282.27" y="364.5" width="13.98" height="13.9"></rect>
      <rect class=" st11_2086193464" x="284.13" y="366.26" width="3.24" height="2.31"></rect>
      <rect class=" st11_2086193464" x="284.15" y="363.28" width="10.04" height="1.23"></rect>
    </g>
    <rect class=" st11_2086193464" x="403.66" y="337.13" width="11.77" height="25.93"></rect>
    <g>
      <path class=" st11_2086193464" d="M406,343.46h5.85v11.69h-5.85c-.55,0-1-.45-1-1v-9.69c0-.55.45-1,1-1Z"></path>
      <rect class=" st11_2086193464" x="411.85" y="343.46" width=".9" height="11.69"></rect>
      <rect class=" st11_2086193464" x="410.67" y="348.74" width="3.43" height="1.12"></rect>
      <circle class=" st11_2086193464" cx="408.84" cy="349.3" r=".8"></circle>
    </g>
    <rect class=" st11_2086193464" x="176.92" y="352.36" width="15.95" height="11.18"></rect>
    <g>
      <path class=" st11_2086193464" d="M190.63,354.95v5.85h-11.69v-5.85c0-.55.45-1,1-1h9.69c.55,0,1,.45,1,1Z"></path>
      <rect class=" st10_2086193464" x="178.95" y="360.8" width="11.69" height=".9"></rect>
      <rect class=" st10_2086193464" x="184.23" y="359.62" width="1.12" height="3.43"></rect>
      <circle class=" st11_2086193464" cx="184.79" cy="357.79" r=".8"></circle>
    </g>
    <rect class=" st11_2086193464" x="242.55" y="352.36" width="15.95" height="11.18"></rect>
    <g>
      <path class=" st11_2086193464" d="M256.26,354.95v5.85h-11.69v-5.85c0-.55.45-1,1-1h9.69c.55,0,1,.45,1,1Z"></path>
      <rect class=" st10_2086193464" x="244.57" y="360.8" width="11.69" height=".9"></rect>
      <rect class=" st10_2086193464" x="249.85" y="359.62" width="1.12" height="3.43"></rect>
      <circle class=" st11_2086193464" cx="250.42" cy="357.79" r=".8"></circle>
    </g>
    <rect class=" st11_2086193464" x="47.7" y="320.32" width="11.44" height="30.93"></rect>
    <g>
      <path class=" st11_2086193464" d="M56.98,348.83h-5.85v-11.69h5.85c.55,0,1,.45,1,1v9.69c0,.55-.45,1-1,1Z"></path>
      <rect class=" st11_2086193464" x="50.22" y="337.14" width=".9" height="11.69"></rect>
      <rect class=" st11_2086193464" x="48.87" y="342.42" width="3.43" height="1.12"></rect>
      <circle class=" st11_2086193464" cx="54.13" cy="342.98" r=".8"></circle>
    </g>
    <g>
      <path class=" st11_2086193464" d="M56.98,333.32h-5.85v-11.69h5.85c.55,0,1,.45,1,1v9.69c0,.55-.45,1-1,1Z"></path>
      <rect class=" st11_2086193464" x="50.22" y="321.63" width=".9" height="11.69"></rect>
      <rect class=" st11_2086193464" x="48.87" y="326.92" width="3.43" height="1.12"></rect>
      <circle class=" st11_2086193464" cx="54.13" cy="327.48" r=".8"></circle>
    </g>
    <g>
      <path class=" st11_2086193464" d="M379.25,353.09v-5.76c0-.83-.67-1.5-1.5-1.5h-9.08v8.76h9.08c.83,0,1.5-.67,1.5-1.5Z"></path>
      <rect class=" st11_2086193464" x="366.11" y="345.84" width="2.55" height="8.76"></rect>
    </g>
    <g>
      <path class=" st11_2086193464" d="M208.96,350.39h-5.76c-.83,0-1.5.67-1.5,1.5v9.08h8.76v-9.08c0-.83-.67-1.5-1.5-1.5Z"></path>
      <rect class=" st11_2086193464" x="201.7" y="360.98" width="8.76" height="2.55"></rect>
    </g>
    <g>
      <path class=" st11_2086193464" d="M232.52,350.39h-5.76c-.83,0-1.5.67-1.5,1.5v9.08h8.76v-9.08c0-.83-.67-1.5-1.5-1.5Z"></path>
      <rect class=" st11_2086193464" x="225.26" y="360.98" width="8.76" height="2.55"></rect>
    </g>
    <g>
      <path class=" st11_2086193464" d="M95.57,364.28h-5.76c-.83,0-1.5.67-1.5,1.5v9.08h8.76v-9.08c0-.83-.67-1.5-1.5-1.5Z"></path>
      <rect class=" st11_2086193464" x="88.31" y="374.86" width="8.76" height="2.55"></rect>
    </g>
    <g>
      <path class=" st11_2086193464" d="M66.33,377.42v-2.09c0-.28-.22-.5-.5-.5h-5.03c-.28,0-.5.22-.5.5v2.09h6.03Z"></path>
      <rect class=" st12_2086193464" x="64.17" y="373.73" width="1.81" height="1.1"></rect>
      <ellipse class=" st11_2086193464" cx="63.31" cy="367.35" rx="2.8" ry="2.82"></ellipse>
      <line class=" st5_2086193464" x1="63.31" y1="377.42" x2="63.31" y2="367.35"></line>
    </g>
    <g>
      <path class=" st11_2086193464" d="M166.02,363.53v-2.09c0-.28-.22-.5-.5-.5h-5.03c-.28,0-.5.22-.5.5v2.09h6.03Z"></path>
      <rect class=" st12_2086193464" x="163.86" y="359.84" width="1.81" height="1.1"></rect>
      <ellipse class=" st11_2086193464" cx="163" cy="353.47" rx="2.8" ry="2.82"></ellipse>
      <line class=" st5_2086193464" x1="163" y1="363.53" x2="163" y2="353.47"></line>
    </g>
    <g>
      <g>
        <rect class=" st11_2086193464" x="366.11" y="363.06" width="49.31" height="17.42"></rect>
        <path class=" st11_2086193464" d="M411.68,364.3h-34.58c-1.92,0-3.48,1.56-3.48,3.48v7.44c0,1.92,1.56,3.48,3.48,3.48h34.58c1.1,0,1.99-.89,1.99-1.99v-10.42c0-1.1-.89-1.99-1.99-1.99Z"></path>
        <path class=" st11_2086193464" d="M415.18,374.97h-2.11c-.28,0-.5-.22-.5-.5v-5.32c0-.28.22-.5.5-.5h2.11v6.32Z"></path>
        <rect class=" st11_2086193464" x="411.45" y="372.7" width="1.11" height="1.89"></rect>
        <ellipse class=" st11_2086193464" cx="405.01" cy="371.8" rx="2.84" ry="2.94"></ellipse>
      </g>
      <line class=" st5_2086193464" x1="415.42" y1="371.8" x2="405.01" y2="371.8"></line>
    </g>
    <g>
      <rect class=" st11_2086193464" x="469.81" y="367.98" width="12.35" height="9.92"></rect>
      <rect class=" st11_2086193464" x="469.81" y="366.65" width="12.35" height="1.33"></rect>
      <rect class=" st11_2086193464" x="417.64" y="367.98" width="12.35" height="9.92"></rect>
      <rect class=" st11_2086193464" x="417.64" y="366.65" width="12.35" height="1.33"></rect>
      <rect class=" st11_2086193464" x="429.99" y="375.63" width="39.83" height="2.27"></rect>
      <rect class=" st11_2086193464" x="429.99" y="363.21" width="39.83" height="12.42"></rect>
      <rect class=" st11_2086193464" x="450.87" y="364.93" width="16.49" height="8.9"></rect>
      <rect class=" st11_2086193464" x="432.44" y="364.93" width="16.46" height="8.9"></rect>
      <polygon class=" st11_2086193464" points="446.65 368.37 462.79 360.87 465.98 362.3 469.81 363.21 469.81 332.54 429.98 332.54 429.98 368.37 446.65 368.37"></polygon>
      <polygon class=" st11_2086193464" points="469.81 363.21 465.98 362.3 462.79 360.87 446.65 368.37 449.5 368.37 469.81 363.21"></polygon>
    </g>
    <g>
      <rect class=" st11_2086193464" x="290.63" y="270.79" width="9.97" height="8.65"></rect>
      <rect class=" st11_2086193464" x="289.3" y="270.79" width="1.33" height="8.65"></rect>
      <rect class=" st11_2086193464" x="298.32" y="246.9" width="2.28" height="23.89"></rect>
      <rect class=" st11_2086193464" x="285.84" y="246.89" width="12.48" height="23.89"></rect>
      <rect class=" st11_2086193464" x="287.57" y="259.42" width="8.95" height="9.89"></rect>
      <rect class=" st11_2086193464" x="287.57" y="248.37" width="8.95" height="9.88"></rect>
      <polygon class=" st11_2086193464" points="291.03 256.89 283.49 266.57 284.93 268.49 285.84 270.79 255.02 270.79 255.02 246.89 291.03 246.89 291.03 256.89"></polygon>
      <polygon class=" st11_2086193464" points="285.84 270.79 284.93 268.49 283.49 266.57 291.03 256.89 291.03 258.6 285.84 270.79"></polygon>
    </g>
    <rect class=" st11_2086193464" x="145.31" y="223.17" width="72.29" height="9.2"></rect>
    <g>
      <path class=" st11_2086193464" d="M156.5,232.37v6.96c0,1.1.9,2,2,2h8.39c1.1,0,2-.9,2-2v-6.96h-12.39Z"></path>
      <path class=" st11_2086193464" d="M156.5,232.37v4.51c0,1.1.9,2,2,2h8.39c1.1,0,2-.9,2-2v-4.51h-12.39Z"></path>
    </g>
    <g>
      <rect class=" st11_2086193464" x="138.42" y="270.79" width="9.97" height="8.65"></rect>
      <rect class=" st11_2086193464" x="148.4" y="270.79" width="1.33" height="8.65"></rect>
      <rect class=" st11_2086193464" x="138.43" y="246.9" width="2.28" height="23.89"></rect>
      <rect class=" st11_2086193464" x="140.71" y="246.89" width="12.48" height="23.89"></rect>
      <rect class=" st11_2086193464" x="142.51" y="259.42" width="8.95" height="9.89"></rect>
      <rect class=" st11_2086193464" x="142.51" y="248.37" width="8.95" height="9.88"></rect>
      <polygon class=" st11_2086193464" points="148 256.89 155.54 266.57 154.1 268.49 153.19 270.79 184.01 270.79 184.01 246.89 148 246.89 148 256.89"></polygon>
      <polygon class=" st11_2086193464" points="153.19 270.79 154.1 268.49 155.54 266.57 148 256.89 148 258.6 153.19 270.79"></polygon>
    </g>
    <g>
      <rect class=" st11_2086193464" x="49.58" y="172.4" width="9.78" height="12.07"></rect>
      <rect class=" st11_2086193464" x="59.36" y="172.4" width="1.31" height="12.07"></rect>
      <rect class=" st11_2086193464" x="49.58" y="223.39" width="9.78" height="12.07"></rect>
      <rect class=" st11_2086193464" x="59.36" y="223.39" width="1.31" height="12.07"></rect>
      <rect class=" st11_2086193464" x="49.58" y="184.47" width="2.24" height="38.92"></rect>
      <rect class=" st11_2086193464" x="51.82" y="184.47" width="12.25" height="38.93"></rect>
      <rect class=" st11_2086193464" x="53.59" y="186.87" width="8.78" height="16.12"></rect>
      <rect class=" st11_2086193464" x="53.59" y="204.9" width="8.78" height="16.09"></rect>
      <polygon class=" st11_2086193464" points="58.97 207.11 66.37 191.34 64.96 188.22 64.06 184.47 94.3 184.47 94.3 223.4 58.97 223.4 58.97 207.11"></polygon>
      <polygon class=" st11_2086193464" points="64.06 184.47 64.96 188.22 66.37 191.34 58.97 207.11 58.97 204.32 64.06 184.47"></polygon>
    </g>
    <rect class=" st11_2086193464" x="418.27" y="308.19" width="72.08" height="4.85"></rect>
    <rect class=" st11_2086193464" x="418.28" y="295.43" width="72.11" height="9.02"></rect>
    <g>
      <g>
        <rect class=" st11_2086193464" x="215.95" y="246.67" width=".94" height="22.86"></rect>
        <rect class=" st11_2086193464" x="216.89" y="256.55" width=".71" height="3.09"></rect>
      </g>
      <polyline class=" st5_2086193464" points="213.98 263.02 215.95 258.08 213.98 253.15"></polyline>
    </g>
    <g>
      <g>
        <rect class=" st11_2086193464" x="134.37" y="192.97" width="1" height="24.27"></rect>
        <rect class=" st11_2086193464" x="135.37" y="203.46" width=".76" height="3.28"></rect>
      </g>
      <polyline class=" st5_2086193464" points="132.28 210.33 134.37 205.09 132.28 199.85"></polyline>
    </g>
    <g>
      <g>
        <rect class=" st12_2086193464" x="220.62" y="246.67" width=".94" height="22.86"></rect>
        <rect class=" st12_2086193464" x="219.91" y="256.55" width=".71" height="3.09"></rect>
      </g>
      <polyline class=" st5_2086193464" points="223.54 253.17 221.57 258.11 223.54 263.04"></polyline>
    </g>
    <g>
      <g>
        <rect class=" st11_2086193464" x="426.69" y="301.83" width="36.2" height="1.49"></rect>
        <rect class=" st11_2086193464" x="442.34" y="303.32" width="4.89" height="1.13"></rect>
      </g>
      <polyline class=" st5_2086193464" points="436.98 298.71 444.8 301.83 452.62 298.71"></polyline>
    </g>
    <g>
      <g>
        <rect class=" st11_2086193464" x="434.02" y="309.02" width="26.64" height="1.1"></rect>
        <rect class=" st11_2086193464" x="445.54" y="308.19" width="3.6" height=".83"></rect>
      </g>
      <polyline class=" st5_2086193464" points="453.08 312.42 447.32 310.12 441.57 312.42"></polyline>
    </g>
    <g>
      <path class=" st11_2086193464" d="M71.88,298.77s.03,1.28-.15,1.87c-.38,1.26-1.52,2.39-1.52,2.39l-1.52,2.24,30.07.38-2.66-2.96s-1.16-.48-1.71-1.99c-.16-.45-.27-1.92-.27-1.92h-22.23Z"></path>
      <path class=" st11_2086193464" d="M98.64,302.49h-29.85c-2.25,0-4.08,1.84-4.08,4.08v8.74c0,2.24,1.84,4.08,4.08,4.08h29.85c2.25,0,4.08-1.84,4.08-4.08v-8.74c0-2.24-1.84-4.08-4.08-4.08Z"></path>
      <ellipse class=" st11_2086193464" cx="83.72" cy="310.94" rx="15.03" ry="5.29"></ellipse>
      <circle class=" st11_2086193464" cx="83.72" cy="310.94" r="1.03"></circle>
    </g>
    <g>
      <rect class=" st11_2086193464" x="292.11" y="281.54" width="8.49" height="5.1"></rect>
      <line class=" st5_2086193464" x1="292.11" y1="281.54" x2="300.6" y2="286.63"></line>
      <line class=" st5_2086193464" x1="300.6" y1="281.54" x2="292.11" y2="286.63"></line>
    </g>
    <rect class=" st11_2086193464" x="298.77" y="365.95" width="5.62" height="16.3"></rect>
    <g>
      <circle class=" st11_2086193464" cx="430.12" cy="262.68" r="27.2"></circle>
      <circle class=" st11_2086193464" cx="429.82" cy="246.89" r="8.02"></circle>
      <circle class=" st11_2086193464" cx="428.79" cy="267.76" r="15.49"></circle>
    </g>
    <g>
      <path class=" st11_2086193464" d="M444.89,233.64c-4.89-2.36-11.92-5.65-20.2-4.29-5.47.89-9.18,3.81-13.26,6.09-12.86,6.91-21.23-12.73-8.21-17.98,15.32-5.71,34.62-9.02,48.17-1.21,11.02,4.71,4.74,21.2-6.49,17.4Z"></path>
      <path class=" st11_2086193464" d="M435.5,218.37c-2.58-1.01-6.33-2.42-10.81-1.68-5.1.85-12.38,7.09-14.96.36-2.35-6.13,11.87-8.78,16.01-9.1,5.21-.41,17.76,2.57,15.95,8.06-.67,2.03-3.48,3.21-6.2,2.36Z"></path>
    </g>
    <g>
      <path class=" st11_2086193464" d="M475.03,285.16l3.03-8.93c.74-2.2-.43-4.58-2.63-5.33l-9.52-3.23c-.2-.07-.42.04-.49.24l-5.61,16.55c-.07.2.04.42.24.49l9.13,3.1c2.41.82,5.03-.48,5.85-2.89Z"></path>
      <path class=" st11_2086193464" d="M472.52,283.54l2.14-6.32c.63-1.86-.37-3.89-2.23-4.52l-9.07-3.08c-.47-.16-.97.09-1.13.56l-3.57,10.54c-.16.47.09.97.56,1.13l9.92,3.36c1.4.47,2.92-.27,3.39-1.67Z"></path>
      <path class=" st11_2086193464" d="M466.21,282.45l5.08-4.93c.2-.19.52-.19.71.01l2.56,2.64c.19.2.19.52-.01.71l-5.08,4.93c-.2.19-.52.19-.71-.01l-2.56-2.64c-.19-.2-.19-.51.01-.71Z"></path>
    </g>
    <g>
      <path class=" st11_2086193464" d="M477.51,252.65l-2.3-9.15c-.57-2.25-2.85-3.62-5.1-3.05l-9.75,2.46c-.21.05-.33.26-.28.47l4.27,16.95c.05.21.26.33.47.28l9.35-2.35c2.47-.62,3.97-3.13,3.35-5.6Z"></path>
      <path class=" st11_2086193464" d="M474.53,252.65l-1.63-6.47c-.48-1.91-2.42-3.07-4.33-2.59l-9.29,2.34c-.48.12-.77.6-.65,1.08l2.72,10.79c.12.48.6.77,1.08.65l10.15-2.56c1.43-.36,2.3-1.81,1.94-3.24Z"></path>
      <path class=" st11_2086193464" d="M468.63,255.16l1.59-6.9c.06-.27.33-.44.6-.38l3.58.83c.27.06.44.33.38.6l-1.59,6.89c-.06.27-.33.44-.6.38l-3.58-.83c-.27-.06-.44-.33-.38-.6Z"></path>
    </g>
    <g>
      <rect class=" st11_2086193464" x="303.24" y="252.27" width="14.6" height="14.04"></rect>
      <rect class=" st11_2086193464" x="316.73" y="252.27" width="1.11" height="14.04"></rect>
      <path class=" st11_2086193464" d="M313.58,259.29h0c0,.83-.39,1.38-.96,1.7-.7.4-1.56.41-2.3.08l-4.1-1.79,3.98-1.78c.66-.29,1.42-.32,2.08-.04.72.31,1.3.89,1.3,1.82Z"></path>
    </g>
    <g>
      <rect class=" st11_2086193464" x="303.24" y="239.3" width="14.6" height="12.98"></rect>
      <path class=" st11_2086193464" d="M316.42,250.27v-8.96c0-.55-.45-1-1-1h-8.33c-.55,0-1,.45-1,1v8.96c0,.55.45,1,1,1h8.33c.55,0,1-.45,1-1Z"></path>
      <rect class=" st11_2086193464" x="303.99" y="245.12" width="4.43" height="1.34"></rect>
      <ellipse class=" st11_2086193464" cx="310.8" cy="245.79" rx=".95" ry=".83"></ellipse>
      <rect class=" st11_2086193464" x="303.99" y="245.12" width="1.32" height="1.34"></rect>
    </g>
    <g>
      <rect class=" st11_2086193464" x="303.24" y="224.95" width="14.6" height="14.35"></rect>
      <circle class=" st11_2086193464" cx="313.76" cy="228.87" r="2.18"></circle>
      <circle class=" st11_2086193464" cx="313.76" cy="235.38" r="2.18"></circle>
      <circle class=" st11_2086193464" cx="307.32" cy="228.87" r="2.18"></circle>
      <circle class=" st11_2086193464" cx="307.32" cy="235.38" r="2.18"></circle>
    </g>
    <g>
      <rect class=" st11_2086193464" x="303.24" y="280.87" width="14.56" height="14.56"></rect>
      <rect class=" st11_2086193464" x="316.69" y="280.87" width="1.11" height="14.38"></rect>
      <rect class=" st11_2086193464" x="317.8" y="281.99" width=".97" height="2.45"></rect>
      <g>
        <line class=" st5_2086193464" x1="314.08" y1="288.15" x2="306.96" y2="288.15"></line>
        <line class=" st5_2086193464" x1="308.74" y1="285.08" x2="312.3" y2="291.22"></line>
        <line class=" st5_2086193464" x1="308.74" y1="291.22" x2="312.3" y2="285.08"></line>
      </g>
    </g>
    <g>
      <rect class=" st11_2086193464" x="303.24" y="266.31" width="14.56" height="14.56"></rect>
      <rect class=" st11_2086193464" x="316.69" y="266.49" width="1.11" height="14.38"></rect>
      <rect class=" st11_2086193464" x="317.8" y="277.3" width=".97" height="2.45"></rect>
      <g>
        <line class=" st5_2086193464" x1="314.08" y1="273.59" x2="306.96" y2="273.59"></line>
        <line class=" st5_2086193464" x1="308.74" y1="276.66" x2="312.3" y2="270.52"></line>
        <line class=" st5_2086193464" x1="308.74" y1="270.52" x2="312.3" y2="276.66"></line>
      </g>
    </g>
    <g>
      <rect class=" st11_2086193464" x="303.24" y="210.63" width="14.6" height="14.31"></rect>
      <line class=" st5_2086193464" x1="317.84" y1="210.63" x2="303.24" y2="224.95"></line>
      <line class=" st5_2086193464" x1="317.84" y1="224.95" x2="303.24" y2="210.63"></line>
    </g>
    <g>
      <rect class=" st11_2086193464" x="303.24" y="196.38" width="14.6" height="14.26"></rect>
      <line class=" st5_2086193464" x1="317.84" y1="196.38" x2="303.24" y2="210.63"></line>
      <line class=" st5_2086193464" x1="317.84" y1="210.63" x2="303.24" y2="196.38"></line>
    </g>
    <g>
      <rect class=" st11_2086193464" x="352.08" y="297.83" width="63.66" height="15.21"></rect>
      <g>
        <line class=" st5_2086193464" x1="354.71" y1="299.84" x2="355.57" y2="311.02"></line>
        <line class=" st5_2086193464" x1="359.14" y1="299.84" x2="358.27" y2="311.02"></line>
        <line class=" st5_2086193464" x1="361.95" y1="299.84" x2="361.95" y2="311.02"></line>
        <line class=" st5_2086193464" x1="364.59" y1="299.84" x2="365.46" y2="311.02"></line>
        <line class=" st5_2086193464" x1="375.26" y1="299.84" x2="376.12" y2="311.02"></line>
        <line class=" st5_2086193464" x1="382.32" y1="299.84" x2="383.18" y2="311.02"></line>
        <line class=" st5_2086193464" x1="393.6" y1="299.84" x2="394.47" y2="311.02"></line>
        <line class=" st5_2086193464" x1="386.55" y1="299.84" x2="387.41" y2="311.02"></line>
        <line class=" st5_2086193464" x1="368.99" y1="299.84" x2="368.13" y2="311.02"></line>
        <line class=" st5_2086193464" x1="379.36" y1="299.84" x2="378.49" y2="311.02"></line>
        <line class=" st5_2086193464" x1="390.64" y1="299.84" x2="389.78" y2="311.02"></line>
        <line class=" st5_2086193464" x1="400.96" y1="299.84" x2="401.83" y2="311.02"></line>
        <line class=" st5_2086193464" x1="412.25" y1="299.84" x2="413.11" y2="311.02"></line>
        <line class=" st5_2086193464" x1="405.2" y1="299.84" x2="406.06" y2="311.02"></line>
        <line class=" st5_2086193464" x1="398" y1="299.84" x2="397.14" y2="311.02"></line>
        <line class=" st5_2086193464" x1="409.29" y1="299.84" x2="408.43" y2="311.02"></line>
        <line class=" st5_2086193464" x1="372.59" y1="299.84" x2="372.59" y2="311.02"></line>
      </g>
      <line class=" st5_2086193464" x1="414.09" y1="305.43" x2="353.73" y2="305.43"></line>
    </g>
    <g>
      <rect class=" st11_2086193464" x="304.39" y="324.43" width="13.39" height="62.92"></rect>
      <g>
        <line class=" st5_2086193464" x1="306.17" y1="384.75" x2="316.02" y2="383.9"></line>
        <line class=" st5_2086193464" x1="306.17" y1="380.37" x2="316.02" y2="381.23"></line>
        <line class=" st5_2086193464" x1="306.17" y1="377.6" x2="316.02" y2="377.6"></line>
        <line class=" st5_2086193464" x1="306.17" y1="374.98" x2="316.02" y2="374.13"></line>
        <line class=" st5_2086193464" x1="306.17" y1="364.44" x2="316.02" y2="363.58"></line>
        <line class=" st5_2086193464" x1="306.17" y1="357.46" x2="316.02" y2="356.61"></line>
        <line class=" st5_2086193464" x1="306.17" y1="346.31" x2="316.02" y2="345.46"></line>
        <line class=" st5_2086193464" x1="306.17" y1="353.28" x2="316.02" y2="352.43"></line>
        <line class=" st5_2086193464" x1="306.17" y1="370.63" x2="316.02" y2="371.48"></line>
        <line class=" st5_2086193464" x1="306.17" y1="360.39" x2="316.02" y2="361.24"></line>
        <line class=" st5_2086193464" x1="306.17" y1="349.23" x2="316.02" y2="350.09"></line>
        <line class=" st5_2086193464" x1="306.17" y1="339.03" x2="316.02" y2="338.18"></line>
        <line class=" st5_2086193464" x1="306.17" y1="327.88" x2="316.02" y2="327.03"></line>
        <line class=" st5_2086193464" x1="306.17" y1="334.85" x2="316.02" y2="334"></line>
        <line class=" st5_2086193464" x1="306.17" y1="341.96" x2="316.02" y2="342.81"></line>
        <line class=" st5_2086193464" x1="306.17" y1="330.8" x2="316.02" y2="331.66"></line>
        <line class=" st5_2086193464" x1="306.17" y1="367.08" x2="316.02" y2="367.08"></line>
      </g>
      <line class=" st5_2086193464" x1="311.09" y1="326.06" x2="311.09" y2="385.72"></line>
    </g>
    <g>
      <rect class=" st13_2086193464" x="47.7" y="241.82" width="61.04" height="14.83"></rect>
      <g>
        <line class=" st5_2086193464" x1="61.18" y1="243.78" x2="60.06" y2="254.68"></line>
        <line class=" st5_2086193464" x1="54.56" y1="243.78" x2="54.56" y2="254.68"></line>
        <line class=" st5_2086193464" x1="63.37" y1="243.78" x2="63.37" y2="254.68"></line>
        <line class=" st5_2086193464" x1="65.55" y1="243.78" x2="66.67" y2="254.68"></line>
        <line class=" st5_2086193464" x1="56.75" y1="243.78" x2="57.87" y2="254.68"></line>
        <line class=" st5_2086193464" x1="83.15" y1="243.78" x2="84.28" y2="254.68"></line>
        <line class=" st5_2086193464" x1="74.35" y1="243.78" x2="75.48" y2="254.68"></line>
        <line class=" st5_2086193464" x1="100.76" y1="243.78" x2="101.88" y2="254.68"></line>
        <line class=" st5_2086193464" x1="91.96" y1="243.78" x2="93.08" y2="254.68"></line>
        <line class=" st5_2086193464" x1="78.79" y1="243.78" x2="77.66" y2="254.68"></line>
        <line class=" st5_2086193464" x1="69.98" y1="243.78" x2="68.86" y2="254.68"></line>
        <line class=" st5_2086193464" x1="87.59" y1="243.78" x2="86.46" y2="254.68"></line>
        <line class=" st5_2086193464" x1="105.19" y1="243.78" x2="104.07" y2="254.68"></line>
        <line class=" st5_2086193464" x1="96.39" y1="243.78" x2="95.27" y2="254.68"></line>
        <line class=" st5_2086193464" x1="52.38" y1="243.78" x2="51.25" y2="254.68"></line>
        <line class=" st5_2086193464" x1="98.57" y1="243.78" x2="98.57" y2="254.68"></line>
        <line class=" st5_2086193464" x1="80.97" y1="243.78" x2="80.97" y2="254.68"></line>
        <line class=" st5_2086193464" x1="72.17" y1="243.78" x2="72.17" y2="254.68"></line>
        <line class=" st5_2086193464" x1="89.77" y1="243.78" x2="89.77" y2="254.68"></line>
      </g>
      <line class=" st5_2086193464" x1="107.01" y1="249.23" x2="49.43" y2="249.23"></line>
    </g>
    <g>
      <rect class=" st13_2086193464" x="47.7" y="281.03" width="61.04" height="14.83"></rect>
      <g>
        <line class=" st5_2086193464" x1="61.18" y1="282.99" x2="60.06" y2="293.89"></line>
        <line class=" st5_2086193464" x1="54.56" y1="282.99" x2="54.56" y2="293.89"></line>
        <line class=" st5_2086193464" x1="63.37" y1="282.99" x2="63.37" y2="293.89"></line>
        <line class=" st5_2086193464" x1="65.55" y1="282.99" x2="66.67" y2="293.89"></line>
        <line class=" st5_2086193464" x1="56.75" y1="282.99" x2="57.87" y2="293.89"></line>
        <line class=" st5_2086193464" x1="83.15" y1="282.99" x2="84.28" y2="293.89"></line>
        <line class=" st5_2086193464" x1="74.35" y1="282.99" x2="75.48" y2="293.89"></line>
        <line class=" st5_2086193464" x1="100.76" y1="282.99" x2="101.88" y2="293.89"></line>
        <line class=" st5_2086193464" x1="91.96" y1="282.99" x2="93.08" y2="293.89"></line>
        <line class=" st5_2086193464" x1="78.79" y1="282.99" x2="77.66" y2="293.89"></line>
        <line class=" st5_2086193464" x1="69.98" y1="282.99" x2="68.86" y2="293.89"></line>
        <line class=" st5_2086193464" x1="87.59" y1="282.99" x2="86.46" y2="293.89"></line>
        <line class=" st5_2086193464" x1="105.19" y1="282.99" x2="104.07" y2="293.89"></line>
        <line class=" st5_2086193464" x1="96.39" y1="282.99" x2="95.27" y2="293.89"></line>
        <line class=" st5_2086193464" x1="52.38" y1="282.99" x2="51.25" y2="293.89"></line>
        <line class=" st5_2086193464" x1="98.57" y1="282.99" x2="98.57" y2="293.89"></line>
        <line class=" st5_2086193464" x1="80.97" y1="282.99" x2="80.97" y2="293.89"></line>
        <line class=" st5_2086193464" x1="72.17" y1="282.99" x2="72.17" y2="293.89"></line>
        <line class=" st5_2086193464" x1="89.77" y1="282.99" x2="89.77" y2="293.89"></line>
      </g>
      <line class=" st5_2086193464" x1="107.01" y1="288.44" x2="49.43" y2="288.44"></line>
    </g>
    <g>
      <rect class=" st11_2086193464" x="247.13" y="281.54" width="44.98" height="13.21"></rect>
      <g>
        <line class=" st5_2086193464" x1="284.5" y1="283.29" x2="283.54" y2="293"></line>
        <line class=" st5_2086193464" x1="273.52" y1="283.29" x2="272.56" y2="293"></line>
        <line class=" st5_2086193464" x1="262.2" y1="283.29" x2="261.24" y2="293"></line>
        <line class=" st5_2086193464" x1="287.57" y1="283.29" x2="288.53" y2="293"></line>
        <line class=" st5_2086193464" x1="276.57" y1="283.29" x2="277.53" y2="293"></line>
        <line class=" st5_2086193464" x1="256.98" y1="283.29" x2="257.95" y2="293"></line>
        <line class=" st5_2086193464" x1="264.84" y1="283.29" x2="265.8" y2="293"></line>
        <line class=" st5_2086193464" x1="280.47" y1="283.29" x2="280.47" y2="293"></line>
        <line class=" st5_2086193464" x1="268.68" y1="283.29" x2="268.68" y2="293"></line>
        <line class=" st5_2086193464" x1="250.71" y1="283.29" x2="251.68" y2="293"></line>
        <line class=" st5_2086193464" x1="254.56" y1="283.29" x2="254.56" y2="293"></line>
      </g>
      <line class=" st5_2086193464" x1="249.02" y1="288.14" x2="290.23" y2="288.14"></line>
    </g>
    <g>
      <rect class=" st11_2086193464" x="138.43" y="281.54" width="51.45" height="13.21"></rect>
      <g>
        <line class=" st5_2086193464" x1="146.05" y1="283.29" x2="147.01" y2="293"></line>
        <line class=" st5_2086193464" x1="156.81" y1="283.29" x2="157.77" y2="293"></line>
        <line class=" st5_2086193464" x1="167.58" y1="283.29" x2="168.54" y2="293"></line>
        <line class=" st5_2086193464" x1="143.1" y1="283.29" x2="142.14" y2="293"></line>
        <line class=" st5_2086193464" x1="153.87" y1="283.29" x2="152.9" y2="293"></line>
        <line class=" st5_2086193464" x1="172.45" y1="283.29" x2="171.48" y2="293"></line>
        <line class=" st5_2086193464" x1="164.63" y1="283.29" x2="163.67" y2="293"></line>
        <line class=" st5_2086193464" x1="149.96" y1="283.29" x2="149.96" y2="293"></line>
        <line class=" st5_2086193464" x1="182.25" y1="283.29" x2="183.21" y2="293"></line>
        <line class=" st5_2086193464" x1="186.16" y1="283.29" x2="186.16" y2="293"></line>
        <line class=" st5_2086193464" x1="160.72" y1="283.29" x2="160.72" y2="293"></line>
        <line class=" st5_2086193464" x1="179.3" y1="283.29" x2="178.34" y2="293"></line>
        <line class=" st5_2086193464" x1="175.39" y1="283.29" x2="175.39" y2="293"></line>
      </g>
      <line class=" st5_2086193464" x1="187.37" y1="288.14" x2="140.93" y2="288.14"></line>
    </g>
    <g>
      <rect class=" st11_2086193464" x="263.4" y="324.46" width="12.98" height="39.07"></rect>
      <g>
        <line class=" st5_2086193464" x1="274.66" y1="356.93" x2="265.12" y2="356.09"></line>
        <line class=" st5_2086193464" x1="274.66" y1="347.39" x2="265.12" y2="346.55"></line>
        <line class=" st5_2086193464" x1="274.66" y1="337.55" x2="265.12" y2="336.72"></line>
        <line class=" st5_2086193464" x1="274.66" y1="359.59" x2="265.12" y2="360.43"></line>
        <line class=" st5_2086193464" x1="274.66" y1="350.03" x2="265.12" y2="350.87"></line>
        <line class=" st5_2086193464" x1="274.66" y1="333.02" x2="265.12" y2="333.86"></line>
        <line class=" st5_2086193464" x1="274.66" y1="339.84" x2="265.12" y2="340.68"></line>
        <line class=" st5_2086193464" x1="274.66" y1="353.43" x2="265.12" y2="353.43"></line>
        <line class=" st5_2086193464" x1="274.66" y1="343.18" x2="265.12" y2="343.18"></line>
        <line class=" st5_2086193464" x1="274.66" y1="327.58" x2="265.12" y2="328.41"></line>
        <line class=" st5_2086193464" x1="274.66" y1="330.92" x2="265.12" y2="330.92"></line>
      </g>
      <line class=" st5_2086193464" x1="269.89" y1="326.11" x2="269.89" y2="361.9"></line>
    </g>
  </g>
  <g>
    <path class=" st18_2086193464" d="M485.44,222.06c0,4.69-3.8,8.49-8.49,8.49s-8.49-3.8-8.49-8.49,3.8-8.49,8.49-8.49,8.49,3.8,8.49,8.49ZM418.12,390.17v-2.38h-63.74v40.81h-55.01v-9.83h5.02v2h44.89v-87.27h2.79v.98h29.24v2.74h-13.98v43.26h48.09v-43.26h-15.42v-2.74h17.62v43.42h81.89v-1.82h5.29v14.08h-86.69ZM361.96,340.78h-9.89v36.82h9.89v-36.82ZM499.53,304.46h-81.26v-9.03h-68.99v17.61h2.79v-15.21h63.66v15.21h2.53v-4.84h81.26v-3.74h0ZM219.91,294.75v-71.57h-2.3v71.57h-2.38v3.07h7.17v-3.07h-2.48ZM317.86,295.43v2.39h-74.82v-3.07h49.08v-8.12h8.49v-46.1h-8.17v-17.36h-4.33v-32.09h24.48v5.29h-9.35v99.06h14.62ZM300.6,294.75v-5.72h-6.1v5.72h6.1ZM194.58,294.75h-56.16v-54.79h6.89v-16.79h3.6l-.05-32.59h-5.28v1.42h-7.46v107.2h2.3v-1.38h56.16v-3.07ZM298.77,365.95v16.3h5.62v5.07h13.39v2.49h-13.39v2.1h-5.02v-4.59H40v-240.75h12.92v5.36h-5.21v88.04h62.94v16.68h-1.86v-14.83h-61.08v54.04h61.08v-14.75h1.86v45.79h-2.56v-28.12h-60.38v78.64h60.37v-32.01h2.56v36.77h25.03v-3.69h13.51v-54.03h-13.06v-4.36h2.3v1.87h37.66v2.49h-24.39v39.07h64.57s0-39.07,0-39.07h-21.47v-2.49h35.92v2.49h-11.94v39.07h42.12s0-39.07,0-39.07h-11.59v-2.49h30.19v2.49h-16.09v39.07h12.98v10.76h2.82v4.11h17.05v-14.87h5.63v-39.07h-3.69v-2.49h19.59v2.49h-13.39v41.49h-5.62ZM108.08,380.13h-62.33v4.51h62.33v-4.51ZM161.82,368.26h-10.25v12.42h10.25v-12.42ZM269.77,371.01h-105.1v13.83h105.1v-13.83ZM277.38,375.98h-4.76v4.76h4.76v-4.76Z"></path>
  </g>
  <g>
    <path class=" st5_2086193464" d="M310.92,152.37l-7.85-13.6M396.46,146.57v-15.17M364.9,146.57v-15.17M332.96,146.57v-15.17M428.77,146.57v-15.17M460.18,146.57v-15.17M498.95,168.94l13.26-8.03M490.13,138.99l-8.3,13.1M504.82,191.09h15.18M504.82,223.27h15.18M504.82,273.87h15.18M504.82,306.32h15.18M504.82,349.52h15.18M293.9,169.41l-13.28-8.44M288.1,191.09h-15.18M272.92,202.73l15.18,15.16M248.86,217.9v-15.17M218.39,217.9v-15.17M188.67,217.9v-15.17M156.46,162.15l-12.36,6.43M128.02,151.95l7.18-12.23M105.42,146.57v-15.17M74.87,146.57v-15.17M43.85,146.57v-15.17M148.92,217.04l14.32-14.32M43.85,146.57v-15.17M163.24,190.58h-14.32"></path>
    <path class=" st5_2086193464" d="M288.11,191.46h4.01c0-22.54,18.34-40.88,40.88-40.88h127.38c22.29,0,40.43,18.14,40.43,40.43h4.01c0-24.54-19.9-44.44-44.44-44.44h-127.38c-24.78,0-44.89,20.1-44.89,44.89h0Z"></path>
    <path class=" st5_2086193464" d="M40,146.57v-15.17h65.28c32.01,0,57.96,25.95,57.96,57.96v13.37h109.69v-12.72c0-32.36,26.23-58.61,58.61-58.61h129.7c32.46,0,58.77,26.31,58.77,58.77v200h-15.19v-199.16c0-24.54-19.9-44.44-44.44-44.44h-127.37c-24.78,0-44.89,20.1-44.89,44.89v26.44h-139.19v-27.6c0-26.51-17.74-43.73-43.5-43.73H40Z"></path>
  </g>
  <g>
    <g>
      <rect class=" st5_2086193464" x="351.64" y="331.3" width="18.28" height="1.17"></rect>
      <rect class=" st5_2086193464" x="350.18" y="332.47" width="1.89" height="1.03"></rect>
      <rect class=" st5_2086193464" x="350.18" y="313.04" width="1.89" height="1.03"></rect>
      <path class=" st5_2086193464" d="M369.92,331.3c0-10.02-10.39-17.23-17.78-17.23"></path>
    </g>
    <g>
      <rect class=" st5_2086193464" x="91.93" y="343.42" width="16.54" height="1.06"></rect>
      <rect class=" st5_2086193464" x="108.08" y="344.48" width="1.71" height=".93"></rect>
      <rect class=" st5_2086193464" x="108.08" y="326.89" width="1.71" height=".93"></rect>
      <path class=" st5_2086193464" d="M91.93,343.42c0-9.07,9.4-15.59,16.09-15.59"></path>
    </g>
    <g>
      <rect class=" st5_2086193464" x="117.9" y="317.86" width="18.67" height="1.2"></rect>
      <rect class=" st5_2086193464" x="136.12" y="319.05" width="1.93" height="1.05"></rect>
      <rect class=" st5_2086193464" x="136.12" y="299.21" width="1.93" height="1.05"></rect>
      <path class=" st5_2086193464" d="M117.9,317.86c0-10.23,10.61-17.6,18.16-17.6"></path>
    </g>
    <g>
      <rect class=" st4_2086193464" x="382.26" y="336.73" width="1.07" height="16.69"></rect>
      <rect class=" st4_2086193464" x="381.32" y="335.4" width=".94" height="1.73"></rect>
      <rect class=" st4_2086193464" x="399.07" y="335.4" width=".94" height="1.73"></rect>
      <path class=" st5_2086193464" d="M383.33,353.42c9.15,0,15.73-9.49,15.73-16.23"></path>
    </g>
    <g>
      <rect class=" st3_2086193464" x="223.43" y="276.76" width="1.18" height="18.44"></rect>
      <rect class=" st3_2086193464" x="222.4" y="294.75" width="1.04" height="1.91"></rect>
      <rect class=" st3_2086193464" x="242" y="294.75" width="1.04" height="1.91"></rect>
      <path class=" st5_2086193464" d="M224.62,276.76c10.11,0,17.38,10.48,17.38,17.94"></path>
    </g>
    <g>
      <rect class=" st3_2086193464" x="213.01" y="276.76" width="1.18" height="18.44"></rect>
      <rect class=" st3_2086193464" x="214.19" y="294.75" width="1.04" height="1.91"></rect>
      <rect class=" st3_2086193464" x="194.58" y="294.75" width="1.04" height="1.91"></rect>
      <path class=" st5_2086193464" d="M213.01,276.76c-10.11,0-17.38,10.48-17.38,17.94"></path>
    </g>
    <g>
      <rect class=" st4_2086193464" x="296.19" y="324.06" width="1.07" height="16.71"></rect>
      <rect class=" st4_2086193464" x="297.26" y="322.73" width=".94" height="1.73"></rect>
      <rect class=" st4_2086193464" x="279.49" y="322.73" width=".94" height="1.73"></rect>
      <path class=" st5_2086193464" d="M296.19,340.78c-9.16,0-15.75-9.5-15.75-16.26"></path>
    </g>
    <g>
      <rect class=" st4_2086193464" x="192.78" y="324.06" width="1.07" height="16.71"></rect>
      <rect class=" st4_2086193464" x="193.85" y="322.73" width=".94" height="1.73"></rect>
      <rect class=" st4_2086193464" x="176.08" y="322.73" width=".94" height="1.73"></rect>
      <path class=" st5_2086193464" d="M192.78,340.78c-9.16,0-15.75-9.5-15.75-16.26"></path>
    </g>
    <g>
      <rect class=" st5_2086193464" x="303.81" y="415.89" width="24" height="1.54"></rect>
      <rect class=" st5_2086193464" x="301.91" y="417.42" width="2.49" height="1.35"></rect>
      <rect class=" st5_2086193464" x="301.91" y="391.91" width="2.49" height="1.35"></rect>
      <path class=" st5_2086193464" d="M327.82,415.89c0-13.16-13.64-22.62-23.34-22.62"></path>
    </g>
    <g>
      <rect class=" st4_2086193464" x="231.64" y="324.06" width="1.06" height="16.61"></rect>
      <rect class=" st4_2086193464" x="230.71" y="322.74" width=".94" height="1.72"></rect>
      <rect class=" st4_2086193464" x="248.36" y="322.74" width=".94" height="1.72"></rect>
      <path class=" st5_2086193464" d="M232.7,340.67c9.1,0,15.66-9.44,15.66-16.15"></path>
    </g>
    <rect class=" st5_2086193464" x="400.95" y="195.31" width="27.16" height="1.14"></rect>
    <rect class=" st5_2086193464" x="423.37" y="194.17" width="27.16" height="1.14"></rect>
    <rect class=" st5_2086193464" x="365.1" y="195.31" width="27.16" height="1.14"></rect>
    <rect class=" st5_2086193464" x="341.88" y="194.17" width="27.16" height="1.14"></rect>
  </g>
  <g>
    <polygon class=" st17_2086193464" points="292.15 399.62 292.15 399.9 298.84 405.23 283.88 404.72 283.55 404.72 283.55 405.96 283.88 405.96 298.84 405.45 292.15 410.79 292.15 411.07 293.78 411.07 299.51 405.36 293.78 399.62 292.15 399.62"></polygon>
  </g>
  <g>
    <g>
      <path class=" st19_2086193464" d="M244.93,340.86c.01-.24.07-.47.17-.68.1-.21.24-.4.42-.55s.39-.29.63-.38c.25-.09.52-.14.82-.14.29,0,.55.05.79.14.24.1.45.23.63.39s.32.35.42.56c.1.21.15.43.15.66s-.04.42-.12.59-.18.3-.28.4c-.12.12-.25.22-.4.31.19.09.35.2.5.34.13.12.24.28.34.48.1.2.15.44.15.73,0,.24-.05.47-.15.68s-.25.4-.43.57c-.19.17-.41.3-.68.4-.26.1-.56.15-.88.15s-.62-.05-.88-.14c-.26-.09-.48-.22-.67-.38s-.33-.34-.43-.55c-.1-.21-.16-.43-.18-.68h.95c.01.11.05.22.11.33.06.11.14.2.24.29.1.09.23.15.37.2.15.05.3.08.48.08.38,0,.68-.1.89-.29.21-.19.32-.43.32-.71s-.11-.52-.32-.71-.51-.29-.88-.29h-.45v-.85h.4c.33,0,.58-.09.77-.26s.28-.39.28-.64c0-.28-.09-.51-.28-.68s-.44-.26-.77-.26-.58.09-.78.26-.3.39-.33.64h-.95Z"></path>
      <path class=" st19_2086193464" d="M250.45,344.41c.15,0,.28.06.39.17s.16.26.16.43c0,.25-.04.47-.12.64s-.18.32-.28.43c-.12.13-.25.24-.4.32l-.15-.2c.07-.05.13-.11.19-.18.05-.06.1-.13.15-.22s.08-.19.11-.3c-.17,0-.32-.05-.43-.16-.11-.11-.17-.23-.17-.39s.05-.28.16-.39.24-.16.39-.16Z"></path>
      <path class=" st19_2086193464" d="M255.68,339.16v.65l-2.6,5.65h-1l2.5-5.4h-2.85v-.9h3.95Z"></path>
    </g>
    <g>
      <path class=" st19_2086193464" d="M284.38,349.35c.01-.24.07-.47.17-.68.1-.21.24-.4.42-.55.18-.16.39-.29.64-.38.24-.09.52-.14.82-.14.29,0,.55.05.79.14.24.1.45.23.64.39.18.16.32.35.42.56.1.21.15.43.15.66s-.04.42-.12.59c-.08.16-.18.3-.28.4-.12.12-.25.22-.4.31.19.09.35.2.5.34.13.12.24.28.34.48.1.2.15.44.15.73,0,.24-.05.47-.15.68-.1.21-.25.4-.43.57-.19.17-.41.3-.68.4s-.56.15-.88.15-.62-.05-.88-.14c-.26-.09-.48-.22-.67-.38-.18-.16-.33-.34-.43-.55-.1-.21-.16-.43-.18-.68h.95c.01.11.05.22.11.33.06.11.14.2.24.29.1.09.23.15.37.2.15.05.3.08.48.08.38,0,.68-.1.89-.29.21-.19.31-.43.31-.71s-.11-.52-.32-.71-.51-.29-.88-.29h-.45v-.85h.4c.33,0,.58-.09.77-.26.19-.17.28-.39.28-.64,0-.28-.09-.51-.28-.68-.19-.18-.44-.26-.77-.26s-.58.09-.78.26-.3.39-.33.64h-.95Z"></path>
      <path class=" st19_2086193464" d="M289.9,352.9c.15,0,.28.06.39.17s.16.26.16.43c0,.25-.04.47-.12.64-.08.18-.18.32-.28.43-.12.13-.25.24-.4.32l-.15-.2c.07-.05.13-.11.19-.18.05-.06.1-.13.15-.22s.08-.19.11-.3c-.17,0-.32-.05-.43-.16-.11-.11-.17-.23-.17-.39s.05-.28.16-.39.24-.16.39-.16Z"></path>
      <path class=" st19_2086193464" d="M293.28,354c-.33,0-.62-.05-.88-.15-.26-.1-.49-.23-.68-.4-.19-.17-.33-.36-.44-.59-.1-.22-.16-.46-.16-.72,0-.3.05-.55.16-.76.1-.2.22-.37.35-.49.15-.15.31-.26.5-.35-.14-.09-.27-.19-.38-.31-.1-.11-.18-.24-.25-.39s-.11-.33-.11-.55c0-.23.05-.44.14-.65.09-.2.22-.38.39-.54s.37-.28.61-.37c.23-.09.49-.14.76-.14s.53.05.76.14c.23.09.43.22.61.37.17.16.3.34.39.54.09.2.14.42.14.65,0,.21-.04.4-.12.55-.08.15-.17.28-.26.39-.11.12-.24.23-.37.31.19.09.35.2.5.35.13.13.24.29.34.49.1.2.15.45.15.76,0,.25-.05.49-.15.72-.1.22-.25.42-.43.59-.19.17-.41.3-.68.4-.26.1-.56.15-.88.15ZM293.28,351.05c-.38,0-.68.1-.89.3-.21.2-.31.45-.31.75s.11.55.31.75c.21.2.51.3.89.3s.68-.1.89-.3c.21-.2.31-.45.31-.75s-.11-.55-.31-.75c-.21-.2-.51-.3-.89-.3ZM293.28,350.2c.28,0,.51-.08.68-.25s.26-.37.26-.6c0-.25-.09-.47-.26-.64s-.4-.26-.68-.26-.51.09-.69.26c-.18.17-.27.39-.27.64,0,.23.09.43.27.6.18.17.41.25.69.25Z"></path>
    </g>
    <g>
      <path class=" st19_2086193464" d="M162.58,334.79c.29,0,.56.05.82.16.26.11.48.26.67.46.19.2.34.42.45.69s.17.54.17.84-.06.58-.17.84-.27.49-.47.69c-.2.2-.43.35-.7.46-.27.11-.56.16-.87.16s-.6-.05-.85-.14c-.25-.09-.47-.22-.65-.38s-.32-.34-.43-.55c-.1-.21-.16-.43-.18-.68h.95c.01.11.05.22.11.33.06.11.14.2.24.29.1.09.22.15.36.2.14.05.29.08.44.08.17,0,.34-.03.49-.1.15-.07.29-.16.4-.27.11-.11.2-.25.27-.41.06-.16.1-.33.1-.52s-.03-.36-.1-.52c-.06-.16-.15-.3-.27-.41-.11-.11-.25-.2-.4-.27-.15-.07-.32-.1-.49-.1-.2,0-.37.04-.52.12-.15.08-.27.17-.36.26-.11.11-.21.24-.27.37h-.8l.4-3.65h3.35v.9h-2.54l-.16,1.5c.07-.06.16-.11.27-.17.09-.05.19-.09.32-.12s.26-.05.41-.05Z"></path>
      <path class=" st19_2086193464" d="M165.96,337.98c.15,0,.28.06.39.17s.16.26.16.43c0,.25-.04.47-.12.64s-.18.32-.28.43c-.12.13-.25.24-.4.32l-.15-.2c.07-.05.13-.11.19-.18.05-.06.1-.13.15-.22s.08-.19.11-.3c-.17,0-.32-.05-.43-.16-.11-.11-.17-.23-.17-.39s.05-.28.16-.39.24-.16.39-.16Z"></path>
      <path class=" st19_2086193464" d="M169.35,339.08c-.33,0-.62-.05-.88-.15-.26-.1-.49-.23-.68-.4-.19-.17-.33-.36-.44-.59-.1-.22-.16-.46-.16-.72,0-.3.05-.55.16-.76.1-.2.22-.37.35-.49.15-.15.31-.26.5-.35-.14-.09-.27-.19-.38-.31-.09-.11-.18-.24-.25-.39s-.11-.33-.11-.55c0-.23.05-.44.14-.65.09-.2.22-.38.39-.54s.37-.28.6-.37c.23-.09.49-.14.76-.14s.53.05.76.14c.23.09.43.22.6.37s.3.34.4.54c.09.2.14.42.14.65,0,.21-.04.4-.12.55-.08.15-.17.28-.26.39-.11.12-.24.23-.37.31.19.09.35.2.5.35.13.13.24.29.34.49.1.2.15.45.15.76,0,.25-.05.49-.15.72-.1.22-.25.42-.43.59-.19.17-.41.3-.68.4-.26.1-.56.15-.88.15ZM169.35,336.13c-.38,0-.68.1-.89.3-.21.2-.32.45-.32.75s.1.55.32.75c.21.2.51.3.89.3s.68-.1.89-.3c.21-.2.32-.45.32-.75s-.1-.55-.32-.75c-.21-.2-.5-.3-.89-.3ZM169.35,335.28c.28,0,.51-.08.68-.25s.26-.37.26-.6c0-.25-.09-.47-.26-.64s-.4-.26-.68-.26-.51.09-.69.26-.27.39-.27.64c0,.23.09.43.27.6s.41.25.69.25Z"></path>
    </g>
    <g>
      <path class=" st19_2086193464" d="M449.03,319.77v6.3h-.95v-5l-.85.55-.45-.75,1.6-1.1h.65Z"></path>
      <path class=" st19_2086193464" d="M454.16,319.77v.65l-2.6,5.65h-1l2.5-5.4h-2.85v-.9h3.95Z"></path>
      <path class=" st19_2086193464" d="M455.33,325.02c.15,0,.28.06.39.17s.16.26.16.43c0,.25-.04.47-.12.64-.08.18-.18.32-.28.43-.12.13-.25.24-.4.32l-.15-.2c.07-.05.13-.11.19-.18.05-.06.1-.13.15-.22s.08-.19.11-.3c-.17,0-.32-.05-.43-.16-.11-.11-.17-.23-.17-.39s.05-.28.16-.39.24-.16.39-.16Z"></path>
      <path class=" st19_2086193464" d="M460.71,325.17v.9h-4.05v-.7l2.5-2.7c.11-.12.21-.24.3-.37.08-.11.14-.24.21-.37.06-.13.1-.27.1-.41,0-.28-.1-.51-.29-.68-.19-.18-.46-.26-.81-.26-.33,0-.59.1-.8.3-.2.2-.31.47-.31.79h-.95c0-.29.05-.55.14-.79.1-.24.23-.45.41-.61.18-.17.39-.3.64-.4.25-.1.54-.14.85-.14s.6.05.85.14c.25.09.47.22.64.39.18.17.31.36.41.59.1.23.14.47.14.73,0,.2-.05.4-.14.6-.09.2-.2.38-.31.53-.13.18-.28.35-.45.52l-1.79,1.95h2.69Z"></path>
    </g>
    <g>
      <path class=" st19_2086193464" d="M327.74,211.16v.65l-2.6,5.65h-1l2.5-5.4h-2.85v-.9h3.95Z"></path>
      <path class=" st19_2086193464" d="M328.92,216.41c.15,0,.28.06.39.17s.16.26.16.43c0,.25-.04.47-.12.65-.08.18-.18.32-.28.43-.12.13-.25.24-.4.32l-.15-.2c.07-.04.13-.11.19-.18.05-.06.1-.13.15-.22s.08-.19.11-.3c-.17,0-.32-.05-.43-.16s-.17-.24-.17-.39.05-.28.16-.39.24-.16.39-.16Z"></path>
      <path class=" st19_2086193464" d="M332.35,217.51c-.31,0-.6-.05-.87-.16s-.5-.26-.7-.46c-.2-.2-.35-.43-.47-.69s-.17-.54-.17-.84c0-.19.03-.37.1-.56.06-.19.13-.35.21-.5.09-.17.19-.34.3-.49l1.75-2.65h1.05l-1.4,2.1s.07-.01.12-.02c.03,0,.07-.01.12-.02.05,0,.1,0,.15,0,.26,0,.51.05.76.16.24.11.45.26.64.46.18.2.33.43.44.69s.17.54.17.84-.06.58-.17.84-.27.49-.47.69c-.2.2-.43.35-.7.46s-.56.16-.87.16ZM331.1,215.36c0,.19.03.36.1.52.06.16.15.3.27.41s.25.2.4.27.32.1.49.1.33-.03.49-.1.29-.16.4-.27.2-.25.27-.41c.06-.16.1-.33.1-.52s-.03-.36-.1-.52c-.06-.16-.15-.3-.27-.41s-.25-.2-.4-.27-.32-.1-.49-.1-.33.03-.49.1-.29.16-.4.27-.2.25-.27.41c-.07.16-.1.34-.1.52Z"></path>
    </g>
    <g>
      <path class=" st19_2086193464" d="M324.81,313.17v.9h-4.05v-.7l2.5-2.7c.11-.12.21-.24.3-.37.08-.11.14-.24.21-.37.06-.13.1-.27.1-.41,0-.28-.1-.51-.29-.68-.19-.18-.46-.26-.81-.26-.33,0-.59.1-.8.3-.2.2-.31.47-.31.79h-.95c0-.29.05-.55.14-.79.1-.24.23-.45.41-.61.18-.17.39-.3.64-.4.25-.1.54-.14.85-.14s.6.05.85.14c.25.09.47.22.64.39.18.17.31.36.41.59.1.23.14.47.14.73,0,.2-.05.4-.14.6-.09.2-.2.38-.31.53-.13.18-.28.35-.45.52l-1.79,1.95h2.69Z"></path>
      <path class=" st19_2086193464" d="M330.64,310.92c0,.52-.07.97-.2,1.36-.13.4-.32.73-.55,1s-.5.48-.8.62-.62.21-.96.21-.66-.07-.96-.21c-.3-.14-.57-.35-.8-.62-.23-.27-.41-.61-.54-1-.13-.39-.2-.85-.2-1.36s.07-.97.2-1.37.32-.73.54-1c.23-.27.49-.48.79-.62s.62-.21.96-.21.66.07.96.21.56.35.8.62c.23.27.41.61.55,1s.2.85.2,1.37ZM329.69,310.92c0-.39-.05-.73-.13-1.02-.09-.29-.21-.54-.35-.73-.15-.2-.31-.35-.5-.45-.19-.1-.37-.15-.56-.15s-.37.05-.56.15c-.19.1-.35.25-.5.45-.15.2-.27.44-.36.73s-.14.63-.14,1.02.05.73.14,1.02.21.54.36.73c.15.2.31.35.5.45.19.1.37.15.56.15s.37-.05.56-.15c.19-.1.35-.25.5-.45.15-.2.27-.44.35-.73.09-.29.13-.63.13-1.02Z"></path>
      <path class=" st19_2086193464" d="M331.92,313.02c.15,0,.28.06.39.17s.16.26.16.43c0,.25-.04.47-.12.64-.08.18-.18.32-.28.43-.12.13-.25.24-.4.32l-.15-.2c.07-.05.13-.11.19-.18.05-.06.1-.13.15-.22s.08-.19.11-.3c-.17,0-.32-.05-.43-.16-.11-.11-.17-.23-.17-.39s.05-.28.16-.39.24-.16.39-.16Z"></path>
      <path class=" st19_2086193464" d="M335.35,314.12c-.31,0-.6-.05-.87-.16-.27-.11-.5-.26-.7-.46-.2-.2-.35-.42-.47-.69s-.17-.54-.17-.84c0-.19.03-.37.1-.56.06-.19.13-.35.21-.5.09-.17.19-.34.3-.49l1.75-2.65h1.05l-1.4,2.1s.07-.01.12-.02c.03,0,.07-.01.12-.02.05,0,.1-.01.15-.01.26,0,.51.05.76.16.24.11.45.26.64.46.18.2.33.42.44.69s.17.54.17.84-.06.58-.17.84-.27.49-.47.69c-.2.2-.43.35-.7.46-.27.11-.56.16-.87.16ZM334.1,311.97c0,.19.03.36.1.52.06.16.15.3.27.41.11.11.25.2.4.27.15.07.32.1.49.1s.33-.03.49-.1c.15-.07.29-.16.4-.27.11-.11.2-.25.27-.41.06-.16.1-.33.1-.52s-.03-.36-.1-.52c-.06-.16-.15-.3-.27-.41-.11-.11-.25-.2-.4-.27-.15-.07-.32-.1-.49-.1s-.33.03-.49.1c-.15.07-.29.16-.4.27-.11.11-.2.25-.27.41-.07.16-.1.33-.1.52Z"></path>
    </g>
    <g>
      <path class=" st19_2086193464" d="M394.07,358.18h-.7v1.25h-.95v-1.25h-2.8v-.8l2.65-4.25h1.1v4.15h.7v.9ZM392.42,357.28v-2.75l-1.7,2.75h1.7Z"></path>
      <path class=" st19_2086193464" d="M395.2,358.38c.15,0,.28.06.39.17s.16.26.16.43c0,.25-.04.47-.12.64-.08.18-.18.32-.28.43-.12.13-.25.24-.4.32l-.15-.2c.07-.05.13-.11.19-.18.05-.06.1-.13.15-.22s.08-.19.11-.3c-.17,0-.32-.05-.43-.16-.11-.11-.17-.23-.17-.39s.05-.28.16-.39.24-.16.39-.16Z"></path>
      <path class=" st19_2086193464" d="M398.58,359.48c-.33,0-.62-.05-.88-.15-.26-.1-.49-.23-.68-.4-.19-.17-.33-.36-.44-.59-.1-.22-.16-.46-.16-.72,0-.3.05-.55.16-.76.1-.2.22-.37.35-.49.15-.15.31-.26.5-.35-.14-.09-.27-.19-.38-.31-.1-.11-.18-.24-.25-.39s-.11-.33-.11-.55c0-.23.05-.44.14-.65.09-.2.22-.38.39-.54s.37-.28.61-.37c.23-.09.49-.14.76-.14s.53.05.76.14c.23.09.43.22.61.37.17.16.3.34.39.54.09.2.14.42.14.65,0,.21-.04.4-.12.55-.08.15-.17.28-.26.39-.11.12-.24.23-.37.31.19.09.35.2.5.35.13.13.24.29.34.49.1.2.15.45.15.76,0,.25-.05.49-.15.72-.1.22-.25.42-.43.59-.19.17-.41.3-.68.4s-.56.15-.88.15ZM398.58,356.53c-.38,0-.68.1-.89.3-.21.2-.31.45-.31.75s.11.55.31.75c.21.2.51.3.89.3s.68-.1.89-.3c.21-.2.31-.45.31-.75s-.11-.55-.31-.75c-.21-.2-.51-.3-.89-.3ZM398.58,355.68c.28,0,.51-.08.68-.25s.26-.37.26-.6c0-.25-.09-.47-.26-.64s-.4-.26-.68-.26-.51.09-.69.26c-.18.17-.27.39-.27.64,0,.23.09.43.27.6.18.17.41.25.69.25Z"></path>
    </g>
    <g>
      <path class=" st19_2086193464" d="M106.13,202.51c.01-.24.07-.47.17-.68s.24-.4.42-.55.39-.29.64-.38.52-.14.82-.14c.29,0,.55.05.79.14s.45.23.64.39.32.35.42.56.15.43.15.66-.04.42-.12.59-.18.3-.28.4c-.12.12-.25.22-.4.31.19.09.35.2.5.34.13.12.24.28.34.48s.15.44.15.73c0,.24-.05.47-.15.68s-.25.4-.43.57-.41.3-.68.4-.56.15-.88.15-.62-.05-.88-.14-.48-.22-.67-.38-.33-.34-.43-.55-.16-.44-.18-.68h.95c.01.11.05.22.11.33s.14.2.24.29.23.15.37.21.3.08.48.08c.38,0,.68-.1.89-.29s.32-.43.32-.71-.11-.52-.32-.71-.51-.29-.88-.29h-.45v-.85h.4c.33,0,.58-.09.77-.26s.28-.39.28-.64c0-.28-.09-.51-.28-.68s-.44-.26-.77-.26-.58.09-.78.26-.3.39-.33.64h-.95Z"></path>
      <path class=" st19_2086193464" d="M115.25,206.21v.9h-4.05v-.7l2.5-2.7c.11-.12.21-.24.3-.37.07-.11.14-.24.21-.37s.1-.27.1-.41c0-.28-.1-.51-.29-.68s-.46-.26-.81-.26c-.33,0-.59.1-.8.3s-.31.47-.31.79h-.95c0-.29.05-.55.14-.79s.23-.45.41-.62.39-.3.64-.4.54-.14.85-.14.6.05.85.14.47.22.64.39.31.36.41.59.14.47.14.73c0,.2-.05.4-.14.6s-.2.38-.31.53c-.13.18-.28.35-.45.52l-1.79,1.95h2.69Z"></path>
      <path class=" st19_2086193464" d="M116.58,206.06c.15,0,.28.06.39.17s.16.26.16.43c0,.25-.04.47-.12.65s-.18.32-.28.43c-.12.13-.25.24-.4.32l-.15-.2c.07-.04.13-.11.19-.18.05-.06.1-.13.15-.22s.08-.19.11-.3c-.17,0-.32-.05-.43-.16s-.17-.24-.17-.39.05-.28.16-.39.24-.16.39-.16Z"></path>
      <path class=" st19_2086193464" d="M121.81,200.81v.65l-2.6,5.65h-1l2.5-5.4h-2.85v-.9h3.95Z"></path>
    </g>
    <g>
      <path class=" st19_2086193464" d="M371.49,172.93v6.3h-.95v-5l-.85.55-.45-.75,1.6-1.1h.65Z"></path>
      <path class=" st19_2086193464" d="M374.92,174.99c.29,0,.56.05.82.16s.48.26.67.46c.19.2.34.43.45.69s.17.54.17.84-.06.58-.17.84-.27.49-.47.69c-.2.2-.43.35-.7.46s-.56.16-.87.16-.6-.05-.85-.14-.47-.22-.65-.38-.32-.34-.42-.55-.16-.44-.18-.68h.95c.01.11.05.22.11.33.06.11.14.2.24.29s.22.15.36.21.29.08.44.08c.17,0,.33-.03.49-.1s.29-.16.4-.27.2-.25.27-.41c.06-.16.1-.33.1-.52s-.03-.36-.1-.52c-.06-.16-.15-.3-.27-.41s-.25-.2-.4-.27-.32-.1-.49-.1c-.2,0-.37.04-.52.12-.15.08-.27.17-.36.26-.11.11-.2.24-.27.37h-.8l.4-3.65h3.35v.9h-2.54l-.16,1.5c.08-.06.16-.12.27-.17.09-.04.19-.09.32-.12.12-.04.26-.06.41-.06Z"></path>
      <path class=" st19_2086193464" d="M378.3,178.18c.15,0,.28.06.39.17s.16.26.16.43c0,.25-.04.47-.12.65-.08.18-.18.32-.28.43-.12.13-.25.24-.4.32l-.15-.2c.07-.04.13-.11.19-.18.05-.06.1-.13.15-.22s.08-.19.11-.3c-.17,0-.32-.05-.43-.16s-.17-.24-.17-.39.05-.28.16-.39.24-.16.39-.16Z"></path>
      <path class=" st19_2086193464" d="M379.58,174.63c.01-.24.07-.47.17-.68.1-.21.24-.4.42-.55.18-.16.39-.29.64-.38.24-.09.52-.14.82-.14.29,0,.55.05.79.14.24.1.45.23.64.39.18.16.32.35.42.56.1.21.15.43.15.66s-.04.42-.12.59c-.08.16-.18.3-.28.4-.12.12-.25.22-.4.31.19.09.35.2.5.34.13.12.24.28.34.48.1.2.15.44.15.73,0,.24-.05.47-.15.68-.1.21-.25.4-.43.57-.19.16-.41.3-.68.4s-.56.15-.88.15-.62-.05-.88-.14-.48-.22-.67-.38c-.18-.16-.33-.34-.43-.55-.1-.21-.16-.44-.18-.68h.95c.01.11.05.22.11.33.06.11.14.2.24.29.1.09.23.15.37.21.15.05.3.08.48.08.38,0,.68-.1.89-.29.21-.19.31-.43.31-.71s-.11-.52-.32-.71-.51-.29-.88-.29h-.45v-.85h.4c.33,0,.58-.09.77-.26.19-.17.28-.39.28-.64,0-.28-.09-.51-.28-.68-.19-.18-.44-.26-.77-.26s-.58.09-.78.26-.3.39-.33.64h-.95Z"></path>
      <path class=" st19_2086193464" d="M387.38,181.04h-.85l2.6-8.1h.85l-2.6,8.1Z"></path>
      <path class=" st19_2086193464" d="M396.99,177.98h-.7v1.25h-.95v-1.25h-2.8v-.8l2.65-4.25h1.1v4.15h.7v.9ZM395.34,177.09v-2.75l-1.7,2.75h1.7Z"></path>
      <path class=" st19_2086193464" d="M398.12,178.18c.15,0,.28.06.39.17s.16.26.16.43c0,.25-.04.47-.12.65-.08.18-.18.32-.28.43-.12.13-.25.24-.4.32l-.15-.2c.07-.04.13-.11.19-.18.05-.06.1-.13.15-.22s.08-.19.11-.3c-.17,0-.32-.05-.43-.16s-.17-.24-.17-.39.05-.28.16-.39.24-.16.39-.16Z"></path>
      <path class=" st19_2086193464" d="M401.55,179.28c-.31,0-.6-.05-.87-.16s-.5-.26-.7-.46c-.2-.2-.35-.43-.47-.69s-.17-.54-.17-.84c0-.19.03-.37.1-.56.06-.19.13-.35.21-.5.09-.17.19-.34.3-.49l1.75-2.65h1.05l-1.4,2.1s.07-.01.12-.02c.03,0,.07-.01.12-.02.05,0,.1,0,.15,0,.26,0,.51.05.76.16.24.11.45.26.64.46.18.2.33.43.44.69s.17.54.17.84-.06.58-.17.84-.27.49-.47.69c-.2.2-.43.35-.7.46s-.56.16-.87.16ZM400.3,177.13c0,.19.03.36.1.52.06.16.15.3.27.41s.25.2.4.27.32.1.49.1.33-.03.49-.1.29-.16.4-.27.2-.25.27-.41c.06-.16.1-.33.1-.52s-.03-.36-.1-.52c-.06-.16-.15-.3-.27-.41s-.25-.2-.4-.27-.32-.1-.49-.1-.33.03-.49.1-.29.16-.4.27-.2.25-.27.41c-.07.16-.1.34-.1.52Z"></path>
      <path class=" st19_2086193464" d="M405.33,174.53l-1-.25.2-.65.95.35-.05-1.05h.7l-.05,1.05.95-.35.2.65-1,.25.65.8-.6.4-.5-.85-.5.85-.6-.4.65-.8Z"></path>
    </g>
    <g>
      <path class=" st19_2086193464" d="M238.7,256.97v6.3h-.95v-5l-.85.55-.45-.75,1.6-1.1h.65Z"></path>
      <path class=" st19_2086193464" d="M241.98,256.97v6.3h-.95v-5l-.85.55-.45-.75,1.6-1.1h.65Z"></path>
      <path class=" st19_2086193464" d="M243.65,262.22c.15,0,.28.06.39.17s.16.26.16.43c0,.25-.04.47-.12.64s-.18.32-.28.43c-.12.13-.25.24-.4.32l-.15-.2c.07-.05.13-.11.19-.18.05-.06.1-.13.15-.22s.08-.19.11-.3c-.17,0-.32-.05-.43-.16s-.17-.23-.17-.39.05-.28.16-.39.24-.16.39-.16Z"></path>
      <path class=" st19_2086193464" d="M249.23,262.02h-.7v1.25h-.95v-1.25h-2.8v-.8l2.65-4.25h1.1v4.15h.7v.9ZM247.58,261.12v-2.75l-1.7,2.75h1.7Z"></path>
    </g>
    <g>
      <path class=" st19_2086193464" d="M194.78,256.97v6.3h-.95v-5l-.85.55-.45-.75,1.6-1.1h.65Z"></path>
      <path class=" st19_2086193464" d="M198.05,256.97v6.3h-.95v-5l-.85.55-.45-.75,1.6-1.1h.65Z"></path>
      <path class=" st19_2086193464" d="M199.73,262.22c.15,0,.28.06.39.17s.16.26.16.43c0,.25-.04.47-.12.64s-.18.32-.28.43c-.12.13-.25.24-.4.32l-.15-.2c.07-.05.13-.11.19-.18.05-.06.1-.13.15-.22s.08-.19.11-.3c-.17,0-.32-.05-.43-.16s-.17-.23-.17-.39.05-.28.16-.39.24-.16.39-.16Z"></path>
      <path class=" st19_2086193464" d="M205.31,262.02h-.7v1.25h-.95v-1.25h-2.8v-.8l2.65-4.25h1.1v4.15h.7v.9ZM203.66,261.12v-2.75l-1.7,2.75h1.7Z"></path>
    </g>
    <g>
      <path class=" st19_2086193464" d="M72.43,329.48v6.3h-.95v-5l-.85.55-.45-.75,1.6-1.1h.65Z"></path>
      <path class=" st19_2086193464" d="M78.61,332.63c0,.52-.07.97-.2,1.36-.13.4-.32.73-.55,1s-.5.48-.8.62-.62.21-.96.21-.66-.07-.96-.21-.57-.35-.8-.62-.41-.61-.54-1c-.13-.39-.2-.85-.2-1.36s.07-.97.2-1.37.32-.73.54-1,.49-.48.79-.62.62-.21.96-.21.66.07.96.21.57.35.8.62c.23.27.41.61.55,1s.2.85.2,1.37ZM77.66,332.63c0-.39-.04-.73-.13-1.02s-.21-.54-.35-.73c-.15-.2-.31-.35-.5-.45s-.37-.15-.56-.15-.37.05-.56.15c-.19.1-.35.25-.5.45-.15.2-.26.44-.36.73s-.14.63-.14,1.02.04.73.14,1.02.21.54.36.73c.15.2.31.35.5.45.19.1.37.15.56.15s.37-.05.56-.15c.19-.1.35-.25.5-.45.15-.2.26-.44.35-.73s.13-.63.13-1.02Z"></path>
      <path class=" st19_2086193464" d="M79.89,334.73c.15,0,.28.06.39.17s.16.26.16.43c0,.25-.04.47-.12.64s-.18.32-.28.43c-.12.13-.25.24-.4.32l-.15-.2c.07-.05.13-.11.19-.18.05-.06.1-.13.15-.22s.08-.19.11-.3c-.17,0-.32-.05-.43-.16-.11-.11-.17-.23-.17-.39s.05-.28.16-.39.24-.16.39-.16Z"></path>
      <path class=" st19_2086193464" d="M83.32,329.44c.31,0,.6.05.87.16.27.11.5.26.7.46.2.2.35.42.47.69s.17.54.17.84c0,.19-.03.38-.1.56s-.13.35-.21.49c-.09.17-.19.33-.3.49l-1.75,2.65h-1.05l1.4-2.1s-.07.02-.11.03c-.03,0-.07.01-.12.02s-.11,0-.16,0c-.26,0-.51-.05-.75-.16-.24-.11-.46-.26-.64-.46-.18-.2-.33-.42-.44-.69s-.17-.54-.17-.84.06-.58.17-.84.27-.49.47-.69c.2-.2.43-.35.7-.46.27-.11.56-.16.87-.16ZM84.57,331.58c0-.19-.03-.36-.1-.52-.06-.16-.15-.3-.27-.41-.11-.11-.25-.2-.4-.27-.15-.07-.32-.1-.49-.1s-.33.03-.49.1c-.15.07-.29.16-.4.27-.11.11-.2.25-.27.41s-.1.33-.1.52.03.36.1.52.15.3.27.41.25.2.4.27c.15.07.32.1.49.1s.33-.03.49-.1c.15-.07.29-.16.4-.27s.2-.25.27-.41.1-.33.1-.52Z"></path>
    </g>
    <g>
      <path class=" st19_2086193464" d="M364.94,282.03c.01-.24.07-.47.17-.68.1-.21.24-.39.42-.55.18-.16.39-.29.64-.38.24-.09.52-.14.82-.14.29,0,.55.05.79.14.24.1.45.23.64.39.18.16.32.35.42.56.1.21.15.43.15.66s-.04.42-.12.59c-.08.16-.18.3-.28.4-.12.12-.25.22-.4.31.19.09.35.2.5.34.13.12.24.28.34.48.1.2.15.44.15.73,0,.24-.05.47-.15.68-.1.21-.25.4-.43.57-.19.17-.41.3-.68.4s-.56.15-.88.15-.62-.05-.88-.14c-.26-.09-.48-.22-.67-.38-.18-.16-.33-.34-.43-.55-.1-.21-.16-.43-.18-.68h.95c.01.11.05.22.11.33.06.11.14.2.24.29.1.09.23.15.37.2.15.05.3.08.48.08.38,0,.68-.1.89-.29.21-.19.31-.43.31-.71s-.11-.52-.32-.71-.51-.29-.88-.29h-.45v-.85h.4c.33,0,.58-.09.77-.26.19-.17.28-.39.28-.64,0-.28-.09-.51-.28-.68-.19-.18-.44-.26-.77-.26s-.58.09-.78.26-.3.39-.33.64h-.95Z"></path>
      <path class=" st19_2086193464" d="M369.97,282.03c.01-.24.07-.47.17-.68.1-.21.24-.39.42-.55.18-.16.39-.29.64-.38.24-.09.52-.14.82-.14.29,0,.55.05.79.14.24.1.45.23.64.39.18.16.32.35.42.56.1.21.15.43.15.66s-.04.42-.12.59c-.08.16-.18.3-.28.4-.12.12-.25.22-.4.31.19.09.35.2.5.34.13.12.24.28.34.48.1.2.15.44.15.73,0,.24-.05.47-.15.68-.1.21-.25.4-.43.57-.19.17-.41.3-.68.4s-.56.15-.88.15-.62-.05-.88-.14c-.26-.09-.48-.22-.67-.38-.18-.16-.33-.34-.43-.55-.1-.21-.16-.43-.18-.68h.95c.01.11.05.22.11.33.06.11.14.2.24.29.1.09.23.15.37.2.15.05.3.08.48.08.38,0,.68-.1.89-.29.21-.19.31-.43.31-.71s-.11-.52-.32-.71-.51-.29-.88-.29h-.45v-.85h.4c.33,0,.58-.09.77-.26.19-.17.28-.39.28-.64,0-.28-.09-.51-.28-.68-.19-.18-.44-.26-.77-.26s-.58.09-.78.26-.3.39-.33.64h-.95Z"></path>
      <path class=" st19_2086193464" d="M375.49,285.58c.15,0,.28.06.39.17s.16.26.16.43c0,.25-.04.47-.12.64-.08.18-.18.32-.28.43-.12.13-.25.24-.4.32l-.15-.2c.07-.05.13-.11.19-.18.05-.06.1-.13.15-.22s.08-.19.11-.3c-.17,0-.32-.05-.43-.16-.11-.11-.17-.23-.17-.39s.05-.28.16-.39.24-.16.39-.16Z"></path>
      <path class=" st19_2086193464" d="M378.92,280.29c.31,0,.6.05.87.16s.5.26.7.46c.2.2.35.42.47.69s.17.54.17.84c0,.19-.03.38-.1.56-.06.18-.13.35-.21.49-.09.17-.19.33-.3.49l-1.75,2.65h-1.05l1.4-2.1s-.07.02-.11.03c-.03,0-.07.01-.12.02-.05,0-.1,0-.16,0-.26,0-.51-.05-.76-.16-.24-.11-.45-.26-.64-.46-.18-.2-.33-.42-.44-.69s-.17-.54-.17-.84.06-.58.17-.84.27-.49.47-.69c.2-.2.43-.35.7-.46s.56-.16.87-.16ZM380.17,282.43c0-.19-.03-.36-.1-.52-.06-.16-.15-.3-.27-.41-.11-.11-.25-.2-.4-.27-.15-.07-.32-.1-.49-.1s-.33.03-.49.1c-.15.07-.29.16-.4.27-.11.11-.2.25-.27.41-.06.16-.1.33-.1.52s.03.36.1.52c.06.16.15.3.27.41s.25.2.4.27c.15.07.32.1.49.1s.33-.03.49-.1c.15-.07.29-.16.4-.27s.2-.25.27-.41c.07-.16.1-.33.1-.52Z"></path>
    </g>
  </g>
</svg></svg>