<svg xmlns="http://www.w3.org/2000/svg" version="1.1" xmlns:xlink="http://www.w3.org/1999/xlink"><svg data-name="Слой_1" xmlns="http://www.w3.org/2000/svg" xmlns:xlink="http://www.w3.org/1999/xlink" version="1.1" viewBox="0 0 560 560">
  
  <defs>
    <style>
      .st0_1075076214, .st1_1075076214, .st2_1075076214, .st3_1075076214, .st4_1075076214, .st5_1075076214, .st6_1075076214 {
        fill: none;
      }

      .st1_1075076214, .st2_1075076214, .st3_1075076214, .st4_1075076214, .st5_1075076214, .st7_1075076214, .st8_1075076214, .st9_1075076214, .st10_1075076214, .st11_1075076214, .st12_1075076214, .st13_1075076214, .st14_1075076214, .st15_1075076214, .st16_1075076214, .st6_1075076214, .st17_1075076214, .st18_1075076214 {
        stroke-linecap: round;
        stroke-linejoin: round;
      }

      .st1_1075076214, .st5_1075076214, .st9_1075076214, .st11_1075076214, .st6_1075076214, .st17_1075076214, .st18_1075076214 {
        stroke-width: .5px;
      }

      .st1_1075076214, .st9_1075076214 {
        stroke: #d8cbb5;
      }

      .st2_1075076214 {
        stroke-width: .25px;
      }

      .st2_1075076214, .st3_1075076214, .st4_1075076214, .st5_1075076214, .st7_1075076214, .st8_1075076214, .st10_1075076214, .st11_1075076214, .st12_1075076214, .st13_1075076214, .st14_1075076214, .st15_1075076214, .st16_1075076214, .st6_1075076214, .st18_1075076214 {
        stroke: #1b4732;
      }

      .st3_1075076214 {
        stroke-width: .5px;
      }

      .st4_1075076214 {
        stroke-width: .5px;
      }

      .st7_1075076214 {
        stroke-width: .5px;
      }

      .st7_1075076214, .st8_1075076214 {
        fill: #fff;
      }

      .st8_1075076214 {
        stroke-width: .5px;
      }

      .st9_1075076214 {
        fill: url(#_Терраса);
      }

      .st19_1075076214 {
        fill: #1b4732;
      }

      .st10_1075076214 {
        stroke-width: .5px;
      }

      .st10_1075076214, .st11_1075076214, .st12_1075076214, .st13_1075076214, .st14_1075076214, .st15_1075076214, .st16_1075076214 {
        fill: #f5e8d1;
      }

      .st12_1075076214 {
        stroke-width: .5px;
      }

      .st13_1075076214 {
        stroke-width: .5px;
      }

      .st14_1075076214 {
        stroke-width: .5px;
      }

      .st15_1075076214 {
        stroke-width: .5px;
      }

      .st16_1075076214 {
        stroke-width: .5px;
      }

      .st6_1075076214 {
        stroke-dasharray: 3;
      }

      .st17_1075076214 {
        fill: #666c35;
        stroke: #666c35;
      }

      .st18_1075076214 {
        fill: #e1d1b6;
      }
    </style>
    <pattern data-name="Терраса" x="0" y="0" width="10.1" height="8.7" patternTransform="translate(-8 -15304) scale(1 -1)" patternUnits="userSpaceOnUse" viewBox="0 0 10.1 8.7">
      <g>
        <rect class=" st0_1075076214" width="10.1" height="8.7"></rect>
        <g>
          <rect class=" st0_1075076214" width="10.1" height="8.7"></rect>
          <g>
            <line class=" st1_1075076214" x1="10.15" y1="6.4" x2="20.15" y2="6.4"></line>
            <line class=" st1_1075076214" x1="10.15" y1="2.3" x2="20.15" y2="2.3"></line>
          </g>
          <g>
            <line class=" st1_1075076214" x1=".05" y1="6.4" x2="10.05" y2="6.4"></line>
            <line class=" st1_1075076214" x1=".05" y1="2.3" x2="10.05" y2="2.3"></line>
          </g>
          <g>
            <line class=" st1_1075076214" x1="-10.05" y1="6.4" x2="-.05" y2="6.4"></line>
            <line class=" st1_1075076214" x1="-10.05" y1="2.3" x2="-.05" y2="2.3"></line>
          </g>
        </g>
      </g>
    </pattern>
  </defs>
  <g>
    <line class=" st6_1075076214" x1="219.89" y1="295.43" x2="219.89" y2="203.55"></line>
    <line class=" st6_1075076214" x1="242.14" y1="295.43" x2="210.71" y2="295.43"></line>
  </g>
  <g>
    <path class=" st9_1075076214" d="M227,150.58h-127.37c-22.29,0-40.43,18.14-40.43,40.43h0s50.25.08,50.25.08v2.87h108.65v-2.87s37.31.09,49.77.04c-.17-22.39-18.44-40.55-40.87-40.55Z"></path>
  </g>
  <g>
    <rect class=" st5_1075076214" x="218.1" y="191.09" width="29.86" height="5.29"></rect>
    <rect class=" st5_1075076214" x="271.89" y="217.9" width="21.03" height="5.29"></rect>
    <rect class=" st5_1075076214" x="294.7" y="217.9" width="15.55" height="5.29"></rect>
    <rect class=" st5_1075076214" x="312.04" y="217.9" width="58.4" height="5.29"></rect>
    <rect class=" st5_1075076214" x="372.22" y="217.9" width="15.55" height="5.29"></rect>
    <rect class=" st5_1075076214" x="389.55" y="217.9" width="20.69" height="5.29"></rect>
    <rect class=" st5_1075076214" x="412.05" y="217.9" width="5.68" height="5.29"></rect>
    <rect class=" st5_1075076214" x="55.17" y="350.41" width="5.3" height="23.89"></rect>
    <rect class=" st5_1075076214" x="55.17" y="332.82" width="5.3" height="15.81"></rect>
    <rect class=" st5_1075076214" x="55.17" y="307.21" width="5.3" height="23.83"></rect>
    <rect class=" st5_1075076214" x="55.17" y="274.77" width="5.3" height="30.66"></rect>
    <polygon class=" st5_1075076214" points="79.41 191.09 79.41 196.38 60.47 196.38 60.47 272.97 55.17 272.97 55.17 191.09 79.41 191.09"></polygon>
    <rect class=" st5_1075076214" x="81.2" y="191.09" width="28.25" height="5.29"></rect>
    <rect class=" st5_1075076214" x="55.17" y="222.38" width="5.3" height="1.78"></rect>
    <rect class=" st5_1075076214" x="107.67" y="191.09" width="1.78" height="5.29"></rect>
    <rect class=" st5_1075076214" x="271.9" y="217.89" width="1.79" height="5.29"></rect>
    <rect class=" st5_1075076214" x="292.92" y="217.9" width="1.78" height="5.29"></rect>
    <rect class=" st5_1075076214" x="310.25" y="217.9" width="1.78" height="5.29"></rect>
    <rect class=" st5_1075076214" x="370.44" y="217.9" width="1.78" height="5.29"></rect>
    <polygon class=" st5_1075076214" points="417.73 217.88 417.73 218.77 412.05 218.77 412.05 217.9 389.55 217.9 389.55 223.18 387.77 223.18 387.77 217.9 353.12 217.9 353.12 217.88 417.73 217.88"></polygon>
    <rect class=" st5_1075076214" x="410.25" y="217.9" width="1.8" height="5.29"></rect>
    <rect class=" st5_1075076214" x="331.44" y="217.89" width="1.79" height="5.29"></rect>
    <rect class=" st5_1075076214" x="351.34" y="217.89" width="1.79" height="5.29"></rect>
    <rect class=" st5_1075076214" x="246.19" y="191.09" width="1.79" height="5.29"></rect>
    <rect class=" st5_1075076214" x="79.41" y="191.09" width="1.78" height="5.29"></rect>
    <rect class=" st5_1075076214" x="55.17" y="255.33" width="5.3" height="1.78"></rect>
    <rect class=" st5_1075076214" x="55.17" y="331.04" width="5.3" height="1.78"></rect>
    <rect class=" st5_1075076214" x="55.17" y="348.63" width="5.3" height="1.78"></rect>
    <rect class=" st5_1075076214" x="55.17" y="374.3" width="5.3" height="1.78"></rect>
    <rect class=" st5_1075076214" x="273.67" y="217.9" width="19.24" height=".89"></rect>
    <rect class=" st5_1075076214" x="294.7" y="217.9" width="15.55" height=".89"></rect>
    <rect class=" st5_1075076214" x="312.04" y="217.9" width="19.4" height=".89"></rect>
    <rect class=" st5_1075076214" x="333.22" y="217.89" width="18.11" height=".89"></rect>
    <rect class=" st5_1075076214" x="353.12" y="217.9" width="17.32" height=".88"></rect>
    <rect class=" st5_1075076214" x="372.22" y="217.9" width="15.55" height=".88"></rect>
    <rect class=" st5_1075076214" x="389.55" y="217.9" width="20.69" height=".88"></rect>
    <rect class=" st5_1075076214" x="81.2" y="191.09" width="26.47" height=".89"></rect>
    <rect class=" st5_1075076214" x="218.1" y="191.09" width="1.78" height="5.29"></rect>
    <rect class=" st5_1075076214" x="219.89" y="191.09" width="26.3" height=".89"></rect>
    <polygon class=" st5_1075076214" points="56.37 191.09 79.41 191.09 79.41 191.98 57.29 191.98 56.37 191.09"></polygon>
    <line class=" st5_1075076214" x1="61.6" y1="196.33" x2="56.45" y2="191.17"></line>
    <line class=" st5_1075076214" x1="55.19" y1="192.44" x2="60.34" y2="197.59"></line>
    <polygon class=" st5_1075076214" points="56.06 193.3 56.06 222.38 55.17 222.38 55.17 192.43 56.06 193.3"></polygon>
    <rect class=" st5_1075076214" x="473.65" y="146.57" width="31.63" height="5.36"></rect>
    <rect class=" st5_1075076214" x="456.02" y="146.57" width="15.83" height="5.36"></rect>
    <path class=" st5_1075076214" d="M434.46,157.77c-5.6,3.5-10.24,8.32-13.39,14.11l-5.32-3c8.04-14.79,20.44-22,38.48-22.29v5.34c-6.61.13-12.83,1.91-18.22,4.93l-1.54.91Z"></path>
    <path class=" st5_1075076214" d="M411.13,188.78c.24-6.21,1.19-12.85,3.81-18.12l5.28,2.88c-2.36,4.85-3.73,9.57-3.79,15.31l-5.3-.07Z"></path>
    <path class=" st5_1075076214" d="M431.29,152.27l1.57-.86.56.95,2.58,4.5c-.51.29-1.04.59-1.54.91l-2.6-4.5-.58-1Z"></path>
    <path class=" st5_1075076214" d="M431.86,153.27c-6.33,3.88-11.58,9.65-15.11,16.18"></path>
    <path class=" st5_1075076214" d="M433.5,152.49c6.04-3.36,13.26-4.65,20.73-4.77"></path>
    <line class=" st5_1075076214" x1="473.65" y1="147.72" x2="505.29" y2="147.72"></line>
    <polyline class=" st5_1075076214" points="471.86 147.72 462.82 147.72 456.02 147.72"></polyline>
    <path class=" st5_1075076214" d="M454.23,151.93v-5.34c.24-.02,1.8-.02,1.8-.02v5.36h-1.8Z"></path>
    <rect class=" st5_1075076214" x="471.86" y="146.57" width="1.8" height="5.36"></rect>
    <rect class=" st5_1075076214" x="471.86" y="151.93" width="1.8" height=".02"></rect>
    <rect class=" st5_1075076214" x="505.29" y="146.57" width="1.8" height="5.36"></rect>
    <path class=" st5_1075076214" d="M411.08,190.58c0-.6.02-1.19.05-1.8l5.3.07-.02.86c-.02.18,0,.67,0,.86h-5.33Z"></path>
    <path class=" st5_1075076214" d="M416.43,190.14h-.02c0-.19,0-.38.02-.56v.56Z"></path>
    <path class=" st5_1075076214" d="M414.94,170.67c.13-.4.81-1.79.81-1.79l5.32,3c-.27.46-.85,1.66-.85,1.66l-5.28-2.88Z"></path>
    <path class=" st5_1075076214" d="M415.94,171.21c-2.52,5.13-3.51,11.49-3.77,17.57"></path>
  </g>
  <g>
    <rect class=" st7_1075076214" x="294.53" y="225.1" width="15.94" height=".64" transform="translate(-48.03 85.97) rotate(-15)"></rect>
    <rect class=" st7_1075076214" x="379.5" y="217.59" width=".64" height="15.94" transform="translate(63.64 534.06) rotate(-75)"></rect>
    <rect class=" st8_1075076214" x="54.86" y="265.03" width="15.94" height=".64" transform="translate(-209.74 257.37) rotate(-75)"></rect>
    <rect class=" st8_1075076214" x="62.52" y="332.49" width=".64" height="15.94" transform="translate(-85.97 27.86) rotate(-15)"></rect>
    <rect class=" st7_1075076214" x="463.2" y="146.32" width=".64" height="15.94" transform="translate(194.52 562.08) rotate(-75)"></rect>
  </g>
  <g>
    <path class=" st2_1075076214" d="M454.24,159.49c-16.61,0-30.08,13.34-30.08,29.79v1.26h-7.73v-1.26c-.49-18.7,16.18-36.37,37.81-37.29h55.12v7.5h-55.12ZM496.68,151.93v7.49M492.45,151.93v7.49M488.23,151.93v7.49M484.01,151.93v7.49M505.13,151.93v7.49M500.9,151.93v7.49M479.78,151.93v7.49M475.56,151.93v7.49M471.33,151.93v7.49M467.11,151.93v7.49M462.88,151.93v7.49M458.66,151.93v7.49M454.43,151.93v7.49M449.79,152.27l.88,7.37M445.21,153.25l1.77,7.07M440.8,154.74l2.61,6.7M436.6,156.71l3.39,6.24M432.61,159.07l4.2,5.87M429.02,162l4.87,5.27M425.78,165.29l5.5,4.64M422.99,168.97l6.04,3.93M420.4,172.83l6.78,3.3M418.59,177.12l7.15,2.44M417.32,181.6l7.4,1.54M416.66,186.2l7.53.61M68.32,203.58l-7.69-7.2,193.58-.03v7.2s-185.89.03-185.89.03ZM68.4,203.46v-7M64.45,200.21v-3.76M72.83,203.56v-7.19M77.18,203.56v-7.19M81.53,203.56v-7.19M85.88,203.56v-7.19M90.23,203.56v-7.19M94.58,203.56v-7.19M98.93,203.56v-7.19M103.28,203.56v-7.19M107.63,203.56v-7.19M111.97,203.56v-7.19M116.32,203.56v-7.19M120.67,203.56v-7.19M125.02,203.56v-7.19M129.37,203.56v-7.19M133.72,203.56v-7.19M138.07,203.56v-7.19M142.42,203.55v-7.19M146.49,203.55v-7.19M150.55,203.55v-7.19M154.62,203.55v-7.19M158.68,203.55v-7.19M162.75,203.55v-7.19M166.82,203.55v-7.19M170.88,203.55v-7.19M174.95,203.55v-7.19M179.01,203.55v-7.19M183.08,203.55v-7.19M187.15,203.55v-7.19M191.29,203.55v-7.19M195.44,203.55v-7.19M199.59,203.55v-7.19M203.8,203.55v-7.19M208.02,203.55v-7.19M212.23,203.55v-7.19M216.45,203.55v-7.19M220.66,203.55v-7.19M224.88,203.55v-7.19M229.43,203.55v-7.19M234.06,203.55v-7.19M238.19,203.55v-7.19M242.75,203.55v-7.19M247.37,203.55v-7.19M251.51,203.55v-7.19M67.83,203.54v97.76h-7.2v-104.92M64.45,200.21h-3.74M67.75,204.17h-7.04M60.62,208.61h7.23M60.62,212.96h7.23M60.62,217.23h7.23M60.62,221.5h7.23M60.62,225.77h7.23M60.62,230.04h7.23M60.62,234.3h7.23M60.62,238.57h7.23M60.62,242.84h7.23M60.62,247.11h7.23M60.62,251.38h7.23M60.62,255.65h7.23M60.62,259.92h7.23M60.62,264.19h7.23M60.62,268.46h7.23M60.62,272.73h7.23M60.62,277h7.23M60.62,281.27h7.23M60.62,285.54h7.23M60.62,289.8h7.23M60.62,294.07h7.23M60.62,298.34h7.23M67.77,375.2h-7.22v-64.02h7.22v64.02ZM60.63,314.97h7.06M60.63,318.76h7.06M60.63,322.55h7.06M60.63,326.35h7.06M60.63,330.14h7.06M60.63,333.93h7.06M60.63,337.72h7.06M60.63,341.52h7.06M60.63,345.31h7.06M60.63,349.1h7.06M60.63,352.89h7.06M60.63,356.68h7.06M60.63,360.48h7.06M60.63,364.27h7.06M60.63,368.06h7.06M60.63,371.85h7.06M330.04,230.23v-7.06M326.28,230.23v-7.06M322.52,230.23v-7.06M318.77,230.23v-7.06M315.01,230.23v-7.06M311.25,230.23v-7.06M307.5,230.23v-7.06M303.74,230.23v-7.06M299.98,230.23v-7.06M296.23,230.23v-7.06M292.47,230.23v-7.06M288.71,230.23v-7.06M284.96,230.23v-7.06M281.2,230.23v-7.06M277.45,230.23v-7.06M273.69,230.23v-7.06M337.86,223.17h-68.06v7.22h68.06v-7.22ZM334.03,230.31v-7.06M348.36,230.23v-7.06M352.12,230.23v-7.06M355.88,230.23v-7.06M359.63,230.23v-7.06M363.39,230.23v-7.06M367.14,230.23v-7.06M370.9,230.23v-7.06M374.66,230.23v-7.06M378.41,230.23v-7.06M382.17,230.23v-7.06M385.93,230.23v-7.06M389.68,230.23v-7.06M393.44,230.23v-7.06M397.2,230.23v-7.06M400.95,230.23v-7.06M404.71,230.23v-7.06M408.47,230.23v-7.06M412.45,223.17h-67.82v7.22h67.82v-7.22Z"></path>
  </g>
  <g>
    <g>
      <rect class=" st11_1075076214" x="205.42" y="162.8" width="29.47" height="15.15"></rect>
      <g>
        <path class=" st11_1075076214" d="M232.18,183.4v-5.45h-8.37v5.45c0,1.1.9,2,2,2h4.37c1.11,0,2-.9,2-2Z"></path>
        <path class=" st11_1075076214" d="M232.18,181.36v-3.41h-8.37v3.41c0,1.1.9,2,2,2h4.37c1.11,0,2-.9,2-2Z"></path>
      </g>
      <g>
        <path class=" st11_1075076214" d="M216.73,183.4v-5.45h-8.37v5.45c0,1.1.9,2,2,2h4.37c1.1,0,2-.9,2-2Z"></path>
        <path class=" st11_1075076214" d="M216.73,181.36v-3.41h-8.37v3.41c0,1.1.9,2,2,2h4.37c1.1,0,2-.9,2-2Z"></path>
      </g>
      <g>
        <path class=" st11_1075076214" d="M208.36,157.35v5.45h8.37v-5.45c0-1.1-.9-2-2-2h-4.37c-1.1,0-2,.9-2,2Z"></path>
        <path class=" st11_1075076214" d="M208.36,159.38v3.41h8.37v-3.41c0-1.1-.9-2-2-2h-4.37c-1.1,0-2,.9-2,2Z"></path>
      </g>
      <g>
        <path class=" st11_1075076214" d="M223.8,157.35v5.45h8.37v-5.45c0-1.1-.9-2-2-2h-4.37c-1.1,0-2,.9-2,2Z"></path>
        <path class=" st11_1075076214" d="M223.8,159.38v3.41h8.37v-3.41c0-1.1-.9-2-2-2h-4.37c-1.1,0-2,.9-2,2Z"></path>
      </g>
    </g>
    <g>
      <rect class=" st11_1075076214" x="198.69" y="222.16" width="22.5" height="45.62"></rect>
      <g>
        <path class=" st11_1075076214" d="M191.31,265.23h7.38v-10.55h-7.38c-1.1,0-2,.9-2,2v6.55c0,1.11.9,2,2,2Z"></path>
        <path class=" st11_1075076214" d="M193.87,265.23h4.82v-10.55h-4.82c-1.1,0-2,.9-2,2v6.55c0,1.11.9,2,2,2Z"></path>
      </g>
      <g>
        <path class=" st11_1075076214" d="M191.31,250.51h7.38v-10.55h-7.38c-1.1,0-2,.9-2,2v6.55c0,1.1.9,2,2,2Z"></path>
        <path class=" st11_1075076214" d="M193.87,250.51h4.82v-10.55h-4.82c-1.1,0-2,.9-2,2v6.55c0,1.1.9,2,2,2Z"></path>
      </g>
      <g>
        <path class=" st11_1075076214" d="M191.31,235.92h7.38v-10.55h-7.38c-1.1,0-2,.9-2,2v6.55c0,1.1.9,2,2,2Z"></path>
        <path class=" st11_1075076214" d="M193.87,235.92h4.82v-10.55h-4.82c-1.1,0-2,.9-2,2v6.55c0,1.1.9,2,2,2Z"></path>
      </g>
      <g>
        <path class=" st11_1075076214" d="M228.57,265.23h-7.38v-10.55h7.38c1.1,0,2,.9,2,2v6.55c0,1.11-.9,2-2,2Z"></path>
        <path class=" st11_1075076214" d="M226.01,265.23h-4.82v-10.55h4.82c1.1,0,2,.9,2,2v6.55c0,1.11-.9,2-2,2Z"></path>
      </g>
      <g>
        <path class=" st11_1075076214" d="M228.57,250.51h-7.38v-10.55h7.38c1.1,0,2,.9,2,2v6.55c0,1.1-.9,2-2,2Z"></path>
        <path class=" st11_1075076214" d="M226.01,250.51h-4.82v-10.55h4.82c1.1,0,2,.9,2,2v6.55c0,1.1-.9,2-2,2Z"></path>
      </g>
      <g>
        <path class=" st11_1075076214" d="M228.57,235.92h-7.38v-10.55h7.38c1.1,0,2,.9,2,2v6.55c0,1.1-.9,2-2,2Z"></path>
        <path class=" st11_1075076214" d="M226.01,235.92h-4.82v-10.55h4.82c1.1,0,2,.9,2,2v6.55c0,1.1-.9,2-2,2Z"></path>
      </g>
    </g>
    <circle class=" st11_1075076214" cx="107.58" cy="162.35" r="6.85"></circle>
    <g>
      <path class=" st11_1075076214" d="M92.41,182.06c-.11.1-.2.21-.31.31-5.31,4.81-13.51,4.4-18.31-.91-4.81-5.31-4.4-13.51.91-18.31.11-.1.23-.18.34-.28l17.37,19.19Z"></path>
      <circle class=" st11_1075076214" cx="83.72" cy="172.46" r="9.95"></circle>
      <path class=" st11_1075076214" d="M72.43,174.93l7.72,8.52c.18.21.5.22.71.04l3.83-3.47c.21-.18.22-.5.04-.71l-7.72-8.52c-.18-.21-.5-.22-.71-.04l-3.83,3.47c-.21.18-.22.5-.04.71Z"></path>
    </g>
    <g>
      <path class=" st11_1075076214" d="M120.89,181.45c.1.11.18.23.28.34,4.81,5.31,13.01,5.72,18.31.91,5.31-4.81,5.72-13.01.91-18.31-.1-.11-.21-.21-.31-.31l-19.19,17.37Z"></path>
      <circle class=" st11_1075076214" cx="130.48" cy="172.76" r="9.95"></circle>
      <path class=" st11_1075076214" d="M141.48,176.34l-8.52,7.72c-.21.18-.52.17-.71-.04l-3.47-3.83c-.18-.21-.17-.52.04-.71l8.52-7.72c.21-.18.52-.17.71.04l3.47,3.83c.18.2.17.52-.04.71Z"></path>
    </g>
    <g>
      <g>
        <rect class=" st11_1075076214" x="424.63" y="192.97" width="1" height="24.27"></rect>
        <rect class=" st11_1075076214" x="423.87" y="203.46" width=".76" height="3.28"></rect>
      </g>
      <polyline class=" st5_1075076214" points="427.72 210.33 425.63 205.09 427.72 199.85"></polyline>
    </g>
    <rect class=" st11_1075076214" x="481.88" y="352.96" width=".84" height="24.46"></rect>
    <rect class=" st15_1075076214" x="451.92" y="352.96" width="15.83" height=".84"></rect>
    <rect class=" st16_1075076214" x="476.18" y="341.2" width=".84" height="14.13" transform="translate(-106.67 439.01) rotate(-45)"></rect>
    <rect class=" st14_1075076214" x="496.85" y="352.96" width="15.45" height=".84"></rect>
    <rect class=" st16_1075076214" x="480.95" y="347.84" width="14.13" height=".84" transform="translate(-103.32 447.08) rotate(-45)"></rect>
    <rect class=" st11_1075076214" x="500.85" y="320.32" width="11.44" height="30.93"></rect>
    <g>
      <path class=" st11_1075076214" d="M503.02,348.83h5.85v-11.69h-5.85c-.55,0-1,.45-1,1v9.69c0,.55.45,1,1,1Z"></path>
      <rect class=" st11_1075076214" x="508.88" y="337.14" width=".9" height="11.69"></rect>
      <rect class=" st11_1075076214" x="507.69" y="342.42" width="3.43" height="1.12"></rect>
      <circle class=" st11_1075076214" cx="505.87" cy="342.98" r=".8"></circle>
    </g>
    <g>
      <path class=" st11_1075076214" d="M503.02,333.32h5.85v-11.69h-5.85c-.55,0-1,.45-1,1v9.69c0,.55.45,1,1,1Z"></path>
      <rect class=" st11_1075076214" x="508.88" y="321.63" width=".9" height="11.69"></rect>
      <rect class=" st11_1075076214" x="507.69" y="326.92" width="3.43" height="1.12"></rect>
      <circle class=" st11_1075076214" cx="505.87" cy="327.48" r=".8"></circle>
    </g>
    <g>
      <path class=" st11_1075076214" d="M464.43,364.28h5.76c.83,0,1.5.67,1.5,1.5v9.08h-8.76v-9.08c0-.83.67-1.5,1.5-1.5Z"></path>
      <rect class=" st11_1075076214" x="462.93" y="374.86" width="8.76" height="2.55"></rect>
    </g>
    <g>
      <path class=" st11_1075076214" d="M493.67,377.42v-2.09c0-.28.22-.5.5-.5h5.03c.28,0,.5.22.5.5v2.09h-6.03Z"></path>
      <rect class=" st12_1075076214" x="494.02" y="373.73" width="1.81" height="1.1"></rect>
      <ellipse class=" st11_1075076214" cx="496.69" cy="367.35" rx="2.8" ry="2.82"></ellipse>
      <line class=" st5_1075076214" x1="496.69" y1="377.42" x2="496.69" y2="367.35"></line>
    </g>
    <g>
      <rect class=" st11_1075076214" x="500.64" y="172.4" width="9.78" height="12.07"></rect>
      <rect class=" st11_1075076214" x="499.33" y="172.4" width="1.31" height="12.07"></rect>
      <rect class=" st11_1075076214" x="500.64" y="223.39" width="9.78" height="12.07"></rect>
      <rect class=" st11_1075076214" x="499.33" y="223.39" width="1.31" height="12.07"></rect>
      <rect class=" st11_1075076214" x="508.18" y="184.47" width="2.24" height="38.92"></rect>
      <rect class=" st11_1075076214" x="495.94" y="184.47" width="12.25" height="38.93"></rect>
      <rect class=" st11_1075076214" x="497.63" y="186.87" width="8.78" height="16.12"></rect>
      <rect class=" st11_1075076214" x="497.63" y="204.9" width="8.78" height="16.09"></rect>
      <polygon class=" st11_1075076214" points="501.03 207.11 493.63 191.34 495.04 188.22 495.94 184.47 465.7 184.47 465.7 223.4 501.03 223.4 501.03 207.11"></polygon>
      <polygon class=" st11_1075076214" points="495.94 184.47 495.04 188.22 493.63 191.34 501.03 207.11 501.03 204.32 495.94 184.47"></polygon>
    </g>
    <g>
      <path class=" st11_1075076214" d="M488.12,298.77s-.03,1.28.15,1.87c.38,1.26,1.52,2.39,1.52,2.39l1.52,2.24-30.07.38,2.66-2.96s1.16-.48,1.71-1.99c.16-.45.27-1.92.27-1.92h22.23Z"></path>
      <path class=" st11_1075076214" d="M461.36,302.49h29.85c2.24,0,4.08,1.84,4.08,4.08v8.74c0,2.24-1.84,4.08-4.08,4.08h-29.85c-2.24,0-4.08-1.84-4.08-4.08v-8.74c0-2.24,1.84-4.08,4.08-4.08Z"></path>
      <ellipse class=" st11_1075076214" cx="476.28" cy="310.94" rx="15.03" ry="5.29"></ellipse>
      <circle class=" st11_1075076214" cx="476.28" cy="310.94" r="1.03"></circle>
    </g>
    <polygon class=" st11_1075076214" points="280.8 374.29 283.57 374.29 283.57 364.51 277.73 364.51 277.73 378.4 280.8 378.4 280.8 374.29"></polygon>
    <rect class=" st11_1075076214" x="385.65" y="345.54" width=".84" height="17.99"></rect>
    <rect class=" st11_1075076214" x="267.57" y="223.17" width="72.52" height="9.2"></rect>
    <g>
      <path class=" st11_1075076214" d="M278.76,232.37v6.96c0,1.1.89,2,2,2h8.39c1.11,0,2-.9,2-2v-6.96h-12.39Z"></path>
      <path class=" st11_1075076214" d="M278.76,232.37v4.51c0,1.1.89,2,2,2h8.39c1.11,0,2-.9,2-2v-4.51h-12.39Z"></path>
    </g>
    <g>
      <rect class=" st11_1075076214" x="263.75" y="364.5" width="13.98" height="13.9"></rect>
      <rect class=" st11_1075076214" x="272.62" y="366.26" width="3.24" height="2.31"></rect>
      <rect class=" st11_1075076214" x="265.82" y="363.28" width="10.04" height="1.23"></rect>
    </g>
    <rect class=" st11_1075076214" x="144.57" y="337.13" width="11.77" height="25.93"></rect>
    <g>
      <path class=" st11_1075076214" d="M154,343.46h-5.85v11.69h5.85c.55,0,1-.45,1-1v-9.69c0-.55-.45-1-1-1Z"></path>
      <rect class=" st11_1075076214" x="147.25" y="343.46" width=".9" height="11.69"></rect>
      <rect class=" st11_1075076214" x="145.9" y="348.74" width="3.43" height="1.12"></rect>
      <circle class=" st11_1075076214" cx="151.16" cy="349.3" r=".8"></circle>
    </g>
    <rect class=" st11_1075076214" x="367.12" y="352.35" width="15.95" height="11.18"></rect>
    <g>
      <path class=" st11_1075076214" d="M369.37,354.95v5.85h11.69v-5.85c0-.55-.45-1-1-1h-9.69c-.55,0-1,.45-1,1Z"></path>
      <rect class=" st10_1075076214" x="369.37" y="360.8" width="11.69" height=".9"></rect>
      <rect class=" st10_1075076214" x="374.65" y="359.62" width="1.12" height="3.43"></rect>
      <circle class=" st11_1075076214" cx="375.21" cy="357.79" r=".8"></circle>
    </g>
    <rect class=" st11_1075076214" x="301.5" y="352.35" width="15.95" height="11.18"></rect>
    <g>
      <path class=" st11_1075076214" d="M303.74,354.95v5.85h11.69v-5.85c0-.55-.45-1-1-1h-9.69c-.55,0-1,.45-1,1Z"></path>
      <rect class=" st10_1075076214" x="303.74" y="360.8" width="11.69" height=".9"></rect>
      <rect class=" st10_1075076214" x="309.02" y="359.62" width="1.12" height="3.43"></rect>
      <circle class=" st11_1075076214" cx="309.58" cy="357.79" r=".8"></circle>
    </g>
    <g>
      <path class=" st11_1075076214" d="M180.75,353.09v-5.76c0-.83.67-1.5,1.5-1.5h9.08v8.76h-9.08c-.83,0-1.5-.67-1.5-1.5Z"></path>
      <rect class=" st11_1075076214" x="191.34" y="345.84" width="2.55" height="8.76"></rect>
    </g>
    <g>
      <path class=" st11_1075076214" d="M351.05,350.39h5.76c.83,0,1.5.67,1.5,1.5v9.08h-8.76v-9.08c0-.83.67-1.5,1.5-1.5Z"></path>
      <rect class=" st11_1075076214" x="349.54" y="360.98" width="8.76" height="2.55"></rect>
    </g>
    <g>
      <path class=" st11_1075076214" d="M327.48,350.39h5.76c.83,0,1.5.67,1.5,1.5v9.08h-8.76v-9.08c0-.83.67-1.5,1.5-1.5Z"></path>
      <rect class=" st11_1075076214" x="325.98" y="360.98" width="8.76" height="2.55"></rect>
    </g>
    <g>
      <path class=" st11_1075076214" d="M393.98,363.53v-2.09c0-.28.22-.5.5-.5h5.03c.28,0,.5.22.5.5v2.09h-6.03Z"></path>
      <rect class=" st12_1075076214" x="394.33" y="359.84" width="1.81" height="1.1"></rect>
      <ellipse class=" st11_1075076214" cx="397" cy="353.47" rx="2.8" ry="2.82"></ellipse>
      <line class=" st5_1075076214" x1="397" y1="363.53" x2="397" y2="353.47"></line>
    </g>
    <g>
      <g>
        <rect class=" st11_1075076214" x="144.58" y="363.06" width="49.31" height="17.42"></rect>
        <path class=" st11_1075076214" d="M148.32,364.3h34.58c1.92,0,3.48,1.56,3.48,3.48v7.44c0,1.92-1.56,3.48-3.48,3.48h-34.58c-1.1,0-1.99-.89-1.99-1.99v-10.42c0-1.1.89-1.99,1.99-1.99Z"></path>
        <path class=" st11_1075076214" d="M144.82,374.97h2.12c.28,0,.5-.22.5-.5v-5.32c0-.28-.22-.5-.5-.5h-2.12v6.32Z"></path>
        <rect class=" st11_1075076214" x="147.44" y="372.7" width="1.11" height="1.89"></rect>
        <ellipse class=" st11_1075076214" cx="154.99" cy="371.8" rx="2.84" ry="2.94"></ellipse>
      </g>
      <line class=" st5_1075076214" x1="144.58" y1="371.8" x2="154.99" y2="371.8"></line>
    </g>
    <g>
      <rect class=" st11_1075076214" x="77.84" y="367.98" width="12.35" height="9.92"></rect>
      <rect class=" st11_1075076214" x="77.84" y="366.65" width="12.35" height="1.33"></rect>
      <rect class=" st11_1075076214" x="130.01" y="367.98" width="12.35" height="9.92"></rect>
      <rect class=" st11_1075076214" x="130.01" y="366.65" width="12.35" height="1.33"></rect>
      <rect class=" st11_1075076214" x="90.19" y="375.63" width="39.82" height="2.27"></rect>
      <rect class=" st11_1075076214" x="90.19" y="363.21" width="39.83" height="12.42"></rect>
      <rect class=" st11_1075076214" x="92.64" y="364.93" width="16.49" height="8.9"></rect>
      <rect class=" st11_1075076214" x="111.1" y="364.93" width="16.46" height="8.9"></rect>
      <polygon class=" st11_1075076214" points="113.35 368.37 97.21 360.87 94.03 362.3 90.19 363.21 90.19 332.54 130.01 332.54 130.01 368.37 113.35 368.37"></polygon>
      <polygon class=" st11_1075076214" points="90.19 363.21 94.03 362.3 97.21 360.87 113.35 368.37 110.5 368.37 90.19 363.21"></polygon>
    </g>
    <g>
      <rect class=" st11_1075076214" x="259.4" y="270.79" width="9.97" height="8.65"></rect>
      <rect class=" st11_1075076214" x="269.37" y="270.79" width="1.33" height="8.65"></rect>
      <rect class=" st11_1075076214" x="259.4" y="246.9" width="2.28" height="23.89"></rect>
      <rect class=" st11_1075076214" x="261.68" y="246.89" width="12.48" height="23.89"></rect>
      <rect class=" st11_1075076214" x="263.48" y="259.42" width="8.95" height="9.89"></rect>
      <rect class=" st11_1075076214" x="263.48" y="248.37" width="8.95" height="9.88"></rect>
      <polygon class=" st11_1075076214" points="268.97 256.89 276.51 266.57 275.07 268.49 274.16 270.79 304.98 270.79 304.98 246.9 268.97 246.9 268.97 256.89"></polygon>
      <polygon class=" st11_1075076214" points="274.16 270.79 275.07 268.49 276.51 266.57 268.97 256.89 268.97 258.6 274.16 270.79"></polygon>
    </g>
    <rect class=" st11_1075076214" x="342.39" y="223.17" width="72.29" height="9.2"></rect>
    <g>
      <path class=" st11_1075076214" d="M403.5,232.37v6.96c0,1.1-.89,2-2,2h-8.39c-1.11,0-2-.9-2-2v-6.96h12.39Z"></path>
      <path class=" st11_1075076214" d="M403.5,232.37v4.51c0,1.1-.89,2-2,2h-8.39c-1.11,0-2-.9-2-2v-4.51h12.39Z"></path>
    </g>
    <g>
      <rect class=" st11_1075076214" x="411.6" y="270.79" width="9.97" height="8.65"></rect>
      <rect class=" st11_1075076214" x="410.27" y="270.79" width="1.33" height="8.65"></rect>
      <rect class=" st11_1075076214" x="419.29" y="246.9" width="2.28" height="23.89"></rect>
      <rect class=" st11_1075076214" x="406.81" y="246.89" width="12.48" height="23.89"></rect>
      <rect class=" st11_1075076214" x="408.54" y="259.42" width="8.95" height="9.89"></rect>
      <rect class=" st11_1075076214" x="408.54" y="248.37" width="8.95" height="9.88"></rect>
      <polygon class=" st11_1075076214" points="412 256.89 404.46 266.57 405.9 268.49 406.81 270.79 375.99 270.79 375.99 246.9 412 246.9 412 256.89"></polygon>
      <polygon class=" st11_1075076214" points="406.81 270.79 405.9 268.49 404.46 266.57 412 256.89 412 258.6 406.81 270.79"></polygon>
    </g>
    <rect class=" st11_1075076214" x="69.64" y="308.19" width="72.08" height="4.85"></rect>
    <rect class=" st11_1075076214" x="69.62" y="295.43" width="72.11" height="9.02"></rect>
    <g>
      <g>
        <rect class=" st11_1075076214" x="343.11" y="246.67" width=".94" height="22.86"></rect>
        <rect class=" st11_1075076214" x="342.39" y="256.55" width=".71" height="3.09"></rect>
      </g>
      <polyline class=" st5_1075076214" points="346.02 263.02 344.05 258.08 346.02 253.15"></polyline>
    </g>
    <g>
      <g>
        <rect class=" st12_1075076214" x="338.43" y="246.67" width=".94" height="22.86"></rect>
        <rect class=" st12_1075076214" x="339.38" y="256.55" width=".71" height="3.09"></rect>
      </g>
      <polyline class=" st5_1075076214" points="336.46 253.17 338.43 258.11 336.46 263.04"></polyline>
    </g>
    <g>
      <g>
        <rect class=" st11_1075076214" x="97.12" y="301.83" width="36.2" height="1.49"></rect>
        <rect class=" st11_1075076214" x="112.78" y="303.32" width="4.89" height="1.13"></rect>
      </g>
      <polyline class=" st5_1075076214" points="123.02 298.71 115.2 301.83 107.38 298.71"></polyline>
    </g>
    <g>
      <g>
        <rect class=" st11_1075076214" x="99.35" y="309.02" width="26.63" height="1.1"></rect>
        <rect class=" st11_1075076214" x="110.87" y="308.19" width="3.6" height=".83"></rect>
      </g>
      <polyline class=" st5_1075076214" points="106.93 312.42 112.68 310.12 118.43 312.42"></polyline>
    </g>
    <g>
      <rect class=" st11_1075076214" x="259.4" y="281.54" width="8.49" height="5.1"></rect>
      <line class=" st5_1075076214" x1="267.89" y1="281.54" x2="259.4" y2="286.63"></line>
      <line class=" st5_1075076214" x1="259.4" y1="281.54" x2="267.89" y2="286.63"></line>
    </g>
    <rect class=" st11_1075076214" x="255.61" y="365.95" width="5.62" height="16.3"></rect>
    <g>
      <circle class=" st11_1075076214" cx="129.17" cy="262.52" r="27.2"></circle>
      <circle class=" st11_1075076214" cx="128.89" cy="246.73" r="8.02"></circle>
      <circle class=" st11_1075076214" cx="127.83" cy="267.61" r="15.49"></circle>
    </g>
    <g>
      <path class=" st11_1075076214" d="M114.41,233.49c4.89-2.36,11.92-5.65,20.2-4.29,5.47.89,9.18,3.81,13.26,6.09,12.85,6.91,21.23-12.73,8.21-17.98-15.32-5.71-34.62-9.02-48.17-1.21-11.02,4.71-4.74,21.2,6.49,17.4Z"></path>
      <path class=" st11_1075076214" d="M123.79,218.21c2.58-1.01,6.33-2.42,10.81-1.68,5.1.85,12.38,7.09,14.96.36,2.35-6.13-11.87-8.78-16.01-9.1-5.21-.41-17.76,2.57-15.95,8.06.67,2.03,3.47,3.21,6.2,2.36Z"></path>
    </g>
    <g>
      <path class=" st11_1075076214" d="M84.26,285.01l-3.03-8.93c-.75-2.2.43-4.58,2.63-5.33l9.52-3.23c.2-.07.42.04.49.24l5.61,16.55c.07.2-.04.42-.24.49l-9.13,3.1c-2.41.82-5.03-.48-5.85-2.89Z"></path>
      <path class=" st11_1075076214" d="M86.77,283.39l-2.14-6.32c-.63-1.86.37-3.89,2.23-4.52l9.07-3.08c.47-.16.97.09,1.13.56l3.57,10.54c.16.47-.09.97-.56,1.13l-9.92,3.36c-1.4.47-2.92-.28-3.39-1.67Z"></path>
      <path class=" st11_1075076214" d="M93.08,282.29l-5.08-4.93c-.2-.19-.51-.19-.71.01l-2.56,2.64c-.19.2-.19.52.01.71l5.08,4.93c.2.19.51.19.71-.01l2.56-2.64c.19-.2.19-.51-.01-.71Z"></path>
    </g>
    <g>
      <path class=" st11_1075076214" d="M81.78,252.49l2.3-9.15c.57-2.25,2.85-3.62,5.1-3.05l9.75,2.46c.21.05.33.26.28.47l-4.27,16.95c-.05.21-.26.33-.47.28l-9.35-2.35c-2.47-.62-3.97-3.13-3.35-5.6Z"></path>
      <path class=" st11_1075076214" d="M84.77,252.49l1.63-6.47c.48-1.91,2.42-3.07,4.32-2.59l9.29,2.34c.48.12.77.6.65,1.08l-2.72,10.79c-.12.48-.6.77-1.08.65l-10.15-2.56c-1.43-.36-2.3-1.81-1.94-3.24Z"></path>
      <path class=" st11_1075076214" d="M90.66,255l-1.59-6.9c-.06-.27-.33-.44-.6-.38l-3.58.83c-.27.06-.44.33-.38.6l1.59,6.9c.06.27.33.44.6.38l3.58-.83c.27-.06.44-.33.38-.6Z"></path>
    </g>
    <g>
      <rect class=" st11_1075076214" x="242.16" y="252.27" width="14.6" height="14.04"></rect>
      <rect class=" st11_1075076214" x="242.16" y="252.28" width="1.11" height="14.04"></rect>
      <path class=" st11_1075076214" d="M246.42,259.29h0c0,.83.39,1.38.96,1.7.7.4,1.56.41,2.3.08l4.1-1.79-3.98-1.78c-.66-.29-1.42-.32-2.08-.04-.72.31-1.3.89-1.3,1.82Z"></path>
    </g>
    <g>
      <rect class=" st11_1075076214" x="242.16" y="239.3" width="14.6" height="12.98"></rect>
      <path class=" st11_1075076214" d="M243.58,250.27v-8.96c0-.55.45-1,1-1h8.33c.55,0,1,.45,1,1v8.96c0,.55-.45,1-1,1h-8.33c-.55,0-1-.45-1-1Z"></path>
      <rect class=" st11_1075076214" x="251.57" y="245.12" width="4.43" height="1.34"></rect>
      <ellipse class=" st11_1075076214" cx="249.2" cy="245.79" rx=".95" ry=".83"></ellipse>
      <rect class=" st11_1075076214" x="254.69" y="245.12" width="1.32" height="1.34"></rect>
    </g>
    <g>
      <rect class=" st11_1075076214" x="242.16" y="224.95" width="14.6" height="14.35"></rect>
      <circle class=" st11_1075076214" cx="246.24" cy="228.87" r="2.18"></circle>
      <circle class=" st11_1075076214" cx="246.24" cy="235.38" r="2.18"></circle>
      <circle class=" st11_1075076214" cx="252.68" cy="228.87" r="2.18"></circle>
      <circle class=" st11_1075076214" cx="252.68" cy="235.38" r="2.18"></circle>
    </g>
    <g>
      <rect class=" st11_1075076214" x="242.2" y="280.87" width="14.56" height="14.56"></rect>
      <rect class=" st11_1075076214" x="242.2" y="280.87" width="1.11" height="14.38"></rect>
      <rect class=" st11_1075076214" x="241.23" y="281.99" width=".97" height="2.45"></rect>
      <g>
        <line class=" st5_1075076214" x1="245.92" y1="288.15" x2="253.04" y2="288.15"></line>
        <line class=" st5_1075076214" x1="251.26" y1="285.08" x2="247.7" y2="291.22"></line>
        <line class=" st5_1075076214" x1="251.26" y1="291.22" x2="247.7" y2="285.08"></line>
      </g>
    </g>
    <g>
      <rect class=" st11_1075076214" x="242.2" y="266.31" width="14.56" height="14.56"></rect>
      <rect class=" st11_1075076214" x="242.2" y="266.49" width="1.11" height="14.38"></rect>
      <rect class=" st11_1075076214" x="241.23" y="277.3" width=".97" height="2.45"></rect>
      <g>
        <line class=" st5_1075076214" x1="245.92" y1="273.59" x2="253.04" y2="273.59"></line>
        <line class=" st5_1075076214" x1="251.26" y1="276.66" x2="247.7" y2="270.52"></line>
        <line class=" st5_1075076214" x1="251.26" y1="270.52" x2="247.7" y2="276.66"></line>
      </g>
    </g>
    <g>
      <rect class=" st11_1075076214" x="242.16" y="210.64" width="14.6" height="14.31"></rect>
      <line class=" st5_1075076214" x1="242.16" y1="210.64" x2="256.76" y2="224.95"></line>
      <line class=" st5_1075076214" x1="242.16" y1="224.95" x2="256.76" y2="210.64"></line>
    </g>
    <g>
      <rect class=" st11_1075076214" x="242.16" y="196.38" width="14.6" height="14.26"></rect>
      <line class=" st5_1075076214" x1="242.16" y1="196.38" x2="256.76" y2="210.64"></line>
      <line class=" st5_1075076214" x1="242.16" y1="210.64" x2="256.76" y2="196.38"></line>
    </g>
    <g>
      <rect class=" st13_1075076214" x="451.26" y="241.82" width="61.04" height="14.83"></rect>
      <g>
        <line class=" st5_1075076214" x1="498.82" y1="243.78" x2="499.94" y2="254.68"></line>
        <line class=" st5_1075076214" x1="505.44" y1="243.78" x2="505.44" y2="254.68"></line>
        <line class=" st5_1075076214" x1="496.64" y1="243.78" x2="496.64" y2="254.68"></line>
        <line class=" st5_1075076214" x1="494.45" y1="243.78" x2="493.33" y2="254.68"></line>
        <line class=" st5_1075076214" x1="503.25" y1="243.78" x2="502.13" y2="254.68"></line>
        <line class=" st5_1075076214" x1="476.85" y1="243.78" x2="475.72" y2="254.68"></line>
        <line class=" st5_1075076214" x1="485.65" y1="243.78" x2="484.52" y2="254.68"></line>
        <line class=" st5_1075076214" x1="459.24" y1="243.78" x2="458.12" y2="254.68"></line>
        <line class=" st5_1075076214" x1="468.04" y1="243.78" x2="466.92" y2="254.68"></line>
        <line class=" st5_1075076214" x1="481.21" y1="243.78" x2="482.34" y2="254.68"></line>
        <line class=" st5_1075076214" x1="490.02" y1="243.78" x2="491.14" y2="254.68"></line>
        <line class=" st5_1075076214" x1="472.41" y1="243.78" x2="473.54" y2="254.68"></line>
        <line class=" st5_1075076214" x1="454.81" y1="243.78" x2="455.93" y2="254.68"></line>
        <line class=" st5_1075076214" x1="463.61" y1="243.78" x2="464.73" y2="254.68"></line>
        <line class=" st5_1075076214" x1="507.62" y1="243.78" x2="508.75" y2="254.68"></line>
        <line class=" st5_1075076214" x1="461.42" y1="243.78" x2="461.42" y2="254.68"></line>
        <line class=" st5_1075076214" x1="479.03" y1="243.78" x2="479.03" y2="254.68"></line>
        <line class=" st5_1075076214" x1="487.83" y1="243.78" x2="487.83" y2="254.68"></line>
        <line class=" st5_1075076214" x1="470.23" y1="243.78" x2="470.23" y2="254.68"></line>
      </g>
      <line class=" st5_1075076214" x1="452.99" y1="249.23" x2="510.57" y2="249.23"></line>
    </g>
    <g>
      <rect class=" st13_1075076214" x="451.26" y="281.03" width="61.04" height="14.83"></rect>
      <g>
        <line class=" st5_1075076214" x1="498.82" y1="282.99" x2="499.94" y2="293.89"></line>
        <line class=" st5_1075076214" x1="505.44" y1="282.99" x2="505.44" y2="293.89"></line>
        <line class=" st5_1075076214" x1="496.64" y1="282.99" x2="496.64" y2="293.89"></line>
        <line class=" st5_1075076214" x1="494.45" y1="282.99" x2="493.33" y2="293.89"></line>
        <line class=" st5_1075076214" x1="503.25" y1="282.99" x2="502.13" y2="293.89"></line>
        <line class=" st5_1075076214" x1="476.85" y1="282.99" x2="475.72" y2="293.89"></line>
        <line class=" st5_1075076214" x1="485.65" y1="282.99" x2="484.52" y2="293.89"></line>
        <line class=" st5_1075076214" x1="459.24" y1="282.99" x2="458.12" y2="293.89"></line>
        <line class=" st5_1075076214" x1="468.04" y1="282.99" x2="466.92" y2="293.89"></line>
        <line class=" st5_1075076214" x1="481.21" y1="282.99" x2="482.34" y2="293.89"></line>
        <line class=" st5_1075076214" x1="490.02" y1="282.99" x2="491.14" y2="293.89"></line>
        <line class=" st5_1075076214" x1="472.41" y1="282.99" x2="473.54" y2="293.89"></line>
        <line class=" st5_1075076214" x1="454.81" y1="282.99" x2="455.93" y2="293.89"></line>
        <line class=" st5_1075076214" x1="463.61" y1="282.99" x2="464.73" y2="293.89"></line>
        <line class=" st5_1075076214" x1="507.62" y1="282.99" x2="508.75" y2="293.89"></line>
        <line class=" st5_1075076214" x1="461.42" y1="282.99" x2="461.42" y2="293.89"></line>
        <line class=" st5_1075076214" x1="479.03" y1="282.99" x2="479.03" y2="293.89"></line>
        <line class=" st5_1075076214" x1="487.83" y1="282.99" x2="487.83" y2="293.89"></line>
        <line class=" st5_1075076214" x1="470.23" y1="282.99" x2="470.23" y2="293.89"></line>
      </g>
      <line class=" st5_1075076214" x1="452.99" y1="288.44" x2="510.57" y2="288.44"></line>
    </g>
    <g>
      <rect class=" st11_1075076214" x="144.26" y="297.83" width="63.66" height="15.21"></rect>
      <g>
        <line class=" st5_1075076214" x1="205.29" y1="299.84" x2="204.43" y2="311.02"></line>
        <line class=" st5_1075076214" x1="200.86" y1="299.84" x2="201.73" y2="311.02"></line>
        <line class=" st5_1075076214" x1="198.05" y1="299.84" x2="198.05" y2="311.02"></line>
        <line class=" st5_1075076214" x1="195.41" y1="299.84" x2="194.54" y2="311.02"></line>
        <line class=" st5_1075076214" x1="184.74" y1="299.84" x2="183.88" y2="311.02"></line>
        <line class=" st5_1075076214" x1="177.68" y1="299.84" x2="176.82" y2="311.02"></line>
        <line class=" st5_1075076214" x1="166.4" y1="299.84" x2="165.54" y2="311.02"></line>
        <line class=" st5_1075076214" x1="173.45" y1="299.84" x2="172.59" y2="311.02"></line>
        <line class=" st5_1075076214" x1="191.01" y1="299.84" x2="191.87" y2="311.02"></line>
        <line class=" st5_1075076214" x1="180.65" y1="299.84" x2="181.51" y2="311.02"></line>
        <line class=" st5_1075076214" x1="169.36" y1="299.84" x2="170.22" y2="311.02"></line>
        <line class=" st5_1075076214" x1="159.04" y1="299.84" x2="158.17" y2="311.02"></line>
        <line class=" st5_1075076214" x1="147.75" y1="299.84" x2="146.89" y2="311.02"></line>
        <line class=" st5_1075076214" x1="154.81" y1="299.84" x2="153.94" y2="311.02"></line>
        <line class=" st5_1075076214" x1="162" y1="299.84" x2="162.86" y2="311.02"></line>
        <line class=" st5_1075076214" x1="150.71" y1="299.84" x2="151.57" y2="311.02"></line>
        <line class=" st5_1075076214" x1="187.41" y1="299.84" x2="187.41" y2="311.02"></line>
      </g>
      <line class=" st5_1075076214" x1="145.91" y1="305.43" x2="206.27" y2="305.43"></line>
    </g>
    <g>
      <rect class=" st11_1075076214" x="242.21" y="324.43" width="13.39" height="62.92"></rect>
      <g>
        <line class=" st5_1075076214" x1="253.83" y1="384.75" x2="243.96" y2="383.9"></line>
        <line class=" st5_1075076214" x1="253.83" y1="380.37" x2="243.96" y2="381.23"></line>
        <line class=" st5_1075076214" x1="253.83" y1="377.6" x2="243.96" y2="377.6"></line>
        <line class=" st5_1075076214" x1="253.83" y1="374.98" x2="243.96" y2="374.13"></line>
        <line class=" st5_1075076214" x1="253.83" y1="364.44" x2="243.96" y2="363.58"></line>
        <line class=" st5_1075076214" x1="253.83" y1="357.46" x2="243.96" y2="356.61"></line>
        <line class=" st5_1075076214" x1="253.83" y1="346.31" x2="243.96" y2="345.46"></line>
        <line class=" st5_1075076214" x1="253.83" y1="353.28" x2="243.96" y2="352.43"></line>
        <line class=" st5_1075076214" x1="253.83" y1="370.63" x2="243.96" y2="371.48"></line>
        <line class=" st5_1075076214" x1="253.83" y1="360.39" x2="243.96" y2="361.24"></line>
        <line class=" st5_1075076214" x1="253.83" y1="349.23" x2="243.96" y2="350.09"></line>
        <line class=" st5_1075076214" x1="253.83" y1="339.03" x2="243.96" y2="338.18"></line>
        <line class=" st5_1075076214" x1="253.83" y1="327.88" x2="243.96" y2="327.03"></line>
        <line class=" st5_1075076214" x1="253.83" y1="334.85" x2="243.96" y2="334"></line>
        <line class=" st5_1075076214" x1="253.83" y1="341.96" x2="243.96" y2="342.81"></line>
        <line class=" st5_1075076214" x1="253.83" y1="330.8" x2="243.96" y2="331.66"></line>
        <line class=" st5_1075076214" x1="253.83" y1="367.08" x2="243.96" y2="367.08"></line>
      </g>
      <line class=" st5_1075076214" x1="248.9" y1="326.06" x2="248.9" y2="385.72"></line>
    </g>
    <g>
      <rect class=" st11_1075076214" x="267.89" y="281.54" width="44.98" height="13.21"></rect>
      <g>
        <line class=" st5_1075076214" x1="275.5" y1="283.29" x2="276.46" y2="293"></line>
        <line class=" st5_1075076214" x1="286.48" y1="283.29" x2="287.44" y2="293"></line>
        <line class=" st5_1075076214" x1="297.8" y1="283.29" x2="298.76" y2="293"></line>
        <line class=" st5_1075076214" x1="272.43" y1="283.29" x2="271.47" y2="293"></line>
        <line class=" st5_1075076214" x1="283.43" y1="283.29" x2="282.47" y2="293"></line>
        <line class=" st5_1075076214" x1="303.02" y1="283.29" x2="302.05" y2="293"></line>
        <line class=" st5_1075076214" x1="295.16" y1="283.29" x2="294.2" y2="293"></line>
        <line class=" st5_1075076214" x1="279.53" y1="283.29" x2="279.53" y2="293"></line>
        <line class=" st5_1075076214" x1="291.32" y1="283.29" x2="291.32" y2="293"></line>
        <line class=" st5_1075076214" x1="309.29" y1="283.29" x2="308.32" y2="293"></line>
        <line class=" st5_1075076214" x1="305.44" y1="283.29" x2="305.44" y2="293"></line>
      </g>
      <line class=" st5_1075076214" x1="310.98" y1="288.14" x2="269.77" y2="288.14"></line>
    </g>
    <g>
      <rect class=" st11_1075076214" x="370.13" y="281.54" width="51.45" height="13.21"></rect>
      <g>
        <line class=" st5_1075076214" x1="413.95" y1="283.29" x2="412.99" y2="293"></line>
        <line class=" st5_1075076214" x1="403.19" y1="283.29" x2="402.23" y2="293"></line>
        <line class=" st5_1075076214" x1="392.42" y1="283.29" x2="391.46" y2="293"></line>
        <line class=" st5_1075076214" x1="416.9" y1="283.29" x2="417.86" y2="293"></line>
        <line class=" st5_1075076214" x1="406.13" y1="283.29" x2="407.1" y2="293"></line>
        <line class=" st5_1075076214" x1="387.55" y1="283.29" x2="388.52" y2="293"></line>
        <line class=" st5_1075076214" x1="395.37" y1="283.29" x2="396.33" y2="293"></line>
        <line class=" st5_1075076214" x1="410.04" y1="283.29" x2="410.04" y2="293"></line>
        <line class=" st5_1075076214" x1="377.75" y1="283.29" x2="376.79" y2="293"></line>
        <line class=" st5_1075076214" x1="373.84" y1="283.29" x2="373.84" y2="293"></line>
        <line class=" st5_1075076214" x1="399.28" y1="283.29" x2="399.28" y2="293"></line>
        <line class=" st5_1075076214" x1="380.7" y1="283.29" x2="381.66" y2="293"></line>
        <line class=" st5_1075076214" x1="384.61" y1="283.29" x2="384.61" y2="293"></line>
      </g>
      <line class=" st5_1075076214" x1="372.63" y1="288.14" x2="419.07" y2="288.14"></line>
    </g>
    <g>
      <rect class=" st11_1075076214" x="283.62" y="324.47" width="12.98" height="39.07"></rect>
      <g>
        <line class=" st5_1075076214" x1="285.34" y1="356.93" x2="294.88" y2="356.09"></line>
        <line class=" st5_1075076214" x1="285.34" y1="347.39" x2="294.88" y2="346.55"></line>
        <line class=" st5_1075076214" x1="285.34" y1="337.55" x2="294.88" y2="336.72"></line>
        <line class=" st5_1075076214" x1="285.34" y1="359.59" x2="294.88" y2="360.43"></line>
        <line class=" st5_1075076214" x1="285.34" y1="350.03" x2="294.88" y2="350.87"></line>
        <line class=" st5_1075076214" x1="285.34" y1="333.02" x2="294.88" y2="333.86"></line>
        <line class=" st5_1075076214" x1="285.34" y1="339.84" x2="294.88" y2="340.68"></line>
        <line class=" st5_1075076214" x1="285.34" y1="353.43" x2="294.88" y2="353.43"></line>
        <line class=" st5_1075076214" x1="285.34" y1="343.18" x2="294.88" y2="343.18"></line>
        <line class=" st5_1075076214" x1="285.34" y1="327.58" x2="294.88" y2="328.41"></line>
        <line class=" st5_1075076214" x1="285.34" y1="330.92" x2="294.88" y2="330.92"></line>
      </g>
      <line class=" st5_1075076214" x1="290.11" y1="326.11" x2="290.11" y2="361.9"></line>
    </g>
  </g>
  <g>
    <path class=" st18_1075076214" d="M83.05,213.57c4.69,0,8.49,3.8,8.49,8.49s-3.8,8.49-8.49,8.49-8.49-3.8-8.49-8.49,3.8-8.49,8.49-8.49ZM260.62,418.77v9.83h-55.01v-40.81h-63.74v2.38H55.19v-14.08h5.29v1.82h81.89v-43.42h17.62v2.74h-15.42v43.26h48.09v-43.26h-13.98v-2.74h29.24v-.98h2.79v87.27h44.89v-2h5.02ZM207.92,340.78h-9.88v36.82h9.88v-36.82ZM141.73,295.43v9.02H60.47v3.74h81.25v4.84h2.53v-15.21h63.66v15.21h2.79v-17.61h-68.99ZM342.39,294.75v-71.57h-2.3v71.57h-2.48v3.07h7.17v-3.07h-2.38ZM316.96,294.75v3.07h-74.82v-2.39h14.62v-99.06h-9.35v-5.29h24.48v32.09h-4.33v17.36h-8.17v46.1h8.49v8.12h49.08ZM259.4,294.75h6.1v-5.72h-6.1v5.72ZM520,146.57v240.75h-259.38v4.59h-5.02v-2.1h-13.39v-2.49h13.39v-5.07h5.62v-16.3h-5.62v-41.49h-13.39v-2.49h19.59v2.49h-3.69v39.07h5.63v14.87h17.05v-4.11h2.82v-10.76h12.98v-39.07h-16.09v-2.49h30.19v2.49h-11.59v39.07h42.12v-39.07h-11.93v-2.49h35.92v2.49h-21.47v39.07h64.57v-39.07h-24.39v-2.49h37.66v-1.87h2.3v4.36h-13.06v54.03h13.51v3.69h25.03v-36.77h2.56v32.01h60.37v-78.64h-60.38v28.12h-2.56v-45.79h1.86v14.75h61.08v-54.04h-61.08v14.83h-1.86v-16.68h0s62.94,0,62.94,0v-88.04h-5.21v-5.36h12.92ZM287.39,375.98h-4.76v4.76h4.76v-4.76ZM395.33,371.01h-105.1v13.83h105.1v-13.83ZM408.44,368.26h-10.25v12.42h10.25v-12.42ZM514.25,380.13h-62.33v4.51h62.33v-4.51ZM416.41,192v-1.42h-5.28l-.05,32.59h3.61v16.79h6.89v54.79h-56.16v3.07h56.16v1.38h2.3v-107.2h-7.46Z"></path>
  </g>
  <g>
    <path class=" st5_1075076214" d="M249.08,152.37l7.85-13.6M163.54,146.57v-15.17M195.1,146.57v-15.17M227.04,146.57v-15.17M131.23,146.57v-15.17M99.82,131.4v15.17M47.79,160.91l13.26,8.03M78.17,152.09l-8.3-13.1M55.18,191.09h-15.18M55.18,223.27h-15.18M55.18,273.87h-15.18M55.18,306.32h-15.18M55.18,349.52h-15.18M266.1,169.41l13.28-8.44M271.89,191.09h15.18M287.08,202.73l-15.18,15.16M311.14,217.9v-15.17M341.61,217.9v-15.17M371.33,202.73v15.17M516.15,146.57v-15.17M485.77,146.57v-15.17M455.59,146.57v-15.17M432.38,151.74l-7.06-12.33M403.43,162.35l12.1,6.96M411.08,190.58h-14.32M411.93,217.9l-15.17-15.17M516.15,146.57v-15.17"></path>
    <path class=" st5_1075076214" d="M55.19,191.01c0-24.54,19.9-44.44,44.44-44.44h127.37c24.78,0,44.89,20.1,44.89,44.89h-4.01c0-22.54-18.34-40.88-40.88-40.88h-127.38c-22.29,0-40.43,18.14-40.43,40.43h-4.01Z"></path>
    <path class=" st5_1075076214" d="M520,146.57v-15.17h-65.28c-32.01,0-57.96,25.95-57.96,57.96v13.37h-109.69v-12.72c0-32.36-26.23-58.61-58.61-58.61H98.77c-32.46,0-58.77,26.31-58.77,58.77v200h15.19v-199.16c0-24.54,19.9-44.44,44.44-44.44h127.37c24.78,0,44.89,20.1,44.89,44.89v26.44h139.19v-27.6c0-26.51,17.74-43.73,43.5-43.73h65.41Z"></path>
  </g>
  <g>
    <g>
      <rect class=" st5_1075076214" x="190.08" y="331.3" width="18.28" height="1.17"></rect>
      <rect class=" st5_1075076214" x="207.92" y="332.47" width="1.9" height="1.03"></rect>
      <rect class=" st5_1075076214" x="207.92" y="313.04" width="1.9" height="1.03"></rect>
      <path class=" st5_1075076214" d="M190.08,331.3c0-10.02,10.39-17.23,17.78-17.23"></path>
    </g>
    <g>
      <rect class=" st5_1075076214" x="451.52" y="343.42" width="16.54" height="1.06"></rect>
      <rect class=" st5_1075076214" x="450.21" y="344.48" width="1.71" height=".93"></rect>
      <rect class=" st5_1075076214" x="450.21" y="326.89" width="1.71" height=".93"></rect>
      <path class=" st5_1075076214" d="M468.07,343.42c0-9.07-9.4-15.59-16.09-15.59"></path>
    </g>
    <g>
      <rect class=" st5_1075076214" x="423.43" y="317.86" width="18.67" height="1.2"></rect>
      <rect class=" st5_1075076214" x="421.94" y="319.05" width="1.93" height="1.05"></rect>
      <rect class=" st5_1075076214" x="421.94" y="299.21" width="1.93" height="1.05"></rect>
      <path class=" st5_1075076214" d="M442.1,317.86c0-10.23-10.61-17.6-18.16-17.6"></path>
    </g>
    <g>
      <rect class=" st4_1075076214" x="176.67" y="336.73" width="1.07" height="16.69"></rect>
      <rect class=" st4_1075076214" x="177.74" y="335.4" width=".94" height="1.73"></rect>
      <rect class=" st4_1075076214" x="159.99" y="335.4" width=".94" height="1.73"></rect>
      <path class=" st5_1075076214" d="M176.67,353.42c-9.15,0-15.73-9.49-15.74-16.23"></path>
    </g>
    <g>
      <rect class=" st3_1075076214" x="335.39" y="276.76" width="1.18" height="18.44"></rect>
      <rect class=" st3_1075076214" x="336.57" y="294.75" width="1.04" height="1.91"></rect>
      <rect class=" st3_1075076214" x="316.96" y="294.75" width="1.04" height="1.91"></rect>
      <path class=" st5_1075076214" d="M335.39,276.76c-10.11,0-17.38,10.48-17.38,17.93"></path>
    </g>
    <g>
      <rect class=" st3_1075076214" x="345.81" y="276.76" width="1.18" height="18.44"></rect>
      <rect class=" st3_1075076214" x="344.78" y="294.75" width="1.04" height="1.91"></rect>
      <rect class=" st3_1075076214" x="364.38" y="294.75" width="1.04" height="1.91"></rect>
      <path class=" st5_1075076214" d="M346.99,276.76c10.11,0,17.38,10.48,17.38,17.93"></path>
    </g>
    <g>
      <rect class=" st4_1075076214" x="262.75" y="324.06" width="1.07" height="16.71"></rect>
      <rect class=" st4_1075076214" x="261.8" y="322.73" width=".94" height="1.73"></rect>
      <rect class=" st4_1075076214" x="279.57" y="322.73" width=".94" height="1.73"></rect>
      <path class=" st5_1075076214" d="M263.82,340.78c9.16,0,15.75-9.5,15.75-16.26"></path>
    </g>
    <g>
      <rect class=" st4_1075076214" x="366.15" y="324.06" width="1.07" height="16.71"></rect>
      <rect class=" st4_1075076214" x="365.21" y="322.73" width=".94" height="1.73"></rect>
      <rect class=" st4_1075076214" x="382.98" y="322.73" width=".94" height="1.73"></rect>
      <path class=" st5_1075076214" d="M367.22,340.78c9.16,0,15.75-9.5,15.75-16.26"></path>
    </g>
    <g>
      <rect class=" st5_1075076214" x="232.18" y="415.89" width="24" height="1.54"></rect>
      <rect class=" st5_1075076214" x="255.61" y="417.42" width="2.49" height="1.35"></rect>
      <rect class=" st5_1075076214" x="255.61" y="391.91" width="2.49" height="1.35"></rect>
      <path class=" st5_1075076214" d="M232.18,415.89c0-13.16,13.64-22.62,23.34-22.62"></path>
    </g>
    <g>
      <rect class=" st4_1075076214" x="327.3" y="324.06" width="1.06" height="16.61"></rect>
      <rect class=" st4_1075076214" x="328.36" y="322.74" width=".94" height="1.72"></rect>
      <rect class=" st4_1075076214" x="310.7" y="322.74" width=".94" height="1.72"></rect>
      <path class=" st5_1075076214" d="M327.3,340.67c-9.11,0-15.66-9.44-15.66-16.15"></path>
    </g>
    <rect class=" st5_1075076214" x="168.52" y="195.1" width="27.16" height="1.15"></rect>
    <rect class=" st5_1075076214" x="190.94" y="193.96" width="27.16" height="1.15"></rect>
    <rect class=" st5_1075076214" x="132.67" y="195.1" width="27.16" height="1.15"></rect>
    <rect class=" st5_1075076214" x="109.45" y="193.96" width="27.16" height="1.14"></rect>
  </g>
  <g>
    <polygon class=" st17_1075076214" points="269.51 411.07 269.51 410.79 262.82 405.45 277.78 405.96 278.11 405.96 278.11 404.72 277.78 404.72 262.82 405.23 269.51 399.9 269.51 399.62 267.88 399.62 262.14 405.33 267.88 411.07 269.51 411.07"></polygon>
  </g>
  <g>
    <g>
      <path class=" st19_1075076214" d="M438.65,198.87c.01-.24.07-.47.17-.68.1-.21.24-.4.42-.55.18-.16.39-.29.64-.38.24-.09.52-.14.82-.14.29,0,.55.05.79.14.24.1.45.23.64.39.18.16.32.35.42.56.1.21.15.43.15.66s-.04.42-.12.59c-.08.16-.18.3-.28.4-.12.12-.25.22-.4.31.19.09.35.2.5.34.13.12.24.28.34.48.1.2.15.44.15.73,0,.24-.05.47-.15.68-.1.21-.25.4-.43.57-.19.16-.41.3-.68.4s-.56.15-.88.15-.62-.05-.88-.14-.48-.22-.67-.38c-.18-.16-.33-.34-.43-.55-.1-.21-.16-.44-.18-.68h.95c.01.11.05.22.11.33.06.11.14.2.24.29.1.09.23.15.37.21.15.05.3.08.48.08.38,0,.68-.1.89-.29.21-.19.31-.43.31-.71s-.11-.52-.32-.71-.51-.29-.88-.29h-.45v-.85h.4c.33,0,.58-.09.77-.26.19-.17.28-.39.28-.64,0-.28-.09-.51-.28-.68-.19-.18-.44-.26-.77-.26s-.58.09-.78.26-.3.39-.33.64h-.95Z"></path>
      <path class=" st19_1075076214" d="M447.77,202.57v.9h-4.05v-.7l2.5-2.7c.11-.12.21-.24.3-.37.08-.11.14-.24.21-.37.06-.13.1-.27.1-.41,0-.28-.1-.51-.29-.68-.19-.18-.46-.26-.81-.26-.33,0-.59.1-.8.3s-.31.47-.31.79h-.95c0-.29.05-.55.14-.79.1-.24.23-.45.41-.62.18-.17.39-.3.64-.4.25-.1.54-.14.85-.14s.6.05.85.14c.25.09.47.22.64.39.18.17.31.36.41.59.1.23.14.47.14.73,0,.2-.05.4-.14.6-.09.2-.2.38-.31.53-.13.18-.28.35-.45.52l-1.79,1.95h2.69Z"></path>
      <path class=" st19_1075076214" d="M449.1,202.41c.15,0,.28.06.39.17s.16.26.16.43c0,.25-.04.47-.12.65-.08.18-.18.32-.28.43-.12.13-.25.24-.4.32l-.15-.2c.07-.04.13-.11.19-.18.05-.06.1-.13.15-.22s.08-.19.11-.3c-.17,0-.32-.05-.43-.16s-.17-.24-.17-.39.05-.28.16-.39.24-.16.39-.16Z"></path>
      <path class=" st19_1075076214" d="M454.33,197.17v.65l-2.6,5.65h-1l2.5-5.4h-2.85v-.9h3.95Z"></path>
    </g>
    <g>
      <path class=" st19_1075076214" d="M305.33,341.71c.01-.24.07-.47.17-.68.1-.21.24-.4.42-.55.18-.16.39-.29.64-.38.24-.09.52-.14.82-.14.29,0,.55.05.79.14.24.1.45.23.64.39.18.16.32.35.42.56.1.21.15.43.15.66s-.04.42-.12.59c-.08.16-.18.3-.28.4-.12.12-.25.22-.4.31.19.09.35.2.5.34.13.12.24.28.34.48.1.2.15.44.15.73,0,.24-.05.47-.15.68-.1.21-.25.4-.43.57-.19.17-.41.3-.68.4s-.56.15-.88.15-.62-.05-.88-.14c-.26-.09-.48-.22-.67-.38-.18-.16-.33-.34-.43-.55-.1-.21-.16-.43-.18-.68h.95c.01.11.05.22.11.33.06.11.14.2.24.29.1.09.23.15.37.2.15.05.3.08.48.08.38,0,.68-.1.89-.29.21-.19.31-.43.31-.71s-.11-.52-.32-.71-.51-.29-.88-.29h-.45v-.85h.4c.33,0,.58-.09.77-.26.19-.17.28-.39.28-.64,0-.28-.09-.51-.28-.68-.19-.18-.44-.26-.77-.26s-.58.09-.78.26-.3.39-.33.64h-.95Z"></path>
      <path class=" st19_1075076214" d="M310.85,345.26c.15,0,.28.06.39.17s.16.26.16.43c0,.25-.04.47-.12.64-.08.18-.18.32-.28.43-.12.13-.25.24-.4.32l-.15-.2c.07-.05.13-.11.19-.18.05-.06.1-.13.15-.22s.08-.19.11-.3c-.17,0-.32-.05-.43-.16-.11-.11-.17-.23-.17-.39s.05-.28.16-.39.24-.16.39-.16Z"></path>
      <path class=" st19_1075076214" d="M316.08,340.01v.65l-2.6,5.65h-1l2.5-5.4h-2.85v-.9h3.95Z"></path>
    </g>
    <g>
      <path class=" st19_1075076214" d="M265.14,348.68c.01-.24.07-.47.17-.68.1-.21.24-.4.42-.55s.39-.29.64-.38c.25-.09.52-.14.82-.14.29,0,.55.05.79.14.24.1.45.23.64.39s.32.35.42.56c.1.21.15.43.15.66s-.04.42-.12.59-.17.3-.28.4c-.12.12-.25.22-.4.31.19.09.35.2.5.34.13.12.24.28.34.48.1.2.15.44.15.73,0,.24-.05.47-.15.68s-.25.4-.43.57c-.19.17-.41.3-.68.4-.26.1-.56.15-.88.15s-.62-.05-.88-.14c-.26-.09-.48-.22-.67-.38s-.33-.34-.43-.55c-.1-.21-.16-.43-.18-.68h.95c.01.11.05.22.11.33.06.11.14.2.24.29.1.09.23.15.37.2.14.05.3.08.48.08.38,0,.68-.1.89-.29.21-.19.32-.43.32-.71s-.11-.52-.32-.71-.51-.29-.88-.29h-.45v-.85h.4c.33,0,.58-.09.77-.26s.28-.39.28-.64c0-.28-.09-.51-.28-.68s-.44-.26-.77-.26-.58.09-.78.26-.3.39-.33.64h-.95Z"></path>
      <path class=" st19_1075076214" d="M270.67,352.23c.15,0,.28.06.39.17s.16.26.16.43c0,.25-.04.47-.12.64s-.17.32-.28.43c-.12.13-.25.24-.4.32l-.15-.2c.07-.05.13-.11.19-.18.05-.06.1-.13.15-.22s.08-.19.11-.3c-.17,0-.32-.05-.43-.16-.11-.11-.17-.23-.17-.39s.05-.28.16-.39.24-.16.39-.16Z"></path>
      <path class=" st19_1075076214" d="M274.05,353.33c-.33,0-.62-.05-.88-.15-.26-.1-.49-.23-.68-.4-.19-.17-.33-.36-.44-.59-.1-.22-.16-.46-.16-.72,0-.3.05-.55.16-.76.1-.2.22-.37.35-.49.15-.15.31-.26.5-.35-.14-.09-.27-.19-.38-.31-.09-.11-.18-.24-.25-.39s-.11-.33-.11-.55c0-.23.05-.44.14-.65.09-.2.22-.38.39-.54s.37-.28.61-.37c.23-.09.49-.14.76-.14s.53.05.76.14c.23.09.43.22.61.37s.3.34.4.54c.09.2.14.42.14.65,0,.21-.04.4-.12.55-.08.15-.17.28-.26.39-.11.12-.24.23-.37.31.19.09.35.2.5.35.13.13.24.29.34.49.1.2.15.45.15.76,0,.25-.05.49-.15.72-.1.22-.25.42-.43.59-.19.17-.41.3-.68.4-.26.1-.56.15-.88.15ZM274.05,350.38c-.38,0-.68.1-.89.3-.21.2-.32.45-.32.75s.11.55.32.75c.21.2.51.3.89.3s.68-.1.89-.3c.21-.2.32-.45.32-.75s-.11-.55-.32-.75c-.21-.2-.51-.3-.89-.3ZM274.05,349.53c.28,0,.51-.08.68-.25s.26-.37.26-.6c0-.25-.09-.47-.26-.64s-.4-.26-.68-.26-.51.09-.69.26-.27.39-.27.64c0,.23.09.43.27.6s.41.25.69.25Z"></path>
    </g>
    <g>
      <path class=" st19_1075076214" d="M391.11,334.79c.29,0,.56.05.82.16.26.11.48.26.67.46.19.2.34.42.45.69s.17.54.17.84-.06.58-.17.84-.27.49-.47.69c-.2.2-.43.35-.7.46-.27.11-.56.16-.87.16s-.6-.05-.85-.14c-.25-.09-.47-.22-.65-.38s-.32-.34-.42-.55c-.1-.21-.16-.43-.18-.68h.95c.01.11.05.22.11.33.06.11.14.2.24.29.1.09.22.15.36.2.14.05.29.08.44.08.17,0,.33-.03.49-.1.15-.07.29-.16.4-.27.11-.11.2-.25.27-.41.06-.16.1-.33.1-.52s-.03-.36-.1-.52c-.06-.16-.15-.3-.27-.41-.11-.11-.25-.2-.4-.27-.15-.07-.32-.1-.49-.1-.2,0-.37.04-.52.12-.15.08-.27.17-.36.26-.11.11-.2.24-.27.37h-.8l.4-3.65h3.35v.9h-2.54l-.16,1.5c.08-.06.16-.11.27-.17.09-.05.19-.09.32-.12.12-.03.26-.05.41-.05Z"></path>
      <path class=" st19_1075076214" d="M394.49,337.98c.15,0,.28.06.39.17s.16.26.16.43c0,.25-.04.47-.12.64-.08.18-.18.32-.28.43-.12.13-.25.24-.4.32l-.15-.2c.07-.05.13-.11.19-.18.05-.06.1-.13.15-.22s.08-.19.11-.3c-.17,0-.32-.05-.43-.16-.11-.11-.17-.23-.17-.39s.05-.28.16-.39.24-.16.39-.16Z"></path>
      <path class=" st19_1075076214" d="M397.88,339.08c-.33,0-.62-.05-.88-.15-.26-.1-.49-.23-.68-.4-.19-.17-.33-.36-.44-.59-.1-.22-.16-.46-.16-.72,0-.3.05-.55.16-.76.1-.2.22-.37.35-.49.15-.15.31-.26.5-.35-.14-.09-.27-.19-.38-.31-.1-.11-.18-.24-.25-.39s-.11-.33-.11-.55c0-.23.05-.44.14-.65.09-.2.22-.38.39-.54s.37-.28.61-.37c.23-.09.49-.14.76-.14s.53.05.76.14c.23.09.43.22.61.37.17.16.3.34.39.54.09.2.14.42.14.65,0,.21-.04.4-.12.55-.08.15-.17.28-.26.39-.11.12-.24.23-.37.31.19.09.35.2.5.35.13.13.24.29.34.49.1.2.15.45.15.76,0,.25-.05.49-.15.72-.1.22-.25.42-.43.59-.19.17-.41.3-.68.4-.26.1-.56.15-.88.15ZM397.88,336.13c-.38,0-.68.1-.89.3-.21.2-.31.45-.31.75s.11.55.31.75c.21.2.51.3.89.3s.68-.1.89-.3c.21-.2.31-.45.31-.75s-.11-.55-.31-.75c-.21-.2-.51-.3-.89-.3ZM397.88,335.28c.28,0,.51-.08.68-.25s.26-.37.26-.6c0-.25-.09-.47-.26-.64s-.4-.26-.68-.26-.51.09-.69.26c-.18.17-.27.39-.27.64,0,.23.09.43.27.6.18.17.41.25.69.25Z"></path>
    </g>
    <g>
      <path class=" st19_1075076214" d="M230.18,209.52v.65l-2.6,5.65h-1l2.5-5.4h-2.85v-.9h3.95Z"></path>
      <path class=" st19_1075076214" d="M231.36,214.77c.15,0,.28.06.39.17s.16.26.16.43c0,.25-.04.47-.12.65s-.18.32-.28.43c-.12.13-.25.24-.4.32l-.15-.2c.07-.04.13-.11.19-.18.05-.06.1-.13.15-.22s.08-.19.11-.3c-.17,0-.32-.05-.43-.16s-.17-.24-.17-.39.05-.28.16-.39.24-.16.39-.16Z"></path>
      <path class=" st19_1075076214" d="M234.79,215.87c-.31,0-.6-.05-.87-.16s-.5-.26-.7-.46-.35-.43-.47-.69-.17-.54-.17-.84c0-.19.03-.37.1-.56s.13-.35.21-.5c.09-.17.19-.34.3-.49l1.75-2.65h1.05l-1.4,2.1s.07-.01.12-.02c.03,0,.07-.01.12-.02s.1,0,.15,0c.26,0,.51.05.75.16s.46.26.64.46.33.43.44.69.17.54.17.84-.06.58-.17.84-.27.49-.47.69-.43.35-.7.46-.56.16-.87.16ZM233.54,213.72c0,.19.03.36.1.52s.15.3.27.41.25.2.4.27.32.1.49.1.34-.03.49-.1.29-.16.4-.27.2-.25.27-.41.1-.33.1-.52-.03-.36-.1-.52-.15-.3-.27-.41-.25-.2-.4-.27-.32-.1-.49-.1-.34.03-.49.1-.29.16-.4.27-.2.25-.27.41-.1.33-.1.52Z"></path>
    </g>
    <g>
      <path class=" st19_1075076214" d="M163.16,358.99h-.7v1.25h-.95v-1.25h-2.8v-.8l2.65-4.25h1.1v4.15h.7v.9ZM161.51,358.1v-2.75l-1.7,2.75h1.7Z"></path>
      <path class=" st19_1075076214" d="M164.29,359.19c.15,0,.28.06.39.17s.16.26.16.43c0,.25-.04.47-.12.64s-.18.32-.28.43c-.12.13-.25.24-.4.32l-.15-.2c.07-.05.13-.11.19-.18.05-.06.1-.13.15-.22s.08-.19.11-.3c-.17,0-.32-.05-.43-.16-.11-.11-.17-.23-.17-.39s.05-.28.16-.39.24-.16.39-.16Z"></path>
      <path class=" st19_1075076214" d="M167.67,360.29c-.33,0-.62-.05-.88-.15-.26-.1-.49-.23-.68-.4-.19-.17-.33-.36-.44-.59-.1-.22-.16-.46-.16-.72,0-.3.05-.55.16-.76.1-.2.22-.37.35-.49.15-.15.31-.26.5-.35-.14-.09-.27-.19-.38-.31-.09-.11-.18-.24-.25-.39s-.11-.33-.11-.55c0-.23.05-.44.14-.65.09-.2.22-.38.39-.54s.37-.28.6-.37c.23-.09.49-.14.76-.14s.53.05.76.14c.23.09.43.22.6.37s.3.34.4.54c.09.2.14.42.14.65,0,.21-.04.4-.12.55-.08.15-.17.28-.26.39-.11.12-.24.23-.37.31.19.09.35.2.5.35.13.13.24.29.34.49.1.2.15.45.15.76,0,.25-.05.49-.15.72-.1.22-.25.42-.43.59-.19.17-.41.3-.68.4-.26.1-.56.15-.88.15ZM167.67,357.34c-.38,0-.68.1-.89.3-.21.2-.32.45-.32.75s.1.55.32.75c.21.2.51.3.89.3s.68-.1.89-.3c.21-.2.32-.45.32-.75s-.1-.55-.32-.75c-.21-.2-.51-.3-.89-.3ZM167.67,356.49c.28,0,.51-.08.68-.25s.26-.37.26-.6c0-.25-.09-.47-.26-.64s-.4-.26-.68-.26-.51.09-.69.26-.27.39-.27.64c0,.23.09.43.27.6s.41.25.69.25Z"></path>
    </g>
    <g>
      <path class=" st19_1075076214" d="M125.47,320.05v6.3h-.95v-5l-.85.55-.45-.75,1.6-1.1h.65Z"></path>
      <path class=" st19_1075076214" d="M130.6,320.05v.65l-2.6,5.65h-1l2.5-5.4h-2.85v-.9h3.95Z"></path>
      <path class=" st19_1075076214" d="M131.77,325.3c.15,0,.28.06.39.17s.16.26.16.43c0,.25-.04.47-.12.64s-.18.32-.28.43c-.12.13-.25.24-.4.32l-.15-.2c.07-.05.13-.11.19-.18.05-.06.1-.13.15-.22s.08-.19.11-.3c-.17,0-.32-.05-.43-.16-.11-.11-.17-.23-.17-.39s.05-.28.16-.39.24-.16.39-.16Z"></path>
      <path class=" st19_1075076214" d="M137.15,325.45v.9h-4.05v-.7l2.5-2.7c.11-.12.21-.24.3-.37.07-.11.14-.24.21-.37s.1-.27.1-.41c0-.28-.1-.51-.29-.68s-.46-.26-.81-.26c-.33,0-.59.1-.8.3-.21.2-.31.47-.31.79h-.95c0-.29.05-.55.14-.79s.23-.45.41-.61.39-.3.65-.4c.25-.1.54-.14.85-.14s.6.05.85.14c.25.09.47.22.65.39s.31.36.41.59.14.47.14.73c0,.2-.05.4-.14.6s-.2.38-.31.53c-.13.18-.28.35-.45.52l-1.79,1.95h2.69Z"></path>
    </g>
    <g>
      <path class=" st19_1075076214" d="M228.25,313.17v.9h-4.05v-.7l2.5-2.7c.11-.12.21-.24.3-.37.07-.11.14-.24.21-.37s.1-.27.1-.41c0-.28-.1-.51-.29-.68s-.46-.26-.81-.26c-.33,0-.59.1-.8.3-.21.2-.31.47-.31.79h-.95c0-.29.05-.55.14-.79s.23-.45.41-.61.39-.3.65-.4c.25-.1.54-.14.85-.14s.6.05.85.14c.25.09.47.22.65.39s.31.36.41.59.14.47.14.73c0,.2-.05.4-.14.6s-.2.38-.31.53c-.13.18-.28.35-.45.52l-1.79,1.95h2.69Z"></path>
      <path class=" st19_1075076214" d="M234.08,310.92c0,.52-.07.97-.2,1.36-.13.4-.32.73-.55,1s-.5.48-.8.62-.62.21-.96.21-.66-.07-.96-.21-.57-.35-.8-.62-.41-.61-.54-1c-.13-.39-.2-.85-.2-1.36s.07-.97.2-1.37.32-.73.54-1,.49-.48.79-.62.62-.21.96-.21.66.07.96.21.57.35.8.62c.23.27.41.61.55,1s.2.85.2,1.37ZM233.13,310.92c0-.39-.04-.73-.13-1.02s-.21-.54-.35-.73c-.15-.2-.31-.35-.5-.45s-.37-.15-.56-.15-.37.05-.56.15c-.19.1-.35.25-.5.45-.15.2-.26.44-.36.73s-.14.63-.14,1.02.04.73.14,1.02.21.54.36.73c.15.2.31.35.5.45s.37.15.56.15.37-.05.56-.15c.19-.1.35-.25.5-.45.15-.2.26-.44.35-.73s.13-.63.13-1.02Z"></path>
      <path class=" st19_1075076214" d="M235.36,313.02c.15,0,.28.06.39.17s.16.26.16.43c0,.25-.04.47-.12.64s-.18.32-.28.43c-.12.13-.25.24-.4.32l-.15-.2c.07-.05.13-.11.19-.18.05-.06.1-.13.15-.22s.08-.19.11-.3c-.17,0-.32-.05-.43-.16-.11-.11-.17-.23-.17-.39s.05-.28.16-.39.24-.16.39-.16Z"></path>
      <path class=" st19_1075076214" d="M238.79,314.12c-.31,0-.6-.05-.87-.16-.27-.11-.5-.26-.7-.46-.2-.2-.35-.42-.47-.69s-.17-.54-.17-.84c0-.19.03-.37.1-.56.06-.19.13-.35.21-.5.09-.17.19-.34.3-.49l1.75-2.65h1.05l-1.4,2.1s.07-.01.12-.02c.03,0,.07-.01.12-.02s.1-.01.15-.01c.26,0,.51.05.75.16.24.11.46.26.64.46.18.2.33.42.44.69s.17.54.17.84-.06.58-.17.84-.27.49-.47.69c-.2.2-.43.35-.7.46-.27.11-.56.16-.87.16ZM237.54,311.97c0,.19.03.36.1.52.06.16.15.3.27.41.11.11.25.2.4.27.15.07.32.1.49.1s.34-.03.49-.1c.15-.07.29-.16.4-.27.11-.11.2-.25.27-.41.06-.16.1-.33.1-.52s-.03-.36-.1-.52c-.06-.16-.15-.3-.27-.41-.11-.11-.25-.2-.4-.27-.15-.07-.32-.1-.49-.1s-.34.03-.49.1c-.15.07-.29.16-.4.27-.11.11-.2.25-.27.41-.06.16-.1.33-.1.52Z"></path>
    </g>
    <g>
      <path class=" st19_1075076214" d="M158.52,173.14v6.3h-.95v-5l-.85.55-.45-.75,1.6-1.1h.65Z"></path>
      <path class=" st19_1075076214" d="M161.94,175.19c.29,0,.56.05.82.16s.48.26.67.46.34.43.45.69.17.54.17.84-.06.58-.17.84-.27.49-.47.69-.43.35-.7.46-.56.16-.87.16-.6-.05-.85-.14-.47-.22-.65-.38-.32-.34-.43-.55-.16-.44-.18-.68h.95c.01.11.05.22.11.33s.14.2.24.29.22.15.36.21.29.08.44.08c.17,0,.34-.03.49-.1s.29-.16.4-.27.2-.25.27-.41.1-.33.1-.52-.03-.36-.1-.52-.15-.3-.27-.41-.25-.2-.4-.27-.32-.1-.49-.1c-.2,0-.37.04-.52.12s-.27.17-.36.26c-.11.11-.21.24-.27.37h-.8l.4-3.65h3.35v.9h-2.54l-.16,1.5c.07-.06.16-.12.27-.17.09-.04.19-.09.32-.12s.26-.06.41-.06Z"></path>
      <path class=" st19_1075076214" d="M165.32,178.39c.15,0,.28.06.39.17s.16.26.16.43c0,.25-.04.47-.12.65s-.18.32-.28.43c-.12.13-.25.24-.4.32l-.15-.2c.07-.04.13-.11.19-.18.05-.06.1-.13.15-.22s.08-.19.11-.3c-.17,0-.32-.05-.43-.16s-.17-.24-.17-.39.05-.28.16-.39.24-.16.39-.16Z"></path>
      <path class=" st19_1075076214" d="M166.6,174.84c.01-.24.07-.47.17-.68s.24-.4.42-.55.39-.29.63-.38.52-.14.82-.14c.29,0,.55.05.79.14s.45.23.63.39.32.35.42.56.15.43.15.66-.04.42-.12.59-.18.3-.28.4c-.12.12-.25.22-.4.31.19.09.35.2.5.34.13.12.24.28.34.48s.15.44.15.73c0,.24-.05.47-.15.68s-.25.4-.43.57-.41.3-.68.4-.56.15-.88.15-.62-.05-.88-.14-.48-.22-.67-.38-.33-.34-.43-.55-.16-.44-.18-.68h.95c.01.11.05.22.11.33s.14.2.24.29.23.15.37.21.3.08.48.08c.38,0,.68-.1.89-.29s.32-.43.32-.71-.11-.52-.32-.71-.51-.29-.88-.29h-.45v-.85h.4c.33,0,.58-.09.77-.26s.28-.39.28-.64c0-.28-.09-.51-.28-.68s-.44-.26-.77-.26-.58.09-.78.26-.3.39-.33.64h-.95Z"></path>
      <path class=" st19_1075076214" d="M174.41,181.24h-.85l2.6-8.1h.85l-2.6,8.1Z"></path>
      <path class=" st19_1075076214" d="M184.01,178.19h-.7v1.25h-.95v-1.25h-2.8v-.8l2.65-4.25h1.1v4.15h.7v.9ZM182.36,177.29v-2.75l-1.7,2.75h1.7Z"></path>
      <path class=" st19_1075076214" d="M185.14,178.39c.15,0,.28.06.39.17s.16.26.16.43c0,.25-.04.47-.12.65s-.18.32-.28.43c-.12.13-.25.24-.4.32l-.15-.2c.07-.04.13-.11.19-.18.05-.06.1-.13.15-.22s.08-.19.11-.3c-.17,0-.32-.05-.43-.16s-.17-.24-.17-.39.05-.28.16-.39.24-.16.39-.16Z"></path>
      <path class=" st19_1075076214" d="M188.57,179.49c-.31,0-.6-.05-.87-.16s-.5-.26-.7-.46-.35-.43-.47-.69-.17-.54-.17-.84c0-.19.03-.37.1-.56s.13-.35.21-.5c.09-.17.19-.34.3-.49l1.75-2.65h1.05l-1.4,2.1s.07-.01.12-.02c.03,0,.07-.01.12-.02s.1,0,.15,0c.26,0,.51.05.75.16s.46.26.64.46.33.43.44.69.17.54.17.84-.06.58-.17.84-.27.49-.47.69-.43.35-.7.46-.56.16-.87.16ZM187.32,177.34c0,.19.03.36.1.52s.15.3.27.41.25.2.4.27.32.1.49.1.34-.03.49-.1.29-.16.4-.27.2-.25.27-.41.1-.33.1-.52-.03-.36-.1-.52-.15-.3-.27-.41-.25-.2-.4-.27-.32-.1-.49-.1-.34.03-.49.1-.29.16-.4.27-.2.25-.27.41-.1.34-.1.52Z"></path>
      <path class=" st19_1075076214" d="M192.35,174.74l-1-.25.2-.65.95.35-.05-1.05h.7l-.05,1.05.95-.35.2.65-1,.25.65.8-.6.4-.5-.85-.5.85-.6-.4.65-.8Z"></path>
    </g>
    <g>
      <path class=" st19_1075076214" d="M316.13,256.97v6.3h-.95v-5l-.85.55-.45-.75,1.6-1.1h.65Z"></path>
      <path class=" st19_1075076214" d="M319.41,256.97v6.3h-.95v-5l-.85.55-.45-.75,1.6-1.1h.65Z"></path>
      <path class=" st19_1075076214" d="M321.09,262.22c.15,0,.28.06.39.17s.16.26.16.43c0,.25-.04.47-.12.64-.08.18-.18.32-.28.43-.12.13-.25.24-.4.32l-.15-.2c.07-.05.13-.11.19-.18.05-.06.1-.13.15-.22s.08-.19.11-.3c-.17,0-.32-.05-.43-.16s-.17-.23-.17-.39.05-.28.16-.39.24-.16.39-.16Z"></path>
      <path class=" st19_1075076214" d="M326.67,262.02h-.7v1.25h-.95v-1.25h-2.8v-.8l2.65-4.25h1.1v4.15h.7v.9ZM325.02,261.12v-2.75l-1.7,2.75h1.7Z"></path>
    </g>
    <g>
      <path class=" st19_1075076214" d="M356.38,256.97v6.3h-.95v-5l-.85.55-.45-.75,1.6-1.1h.65Z"></path>
      <path class=" st19_1075076214" d="M359.65,256.97v6.3h-.95v-5l-.85.55-.45-.75,1.6-1.1h.65Z"></path>
      <path class=" st19_1075076214" d="M361.33,262.22c.15,0,.28.06.39.17s.16.26.16.43c0,.25-.04.47-.12.64-.08.18-.18.32-.28.43-.12.13-.25.24-.4.32l-.15-.2c.07-.05.13-.11.19-.18.05-.06.1-.13.15-.22s.08-.19.11-.3c-.17,0-.32-.05-.43-.16s-.17-.23-.17-.39.05-.28.16-.39.24-.16.39-.16Z"></path>
      <path class=" st19_1075076214" d="M366.91,262.02h-.7v1.25h-.95v-1.25h-2.8v-.8l2.65-4.25h1.1v4.15h.7v.9ZM365.26,261.12v-2.75l-1.7,2.75h1.7Z"></path>
    </g>
    <g>
      <path class=" st19_1075076214" d="M475.99,329.32v6.3h-.95v-5l-.85.55-.45-.75,1.6-1.1h.65Z"></path>
      <path class=" st19_1075076214" d="M482.17,332.47c0,.52-.07.97-.2,1.36-.13.4-.32.73-.55,1s-.5.48-.8.62-.62.21-.96.21-.66-.07-.96-.21c-.3-.14-.57-.35-.8-.62-.23-.27-.41-.61-.54-1-.13-.39-.2-.85-.2-1.36s.07-.97.2-1.37.32-.73.54-1c.23-.27.49-.48.79-.62s.62-.21.96-.21.66.07.96.21.56.35.8.62c.23.27.41.61.55,1s.2.85.2,1.37ZM481.21,332.47c0-.39-.05-.73-.13-1.02-.09-.29-.21-.54-.35-.73-.15-.2-.31-.35-.5-.45-.19-.1-.37-.15-.56-.15s-.37.05-.56.15c-.19.1-.35.25-.5.45-.15.2-.27.44-.36.73s-.14.63-.14,1.02.05.73.14,1.02.21.54.36.73c.15.2.31.35.5.45.19.1.37.15.56.15s.37-.05.56-.15c.19-.1.35-.25.5-.45.15-.2.27-.44.35-.73.09-.29.13-.63.13-1.02Z"></path>
      <path class=" st19_1075076214" d="M483.44,334.57c.15,0,.28.06.39.17s.16.26.16.43c0,.25-.04.47-.12.64-.08.18-.18.32-.28.43-.12.13-.25.24-.4.32l-.15-.2c.07-.05.13-.11.19-.18.05-.06.1-.13.15-.22s.08-.19.11-.3c-.17,0-.32-.05-.43-.16-.11-.11-.17-.23-.17-.39s.05-.28.16-.39.24-.16.39-.16Z"></path>
      <path class=" st19_1075076214" d="M486.87,329.27c.31,0,.6.05.87.16.27.11.5.26.7.46.2.2.35.42.47.69s.17.54.17.84c0,.19-.03.38-.1.56-.06.18-.13.35-.21.49-.09.17-.19.33-.3.49l-1.75,2.65h-1.05l1.4-2.1s-.07.02-.11.03c-.03,0-.07.01-.12.02-.05,0-.1,0-.16,0-.26,0-.51-.05-.76-.16-.24-.11-.45-.26-.64-.46-.18-.2-.33-.42-.44-.69s-.17-.54-.17-.84.06-.58.17-.84.27-.49.47-.69c.2-.2.43-.35.7-.46.27-.11.56-.16.87-.16ZM488.12,331.42c0-.19-.03-.36-.1-.52-.06-.16-.15-.3-.27-.41-.11-.11-.25-.2-.4-.27-.15-.07-.32-.1-.49-.1s-.33.03-.49.1c-.15.07-.29.16-.4.27-.11.11-.2.25-.27.41-.06.16-.1.33-.1.52s.03.36.1.52c.06.16.15.3.27.41s.25.2.4.27c.15.07.32.1.49.1s.33-.03.49-.1c.15-.07.29-.16.4-.27s.2-.25.27-.41c.07-.16.1-.33.1-.52Z"></path>
    </g>
    <g>
      <path class=" st19_1075076214" d="M180.81,282.04c.01-.24.07-.47.17-.68.1-.21.24-.39.42-.55s.39-.29.63-.38.52-.14.82-.14c.29,0,.55.05.79.14s.45.23.63.39.32.35.42.56c.1.21.15.43.15.66s-.04.42-.12.59-.18.3-.28.4c-.12.12-.25.22-.4.31.19.09.35.2.5.34.13.12.24.28.34.48.1.2.15.44.15.73,0,.24-.05.47-.15.68s-.25.4-.43.57c-.19.17-.41.3-.68.4-.26.1-.56.15-.88.15s-.62-.05-.88-.14c-.26-.09-.48-.22-.67-.38s-.33-.34-.43-.55c-.1-.21-.16-.43-.18-.68h.95c.01.11.05.22.11.33.06.11.14.2.24.29.1.09.23.15.37.2.15.05.3.08.48.08.38,0,.68-.1.89-.29.21-.19.32-.43.32-.71s-.11-.52-.32-.71-.51-.29-.88-.29h-.45v-.85h.4c.33,0,.58-.09.77-.26s.28-.39.28-.64c0-.28-.09-.51-.28-.68s-.44-.26-.77-.26-.58.09-.78.26-.3.39-.33.64h-.95Z"></path>
      <path class=" st19_1075076214" d="M185.84,282.04c.01-.24.07-.47.17-.68.1-.21.24-.39.42-.55s.39-.29.63-.38.52-.14.82-.14c.29,0,.55.05.79.14s.45.23.63.39.32.35.42.56c.1.21.15.43.15.66s-.04.42-.12.59-.18.3-.28.4c-.12.12-.25.22-.4.31.19.09.35.2.5.34.13.12.24.28.34.48.1.2.15.44.15.73,0,.24-.05.47-.15.68s-.25.4-.43.57c-.19.17-.41.3-.68.4-.26.1-.56.15-.88.15s-.62-.05-.88-.14c-.26-.09-.48-.22-.67-.38s-.33-.34-.43-.55c-.1-.21-.16-.43-.18-.68h.95c.01.11.05.22.11.33.06.11.14.2.24.29.1.09.23.15.37.2.15.05.3.08.48.08.38,0,.68-.1.89-.29.21-.19.32-.43.32-.71s-.11-.52-.32-.71-.51-.29-.88-.29h-.45v-.85h.4c.33,0,.58-.09.77-.26s.28-.39.28-.64c0-.28-.09-.51-.28-.68s-.44-.26-.77-.26-.58.09-.78.26-.3.39-.33.64h-.95Z"></path>
      <path class=" st19_1075076214" d="M191.36,285.58c.15,0,.28.06.39.17s.16.26.16.43c0,.25-.04.47-.12.64s-.18.32-.28.43c-.12.13-.25.24-.4.32l-.15-.2c.07-.05.13-.11.19-.18.05-.06.1-.13.15-.22s.08-.19.11-.3c-.17,0-.32-.05-.43-.16-.11-.11-.17-.23-.17-.39s.05-.28.16-.39.24-.16.39-.16Z"></path>
      <path class=" st19_1075076214" d="M194.79,280.29c.31,0,.6.05.87.16s.5.26.7.46.35.43.47.69c.11.26.17.54.17.84,0,.19-.03.38-.1.56s-.13.35-.21.49c-.09.17-.19.33-.3.49l-1.75,2.65h-1.05l1.4-2.1s-.07.02-.11.03c-.03,0-.07.01-.12.02s-.1,0-.16,0c-.26,0-.51-.05-.75-.16-.24-.11-.46-.26-.64-.46-.18-.2-.33-.42-.44-.69s-.17-.54-.17-.84.06-.58.17-.84c.11-.26.27-.49.47-.69s.43-.35.7-.46.56-.16.87-.16ZM196.04,282.44c0-.19-.03-.36-.1-.52-.06-.16-.15-.3-.27-.41-.11-.11-.25-.2-.4-.27-.15-.07-.32-.1-.49-.1s-.34.03-.49.1c-.15.07-.29.16-.4.27-.11.11-.2.25-.27.41s-.1.33-.1.52.03.36.1.52.15.3.27.41.25.2.4.27c.15.07.32.1.49.1s.34-.03.49-.1c.15-.07.29-.16.4-.27s.2-.25.27-.41.1-.33.1-.52Z"></path>
    </g>
  </g>
</svg></svg>