<svg xmlns="http://www.w3.org/2000/svg" version="1.1" xmlns:xlink="http://www.w3.org/1999/xlink"><svg data-name="Слой_1" xmlns="http://www.w3.org/2000/svg" xmlns:xlink="http://www.w3.org/1999/xlink" version="1.1" viewBox="0 0 560 560">
  
  <defs>
    <style>
      .st0_319019293, .st1_319019293, .st2_319019293, .st3_319019293, .st4_319019293, .st5_319019293, .st6_319019293 {
        fill: none;
      }

      .st1_319019293, .st2_319019293, .st3_319019293, .st4_319019293, .st5_319019293, .st7_319019293, .st8_319019293, .st9_319019293, .st10_319019293, .st11_319019293, .st12_319019293, .st13_319019293, .st14_319019293, .st15_319019293, .st16_319019293, .st6_319019293, .st17_319019293, .st18_319019293 {
        stroke-linecap: round;
        stroke-linejoin: round;
      }

      .st1_319019293, .st5_319019293, .st9_319019293, .st10_319019293, .st6_319019293, .st17_319019293, .st18_319019293 {
        stroke-width: .5px;
      }

      .st1_319019293, .st9_319019293 {
        stroke: #d8cbb5;
      }

      .st2_319019293 {
        stroke-width: .25px;
      }

      .st2_319019293, .st3_319019293, .st4_319019293, .st5_319019293, .st7_319019293, .st8_319019293, .st10_319019293, .st11_319019293, .st12_319019293, .st13_319019293, .st14_319019293, .st15_319019293, .st16_319019293, .st6_319019293, .st18_319019293 {
        stroke: #1b4732;
      }

      .st3_319019293 {
        stroke-width: .5px;
      }

      .st4_319019293 {
        stroke-width: .5px;
      }

      .st7_319019293 {
        stroke-width: .5px;
      }

      .st7_319019293, .st8_319019293 {
        fill: #fff;
      }

      .st8_319019293 {
        stroke-width: .5px;
      }

      .st9_319019293 {
        fill: url(#_Терраса);
      }

      .st19_319019293 {
        fill: #1b4732;
      }

      .st10_319019293, .st11_319019293, .st12_319019293, .st13_319019293, .st14_319019293, .st15_319019293, .st16_319019293 {
        fill: #f5e8d1;
      }

      .st11_319019293 {
        stroke-width: .5px;
      }

      .st12_319019293 {
        stroke-width: .5px;
      }

      .st13_319019293 {
        stroke-width: .5px;
      }

      .st14_319019293 {
        stroke-width: .5px;
      }

      .st15_319019293 {
        stroke-width: .5px;
      }

      .st16_319019293 {
        stroke-width: .5px;
      }

      .st6_319019293 {
        stroke-dasharray: 3;
      }

      .st17_319019293 {
        fill: #666c35;
        stroke: #666c35;
      }

      .st18_319019293 {
        fill: #e1d1b6;
      }
    </style>
    <pattern data-name="Терраса" x="0" y="0" width="10.1" height="8.7" patternTransform="translate(-8 -15304) scale(1 -1)" patternUnits="userSpaceOnUse" viewBox="0 0 10.1 8.7">
      <g>
        <rect class=" st0_319019293" width="10.1" height="8.7"></rect>
        <g>
          <rect class=" st0_319019293" width="10.1" height="8.7"></rect>
          <g>
            <line class=" st1_319019293" x1="10.15" y1="6.4" x2="20.15" y2="6.4"></line>
            <line class=" st1_319019293" x1="10.15" y1="2.3" x2="20.15" y2="2.3"></line>
          </g>
          <g>
            <line class=" st1_319019293" x1=".05" y1="6.4" x2="10.05" y2="6.4"></line>
            <line class=" st1_319019293" x1=".05" y1="2.3" x2="10.05" y2="2.3"></line>
          </g>
          <g>
            <line class=" st1_319019293" x1="-10.05" y1="6.4" x2="-.05" y2="6.4"></line>
            <line class=" st1_319019293" x1="-10.05" y1="2.3" x2="-.05" y2="2.3"></line>
          </g>
        </g>
      </g>
    </pattern>
  </defs>
  <g>
    <line class=" st6_319019293" x1="327.99" y1="243.53" x2="267.65" y2="243.52"></line>
    <line class=" st6_319019293" x1="281.53" y1="388.56" x2="281.53" y2="243.52"></line>
    <line class=" st6_319019293" x1="402.39" y1="125.14" x2="402.39" y2="78.37"></line>
  </g>
  <g>
    <path class=" st9_319019293" d="M125.02,464.23h181.61c32.14,0,58.28-25.76,58.28-57.89l.05-.04-69.97.04v-4.22h-156.13v4.22l-71.49.13c.07,31.73,25.9,57.77,57.65,57.77Z"></path>
  </g>
  <g>
    <rect class=" st5_319019293" x="61.63" y="145.08" width="7.56" height="34.29"></rect>
    <rect class=" st5_319019293" x="61.63" y="181.91" width="7.56" height="22.47"></rect>
    <rect class=" st5_319019293" x="61.63" y="206.92" width="7.56" height="33.66"></rect>
    <rect class=" st5_319019293" x="61.63" y="243.15" width="7.56" height="43.92"></rect>
    <rect class=" st5_319019293" x="61.63" y="289.6" width="7.56" height="22.49"></rect>
    <rect class=" st5_319019293" x="61.63" y="314.64" width="7.56" height="43.83"></rect>
    <polygon class=" st5_319019293" points="138.87 398.79 138.87 406.33 61.65 406.33 61.65 398.79 61.63 398.79 61.63 361.03 69.19 361.03 69.19 398.79 138.87 398.79"></polygon>
    <rect class=" st5_319019293" x="403.16" y="359.67" width="22.9" height="7.54"></rect>
    <rect class=" st5_319019293" x="428.6" y="359.67" width="27.96" height="7.54"></rect>
    <rect class=" st5_319019293" x="61.63" y="142.53" width="7.56" height="2.54"></rect>
    <rect class=" st5_319019293" x="61.63" y="204.38" width="7.56" height="2.54"></rect>
    <rect class=" st5_319019293" x="61.63" y="179.37" width="7.56" height="2.54"></rect>
    <rect class=" st5_319019293" x="294.99" y="398.8" width="38.94" height="7.54"></rect>
    <rect class=" st5_319019293" x="400.62" y="359.64" width="2.54" height=".02"></rect>
    <rect class=" st5_319019293" x="426.06" y="359.67" width="2.54" height="7.54"></rect>
    <rect class=" st5_319019293" x="426.06" y="359.64" width="2.54" height=".02"></rect>
    <rect class=" st5_319019293" x="454.01" y="359.65" width="2.55" height="7.54"></rect>
    <rect class=" st5_319019293" x="331.39" y="398.79" width="2.55" height="7.54"></rect>
    <rect class=" st5_319019293" x="400.62" y="359.67" width="2.54" height="7.54"></rect>
    <rect class=" st5_319019293" x="373.2" y="365.93" width="27.42" height="1.27"></rect>
    <rect class=" st5_319019293" x="403.16" y="365.93" width="22.9" height="1.27"></rect>
    <rect class=" st5_319019293" x="428.6" y="365.93" width="25.4" height="1.27"></rect>
    <rect class=" st5_319019293" x="294.99" y="398.79" width="2.54" height="7.54"></rect>
    <rect class=" st5_319019293" x="297.53" y="405.06" width="33.86" height="1.27"></rect>
    <rect class=" st5_319019293" x="136.32" y="398.79" width="2.54" height="7.54"></rect>
    <rect class=" st5_319019293" x="96.45" y="398.79" width="2.57" height="7.54"></rect>
    <polygon class=" st5_319019293" points="64.66 405.06 96.45 405.06 96.45 406.33 63.35 406.33 64.66 405.06"></polygon>
    <rect class=" st5_319019293" x="99.01" y="405.06" width="37.31" height="1.27"></rect>
    <rect class=" st5_319019293" x="61.63" y="145.08" width="1.27" height="34.29"></rect>
    <rect class=" st5_319019293" x="61.63" y="181.91" width="1.27" height="22.47"></rect>
    <rect class=" st5_319019293" x="61.63" y="240.58" width="7.56" height="2.57"></rect>
    <rect class=" st5_319019293" x="61.63" y="206.92" width="1.27" height="33.66"></rect>
    <rect class=" st5_319019293" x="61.63" y="287.06" width="7.56" height="2.54"></rect>
    <rect class=" st5_319019293" x="61.63" y="243.15" width="1.27" height="43.92"></rect>
    <rect class=" st5_319019293" x="61.63" y="312.1" width="7.56" height="2.54"></rect>
    <rect class=" st5_319019293" x="61.63" y="289.6" width="1.27" height="22.49"></rect>
    <rect class=" st5_319019293" x="61.63" y="358.46" width="7.56" height="2.57"></rect>
    <rect class=" st5_319019293" x="61.63" y="314.64" width="1.27" height="43.83"></rect>
    <polygon class=" st5_319019293" points="61.63 361.03 62.9 361.03 62.9 403.14 61.63 404.45 61.63 361.03"></polygon>
    <line class=" st5_319019293" x1="63.35" y1="406.33" x2="70.78" y2="398.88"></line>
    <line class=" st5_319019293" x1="69.08" y1="396.98" x2="61.63" y2="404.39"></line>
  </g>
  <g>
    <rect class=" st8_319019293" x="61.51" y="193.29" width="22.12" height="1.07" transform="translate(-133.43 213.76) rotate(-75)"></rect>
    <rect class=" st8_319019293" x="72.03" y="289.16" width="1.07" height="22.12" transform="translate(-75.23 29.01) rotate(-15)"></rect>
    <rect class=" st7_319019293" x="402.66" y="355.75" width="22.12" height="1.07" transform="translate(-78.11 119.21) rotate(-15)"></rect>
  </g>
  <g>
    <path class=" st2_319019293" d="M69.19,145.27h10.29v91.14h-10.29v-91.14ZM79.48,150.79h-10.29M79.48,156.54h-10.29M79.48,162.28h-10.29M79.48,168.03h-10.29M79.48,173.77h-10.29M79.48,179.52h-10.29M79.48,185.26h-10.29M79.48,191.01h-10.29M79.48,196.75h-10.29M79.48,202.5h-10.29M79.48,208.24h-10.29M79.48,213.99h-10.29M79.48,219.74h-10.29M79.48,225.48h-10.29M79.48,231.23h-10.29M346.34,388.57v10.27s-277.15-.05-277.15-.05l10.27-10.27,266.88.05ZM80.27,388.69v9.99M74.64,393.32v5.36M86.59,388.55v10.25M92.79,388.55v10.25M98.99,388.55v10.25M105.19,388.55v10.25M111.39,388.55v10.25M117.6,388.55v10.25M123.8,388.55v10.25M130,388.55v10.25M136.2,388.55v10.25M142.4,388.55v10.25M148.6,388.55v10.25M154.8,388.55v10.25M161,388.55v10.25M167.2,388.55v10.25M173.4,388.55v10.25M179.61,388.55v10.25M185.81,388.56v10.25M191.6,388.56v10.25M197.4,388.56v10.25M203.2,388.56v10.25M209,388.56v10.25M214.79,388.56v10.25M220.59,388.56v10.25M226.39,388.56v10.25M232.19,388.56v10.25M237.99,388.56v10.25M243.78,388.56v10.25M249.58,388.56v10.25M255.49,388.56v10.25M261.41,388.56v10.25M267.32,388.56v10.25M273.33,388.56v10.25M279.34,388.56v10.25M285.35,388.56v10.25M291.36,388.56v10.25M297.37,388.56v10.25M303.38,388.56v10.25M309.39,388.56v10.25M315.39,388.56v10.25M321.4,388.56v10.25M327.41,388.56v10.25M333.42,388.56v10.25M339.43,388.56v10.25M69.19,398.79v-150.48h10.27v139.9M74.64,393.32h-5.34M79.35,387.67h-10.04M69.17,381.35h10.31M69.17,375.15h10.31M69.17,369.06h10.31M69.17,362.98h10.31M69.17,356.89h10.31M69.17,350.8h10.31M69.17,344.71h10.31M69.17,338.63h10.31M69.17,332.54h10.31M69.17,326.45h10.31M69.17,320.36h10.31M69.17,314.28h10.31M69.17,308.19h10.31M69.17,302.1h10.31M69.17,296.02h10.31M69.17,289.93h10.31M69.17,283.84h10.31M69.17,277.75h10.31M69.17,271.67h10.31M69.17,265.58h10.31M69.17,259.49h10.31M69.17,253.4h10.31M366.77,359.67v-10.29h88.85v10.29h-88.85ZM449.61,349.4v10.25M443.6,349.4v10.25M437.59,349.4v10.25M431.58,349.4v10.25M425.57,349.4v10.25M419.56,349.4v10.25M413.55,349.4v10.25M407.54,349.4v10.25M401.53,349.4v10.25M395.52,349.4v10.25M389.51,349.4v10.25M383.51,349.4v10.25M377.49,349.4v10.25M371.49,349.4v10.25"></path>
  </g>
  <g>
    <rect class=" st10_319019293" x="362.52" y="78.37" width="19.81" height="28.01"></rect>
    <circle class=" st10_319019293" cx="137.45" cy="449.9" r="9.76"></circle>
    <g>
      <rect class=" st10_319019293" x="276.88" y="427.73" width="42.02" height="21.6"></rect>
      <g>
        <path class=" st10_319019293" d="M315.03,457.95v-8.62h-11.94v8.62c0,1.11.89,2,2,2h7.94c1.1,0,2-.9,2-2Z"></path>
        <path class=" st10_319019293" d="M315.03,455.05v-5.72h-11.94v5.72c0,1.11.89,2,2,2h7.94c1.1,0,2-.9,2-2Z"></path>
      </g>
      <g>
        <path class=" st10_319019293" d="M293.01,457.95v-8.62h-11.94v8.62c0,1.11.89,2,2,2h7.94c1.1,0,2-.9,2-2Z"></path>
        <path class=" st10_319019293" d="M293.01,455.05v-5.72h-11.94v5.72c0,1.11.89,2,2,2h7.94c1.1,0,2-.9,2-2Z"></path>
      </g>
      <g>
        <path class=" st10_319019293" d="M281.07,419.11v8.62h11.94v-8.62c0-1.11-.89-2-2-2h-7.94c-1.1,0-2,.9-2,2Z"></path>
        <path class=" st10_319019293" d="M281.07,422.01v5.72h11.94v-5.72c0-1.11-.89-2-2-2h-7.94c-1.1,0-2,.9-2,2Z"></path>
      </g>
      <g>
        <path class=" st10_319019293" d="M303.09,419.11v8.62h11.94v-8.62c0-1.11-.89-2-2-2h-7.94c-1.1,0-2,.9-2,2Z"></path>
        <path class=" st10_319019293" d="M303.09,422.01v5.72h11.94v-5.72c0-1.11-.89-2-2-2h-7.94c-1.1,0-2,.9-2,2Z"></path>
      </g>
    </g>
    <g>
      <rect class=" st10_319019293" x="268.44" y="309.24" width="24.99" height="63.02"></rect>
      <g>
        <path class=" st10_319019293" d="M257.06,361.82h11.38v-15.05h-11.38c-1.1,0-2,.89-2,2v11.05c0,1.1.9,2,2,2Z"></path>
        <path class=" st10_319019293" d="M260.71,361.82h7.73v-15.05h-7.73c-1.11,0-2,.89-2,2v11.05c0,1.1.89,2,2,2Z"></path>
      </g>
      <g>
        <path class=" st10_319019293" d="M304.81,361.82h-11.38v-15.05h11.38c1.11,0,2,.89,2,2v11.05c0,1.1-.89,2-2,2Z"></path>
        <path class=" st10_319019293" d="M301.16,361.82h-7.73v-15.05h7.73c1.11,0,2,.89,2,2v11.05c0,1.1-.89,2-2,2Z"></path>
      </g>
      <g>
        <path class=" st10_319019293" d="M257.06,334.74h11.38v-15.05h-11.38c-1.1,0-2,.89-2,2v11.05c0,1.1.9,2,2,2Z"></path>
        <path class=" st10_319019293" d="M260.71,334.74h7.73v-15.05h-7.73c-1.11,0-2,.89-2,2v11.05c0,1.1.89,2,2,2Z"></path>
      </g>
      <g>
        <path class=" st10_319019293" d="M304.81,334.74h-11.38v-15.05h11.38c1.11,0,2,.89,2,2v11.05c0,1.1-.89,2-2,2Z"></path>
        <path class=" st10_319019293" d="M301.16,334.74h-7.73v-15.05h7.73c1.11,0,2,.89,2,2v11.05c0,1.1-.89,2-2,2Z"></path>
      </g>
    </g>
    <g>
      <path class=" st10_319019293" d="M155.97,423.38c.13-.17.25-.34.38-.5,6.61-7.78,18.27-8.74,26.06-2.13,7.78,6.61,8.74,18.27,2.13,26.06-.14.16-.29.3-.43.46l-28.14-23.88Z"></path>
      <circle class=" st10_319019293" cx="170.04" cy="435.32" r="14.19"></circle>
      <path class=" st10_319019293" d="M185.71,429.86l-12.82-10.89c-.21-.18-.53-.15-.71.06l-5.04,5.94c-.18.21-.15.53.06.7l12.82,10.89c.21.18.53.15.71-.06l5.04-5.94c.18-.21.15-.53-.06-.7Z"></path>
    </g>
    <g>
      <path class=" st10_319019293" d="M116.34,422.09c-.15-.15-.28-.31-.44-.45-7.49-6.94-19.18-6.5-26.13.99s-6.5,19.18.99,26.13c.16.14.32.27.48.4l25.1-27.07Z"></path>
      <circle class=" st10_319019293" cx="103.79" cy="435.62" r="14.19"></circle>
      <path class=" st10_319019293" d="M87.58,432.07l11.44-12.34c.19-.2.5-.21.71-.03l5.71,5.3c.2.19.21.5.03.71l-11.44,12.34c-.19.2-.5.21-.71.03l-5.71-5.3c-.2-.19-.22-.5-.03-.71Z"></path>
    </g>
    <rect class=" st10_319019293" x="353.71" y="247.12" width="9.12" height="89.49"></rect>
    <g>
      <rect class=" st10_319019293" x="362.5" y="106.38" width="19.82" height="19.93"></rect>
      <rect class=" st10_319019293" x="365.01" y="109.04" width="3.29" height="4.63"></rect>
      <rect class=" st10_319019293" x="360.76" y="109.05" width="1.75" height="14.31"></rect>
    </g>
    <rect class=" st10_319019293" x="199.71" y="165.54" width="16.31" height="35.4"></rect>
    <g>
      <path class=" st10_319019293" d="M213.35,174.25h-8.77v16.66h8.77c.55,0,1-.45,1-1v-14.66c0-.55-.45-1-1-1Z"></path>
      <rect class=" st10_319019293" x="203.3" y="174.25" width="1.28" height="16.66"></rect>
      <rect class=" st10_319019293" x="201.37" y="181.78" width="4.9" height="1.6"></rect>
      <circle class=" st10_319019293" cx="208.87" cy="182.58" r="1.13"></circle>
    </g>
    <rect class=" st10_319019293" x="398.4" y="225.46" width="37.19" height="17.85"></rect>
    <g>
      <path class=" st10_319019293" d="M408.66,228.89v8.77h16.66v-8.77c0-.55-.45-1-1-1h-14.66c-.55,0-1,.45-1,1Z"></path>
      <rect class=" st13_319019293" x="408.66" y="237.67" width="16.66" height="1.28"></rect>
      <rect class=" st13_319019293" x="416.19" y="235.98" width="1.6" height="4.9"></rect>
      <circle class=" st10_319019293" cx="417" cy="233.38" r="1.14"></circle>
    </g>
    <rect class=" st10_319019293" x="316.71" y="78.37" width="37.19" height="17.85"></rect>
    <g>
      <path class=" st10_319019293" d="M343.64,92.79v-8.77h-16.66v8.77c0,.55.45,1,1,1h14.66c.55,0,1-.45,1-1Z"></path>
      <rect class=" st13_319019293" x="326.97" y="82.73" width="16.66" height="1.28"></rect>
      <rect class=" st13_319019293" x="334.5" y="80.8" width="1.6" height="4.9"></rect>
      <circle class=" st10_319019293" cx="335.3" cy="88.3" r="1.14"></circle>
    </g>
    <g>
      <path class=" st10_319019293" d="M312.62,109.77v9.49c0,.83-.67,1.5-1.5,1.5h-13.59v-12.49h13.59c.83,0,1.5.67,1.5,1.5Z"></path>
      <rect class=" st11_319019293" x="293.89" y="108.27" width="3.64" height="12.49"></rect>
    </g>
    <g>
      <path class=" st10_319019293" d="M422.41,197.22h-9.49c-.83,0-1.5-.67-1.5-1.5v-13.59h12.49v13.59c0,.83-.67,1.5-1.5,1.5Z"></path>
      <rect class=" st10_319019293" x="411.43" y="178.49" width="12.49" height="3.64"></rect>
    </g>
    <g>
      <path class=" st10_319019293" d="M245.21,187.32v-9.49c0-.83.67-1.5,1.5-1.5h13.59v12.49h-13.59c-.83,0-1.5-.67-1.5-1.5Z"></path>
      <rect class=" st10_319019293" x="260.3" y="176.34" width="3.64" height="12.49"></rect>
    </g>
    <g>
      <g>
        <rect class=" st12_319019293" x="435.59" y="178.49" width="26.07" height="64.82"></rect>
        <path class=" st10_319019293" d="M459.81,182.94v51.46c0,1.9-1.54,3.43-3.43,3.43h-14.67c-1.9,0-3.43-1.54-3.43-3.43v-51.46c0-1.08.88-1.96,1.96-1.96h17.62c1.08,0,1.96.88,1.96,1.96Z"></path>
        <path class=" st10_319019293" d="M443.85,178.84v3.21c0,.28.22.5.5.5h8.46c.28,0,.5-.22.5-.5v-3.21h-9.46Z"></path>
        <rect class=" st14_319019293" x="444.39" y="182.55" width="2.84" height="1.58"></rect>
        <ellipse class=" st10_319019293" cx="448.58" cy="193.28" rx="4.4" ry="4.04"></ellipse>
      </g>
      <line class=" st5_319019293" x1="448.58" y1="178.49" x2="448.58" y2="193.28"></line>
    </g>
    <rect class=" st15_319019293" x="237.51" y="164.57" width="26.43" height="1.2"></rect>
    <g>
      <path class=" st10_319019293" d="M263.94,144.42h-3.21c-.28,0-.5.22-.5.5v7.91c0,.28.22.5.5.5h3.21v-8.91Z"></path>
      <rect class=" st10_319019293" x="258.65" y="144.93" width="1.58" height="2.67"></rect>
      <ellipse class=" st10_319019293" cx="249.5" cy="148.87" rx="4.04" ry="4.14"></ellipse>
      <line class=" st5_319019293" x1="263.94" y1="148.87" x2="249.5" y2="148.87"></line>
    </g>
    <g>
      <rect class=" st10_319019293" x="148.82" y="132.48" width="14.05" height="14.22"></rect>
      <rect class=" st10_319019293" x="148.82" y="146.7" width="14.05" height="1.9"></rect>
      <rect class=" st10_319019293" x="110.01" y="132.48" width="38.82" height="3.26"></rect>
      <rect class=" st10_319019293" x="110.01" y="135.74" width="38.82" height="17.8"></rect>
      <rect class=" st10_319019293" x="112.4" y="138.31" width="16.07" height="12.76"></rect>
      <rect class=" st10_319019293" x="130.38" y="138.31" width="16.04" height="12.76"></rect>
      <polygon class=" st10_319019293" points="132.58 146.14 116.85 156.89 113.75 154.83 110.01 153.53 110.01 197.47 148.82 197.47 148.82 146.14 132.58 146.14"></polygon>
      <polygon class=" st10_319019293" points="110.01 153.53 113.75 154.83 116.85 156.89 132.58 146.14 129.81 146.14 110.01 153.53"></polygon>
    </g>
    <g>
      <rect class=" st10_319019293" x="447.52" y="270.98" width="14.14" height="14.52"></rect>
      <rect class=" st10_319019293" x="445.63" y="270.98" width="1.89" height="14.52"></rect>
      <rect class=" st10_319019293" x="447.52" y="332.3" width="14.14" height="14.52"></rect>
      <rect class=" st10_319019293" x="445.63" y="332.3" width="1.89" height="14.52"></rect>
      <rect class=" st10_319019293" x="458.42" y="285.49" width="3.24" height="46.8"></rect>
      <rect class=" st10_319019293" x="440.72" y="285.49" width="17.7" height="46.8"></rect>
      <rect class=" st10_319019293" x="443.18" y="288.38" width="12.69" height="19.38"></rect>
      <rect class=" st10_319019293" x="443.18" y="310.07" width="12.69" height="19.35"></rect>
      <polygon class=" st10_319019293" points="448.08 312.72 437.39 293.75 439.43 290 440.72 285.49 397.02 285.49 397.02 332.3 448.08 332.3 448.08 312.72"></polygon>
      <polygon class=" st10_319019293" points="440.72 285.49 439.43 290 437.39 293.75 448.08 312.72 448.08 309.37 440.72 285.49"></polygon>
    </g>
    <g>
      <g>
        <rect class=" st10_319019293" x="354.82" y="278.58" width="1.47" height="35.65"></rect>
        <rect class=" st10_319019293" x="353.71" y="294.01" width="1.11" height="4.81"></rect>
      </g>
      <polyline class=" st5_319019293" points="359.36 304.1 356.29 296.39 359.36 288.69"></polyline>
    </g>
    <g>
      <g>
        <rect class=" st10_319019293" x="162.09" y="245.16" width="52.58" height="2.17"></rect>
        <rect class=" st10_319019293" x="184.83" y="243.52" width="7.1" height="1.64"></rect>
      </g>
      <polyline class=" st5_319019293" points="177.04 251.86 188.4 247.33 199.76 251.86"></polyline>
    </g>
    <circle class=" st10_319019293" cx="165.13" cy="367.62" r="9.76"></circle>
    <g>
      <circle class=" st10_319019293" cx="169.2" cy="315.96" r="38.79"></circle>
      <circle class=" st10_319019293" cx="184.81" cy="332.18" r="11.43"></circle>
      <circle class=" st10_319019293" cx="162.72" cy="312.18" r="22.08"></circle>
    </g>
    <g>
      <path class=" st10_319019293" d="M209.29,289.96c4.45,6.33,10.69,15.48,10.69,27.44,0,7.9-3.25,13.8-5.51,20.06-6.77,19.68,22.79,26.95,27.19,7.42,4.51-22.87,4.73-50.78-9.37-68.07-9.16-14.42-30.92-1.79-22.99,13.14Z"></path>
      <path class=" st10_319019293" d="M232.94,299.65c2.02,3.4,4.86,8.35,4.86,14.82-.01,7.37-7.13,19.05,2.93,21.13,9.16,1.9,9.62-18.72,9.12-24.63-.63-7.42-7.7-24.4-15.01-20.59-2.7,1.41-3.71,5.63-1.9,9.26Z"></path>
    </g>
    <g>
      <path class=" st10_319019293" d="M133.15,377.33l-11.64-12.67c-1.57-1.71-1.46-4.37.25-5.94l12-11.01c.16-.14.4-.13.54.02l17.08,18.6c.14.16.13.4-.02.54l-11.69,10.73c-1.88,1.72-4.8,1.6-6.52-.28Z"></path>
      <path class=" st10_319019293" d="M134.93,373.16l-8.23-8.96c-1.33-1.45-1.24-3.7.21-5.03l11.46-10.52c.36-.33.93-.31,1.26.05l11.24,12.24c.33.36.31.93-.05,1.26l-12.12,11.12c-1.09,1-2.78.93-3.78-.16Z"></path>
      <path class=" st10_319019293" d="M141.96,367.34l-9.86-3.65c-.26-.1-.55.04-.64.3l-1.97,5.32c-.1.26.04.55.29.64l9.86,3.65c.26.1.55-.04.64-.3l1.97-5.32c.1-.26-.04-.55-.29-.64Z"></path>
    </g>
    <g>
      <path class=" st10_319019293" d="M200.18,378.11l12.42-11.9c1.68-1.61,1.73-4.27.13-5.94l-11.27-11.76c-.15-.15-.39-.16-.54-.01l-18.23,17.47c-.15.15-.16.39-.01.54l10.98,11.46c1.76,1.84,4.68,1.9,6.52.14Z"></path>
      <path class=" st10_319019293" d="M198.68,373.83l8.79-8.42c1.42-1.36,1.47-3.62.11-5.04l-10.76-11.23c-.34-.36-.9-.37-1.26-.03l-12,11.5c-.35.34-.37.9-.03,1.26l11.38,11.88c1.02,1.07,2.71,1.1,3.78.08Z"></path>
      <path class=" st10_319019293" d="M192.03,367.57l10.07-3.01c.26-.08.54.07.62.34l1.62,5.43c.08.27-.07.54-.34.62l-10.07,3.01c-.26.08-.54-.07-.62-.34l-1.62-5.43c-.08-.26.07-.54.34-.62Z"></path>
    </g>
    <g>
      <rect class=" st16_319019293" x="327.99" y="287.35" width="21.91" height="21.07"></rect>
      <rect class=" st16_319019293" x="327.99" y="287.35" width="1.67" height="21.07"></rect>
      <path class=" st10_319019293" d="M334.39,297.88h0c0,1.24.59,2.07,1.44,2.56,1.04.61,2.35.61,3.46.12l6.15-2.68-5.97-2.67c-.99-.44-2.13-.49-3.13-.06-1.08.46-1.95,1.34-1.95,2.73Z"></path>
    </g>
    <g>
      <rect class=" st16_319019293" x="327.99" y="308.41" width="21.91" height="30.53"></rect>
      <path class=" st10_319019293" d="M330.12,335.57v-23.78c0-.55.45-1,1-1h13.5c.55,0,1,.45,1,1v23.78c0,.55-.45,1-1,1h-13.5c-.55,0-1-.45-1-1Z"></path>
      <rect class=" st16_319019293" x="342.12" y="322.53" width="6.65" height="2.3"></rect>
      <circle class=" st10_319019293" cx="338.56" cy="323.68" r="1.43"></circle>
      <rect class=" st16_319019293" x="346.8" y="322.53" width="1.98" height="2.3"></rect>
    </g>
    <g>
      <rect class=" st10_319019293" x="327.99" y="338.94" width="21.91" height="21.54"></rect>
      <circle class=" st10_319019293" cx="334.11" cy="344.83" r="3.27"></circle>
      <circle class=" st10_319019293" cx="334.11" cy="354.6" r="3.27"></circle>
      <circle class=" st10_319019293" cx="343.78" cy="344.83" r="3.27"></circle>
      <circle class=" st10_319019293" cx="343.78" cy="354.6" r="3.27"></circle>
    </g>
    <g>
      <rect class=" st10_319019293" x="327.99" y="379.63" width="21.91" height="19.15"></rect>
      <line class=" st5_319019293" x1="349.9" y1="379.63" x2="327.99" y2="398.79"></line>
      <line class=" st5_319019293" x1="349.9" y1="398.79" x2="327.99" y2="379.63"></line>
    </g>
    <g>
      <rect class=" st10_319019293" x="327.99" y="360.48" width="21.91" height="19.15"></rect>
      <line class=" st5_319019293" x1="349.9" y1="360.48" x2="327.99" y2="379.63"></line>
      <line class=" st5_319019293" x1="349.9" y1="379.63" x2="327.99" y2="360.48"></line>
    </g>
    <g>
      <rect class=" st10_319019293" x="327.99" y="265.44" width="21.91" height="21.91"></rect>
      <rect class=" st10_319019293" x="327.99" y="265.44" width="1.67" height="21.91"></rect>
      <rect class=" st10_319019293" x="326.54" y="267.13" width="1.45" height="3.68"></rect>
      <g>
        <line class=" st5_319019293" x1="333.59" y1="276.39" x2="344.3" y2="276.39"></line>
        <line class=" st5_319019293" x1="341.62" y1="271.77" x2="336.27" y2="281.02"></line>
        <line class=" st5_319019293" x1="341.62" y1="281.02" x2="336.27" y2="271.77"></line>
      </g>
    </g>
    <g>
      <rect class=" st10_319019293" x="327.99" y="243.53" width="21.91" height="21.91"></rect>
      <rect class=" st10_319019293" x="327.99" y="243.53" width="1.67" height="21.91"></rect>
      <rect class=" st10_319019293" x="326.54" y="260.07" width="1.45" height="3.68"></rect>
      <g>
        <line class=" st5_319019293" x1="333.59" y1="254.49" x2="344.3" y2="254.49"></line>
        <line class=" st5_319019293" x1="341.62" y1="259.11" x2="336.27" y2="249.86"></line>
        <line class=" st5_319019293" x1="341.62" y1="249.86" x2="336.27" y2="259.11"></line>
      </g>
    </g>
    <g>
      <rect class=" st10_319019293" x="394.59" y="247.12" width="67.07" height="19.11"></rect>
      <g>
        <line class=" st5_319019293" x1="457.13" y1="249.65" x2="455.98" y2="263.7"></line>
        <line class=" st5_319019293" x1="451.26" y1="249.65" x2="452.4" y2="263.7"></line>
        <line class=" st5_319019293" x1="447.54" y1="249.65" x2="447.54" y2="263.7"></line>
        <line class=" st5_319019293" x1="444.03" y1="249.65" x2="442.89" y2="263.7"></line>
        <line class=" st5_319019293" x1="429.9" y1="249.65" x2="428.76" y2="263.7"></line>
        <line class=" st5_319019293" x1="420.56" y1="249.65" x2="419.41" y2="263.7"></line>
        <line class=" st5_319019293" x1="405.61" y1="249.65" x2="404.47" y2="263.7"></line>
        <line class=" st5_319019293" x1="414.96" y1="249.65" x2="413.81" y2="263.7"></line>
        <line class=" st5_319019293" x1="438.2" y1="249.65" x2="439.35" y2="263.7"></line>
        <line class=" st5_319019293" x1="424.48" y1="249.65" x2="425.62" y2="263.7"></line>
        <line class=" st5_319019293" x1="409.53" y1="249.65" x2="410.68" y2="263.7"></line>
        <line class=" st5_319019293" x1="433.44" y1="249.65" x2="433.44" y2="263.7"></line>
        <line class=" st5_319019293" x1="399.13" y1="249.65" x2="400.27" y2="263.7"></line>
      </g>
      <line class=" st5_319019293" x1="397.02" y1="256.67" x2="459.24" y2="256.67"></line>
    </g>
    <g>
      <rect class=" st10_319019293" x="331.73" y="175.76" width="62.86" height="19.11"></rect>
      <g>
        <line class=" st5_319019293" x1="388.68" y1="178.29" x2="389.83" y2="192.34"></line>
        <line class=" st5_319019293" x1="384.94" y1="178.29" x2="384.94" y2="192.34"></line>
        <line class=" st5_319019293" x1="381.42" y1="178.29" x2="380.27" y2="192.34"></line>
        <line class=" st5_319019293" x1="367.22" y1="178.29" x2="366.07" y2="192.34"></line>
        <line class=" st5_319019293" x1="357.83" y1="178.29" x2="356.68" y2="192.34"></line>
        <line class=" st5_319019293" x1="342.8" y1="178.29" x2="341.65" y2="192.34"></line>
        <line class=" st5_319019293" x1="352.2" y1="178.29" x2="351.05" y2="192.34"></line>
        <line class=" st5_319019293" x1="375.56" y1="178.29" x2="376.71" y2="192.34"></line>
        <line class=" st5_319019293" x1="361.77" y1="178.29" x2="362.92" y2="192.34"></line>
        <line class=" st5_319019293" x1="346.75" y1="178.29" x2="347.89" y2="192.34"></line>
        <line class=" st5_319019293" x1="370.78" y1="178.29" x2="370.78" y2="192.34"></line>
        <line class=" st5_319019293" x1="336.29" y1="178.29" x2="337.44" y2="192.34"></line>
      </g>
      <line class=" st5_319019293" x1="334.17" y1="185.32" x2="392.11" y2="185.32"></line>
    </g>
    <g>
      <rect class=" st10_319019293" x="174.78" y="132.48" width="21.21" height="68.38"></rect>
      <g>
        <line class=" st5_319019293" x1="193.19" y1="178.43" x2="177.59" y2="177.31"></line>
        <line class=" st5_319019293" x1="193.19" y1="172.69" x2="177.59" y2="173.81"></line>
        <line class=" st5_319019293" x1="193.19" y1="169.06" x2="177.59" y2="169.06"></line>
        <line class=" st5_319019293" x1="193.19" y1="165.63" x2="177.59" y2="164.51"></line>
        <line class=" st5_319019293" x1="193.19" y1="151.82" x2="177.59" y2="150.7"></line>
        <line class=" st5_319019293" x1="193.19" y1="142.68" x2="177.59" y2="141.56"></line>
        <line class=" st5_319019293" x1="193.19" y1="138.03" x2="177.59" y2="136.91"></line>
        <line class=" st5_319019293" x1="193.19" y1="159.93" x2="177.59" y2="161.05"></line>
        <line class=" st5_319019293" x1="193.19" y1="195.34" x2="177.59" y2="196.46"></line>
        <line class=" st5_319019293" x1="193.19" y1="191.71" x2="177.59" y2="191.71"></line>
        <line class=" st5_319019293" x1="193.19" y1="188.28" x2="177.59" y2="187.16"></line>
        <line class=" st5_319019293" x1="193.19" y1="182.58" x2="177.59" y2="183.7"></line>
        <line class=" st5_319019293" x1="193.19" y1="146.51" x2="177.59" y2="147.63"></line>
        <line class=" st5_319019293" x1="193.19" y1="155.28" x2="177.59" y2="155.28"></line>
      </g>
      <line class=" st5_319019293" x1="185.39" y1="134.56" x2="185.39" y2="198.88"></line>
    </g>
    <g>
      <rect class=" st10_319019293" x="386.12" y="78.37" width="18.77" height="46.77"></rect>
      <g>
        <line class=" st5_319019293" x1="402.4" y1="103.72" x2="388.61" y2="105.5"></line>
        <line class=" st5_319019293" x1="402.4" y1="114.01" x2="388.61" y2="114.01"></line>
        <line class=" st5_319019293" x1="402.4" y1="99.41" x2="388.61" y2="99.41"></line>
        <line class=" st5_319019293" x1="402.4" y1="95.25" x2="388.61" y2="93.47"></line>
        <line class=" st5_319019293" x1="402.4" y1="110.76" x2="388.61" y2="108.98"></line>
        <line class=" st5_319019293" x1="402.4" y1="83.32" x2="388.61" y2="85.1"></line>
        <line class=" st5_319019293" x1="402.4" y1="118.41" x2="388.61" y2="120.19"></line>
        <line class=" st5_319019293" x1="402.4" y1="89.71" x2="388.61" y2="89.71"></line>
      </g>
      <line class=" st5_319019293" x1="395.51" y1="80.14" x2="395.51" y2="123.37"></line>
    </g>
    <g>
      <rect class=" st10_319019293" x="440.16" y="128.95" width="19.5" height="43"></rect>
      <g>
        <line class=" st5_319019293" x1="457.08" y1="152.26" x2="442.74" y2="153.9"></line>
        <line class=" st5_319019293" x1="457.08" y1="161.71" x2="442.74" y2="161.71"></line>
        <line class=" st5_319019293" x1="457.08" y1="148.3" x2="442.74" y2="148.3"></line>
        <line class=" st5_319019293" x1="457.08" y1="144.47" x2="442.74" y2="142.83"></line>
        <line class=" st5_319019293" x1="457.08" y1="158.73" x2="442.74" y2="157.09"></line>
        <line class=" st5_319019293" x1="457.08" y1="133.5" x2="442.74" y2="135.14"></line>
        <line class=" st5_319019293" x1="457.08" y1="165.76" x2="442.74" y2="167.4"></line>
        <line class=" st5_319019293" x1="457.08" y1="139.38" x2="442.74" y2="139.38"></line>
      </g>
      <line class=" st5_319019293" x1="449.91" y1="130.58" x2="449.91" y2="170.32"></line>
    </g>
  </g>
  <g>
    <path class=" st18_319019293" d="M263.94,240.02v-2.87h3.71v6.37H69.19v-3.5h194.75ZM87.09,359.74c0,6.68,5.42,12.1,12.1,12.1s12.1-5.42,12.1-12.1-5.42-12.1-12.1-12.1-12.1,5.42-12.1,12.1ZM491.96,139.16h-18.5v228.03h-17.01v-7.53h5.21v-112.55h-67.07v-22.71h3.81v18.9h63.26v-64.82h-63.26v18.95h-3.81v-21.68h-62.79v21.68h-3.81v-25.49h131.67v-43h-19.5v-3.81h44.47s0-4.93,0-4.93h7.33v18.95ZM487.53,129.2h-5.86v5.85h5.86v-5.85ZM370.66,359.67v46.66h-36.72v-7.54h15.96v-155.26h-21.91v-16.29h3.81v3.18h31.03v16.71h-9.12v89.49h8.52v23.06h8.43ZM353.71,240.04v3.59h5.63v-9.73h-27.54v6.14h21.91ZM491.96,68.4v13.8h-7.33v-3.83h-98.51v46.77h18.77v11.83h-56.8v-3.8h10.5v-6.86h23.73v-47.94h-88.44v54.81h27.6v3.8h-30.96v58.35h-22.88v12.27h-3.71v-3.36h-19.2v-3.29h19.2v-68.46h-64.24v68.46h18.1v3.29h-43.03v-3.29h21.21v-68.46h-85.99v7.01h-40.82v3.04h-7.54v-19.91h218.36v-54.22h211.95ZM284.29,139.82h-11.87v45.57h11.87v-45.57ZM284.29,131.06h-7.89v5.91h7.89v-5.91Z"></path>
  </g>
  <g>
    <path class=" st5_319019293" d="M61.64,180.63h-21.64M61.64,241.63h-21.64M61.64,288.34h-21.64M61.64,359.75h-21.64M61.64,406.33h-21.64M70.07,438.06l-18.83,11.41M93.91,461.75l-11.77,18.62M126.93,469.95v21.65M170.7,491.6v-21.65M216.18,491.6v-21.8M261.08,469.95v21.65M306.93,491.6v-21.65M370.65,406.33h21.63M362.17,438.06l19.49,10.87M339.7,460.91l10.49,19.74M392.29,388.83l-21.64-21.64M427.33,388.83v-21.64M469.29,388.83v-21.64"></path>
    <path class=" st5_319019293" d="M61.65,406.33c0,35,28.37,63.62,63.37,63.62h181.61c35.34,0,64-28.67,64-64v.39h-5.72c0,32.14-26.14,57.89-58.28,57.89H125.02c-31.79,0-57.65-26.11-57.65-57.9h-5.72Z"></path>
    <path class=" st5_319019293" d="M40,122.62v284.82c0,46.48,37.68,84.16,84.16,84.16h184.68c46.1,0,83.45-37.36,83.45-83.45v-19.31h81.18v-21.63h-102.8v39.08c0,35.16-28.51,63.66-63.66,63.66H125.13c-35.07,0-63.48-28.42-63.48-63.48V122.62h-21.65Z"></path>
  </g>
  <g>
    <g>
      <rect class=" st5_319019293" x="331" y="198.94" width="26.62" height="1.7"></rect>
      <rect class=" st5_319019293" x="328.88" y="197.44" width="2.76" height="1.5"></rect>
      <rect class=" st5_319019293" x="328.88" y="225.74" width="2.76" height="1.5"></rect>
      <path class=" st5_319019293" d="M357.62,200.64c0,14.59-15.13,25.09-25.89,25.09"></path>
    </g>
    <g>
      <rect class=" st5_319019293" x="396.35" y="198.8" width="24.1" height="1.54"></rect>
      <rect class=" st5_319019293" x="394.44" y="197.44" width="2.5" height="1.36"></rect>
      <rect class=" st5_319019293" x="394.44" y="223.05" width="2.5" height="1.36"></rect>
      <path class=" st5_319019293" d="M420.45,200.34c0,13.21-13.7,22.71-23.43,22.71"></path>
    </g>
    <g>
      <rect class=" st4_319019293" x="345.28" y="111.52" width="1.52" height="23.58"></rect>
      <rect class=" st4_319019293" x="346.8" y="134.53" width="1.34" height="2.44"></rect>
      <rect class=" st4_319019293" x="321.49" y="134.53" width="1.34" height="2.44"></rect>
      <path class=" st5_319019293" d="M345.28,111.52c-13.05,0-22.45,13.4-22.45,22.93"></path>
    </g>
    <g>
      <rect class=" st3_319019293" x="241.69" y="177.47" width="1.54" height="24.06"></rect>
      <rect class=" st3_319019293" x="243.23" y="200.94" width="1.36" height="2.49"></rect>
      <rect class=" st3_319019293" x="217.66" y="200.95" width="1.36" height="2.49"></rect>
      <path class=" st5_319019293" d="M241.69,177.47c-13.19,0-22.68,13.68-22.68,23.4"></path>
    </g>
    <g>
      <rect class=" st5_319019293" x="450.77" y="116.06" width="34.54" height="2.21"></rect>
      <rect class=" st5_319019293" x="484.48" y="118.27" width="3.58" height="1.95"></rect>
      <rect class=" st5_319019293" x="484.48" y="81.56" width="3.58" height="1.95"></rect>
      <path class=" st5_319019293" d="M450.77,116.06c0-18.93,19.63-32.56,33.59-32.56"></path>
    </g>
    <g>
      <rect class=" st5_319019293" x="239.14" y="233.97" width="26.41" height="1.69"></rect>
      <rect class=" st5_319019293" x="264.92" y="235.66" width="2.74" height="1.49"></rect>
      <rect class=" st5_319019293" x="264.92" y="207.59" width="2.74" height="1.49"></rect>
      <path class=" st5_319019293" d="M239.14,233.97c0-14.48,15.01-24.9,25.69-24.9"></path>
    </g>
    <rect class=" st5_319019293" x="223.75" y="398.84" width="39.03" height="1.63"></rect>
    <rect class=" st5_319019293" x="255.96" y="400.47" width="39.03" height="1.63"></rect>
    <rect class=" st5_319019293" x="172.23" y="398.84" width="39.03" height="1.63"></rect>
    <rect class=" st5_319019293" x="138.87" y="400.47" width="39.03" height="1.63"></rect>
  </g>
  <g>
    <polygon class=" st17_319019293" points="507.73 109.04 507.73 108.65 498.2 101.04 519.53 101.77 520 101.77 520 100 519.53 100 498.2 100.73 507.73 93.12 507.73 92.73 505.41 92.73 497.24 100.86 505.41 109.04 507.73 109.04"></polygon>
  </g>
  <g>
    <g>
      <path class=" st19_319019293" d="M422.78,217.09h-.7v1.25h-.95v-1.25h-2.8v-.8l2.65-4.25h1.1v4.15h.7v.9ZM421.13,216.19v-2.75l-1.7,2.75h1.7Z"></path>
      <path class=" st19_319019293" d="M423.91,217.29c.15,0,.28.06.39.17s.16.26.16.43c0,.25-.04.47-.12.65-.08.18-.18.32-.28.43-.12.13-.25.24-.4.32l-.15-.2c.07-.04.13-.11.19-.18.05-.06.1-.13.15-.22s.08-.19.11-.3c-.17,0-.32-.05-.43-.16s-.17-.24-.17-.39.05-.28.16-.39.24-.16.39-.16Z"></path>
      <path class=" st19_319019293" d="M427.34,218.39c-.31,0-.6-.05-.87-.16s-.5-.26-.7-.46c-.2-.2-.35-.43-.47-.69s-.17-.54-.17-.84c0-.19.03-.37.1-.56.06-.19.13-.35.21-.5.09-.17.19-.34.3-.49l1.75-2.65h1.05l-1.4,2.1s.07-.01.12-.02c.03,0,.07-.01.12-.02.05,0,.1,0,.15,0,.26,0,.51.05.76.16.24.11.45.26.64.46.18.2.33.43.44.69s.17.54.17.84-.06.58-.17.84-.27.49-.47.69c-.2.2-.43.35-.7.46s-.56.16-.87.16ZM426.09,216.24c0,.19.03.36.1.52.06.16.15.3.27.41s.25.2.4.27.32.1.49.1.33-.03.49-.1.29-.16.4-.27.2-.25.27-.41c.06-.16.1-.33.1-.52s-.03-.36-.1-.52c-.06-.16-.15-.3-.27-.41s-.25-.2-.4-.27-.32-.1-.49-.1-.33.03-.49.1-.29.16-.4.27-.2.25-.27.41c-.07.16-.1.33-.1.52Z"></path>
    </g>
    <g>
      <path class=" st19_319019293" d="M366.07,153.52v6.3h-.95v-5l-.85.55-.45-.75,1.6-1.1h.65Z"></path>
      <path class=" st19_319019293" d="M369.4,159.87c-.31,0-.6-.05-.87-.16s-.5-.26-.7-.46c-.2-.2-.35-.43-.47-.69s-.17-.54-.17-.84c0-.19.03-.37.1-.56.06-.19.13-.35.21-.5.09-.17.19-.34.3-.49l1.75-2.65h1.05l-1.4,2.1s.07-.01.12-.02c.03,0,.07-.01.12-.02.05,0,.1,0,.15,0,.26,0,.51.05.76.16.24.11.45.26.64.46.18.2.33.43.44.69s.17.54.17.84-.06.58-.17.84-.27.49-.47.69c-.2.2-.43.35-.7.46s-.56.16-.87.16ZM368.15,157.72c0,.19.03.36.1.52.06.16.15.3.27.41s.25.2.4.27.32.1.49.1.33-.03.49-.1.29-.16.4-.27.2-.25.27-.41c.06-.16.1-.33.1-.52s-.03-.36-.1-.52c-.06-.16-.15-.3-.27-.41s-.25-.2-.4-.27-.32-.1-.49-.1-.33.03-.49.1-.29.16-.4.27-.2.25-.27.41c-.06.16-.1.33-.1.52Z"></path>
      <path class=" st19_319019293" d="M372.83,158.77c.15,0,.28.06.39.17s.16.26.16.43c0,.25-.04.47-.12.65-.08.18-.18.32-.28.43-.12.13-.25.24-.4.32l-.15-.2c.07-.04.13-.11.19-.18.05-.06.1-.13.15-.22s.08-.19.11-.3c-.17,0-.32-.05-.43-.16s-.17-.24-.17-.39.05-.28.16-.39.24-.16.39-.16Z"></path>
      <path class=" st19_319019293" d="M374.11,155.22c.01-.24.07-.47.17-.68.1-.21.24-.4.42-.55.18-.16.39-.29.64-.38.24-.09.52-.14.82-.14.29,0,.55.05.79.14.24.1.45.23.64.39.18.16.32.35.42.56.1.21.15.43.15.66s-.04.42-.12.59c-.08.16-.18.3-.28.4-.12.12-.25.22-.4.31.19.09.35.2.5.34.13.12.24.28.34.48.1.2.15.44.15.73,0,.24-.05.47-.15.68-.1.21-.25.4-.43.57-.19.16-.41.3-.68.4s-.56.15-.88.15-.62-.05-.88-.14-.48-.22-.67-.38c-.18-.16-.33-.34-.43-.55-.1-.21-.16-.44-.18-.68h.95c.01.11.05.22.11.33.06.11.14.2.24.29.1.09.23.15.37.21.15.05.3.08.48.08.38,0,.68-.1.89-.29.21-.19.31-.43.31-.71s-.11-.52-.32-.71-.51-.29-.88-.29h-.45v-.85h.4c.33,0,.58-.09.77-.26.19-.17.28-.39.28-.64,0-.28-.09-.51-.28-.68-.19-.18-.44-.26-.77-.26s-.58.09-.78.26-.3.39-.33.64h-.95Z"></path>
    </g>
    <g>
      <path class=" st19_319019293" d="M130.48,217.45v6.3h-.95v-5l-.85.55-.45-.75,1.6-1.1h.65Z"></path>
      <path class=" st19_319019293" d="M133.8,223.8c-.31,0-.6-.05-.87-.16s-.5-.26-.7-.46-.35-.43-.47-.69-.17-.54-.17-.84c0-.19.03-.37.1-.56s.13-.35.21-.5c.09-.17.19-.34.3-.49l1.75-2.65h1.05l-1.4,2.1s.07-.01.12-.02c.03,0,.07-.01.12-.02s.1,0,.15,0c.26,0,.51.05.75.16s.46.26.64.46.33.43.44.69.17.54.17.84-.06.58-.17.84-.27.49-.47.69-.43.35-.7.46-.56.16-.87.16ZM132.55,221.65c0,.19.03.36.1.52s.15.3.27.41.25.2.4.27.32.1.49.1.34-.03.49-.1.29-.16.4-.27.2-.25.27-.41.1-.33.1-.52-.03-.36-.1-.52-.15-.3-.27-.41-.25-.2-.4-.27-.32-.1-.49-.1-.34.03-.49.1-.29.16-.4.27-.2.25-.27.41-.1.34-.1.52Z"></path>
      <path class=" st19_319019293" d="M137.23,222.7c.15,0,.28.06.39.17s.16.26.16.43c0,.25-.04.47-.12.65s-.18.32-.28.43c-.12.13-.25.24-.4.32l-.15-.2c.07-.04.13-.11.19-.18.05-.06.1-.13.15-.22s.08-.19.11-.3c-.17,0-.32-.05-.43-.16s-.17-.24-.17-.39.05-.28.16-.39.24-.16.39-.16Z"></path>
      <path class=" st19_319019293" d="M143.51,220.6c0,.51-.07.97-.2,1.37s-.32.73-.55,1-.5.48-.8.62-.62.21-.96.21-.66-.07-.96-.21-.57-.35-.8-.62-.41-.61-.54-1-.2-.85-.2-1.37.07-.97.2-1.37.32-.73.54-1,.49-.48.79-.62.62-.21.96-.21.66.07.96.21.57.35.8.62.41.61.55,1,.2.85.2,1.37ZM142.56,220.6c0-.39-.04-.73-.13-1.02s-.21-.54-.35-.74-.31-.35-.5-.44-.37-.15-.56-.15-.37.05-.56.15-.35.25-.5.44-.26.44-.36.74-.14.63-.14,1.02.04.73.14,1.02.21.54.36.74.31.35.5.44.37.15.56.15.37-.05.56-.15.35-.25.5-.44.26-.44.35-.74.13-.63.13-1.02Z"></path>
    </g>
    <g>
      <path class=" st19_319019293" d="M222.98,150.57h-.7v1.25h-.95v-1.25h-2.8v-.8l2.65-4.25h1.1v4.15h.7v.9ZM221.33,149.67v-2.75l-1.7,2.75h1.7Z"></path>
      <path class=" st19_319019293" d="M224.11,150.77c.15,0,.28.06.39.17s.16.26.16.43c0,.25-.04.47-.12.65s-.18.32-.28.43c-.12.13-.25.24-.4.32l-.15-.2c.07-.04.13-.11.19-.18.05-.06.1-.13.15-.22s.08-.19.11-.3c-.17,0-.32-.05-.43-.16s-.17-.24-.17-.39.05-.28.16-.39.24-.16.39-.16Z"></path>
      <path class=" st19_319019293" d="M227.54,145.47c.31,0,.6.05.87.16s.5.26.7.46.35.43.47.69.17.54.17.84c0,.19-.03.38-.1.56s-.13.35-.21.5c-.09.17-.19.34-.3.49l-1.75,2.65h-1.05l1.4-2.1s-.07.02-.11.03c-.03,0-.07.01-.12.01s-.1,0-.16,0c-.26,0-.51-.05-.75-.16s-.46-.26-.64-.46-.33-.43-.44-.69-.17-.54-.17-.84.06-.58.17-.84.27-.49.47-.69.43-.35.7-.46.56-.16.87-.16ZM228.79,147.62c0-.19-.03-.36-.1-.52s-.15-.3-.27-.41-.25-.2-.4-.27-.32-.1-.49-.1-.34.03-.49.1-.29.16-.4.27-.2.25-.27.41-.1.33-.1.52.03.36.1.52.15.3.27.41.25.2.4.27.32.1.49.1.34-.03.49-.1.29-.16.4-.27.2-.25.27-.41.1-.33.1-.52Z"></path>
    </g>
    <g>
      <path class=" st19_319019293" d="M321.93,107.1c.29,0,.56.06.82.16s.48.26.67.46c.19.2.34.43.45.69s.17.54.17.84-.06.58-.17.84-.27.49-.47.69c-.2.2-.43.35-.7.46s-.56.16-.87.16-.6-.05-.85-.14-.47-.22-.65-.38-.32-.34-.42-.55-.16-.44-.18-.68h.95c.01.11.05.22.11.33.06.11.14.2.24.29s.22.15.36.21.29.08.44.08c.17,0,.33-.03.49-.1s.29-.16.4-.27.2-.25.27-.41c.06-.16.1-.33.1-.52s-.03-.36-.1-.52c-.06-.16-.15-.3-.27-.41s-.25-.2-.4-.27-.32-.1-.49-.1c-.2,0-.37.04-.52.12-.15.08-.27.17-.36.26-.11.11-.2.24-.27.37h-.8l.4-3.65h3.35v.9h-2.54l-.16,1.5c.08-.06.16-.12.27-.17.09-.04.19-.09.32-.12.12-.04.26-.06.41-.06Z"></path>
      <path class=" st19_319019293" d="M325.31,110.3c.15,0,.28.06.39.17s.16.26.16.43c0,.25-.04.47-.12.64-.08.18-.18.32-.28.43-.12.13-.25.24-.4.32l-.15-.2c.07-.04.13-.11.19-.18.05-.06.1-.13.15-.22s.08-.19.11-.3c-.17,0-.32-.05-.43-.16s-.17-.24-.17-.39.05-.28.16-.39.24-.16.39-.16Z"></path>
      <path class=" st19_319019293" d="M326.6,106.75c.01-.24.07-.47.17-.68.1-.21.24-.39.42-.55.18-.16.39-.29.64-.38.24-.09.52-.14.82-.14.29,0,.55.05.79.14.24.1.45.23.64.39.18.16.32.35.42.56.1.21.15.43.15.66s-.04.42-.12.59c-.08.16-.18.3-.28.4-.12.12-.25.22-.4.31.19.09.35.2.5.34.13.12.24.28.34.48.1.2.15.44.15.73,0,.24-.05.47-.15.68-.1.21-.25.4-.43.57-.19.17-.41.3-.68.4s-.56.15-.88.15-.62-.05-.88-.14-.48-.22-.67-.38c-.18-.16-.33-.34-.43-.55-.1-.21-.16-.44-.18-.68h.95c.01.11.05.22.11.33.06.11.14.2.24.29.1.09.23.15.37.21.15.05.3.08.48.08.38,0,.68-.1.89-.29.21-.19.31-.43.31-.71s-.11-.52-.32-.71-.51-.29-.88-.29h-.45v-.85h.4c.33,0,.58-.09.77-.26.19-.17.28-.39.28-.64,0-.28-.09-.51-.28-.68-.19-.18-.44-.26-.77-.26s-.58.09-.78.26-.3.39-.33.64h-.95Z"></path>
    </g>
    <g>
      <path class=" st19_319019293" d="M302.57,270.09v6.3h-.95v-5l-.85.55-.45-.75,1.6-1.1h.65Z"></path>
      <path class=" st19_319019293" d="M305.85,270.09v6.3h-.95v-5l-.85.55-.45-.75,1.6-1.1h.65Z"></path>
      <path class=" st19_319019293" d="M307.53,275.34c.15,0,.28.06.39.17s.16.26.16.43c0,.25-.04.47-.12.64-.08.18-.18.32-.28.43-.12.13-.25.24-.4.32l-.15-.2c.07-.05.13-.11.19-.18.05-.06.1-.13.15-.22s.08-.19.11-.3c-.17,0-.32-.05-.43-.16s-.17-.23-.17-.39.05-.28.16-.39.24-.16.39-.16Z"></path>
      <path class=" st19_319019293" d="M312.9,275.49v.9h-4.05v-.7l2.5-2.7c.11-.12.21-.24.3-.37.08-.11.14-.24.21-.37.06-.13.1-.27.1-.41,0-.28-.1-.51-.29-.68-.19-.18-.46-.26-.81-.26-.33,0-.59.1-.8.3s-.31.47-.31.79h-.95c0-.29.05-.55.14-.79.1-.24.23-.45.41-.61.18-.17.39-.3.64-.4.25-.1.54-.14.85-.14s.6.05.85.14c.25.09.47.22.64.39.18.17.31.36.41.59.1.23.14.47.14.73,0,.2-.05.4-.14.6-.09.2-.2.38-.31.53-.13.18-.28.35-.45.52l-1.79,1.95h2.69Z"></path>
    </g>
    <g>
      <path class=" st19_319019293" d="M373.23,277.05v6.3h-.95v-5l-.85.55-.45-.75,1.6-1.1h.65Z"></path>
      <path class=" st19_319019293" d="M378.36,277.05v.65l-2.6,5.65h-1l2.5-5.4h-2.85v-.9h3.95Z"></path>
      <path class=" st19_319019293" d="M379.53,282.3c.15,0,.28.06.39.17s.16.26.16.43c0,.25-.04.47-.12.64-.08.18-.18.32-.28.43-.12.13-.25.24-.4.32l-.15-.2c.07-.05.13-.11.19-.18.05-.06.1-.13.15-.22s.08-.19.11-.3c-.17,0-.32-.05-.43-.16-.11-.11-.17-.23-.17-.39s.05-.28.16-.39.24-.16.39-.16Z"></path>
      <path class=" st19_319019293" d="M385.11,282.1h-.7v1.25h-.95v-1.25h-2.8v-.8l2.65-4.25h1.1v4.15h.7v.9ZM383.46,281.2v-2.75l-1.7,2.75h1.7Z"></path>
    </g>
    <g>
      <path class=" st19_319019293" d="M213.71,434.06v6.3h-.95v-5l-.85.55-.45-.75,1.6-1.1h.65Z"></path>
      <path class=" st19_319019293" d="M217.14,436.11c.29,0,.56.05.82.16.26.11.48.26.67.46.19.2.34.42.45.69s.17.54.17.84-.06.58-.17.84-.27.49-.47.69c-.2.2-.43.35-.7.46-.27.11-.56.16-.87.16s-.6-.05-.85-.14c-.25-.09-.47-.22-.65-.38s-.32-.34-.43-.55c-.1-.21-.16-.43-.18-.68h.95c.01.11.05.22.11.33.06.11.14.2.24.29.1.09.22.15.36.2.14.05.29.08.44.08.17,0,.34-.03.49-.1.15-.07.29-.16.4-.27.11-.11.2-.25.27-.41.06-.16.1-.33.1-.52s-.03-.36-.1-.52c-.06-.16-.15-.3-.27-.41-.11-.11-.25-.2-.4-.27-.15-.07-.32-.1-.49-.1-.2,0-.37.04-.52.12-.15.08-.27.17-.36.26-.11.11-.21.24-.27.37h-.8l.4-3.65h3.35v.9h-2.54l-.16,1.5c.07-.06.16-.11.27-.17.09-.05.19-.09.32-.12s.26-.05.41-.05Z"></path>
      <path class=" st19_319019293" d="M220.52,439.31c.15,0,.28.06.39.17s.16.26.16.43c0,.25-.04.47-.12.64s-.18.32-.28.43c-.12.13-.25.24-.4.32l-.15-.2c.07-.05.13-.11.19-.18.05-.06.1-.13.15-.22s.08-.19.11-.3c-.17,0-.32-.05-.43-.16-.11-.11-.17-.23-.17-.39s.05-.28.16-.39.24-.16.39-.16Z"></path>
      <path class=" st19_319019293" d="M221.8,435.76c.01-.24.07-.47.17-.68.1-.21.24-.4.42-.55s.39-.29.63-.38c.25-.09.52-.14.82-.14.29,0,.55.05.79.14.24.1.45.23.63.39s.32.35.42.56c.1.21.15.43.15.66s-.04.42-.12.59-.18.3-.28.4c-.12.12-.25.22-.4.31.19.09.35.2.5.34.13.12.24.28.34.48.1.2.15.44.15.73,0,.24-.05.47-.15.68s-.25.4-.43.57c-.19.17-.41.3-.68.4-.26.1-.56.15-.88.15s-.62-.05-.88-.14c-.26-.09-.48-.22-.67-.38s-.33-.34-.43-.55c-.1-.21-.16-.43-.18-.68h.95c.01.11.05.22.11.33.06.11.14.2.24.29.1.09.23.15.37.2.15.05.3.08.48.08.38,0,.68-.1.89-.29.21-.19.32-.43.32-.71s-.11-.52-.32-.71-.51-.29-.88-.29h-.45v-.85h.4c.33,0,.58-.09.77-.26s.28-.39.28-.64c0-.28-.09-.51-.28-.68s-.44-.26-.77-.26-.58.09-.78.26-.3.39-.33.64h-.95Z"></path>
      <path class=" st19_319019293" d="M229.6,442.16h-.85l2.6-8.1h.85l-2.6,8.1Z"></path>
      <path class=" st19_319019293" d="M239.2,439.11h-.7v1.25h-.95v-1.25h-2.8v-.8l2.65-4.25h1.1v4.15h.7v.9ZM237.55,438.21v-2.75l-1.7,2.75h1.7Z"></path>
      <path class=" st19_319019293" d="M240.33,439.31c.15,0,.28.06.39.17s.16.26.16.43c0,.25-.04.47-.12.64s-.18.32-.28.43c-.12.13-.25.24-.4.32l-.15-.2c.07-.05.13-.11.19-.18.05-.06.1-.13.15-.22s.08-.19.11-.3c-.17,0-.32-.05-.43-.16-.11-.11-.17-.23-.17-.39s.05-.28.16-.39.24-.16.39-.16Z"></path>
      <path class=" st19_319019293" d="M243.76,440.41c-.31,0-.6-.05-.87-.16-.27-.11-.5-.26-.7-.46-.2-.2-.35-.42-.47-.69s-.17-.54-.17-.84c0-.19.03-.37.1-.56.06-.19.13-.35.21-.5.09-.17.19-.34.3-.49l1.75-2.65h1.05l-1.4,2.1s.07-.01.12-.02c.03,0,.07-.01.12-.02s.1-.01.15-.01c.26,0,.51.05.75.16.24.11.46.26.64.46.18.2.33.42.44.69s.17.54.17.84-.06.58-.17.84-.27.49-.47.69c-.2.2-.43.35-.7.46-.27.11-.56.16-.87.16ZM242.51,438.26c0,.19.03.36.1.52.06.16.15.3.27.41.11.11.25.2.4.27.15.07.32.1.49.1s.34-.03.49-.1c.15-.07.29-.16.4-.27.11-.11.2-.25.27-.41.06-.16.1-.33.1-.52s-.03-.36-.1-.52c-.06-.16-.15-.3-.27-.41-.11-.11-.25-.2-.4-.27-.15-.07-.32-.1-.49-.1s-.34.03-.49.1c-.15.07-.29.16-.4.27-.11.11-.2.25-.27.41-.06.16-.1.33-.1.52Z"></path>
      <path class=" st19_319019293" d="M247.54,435.65l-1-.25.2-.65.95.35-.05-1.05h.7l-.05,1.05.95-.35.2.65-1,.25.65.8-.6.4-.5-.85-.5.85-.6-.4.65-.8Z"></path>
    </g>
    <g>
      <path class=" st19_319019293" d="M98.95,278.48c.01-.24.07-.47.17-.68s.24-.39.42-.55.39-.29.64-.38.52-.14.82-.14c.29,0,.55.05.79.14s.45.23.64.39.32.35.42.56.15.43.15.66-.04.42-.12.59-.18.3-.28.4c-.12.12-.25.22-.4.31.19.09.35.2.5.34.13.12.24.28.34.48s.15.44.15.73c0,.24-.05.47-.15.68s-.25.4-.43.57c-.19.17-.41.3-.68.4-.26.1-.56.15-.88.15s-.62-.05-.88-.14c-.26-.09-.48-.22-.67-.38s-.33-.34-.43-.55c-.1-.21-.16-.43-.18-.68h.95c.01.11.05.22.11.33.06.11.14.2.24.29.1.09.23.15.37.2.14.05.3.08.48.08.38,0,.68-.1.89-.29.21-.19.32-.43.32-.71s-.11-.52-.32-.71-.51-.29-.88-.29h-.45v-.85h.4c.33,0,.58-.09.77-.26s.28-.39.28-.64c0-.28-.09-.51-.28-.68s-.44-.26-.77-.26-.58.09-.78.26-.3.39-.33.64h-.95Z"></path>
      <path class=" st19_319019293" d="M108.08,282.18v.9h-4.05v-.7l2.5-2.7c.11-.12.21-.24.3-.37.07-.11.14-.24.21-.37s.1-.27.1-.41c0-.28-.1-.51-.29-.68s-.46-.26-.81-.26c-.33,0-.59.1-.8.3s-.31.47-.31.79h-.95c0-.29.05-.55.14-.79s.23-.45.41-.61.39-.3.64-.4.54-.14.85-.14.6.05.85.14.47.22.64.39.31.36.41.59.14.47.14.73c0,.2-.05.4-.14.6s-.2.38-.31.53c-.13.18-.28.35-.45.52l-1.79,1.95h2.69Z"></path>
      <path class=" st19_319019293" d="M109.41,282.02c.15,0,.28.06.39.17s.16.26.16.43c0,.25-.04.47-.12.64s-.18.32-.28.43c-.12.13-.25.24-.4.32l-.15-.2c.07-.05.13-.11.19-.18.05-.06.1-.13.15-.22s.08-.19.11-.3c-.17,0-.32-.05-.43-.16-.11-.11-.17-.23-.17-.39s.05-.28.16-.39.24-.16.39-.16Z"></path>
      <path class=" st19_319019293" d="M110.69,278.48c.01-.24.07-.47.17-.68s.24-.39.42-.55.39-.29.64-.38.52-.14.82-.14c.29,0,.55.05.79.14s.45.23.64.39.32.35.42.56.15.43.15.66-.04.42-.12.59-.18.3-.28.4c-.12.12-.25.22-.4.31.19.09.35.2.5.34.13.12.24.28.34.48s.15.44.15.73c0,.24-.05.47-.15.68s-.25.4-.43.57c-.19.17-.41.3-.68.4-.26.1-.56.15-.88.15s-.62-.05-.88-.14c-.26-.09-.48-.22-.67-.38s-.33-.34-.43-.55c-.1-.21-.16-.43-.18-.68h.95c.01.11.05.22.11.33.06.11.14.2.24.29.1.09.23.15.37.2.14.05.3.08.48.08.38,0,.68-.1.89-.29.21-.19.32-.43.32-.71s-.11-.52-.32-.71-.51-.29-.88-.29h-.45v-.85h.4c.33,0,.58-.09.77-.26s.28-.39.28-.64c0-.28-.09-.51-.28-.68s-.44-.26-.77-.26-.58.09-.78.26-.3.39-.33.64h-.95Z"></path>
    </g>
  </g>
</svg></svg>