<svg xmlns="http://www.w3.org/2000/svg" version="1.1" xmlns:xlink="http://www.w3.org/1999/xlink"><svg version="1.1" xmlns="http://www.w3.org/2000/svg" xmlns:xlink="http://www.w3.org/1999/xlink" x="0px" y="0px" viewBox="0 0 560 560" style="enable-background:new 0 0 560 560;" xml:space="preserve">
<style type="text/css">
	.st0_1359768278{fill:none;}
	.st1_1359768278{fill:none;stroke:#1B4732;stroke-width:0.5;stroke-linecap:round;stroke-linejoin:round;stroke-dasharray:3;}
	.st2_1359768278{fill:none;stroke:#1B4732;stroke-width:0.5;stroke-linecap:round;stroke-linejoin:round;stroke-miterlimit:10;}
	.st3_1359768278{fill:#FFFFFF;stroke:#1B4732;stroke-width:0.5;stroke-linecap:round;stroke-linejoin:round;stroke-miterlimit:10;}
	.st4_1359768278{fill:none;stroke:#1B4732;stroke-width:0.25;stroke-linecap:round;stroke-linejoin:round;}
	.st5_1359768278{fill:#F5E8D1;stroke:#1B4732;stroke-width:0.5;stroke-linecap:round;stroke-linejoin:round;stroke-miterlimit:10;}
	.st6_1359768278{fill:#F5E8D1;stroke:#1B4732;stroke-width:0.5;stroke-linecap:round;stroke-linejoin:round;}
	.st7_1359768278{fill:none;stroke:#1B4732;stroke-width:0.5;stroke-linecap:round;stroke-linejoin:round;}
	.st8_1359768278{fill:#E1D1B6;stroke:#1B4732;stroke-width:0.5;stroke-linecap:round;stroke-linejoin:round;stroke-miterlimit:10;}
	.st9_1359768278{fill:#666C35;stroke:#666C35;stroke-width:0.5;stroke-linecap:round;stroke-linejoin:round;stroke-miterlimit:10;}
	.st10_1359768278{fill:#1B4732;}
</style>

<g>
	<line class=" st1_1359768278" x1="327.935" y1="324.154" x2="403.487" y2="324.154"></line>
	<line class=" st1_1359768278" x1="275.383" y1="244.555" x2="327.935" y2="244.555"></line>
	<line class=" st1_1359768278" x1="327.935" y1="324.154" x2="327.935" y2="244.555"></line>
	<line class=" st1_1359768278" x1="175.998" y1="202.334" x2="207.753" y2="202.334"></line>
</g>
<g>
	<path class=" st2_1359768278" d="M262.295,452.865c6.133,11.43,15.166,21.021,26.151,27.823"></path>
	<path class=" st2_1359768278" d="M326.696,491.812c-12.964-0.223-25.063-3.652-35.546-9.535"></path>
	<line class=" st2_1359768278" x1="415.352" y1="491.84" x2="360.43" y2="491.84"></line>
	<polyline class=" st2_1359768278" points="329.818,491.84 341.611,491.84 357.307,491.84 	"></polyline>
	
		<rect x="354.069" y="487.224" transform="matrix(-4.475727e-11 1 -1 -4.475727e-11 847.4909 130.0857)" class=" st2_1359768278" width="9.266" height="3.129"></rect>
	
		<rect x="323.459" y="487.224" transform="matrix(-4.554242e-11 1 -1 -4.554242e-11 816.8807 160.696)" class=" st2_1359768278" width="9.266" height="3.129"></rect>
	
		<rect x="412.283" y="487.224" transform="matrix(-4.554242e-11 1 -1 -4.554242e-11 905.7045 71.8721)" class=" st2_1359768278" width="9.266" height="3.129"></rect>
	<rect x="145.573" y="359.358" class=" st2_1359768278" width="34.096" height="9.256"></rect>
	<rect x="182.82" y="359.358" class=" st2_1359768278" width="28.102" height="9.256"></rect>
	<rect x="214.072" y="359.358" class=" st2_1359768278" width="38.055" height="9.256"></rect>
	<path class=" st2_1359768278" d="M252.125,417.237L252.125,417.237c0,42.081,34.113,76.194,76.194,76.194h90.496v-9.256h-90.496
		c-36.969,0-66.938-29.969-66.938-66.938v0H252.125z"></path>
	<rect x="179.669" y="359.358" class=" st2_1359768278" width="3.15" height="9.256"></rect>
	<rect x="179.669" y="359.33" class=" st2_1359768278" width="3.15" height="0.028"></rect>
	
		<rect x="142.502" y="362.407" transform="matrix(-1.836970e-16 1 -1 -1.836970e-16 511.1065 216.8368)" class=" st2_1359768278" width="9.266" height="3.129"></rect>
	<rect x="210.922" y="359.358" class=" st2_1359768278" width="3.15" height="9.256"></rect>
	<rect x="210.922" y="359.33" class=" st2_1359768278" width="3.15" height="0.028"></rect>
	
		<rect x="245.936" y="362.407" transform="matrix(-1.836970e-16 1 -1 -1.836970e-16 614.5405 113.4027)" class=" st2_1359768278" width="9.266" height="3.129"></rect>
	
		<rect x="287.117" y="477.006" transform="matrix(0.5 -0.866 0.866 0.5 -268.539 492.0173)" class=" st2_1359768278" width="9.426" height="3.129"></rect>
	
		<rect x="252.133" y="417.249" transform="matrix(-1 4.554167e-11 -4.554167e-11 -1 513.533 837.6263)" class=" st2_1359768278" width="9.266" height="3.129"></rect>
	
		<rect x="260.066" y="448.37" transform="matrix(-0.8755 0.4832 -0.4832 -0.8755 713.8452 715.9703)" class=" st2_1359768278" width="9.266" height="3.129"></rect>
	<path class=" st2_1359768278" d="M253.34,420.633c0.446,10.65,3.039,20.714,7.416,29.691"></path>
	<rect x="148.696" y="367.053" class=" st2_1359768278" width="30.974" height="1.561"></rect>
	<rect x="182.82" y="367.053" class=" st2_1359768278" width="28.102" height="1.561"></rect>
	<rect x="214.072" y="367.053" class=" st2_1359768278" width="34.933" height="1.561"></rect>
</g>
<g>
	
		<rect x="329.025" y="479.446" transform="matrix(0.9659 -0.2588 0.2588 0.9659 -112.5471 105.1263)" class=" st3_1359768278" width="27.918" height="1.116"></rect>
	
		<rect x="184.381" y="354.549" transform="matrix(-0.9659 -0.2588 0.2588 -0.9659 297.2563 749.5469)" class=" st3_1359768278" width="27.174" height="1.315"></rect>
</g>
<g>
	<path class=" st4_1359768278" d="M142.222,359.358l0-12.644l111.907,0l0,12.644L142.222,359.358z M246.747,346.742v12.588 M239.277,346.742
		v12.588 M231.806,346.742v12.588 M224.336,346.742v12.588 M216.865,346.742v12.588 M209.395,346.742v12.588 M201.924,346.742
		v12.588 M194.454,346.742v12.588 M186.983,346.742v12.588 M179.513,346.742v12.588 M172.042,346.742v12.588 M164.571,346.742
		v12.588 M157.101,346.742v12.588 M149.63,346.742v12.588 M424.179,471.043l0,13.13l-96.534,0
		c-37.895-1.619-67.091-32.563-66.227-65.313v-2.209h13.539v2.21c0,28.819,23.588,52.182,52.686,52.182H424.179z M401.983,484.298
		v-13.114 M394.584,484.298l0-13.114 M387.185,484.298v-13.114 M379.786,484.298v-13.114 M416.78,484.298l0-13.114 M409.382,484.298
		v-13.114 M372.387,484.298l0-13.114 M364.988,484.298v-13.114 M357.589,484.298v-13.114 M350.19,484.298l0-13.114 M342.791,484.298
		v-13.114 M335.392,484.298v-13.114 M327.993,484.298l0-13.114 M319.852,483.686l1.536-12.905 M311.843,481.98l3.091-12.389
		 M304.112,479.378l4.563-11.731 M296.76,475.914l5.928-10.934 M289.763,471.794l7.362-10.274 M283.487,466.656l8.536-9.238
		 M277.81,460.883l9.628-8.128 M272.918,454.441l10.569-6.886 M268.379,447.68l11.881-5.789 M265.212,440.168l12.518-4.273
		 M262.979,432.331l12.959-2.689 M261.833,424.274l13.196-1.075"></path>
</g>
<g>
	<rect x="405.614" y="169.412" class=" st5_1359768278" width="24.337" height="19.74"></rect>
	<rect x="405.614" y="165.264" class=" st5_1359768278" width="13.841" height="4.149"></rect>
	<g>
		
			<rect x="329.945" y="264.459" transform="matrix(6.123234e-17 -1 1 6.123234e-17 50.4593 641.2222)" class=" st5_1359768278" width="31.792" height="61.845"></rect>
		<g>
			<path class=" st5_1359768278" d="M371.052,324.902v-13.625H353.48v13.625c0,1.105,0.895,2,2,2h13.571
				C370.156,326.902,371.052,326.007,371.052,324.902z"></path>
			<path class=" st5_1359768278" d="M371.052,320.637v-9.359H353.48v9.359c0,1.105,0.895,2,2,2h13.571
				C370.156,322.637,371.052,321.742,371.052,320.637z"></path>
		</g>
		<g>
			<path class=" st5_1359768278" d="M338.647,324.902v-13.625h-17.571v13.625c0,1.105,0.895,2,2,2h13.571
				C337.751,326.902,338.647,326.007,338.647,324.902z"></path>
			<path class=" st5_1359768278" d="M338.647,320.637v-9.359h-17.571v9.359c0,1.105,0.895,2,2,2h13.571
				C337.751,322.637,338.647,321.742,338.647,320.637z"></path>
		</g>
		<g>
			<path class=" st5_1359768278" d="M321.075,265.861v13.625h17.571v-13.625c0-1.105-0.895-2-2-2h-13.571
				C321.971,263.861,321.075,264.756,321.075,265.861z"></path>
			<path class=" st5_1359768278" d="M321.075,270.126v9.359h17.571v-9.359c0-1.105-0.895-2-2-2h-13.571
				C321.971,268.126,321.075,269.021,321.075,270.126z"></path>
		</g>
		<g>
			<path class=" st5_1359768278" d="M353.48,265.861v13.625h17.571v-13.625c0-1.105-0.895-2-2-2H355.48
				C354.376,263.861,353.48,264.756,353.48,265.861z"></path>
			<path class=" st5_1359768278" d="M353.48,270.126v9.359h17.571v-9.359c0-1.105-0.895-2-2-2H355.48
				C354.376,268.126,353.48,269.021,353.48,270.126z"></path>
		</g>
	</g>
	<g>
		
			<rect x="405.546" y="189.22" transform="matrix(-1.836970e-16 1 -1 -1.836970e-16 619.1832 -216.3939)" class=" st5_1359768278" width="24.485" height="24.349"></rect>
		
			<rect x="407.88" y="205.51" transform="matrix(-1.836970e-16 1 -1 -1.836970e-16 618.2546 -203.189)" class=" st5_1359768278" width="5.683" height="4.046"></rect>
		
			<rect x="395.766" y="200.488" transform="matrix(-1.836970e-16 1 -1 -1.836970e-16 606.1208 -202.9922)" class=" st5_1359768278" width="17.581" height="2.153"></rect>
	</g>
	
		<rect x="182.525" y="92.728" transform="matrix(6.123234e-17 -1 1 6.123234e-17 78.3336 306.758)" class=" st5_1359768278" width="20.041" height="42.969"></rect>
	<g>
		<path class=" st5_1359768278" d="M202.78,121.185V110.18l-20.468,0v11.004c0,0.552,0.448,1,1,1l18.468,0
			C202.332,122.185,202.78,121.737,202.78,121.185z"></path>
		
			<rect x="191.758" y="99.158" transform="matrix(3.660295e-07 -1 1 3.660295e-07 83.1534 301.938)" class=" st5_1359768278" width="1.576" height="20.468"></rect>
		
			<rect x="189.538" y="108.262" transform="matrix(3.660256e-07 -1 1 3.660256e-07 83.2987 301.7934)" class=" st5_1359768278" width="6.015" height="1.97"></rect>
		<circle class=" st5_1359768278" cx="192.546" cy="115.45" r="1.395"></circle>
	</g>
	<rect x="348.754" y="108.281" class=" st5_1359768278" width="27.014" height="15.655"></rect>
	<g>
		<path class=" st5_1359768278" d="M370.345,121.406v-8.483l-16.168,0l0,8.483c0,0.552,0.448,1,1,1l14.168,0
			C369.898,122.406,370.345,121.958,370.345,121.406z"></path>
		
			<rect x="361.639" y="104.217" transform="matrix(3.660315e-07 -1 1 3.660315e-07 249.9603 474.5621)" class=" st5_1359768278" width="1.245" height="16.168"></rect>
		
			<rect x="359.886" y="111.408" transform="matrix(3.660248e-07 -1 1 3.660248e-07 250.075 474.4478)" class=" st5_1359768278" width="4.752" height="1.556"></rect>
		<circle class=" st5_1359768278" cx="362.261" cy="117.086" r="1.102"></circle>
	</g>
	<g>
		<path class=" st5_1359768278" d="M390.705,148.693v-12.339c0-0.828,0.672-1.5,1.5-1.5h17.034v15.339h-17.034
			C391.377,150.193,390.705,149.522,390.705,148.693z"></path>
		
			<rect x="403.807" y="140.287" transform="matrix(-1.836970e-16 1 -1 -1.836970e-16 554.0002 -268.9528)" class=" st5_1359768278" width="15.339" height="4.474"></rect>
	</g>
	<g>
		<path class=" st5_1359768278" d="M217.828,155.496v-12.339c0-0.828,0.672-1.5,1.5-1.5h17.034v15.339h-17.034
			C218.5,156.996,217.828,156.324,217.828,155.496z"></path>
		
			<rect x="230.93" y="147.09" transform="matrix(-1.961466e-08 1 -1 -1.961466e-08 387.926 -89.2731)" class=" st5_1359768278" width="15.339" height="4.474"></rect>
	</g>
	<g>
		<g>
			
				<rect x="115.76" y="122.094" transform="matrix(6.123234e-17 -1 1 6.123234e-17 11.5628 287.7735)" class=" st5_1359768278" width="67.817" height="32.022"></rect>
			<path class=" st5_1359768278" d="M163.406,109.268v55.471c0,1.919-1.556,3.475-3.475,3.475h-19.514c-1.919,0-3.475-1.556-3.475-3.475v-55.471
				c0-1.097,0.889-1.985,1.985-1.985h22.492C162.517,107.283,163.406,108.172,163.406,109.268z"></path>
			<path class=" st5_1359768278" d="M143.796,104.631v4.11c0,0.276,0.224,0.5,0.5,0.5h10.625c0.276,0,0.5-0.224,0.5-0.5v-4.11H143.796z"></path>
			
				<rect x="145.231" y="108.479" transform="matrix(6.123234e-17 -1 1 6.123234e-17 35.9895 256.4327)" class=" st5_1359768278" width="1.961" height="3.484"></rect>
			<ellipse class=" st5_1359768278" cx="149.608" cy="122.553" rx="5.402" ry="5.013"></ellipse>
		</g>
		<line class=" st2_1359768278" x1="149.608" y1="104.197" x2="149.608" y2="122.553"></line>
	</g>
	<g>
		
			<rect x="132.18" y="302.273" transform="matrix(5.168761e-11 -1 1 5.168761e-11 -168.6091 453.5211)" class=" st5_1359768278" width="20.552" height="17.584"></rect>
		
			<rect x="142.148" y="309.888" transform="matrix(5.217433e-11 -1 1 5.217433e-11 -158.6409 463.4894)" class=" st5_1359768278" width="20.552" height="2.353"></rect>
		
			<rect x="132.177" y="215.454" transform="matrix(5.195317e-11 -1 1 5.195317e-11 -81.7966 366.702)" class=" st5_1359768278" width="20.552" height="17.591"></rect>
		
			<rect x="142.149" y="223.073" transform="matrix(5.195561e-11 -1 1 5.195561e-11 -71.8253 376.6742)" class=" st5_1359768278" width="20.551" height="2.353"></rect>
		
			<rect x="102.54" y="265.643" transform="matrix(5.215634e-11 -1 1 5.215634e-11 -131.9858 403.3286)" class=" st5_1359768278" width="66.264" height="4.028"></rect>
		
			<rect x="115.561" y="256.646" transform="matrix(5.205709e-11 -1 1 5.205709e-11 -118.9603 416.3504)" class=" st5_1359768278" width="66.268" height="22.02"></rect>
		
			<rect x="135.041" y="275.091" transform="matrix(5.227469e-11 -1 1 5.227469e-11 -134.2231 431.7433)" class=" st5_1359768278" width="27.437" height="15.785"></rect>
		
			<rect x="135.065" y="244.414" transform="matrix(5.226581e-11 -1 1 5.226581e-11 -103.547 401.0672)" class=" st5_1359768278" width="27.39" height="15.785"></rect>
		<g>
			<polygon class=" st5_1359768278" points="150.552,262.249 163.858,289.099 161.314,294.404 159.705,300.789 214.072,300.789 214.072,234.521 
				150.552,234.521 			"></polygon>
		</g>
		<polygon class=" st5_1359768278" points="159.705,300.789 161.314,294.404 163.858,289.099 150.552,262.249 150.552,266.988 		"></polygon>
	</g>
	<g>
		<g>
			
				<rect x="247.98" y="265.156" transform="matrix(7.124357e-07 -1 1 7.124357e-07 2.5053 534.5095)" class=" st5_1359768278" width="41.055" height="1.693"></rect>
			
				<rect x="267.224" y="265.357" transform="matrix(7.124365e-07 -1 1 7.124365e-07 3.9969 535.9934)" class=" st5_1359768278" width="5.543" height="1.283"></rect>
		</g>
		<polyline class=" st2_1359768278" points="264.122,257.151 267.661,266.021 264.123,274.891 		"></polyline>
	</g>
	<g>
		<g>
			
				<rect x="246.489" y="369.056" transform="matrix(-6.928204e-07 1 -1 -6.928204e-07 649.112 91.6588)" class=" st5_1359768278" width="64.475" height="2.659"></rect>
			
				<rect x="272.038" y="369.384" transform="matrix(-6.928209e-07 1 -1 -6.928209e-07 646.7816 94.0013)" class=" st5_1359768278" width="8.705" height="2.014"></rect>
		</g>
		<polyline class=" st2_1359768278" points="285.613,384.285 280.056,370.356 285.613,356.426 		"></polyline>
	</g>
	<g>
		
			<rect x="362.5" y="135.518" transform="matrix(6.123234e-17 -1 1 6.123234e-17 197.2588 541.1315)" class=" st5_1359768278" width="13.39" height="72.837"></rect>
		<line class=" st5_1359768278" x1="332.777" y1="178.631" x2="405.613" y2="165.242"></line>
		<line class=" st5_1359768278" x1="332.777" y1="165.242" x2="405.613" y2="178.631"></line>
	</g>
	<g>
		<rect x="252.125" y="115.275" class=" st5_1359768278" width="23.174" height="56.738"></rect>
		<g>
			<line class=" st5_1359768278" x1="272.229" y1="134.142" x2="255.194" y2="135.502"></line>
			<line class=" st5_1359768278" x1="272.229" y1="145.25" x2="255.194" y2="146.609"></line>
			<line class=" st5_1359768278" x1="272.229" y1="163.016" x2="255.194" y2="164.376"></line>
			<line class=" st5_1359768278" x1="272.229" y1="151.909" x2="255.194" y2="153.268"></line>
			<line class=" st5_1359768278" x1="272.229" y1="124.273" x2="255.194" y2="122.914"></line>
			<line class=" st5_1359768278" x1="272.229" y1="140.589" x2="255.194" y2="139.229"></line>
			<line class=" st5_1359768278" x1="272.229" y1="158.355" x2="255.194" y2="156.996"></line>
			<line class=" st5_1359768278" x1="272.229" y1="129.932" x2="255.194" y2="129.932"></line>
		</g>
		<line class=" st5_1359768278" x1="263.712" y1="168.456" x2="263.712" y2="118.834"></line>
	</g>
	<g>
		
			<rect x="227.018" y="158.715" transform="matrix(6.123234e-17 -1 1 6.123234e-17 49.038 429.3522)" class=" st5_1359768278" width="24.354" height="62.883"></rect>
		<g>
			<line class=" st5_1359768278" x1="264.968" y1="181.206" x2="263.768" y2="199.109"></line>
			<line class=" st5_1359768278" x1="257.63" y1="181.206" x2="258.83" y2="199.109"></line>
			<line class=" st5_1359768278" x1="219.33" y1="181.206" x2="219.33" y2="199.109"></line>
			<line class=" st5_1359768278" x1="253.099" y1="181.206" x2="251.899" y2="199.109"></line>
			<line class=" st5_1359768278" x1="241.776" y1="181.206" x2="240.576" y2="199.109"></line>
			<line class=" st5_1359768278" x1="224.872" y1="181.206" x2="223.672" y2="199.109"></line>
			<line class=" st5_1359768278" x1="245.762" y1="181.206" x2="246.962" y2="199.109"></line>
			<line class=" st5_1359768278" x1="229.368" y1="181.206" x2="230.568" y2="199.109"></line>
			<line class=" st5_1359768278" x1="213.423" y1="181.206" x2="214.623" y2="199.109"></line>
			<line class=" st5_1359768278" x1="236.324" y1="181.206" x2="236.324" y2="199.109"></line>
		</g>
		<line class=" st5_1359768278" x1="210.357" y1="190.157" x2="268.033" y2="190.157"></line>
	</g>
	<g>
		
			<rect x="142.651" y="168.987" transform="matrix(6.123234e-17 -1 1 6.123234e-17 -35.3294 344.9848)" class=" st5_1359768278" width="24.354" height="42.341"></rect>
		<g>
			<line class=" st5_1359768278" x1="144.12" y1="181.206" x2="144.12" y2="199.109"></line>
			<line class=" st5_1359768278" x1="166.247" y1="181.206" x2="165.064" y2="199.109"></line>
			<line class=" st5_1359768278" x1="149.583" y1="181.206" x2="148.4" y2="199.109"></line>
			<line class=" st5_1359768278" x1="170.176" y1="181.206" x2="171.359" y2="199.109"></line>
			<line class=" st5_1359768278" x1="154.015" y1="181.206" x2="155.198" y2="199.109"></line>
			<line class=" st5_1359768278" x1="138.297" y1="181.206" x2="139.48" y2="199.109"></line>
			<line class=" st5_1359768278" x1="160.872" y1="181.206" x2="160.872" y2="199.109"></line>
		</g>
		<line class=" st5_1359768278" x1="135.991" y1="190.157" x2="173.664" y2="190.157"></line>
	</g>
	<rect x="404.369" y="219.59" class=" st6_1359768278" width="25.568" height="104.563"></rect>
	<rect x="332.613" y="219.59" class=" st6_1359768278" width="97.324" height="25.568"></rect>
	<g>
		<rect x="382.659" y="219.603" class=" st5_1359768278" width="21.71" height="25.568"></rect>
		<path class=" st5_1359768278" d="M401.338,242.686h-15.649c-0.552,0-1-0.448-1-1v-16.088c0-0.552,0.448-1,1-1h15.649c0.552,0,1,0.448,1,1
			v16.088C402.338,242.238,401.89,242.686,401.338,242.686z"></path>
		<rect x="392.171" y="220.916" class=" st5_1359768278" width="2.685" height="7.767"></rect>
		<circle class=" st5_1359768278" cx="393.514" cy="232.834" r="1.667"></circle>
		<rect x="392.171" y="220.916" class=" st5_1359768278" width="2.685" height="2.305"></rect>
	</g>
	<g>
		<rect x="404.369" y="254.628" class=" st5_1359768278" width="25.568" height="25.137"></rect>
		<circle class=" st5_1359768278" cx="411.512" cy="261.497" r="3.816"></circle>
		<circle class=" st5_1359768278" cx="411.512" cy="272.898" r="3.816"></circle>
		<circle class=" st5_1359768278" cx="422.791" cy="261.497" r="3.816"></circle>
		<circle class=" st5_1359768278" cx="422.791" cy="272.898" r="3.816"></circle>
	</g>
	<g>
		
			<rect x="332.613" y="219.59" transform="matrix(-2.857102e-13 -1 1 -2.857102e-13 113.0225 577.665)" class=" st6_1359768278" width="25.462" height="25.462"></rect>
		
			<rect x="344.529" y="231.506" transform="matrix(-3.742057e-12 -1 1 -3.742057e-12 101.4207 589.5806)" class=" st6_1359768278" width="1.944" height="25.148"></rect>
		
			<rect x="353.13" y="243.757" transform="matrix(6.123234e-17 -1 1 6.123234e-17 108.0781 599.8713)" class=" st6_1359768278" width="1.689" height="4.278"></rect>
		<g>
			<line class=" st7_1359768278" x1="345.344" y1="238.547" x2="345.344" y2="226.095"></line>
			<line class=" st7_1359768278" x1="350.716" y1="229.209" x2="339.972" y2="235.434"></line>
			<line class=" st7_1359768278" x1="339.972" y1="229.209" x2="350.715" y2="235.434"></line>
		</g>
	</g>
	<g>
		
			<rect x="358.075" y="219.59" transform="matrix(-1 -4.506052e-11 4.506052e-11 -1 740.7334 464.7489)" class=" st6_1359768278" width="24.584" height="25.568"></rect>
		
			<rect x="358.075" y="243.192" transform="matrix(-1 -4.506008e-11 4.506008e-11 -1 740.7334 488.3503)" class=" st6_1359768278" width="24.584" height="1.967"></rect>
		<path class=" st5_1359768278" d="M370.369,237.697L370.369,237.697c-1.451,0-2.41-0.689-2.985-1.681c-0.706-1.217-0.711-2.739-0.146-4.033
			l3.131-7.181l3.116,6.971c0.515,1.152,0.567,2.488,0.069,3.648C373.012,236.683,371.991,237.697,370.369,237.697z"></path>
	</g>
	<g>
		<circle class=" st5_1359768278" cx="361.101" cy="383.88" r="41.725"></circle>
		<circle class=" st5_1359768278" cx="363.998" cy="395.174" r="15.398"></circle>
	</g>
	<g>
		<path class=" st5_1359768278" d="M397.44,333.68l-0.014,0.014c-16.327-15.365-38.081,10.668-20.012,24l0.031-0.031
			c5.358,5.336,10.259,12.139,11.683,20.028c1.563,8.657-0.943,17.082-4.64,24.365l-0.001-0.001
			c-0.113,0.202-0.186,0.425-0.287,0.634c-0.047,0.069-0.089,0.133-0.137,0.202c-0.039,0.107-0.061,0.21-0.098,0.317
			c-0.515,1.225-0.821,2.539-0.88,3.909c-1.805,16.691,23.532,24.279,30.064,6.388C425.637,388.059,418.595,352.444,397.44,333.68z"></path>
		<path class=" st5_1359768278" d="M390.861,338.894c9.532,8.836,17.147,20.891,19.634,34.666c2.564,14.198,0.085,28.14-6.16,39.985l-0.06-0.036
			c-1.638,2.721-4.395,4.749-7.766,5.358c-6.214,1.122-12.161-3.006-13.283-9.22c-0.489-2.707,0.019-5.363,1.261-7.592l0.001,0.001
			c3.697-7.283,6.203-15.707,4.64-24.364c-1.53-8.47-7.059-15.711-12.868-21.203l0.025,0.022c-1.956-1.655-3.371-3.974-3.862-6.693
			c-1.122-6.214,3.006-12.161,9.22-13.283C385.044,335.92,388.367,336.88,390.861,338.894z"></path>
		<g>
			<line class=" st2_1359768278" x1="388.942" y1="389.972" x2="418.418" y2="396.715"></line>
			<line class=" st2_1359768278" x1="384.728" y1="366.632" x2="409.014" y2="347.756"></line>
		</g>
	</g>
	<g>
		<path class=" st5_1359768278" d="M375.633,463.676h-23.148c-2.321,0-4.202-1.881-4.202-4.202v-21.051c0-0.212,0.172-0.384,0.384-0.384h31.195
			c0.212,0,0.384,0.172,0.384,0.384v20.64C380.246,461.611,378.181,463.676,375.633,463.676z"></path>
		<path class=" st5_1359768278" d="M372.896,458.604h-16.372c-1.968,0-3.563-1.595-3.563-3.563v-20.129c0-0.492,0.399-0.891,0.891-0.891h20.826
			c0.492,0,0.891,0.399,0.891,0.891v21.019C375.568,457.408,374.372,458.604,372.896,458.604z"></path>
		<path class=" st5_1359768278" d="M372.958,447.352l-11.699,5.996c-0.246,0.126-0.343,0.427-0.217,0.673l3.281,6.402
			c0.126,0.246,0.427,0.343,0.673,0.217l11.699-5.996c0.246-0.126,0.343-0.427,0.217-0.673l-3.281-6.402
			C373.505,447.324,373.203,447.227,372.958,447.352z"></path>
	</g>
	<g>
		<path class=" st5_1359768278" d="M310.278,445.653l-16.714-16.015c-1.676-1.606-1.733-4.266-0.127-5.941l14.564-15.2
			c0.147-0.153,0.39-0.159,0.544-0.012l22.524,21.582c0.153,0.147,0.159,0.39,0.012,0.544l-14.279,14.903
			C315.038,447.353,312.118,447.415,310.278,445.653z"></path>
		<path class=" st5_1359768278" d="M311.811,440.097l-11.822-11.327c-1.421-1.361-1.469-3.617-0.108-5.038l13.926-14.534
			c0.34-0.355,0.904-0.367,1.259-0.027l15.037,14.408c0.355,0.34,0.367,0.904,0.027,1.259l-14.542,15.177
			C314.568,441.081,312.877,441.118,311.811,440.097z"></path>
		<path class=" st5_1359768278" d="M319.64,432.015l-12.595-3.764c-0.265-0.079-0.543,0.071-0.622,0.336l-2.06,6.893
			c-0.079,0.265,0.071,0.543,0.336,0.622l12.595,3.764c0.265,0.079,0.543-0.071,0.622-0.336l2.06-6.893
			C320.055,432.373,319.905,432.094,319.64,432.015z"></path>
	</g>
</g>
<g>
	<path class=" st8_1359768278" d="M261.411,359.358v-28.325h9.225v-88.808h4.746v166.256h-13.972v8.754h-9.284v-57.877H261.411z M440.839,99.173
		v394.281h-21.892v-9.281h10.999v-264.57h-97.639v24.952h-4.098v-33.34h4.569v2.422h97.168v-44.225h-10.491v-4.17h-86.677v13.679
		h-4.569v-21.26h4.569v1.615h80.936v-50.524v-0.001l-80.936,0.001v17.154h-4.569l-0.056-42.149h-9.932V72.863h26.346l-0.285,26.31
		H440.839z M423.36,113.822h9.057v-9.513h-9.057v0.001V113.822z M436.778,119.043h-7.187v40.233h7.187V119.043z M278.217,72.863
		v10.893h-2.834v31.519h-23.255l0,56.738h23.255l0,33.011h-4.746l0-27.045h-62.883v-5.966h33.083l0-67.824l-107.179,0.008v67.817
		h42.341v5.966h-42.341v181.378h11.784v9.247l-26.28,0.011V72.863H278.217z M150.933,88.498h-16.962l0.057,11.617h16.905V88.498z
		 M223.542,77.285h-67.158v17.582h67.158V77.285z M246.99,84.641h-18.47l0.062,15.474h18.408V84.641z M270.502,85.169h-18.375
		v23.595h18.375V85.169z"></path>
</g>
<g>
	<path class=" st2_1359768278" d="M328.092,493.431V520 M382.173,493.431V520 M128.535,395.185v-26.58 M181.244,395.185v-26.58 M252.142,418.813
		h-26.586 M260.462,451.947l-24.27,13.82 M289.517,482.834l-14.32,24.047 M225.556,395.185l26.578-26.58 M435.154,520v-26.569"></path>
	<path class=" st2_1359768278" d="M119.161,368.616h132.963v26.569H119.161V368.616z M225.556,395.185v25.922
		c0,54.617,44.276,98.894,98.894,98.894h116.389v-26.569H328.293c-42.066,0-76.168-34.102-76.168-76.168v-22.078H225.556z"></path>
</g>
<g>
	<g>
		<rect x="238.011" y="206.898" class=" st2_1359768278" width="33.237" height="2.127"></rect>
		<rect x="270.445" y="205.025" class=" st2_1359768278" width="3.445" height="1.873"></rect>
		<rect x="270.445" y="240.352" class=" st2_1359768278" width="3.445" height="1.873"></rect>
		<path class=" st2_1359768278" d="M238.011,209.025c0,18.218,18.891,31.327,32.324,31.327"></path>
	</g>
	<g>
		
			<rect x="164.11" y="157.584" transform="matrix(1.000135e-06 1 -1 1.000135e-06 336.8092 -19.8228)" class=" st2_1359768278" width="28.413" height="1.819"></rect>
		
			<rect x="175.134" y="172.686" transform="matrix(1.000125e-06 1 -1 1.000125e-06 350.0928 -3.1201)" class=" st2_1359768278" width="2.945" height="1.601"></rect>
		
			<rect x="205.333" y="172.686" transform="matrix(1.000132e-06 1 -1 1.000132e-06 380.2924 -33.3198)" class=" st2_1359768278" width="2.945" height="1.601"></rect>
		<path class=" st2_1359768278" d="M179.225,144.287c15.574,0,26.78,16.149,26.78,27.633"></path>
	</g>
	<g>
		
			<rect x="263.237" y="99.701" transform="matrix(1.000764e-06 -1 1 1.000764e-06 180.3474 382.0488)" class=" st2_1359768278" width="35.922" height="2.299"></rect>
		
			<rect x="277.175" y="80.883" transform="matrix(1.000754e-06 -1 1 1.000754e-06 197.1417 360.9315)" class=" st2_1359768278" width="3.724" height="2.024"></rect>
		
			<rect x="315.356" y="80.883" transform="matrix(1.000760e-06 -1 1 1.000760e-06 235.3229 399.1129)" class=" st2_1359768278" width="3.724" height="2.024"></rect>
		<path class=" st2_1359768278" d="M282.348,118.812c19.69,0,33.858-20.417,33.858-34.936"></path>
	</g>
	<g>
		
			<rect x="331.92" y="154.218" transform="matrix(-1 -1.000090e-06 1.000090e-06 -1 692.452 310.267)" class=" st2_1359768278" width="28.613" height="1.831"></rect>
		
			<rect x="329.644" y="156.049" transform="matrix(-1 -1.000082e-06 1.000082e-06 -1 662.2543 313.7103)" class=" st2_1359768278" width="2.966" height="1.612"></rect>
		
			<rect x="329.644" y="125.636" transform="matrix(-1 -1.000093e-06 1.000093e-06 -1 662.2544 252.8851)" class=" st2_1359768278" width="2.966" height="1.612"></rect>
		<path class=" st2_1359768278" d="M360.533,154.218c0-15.684-16.263-26.969-27.827-26.969"></path>
	</g>
	<g>
		
			<rect x="331.92" y="207.502" transform="matrix(-1 -1.000001e-06 1.000001e-06 -1 692.4521 416.8365)" class=" st2_1359768278" width="28.613" height="1.831"></rect>
		
			<rect x="329.644" y="209.334" transform="matrix(-1 -9.999920e-07 9.999920e-07 -1 662.2543 420.2798)" class=" st2_1359768278" width="2.966" height="1.612"></rect>
		
			<rect x="329.644" y="178.921" transform="matrix(-1 -1.000003e-06 1.000003e-06 -1 662.2544 359.4546)" class=" st2_1359768278" width="2.966" height="1.612"></rect>
		<path class=" st2_1359768278" d="M360.533,207.502c0-15.684-16.263-26.969-27.827-26.969"></path>
	</g>
</g>
<g>
	<polygon class=" st9_1359768278" points="308.148,55.066 307.669,55.066 298.323,66.779 299.214,40.58 299.214,40 297.041,40 297.041,40.58 
		297.937,66.779 288.592,55.066 288.107,55.066 288.107,57.918 298.104,67.962 308.148,57.919 	"></polygon>
</g>
<g>
	<g>
		<g>
			<path class=" st10_1359768278" d="M233.019,270.415v6.299h-0.952v-5l-0.85,0.552l-0.449-0.752l1.602-1.099H233.019z"></path>
			<path class=" st10_1359768278" d="M238.495,275.464h-0.698v1.25h-0.952v-1.25h-2.798v-0.801l2.651-4.248h1.099v4.15h0.698V275.464z
				 M236.844,274.565v-2.754l-1.699,2.754H236.844z"></path>
			<path class=" st10_1359768278" d="M239.625,275.664c0.153,0,0.283,0.057,0.391,0.171s0.161,0.257,0.161,0.43c0,0.254-0.042,0.469-0.125,0.645
				s-0.175,0.321-0.276,0.435c-0.121,0.133-0.254,0.241-0.4,0.322l-0.151-0.2c0.065-0.045,0.128-0.106,0.19-0.181
				c0.052-0.059,0.102-0.132,0.149-0.22s0.084-0.189,0.11-0.303c-0.172,0-0.316-0.053-0.43-0.159s-0.171-0.235-0.171-0.388
				s0.054-0.283,0.161-0.391S239.472,275.664,239.625,275.664z"></path>
			<path class=" st10_1359768278" d="M243.054,276.763c-0.312,0-0.602-0.055-0.869-0.164s-0.499-0.262-0.696-0.459s-0.353-0.426-0.466-0.686
				s-0.171-0.541-0.171-0.84c0-0.186,0.032-0.372,0.095-0.559s0.133-0.354,0.208-0.5c0.088-0.172,0.187-0.337,0.298-0.493
				l1.753-2.646h1.05l-1.401,2.1c0.033-0.006,0.073-0.013,0.122-0.02c0.033-0.006,0.074-0.013,0.125-0.02s0.102-0.01,0.154-0.01
				c0.26,0,0.512,0.055,0.754,0.164s0.456,0.262,0.64,0.459s0.331,0.426,0.442,0.686s0.166,0.541,0.166,0.84s-0.057,0.58-0.171,0.84
				s-0.27,0.489-0.466,0.686s-0.429,0.35-0.696,0.459S243.367,276.763,243.054,276.763z M241.804,274.614
				c0,0.186,0.032,0.359,0.095,0.52s0.152,0.298,0.266,0.41s0.248,0.202,0.4,0.269s0.316,0.1,0.488,0.1s0.335-0.033,0.488-0.1
				s0.287-0.156,0.4-0.269s0.203-0.249,0.266-0.41s0.095-0.334,0.095-0.52s-0.032-0.359-0.095-0.52s-0.152-0.298-0.266-0.41
				s-0.248-0.202-0.4-0.269s-0.316-0.1-0.488-0.1s-0.335,0.033-0.488,0.1s-0.287,0.156-0.4,0.269s-0.203,0.249-0.266,0.41
				S241.804,274.429,241.804,274.614z"></path>
		</g>
	</g>
	<g>
		<g>
			<path class=" st10_1359768278" d="M190.335,191.332v0.898h-4.048v-0.698l2.5-2.7c0.114-0.121,0.213-0.244,0.298-0.371
				c0.075-0.114,0.144-0.238,0.208-0.371s0.095-0.27,0.095-0.41c0-0.28-0.095-0.508-0.286-0.684s-0.461-0.264-0.813-0.264
				c-0.326,0-0.591,0.102-0.796,0.305s-0.308,0.468-0.308,0.793h-0.947c0-0.287,0.048-0.55,0.144-0.791s0.233-0.446,0.41-0.615
				s0.392-0.302,0.645-0.398s0.536-0.144,0.852-0.144c0.312,0,0.595,0.046,0.847,0.139s0.467,0.222,0.645,0.388
				s0.314,0.363,0.41,0.591s0.144,0.47,0.144,0.728c0,0.199-0.046,0.399-0.139,0.601s-0.196,0.379-0.31,0.532
				c-0.133,0.179-0.283,0.352-0.449,0.518l-1.792,1.953H190.335z"></path>
			<path class=" st10_1359768278" d="M191.666,191.181c0.153,0,0.283,0.057,0.391,0.171s0.161,0.257,0.161,0.43c0,0.254-0.042,0.469-0.125,0.645
				s-0.175,0.321-0.276,0.435c-0.121,0.133-0.254,0.241-0.4,0.322l-0.151-0.2c0.065-0.045,0.128-0.106,0.19-0.181
				c0.052-0.059,0.102-0.132,0.149-0.22s0.084-0.189,0.11-0.303c-0.172,0-0.316-0.053-0.43-0.159s-0.171-0.235-0.171-0.388
				s0.054-0.283,0.161-0.391S191.513,191.181,191.666,191.181z"></path>
			<path class=" st10_1359768278" d="M197.244,190.98h-0.698v1.25h-0.952v-1.25h-2.798v-0.801l2.651-4.248h1.099v4.15h0.698V190.98z
				 M195.593,190.082v-2.754l-1.699,2.754H195.593z"></path>
		</g>
	</g>
	<g>
		<g>
			<path class=" st10_1359768278" d="M201.287,136.34c0.287,0,0.558,0.055,0.815,0.164s0.481,0.262,0.671,0.459s0.341,0.426,0.452,0.686
				s0.166,0.541,0.166,0.84s-0.057,0.58-0.171,0.84s-0.27,0.489-0.466,0.686s-0.429,0.35-0.696,0.459s-0.557,0.164-0.869,0.164
				s-0.596-0.046-0.85-0.139s-0.47-0.219-0.649-0.378s-0.321-0.344-0.425-0.554s-0.163-0.436-0.176-0.676h0.947
				c0.013,0.114,0.05,0.224,0.11,0.33s0.141,0.202,0.242,0.288s0.22,0.155,0.356,0.205s0.285,0.076,0.444,0.076
				c0.172,0,0.335-0.033,0.488-0.1s0.287-0.156,0.4-0.269s0.203-0.249,0.266-0.41s0.095-0.334,0.095-0.52s-0.032-0.359-0.095-0.52
				s-0.152-0.298-0.266-0.41s-0.248-0.202-0.4-0.269s-0.316-0.1-0.488-0.1c-0.199,0-0.372,0.04-0.52,0.12s-0.268,0.167-0.359,0.261
				c-0.114,0.114-0.205,0.236-0.273,0.366h-0.796l0.4-3.647h3.35v0.898h-2.544l-0.156,1.499c0.075-0.059,0.165-0.116,0.269-0.171
				c0.088-0.045,0.193-0.086,0.315-0.122S201.134,136.34,201.287,136.34z"></path>
			<path class=" st10_1359768278" d="M204.667,139.539c0.153,0,0.283,0.057,0.391,0.171s0.161,0.257,0.161,0.43c0,0.254-0.042,0.469-0.125,0.645
				s-0.175,0.321-0.276,0.435c-0.121,0.133-0.254,0.241-0.4,0.322l-0.151-0.2c0.065-0.045,0.128-0.106,0.19-0.181
				c0.052-0.059,0.102-0.132,0.149-0.22s0.084-0.189,0.11-0.303c-0.172,0-0.316-0.053-0.43-0.159s-0.171-0.235-0.171-0.388
				s0.054-0.283,0.161-0.391S204.515,139.539,204.667,139.539z"></path>
			<path class=" st10_1359768278" d="M209.899,134.29v0.649l-2.603,5.649h-1.001l2.5-5.4h-2.847v-0.898H209.899z"></path>
		</g>
	</g>
	<g>
		<g>
			<path class=" st10_1359768278" d="M383.332,264.398h-0.698v1.25h-0.952v-1.25h-2.798v-0.801l2.651-4.248h1.099v4.15h0.698V264.398z
				 M381.682,263.5v-2.754l-1.699,2.754H381.682z"></path>
			<path class=" st10_1359768278" d="M384.462,264.599c0.153,0,0.283,0.057,0.391,0.171s0.161,0.257,0.161,0.43c0,0.254-0.042,0.469-0.124,0.645
				c-0.084,0.176-0.176,0.321-0.276,0.435c-0.12,0.133-0.254,0.241-0.4,0.322l-0.151-0.2c0.065-0.045,0.129-0.106,0.19-0.181
				c0.052-0.059,0.102-0.132,0.149-0.22c0.047-0.088,0.083-0.189,0.109-0.303c-0.173,0-0.315-0.053-0.43-0.159
				s-0.171-0.235-0.171-0.388s0.054-0.283,0.161-0.391S384.309,264.599,384.462,264.599z"></path>
			<path class=" st10_1359768278" d="M387.989,261.4c0.286,0,0.559,0.055,0.815,0.164s0.481,0.262,0.671,0.459
				c0.191,0.197,0.342,0.426,0.452,0.686s0.166,0.541,0.166,0.84s-0.057,0.58-0.171,0.84s-0.27,0.489-0.467,0.686
				c-0.196,0.197-0.429,0.35-0.695,0.459s-0.557,0.164-0.869,0.164s-0.596-0.046-0.85-0.139s-0.471-0.219-0.649-0.378
				s-0.32-0.344-0.425-0.554s-0.163-0.436-0.176-0.676h0.947c0.013,0.114,0.05,0.224,0.109,0.33
				c0.061,0.106,0.142,0.202,0.242,0.288s0.22,0.155,0.356,0.205s0.285,0.076,0.444,0.076c0.173,0,0.335-0.033,0.488-0.1
				s0.286-0.156,0.4-0.269s0.203-0.249,0.266-0.41c0.064-0.161,0.096-0.334,0.096-0.52s-0.031-0.359-0.096-0.52
				c-0.062-0.161-0.151-0.298-0.266-0.41s-0.247-0.202-0.4-0.269s-0.315-0.1-0.488-0.1c-0.198,0-0.372,0.04-0.52,0.12
				c-0.148,0.08-0.269,0.167-0.359,0.261c-0.114,0.114-0.205,0.236-0.273,0.366h-0.796l0.4-3.647h3.35v0.898h-2.544l-0.156,1.499
				c0.075-0.059,0.164-0.116,0.269-0.171c0.088-0.045,0.192-0.086,0.315-0.122C387.698,261.418,387.836,261.4,387.989,261.4z"></path>
		</g>
	</g>
	<g>
		<g>
			<path class=" st10_1359768278" d="M303.726,346.857v0.898h-4.048v-0.698l2.5-2.7c0.114-0.12,0.213-0.244,0.298-0.371
				c0.075-0.114,0.144-0.237,0.208-0.371c0.062-0.134,0.095-0.271,0.095-0.41c0-0.28-0.095-0.508-0.286-0.684
				c-0.189-0.176-0.461-0.264-0.812-0.264c-0.325,0-0.591,0.102-0.796,0.305c-0.205,0.204-0.308,0.469-0.308,0.794h-0.947
				c0-0.286,0.048-0.55,0.145-0.791c0.096-0.241,0.232-0.446,0.41-0.615c0.177-0.169,0.392-0.302,0.645-0.397
				c0.252-0.097,0.536-0.145,0.852-0.145c0.312,0,0.595,0.047,0.848,0.139c0.252,0.094,0.467,0.223,0.645,0.389
				c0.177,0.166,0.313,0.363,0.41,0.591c0.096,0.228,0.144,0.471,0.144,0.728c0,0.198-0.046,0.398-0.14,0.601
				c-0.092,0.202-0.195,0.379-0.31,0.532c-0.134,0.179-0.283,0.352-0.449,0.518l-1.792,1.953H303.726z"></path>
			<path class=" st10_1359768278" d="M308.654,346.857v0.898h-4.048v-0.698l2.5-2.7c0.114-0.12,0.213-0.244,0.298-0.371
				c0.075-0.114,0.144-0.237,0.208-0.371c0.062-0.134,0.095-0.271,0.095-0.41c0-0.28-0.095-0.508-0.286-0.684
				c-0.189-0.176-0.461-0.264-0.812-0.264c-0.325,0-0.591,0.102-0.796,0.305c-0.205,0.204-0.308,0.469-0.308,0.794h-0.947
				c0-0.286,0.048-0.55,0.145-0.791c0.096-0.241,0.232-0.446,0.41-0.615c0.177-0.169,0.392-0.302,0.645-0.397
				c0.252-0.097,0.536-0.145,0.852-0.145c0.312,0,0.595,0.047,0.848,0.139c0.252,0.094,0.467,0.223,0.645,0.389
				c0.177,0.166,0.313,0.363,0.41,0.591c0.096,0.228,0.144,0.471,0.144,0.728c0,0.198-0.046,0.398-0.14,0.601
				c-0.092,0.202-0.195,0.379-0.31,0.532c-0.134,0.179-0.283,0.352-0.449,0.518l-1.792,1.953H308.654z"></path>
			<path class=" st10_1359768278" d="M309.984,346.706c0.153,0,0.283,0.057,0.391,0.171s0.161,0.257,0.161,0.43c0,0.254-0.042,0.469-0.124,0.645
				c-0.084,0.176-0.176,0.32-0.276,0.435c-0.12,0.134-0.254,0.241-0.4,0.322l-0.151-0.2c0.065-0.046,0.129-0.105,0.19-0.181
				c0.052-0.059,0.102-0.132,0.149-0.22c0.047-0.088,0.083-0.188,0.109-0.303c-0.173,0-0.315-0.053-0.43-0.158
				c-0.114-0.106-0.171-0.235-0.171-0.389s0.054-0.283,0.161-0.391S309.831,346.706,309.984,346.706z"></path>
			<path class=" st10_1359768278" d="M315.216,341.457v0.649l-2.603,5.649h-1.001l2.5-5.4h-2.847v-0.898H315.216z"></path>
		</g>
	</g>
	<g>
		<g>
			<path class=" st10_1359768278" d="M301.777,171.968c-0.312,0-0.603-0.055-0.869-0.164s-0.499-0.262-0.695-0.459
				c-0.197-0.197-0.353-0.426-0.467-0.686s-0.171-0.541-0.171-0.84c0-0.186,0.032-0.372,0.095-0.559
				c0.064-0.187,0.133-0.354,0.208-0.5c0.088-0.172,0.188-0.337,0.298-0.493l1.753-2.646h1.05l-1.401,2.1
				c0.032-0.006,0.073-0.013,0.122-0.02c0.032-0.006,0.074-0.013,0.125-0.02c0.05-0.006,0.102-0.01,0.153-0.01
				c0.261,0,0.512,0.055,0.755,0.164c0.242,0.109,0.455,0.262,0.639,0.459c0.185,0.197,0.332,0.426,0.442,0.686
				s0.166,0.541,0.166,0.84s-0.057,0.58-0.171,0.84s-0.27,0.489-0.467,0.686c-0.196,0.197-0.429,0.35-0.695,0.459
				S302.09,171.968,301.777,171.968z M300.527,169.82c0,0.186,0.031,0.359,0.096,0.52c0.062,0.161,0.151,0.298,0.266,0.41
				s0.247,0.202,0.4,0.269s0.315,0.1,0.488,0.1s0.335-0.033,0.488-0.1s0.286-0.156,0.4-0.269s0.203-0.249,0.266-0.41
				c0.064-0.161,0.096-0.334,0.096-0.52s-0.031-0.359-0.096-0.52c-0.062-0.161-0.151-0.298-0.266-0.41s-0.247-0.202-0.4-0.269
				s-0.315-0.1-0.488-0.1s-0.335,0.033-0.488,0.1s-0.286,0.156-0.4,0.269s-0.203,0.249-0.266,0.41
				C300.559,169.461,300.527,169.634,300.527,169.82z"></path>
			<path class=" st10_1359768278" d="M305.207,170.87c0.153,0,0.283,0.057,0.391,0.171s0.161,0.257,0.161,0.43c0,0.254-0.042,0.469-0.124,0.645
				c-0.084,0.176-0.176,0.321-0.276,0.435c-0.12,0.133-0.254,0.241-0.4,0.322l-0.151-0.2c0.065-0.045,0.129-0.106,0.19-0.181
				c0.052-0.059,0.102-0.132,0.149-0.22c0.047-0.088,0.083-0.189,0.109-0.303c-0.173,0-0.315-0.053-0.43-0.159
				s-0.171-0.235-0.171-0.388s0.054-0.283,0.161-0.391S305.054,170.87,305.207,170.87z"></path>
			<path class=" st10_1359768278" d="M308.637,165.572c0.312,0,0.603,0.055,0.869,0.164s0.499,0.262,0.695,0.459
				c0.197,0.197,0.353,0.426,0.467,0.686s0.171,0.541,0.171,0.84c0,0.192-0.032,0.38-0.095,0.564
				c-0.064,0.184-0.133,0.349-0.208,0.496c-0.088,0.172-0.188,0.335-0.298,0.488l-1.753,2.651h-1.05l1.401-2.1
				c-0.032,0.013-0.07,0.023-0.112,0.029c-0.032,0.006-0.074,0.011-0.125,0.015c-0.05,0.003-0.104,0.005-0.163,0.005
				c-0.261,0-0.512-0.055-0.755-0.164c-0.242-0.109-0.455-0.262-0.639-0.459c-0.185-0.197-0.332-0.426-0.442-0.686
				s-0.166-0.541-0.166-0.84s0.057-0.58,0.171-0.84s0.27-0.489,0.467-0.686c0.196-0.197,0.429-0.35,0.695-0.459
				S308.324,165.572,308.637,165.572z M309.887,167.72c0-0.186-0.031-0.359-0.096-0.52c-0.062-0.161-0.151-0.298-0.266-0.41
				s-0.247-0.202-0.4-0.269s-0.315-0.1-0.488-0.1s-0.335,0.033-0.488,0.1s-0.286,0.156-0.4,0.269s-0.203,0.248-0.266,0.408
				c-0.064,0.16-0.096,0.333-0.096,0.522c0,0.186,0.031,0.358,0.096,0.518c0.062,0.16,0.151,0.296,0.266,0.41s0.247,0.204,0.4,0.271
				s0.315,0.1,0.488,0.1s0.335-0.033,0.488-0.1s0.286-0.157,0.4-0.271s0.203-0.25,0.266-0.41
				C309.855,168.078,309.887,167.906,309.887,167.72z"></path>
		</g>
	</g>
	<g>
		<g>
			<path class=" st10_1359768278" d="M369.547,138.834c0.013-0.241,0.07-0.466,0.174-0.676c0.102-0.21,0.242-0.395,0.42-0.554
				c0.177-0.16,0.389-0.286,0.635-0.378c0.245-0.093,0.52-0.139,0.822-0.139c0.286,0,0.551,0.048,0.793,0.144
				c0.243,0.096,0.455,0.226,0.635,0.388c0.182,0.163,0.321,0.349,0.42,0.559c0.1,0.21,0.149,0.429,0.149,0.657
				s-0.042,0.423-0.124,0.586c-0.084,0.163-0.176,0.298-0.276,0.405c-0.12,0.121-0.254,0.223-0.4,0.308
				c0.186,0.088,0.354,0.202,0.503,0.342c0.127,0.121,0.242,0.281,0.344,0.481c0.104,0.2,0.154,0.443,0.154,0.73
				c0,0.241-0.051,0.469-0.154,0.684c-0.102,0.215-0.247,0.404-0.434,0.569c-0.188,0.165-0.413,0.296-0.677,0.396
				s-0.559,0.149-0.884,0.149s-0.618-0.046-0.879-0.139s-0.482-0.219-0.666-0.378c-0.185-0.16-0.328-0.344-0.43-0.554
				c-0.104-0.21-0.162-0.436-0.179-0.676h0.952c0.013,0.114,0.05,0.224,0.109,0.33c0.061,0.106,0.143,0.202,0.244,0.288
				c0.104,0.086,0.227,0.155,0.371,0.205c0.146,0.05,0.304,0.076,0.477,0.076c0.381,0,0.676-0.097,0.887-0.291
				c0.209-0.194,0.314-0.431,0.314-0.71s-0.105-0.516-0.317-0.708s-0.506-0.288-0.884-0.288h-0.449v-0.854h0.4
				c0.325,0,0.582-0.086,0.77-0.259c0.187-0.172,0.28-0.386,0.28-0.64c0-0.28-0.094-0.508-0.28-0.684
				c-0.188-0.176-0.444-0.264-0.77-0.264s-0.584,0.086-0.776,0.259s-0.301,0.386-0.327,0.64H369.547z"></path>
			<path class=" st10_1359768278" d="M375.071,142.384c0.153,0,0.283,0.057,0.391,0.171s0.161,0.257,0.161,0.43c0,0.254-0.042,0.469-0.124,0.645
				c-0.084,0.176-0.176,0.321-0.276,0.435c-0.12,0.133-0.254,0.241-0.4,0.322l-0.151-0.2c0.065-0.045,0.129-0.106,0.19-0.181
				c0.052-0.059,0.102-0.132,0.149-0.22c0.047-0.088,0.083-0.189,0.109-0.303c-0.173,0-0.315-0.053-0.43-0.159
				s-0.171-0.235-0.171-0.388s0.054-0.283,0.161-0.391S374.918,142.384,375.071,142.384z"></path>
			<path class=" st10_1359768278" d="M376.353,138.834c0.013-0.241,0.07-0.466,0.174-0.676c0.102-0.21,0.242-0.395,0.42-0.554
				c0.177-0.16,0.389-0.286,0.635-0.378c0.245-0.093,0.52-0.139,0.822-0.139c0.286,0,0.551,0.048,0.793,0.144
				c0.243,0.096,0.455,0.226,0.635,0.388c0.182,0.163,0.321,0.349,0.42,0.559c0.1,0.21,0.149,0.429,0.149,0.657
				s-0.042,0.423-0.124,0.586c-0.084,0.163-0.176,0.298-0.276,0.405c-0.12,0.121-0.254,0.223-0.4,0.308
				c0.186,0.088,0.354,0.202,0.503,0.342c0.127,0.121,0.242,0.281,0.344,0.481c0.104,0.2,0.154,0.443,0.154,0.73
				c0,0.241-0.051,0.469-0.154,0.684c-0.102,0.215-0.247,0.404-0.434,0.569c-0.188,0.165-0.413,0.296-0.677,0.396
				s-0.559,0.149-0.884,0.149s-0.618-0.046-0.879-0.139s-0.482-0.219-0.666-0.378c-0.185-0.16-0.328-0.344-0.43-0.554
				c-0.104-0.21-0.162-0.436-0.179-0.676h0.952c0.013,0.114,0.05,0.224,0.109,0.33c0.061,0.106,0.143,0.202,0.244,0.288
				c0.104,0.086,0.227,0.155,0.371,0.205c0.146,0.05,0.304,0.076,0.477,0.076c0.381,0,0.676-0.097,0.887-0.291
				c0.209-0.194,0.314-0.431,0.314-0.71s-0.105-0.516-0.317-0.708s-0.506-0.288-0.884-0.288h-0.449v-0.854h0.4
				c0.325,0,0.582-0.086,0.77-0.259c0.187-0.172,0.28-0.386,0.28-0.64c0-0.28-0.094-0.508-0.28-0.684
				c-0.188-0.176-0.444-0.264-0.77-0.264s-0.584,0.086-0.776,0.259s-0.301,0.386-0.327,0.64H376.353z"></path>
		</g>
	</g>
	<g>
		<g>
			<path class=" st10_1359768278" d="M376.12,194.509c0.013-0.241,0.07-0.466,0.174-0.676c0.102-0.21,0.242-0.395,0.42-0.554
				c0.177-0.16,0.389-0.286,0.635-0.378c0.245-0.093,0.52-0.139,0.822-0.139c0.286,0,0.551,0.048,0.793,0.144
				c0.243,0.096,0.455,0.226,0.635,0.388c0.182,0.163,0.321,0.349,0.42,0.559c0.1,0.21,0.149,0.429,0.149,0.657
				s-0.042,0.423-0.124,0.586c-0.084,0.163-0.176,0.298-0.276,0.405c-0.12,0.121-0.254,0.223-0.4,0.308
				c0.186,0.088,0.354,0.202,0.503,0.342c0.127,0.121,0.242,0.281,0.344,0.481c0.104,0.2,0.154,0.443,0.154,0.73
				c0,0.241-0.051,0.469-0.154,0.684c-0.102,0.215-0.247,0.404-0.434,0.569c-0.188,0.165-0.413,0.296-0.677,0.396
				s-0.559,0.149-0.884,0.149s-0.618-0.046-0.879-0.139s-0.482-0.219-0.666-0.378c-0.185-0.16-0.328-0.344-0.43-0.554
				c-0.104-0.21-0.162-0.436-0.179-0.676h0.952c0.013,0.114,0.05,0.224,0.109,0.33c0.061,0.106,0.143,0.202,0.244,0.288
				c0.104,0.086,0.227,0.155,0.371,0.205c0.146,0.05,0.304,0.076,0.477,0.076c0.381,0,0.676-0.097,0.887-0.291
				c0.209-0.194,0.314-0.431,0.314-0.71s-0.105-0.516-0.317-0.708s-0.506-0.288-0.884-0.288h-0.449v-0.854h0.4
				c0.325,0,0.582-0.086,0.77-0.259c0.187-0.172,0.28-0.386,0.28-0.64c0-0.28-0.094-0.508-0.28-0.684
				c-0.188-0.176-0.444-0.264-0.77-0.264s-0.584,0.086-0.776,0.259s-0.301,0.386-0.327,0.64H376.12z"></path>
			<path class=" st10_1359768278" d="M381.645,198.059c0.153,0,0.283,0.057,0.391,0.171s0.161,0.257,0.161,0.43c0,0.254-0.042,0.469-0.124,0.645
				c-0.084,0.176-0.176,0.321-0.276,0.435c-0.12,0.133-0.254,0.241-0.4,0.322l-0.151-0.2c0.065-0.045,0.129-0.106,0.19-0.181
				c0.052-0.059,0.102-0.132,0.149-0.22c0.047-0.088,0.083-0.189,0.109-0.303c-0.173,0-0.315-0.053-0.43-0.159
				s-0.171-0.235-0.171-0.388s0.054-0.283,0.161-0.391S381.491,198.059,381.645,198.059z"></path>
			<path class=" st10_1359768278" d="M387.022,198.21v0.898h-4.048v-0.698l2.5-2.7c0.114-0.121,0.213-0.244,0.298-0.371
				c0.075-0.114,0.144-0.238,0.208-0.371c0.062-0.133,0.095-0.27,0.095-0.41c0-0.28-0.095-0.508-0.286-0.684
				c-0.189-0.176-0.461-0.264-0.812-0.264c-0.325,0-0.591,0.102-0.796,0.305s-0.308,0.468-0.308,0.793h-0.947
				c0-0.287,0.048-0.55,0.145-0.791c0.096-0.241,0.232-0.446,0.41-0.615c0.177-0.169,0.392-0.302,0.645-0.398
				c0.252-0.096,0.536-0.144,0.852-0.144c0.312,0,0.595,0.046,0.848,0.139c0.252,0.093,0.467,0.222,0.645,0.388
				c0.177,0.166,0.313,0.363,0.41,0.591c0.096,0.228,0.144,0.47,0.144,0.728c0,0.199-0.046,0.399-0.14,0.601
				c-0.092,0.202-0.195,0.379-0.31,0.532c-0.134,0.179-0.283,0.352-0.449,0.518l-1.792,1.953H387.022z"></path>
		</g>
	</g>
</g>

</svg></svg>