<svg xmlns="http://www.w3.org/2000/svg" version="1.1" xmlns:xlink="http://www.w3.org/1999/xlink"><svg version="1.1" xmlns="http://www.w3.org/2000/svg" xmlns:xlink="http://www.w3.org/1999/xlink" x="0px" y="0px" viewBox="0 0 560 560" style="enable-background:new 0 0 560 560;" xml:space="preserve">
<style type="text/css">
	.st0_1865326903{fill:none;}
	.st1_1865326903{fill:none;stroke:#1B4732;stroke-width:0.5;stroke-linecap:round;stroke-linejoin:round;stroke-dasharray:3;}
	.st2_1865326903{fill:none;stroke:#1B4732;stroke-width:0.5;stroke-linecap:round;stroke-linejoin:round;stroke-miterlimit:10;}
	.st3_1865326903{fill:#FFFFFF;stroke:#1B4732;stroke-width:0.5;stroke-linecap:round;stroke-linejoin:round;stroke-miterlimit:10;}
	.st4_1865326903{fill:none;stroke:#1B4732;stroke-width:0.25;stroke-linecap:round;stroke-linejoin:round;}
	.st5_1865326903{fill:#F5E8D1;stroke:#1B4732;stroke-width:0.5;stroke-linecap:round;stroke-linejoin:round;stroke-miterlimit:10;}
	.st6_1865326903{fill:#F5E8D1;stroke:#1B4732;stroke-width:0.5;stroke-linecap:round;stroke-linejoin:round;}
	.st7_1865326903{fill:none;stroke:#1B4732;stroke-width:0.5;stroke-linecap:round;stroke-linejoin:round;}
	.st8_1865326903{fill:#E1D1B6;stroke:#1B4732;stroke-width:0.5;stroke-linecap:round;stroke-linejoin:round;stroke-miterlimit:10;}
	.st9_1865326903{fill:#666C35;stroke:#666C35;stroke-width:0.5;stroke-linecap:round;stroke-linejoin:round;stroke-miterlimit:10;}
	.st10_1865326903{fill:#1B4732;}
</style>

<g>
	<line class=" st1_1865326903" x1="231.651" y1="323.897" x2="156.829" y2="323.897"></line>
	<line class=" st1_1865326903" x1="284.272" y1="244.195" x2="231.651" y2="244.195"></line>
	<line class=" st1_1865326903" x1="231.651" y1="323.897" x2="231.651" y2="244.195"></line>
	<line class=" st1_1865326903" x1="352.103" y1="201.919" x2="383.9" y2="201.919"></line>
</g>
<g>
	<rect x="307.671" y="359.148" class=" st2_1865326903" width="38.105" height="9.268"></rect>
	<rect x="348.931" y="359.148" class=" st2_1865326903" width="28.139" height="9.268"></rect>
	<rect x="380.224" y="359.148" class=" st2_1865326903" width="34.141" height="9.268"></rect>
	<rect x="143.89" y="484.126" class=" st2_1865326903" width="54.994" height="9.268"></rect>
	<rect x="202.01" y="484.126" class=" st2_1865326903" width="27.525" height="9.268"></rect>
	<path class=" st2_1865326903" d="M298.375,453.447l1.089-1.926c-12.395,24.482-37.602,41.371-66.802,41.846v-9.268
		c11.501-0.223,22.305-3.322,31.684-8.626l3.908,6.756l0.67,1.145l2.708-1.563l-0.67-1.173l-3.936-6.756
		c9.743-6.141,17.81-14.712,23.282-24.873l6.839,3.769L298.375,453.447z"></path>
	<path class=" st2_1865326903" d="M307.587,420.255c-0.419,10.887-3.154,21.188-7.705,30.428l-1.284-0.698l-6.811-3.769
		c4.104-8.514,6.476-18.062,6.588-28.139v2.177H307.587z"></path>
	<path class=" st2_1865326903" d="M271.632,481.809l-2.708,1.563l-0.67-1.145l-3.908-6.756c0.893-0.502,1.815-1.033,2.68-1.591l3.936,6.756
		L271.632,481.809z"></path>
	<path class=" st2_1865326903" d="M298.599,449.985c4.383-8.989,6.979-19.066,7.426-29.73"></path>
	<path class=" st2_1865326903" d="M270.962,480.637c10.999-6.811,20.043-16.414,26.185-27.86"></path>
	<path class=" st2_1865326903" d="M268.254,482.228c-10.496,5.89-22.612,9.324-35.592,9.547"></path>
	<line class=" st2_1865326903" x1="198.884" y1="491.803" x2="143.89" y2="491.803"></line>
	<polyline class=" st2_1865326903" points="202.01,491.803 217.727,491.803 229.535,491.803 	"></polyline>
	<rect x="377.069" y="359.148" class=" st2_1865326903" width="3.154" height="9.268"></rect>
	<rect x="377.069" y="359.12" class=" st2_1865326903" width="3.154" height="0.028"></rect>
	
		<rect x="408.159" y="362.201" transform="matrix(-4.567920e-11 1 -1 -4.567920e-11 776.5658 -49.0308)" class=" st2_1865326903" width="9.278" height="3.133"></rect>
	<rect x="345.776" y="359.148" class=" st2_1865326903" width="3.154" height="9.268"></rect>
	<rect x="345.776" y="359.12" class=" st2_1865326903" width="3.154" height="0.028"></rect>
	
		<rect x="304.59" y="362.201" transform="matrix(-4.548291e-11 1 -1 -4.548291e-11 672.9965 54.5385)" class=" st2_1865326903" width="9.278" height="3.133"></rect>
	<path class=" st2_1865326903" d="M267.026,473.881c-0.865,0.558-1.787,1.089-2.68,1.591l-0.14-0.251l2.708-1.563L267.026,473.881z"></path>
	<path class=" st2_1865326903" d="M232.662,484.098v9.268c-0.419,0.028-0.865,0.028-1.284,0.028h-1.842v-9.268h1.842
		c0.391,0,0.754,0,1.145-0.028H232.662z"></path>
	<path class=" st2_1865326903" d="M231.378,484.126h-1.842v-0.028h2.987C232.131,484.126,231.768,484.126,231.378,484.126z"></path>
	<path class=" st2_1865326903" d="M232.662,493.366v0.028h-1.284C231.796,493.394,232.243,493.394,232.662,493.366z"></path>
	<rect x="198.884" y="484.126" class=" st2_1865326903" width="3.127" height="9.268"></rect>
	<rect x="198.884" y="484.098" class=" st2_1865326903" width="3.127" height="0.028"></rect>
	<rect x="140.763" y="484.126" class=" st2_1865326903" width="3.127" height="9.268"></rect>
	<rect x="140.763" y="484.098" class=" st2_1865326903" width="3.127" height="0.028"></rect>
	<path class=" st2_1865326903" d="M307.671,417.101c0,1.061-0.028,2.094-0.084,3.154h-9.212v-2.177c0.028-0.307,0.028-0.642,0.028-0.977H307.671
		z"></path>
	<path class=" st2_1865326903" d="M298.375,417.101h0.028c0,0.335,0,0.67-0.028,0.977V417.101z"></path>
	<path class=" st2_1865326903" d="M307.671,417.101v3.154h-0.084C307.643,419.194,307.671,418.161,307.671,417.101z"></path>
	<path class=" st2_1865326903" d="M299.883,450.683c-0.14,0.279-0.279,0.558-0.419,0.837l-1.089,1.926l-1.228-0.67l-6.839-3.769
		c0.475-0.81,0.921-1.675,1.312-2.512l0.168-0.279l6.811,3.769L299.883,450.683z"></path>
	<path class=" st2_1865326903" d="M290.252,448.98l1.368-2.485c-0.391,0.837-0.837,1.703-1.312,2.512L290.252,448.98z"></path>
	<path class=" st2_1865326903" d="M299.911,450.711l-0.447,0.809c0.14-0.279,0.279-0.558,0.419-0.837L299.911,450.711z"></path>
	<rect x="310.798" y="366.853" class=" st2_1865326903" width="34.978" height="1.563"></rect>
	<rect x="348.931" y="366.853" class=" st2_1865326903" width="28.139" height="1.563"></rect>
	<rect x="380.224" y="366.853" class=" st2_1865326903" width="31.014" height="1.563"></rect>
</g>
<g>
	
		<rect x="202.224" y="479.41" transform="matrix(-0.9659 -0.2588 0.2588 -0.9659 300.8102 999.5402)" class=" st3_1865326903" width="27.954" height="1.117"></rect>
	
		<rect x="348.296" y="354.332" transform="matrix(0.9659 -0.2588 0.2588 0.9659 -79.5468 105.7627)" class=" st3_1865326903" width="27.21" height="1.317"></rect>
</g>
<g>
	<path class=" st4_1865326903" d="M305.874,359.148l0-12.661l112.054,0l0,12.661L305.874,359.148z M313.265,346.516v12.604 M320.746,346.516
		v12.604 M328.226,346.516v12.604 M335.706,346.516v12.604 M343.187,346.516v12.604 M350.667,346.516v12.604 M358.147,346.516
		v12.604 M365.628,346.516v12.604 M373.108,346.516v12.604 M380.588,346.516v12.604 M388.068,346.516v12.604 M395.549,346.516
		v12.604 M403.029,346.516v12.604 M410.509,346.516v12.604 M232.286,470.979c29.136,0,52.755-23.393,52.755-52.25v-2.213h13.557
		v2.212c0.865,32.793-28.368,63.778-66.314,65.399l-96.66,0l0-13.147H232.286z M157.85,484.251V471.12 M165.259,484.251l0-13.131
		 M172.668,484.251V471.12 M180.076,484.251V471.12 M143.033,484.251l0-13.131 M150.442,484.251V471.12 M187.485,484.251l0-13.131
		 M194.894,484.251V471.12 M202.302,484.251V471.12 M209.711,484.251l0-13.131 M217.12,484.251V471.12 M224.528,484.251V471.12
		 M231.937,484.251l0-13.131 M240.089,483.639l-1.538-12.921 M248.107,481.93l-3.095-12.405 M255.849,479.325l-4.569-11.747
		 M263.211,475.856l-5.936-10.949 M270.217,471.731l-7.372-10.287 M276.501,466.586l-8.548-9.25 M282.185,460.806l-9.64-8.138
		 M287.084,454.355l-10.583-6.895 M291.629,447.585l-11.896-5.796 M294.799,440.064l-12.534-4.279 M297.035,432.217l-12.976-2.693
		 M298.183,424.149l-13.213-1.077"></path>
</g>
<g>
	
		<rect x="357.297" y="92.169" transform="matrix(4.477847e-11 -1 1 4.477847e-11 253.6495 481.0123)" class=" st5_1865326903" width="20.067" height="43.025"></rect>
	<g>
		<path class=" st5_1865326903" d="M357.084,120.664v-11.02l20.495,0v11.02c0,0.552-0.448,1-1,1l-18.495,0
			C357.531,121.664,357.084,121.217,357.084,120.664z"></path>
		
			<rect x="366.542" y="98.608" transform="matrix(-3.659899e-07 -1 1 -3.659899e-07 258.4759 476.1861)" class=" st5_1865326903" width="1.578" height="20.495"></rect>
		
			<rect x="364.319" y="107.724" transform="matrix(-3.659813e-07 -1 1 -3.659813e-07 258.6207 476.0406)" class=" st5_1865326903" width="6.023" height="1.973"></rect>
		<circle class=" st5_1865326903" cx="367.331" cy="114.92" r="1.397"></circle>
	</g>
	<g>
		<path class=" st5_1865326903" d="M342.015,155.021v-12.359c0-0.828-0.672-1.5-1.5-1.5h-17.059v15.359h17.059
			C341.344,156.521,342.015,155.849,342.015,155.021z"></path>
		
			<rect x="313.538" y="146.602" transform="matrix(1.956991e-08 1 -1 1.956991e-08 470.0585 -172.3753)" class=" st5_1865326903" width="15.359" height="4.48"></rect>
	</g>
	<g>
		<g>
			
				<rect x="376.312" y="121.574" transform="matrix(4.481466e-11 -1 1 4.481466e-11 272.6589 547.8704)" class=" st5_1865326903" width="67.906" height="32.064"></rect>
			<path class=" st5_1865326903" d="M396.509,108.728v55.551c0,1.919,1.556,3.475,3.475,3.475h19.549c1.919,0,3.475-1.556,3.475-3.475v-55.551
				c0-1.097-0.889-1.985-1.985-1.985h-22.527C397.398,106.743,396.509,107.632,396.509,108.728z"></path>
			<path class=" st5_1865326903" d="M416.145,104.087v4.116c0,0.276-0.224,0.5-0.5,0.5h-10.641c-0.276,0-0.5-0.224-0.5-0.5v-4.116H416.145z"></path>
			
				<rect x="412.744" y="107.941" transform="matrix(4.724738e-11 -1 1 4.724738e-11 304.0407 523.4117)" class=" st5_1865326903" width="1.963" height="3.489"></rect>
			<ellipse class=" st5_1865326903" cx="410.325" cy="122.033" rx="5.409" ry="5.02"></ellipse>
		</g>
		<line class=" st2_1865326903" x1="410.325" y1="103.653" x2="410.325" y2="122.033"></line>
	</g>
	<g>
		
			<rect x="407.197" y="301.988" transform="matrix(-6.717232e-12 -1 1 -6.717232e-12 106.6944 728.278)" class=" st5_1865326903" width="20.579" height="17.607"></rect>
		
			<rect x="397.215" y="309.614" transform="matrix(-7.071171e-12 -1 1 -7.071171e-12 96.7131 718.2968)" class=" st5_1865326903" width="20.579" height="2.356"></rect>
		
			<rect x="407.2" y="215.056" transform="matrix(-7.336292e-12 -1 1 -7.336292e-12 193.6271 641.3519)" class=" st5_1865326903" width="20.579" height="17.614"></rect>
		
			<rect x="397.216" y="222.685" transform="matrix(-7.336736e-12 -1 1 -7.336736e-12 183.6419 631.3676)" class=" st5_1865326903" width="20.578" height="2.356"></rect>
		
			<rect x="391.104" y="265.31" transform="matrix(-7.155326e-12 -1 1 -7.155326e-12 156.9526 691.6068)" class=" st5_1865326903" width="66.35" height="4.033"></rect>
		
			<rect x="378.062" y="256.301" transform="matrix(-7.264350e-12 -1 1 -7.264350e-12 143.9137 678.5643)" class=" st5_1865326903" width="66.355" height="22.048"></rect>
		
			<rect x="397.437" y="274.77" transform="matrix(-7.216389e-12 -1 1 -7.216389e-12 128.5007 693.847)" class=" st5_1865326903" width="27.473" height="15.806"></rect>
		
			<rect x="397.461" y="244.054" transform="matrix(-7.229711e-12 -1 1 -7.229711e-12 159.217 663.1308)" class=" st5_1865326903" width="27.426" height="15.806"></rect>
		<g>
			<polygon class=" st5_1865326903" points="409.379,261.912 396.056,288.797 398.603,294.109 400.215,300.503 345.776,300.503 345.776,234.148 
				409.379,234.148 			"></polygon>
		</g>
		<polygon class=" st5_1865326903" points="400.215,300.503 398.603,294.109 396.056,288.797 409.379,261.912 409.379,266.657 		"></polygon>
	</g>
	<g>
		<g>
			
				<rect x="270.825" y="264.822" transform="matrix(-7.123909e-07 -1 1 -7.123909e-07 25.7103 557.0498)" class=" st5_1865326903" width="41.109" height="1.695"></rect>
			
				<rect x="287.115" y="265.024" transform="matrix(-7.123892e-07 -1 1 -7.123892e-07 24.2244 555.5563)" class=" st5_1865326903" width="5.55" height="1.284"></rect>
		</g>
		<polyline class=" st2_1865326903" points="295.771,256.807 292.227,265.689 295.77,274.57 		"></polyline>
	</g>
	
		<rect x="130.109" y="168.954" transform="matrix(-1 -4.497348e-11 4.497348e-11 -1 284.5872 357.6733)" class=" st5_1865326903" width="24.369" height="19.766"></rect>
	
		<rect x="140.571" y="164.799" transform="matrix(-1 -4.466883e-11 4.466883e-11 -1 295.0494 333.7532)" class=" st5_1865326903" width="13.906" height="4.154"></rect>
	<g>
		
			<rect x="198.739" y="264.125" transform="matrix(4.499785e-11 -1 1 4.499785e-11 -80.4319 509.7433)" class=" st5_1865326903" width="31.834" height="61.926"></rect>
		<g>
			<path class=" st5_1865326903" d="M189.412,324.65v-13.645h17.594v13.645c0,1.105-0.895,2-2,2h-13.594
				C190.307,326.65,189.412,325.754,189.412,324.65z"></path>
			<path class=" st5_1865326903" d="M189.412,320.379v-9.374h17.594v9.374c0,1.105-0.895,2-2,2h-13.594
				C190.307,322.379,189.412,321.483,189.412,320.379z"></path>
		</g>
		<g>
			<path class=" st5_1865326903" d="M221.859,324.65v-13.645h17.594v13.645c0,1.105-0.895,2-2,2h-13.594
				C222.755,326.65,221.859,325.754,221.859,324.65z"></path>
			<path class=" st5_1865326903" d="M221.859,320.379v-9.374h17.594v9.374c0,1.105-0.895,2-2,2h-13.594
				C222.755,322.379,221.859,321.483,221.859,320.379z"></path>
		</g>
		<g>
			<path class=" st5_1865326903" d="M239.454,265.526v13.645l-17.594,0v-13.645c0-1.105,0.895-2,2-2h13.594
				C238.558,263.526,239.454,264.421,239.454,265.526z"></path>
			<path class=" st5_1865326903" d="M239.454,269.796v9.374l-17.594,0v-9.374c0-1.105,0.895-2,2-2h13.594
				C238.558,267.796,239.454,268.692,239.454,269.796z"></path>
		</g>
		<g>
			<path class=" st5_1865326903" d="M207.006,265.526v13.645h-17.594v-13.645c0-1.105,0.895-2,2-2h13.594
				C206.111,263.526,207.006,264.421,207.006,265.526z"></path>
			<path class=" st5_1865326903" d="M207.006,269.796v9.374h-17.594v-9.374c0-1.105,0.895-2,2-2h13.594
				C206.111,267.796,207.006,268.692,207.006,269.796z"></path>
		</g>
	</g>
	<g>
		
			<rect x="130.029" y="188.787" transform="matrix(-4.499886e-11 1 -1 -4.499886e-11 343.2651 58.6906)" class=" st5_1865326903" width="24.517" height="24.381"></rect>
		
			<rect x="146.518" y="205.098" transform="matrix(-4.539498e-11 1 -1 -4.539498e-11 356.4874 57.7607)" class=" st5_1865326903" width="5.69" height="4.051"></rect>
		
			<rect x="146.735" y="200.07" transform="matrix(-4.505215e-11 1 -1 -4.505215e-11 356.6844 45.6111)" class=" st5_1865326903" width="17.604" height="2.156"></rect>
	</g>
	
		<rect x="183.297" y="108.226" transform="matrix(-1 -4.492108e-11 4.492108e-11 -1 393.6439 232.1286)" class=" st5_1865326903" width="27.049" height="15.676"></rect>
	<g>
		<path class=" st5_1865326903" d="M188.727,121.37v-8.495l16.189,0v8.495c0,0.552-0.448,1-1,1l-14.189,0
			C189.175,122.37,188.727,121.923,188.727,121.37z"></path>
		
			<rect x="196.199" y="104.157" transform="matrix(-3.659830e-07 -1 1 -3.659830e-07 84.5702 309.0739)" class=" st5_1865326903" width="1.247" height="16.189"></rect>
		
			<rect x="194.443" y="111.358" transform="matrix(-3.659800e-07 -1 1 -3.659800e-07 84.6846 308.959)" class=" st5_1865326903" width="4.758" height="1.558"></rect>
		<circle class=" st5_1865326903" cx="196.822" cy="117.043" r="1.103"></circle>
	</g>
	<g>
		<path class=" st5_1865326903" d="M169.219,148.209v-12.359c0-0.828-0.672-1.5-1.5-1.5H150.66v15.359h17.059
			C168.547,149.709,169.219,149.038,169.219,148.209z"></path>
		
			<rect x="140.741" y="139.79" transform="matrix(-4.512320e-11 1 -1 -4.512320e-11 290.4504 -6.3905)" class=" st5_1865326903" width="15.359" height="4.48"></rect>
	</g>
	<g>
		<g>
			
				<rect x="248.629" y="368.858" transform="matrix(6.927755e-07 1 -1 6.927755e-07 651.0978 89.2806)" class=" st5_1865326903" width="64.56" height="2.662"></rect>
			
				<rect x="278.89" y="369.187" transform="matrix(6.927754e-07 1 -1 6.927754e-07 653.4434 86.9471)" class=" st5_1865326903" width="8.717" height="2.017"></rect>
		</g>
		<polyline class=" st2_1865326903" points="274.013,384.108 279.578,370.16 274.013,356.212 		"></polyline>
	</g>
	<g>
		
			<rect x="183.971" y="135.265" transform="matrix(4.531493e-11 -1 1 4.531493e-11 19.1936 362.1557)" class=" st5_1865326903" width="13.407" height="72.432"></rect>
		<line class=" st5_1865326903" x1="226.891" y1="178.185" x2="154.459" y2="164.777"></line>
		<line class=" st5_1865326903" x1="226.891" y1="164.777" x2="154.459" y2="178.185"></line>
	</g>
	<g>
		
			<rect x="284.47" y="114.746" transform="matrix(-1 -4.523150e-11 4.523150e-11 -1 592.1438 286.3046)" class=" st5_1865326903" width="23.204" height="56.813"></rect>
		<g>
			<line class=" st5_1865326903" x1="287.543" y1="133.637" x2="304.601" y2="134.999"></line>
			<line class=" st5_1865326903" x1="287.543" y1="144.759" x2="304.601" y2="146.12"></line>
			<line class=" st5_1865326903" x1="287.543" y1="162.549" x2="304.601" y2="163.91"></line>
			<line class=" st5_1865326903" x1="287.543" y1="151.427" x2="304.601" y2="152.788"></line>
			<line class=" st5_1865326903" x1="287.543" y1="123.755" x2="304.601" y2="122.394"></line>
			<line class=" st5_1865326903" x1="287.543" y1="140.092" x2="304.601" y2="138.731"></line>
			<line class=" st5_1865326903" x1="287.543" y1="157.882" x2="304.601" y2="156.521"></line>
			<line class=" st5_1865326903" x1="287.543" y1="129.422" x2="304.601" y2="129.422"></line>
		</g>
		<line class=" st5_1865326903" x1="296.072" y1="167.996" x2="296.072" y2="118.309"></line>
	</g>
	<g>
		<rect x="289.138" y="177.533" class=" st5_1865326903" width="62.965" height="24.386"></rect>
		<g>
			<line class=" st5_1865326903" x1="294.81" y1="180.762" x2="296.011" y2="198.689"></line>
			<line class=" st5_1865326903" x1="302.152" y1="180.762" x2="300.951" y2="198.689"></line>
			<line class=" st5_1865326903" x1="340.475" y1="180.762" x2="340.475" y2="198.689"></line>
			<line class=" st5_1865326903" x1="306.686" y1="180.762" x2="307.887" y2="198.689"></line>
			<line class=" st5_1865326903" x1="318.016" y1="180.762" x2="319.217" y2="198.689"></line>
			<line class=" st5_1865326903" x1="334.93" y1="180.762" x2="336.131" y2="198.689"></line>
			<line class=" st5_1865326903" x1="314.028" y1="180.762" x2="312.827" y2="198.689"></line>
			<line class=" st5_1865326903" x1="330.431" y1="180.762" x2="329.23" y2="198.689"></line>
			<line class=" st5_1865326903" x1="346.386" y1="180.762" x2="345.185" y2="198.689"></line>
			<line class=" st5_1865326903" x1="323.471" y1="180.762" x2="323.471" y2="198.689"></line>
		</g>
		<line class=" st5_1865326903" x1="349.453" y1="189.726" x2="291.743" y2="189.726"></line>
	</g>
	<g>
		
			<rect x="392.905" y="168.528" transform="matrix(4.490459e-11 -1 1 4.490459e-11 215.3727 594.824)" class=" st5_1865326903" width="24.386" height="42.396"></rect>
		<g>
			<line class=" st5_1865326903" x1="415.82" y1="180.762" x2="415.82" y2="198.689"></line>
			<line class=" st5_1865326903" x1="393.665" y1="180.762" x2="394.849" y2="198.689"></line>
			<line class=" st5_1865326903" x1="410.35" y1="180.762" x2="411.535" y2="198.689"></line>
			<line class=" st5_1865326903" x1="389.73" y1="180.762" x2="388.546" y2="198.689"></line>
			<line class=" st5_1865326903" x1="405.912" y1="180.762" x2="404.727" y2="198.689"></line>
			<line class=" st5_1865326903" x1="421.651" y1="180.762" x2="420.466" y2="198.689"></line>
			<line class=" st5_1865326903" x1="399.046" y1="180.762" x2="399.046" y2="198.689"></line>
		</g>
		<line class=" st5_1865326903" x1="423.96" y1="189.726" x2="386.237" y2="189.726"></line>
	</g>
	
		<rect x="130.097" y="219.197" transform="matrix(-1 -3.687507e-11 3.687507e-11 -1 285.7948 543.0947)" class=" st6_1865326903" width="25.602" height="104.7"></rect>
	
		<rect x="130.097" y="219.197" transform="matrix(-1 -5.156376e-11 5.156376e-11 -1 357.6444 463.9964)" class=" st6_1865326903" width="97.451" height="25.602"></rect>
	<g>
		
			<rect x="155.698" y="219.21" transform="matrix(-1 -7.049884e-11 7.049884e-11 -1 333.1346 464.0214)" class=" st5_1865326903" width="21.738" height="25.602"></rect>
		<path class=" st5_1865326903" d="M158.731,242.323h15.672c0.552,0,1-0.448,1-1v-16.112c0-0.552-0.448-1-1-1h-15.672c-0.552,0-1,0.448-1,1
			v16.112C157.731,241.875,158.179,242.323,158.731,242.323z"></path>
		
			<rect x="165.223" y="220.525" transform="matrix(-1 -4.431800e-11 4.431800e-11 -1 333.1346 448.8262)" class=" st5_1865326903" width="2.688" height="7.777"></rect>
		<circle class=" st5_1865326903" cx="166.567" cy="232.458" r="1.669"></circle>
		
			<rect x="165.223" y="220.525" transform="matrix(-1 -4.431845e-11 4.431845e-11 -1 333.1346 443.3575)" class=" st5_1865326903" width="2.688" height="2.308"></rect>
	</g>
	<g>
		
			<rect x="130.097" y="254.281" transform="matrix(-1 -4.540069e-11 4.540069e-11 -1 285.7948 533.7313)" class=" st5_1865326903" width="25.602" height="25.17"></rect>
		<circle class=" st5_1865326903" cx="148.545" cy="261.159" r="3.821"></circle>
		<circle class=" st5_1865326903" cx="148.545" cy="272.575" r="3.821"></circle>
		<circle class=" st5_1865326903" cx="137.251" cy="261.159" r="3.821"></circle>
		<circle class=" st5_1865326903" cx="137.251" cy="272.575" r="3.821"></circle>
	</g>
	<g>
		
			<rect x="202.053" y="219.197" transform="matrix(4.480578e-11 -1 1 4.480578e-11 -17.1447 446.7452)" class=" st6_1865326903" width="25.495" height="25.495"></rect>
		
			<rect x="213.67" y="231.129" transform="matrix(4.437923e-11 -1 1 4.437923e-11 -29.0759 458.3622)" class=" st6_1865326903" width="1.947" height="25.181"></rect>
		
			<rect x="205.312" y="243.396" transform="matrix(4.248697e-11 -1 1 4.248697e-11 -39.38 451.696)" class=" st6_1865326903" width="1.691" height="4.284"></rect>
		<g>
			<line class=" st7_1865326903" x1="214.8" y1="238.179" x2="214.8" y2="225.711"></line>
			<line class=" st7_1865326903" x1="209.421" y1="228.828" x2="220.179" y2="235.062"></line>
			<line class=" st7_1865326903" x1="220.179" y1="228.828" x2="209.422" y2="235.062"></line>
		</g>
	</g>
	<g>
		<rect x="177.436" y="219.197" class=" st6_1865326903" width="24.616" height="25.602"></rect>
		<rect x="177.436" y="242.83" class=" st6_1865326903" width="24.616" height="1.969"></rect>
		<path class=" st5_1865326903" d="M189.742,237.328L189.742,237.328c1.453,0,2.413-0.69,2.989-1.683c0.707-1.219,0.711-2.743,0.146-4.039
			l-3.135-7.191l-3.12,6.98c-0.516,1.154-0.568,2.491-0.069,3.653C187.095,236.313,188.118,237.328,189.742,237.328z"></path>
	</g>
	<g>
		<circle class=" st5_1865326903" cx="197.045" cy="383.702" r="41.78"></circle>
		<circle class=" st5_1865326903" cx="194.174" cy="395.501" r="15.419"></circle>
	</g>
	<g>
		<path class=" st5_1865326903" d="M160.011,333.436l0.014,0.014c16.348-15.385,38.131,10.682,20.038,24.032l-0.031-0.031
			c-5.365,5.343-10.272,12.155-11.699,20.054c-1.565,8.669,0.944,17.104,4.646,24.396l0.001-0.001
			c0.113,0.203,0.186,0.425,0.287,0.634c0.048,0.069,0.089,0.133,0.137,0.202c0.039,0.107,0.061,0.21,0.098,0.317
			c0.516,1.227,0.822,2.543,0.881,3.914c1.807,16.713-23.563,24.311-30.104,6.397C131.776,387.887,138.828,352.225,160.011,333.436z
			"></path>
		<path class=" st5_1865326903" d="M166.598,338.657c-9.545,8.847-17.169,20.918-19.66,34.711c-2.567,14.217-0.085,28.177,6.168,40.037
			l0.06-0.036c1.64,2.724,4.401,4.755,7.776,5.365c6.222,1.124,12.177-3.01,13.3-9.232c0.489-2.71-0.019-5.37-1.262-7.602
			l-0.001,0.001c-3.702-7.292-6.211-15.728-4.646-24.396c1.532-8.481,7.068-15.731,12.885-21.23l-0.025,0.022
			c1.959-1.657,3.375-3.98,3.867-6.702c1.124-6.222-3.01-12.177-9.232-13.3C172.422,335.679,169.096,336.64,166.598,338.657z"></path>
		<g>
			<line class=" st2_1865326903" x1="168.519" y1="389.802" x2="139.005" y2="396.554"></line>
			<line class=" st2_1865326903" x1="172.74" y1="366.431" x2="148.421" y2="347.531"></line>
		</g>
	</g>
	<g>
		<path class=" st5_1865326903" d="M206.983,463.603h-23.19c-2.321,0-4.202-1.881-4.202-4.202v-21.084c0-0.212,0.172-0.384,0.384-0.384h31.237
			c0.212,0,0.384,0.172,0.384,0.384v20.673C211.596,461.537,209.531,463.603,206.983,463.603z"></path>
		<path class=" st5_1865326903" d="M204.24,458.524h-16.402c-1.968,0-3.563-1.595-3.563-3.563V434.8c0-0.492,0.399-0.891,0.891-0.891h20.855
			c0.492,0,0.891,0.399,0.891,0.891v21.051C206.912,457.327,205.715,458.524,204.24,458.524z"></path>
		<path class=" st5_1865326903" d="M204.299,447.257l-11.715,6.004c-0.246,0.126-0.343,0.427-0.217,0.673l3.286,6.411
			c0.126,0.246,0.427,0.343,0.673,0.217l11.715-6.004c0.246-0.126,0.343-0.427,0.217-0.673l-3.286-6.411
			C204.846,447.228,204.545,447.131,204.299,447.257z"></path>
	</g>
	<g>
		<path class=" st5_1865326903" d="M249.739,445.56l16.744-16.044c1.676-1.606,1.732-4.266,0.127-5.941l-14.587-15.224
			c-0.147-0.153-0.39-0.159-0.544-0.012l-22.554,21.611c-0.153,0.147-0.159,0.39-0.012,0.544l14.303,14.927
			C244.979,447.26,247.9,447.322,249.739,445.56z"></path>
		<path class=" st5_1865326903" d="M248.206,439.995l11.843-11.348c1.421-1.361,1.469-3.617,0.108-5.037l-13.948-14.557
			c-0.34-0.355-0.904-0.367-1.259-0.027l-15.059,14.429c-0.355,0.34-0.367,0.904-0.027,1.259l14.564,15.2
			C245.449,440.979,247.14,441.016,248.206,439.995z"></path>
		<path class=" st5_1865326903" d="M240.369,431.9l12.613-3.77c0.265-0.079,0.543,0.071,0.622,0.336l2.063,6.903
			c0.079,0.265-0.071,0.543-0.336,0.622l-12.613,3.77c-0.265,0.079-0.543-0.071-0.622-0.336l-2.063-6.903
			C239.954,432.258,240.104,431.98,240.369,431.9z"></path>
	</g>
</g>
<g>
	<path class=" st8_1865326903" d="M307.671,359.148v57.953h-9.296v-8.766h-13.99V241.861h4.752v88.924h9.238v28.362H307.671z M440.811,72.309
		v296.109l-26.314-0.011v-9.259h11.799V177.533H383.9v-5.974h42.396v-67.906l-107.319-0.007l0,67.913h33.126v5.974h-62.965l0,27.081
		h-4.752l0-33.055h23.286v-56.813h-23.286v-31.56h-2.838V72.279L440.811,72.309z M307.671,84.6h-18.399v23.626h18.399V84.6z
		 M331.309,84.072h-18.494v15.494h18.432L331.309,84.072z M403.54,76.706h-67.246v17.605h67.246V76.706z M425.982,87.934h-16.984
		v11.632h16.927L425.982,87.934z M241.273,72.279v10.907h-9.577l-0.044,41.935h-4.761v-16.894l-80.705-0.013l-0.009,50.591h80.714
		v-1.617h4.761v21.288h-4.761v-13.697h-86.319v4.176h-10.475v44.282h96.794v-2.695h4.761v33.653h-4.104V219.21h-97.451v264.916
		h10.802v9.293l-21.71-0.023V98.623h97.125V72.279H241.273z M130.152,118.518h-7.076v40.285h7.076V118.518z M136.855,113.299
		l-0.049-9.534h-9.618v9.534H136.855z"></path>
</g>
<g>
	<path class=" st2_1865326903" d="M431.423,395.022v-26.604 M378.644,395.022v-26.604 M307.654,418.681h26.621 M299.323,451.858l24.301,13.838
		 M270.23,482.785l14.338,24.078 M231.378,493.396V520 M179.154,493.396V520 M334.275,395.022l-26.614-26.614 M124.402,520v-26.604"></path>
	<path class=" st2_1865326903" d="M440.811,395.022h-133.14v-26.604h133.14V395.022z M307.671,395.022v22.107
		c0,42.121-34.146,76.268-76.268,76.268H119.189V520h116.063c54.689,0,99.023-44.334,99.023-99.023v-25.956H307.671z"></path>
</g>
<g>
	<g>
		
			<rect x="288.334" y="206.488" transform="matrix(-1 1.000315e-06 -1.000315e-06 -1 609.9485 415.1061)" class=" st2_1865326903" width="33.28" height="2.13"></rect>
		
			<rect x="285.688" y="204.613" transform="matrix(-1 1.000310e-06 -1.000310e-06 -1 574.8254 411.1011)" class=" st2_1865326903" width="3.45" height="1.875"></rect>
		
			<rect x="285.688" y="239.986" transform="matrix(-1 1.000309e-06 -1.000309e-06 -1 574.8255 481.8473)" class=" st2_1865326903" width="3.45" height="1.875"></rect>
		<path class=" st2_1865326903" d="M321.614,208.618c0,18.242-18.915,31.368-32.366,31.368"></path>
	</g>
	<g>
		
			<rect x="367.162" y="157.11" transform="matrix(-1.000180e-06 1 -1 -1.000180e-06 539.4077 -223.3663)" class=" st2_1865326903" width="28.45" height="1.821"></rect>
		
			<rect x="381.624" y="172.232" transform="matrix(-1.000168e-06 1 -1 -1.000168e-06 556.1323 -210.0653)" class=" st2_1865326903" width="2.949" height="1.603"></rect>
		
			<rect x="351.385" y="172.232" transform="matrix(-1.000179e-06 1 -1 -1.000179e-06 525.8931 -179.8262)" class=" st2_1865326903" width="2.949" height="1.603"></rect>
		<path class=" st2_1865326903" d="M380.476,143.795c-15.594,0-26.815,16.17-26.815,27.669"></path>
	</g>
	<g>
		
			<rect x="260.385" y="99.151" transform="matrix(-1.000719e-06 -1 1 -1.000719e-06 178.0681 378.6725)" class=" st2_1865326903" width="35.969" height="2.302"></rect>
		
			<rect x="278.67" y="80.309" transform="matrix(-1.000711e-06 -1 1 -1.000711e-06 199.2129 361.8562)" class=" st2_1865326903" width="3.729" height="2.026"></rect>
		
			<rect x="240.439" y="80.309" transform="matrix(-1.000715e-06 -1 1 -1.000715e-06 160.9816 323.625)" class=" st2_1865326903" width="3.729" height="2.026"></rect>
		<path class=" st2_1865326903" d="M277.219,118.287c-19.716,0-33.903-20.444-33.903-34.982"></path>
	</g>
	<g>
		<rect x="198.932" y="153.739" class=" st2_1865326903" width="28.651" height="1.834"></rect>
		<rect x="226.891" y="155.573" class=" st2_1865326903" width="2.97" height="1.614"></rect>
		<rect x="226.891" y="125.12" class=" st2_1865326903" width="2.97" height="1.614"></rect>
		<path class=" st2_1865326903" d="M198.932,153.739c0-15.704,16.284-27.005,27.864-27.005"></path>
	</g>
	<g>
		<rect x="198.932" y="207.094" class=" st2_1865326903" width="28.651" height="1.834"></rect>
		<rect x="226.891" y="208.927" class=" st2_1865326903" width="2.97" height="1.614"></rect>
		<rect x="226.891" y="178.475" class=" st2_1865326903" width="2.97" height="1.614"></rect>
		<path class=" st2_1865326903" d="M198.932,207.094c0-15.704,16.284-27.005,27.864-27.005"></path>
	</g>
</g>
<g>
	<polygon class=" st9_1865326903" points="271.453,55.086 270.973,55.086 261.615,66.814 262.507,40.581 262.507,40 260.331,40 260.331,40.581 
		261.228,66.814 251.871,55.086 251.385,55.086 251.385,57.942 261.395,67.999 271.453,57.942 	"></polygon>
</g>
<g>
	<g>
		<g>
			<path class=" st10_1865326903" d="M315.278,284.276v6.299h-0.952v-5l-0.85,0.552l-0.449-0.752l1.602-1.099H315.278z"></path>
			<path class=" st10_1865326903" d="M320.754,289.325h-0.698v1.25h-0.952v-1.25h-2.798v-0.801l2.651-4.248h1.099v4.15h0.698V289.325z
				 M319.104,288.427v-2.754l-1.699,2.754H319.104z"></path>
			<path class=" st10_1865326903" d="M321.884,289.525c0.153,0,0.283,0.057,0.391,0.171s0.161,0.257,0.161,0.43c0,0.254-0.042,0.469-0.124,0.645
				c-0.084,0.176-0.176,0.32-0.276,0.435c-0.12,0.134-0.254,0.241-0.4,0.322l-0.151-0.2c0.065-0.046,0.129-0.105,0.19-0.181
				c0.052-0.059,0.102-0.132,0.149-0.22c0.047-0.088,0.083-0.188,0.109-0.303c-0.173,0-0.315-0.053-0.43-0.158
				c-0.114-0.106-0.171-0.235-0.171-0.389s0.054-0.283,0.161-0.391S321.73,289.525,321.884,289.525z"></path>
			<path class=" st10_1865326903" d="M325.313,290.624c-0.312,0-0.603-0.055-0.869-0.164c-0.267-0.108-0.499-0.262-0.695-0.459
				c-0.197-0.196-0.353-0.425-0.467-0.686s-0.171-0.54-0.171-0.84c0-0.186,0.032-0.372,0.095-0.559
				c0.064-0.188,0.133-0.354,0.208-0.501c0.088-0.173,0.188-0.337,0.298-0.493l1.753-2.646h1.05l-1.401,2.1
				c0.032-0.007,0.073-0.013,0.122-0.02c0.032-0.007,0.074-0.013,0.125-0.02c0.05-0.007,0.102-0.01,0.153-0.01
				c0.261,0,0.512,0.055,0.755,0.164c0.242,0.108,0.455,0.262,0.639,0.459c0.185,0.196,0.332,0.425,0.442,0.686
				s0.166,0.54,0.166,0.84s-0.057,0.579-0.171,0.84s-0.27,0.489-0.467,0.686c-0.196,0.197-0.429,0.351-0.695,0.459
				C325.916,290.569,325.626,290.624,325.313,290.624z M324.063,288.476c0,0.186,0.031,0.359,0.096,0.52
				c0.062,0.162,0.151,0.299,0.266,0.41c0.114,0.113,0.247,0.202,0.4,0.27c0.153,0.066,0.315,0.1,0.488,0.1s0.335-0.033,0.488-0.1
				c0.153-0.067,0.286-0.156,0.4-0.27c0.114-0.111,0.203-0.248,0.266-0.41c0.064-0.16,0.096-0.334,0.096-0.52
				s-0.031-0.359-0.096-0.52c-0.062-0.162-0.151-0.299-0.266-0.41c-0.114-0.113-0.247-0.202-0.4-0.27
				c-0.153-0.066-0.315-0.1-0.488-0.1s-0.335,0.033-0.488,0.1c-0.153,0.067-0.286,0.156-0.4,0.27
				c-0.114,0.111-0.203,0.248-0.266,0.41C324.095,288.116,324.063,288.29,324.063,288.476z"></path>
		</g>
	</g>
	<g>
		<g>
			<path class=" st10_1865326903" d="M367.324,190.136v0.898h-4.048v-0.698l2.5-2.7c0.114-0.121,0.213-0.244,0.298-0.371
				c0.075-0.114,0.144-0.238,0.208-0.371c0.062-0.133,0.095-0.27,0.095-0.41c0-0.28-0.095-0.508-0.286-0.684
				c-0.189-0.176-0.461-0.264-0.812-0.264c-0.325,0-0.591,0.102-0.796,0.305s-0.308,0.468-0.308,0.793h-0.947
				c0-0.287,0.048-0.55,0.145-0.791c0.096-0.241,0.232-0.446,0.41-0.615c0.177-0.169,0.392-0.302,0.645-0.398
				c0.252-0.096,0.536-0.144,0.852-0.144c0.312,0,0.595,0.046,0.848,0.139c0.252,0.093,0.467,0.222,0.645,0.388
				c0.177,0.166,0.313,0.363,0.41,0.591c0.096,0.228,0.144,0.47,0.144,0.728c0,0.199-0.046,0.399-0.14,0.601
				c-0.092,0.202-0.195,0.379-0.31,0.532c-0.134,0.179-0.283,0.352-0.449,0.518l-1.792,1.953H367.324z"></path>
			<path class=" st10_1865326903" d="M368.654,189.985c0.153,0,0.283,0.057,0.391,0.171s0.161,0.257,0.161,0.43c0,0.254-0.042,0.469-0.124,0.645
				c-0.084,0.176-0.176,0.321-0.276,0.435c-0.12,0.133-0.254,0.241-0.4,0.322l-0.151-0.2c0.065-0.045,0.129-0.106,0.19-0.181
				c0.052-0.059,0.102-0.132,0.149-0.22c0.047-0.088,0.083-0.189,0.109-0.303c-0.173,0-0.315-0.053-0.43-0.159
				s-0.171-0.235-0.171-0.388s0.054-0.283,0.161-0.391S368.501,189.985,368.654,189.985z"></path>
			<path class=" st10_1865326903" d="M374.232,189.785h-0.698v1.25h-0.952v-1.25h-2.798v-0.801l2.651-4.248h1.099v4.15h0.698V189.785z
				 M372.582,188.886v-2.754l-1.699,2.754H372.582z"></path>
		</g>
	</g>
	<g>
		<g>
			<path class=" st10_1865326903" d="M354.656,136.914c0.286,0,0.559,0.055,0.815,0.164s0.481,0.262,0.671,0.459
				c0.191,0.197,0.342,0.426,0.452,0.686s0.166,0.541,0.166,0.84s-0.057,0.58-0.171,0.84s-0.27,0.489-0.467,0.686
				c-0.196,0.197-0.429,0.35-0.695,0.459s-0.557,0.164-0.869,0.164s-0.596-0.046-0.85-0.139s-0.471-0.219-0.649-0.378
				s-0.32-0.344-0.425-0.554s-0.163-0.436-0.176-0.676h0.947c0.013,0.114,0.05,0.224,0.109,0.33
				c0.061,0.106,0.142,0.202,0.242,0.288s0.22,0.155,0.356,0.205s0.285,0.076,0.444,0.076c0.173,0,0.335-0.033,0.488-0.1
				s0.286-0.156,0.4-0.269s0.203-0.249,0.266-0.41c0.064-0.161,0.096-0.334,0.096-0.52s-0.031-0.359-0.096-0.52
				c-0.062-0.161-0.151-0.298-0.266-0.41s-0.247-0.202-0.4-0.269s-0.315-0.1-0.488-0.1c-0.198,0-0.372,0.04-0.52,0.12
				c-0.148,0.08-0.269,0.167-0.359,0.261c-0.114,0.114-0.205,0.236-0.273,0.366h-0.796l0.4-3.647h3.35v0.898h-2.544l-0.156,1.499
				c0.075-0.059,0.164-0.116,0.269-0.171c0.088-0.045,0.192-0.086,0.315-0.122C354.365,136.932,354.503,136.914,354.656,136.914z"></path>
			<path class=" st10_1865326903" d="M358.037,140.112c0.153,0,0.283,0.057,0.391,0.171s0.161,0.257,0.161,0.43c0,0.254-0.042,0.469-0.124,0.645
				c-0.084,0.176-0.176,0.321-0.276,0.435c-0.12,0.133-0.254,0.241-0.4,0.322l-0.151-0.2c0.065-0.045,0.129-0.106,0.19-0.181
				c0.052-0.059,0.102-0.132,0.149-0.22c0.047-0.088,0.083-0.189,0.109-0.303c-0.173,0-0.315-0.053-0.43-0.159
				s-0.171-0.235-0.171-0.388s0.054-0.283,0.161-0.391S357.884,140.112,358.037,140.112z"></path>
			<path class=" st10_1865326903" d="M363.269,134.863v0.649l-2.603,5.649h-1.001l2.5-5.4h-2.847v-0.898H363.269z"></path>
		</g>
	</g>
	<g>
		<g>
			<path class=" st10_1865326903" d="M250.065,346.632v0.898h-4.048v-0.698l2.5-2.7c0.114-0.12,0.213-0.244,0.298-0.371
				c0.075-0.114,0.144-0.237,0.208-0.371s0.095-0.271,0.095-0.41c0-0.28-0.095-0.508-0.286-0.684s-0.461-0.264-0.813-0.264
				c-0.326,0-0.591,0.102-0.796,0.305c-0.205,0.204-0.308,0.469-0.308,0.794h-0.947c0-0.286,0.048-0.55,0.144-0.791
				s0.233-0.446,0.41-0.615s0.392-0.302,0.645-0.397c0.252-0.097,0.536-0.145,0.852-0.145c0.312,0,0.595,0.047,0.847,0.139
				c0.252,0.094,0.467,0.223,0.645,0.389s0.314,0.363,0.41,0.591s0.144,0.471,0.144,0.728c0,0.198-0.046,0.398-0.139,0.601
				s-0.196,0.379-0.31,0.532c-0.133,0.179-0.283,0.352-0.449,0.518l-1.792,1.953H250.065z"></path>
			<path class=" st10_1865326903" d="M254.994,346.632v0.898h-4.048v-0.698l2.5-2.7c0.114-0.12,0.213-0.244,0.298-0.371
				c0.075-0.114,0.144-0.237,0.208-0.371s0.095-0.271,0.095-0.41c0-0.28-0.095-0.508-0.286-0.684s-0.461-0.264-0.813-0.264
				c-0.326,0-0.591,0.102-0.796,0.305c-0.205,0.204-0.308,0.469-0.308,0.794h-0.947c0-0.286,0.048-0.55,0.144-0.791
				s0.233-0.446,0.41-0.615s0.392-0.302,0.645-0.397c0.252-0.097,0.536-0.145,0.852-0.145c0.312,0,0.595,0.047,0.847,0.139
				c0.252,0.094,0.467,0.223,0.645,0.389s0.314,0.363,0.41,0.591s0.144,0.471,0.144,0.728c0,0.198-0.046,0.398-0.139,0.601
				s-0.196,0.379-0.31,0.532c-0.133,0.179-0.283,0.352-0.449,0.518l-1.792,1.953H254.994z"></path>
			<path class=" st10_1865326903" d="M256.324,346.48c0.153,0,0.283,0.057,0.391,0.171s0.161,0.257,0.161,0.43c0,0.254-0.042,0.469-0.125,0.645
				s-0.175,0.32-0.276,0.435c-0.121,0.134-0.254,0.241-0.4,0.322l-0.151-0.2c0.065-0.046,0.128-0.105,0.19-0.181
				c0.052-0.059,0.102-0.132,0.149-0.22s0.084-0.188,0.11-0.303c-0.172,0-0.316-0.053-0.43-0.158
				c-0.114-0.106-0.171-0.235-0.171-0.389s0.054-0.283,0.161-0.391S256.171,346.48,256.324,346.48z"></path>
			<path class=" st10_1865326903" d="M261.556,341.231v0.649l-2.603,5.649h-1.001l2.5-5.4h-2.847v-0.898H261.556z"></path>
		</g>
	</g>
	<g>
		<g>
			<path class=" st10_1865326903" d="M254.053,171.53c-0.312,0-0.602-0.055-0.869-0.164s-0.499-0.262-0.696-0.459s-0.353-0.426-0.466-0.686
				s-0.171-0.541-0.171-0.84c0-0.186,0.032-0.372,0.095-0.559s0.133-0.354,0.208-0.5c0.088-0.172,0.187-0.337,0.298-0.493
				l1.753-2.646h1.05l-1.401,2.1c0.033-0.006,0.073-0.013,0.122-0.02c0.033-0.006,0.074-0.013,0.125-0.02s0.102-0.01,0.154-0.01
				c0.26,0,0.512,0.055,0.754,0.164s0.456,0.262,0.64,0.459s0.331,0.426,0.442,0.686s0.166,0.541,0.166,0.84s-0.057,0.58-0.171,0.84
				s-0.27,0.489-0.466,0.686s-0.429,0.35-0.696,0.459S254.366,171.53,254.053,171.53z M252.803,169.381
				c0,0.186,0.032,0.359,0.095,0.52s0.152,0.298,0.266,0.41s0.248,0.202,0.4,0.269s0.316,0.1,0.488,0.1s0.335-0.033,0.488-0.1
				s0.287-0.156,0.4-0.269s0.203-0.249,0.266-0.41s0.095-0.334,0.095-0.52s-0.032-0.359-0.095-0.52s-0.152-0.298-0.266-0.41
				s-0.248-0.202-0.4-0.269s-0.316-0.1-0.488-0.1s-0.335,0.033-0.488,0.1s-0.287,0.156-0.4,0.269s-0.203,0.249-0.266,0.41
				S252.803,169.196,252.803,169.381z"></path>
			<path class=" st10_1865326903" d="M257.483,170.431c0.153,0,0.283,0.057,0.391,0.171s0.161,0.257,0.161,0.43c0,0.254-0.042,0.469-0.125,0.645
				s-0.175,0.321-0.276,0.435c-0.121,0.133-0.254,0.241-0.4,0.322l-0.151-0.2c0.065-0.045,0.128-0.106,0.19-0.181
				c0.052-0.059,0.102-0.132,0.149-0.22s0.084-0.189,0.11-0.303c-0.172,0-0.316-0.053-0.43-0.159s-0.171-0.235-0.171-0.388
				s0.054-0.283,0.161-0.391S257.33,170.431,257.483,170.431z"></path>
			<path class=" st10_1865326903" d="M260.913,165.133c0.312,0,0.602,0.055,0.869,0.164s0.499,0.262,0.696,0.459s0.353,0.426,0.466,0.686
				s0.171,0.541,0.171,0.84c0,0.192-0.032,0.38-0.095,0.564s-0.133,0.349-0.208,0.496c-0.088,0.172-0.187,0.335-0.298,0.488
				l-1.753,2.651h-1.05l1.401-2.1c-0.033,0.013-0.07,0.023-0.112,0.029c-0.033,0.006-0.074,0.011-0.125,0.015
				s-0.105,0.005-0.164,0.005c-0.26,0-0.512-0.055-0.754-0.164s-0.456-0.262-0.64-0.459s-0.331-0.426-0.442-0.686
				s-0.166-0.541-0.166-0.84s0.057-0.58,0.171-0.84s0.27-0.489,0.466-0.686s0.429-0.35,0.696-0.459S260.6,165.133,260.913,165.133z
				 M262.163,167.282c0-0.186-0.032-0.359-0.095-0.52s-0.152-0.298-0.266-0.41s-0.248-0.202-0.4-0.269s-0.316-0.1-0.488-0.1
				s-0.335,0.033-0.488,0.1s-0.287,0.156-0.4,0.269s-0.203,0.248-0.266,0.408s-0.095,0.333-0.095,0.522
				c0,0.186,0.032,0.358,0.095,0.518s0.152,0.296,0.266,0.41s0.248,0.204,0.4,0.271s0.316,0.1,0.488,0.1s0.335-0.033,0.488-0.1
				s0.287-0.157,0.4-0.271s0.203-0.25,0.266-0.41S262.163,167.467,262.163,167.282z"></path>
		</g>
	</g>
	<g>
		<g>
			<path class=" st10_1865326903" d="M173.867,263.191h-0.698v1.25h-0.952v-1.25h-2.798v-0.801l2.651-4.248h1.099v4.15h0.698V263.191z
				 M172.217,262.293v-2.754l-1.699,2.754H172.217z"></path>
			<path class=" st10_1865326903" d="M174.997,263.392c0.153,0,0.283,0.057,0.391,0.171s0.161,0.257,0.161,0.43c0,0.254-0.042,0.469-0.125,0.645
				s-0.175,0.321-0.276,0.435c-0.121,0.133-0.254,0.241-0.4,0.322l-0.151-0.2c0.065-0.045,0.128-0.106,0.19-0.181
				c0.052-0.059,0.102-0.132,0.149-0.22s0.084-0.189,0.11-0.303c-0.172,0-0.316-0.053-0.43-0.159s-0.171-0.235-0.171-0.388
				s0.054-0.283,0.161-0.391S174.844,263.392,174.997,263.392z"></path>
			<path class=" st10_1865326903" d="M178.524,260.193c0.287,0,0.558,0.055,0.815,0.164s0.481,0.262,0.671,0.459s0.341,0.426,0.452,0.686
				s0.166,0.541,0.166,0.84s-0.057,0.58-0.171,0.84s-0.27,0.489-0.466,0.686s-0.429,0.35-0.696,0.459s-0.557,0.164-0.869,0.164
				s-0.596-0.046-0.85-0.139s-0.47-0.219-0.649-0.378s-0.321-0.344-0.425-0.554s-0.163-0.436-0.176-0.676h0.947
				c0.013,0.114,0.05,0.224,0.11,0.33s0.141,0.202,0.242,0.288s0.22,0.155,0.356,0.205s0.285,0.076,0.444,0.076
				c0.172,0,0.335-0.033,0.488-0.1s0.287-0.156,0.4-0.269s0.203-0.249,0.266-0.41s0.095-0.334,0.095-0.52s-0.032-0.359-0.095-0.52
				s-0.152-0.298-0.266-0.41s-0.248-0.202-0.4-0.269s-0.316-0.1-0.488-0.1c-0.199,0-0.372,0.04-0.52,0.12s-0.268,0.167-0.359,0.261
				c-0.114,0.114-0.205,0.236-0.273,0.366h-0.796l0.4-3.647h3.35v0.898h-2.544l-0.156,1.499c0.075-0.059,0.165-0.116,0.269-0.171
				c0.088-0.045,0.193-0.086,0.315-0.122S178.372,260.193,178.524,260.193z"></path>
		</g>
	</g>
	<g>
		<g>
			<path class=" st10_1865326903" d="M180.583,135.637c0.013-0.241,0.071-0.466,0.173-0.676s0.243-0.395,0.42-0.554s0.389-0.286,0.635-0.378
				s0.52-0.139,0.823-0.139c0.287,0,0.551,0.048,0.793,0.144s0.454,0.226,0.635,0.388s0.321,0.349,0.42,0.559
				s0.149,0.429,0.149,0.657s-0.042,0.423-0.125,0.586s-0.175,0.298-0.276,0.405c-0.121,0.121-0.254,0.223-0.4,0.308
				c0.186,0.088,0.353,0.202,0.503,0.342c0.127,0.121,0.242,0.281,0.344,0.481s0.154,0.443,0.154,0.73
				c0,0.241-0.051,0.469-0.154,0.684s-0.248,0.404-0.435,0.569s-0.413,0.296-0.676,0.396s-0.558,0.149-0.884,0.149
				s-0.619-0.046-0.879-0.139s-0.482-0.219-0.667-0.378s-0.327-0.344-0.43-0.554s-0.162-0.436-0.178-0.676h0.952
				c0.013,0.114,0.05,0.224,0.11,0.33s0.142,0.202,0.244,0.288s0.226,0.155,0.371,0.205s0.304,0.076,0.476,0.076
				c0.381,0,0.676-0.097,0.886-0.291s0.315-0.431,0.315-0.71s-0.106-0.516-0.317-0.708s-0.506-0.288-0.884-0.288h-0.449v-0.854h0.4
				c0.326,0,0.582-0.086,0.769-0.259s0.281-0.386,0.281-0.64c0-0.28-0.094-0.508-0.281-0.684s-0.443-0.264-0.769-0.264
				s-0.584,0.086-0.776,0.259s-0.301,0.386-0.327,0.64H180.583z"></path>
			<path class=" st10_1865326903" d="M186.107,139.187c0.153,0,0.283,0.057,0.391,0.171s0.161,0.257,0.161,0.43c0,0.254-0.042,0.469-0.125,0.645
				s-0.175,0.321-0.276,0.435c-0.121,0.133-0.254,0.241-0.4,0.322l-0.151-0.2c0.065-0.045,0.128-0.106,0.19-0.181
				c0.052-0.059,0.102-0.132,0.149-0.22s0.084-0.189,0.11-0.303c-0.172,0-0.316-0.053-0.43-0.159s-0.171-0.235-0.171-0.388
				s0.054-0.283,0.161-0.391S185.954,139.187,186.107,139.187z"></path>
			<path class=" st10_1865326903" d="M187.388,135.637c0.013-0.241,0.071-0.466,0.173-0.676s0.243-0.395,0.42-0.554s0.389-0.286,0.635-0.378
				s0.52-0.139,0.823-0.139c0.287,0,0.551,0.048,0.793,0.144s0.454,0.226,0.635,0.388s0.321,0.349,0.42,0.559
				s0.149,0.429,0.149,0.657s-0.042,0.423-0.125,0.586s-0.175,0.298-0.276,0.405c-0.121,0.121-0.254,0.223-0.4,0.308
				c0.186,0.088,0.353,0.202,0.503,0.342c0.127,0.121,0.242,0.281,0.344,0.481s0.154,0.443,0.154,0.73
				c0,0.241-0.051,0.469-0.154,0.684s-0.248,0.404-0.435,0.569s-0.413,0.296-0.676,0.396s-0.558,0.149-0.884,0.149
				s-0.619-0.046-0.879-0.139s-0.482-0.219-0.667-0.378s-0.327-0.344-0.43-0.554s-0.162-0.436-0.178-0.676h0.952
				c0.013,0.114,0.05,0.224,0.11,0.33s0.142,0.202,0.244,0.288s0.226,0.155,0.371,0.205s0.304,0.076,0.476,0.076
				c0.381,0,0.676-0.097,0.886-0.291s0.315-0.431,0.315-0.71s-0.106-0.516-0.317-0.708s-0.506-0.288-0.884-0.288h-0.449v-0.854h0.4
				c0.326,0,0.582-0.086,0.769-0.259s0.281-0.386,0.281-0.64c0-0.28-0.094-0.508-0.281-0.684s-0.443-0.264-0.769-0.264
				s-0.584,0.086-0.776,0.259s-0.301,0.386-0.327,0.64H187.388z"></path>
		</g>
	</g>
	<g>
		<g>
			<path class=" st10_1865326903" d="M173.166,194.089c0.013-0.241,0.071-0.466,0.173-0.676s0.243-0.395,0.42-0.554s0.389-0.286,0.635-0.378
				s0.52-0.139,0.823-0.139c0.287,0,0.551,0.048,0.793,0.144s0.454,0.226,0.635,0.388s0.321,0.349,0.42,0.559
				s0.149,0.429,0.149,0.657s-0.042,0.423-0.125,0.586s-0.175,0.298-0.276,0.405c-0.121,0.121-0.254,0.223-0.4,0.308
				c0.186,0.088,0.353,0.202,0.503,0.342c0.127,0.121,0.242,0.281,0.344,0.481s0.154,0.443,0.154,0.73
				c0,0.241-0.051,0.469-0.154,0.684s-0.248,0.404-0.435,0.569s-0.413,0.296-0.676,0.396s-0.558,0.149-0.884,0.149
				s-0.619-0.046-0.879-0.139s-0.482-0.219-0.667-0.378s-0.327-0.344-0.43-0.554s-0.162-0.436-0.178-0.676h0.952
				c0.013,0.114,0.05,0.224,0.11,0.33s0.142,0.202,0.244,0.288s0.226,0.155,0.371,0.205s0.304,0.076,0.476,0.076
				c0.381,0,0.676-0.097,0.886-0.291s0.315-0.431,0.315-0.71s-0.106-0.516-0.317-0.708s-0.506-0.288-0.884-0.288h-0.449v-0.854h0.4
				c0.326,0,0.582-0.086,0.769-0.259s0.281-0.386,0.281-0.64c0-0.28-0.094-0.508-0.281-0.684s-0.443-0.264-0.769-0.264
				s-0.584,0.086-0.776,0.259s-0.301,0.386-0.327,0.64H173.166z"></path>
			<path class=" st10_1865326903" d="M178.69,197.639c0.153,0,0.283,0.057,0.391,0.171s0.161,0.257,0.161,0.43c0,0.254-0.042,0.469-0.125,0.645
				s-0.175,0.321-0.276,0.435c-0.121,0.133-0.254,0.241-0.4,0.322l-0.151-0.2c0.065-0.045,0.128-0.106,0.19-0.181
				c0.052-0.059,0.102-0.132,0.149-0.22s0.084-0.189,0.11-0.303c-0.172,0-0.316-0.053-0.43-0.159s-0.171-0.235-0.171-0.388
				s0.054-0.283,0.161-0.391S178.537,197.639,178.69,197.639z"></path>
			<path class=" st10_1865326903" d="M184.068,197.791v0.898h-4.048v-0.698l2.5-2.7c0.114-0.121,0.213-0.244,0.298-0.371
				c0.075-0.114,0.144-0.238,0.208-0.371s0.095-0.27,0.095-0.41c0-0.28-0.095-0.508-0.286-0.684s-0.461-0.264-0.813-0.264
				c-0.326,0-0.591,0.102-0.796,0.305s-0.308,0.468-0.308,0.793h-0.947c0-0.287,0.048-0.55,0.144-0.791s0.233-0.446,0.41-0.615
				s0.392-0.302,0.645-0.398s0.536-0.144,0.852-0.144c0.312,0,0.595,0.046,0.847,0.139s0.467,0.222,0.645,0.388
				s0.314,0.363,0.41,0.591s0.144,0.47,0.144,0.728c0,0.199-0.046,0.399-0.139,0.601s-0.196,0.379-0.31,0.532
				c-0.133,0.179-0.283,0.352-0.449,0.518l-1.792,1.953H184.068z"></path>
		</g>
	</g>
</g>

</svg></svg>