<svg width="209" height="45" viewBox="0 0 209 45" fill="none" xmlns="http://www.w3.org/2000/svg">
<path d="M0.52 44V42.98L3.88 42.8L5.2 42.02V2.78L3.88 2L0.52 1.82V0.799998H14.92V1.82L11.02 2L9.46 2.78V42.44H25.9L30.82 31.22H31.9L30.1 43.46V44H0.52ZM48.3166 44.9C40.5766 44.9 35.1766 38.42 35.1766 29.12C35.1766 19.82 40.7566 13.34 48.7366 13.34C56.4166 13.34 61.8166 19.82 61.8166 29.12C61.8166 38.42 56.2366 44.9 48.3166 44.9ZM39.1966 28.28C39.1966 37.4 43.1566 43.4 49.0366 43.4C54.3166 43.4 57.7966 37.94 57.7966 29.96C57.7966 20.84 53.8366 14.84 47.9566 14.84C42.6766 14.84 39.1966 20.3 39.1966 28.28ZM77.8014 44.9C70.7814 44.9 65.4414 38.42 65.4414 29.54C65.4414 20.06 71.5014 13.34 78.8814 13.34C84.8214 13.34 88.9014 17.66 88.6614 24.92H84.2214C85.2414 18.92 82.4814 14.72 78.1014 14.72C73.0014 14.72 69.2214 20.54 69.2214 28.04C69.2214 36.2 73.5414 42.26 79.2414 42.26C82.6014 42.26 85.8414 39.98 87.6414 36.68L88.6014 37.34C86.0814 42.68 82.0014 44.9 77.8014 44.9ZM99.3878 44.54C95.2478 44.54 92.2478 41.9 92.2478 37.76C92.2478 33.62 95.4278 30.32 101.368 28.28L109.768 25.34V23.6C109.768 18.38 107.428 14.72 103.288 14.72C98.9678 14.72 96.8678 18.68 97.7078 23.78H93.3878C93.0878 17.78 97.4678 13.34 104.068 13.34C110.008 13.34 113.548 17.18 113.548 23.18V41.96L114.508 42.5L117.328 42.86V43.76L110.668 44.18H109.768L109.888 40.7L110.068 36.5H109.828C107.788 41.3 103.948 44.54 99.3878 44.54ZM95.9078 36.92C95.9078 39.98 98.0078 41.96 101.008 41.96C104.668 41.96 108.148 38.96 109.768 34.58V26.96L102.928 29.36C98.3678 30.98 95.9078 33.68 95.9078 36.92ZM127.002 44.54C123.642 44.54 122.142 42.2 122.142 38.3V15.98H116.682V14.84L122.082 14.36L124.902 5.48H125.862V14.24L132.882 14H133.842V15.98H125.862V37.82C125.862 40.64 126.402 42.2 128.562 42.2C130.122 42.2 131.322 41.12 132.762 39.56L133.362 38.9L134.202 39.8L133.662 40.4C131.142 43.28 129.522 44.54 127.002 44.54ZM142.346 7.82C140.606 7.82 139.226 6.5 139.226 4.7C139.226 2.96 140.606 1.64 142.346 1.64C144.086 1.64 145.406 2.96 145.406 4.7C145.406 6.5 144.086 7.82 142.346 7.82ZM137.126 44V42.98L140.126 42.8L141.326 42.02V16.4L137.126 15.8V14.96L144.326 13.88H145.106V42.02L146.306 42.8L149.306 42.98V44H137.126ZM163.43 44.9C155.69 44.9 150.29 38.42 150.29 29.12C150.29 19.82 155.87 13.34 163.85 13.34C171.53 13.34 176.93 19.82 176.93 29.12C176.93 38.42 171.35 44.9 163.43 44.9ZM154.31 28.28C154.31 37.4 158.27 43.4 164.15 43.4C169.43 43.4 172.91 37.94 172.91 29.96C172.91 20.84 168.95 14.84 163.07 14.84C157.79 14.84 154.31 20.3 154.31 28.28ZM196.493 44V42.98L199.673 42.8L200.933 42.02V24.2C200.933 19.16 198.773 16.28 194.933 16.28C192.233 16.28 190.013 17.9 187.973 21.62L186.593 24.26V42.02L187.853 42.8L191.093 42.98V44H178.613V42.98L181.613 42.8L182.813 42.02V16.4L178.613 15.8V14.96L185.813 13.88H186.593L186.413 19.04L186.293 22.82H186.413L187.133 21.2C189.413 16.04 192.473 13.52 196.613 13.52C201.713 13.52 204.653 17.18 204.653 23.66V42.02L205.793 42.8L208.613 42.98V44H196.493Z" fill="#E0D1B6"/>
</svg>
