<svg width="320" height="106" viewBox="0 0 320 106" fill="none" xmlns="http://www.w3.org/2000/svg">
<path d="M297.076 81.7846V79.8553L303.09 79.5149L305.474 78.0396V44.3343C305.474 34.8015 301.388 29.3541 294.125 29.3541C289.018 29.3541 284.819 32.4183 280.961 39.4544L278.35 44.4478V78.0396L280.734 79.5149L286.862 79.8553V81.7846H263.257V79.8553L268.931 79.5149L271.201 78.0396V29.5811L263.257 28.4463V26.8574L276.875 24.8147H278.35L278.01 34.5745L277.783 41.7241H278.01L279.372 38.66C283.684 28.9002 289.472 24.1338 297.303 24.1338C306.949 24.1338 312.51 31.0564 312.51 43.3129V78.0396L314.666 79.5149L320 79.8553V81.7846H297.076Z" fill="#E0D1B6"/>
<path d="M223.326 105.844C209.935 105.844 202.445 100.624 202.445 92.6795C202.445 87.1187 206.417 82.4658 212.545 78.8342L215.155 77.2454C210.502 74.9757 208.914 70.0958 212.545 63.8541L214.701 59.3147C209.14 56.1371 205.736 50.5763 205.736 43.7671C205.736 31.9646 215.269 23.7936 228.66 23.7936C232.632 23.7936 236.264 24.588 239.328 25.9498C243.527 23.5666 249.428 21.2969 255.216 20.7295H256.124V26.7442H240.917C246.704 29.9218 250.222 35.5961 250.222 42.6323C250.222 54.3213 240.803 62.4923 227.412 62.4923C223.553 62.4923 220.035 61.8114 217.085 60.563L216.404 64.535C215.723 67.9396 215.95 70.8902 216.858 72.5925H241.257C251.13 72.5925 257.032 76.5645 257.032 84.0546C257.032 95.4032 243.073 105.844 223.326 105.844ZM208.914 91.4312C208.914 98.4673 215.269 103.007 225.709 103.007C239.782 103.007 250.563 95.6301 250.563 87.2322C250.563 81.7849 246.023 78.6073 238.306 78.6073H221.624C220.035 78.6073 218.446 78.3803 217.198 78.0398L214.815 80.423C211.183 83.8276 208.914 87.2322 208.914 91.4312ZM212.886 42.1783C212.886 52.619 219.808 59.8821 228.774 59.8821C237.285 59.8821 243.186 53.2999 243.186 44.2211C243.186 33.6669 236.15 26.4038 227.298 26.4038C218.787 26.4038 212.886 32.986 212.886 42.1783Z" fill="#E0D1B6"/>
<path d="M186.349 13.3531C183.058 13.3531 180.448 10.8564 180.448 7.45184C180.448 4.16075 183.058 1.66406 186.349 1.66406C189.64 1.66406 192.137 4.16075 192.137 7.45184C192.137 10.8564 189.64 13.3531 186.349 13.3531ZM176.476 81.7851V79.8558L182.15 79.5154L184.42 78.04V29.5816L176.476 28.4467V26.8579L190.094 24.8152H191.569V78.04L193.839 79.5154L199.513 79.8558V81.7851H176.476Z" fill="#E0D1B6"/>
<path d="M151.747 83.2611C144.711 83.2611 138.242 80.6509 133.135 77.3598L131.66 62.3797H134.384L135.292 65.5573C137.675 75.4306 143.917 80.424 152.769 80.424C159.918 80.424 165.138 76.225 165.138 70.5507C165.138 66.1247 162.188 62.3797 155.946 59.0886L143.69 52.7334C136.881 49.2153 133.135 44.4489 133.135 38.3207C133.135 29.0149 142.101 24.0215 151.747 24.0215C157.989 24.0215 164.231 26.1777 169.11 29.8093L170.586 44.1085H168.089L167.068 41.1578C164.685 31.9655 159.01 26.7451 150.839 26.7451C143.463 26.7451 139.377 30.3767 139.377 35.824C139.377 40.1365 142.101 43.6545 147.548 46.4917L159.805 52.7334C167.408 56.5919 171.38 61.8123 171.38 68.054C171.38 77.1329 162.755 83.2611 151.747 83.2611Z" fill="#E0D1B6"/>
<path d="M104.228 83.4875C90.9503 83.4875 80.623 71.9119 80.623 54.5486C80.623 36.2774 91.1772 23.7939 105.249 23.7939C117.392 23.7939 126.017 33.0998 125.563 50.6901H87.4322V51.144C87.4322 67.0321 95.1492 78.3806 107.179 78.3806C113.534 78.3806 118.527 74.9761 123.067 68.3939L124.769 69.7557C119.889 78.2672 113.08 83.4875 104.228 83.4875ZM87.5457 47.7395H117.733C118.073 35.3695 112.626 26.5176 103.434 26.5176C94.6953 26.5176 88.4536 34.9156 87.5457 47.7395Z" fill="#E0D1B6"/>
<path d="M0 81.785V79.8557L6.35521 79.5153L8.8519 78.04V3.82023L6.35521 2.34491L0 2.00446V0.0751953H35.8615C58.7857 0.0751953 73.4253 16.1902 73.4253 39.9087C73.4253 64.4217 58.4452 81.785 34.9536 81.785H0ZM16.9094 79.1748H33.8188C53.5653 79.1748 65.0274 64.1947 65.0274 42.2919C65.0274 19.1408 52.9979 2.68537 33.4783 2.68537H16.9094V79.1748Z" fill="#E0D1B6"/>
</svg>
