<svg width="245" height="46" viewBox="0 0 245 46" fill="none" xmlns="http://www.w3.org/2000/svg">
<path d="M27.2 45V43.98L32.66 43.32V42.06L27.98 29.76H10.82L6.14 42.06V43.32L11.3 43.98V45H0.62V43.98L3.92 43.26L18.56 5.04L17.3 1.68V0.959998H21.5L37.82 43.26L41.12 43.98V45H27.2ZM11.36 28.26H27.44L19.4 7.2L11.36 28.26ZM61.4309 45V43.98L64.6109 43.8L65.8709 43.02V25.2C65.8709 20.16 63.7109 17.28 59.8709 17.28C57.1709 17.28 54.9509 18.9 52.9109 22.62L51.5309 25.26V43.02L52.7909 43.8L56.0309 43.98V45H43.5509V43.98L46.5509 43.8L47.7509 43.02V17.4L43.5509 16.8V15.96L50.7509 14.88H51.5309L51.3509 20.04L51.2309 23.82H51.3509L52.0709 22.2C54.3509 17.04 57.4109 14.52 61.5509 14.52C66.2909 14.52 69.1709 17.7 69.5309 23.4L70.0709 22.2C72.3509 17.04 75.4109 14.52 79.5509 14.52C84.6509 14.52 87.5909 18.18 87.5909 24.66V43.02L88.7309 43.8L91.5509 43.98V45H79.4309V43.98L82.6109 43.8L83.8709 43.02V25.2C83.8709 20.16 81.7109 17.28 77.8709 17.28C75.1709 17.28 72.9509 18.9 70.9109 22.62L69.5909 25.14V43.02L70.9109 43.8L74.1509 43.98V45H61.4309ZM105.171 45.9C98.1514 45.9 92.6914 39.78 92.6914 30.6C92.6914 20.94 98.2714 14.34 105.711 14.34C112.131 14.34 116.691 19.26 116.451 28.56H96.2914V28.8C96.2914 37.2 100.371 43.2 106.731 43.2C110.091 43.2 112.731 41.4 115.131 37.92L116.031 38.64C113.451 43.14 109.851 45.9 105.171 45.9ZM96.3514 27H112.311C112.491 20.46 109.611 15.78 104.751 15.78C100.131 15.78 96.8314 20.22 96.3514 27ZM136.258 45V43.98L139.438 43.8L140.698 43.02V25.2C140.698 20.16 138.538 17.28 134.698 17.28C131.998 17.28 129.778 18.9 127.738 22.62L126.358 25.26V43.02L127.618 43.8L130.858 43.98V45H118.378V43.98L121.378 43.8L122.578 43.02V17.4L118.378 16.8V15.96L125.578 14.88H126.358L126.178 20.04L126.058 23.82H126.178L126.898 22.2C129.178 17.04 132.238 14.52 136.378 14.52C141.478 14.52 144.418 18.18 144.418 24.66V43.02L145.558 43.8L148.378 43.98V45H136.258ZM156.206 8.82C154.466 8.82 153.086 7.5 153.086 5.7C153.086 3.96 154.466 2.64 156.206 2.64C157.946 2.64 159.266 3.96 159.266 5.7C159.266 7.5 157.946 8.82 156.206 8.82ZM150.986 45V43.98L153.986 43.8L155.186 43.02V17.4L150.986 16.8V15.96L158.186 14.88H158.966V43.02L160.166 43.8L163.166 43.98V45H150.986ZM173.267 45.54C169.907 45.54 168.407 43.2 168.407 39.3V16.98H162.947V15.84L168.347 15.36L171.167 6.48H172.127V15.24L179.147 15H180.107V16.98H172.127V38.82C172.127 41.64 172.667 43.2 174.827 43.2C176.387 43.2 177.587 42.12 179.027 40.56L179.627 39.9L180.467 40.8L179.927 41.4C177.407 44.28 175.787 45.54 173.267 45.54ZM188.611 8.82C186.871 8.82 185.491 7.5 185.491 5.7C185.491 3.96 186.871 2.64 188.611 2.64C190.351 2.64 191.671 3.96 191.671 5.7C191.671 7.5 190.351 8.82 188.611 8.82ZM183.391 45V43.98L186.391 43.8L187.591 43.02V17.4L183.391 16.8V15.96L190.591 14.88H191.371V43.02L192.571 43.8L195.571 43.98V45H183.391ZM209.093 45.9C202.073 45.9 196.613 39.78 196.613 30.6C196.613 20.94 202.193 14.34 209.633 14.34C216.053 14.34 220.613 19.26 220.373 28.56H200.213V28.8C200.213 37.2 204.293 43.2 210.653 43.2C214.013 43.2 216.653 41.4 219.053 37.92L219.953 38.64C217.373 43.14 213.773 45.9 209.093 45.9ZM200.273 27H216.233C216.413 20.46 213.533 15.78 208.673 15.78C204.053 15.78 200.753 20.22 200.273 27ZM234.217 45.78C230.497 45.78 227.077 44.4 224.377 42.66L223.597 34.74H225.037L225.517 36.42C226.777 41.64 230.077 44.28 234.757 44.28C238.537 44.28 241.297 42.06 241.297 39.06C241.297 36.72 239.737 34.74 236.437 33L229.957 29.64C226.357 27.78 224.377 25.26 224.377 22.02C224.377 17.1 229.117 14.46 234.217 14.46C237.517 14.46 240.817 15.6 243.397 17.52L244.177 25.08H242.857L242.317 23.52C241.057 18.66 238.057 15.9 233.737 15.9C229.837 15.9 227.677 17.82 227.677 20.7C227.677 22.98 229.117 24.84 231.997 26.34L238.477 29.64C242.497 31.68 244.597 34.44 244.597 37.74C244.597 42.54 240.037 45.78 234.217 45.78Z" fill="#E0D1B6"/>
</svg>
