<svg xmlns="http://www.w3.org/2000/svg" version="1.1" xmlns:xlink="http://www.w3.org/1999/xlink"><svg data-name="Слой_1" xmlns="http://www.w3.org/2000/svg" xmlns:xlink="http://www.w3.org/1999/xlink" version="1.1" viewBox="0 0 560 560">
  
  <defs>
    <style>
      .st0_151987951, .st1_151987951, .st2_151987951, .st3_151987951, .st4_151987951, .st5_151987951, .st6_151987951 {
        fill: none;
      }

      .st1_151987951, .st2_151987951, .st3_151987951, .st4_151987951, .st5_151987951, .st7_151987951, .st8_151987951, .st9_151987951, .st10_151987951, .st11_151987951, .st12_151987951, .st13_151987951, .st14_151987951, .st15_151987951, .st6_151987951, .st16_151987951, .st17_151987951 {
        stroke-linecap: round;
        stroke-linejoin: round;
      }

      .st1_151987951, .st5_151987951, .st8_151987951, .st9_151987951, .st6_151987951, .st16_151987951, .st17_151987951 {
        stroke-width: .5px;
      }

      .st1_151987951, .st8_151987951 {
        stroke: #d8cbb5;
      }

      .st2_151987951 {
        stroke-width: .25px;
      }

      .st2_151987951, .st3_151987951, .st4_151987951, .st5_151987951, .st7_151987951, .st9_151987951, .st10_151987951, .st11_151987951, .st12_151987951, .st13_151987951, .st14_151987951, .st15_151987951, .st6_151987951, .st17_151987951 {
        stroke: #1b4732;
      }

      .st3_151987951 {
        stroke-width: .5px;
      }

      .st4_151987951 {
        stroke-width: .5px;
      }

      .st7_151987951 {
        fill: #fff;
        stroke-width: .5px;
      }

      .st8_151987951 {
        fill: url(#_Терраса);
      }

      .st18_151987951 {
        fill: #1b4732;
      }

      .st9_151987951, .st10_151987951, .st11_151987951, .st12_151987951, .st13_151987951, .st14_151987951, .st15_151987951 {
        fill: #f5e8d1;
      }

      .st10_151987951 {
        stroke-width: .5px;
      }

      .st11_151987951 {
        stroke-width: .5px;
      }

      .st12_151987951 {
        stroke-width: .5px;
      }

      .st13_151987951 {
        stroke-width: .5px;
      }

      .st14_151987951 {
        stroke-width: .5px;
      }

      .st15_151987951 {
        stroke-width: .5px;
      }

      .st6_151987951 {
        stroke-dasharray: 3;
      }

      .st16_151987951 {
        fill: #666c35;
        stroke: #666c35;
      }

      .st17_151987951 {
        fill: #e1d1b6;
      }
    </style>
    <pattern data-name="Терраса" x="0" y="0" width="10.1" height="8.7" patternTransform="translate(-8 -15304) scale(1 -1)" patternUnits="userSpaceOnUse" viewBox="0 0 10.1 8.7">
      <g>
        <rect class=" st0_151987951" width="10.1" height="8.7"></rect>
        <g>
          <rect class=" st0_151987951" width="10.1" height="8.7"></rect>
          <g>
            <line class=" st1_151987951" x1="10.15" y1="6.4" x2="20.15" y2="6.4"></line>
            <line class=" st1_151987951" x1="10.15" y1="2.3" x2="20.15" y2="2.3"></line>
          </g>
          <g>
            <line class=" st1_151987951" x1=".05" y1="6.4" x2="10.05" y2="6.4"></line>
            <line class=" st1_151987951" x1=".05" y1="2.3" x2="10.05" y2="2.3"></line>
          </g>
          <g>
            <line class=" st1_151987951" x1="-10.05" y1="6.4" x2="-.05" y2="6.4"></line>
            <line class=" st1_151987951" x1="-10.05" y1="2.3" x2="-.05" y2="2.3"></line>
          </g>
        </g>
      </g>
    </pattern>
  </defs>
  <g>
    <line class=" st6_151987951" x1="368.23" y1="274.73" x2="368.23" y2="216.19"></line>
    <line class=" st6_151987951" x1="372.04" y1="440.51" x2="372.04" y2="392.73"></line>
  </g>
  <g>
    <polygon class=" st8_151987951" points="145.59 179.87 77.65 179.87 77.65 378.87 84.17 378.87 84.17 356.17 145.7 356.17 145.59 179.87"></polygon>
  </g>
  <g>
    <rect class=" st5_151987951" x="76.27" y="122.26" width="7.9" height="28.58"></rect>
    <rect class=" st5_151987951" x="76.27" y="95.89" width="7.9" height="23.71"></rect>
    <polygon class=" st5_151987951" points="84.15 122 84.17 121.91 84.17 122 84.15 122"></polygon>
    <rect class=" st5_151987951" x="76.27" y="64.25" width="7.9" height="28.98"></rect>
    <rect class=" st5_151987951" x="76.27" y="381.53" width="7.9" height="24.26"></rect>
    <rect class=" st5_151987951" x="76.27" y="408.47" width="7.9" height="29.03"></rect>
    <rect class=" st5_151987951" x="76.27" y="440.15" width="7.9" height="24.45"></rect>
    <rect class=" st5_151987951" x="76.27" y="467.26" width="7.9" height="29.31"></rect>
    <rect class=" st5_151987951" x="76.27" y="93.23" width="7.9" height="2.66"></rect>
    <polygon class=" st5_151987951" points="84.17 121.91 84.15 122 84.17 122 84.17 122.26 76.27 122.26 76.27 119.61 84.17 119.61 84.17 121.91"></polygon>
    <polygon class=" st5_151987951" points="84.17 121.91 84.17 122 84.15 122 84.17 121.91"></polygon>
    <rect class=" st5_151987951" x="76.27" y="150.84" width="7.9" height="2.68"></rect>
    <rect class=" st5_151987951" x="76.28" y="177.2" width="7.89" height="2.66"></rect>
    <rect class=" st5_151987951" x="76.27" y="378.87" width="7.9" height="2.66"></rect>
    <rect class=" st5_151987951" x="76.27" y="405.78" width="7.9" height="2.68"></rect>
    <rect class=" st5_151987951" x="76.27" y="437.49" width="7.9" height="2.66"></rect>
    <rect class=" st5_151987951" x="76.27" y="464.6" width="7.9" height="2.66"></rect>
    <rect class=" st5_151987951" x="76.27" y="496.57" width="7.9" height="2.66"></rect>
    <rect class=" st5_151987951" x="76.27" y="179.87" width="1.38" height="199"></rect>
    <rect class=" st5_151987951" x="76.27" y="61.6" width="7.9" height="2.66"></rect>
    <rect class=" st5_151987951" x="76.27" y="64.25" width="1.33" height="28.98"></rect>
    <rect class=" st5_151987951" x="76.27" y="95.89" width="1.33" height="23.71"></rect>
    <rect class=" st5_151987951" x="76.27" y="122.26" width="1.33" height="28.58"></rect>
    <rect class=" st5_151987951" x="76.27" y="381.53" width="1.33" height="24.26"></rect>
    <rect class=" st5_151987951" x="76.27" y="408.47" width="1.33" height="29.03"></rect>
    <rect class=" st5_151987951" x="76.27" y="440.15" width="1.33" height="24.45"></rect>
    <rect class=" st5_151987951" x="76.27" y="467.26" width="1.33" height="29.31"></rect>
  </g>
  <g>
    <rect class=" st7_151987951" x="76.15" y="108" width="23.13" height="1.12" transform="translate(-39.85 165.19) rotate(-75)"></rect>
    <rect class=" st7_151987951" x="87.14" y="439.74" width="1.12" height="23.13" transform="translate(-113.81 38.07) rotate(-15)"></rect>
  </g>
  <g>
    <path class=" st2_151987951" d="M154.98,293.18h10.76v94.72h-10.76v-94.72ZM155.1,299.68h10.53M155.1,305.52h10.53M155.1,311.37h10.53M155.1,317.21h10.53M155.1,323.05h10.53M155.1,328.9h10.53M155.1,334.74h10.53M155.1,340.58h10.53M155.1,346.43h10.53M155.1,352.27h10.53M155.1,358.12h10.53M155.1,363.96h10.53M155.1,369.8h10.53M155.1,375.65h10.53M155.1,381.49h10.53M154.98,266.78h10.76v26.4h-10.76v-26.4ZM155.1,273.38h10.53M155.1,279.98h10.53M155.1,286.58h10.53M154.98,176.31h10.76v90.47h-10.76v-90.47ZM155.1,181.96h10.53M155.1,187.62h10.53M155.1,193.27h10.53M155.1,198.93h10.53M155.1,204.58h10.53M155.1,210.24h10.53M155.1,215.89h10.53M155.1,221.55h10.53M155.1,227.2h10.53M155.1,232.86h10.53M155.1,238.51h10.53M155.1,244.16h10.53M155.1,249.82h10.53M155.1,255.47h10.53M155.1,261.13h10.53M84.17,403.91h10.76v92.4h-10.76v-92.4ZM94.94,414.42h-10.76M94.94,420.25h-10.76M94.94,426.08h-10.76M94.94,431.9h-10.76M94.94,437.73h-10.76M94.94,443.56h-10.76M94.94,449.39h-10.76M94.94,455.22h-10.76M94.94,461.05h-10.76M94.94,466.88h-10.76M94.94,472.7h-10.76M94.94,478.53h-10.76M94.94,484.36h-10.76M94.94,490.19h-10.76M94.94,409.21h-10.76M94.93,158.95h-10.76V61.85h10.76v97.1ZM94.93,67.56h-10.53M94.93,73.21h-10.53M94.93,78.86h-10.53M94.93,84.52h-10.53M94.93,90.17h-10.53M94.93,95.83h-10.53M94.93,101.48h-10.53M94.93,107.14h-10.53M94.93,112.79h-10.53M94.93,118.45h-10.53M94.93,124.1h-10.53M94.93,129.76h-10.53M94.93,135.41h-10.53M94.93,141.07h-10.53M94.93,146.72h-10.53M94.93,152.38h-10.53"></path>
  </g>
  <g>
    <rect class=" st15_151987951" x="263.85" y="86.52" width="26.83" height="1.25"></rect>
    <rect class=" st14_151987951" x="456.9" y="169.7" width="20.69" height="20.69"></rect>
    <circle class=" st9_151987951" cx="128.58" cy="339.78" r="7.94"></circle>
    <g>
      <rect class=" st9_151987951" x="84.17" y="356.17" width="61.53" height="24.48"></rect>
      <rect class=" st9_151987951" x="141.1" y="364.01" width="4.6" height="12.17"></rect>
      <rect class=" st9_151987951" x="96" y="376.18" width="45.1" height="4.47"></rect>
    </g>
    <g>
      <rect class=" st11_151987951" x="210.74" y="214.91" width="81.58" height="33.55"></rect>
      <g>
        <path class=" st9_151987951" d="M217.05,202.92v11.99h15.74v-11.99c0-1.1-.9-2-2-2h-11.74c-1.1,0-2,.9-2,2Z"></path>
        <path class=" st9_151987951" d="M217.05,206.74v8.17h15.74v-8.17c0-1.1-.9-2-2-2h-11.74c-1.1,0-2,.9-2,2Z"></path>
      </g>
      <g>
        <path class=" st9_151987951" d="M243.66,202.92v11.99h15.74v-11.99c0-1.1-.89-2-2-2h-11.74c-1.11,0-2,.9-2,2Z"></path>
        <path class=" st9_151987951" d="M243.66,206.74v8.17h15.74v-8.17c0-1.1-.89-2-2-2h-11.74c-1.11,0-2,.9-2,2Z"></path>
      </g>
      <g>
        <path class=" st9_151987951" d="M270.28,202.92v11.99h15.74v-11.99c0-1.1-.89-2-2-2h-11.74c-1.1,0-2,.9-2,2Z"></path>
        <path class=" st9_151987951" d="M270.28,206.74v8.17h15.74v-8.17c0-1.1-.89-2-2-2h-11.74c-1.1,0-2,.9-2,2Z"></path>
      </g>
      <g>
        <path class=" st9_151987951" d="M217.05,260.45v-11.99h15.74v11.99c0,1.11-.9,2-2,2h-11.74c-1.1,0-2-.89-2-2Z"></path>
        <path class=" st9_151987951" d="M217.05,256.63v-8.17h15.74v8.17c0,1.11-.9,2-2,2h-11.74c-1.1,0-2-.9-2-2Z"></path>
      </g>
      <g>
        <path class=" st9_151987951" d="M243.66,260.45v-11.99h15.74v11.99c0,1.11-.89,2-2,2h-11.74c-1.11,0-2-.89-2-2Z"></path>
        <path class=" st9_151987951" d="M243.66,256.63v-8.17h15.74v8.17c0,1.11-.89,2-2,2h-11.74c-1.11,0-2-.9-2-2Z"></path>
      </g>
      <g>
        <path class=" st9_151987951" d="M270.28,260.45v-11.99h15.74v11.99c0,1.11-.89,2-2,2h-11.74c-1.1,0-2-.89-2-2Z"></path>
        <path class=" st9_151987951" d="M270.28,256.63v-8.17h15.74v8.17c0,1.11-.89,2-2,2h-11.74c-1.1,0-2-.9-2-2Z"></path>
      </g>
    </g>
    <g>
      <path class=" st9_151987951" d="M132.79,243.59l-6.83,6.83c-.78.78-2.05.78-2.83,0l-33.22-33.22c-.78-.78-.78-2.05,0-2.83l6.83-6.83c.78-.78,2.05-.78,2.83,0l33.22,33.22c.78.78.78,2.05,0,2.83Z"></path>
      <path class=" st9_151987951" d="M130.16,240.95l-6.83,6.83c-.78.78-2.05.78-2.83,0l-27.94-27.94c-.78-.78-.78-2.05,0-2.83l6.83-6.83c.78-.78,2.05-.78,2.83,0l27.94,27.94c.78.78.78,2.05,0,2.83Z"></path>
      <path class=" st9_151987951" d="M125.96,207.54l6.83,6.83c.78.78.78,2.05,0,2.83l-33.21,33.21c-.78.78-2.05.78-2.83,0l-6.83-6.83c-.78-.78-.78-2.05,0-2.83l33.22-33.22c.78-.78,2.05-.78,2.83,0Z"></path>
      <path class=" st9_151987951" d="M123.32,210.18l6.83,6.83c.78.78.78,2.05,0,2.83l-27.94,27.94c-.78.78-2.05.78-2.83,0l-6.83-6.83c-.78-.78-.78-2.05,0-2.83l27.94-27.94c.78-.78,2.05-.78,2.83,0Z"></path>
      <circle class=" st9_151987951" cx="111.36" cy="228.98" r="15.28"></circle>
    </g>
    <g>
      <path class=" st9_151987951" d="M374.68,131.6h-15.26c-.55,0-1-.45-1-1v-10.1c0-.55.45-1,1-1h15.26c.55,0,1,.45,1,1v10.1c0,.55-.45,1-1,1Z"></path>
      <g>
        <line class=" st5_151987951" x1="372.49" y1="121.31" x2="370.04" y2="123.77"></line>
        <line class=" st5_151987951" x1="372.49" y1="123.77" x2="370.04" y2="121.31"></line>
        <line class=" st5_151987951" x1="363.68" y1="121.31" x2="361.22" y2="123.77"></line>
        <line class=" st5_151987951" x1="363.68" y1="123.77" x2="361.22" y2="121.31"></line>
        <line class=" st5_151987951" x1="363.68" y1="127.34" x2="361.22" y2="129.79"></line>
        <line class=" st5_151987951" x1="363.68" y1="129.79" x2="361.22" y2="127.34"></line>
        <line class=" st5_151987951" x1="370.04" y1="127.34" x2="372.49" y2="129.79"></line>
        <line class=" st5_151987951" x1="372.49" y1="127.34" x2="370.04" y2="129.79"></line>
      </g>
    </g>
    <circle class=" st9_151987951" cx="113.29" cy="450.43" r="10.21"></circle>
    <g>
      <path class=" st9_151987951" d="M101.04,414.68l13.98-11.96c1.76-1.51,4.42-1.3,5.93.46l11.21,13.1c.14.16.12.4-.04.54l-20.09,17.2c-.16.14-.4.12-.54-.04l-10.94-12.79c-1.66-1.94-1.43-4.85.5-6.51Z"></path>
      <path class=" st9_151987951" d="M105.39,416.64l9.89-8.46c1.5-1.28,3.74-1.11,5.02.39l10.71,12.52c.32.37.28.94-.1,1.26l-13.27,11.36c-.37.32-.94.28-1.26-.1l-11.29-13.19c-.96-1.12-.83-2.81.29-3.77Z"></path>
      <path class=" st9_151987951" d="M111.31,424.14l4.19-10.22c.11-.26-.02-.55-.27-.65l-5.53-2.27c-.25-.11-.55.02-.65.27l-4.19,10.22c-.11.26.02.55.27.65l5.53,2.27c.26.1.55-.02.65-.27Z"></path>
    </g>
    <g>
      <path class=" st9_151987951" d="M101.31,486.06l14.35,11.51c1.81,1.45,4.46,1.16,5.91-.65l10.79-13.45c.13-.17.11-.41-.06-.54l-20.63-16.55c-.17-.13-.41-.11-.54.06l-10.53,13.13c-1.6,1.99-1.28,4.89.71,6.49Z"></path>
      <path class=" st9_151987951" d="M105.61,483.97l10.15,8.14c1.54,1.23,3.78.98,5.01-.55l10.31-12.85c.31-.38.25-.94-.14-1.25l-13.62-10.93c-.38-.31-.94-.25-1.25.14l-10.87,13.55c-.92,1.15-.74,2.83.41,3.76Z"></path>
      <path class=" st9_151987951" d="M111.28,476.28l4.51,10.08c.11.25,0,.55-.25.66l-5.45,2.44c-.25.11-.55,0-.66-.25l-4.51-10.08c-.11-.25,0-.55.25-.66l5.45-2.44c.25-.11.55,0,.66.25Z"></path>
    </g>
    <rect class=" st9_151987951" x="429.07" y="274.73" width="46.7" height="11.99"></rect>
    <g>
      <rect class=" st9_151987951" x="436.06" y="169.7" width="20.85" height="20.73"></rect>
      <rect class=" st9_151987951" x="449.29" y="172.33" width="4.84" height="3.45"></rect>
      <rect class=" st9_151987951" x="439.14" y="167.88" width="14.97" height="1.83"></rect>
    </g>
    <rect class=" st9_151987951" x="406.15" y="290.23" width="46.08" height="17.06"></rect>
    <g>
      <path class=" st9_151987951" d="M449.28,304.03v-9.22h-17.43v9.22c0,.55.45,1,1,1h15.43c.55,0,1-.45,1-1Z"></path>
      <rect class=" st9_151987951" x="431.86" y="293.47" width="17.43" height="1.34"></rect>
      <rect class=" st9_151987951" x="439.73" y="291.46" width="1.68" height="5.12"></rect>
      <circle class=" st9_151987951" cx="440.57" cy="299.3" r="1.19"></circle>
    </g>
    <g>
      <path class=" st9_151987951" d="M426.43,304.03v-9.22h-17.43v9.22c0,.55.45,1,1,1h15.43c.55,0,1-.45,1-1Z"></path>
      <rect class=" st9_151987951" x="409" y="293.47" width="17.43" height="1.34"></rect>
      <rect class=" st9_151987951" x="416.87" y="291.46" width="1.68" height="5.12"></rect>
      <circle class=" st9_151987951" cx="417.71" cy="299.3" r="1.19"></circle>
    </g>
    <rect class=" st12_151987951" x="441.22" y="115.6" width="35.99" height="17.06"></rect>
    <g>
      <path class=" st9_151987951" d="M468.31,129.48v-9.22h-17.43v9.22c0,.55.45,1,1,1h15.43c.55,0,1-.45,1-1Z"></path>
      <rect class=" st12_151987951" x="450.89" y="118.92" width="17.43" height="1.34"></rect>
      <rect class=" st12_151987951" x="458.76" y="116.91" width="1.68" height="5.12"></rect>
      <circle class=" st9_151987951" cx="459.6" cy="124.75" r="1.19"></circle>
    </g>
    <rect class=" st9_151987951" x="205.56" y="61.73" width="17.06" height="45.75"></rect>
    <g>
      <path class=" st9_151987951" d="M219.88,75.76h-9.22v17.43h9.22c.55,0,1-.45,1-1v-15.43c0-.55-.45-1-1-1Z"></path>
      <rect class=" st9_151987951" x="209.32" y="75.76" width="1.34" height="17.43"></rect>
      <rect class=" st9_151987951" x="207.31" y="83.63" width="5.12" height="1.68"></rect>
      <circle class=" st9_151987951" cx="215.15" cy="84.47" r="1.19"></circle>
    </g>
    <g>
      <path class=" st9_151987951" d="M478.11,346.99v-10.06c0-.83.67-1.5,1.5-1.5h14.28v13.06h-14.28c-.83,0-1.5-.67-1.5-1.5Z"></path>
      <rect class=" st13_151987951" x="493.89" y="335.43" width="3.81" height="13.06"></rect>
    </g>
    <g>
      <path class=" st9_151987951" d="M478.11,151.36v-10.06c0-.83.67-1.5,1.5-1.5h14.28v13.06h-14.28c-.83,0-1.5-.67-1.5-1.5Z"></path>
      <rect class=" st13_151987951" x="493.89" y="139.8" width="3.81" height="13.06"></rect>
    </g>
    <g>
      <path class=" st9_151987951" d="M271.09,105.65v-10.06c0-.83.67-1.5,1.5-1.5h14.28v13.06h-14.28c-.83,0-1.5-.67-1.5-1.5Z"></path>
      <rect class=" st9_151987951" x="286.87" y="94.09" width="3.81" height="13.06"></rect>
    </g>
    <g>
      <path class=" st9_151987951" d="M290.68,67.09h-3.38c-.28,0-.5.22-.5.5v8.32c0,.28.22.5.5.5h3.38v-9.32Z"></path>
      <rect class=" st9_151987951" x="285.14" y="67.63" width="1.65" height="2.79"></rect>
      <ellipse class=" st9_151987951" cx="275.58" cy="71.75" rx="4.22" ry="4.33"></ellipse>
      <line class=" st5_151987951" x1="290.68" y1="71.75" x2="275.58" y2="71.75"></line>
    </g>
    <g>
      <path class=" st9_151987951" d="M497.7,302.53h-3.38c-.28,0-.5.22-.5.5v8.32c0,.28.22.5.5.5h3.38v-9.32Z"></path>
      <rect class=" st9_151987951" x="492.16" y="303.07" width="1.65" height="2.79"></rect>
      <ellipse class=" st9_151987951" cx="482.6" cy="307.18" rx="4.22" ry="4.33"></ellipse>
      <line class=" st5_151987951" x1="497.7" y1="307.18" x2="482.6" y2="307.18"></line>
    </g>
    <g>
      <rect class=" st9_151987951" x="183.75" y="58.31" width="18.42" height="14.79"></rect>
      <rect class=" st9_151987951" x="183.75" y="73.11" width="18.42" height="1.98"></rect>
      <rect class=" st9_151987951" x="105.94" y="58.31" width="18.42" height="14.8"></rect>
      <rect class=" st9_151987951" x="105.94" y="73.11" width="18.42" height="1.98"></rect>
      <rect class=" st9_151987951" x="124.36" y="58.31" width="59.38" height="3.39"></rect>
      <rect class=" st9_151987951" x="124.36" y="61.7" width="59.39" height="18.52"></rect>
      <rect class=" st9_151987951" x="155.49" y="64.37" width="24.59" height="13.28"></rect>
      <rect class=" st9_151987951" x="128.02" y="64.37" width="24.55" height="13.28"></rect>
      <polygon class=" st9_151987951" points="149.21 72.52 173.27 83.71 178.02 81.57 183.74 80.22 183.74 125.96 124.36 125.96 124.36 72.52 149.21 72.52"></polygon>
      <polygon class=" st9_151987951" points="183.74 80.22 178.02 81.57 173.27 83.71 149.21 72.52 153.45 72.52 183.74 80.22"></polygon>
    </g>
    <g>
      <rect class=" st9_151987951" x="224" y="487.61" width="18.43" height="14.74"></rect>
      <rect class=" st9_151987951" x="224" y="485.64" width="18.43" height="1.97"></rect>
      <rect class=" st9_151987951" x="146.17" y="487.61" width="18.43" height="14.74"></rect>
      <rect class=" st9_151987951" x="146.17" y="485.64" width="18.42" height="1.97"></rect>
      <rect class=" st9_151987951" x="164.6" y="498.98" width="59.4" height="3.38"></rect>
      <rect class=" st9_151987951" x="164.59" y="480.53" width="59.41" height="18.45"></rect>
      <rect class=" st9_151987951" x="195.74" y="483.08" width="24.6" height="13.23"></rect>
      <rect class=" st9_151987951" x="168.26" y="483.08" width="24.55" height="13.23"></rect>
      <polygon class=" st9_151987951" points="189.45 488.2 213.52 477.05 218.28 479.18 224 480.53 224 434.96 164.59 434.96 164.59 488.2 189.45 488.2"></polygon>
      <polygon class=" st9_151987951" points="224 480.53 218.28 479.18 213.52 477.05 189.45 488.2 193.7 488.2 224 480.53"></polygon>
    </g>
    <g>
      <g>
        <rect class=" st9_151987951" x="176.05" y="393.89" width="37.29" height="1.54"></rect>
        <rect class=" st9_151987951" x="192.18" y="392.73" width="5.03" height="1.17"></rect>
      </g>
      <polyline class=" st5_151987951" points="186.66 398.64 194.71 395.43 202.77 398.64"></polyline>
    </g>
    <g>
      <g>
        <rect class=" st9_151987951" x="107.99" y="159.49" width="37.29" height="1.54"></rect>
        <rect class=" st9_151987951" x="124.12" y="161.03" width="5.03" height="1.16"></rect>
      </g>
      <polyline class=" st5_151987951" points="134.68 156.28 126.62 159.49 118.56 156.28"></polyline>
    </g>
    <g>
      <g>
        <rect class=" st9_151987951" x="223.1" y="386.26" width="55.33" height="1.66"></rect>
        <rect class=" st9_151987951" x="247.03" y="387.92" width="7.47" height="1.26"></rect>
      </g>
      <polyline class=" st5_151987951" points="262.69 382.79 250.74 386.26 238.78 382.79"></polyline>
    </g>
    <rect class=" st9_151987951" x="84.17" y="169.76" width="61.53" height="10.11"></rect>
    <rect class=" st9_151987951" x="84.17" y="380.73" width="61.53" height="10.11"></rect>
    <g>
      <path class=" st9_151987951" d="M372.04,312.6s1.91.04,2.79-.23c1.87-.57,3.56-2.27,3.56-2.27l3.35-2.27.56,44.83-4.42-3.97s-.71-1.73-2.97-2.55c-.67-.24-2.86-.4-2.86-.4v-33.15Z"></path>
      <path class=" st9_151987951" d="M377.57,354.5v-48.52c0-2.24,1.84-4.08,4.08-4.08h17.04c2.24,0,4.08,1.84,4.08,4.08v48.52c0,2.24-1.84,4.08-4.08,4.08h-17.04c-2.25,0-4.08-1.84-4.08-4.08Z"></path>
      <ellipse class=" st9_151987951" cx="390.17" cy="330.24" rx="7.88" ry="22.42"></ellipse>
      <circle class=" st9_151987951" cx="390.17" cy="330.24" r="1.53"></circle>
    </g>
    <g>
      <rect class=" st10_151987951" x="372.03" y="424.27" width="105.85" height="21.38"></rect>
      <g>
        <line class=" st5_151987951" x1="472.95" y1="427.1" x2="471.7" y2="442.82"></line>
        <line class=" st5_151987951" x1="466.3" y1="427.1" x2="467.55" y2="442.82"></line>
        <line class=" st5_151987951" x1="462.15" y1="427.1" x2="462.15" y2="442.82"></line>
        <line class=" st5_151987951" x1="457.99" y1="427.1" x2="456.74" y2="442.82"></line>
        <line class=" st5_151987951" x1="443.04" y1="427.1" x2="441.79" y2="442.82"></line>
        <line class=" st5_151987951" x1="432.23" y1="427.1" x2="430.98" y2="442.82"></line>
        <line class=" st5_151987951" x1="416.03" y1="427.1" x2="414.78" y2="442.82"></line>
        <line class=" st5_151987951" x1="426.83" y1="427.1" x2="425.58" y2="442.82"></line>
        <line class=" st5_151987951" x1="451.34" y1="427.1" x2="452.59" y2="442.82"></line>
        <line class=" st5_151987951" x1="436.39" y1="427.1" x2="437.64" y2="442.82"></line>
        <line class=" st5_151987951" x1="420.18" y1="427.1" x2="421.43" y2="442.82"></line>
        <line class=" st5_151987951" x1="405.23" y1="427.1" x2="403.98" y2="442.82"></line>
        <line class=" st5_151987951" x1="389.02" y1="427.1" x2="387.77" y2="442.82"></line>
        <line class=" st5_151987951" x1="399.82" y1="427.1" x2="398.57" y2="442.82"></line>
        <line class=" st5_151987951" x1="409.38" y1="427.1" x2="410.63" y2="442.82"></line>
        <line class=" st5_151987951" x1="393.17" y1="427.1" x2="394.42" y2="442.82"></line>
        <line class=" st5_151987951" x1="383.62" y1="427.1" x2="382.37" y2="442.82"></line>
        <line class=" st5_151987951" x1="376.96" y1="427.1" x2="378.21" y2="442.82"></line>
        <line class=" st5_151987951" x1="447.19" y1="427.1" x2="447.19" y2="442.82"></line>
      </g>
      <line class=" st5_151987951" x1="374.6" y1="434.96" x2="475.32" y2="434.96"></line>
    </g>
    <g>
      <rect class=" st9_151987951" x="477.88" y="365.61" width="19.82" height="80.04"></rect>
      <g>
        <line class=" st5_151987951" x1="495.08" y1="441.78" x2="480.5" y2="440.51"></line>
        <line class=" st5_151987951" x1="495.08" y1="435.25" x2="480.5" y2="436.52"></line>
        <line class=" st5_151987951" x1="495.08" y1="431.11" x2="480.5" y2="431.11"></line>
        <line class=" st5_151987951" x1="495.08" y1="427.21" x2="480.5" y2="425.94"></line>
        <line class=" st5_151987951" x1="495.08" y1="411.49" x2="480.5" y2="410.21"></line>
        <line class=" st5_151987951" x1="495.08" y1="401.09" x2="480.5" y2="399.82"></line>
        <line class=" st5_151987951" x1="495.08" y1="384.46" x2="480.5" y2="383.18"></line>
        <line class=" st5_151987951" x1="495.08" y1="394.86" x2="480.5" y2="393.58"></line>
        <line class=" st5_151987951" x1="495.08" y1="420.73" x2="480.5" y2="422"></line>
        <line class=" st5_151987951" x1="495.08" y1="405.45" x2="480.5" y2="406.73"></line>
        <line class=" st5_151987951" x1="495.08" y1="388.82" x2="480.5" y2="390.09"></line>
        <line class=" st5_151987951" x1="495.08" y1="373.61" x2="480.5" y2="372.33"></line>
        <line class=" st5_151987951" x1="495.08" y1="377.97" x2="480.5" y2="379.24"></line>
        <line class=" st5_151987951" x1="495.08" y1="415.43" x2="480.5" y2="415.43"></line>
      </g>
      <line class=" st5_151987951" x1="487.79" y1="369.01" x2="487.79" y2="443.22"></line>
    </g>
    <g>
      <rect class=" st9_151987951" x="282.89" y="445.65" width="21.77" height="56.71"></rect>
      <g>
        <line class=" st5_151987951" x1="301.77" y1="497.15" x2="285.77" y2="495.98"></line>
        <line class=" st5_151987951" x1="301.77" y1="491.15" x2="285.77" y2="492.32"></line>
        <line class=" st5_151987951" x1="301.77" y1="487.35" x2="285.77" y2="487.35"></line>
        <line class=" st5_151987951" x1="301.77" y1="483.76" x2="285.77" y2="482.59"></line>
        <line class=" st5_151987951" x1="301.77" y1="469.32" x2="285.77" y2="468.15"></line>
        <line class=" st5_151987951" x1="301.77" y1="459.76" x2="285.77" y2="458.59"></line>
        <line class=" st5_151987951" x1="301.77" y1="454.03" x2="285.77" y2="452.86"></line>
        <line class=" st5_151987951" x1="301.77" y1="477.8" x2="285.77" y2="478.97"></line>
        <line class=" st5_151987951" x1="301.77" y1="463.77" x2="285.77" y2="464.94"></line>
        <line class=" st5_151987951" x1="301.77" y1="472.94" x2="285.77" y2="472.94"></line>
      </g>
      <line class=" st5_151987951" x1="293.77" y1="448.33" x2="293.77" y2="499.92"></line>
    </g>
    <g>
      <rect class=" st9_151987951" x="201.7" y="148.26" width="79.81" height="19.4"></rect>
      <g>
        <line class=" st5_151987951" x1="277.98" y1="150.83" x2="276.8" y2="165.09"></line>
        <line class=" st5_151987951" x1="271.95" y1="150.83" x2="273.12" y2="165.09"></line>
        <line class=" st5_151987951" x1="268.12" y1="150.83" x2="268.12" y2="165.09"></line>
        <line class=" st5_151987951" x1="264.52" y1="150.83" x2="263.35" y2="165.09"></line>
        <line class=" st5_151987951" x1="250" y1="150.83" x2="248.82" y2="165.09"></line>
        <line class=" st5_151987951" x1="240.4" y1="150.83" x2="239.22" y2="165.09"></line>
        <line class=" st5_151987951" x1="225.04" y1="150.83" x2="223.86" y2="165.09"></line>
        <line class=" st5_151987951" x1="234.64" y1="150.83" x2="233.47" y2="165.09"></line>
        <line class=" st5_151987951" x1="258.53" y1="150.83" x2="259.71" y2="165.09"></line>
        <line class=" st5_151987951" x1="244.43" y1="150.83" x2="245.6" y2="165.09"></line>
        <line class=" st5_151987951" x1="229.07" y1="150.83" x2="230.24" y2="165.09"></line>
        <line class=" st5_151987951" x1="253.64" y1="150.83" x2="253.64" y2="165.09"></line>
        <line class=" st5_151987951" x1="216.02" y1="150.83" x2="214.85" y2="165.09"></line>
        <line class=" st5_151987951" x1="206.42" y1="150.83" x2="205.24" y2="165.09"></line>
        <line class=" st5_151987951" x1="210.45" y1="150.83" x2="211.62" y2="165.09"></line>
        <line class=" st5_151987951" x1="219.66" y1="150.83" x2="219.66" y2="165.09"></line>
      </g>
      <line class=" st5_151987951" x1="204.24" y1="157.96" x2="278.98" y2="157.96"></line>
    </g>
    <g>
      <rect class=" st9_151987951" x="303.14" y="115.6" width="21.91" height="52.06"></rect>
      <g>
        <line class=" st5_151987951" x1="322.14" y1="132.91" x2="306.04" y2="134.15"></line>
        <line class=" st5_151987951" x1="322.14" y1="143.1" x2="306.04" y2="144.35"></line>
        <line class=" st5_151987951" x1="322.14" y1="159.4" x2="306.04" y2="160.65"></line>
        <line class=" st5_151987951" x1="322.14" y1="149.21" x2="306.04" y2="150.46"></line>
        <line class=" st5_151987951" x1="322.14" y1="123.85" x2="306.04" y2="122.61"></line>
        <line class=" st5_151987951" x1="322.14" y1="138.82" x2="306.04" y2="137.58"></line>
        <line class=" st5_151987951" x1="322.14" y1="155.12" x2="306.04" y2="153.88"></line>
        <line class=" st5_151987951" x1="322.14" y1="129.04" x2="306.04" y2="129.04"></line>
      </g>
      <line class=" st5_151987951" x1="314.09" y1="164.39" x2="314.09" y2="118.86"></line>
    </g>
    <g>
      <rect class=" st9_151987951" x="443.79" y="365.61" width="34.08" height="21.24"></rect>
      <g>
        <line class=" st5_151987951" x1="455.86" y1="368.43" x2="457.59" y2="384.04"></line>
        <line class=" st5_151987951" x1="451.95" y1="368.43" x2="450.22" y2="384.04"></line>
        <line class=" st5_151987951" x1="465.13" y1="368.43" x2="463.4" y2="384.04"></line>
        <line class=" st5_151987951" x1="471.45" y1="368.43" x2="471.45" y2="384.04"></line>
      </g>
      <line class=" st5_151987951" x1="475.1" y1="376.23" x2="446.58" y2="376.23"></line>
    </g>
    <g>
      <rect class=" st9_151987951" x="281.51" y="117.71" width="17.87" height="24.23"></rect>
      <g>
        <line class=" st5_151987951" x1="297.02" y1="137.62" x2="283.88" y2="138.54"></line>
        <line class=" st5_151987951" x1="297.02" y1="125.86" x2="283.88" y2="126.78"></line>
        <line class=" st5_151987951" x1="297.02" y1="122.55" x2="283.88" y2="121.64"></line>
        <line class=" st5_151987951" x1="297.02" y1="131.01" x2="283.88" y2="130.09"></line>
        <line class=" st5_151987951" x1="297.02" y1="134.31" x2="283.88" y2="134.31"></line>
      </g>
      <line class=" st5_151987951" x1="290.45" y1="140.06" x2="290.45" y2="119.96"></line>
    </g>
    <g>
      <rect class=" st9_151987951" x="371.9" y="168.88" width="60.33" height="21.55"></rect>
      <g>
        <line class=" st5_151987951" x1="404.04" y1="171.73" x2="404.99" y2="187.58"></line>
        <line class=" st5_151987951" x1="390.3" y1="171.73" x2="391.25" y2="187.58"></line>
        <line class=" st5_151987951" x1="396.15" y1="171.73" x2="395.2" y2="187.58"></line>
        <line class=" st5_151987951" x1="409.89" y1="171.73" x2="408.94" y2="187.58"></line>
        <line class=" st5_151987951" x1="413.84" y1="171.73" x2="413.84" y2="187.58"></line>
        <line class=" st5_151987951" x1="376.55" y1="171.73" x2="377.5" y2="187.58"></line>
        <line class=" st5_151987951" x1="382.4" y1="171.73" x2="381.45" y2="187.58"></line>
        <line class=" st5_151987951" x1="386.35" y1="171.73" x2="386.35" y2="187.58"></line>
        <line class=" st5_151987951" x1="417.79" y1="171.73" x2="418.74" y2="187.58"></line>
        <line class=" st5_151987951" x1="423.64" y1="171.73" x2="422.69" y2="187.58"></line>
        <line class=" st5_151987951" x1="427.58" y1="171.73" x2="427.58" y2="187.58"></line>
        <line class=" st5_151987951" x1="400.1" y1="171.73" x2="400.1" y2="187.58"></line>
      </g>
      <line class=" st5_151987951" x1="429.52" y1="179.65" x2="374.62" y2="179.65"></line>
    </g>
    <g>
      <rect class=" st9_151987951" x="372.03" y="365.61" width="44.32" height="21.77"></rect>
      <g>
        <line class=" st5_151987951" x1="396.05" y1="368.5" x2="397.74" y2="384.5"></line>
        <line class=" st5_151987951" x1="405.8" y1="368.5" x2="405.8" y2="384.5"></line>
        <line class=" st5_151987951" x1="391.97" y1="368.5" x2="391.97" y2="384.5"></line>
        <line class=" st5_151987951" x1="388.03" y1="368.5" x2="386.34" y2="384.5"></line>
        <line class=" st5_151987951" x1="402.72" y1="368.5" x2="401.04" y2="384.5"></line>
        <line class=" st5_151987951" x1="376.73" y1="368.5" x2="378.41" y2="384.5"></line>
        <line class=" st5_151987951" x1="409.97" y1="368.5" x2="411.66" y2="384.5"></line>
        <line class=" st5_151987951" x1="382.78" y1="368.5" x2="382.78" y2="384.5"></line>
      </g>
      <line class=" st5_151987951" x1="373.71" y1="376.5" x2="414.67" y2="376.5"></line>
    </g>
    <rect class=" st9_151987951" x="468.95" y="322.73" width="28.75" height="1.25"></rect>
    <polygon class=" st9_151987951" points="460.86 303.52 461.74 304.4 451.44 314.46 450.55 313.57 460.86 303.52"></polygon>
    <polygon class=" st9_151987951" points="468.95 322.73 469.83 323.61 459.53 333.67 458.64 332.78 468.95 322.73"></polygon>
    <rect class=" st9_151987951" x="460.5" y="290.23" width="1.25" height="14.17"></rect>
    <rect class=" st9_151987951" x="475.76" y="194.25" width="21.94" height="80.48"></rect>
    <rect class=" st9_151987951" x="371.9" y="194.25" width="125.8" height="21.94"></rect>
    <g>
      <rect class=" st9_151987951" x="475.76" y="233.82" width="21.94" height="21.57"></rect>
      <circle class=" st9_151987951" cx="481.89" cy="239.71" r="3.27"></circle>
      <circle class=" st9_151987951" cx="481.89" cy="249.49" r="3.27"></circle>
      <circle class=" st9_151987951" cx="491.57" cy="239.71" r="3.27"></circle>
      <circle class=" st9_151987951" cx="491.57" cy="249.49" r="3.27"></circle>
    </g>
    <g>
      <rect class=" st9_151987951" x="415.78" y="194.25" width="21.09" height="21.94"></rect>
      <rect class=" st9_151987951" x="415.78" y="214.52" width="21.09" height="1.68"></rect>
      <path class=" st9_151987951" d="M426.33,209.79h0c-1.24,0-2.07-.59-2.56-1.44-.61-1.04-.61-2.35-.13-3.46l2.69-6.16,2.67,5.98c.44.99.49,2.13.06,3.13-.46,1.08-1.34,1.95-2.73,1.95Z"></path>
    </g>
    <g>
      <rect class=" st9_151987951" x="436.87" y="194.25" width="30.57" height="21.94"></rect>
      <path class=" st9_151987951" d="M440.25,214.06h23.82c.55,0,1-.45,1-1v-13.52c0-.55-.45-1-1-1h-23.82c-.55,0-1,.45-1,1v13.52c0,.55.45,1,1,1Z"></path>
      <rect class=" st9_151987951" x="451" y="195.38" width="2.3" height="6.66"></rect>
      <circle class=" st9_151987951" cx="452.16" cy="205.6" r="1.43"></circle>
      <rect class=" st9_151987951" x="451" y="195.38" width="2.3" height="1.98"></rect>
    </g>
    <g>
      <rect class=" st9_151987951" x="393.84" y="194.25" width="21.94" height="21.94"></rect>
      <rect class=" st9_151987951" x="393.84" y="214.52" width="21.67" height="1.67"></rect>
      <rect class=" st9_151987951" x="395.53" y="216.19" width="3.69" height="1.45"></rect>
      <g>
        <line class=" st5_151987951" x1="404.81" y1="210.59" x2="404.81" y2="199.86"></line>
        <line class=" st5_151987951" x1="400.18" y1="202.54" x2="409.44" y2="207.9"></line>
        <line class=" st5_151987951" x1="409.44" y1="202.54" x2="400.18" y2="207.9"></line>
      </g>
    </g>
    <g>
      <rect class=" st9_151987951" x="371.9" y="194.25" width="21.94" height="21.94"></rect>
      <rect class=" st9_151987951" x="371.9" y="214.52" width="21.67" height="1.67"></rect>
      <rect class=" st9_151987951" x="373.59" y="216.19" width="3.69" height="1.45"></rect>
      <g>
        <line class=" st5_151987951" x1="382.87" y1="210.59" x2="382.87" y2="199.86"></line>
        <line class=" st5_151987951" x1="378.24" y1="202.54" x2="387.5" y2="207.9"></line>
        <line class=" st5_151987951" x1="387.5" y1="202.54" x2="378.24" y2="207.9"></line>
      </g>
    </g>
    <g>
      <path class=" st9_151987951" d="M174.01,308.55l6.32-17.28c.8-2.18,3.21-3.3,5.39-2.5l16.19,5.92c.2.07.3.29.23.49l-9.08,24.83c-.07.2-.29.3-.49.23l-15.81-5.78c-2.39-.88-3.62-3.52-2.75-5.92Z"></path>
      <path class=" st9_151987951" d="M178.76,308.12l4.47-12.22c.68-1.85,2.72-2.8,4.57-2.12l15.47,5.66c.46.17.7.68.53,1.14l-6,16.4c-.17.46-.68.7-1.14.53l-16.31-5.97c-1.39-.51-2.1-2.04-1.59-3.43Z"></path>
      <path class=" st9_151987951" d="M187.6,311.76l-1.35-10.96c-.03-.27-.28-.47-.56-.43l-5.93.73c-.27.03-.47.28-.43.56l1.35,10.96c.03.27.28.47.56.43l5.93-.73c.27-.03.47-.28.43-.56Z"></path>
    </g>
    <g>
      <path class=" st9_151987951" d="M178.51,346.36l8.39,16.37c1.06,2.07,3.59,2.88,5.66,1.82l15.34-7.86c.19-.1.26-.33.17-.52l-12.06-23.53c-.1-.19-.33-.26-.52-.17l-14.98,7.68c-2.27,1.16-3.16,3.94-2,6.21Z"></path>
      <path class=" st9_151987951" d="M183.28,346.21l5.93,11.58c.9,1.75,3.04,2.44,4.8,1.55l14.66-7.51c.44-.22.61-.76.39-1.2l-7.97-15.54c-.22-.44-.76-.61-1.2-.39l-15.45,7.92c-1.31.67-1.83,2.28-1.16,3.6Z"></path>
      <path class=" st9_151987951" d="M191.6,341.51v11.04c0,.28-.22.5-.5.5h-5.98c-.28,0-.5-.22-.5-.5v-11.04c0-.28.22-.5.5-.5h5.98c.28,0,.5.22.5.5Z"></path>
    </g>
    <g>
      <path class=" st9_151987951" d="M283.23,297.55c3.43,7.33,8.2,17.88,6.03,30.2-1.43,8.14-5.85,13.62-9.32,19.66-10.54,19.04,18.59,31.89,26.66,12.58,8.79-22.74,14.08-51.45,2.69-71.8-6.82-16.51-31.52-7.45-26.06,9.37Z"></path>
      <path class=" st9_151987951" d="M305.83,311.82c1.46,3.87,3.49,9.48,2.32,16.14-1.35,7.59-10.8,18.33-.82,22.3,9.09,3.61,13.3-17.53,13.86-23.71.7-7.76-3.51-26.52-11.72-23.93-3.04.96-4.85,5.12-3.63,9.2Z"></path>
    </g>
    <g>
      <circle class=" st9_151987951" cx="242.85" cy="321.28" r="40.57"></circle>
      <circle class=" st9_151987951" cx="258.85" cy="304.01" r="11.96"></circle>
      <circle class=" st9_151987951" cx="235.66" cy="325.25" r="23.09" transform="translate(-123.14 505.77) rotate(-80.78)"></circle>
    </g>
  </g>
  <g>
    <path class=" st17_151987951" d="M84.17,381.53v7.65h61.52v-9.07h7.28v9.07h178.11v3.55h-167.57v5.27h-79.35v7.79h-7.88v-24.26h7.88ZM102.9,281.09c0,6.99,5.67,12.65,12.65,12.65s12.66-5.67,12.66-12.65-5.67-12.65-12.65-12.65-12.66,5.67-12.66,12.65ZM168.85,167.66h-5.1v-5.46h-79.57v-8.67h-7.88v26.35h7.88v-8.89h61.42v8.89h7.5v-8.01h15.75v-4.2h0ZM303.14,115.6v52.06h21.91v4.2h-125.15v-4.2h81.62v-25.72h17.87v-24.23h-45.48v-3.59h36.78v-59.37h-85.12v59.37h20.35v3.57l-23.73.02v-59.42h-118.01v2.96h-7.9v-21.25h133.3v3.84h98.64v60.08h74.43v2.4h7.87v9.27h-87.36ZM296.64,146.31h-10.85v21.35h10.85v-21.35ZM300.61,51.34h-6.87v62.78h6.87v-62.78ZM153.28,266.78h-7.48v26.4h7.48v-26.4ZM506.35,106.1v349.97h-187.19v56.59H126.86v7.33h-50.59v-20.77h7.9v3.13h220.48v-56.71h193.05v-80.04h-53.74v-3.32h53.74v-72.06h-125.67v72.06h44.32v3.32h-44.32v27.11h-9.68v-3.55h5.89v-114.45h60.83v11.99h46.7v-11.99h21.94v-80.48h-125.8v21.94h-3.67v-47.31h3.67v21.55h60.33v-29.23h3.82v29.23h41.58v-24.19h20.06v-43.47h-7.49v-7.17h-54.15v17.46h-3.82v-17.46h-2.86v-9.5h76.98ZM387.04,278.2h-14.64v8.52h14.64v-8.52ZM501.39,184.15v-12.29h-15.72v12.29h15.72ZM501.83,278.2h-21.88v8.52h21.88v-8.52ZM502.04,119.62v-7.68h-8.59v7.68h8.59Z"></path>
  </g>
  <g>
    <path class=" st5_151987951" d="M76.28,61.91h-22.63M76.28,120.85h-22.63M76.28,178.54h-22.63M76.28,380.2h-22.63M76.28,438.83h-22.63M76.28,497.9h-22.63M76.29,354.14v-147.87M76.28,330.14h-22.63M53.65,280.08h22.63"></path>
    <path class=" st5_151987951" d="M76.29,40v161.18c-12.51,0-22.64-10.13-22.64-22.64V40h22.64ZM76.29,520v-262.54c-6.27,0-11.92,2.54-16.02,6.62-4.08,4.11-6.62,9.76-6.62,16v239.92h22.64Z"></path>
  </g>
  <g>
    <g>
      <rect class=" st3_151987951" x="358.74" y="362.01" width="1.78" height="27.84"></rect>
      <rect class=" st3_151987951" x="360.52" y="389.17" width="1.57" height="2.89"></rect>
      <rect class=" st3_151987951" x="330.93" y="389.17" width="1.57" height="2.89"></rect>
      <path class=" st5_151987951" d="M358.74,362.01c-15.26,0-26.24,15.82-26.24,27.08"></path>
    </g>
    <g>
      <rect class=" st5_151987951" x="434.07" y="158.18" width="25.14" height="1.61"></rect>
      <rect class=" st5_151987951" x="432.07" y="159.78" width="2.61" height="1.42"></rect>
      <rect class=" st5_151987951" x="432.07" y="133.06" width="2.61" height="1.42"></rect>
      <path class=" st5_151987951" d="M459.22,158.18c0-13.78-14.29-23.7-24.45-23.7"></path>
    </g>
    <g>
      <rect class=" st3_151987951" x="250.73" y="89.71" width="1.6" height="25.01"></rect>
      <rect class=" st3_151987951" x="252.33" y="114.12" width="1.41" height="2.59"></rect>
      <rect class=" st3_151987951" x="225.75" y="114.12" width="1.41" height="2.59"></rect>
      <path class=" st5_151987951" d="M250.73,89.71c-13.71,0-23.57,14.21-23.57,24.32"></path>
    </g>
    <g>
      <rect class=" st4_151987951" x="440.81" y="338.88" width="1.58" height="24.76"></rect>
      <rect class=" st4_151987951" x="442.4" y="363.05" width="1.39" height="2.57"></rect>
      <rect class=" st4_151987951" x="416.08" y="363.05" width="1.39" height="2.57"></rect>
      <path class=" st5_151987951" d="M440.82,338.88c-13.57,0-23.34,14.07-23.34,24.08"></path>
    </g>
    <g>
      <rect class=" st3_151987951" x="425.03" y="114.76" width="2.22" height="34.73"></rect>
      <rect class=" st3_151987951" x="427.25" y="112" width="1.96" height="3.6"></rect>
      <rect class=" st3_151987951" x="390.33" y="112" width="1.96" height="3.6"></rect>
      <path class=" st5_151987951" d="M425.03,149.49c-19.04,0-32.74-19.74-32.74-33.78"></path>
    </g>
    <g>
      <rect class=" st3_151987951" x="196.39" y="140.59" width="1.77" height="27.74"></rect>
      <rect class=" st3_151987951" x="198.17" y="167.66" width="1.56" height="2.88"></rect>
      <rect class=" st3_151987951" x="168.68" y="167.66" width="1.56" height="2.88"></rect>
      <path class=" st5_151987951" d="M196.39,140.59c-15.2,0-26.15,15.77-26.15,26.98"></path>
    </g>
    <rect class=" st5_151987951" x="145.8" y="264.12" width="9.29" height="2.66"></rect>
    <rect class=" st5_151987951" x="145.7" y="179.87" width="9.27" height="2.66"></rect>
    <rect class=" st5_151987951" x="145.7" y="377.43" width="9.27" height="2.66"></rect>
    <rect class=" st5_151987951" x="145.7" y="293.18" width="9.27" height="2.66"></rect>
    <rect class=" st5_151987951" x="147.38" y="224.15" width="1.68" height="39.97"></rect>
    <rect class=" st5_151987951" x="145.7" y="182.53" width="1.68" height="41.62"></rect>
    <rect class=" st5_151987951" x="145.7" y="337.47" width="1.68" height="39.97"></rect>
    <rect class=" st5_151987951" x="147.38" y="295.85" width="1.68" height="41.62"></rect>
  </g>
  <g>
    <polygon class=" st16_151987951" points="418.3 94.21 417.89 94.21 409.94 104.18 410.7 81.88 410.7 81.39 408.85 81.39 408.85 81.88 409.61 104.18 401.65 94.21 401.24 94.21 401.24 96.64 409.75 105.19 418.3 96.64 418.3 94.21"></polygon>
  </g>
  <g>
    <g>
      <path class=" st18_151987951" d="M134.6,138.05v6.3h-.95v-5l-.85.55-.45-.75,1.6-1.1h.65Z"></path>
      <path class=" st18_151987951" d="M138.02,140.1c.29,0,.56.05.82.16s.48.26.67.46.34.43.45.69.17.54.17.84-.06.58-.17.84-.27.49-.47.69-.43.35-.7.46-.56.16-.87.16-.6-.05-.85-.14-.47-.22-.65-.38-.32-.34-.43-.55-.16-.44-.18-.68h.95c.01.11.05.22.11.33s.14.2.24.29.22.15.36.21.29.08.44.08c.17,0,.34-.03.49-.1s.29-.16.4-.27.2-.25.27-.41.1-.33.1-.52-.03-.36-.1-.52-.15-.3-.27-.41-.25-.2-.4-.27-.32-.1-.49-.1c-.2,0-.37.04-.52.12s-.27.17-.36.26c-.11.11-.21.24-.27.37h-.8l.4-3.65h3.35v.9h-2.54l-.16,1.5c.07-.06.16-.12.27-.17.09-.04.19-.09.32-.12s.26-.06.41-.06Z"></path>
      <path class=" st18_151987951" d="M141.4,143.3c.15,0,.28.06.39.17s.16.26.16.43c0,.25-.04.47-.12.65s-.18.32-.28.43c-.12.13-.25.24-.4.32l-.15-.2c.07-.04.13-.11.19-.18.05-.06.1-.13.15-.22s.08-.19.11-.3c-.17,0-.32-.05-.43-.16s-.17-.24-.17-.39.05-.28.16-.39.24-.16.39-.16Z"></path>
      <path class=" st18_151987951" d="M144.84,138c.31,0,.6.05.87.16s.5.26.7.46.35.43.47.69.17.54.17.84c0,.19-.03.38-.1.56s-.13.35-.21.5c-.09.17-.19.34-.3.49l-1.75,2.65h-1.05l1.4-2.1s-.07.02-.11.03c-.03,0-.07.01-.12.01s-.1,0-.16,0c-.26,0-.51-.05-.75-.16s-.46-.26-.64-.46-.33-.43-.44-.69-.17-.54-.17-.84.06-.58.17-.84.27-.49.47-.69.43-.35.7-.46.56-.16.87-.16ZM146.09,140.15c0-.19-.03-.36-.1-.52s-.15-.3-.27-.41-.25-.2-.4-.27-.32-.1-.49-.1-.34.03-.49.1-.29.16-.4.27-.2.25-.27.41-.1.33-.1.52.03.36.1.52.15.3.27.41.25.2.4.27.32.1.49.1.34-.03.49-.1.29-.16.4-.27.2-.25.27-.41.1-.33.1-.52Z"></path>
    </g>
    <g>
      <path class=" st18_151987951" d="M320.09,235.38h-.7v1.25h-.95v-1.25h-2.8v-.8l2.65-4.25h1.1v4.15h.7v.9ZM318.44,234.48v-2.75l-1.7,2.75h1.7Z"></path>
      <path class=" st18_151987951" d="M324.82,235.73v.9h-4.05v-.7l2.5-2.7c.11-.12.21-.24.3-.37.08-.11.14-.24.21-.37.06-.13.1-.27.1-.41,0-.28-.1-.51-.29-.68-.19-.18-.46-.26-.81-.26-.33,0-.59.1-.8.3s-.31.47-.31.79h-.95c0-.29.05-.55.14-.79.1-.24.23-.45.41-.62.18-.17.39-.3.64-.4.25-.1.54-.14.85-.14s.6.05.85.14c.25.09.47.22.64.39.18.17.31.36.41.59.1.23.14.47.14.73,0,.2-.05.4-.14.6-.09.2-.2.38-.31.53-.13.18-.28.35-.45.52l-1.79,1.95h2.69Z"></path>
      <path class=" st18_151987951" d="M326.15,235.57c.15,0,.28.06.39.17s.16.26.16.43c0,.25-.04.47-.12.65-.08.18-.18.32-.28.43-.12.13-.25.24-.4.32l-.15-.2c.07-.04.13-.11.19-.18.05-.06.1-.13.15-.22s.08-.19.11-.3c-.17,0-.32-.05-.43-.16s-.17-.24-.17-.39.05-.28.16-.39.24-.16.39-.16Z"></path>
      <path class=" st18_151987951" d="M329.58,230.28c.31,0,.6.05.87.16s.5.26.7.46c.2.2.35.43.47.69s.17.54.17.84c0,.19-.03.38-.1.56-.06.18-.13.35-.21.5-.09.17-.19.34-.3.49l-1.75,2.65h-1.05l1.4-2.1s-.07.02-.11.03c-.03,0-.07.01-.12.01-.05,0-.1,0-.16,0-.26,0-.51-.05-.76-.16-.24-.11-.45-.26-.64-.46-.18-.2-.33-.43-.44-.69s-.17-.54-.17-.84.06-.58.17-.84.27-.49.47-.69c.2-.2.43-.35.7-.46s.56-.16.87-.16ZM330.83,232.43c0-.19-.03-.36-.1-.52-.06-.16-.15-.3-.27-.41s-.25-.2-.4-.27-.32-.1-.49-.1-.33.03-.49.1-.29.16-.4.27-.2.25-.27.41c-.06.16-.1.33-.1.52s.03.36.1.52c.06.16.15.3.27.41s.25.2.4.27.32.1.49.1.33-.03.49-.1.29-.16.4-.27.2-.25.27-.41c.07-.16.1-.33.1-.52Z"></path>
    </g>
    <g>
      <path class=" st18_151987951" d="M422.68,403.87c.31,0,.6.05.87.16.27.11.5.26.7.46.2.2.35.42.47.69s.17.54.17.84c0,.19-.03.38-.1.56-.06.18-.13.35-.21.49-.09.17-.19.33-.3.49l-1.75,2.65h-1.05l1.4-2.1s-.07.02-.11.03c-.03,0-.07.01-.12.02-.05,0-.1,0-.16,0-.26,0-.51-.05-.76-.16-.24-.11-.45-.26-.64-.46-.18-.2-.33-.42-.44-.69s-.17-.54-.17-.84.06-.58.17-.84.27-.49.47-.69c.2-.2.43-.35.7-.46.27-.11.56-.16.87-.16ZM423.93,406.02c0-.19-.03-.36-.1-.52-.06-.16-.15-.3-.27-.41-.11-.11-.25-.2-.4-.27-.15-.07-.32-.1-.49-.1s-.33.03-.49.1c-.15.07-.29.16-.4.27-.11.11-.2.25-.27.41-.06.16-.1.33-.1.52s.03.36.1.52c.06.16.15.3.27.41s.25.2.4.27c.15.07.32.1.49.1s.33-.03.49-.1c.15-.07.29-.16.4-.27s.2-.25.27-.41c.06-.16.1-.33.1-.52Z"></path>
      <path class=" st18_151987951" d="M426.11,409.17c.15,0,.28.06.39.17s.16.26.16.43c0,.25-.04.47-.12.64-.08.18-.18.32-.28.43-.12.13-.25.24-.4.32l-.15-.2c.07-.05.13-.11.19-.18.05-.06.1-.13.15-.22s.08-.19.11-.3c-.17,0-.32-.05-.43-.16-.11-.11-.17-.23-.17-.39s.05-.28.16-.39.24-.16.39-.16Z"></path>
      <path class=" st18_151987951" d="M431.34,403.92v.65l-2.6,5.65h-1l2.5-5.4h-2.85v-.9h3.95Z"></path>
    </g>
    <g>
      <path class=" st18_151987951" d="M422.15,328.95c-.33,0-.62-.05-.88-.15-.26-.1-.49-.23-.68-.4-.19-.17-.33-.36-.44-.59-.1-.22-.16-.46-.16-.72,0-.3.05-.55.16-.76.1-.2.22-.37.35-.49.15-.15.31-.26.5-.35-.14-.09-.27-.19-.38-.31-.1-.11-.18-.24-.25-.39s-.11-.33-.11-.55c0-.23.05-.44.14-.65.09-.2.22-.38.39-.54s.37-.28.61-.37c.23-.09.49-.14.76-.14s.53.05.76.14c.23.09.43.22.61.37.17.16.3.34.39.54.09.2.14.42.14.65,0,.21-.04.4-.12.55-.08.15-.17.28-.26.39-.11.12-.24.23-.37.31.19.09.35.2.5.35.13.13.24.29.34.49.1.2.15.45.15.76,0,.25-.05.49-.15.72-.1.22-.25.42-.43.59-.19.17-.41.3-.68.4-.26.1-.56.15-.88.15ZM422.15,326c-.38,0-.68.1-.89.3-.21.2-.31.45-.31.75s.11.55.31.75c.21.2.51.3.89.3s.68-.1.89-.3c.21-.2.31-.45.31-.75s-.11-.55-.31-.75c-.21-.2-.51-.3-.89-.3ZM422.15,325.15c.28,0,.51-.08.68-.25s.26-.37.26-.6c0-.25-.09-.47-.26-.64s-.4-.26-.68-.26-.51.09-.69.26c-.18.17-.27.39-.27.64,0,.23.09.43.27.6s.41.25.69.25Z"></path>
      <path class=" st18_151987951" d="M425.53,327.85c.15,0,.28.06.39.17s.16.26.16.43c0,.25-.04.47-.12.64-.08.18-.18.32-.28.43-.12.13-.25.24-.4.32l-.15-.2c.07-.05.13-.11.19-.18.05-.06.1-.13.15-.22s.08-.19.11-.3c-.17,0-.32-.05-.43-.16-.11-.11-.17-.23-.17-.39s.05-.28.16-.39.24-.16.39-.16Z"></path>
      <path class=" st18_151987951" d="M431.11,327.65h-.7v1.25h-.95v-1.25h-2.8v-.8l2.65-4.25h1.1v4.15h.7v.9ZM429.46,326.75v-2.75l-1.7,2.75h1.7Z"></path>
    </g>
    <g>
      <path class=" st18_151987951" d="M239.09,422.08v.9h-4.05v-.7l2.5-2.7c.11-.12.21-.24.3-.37.07-.11.14-.24.21-.37s.1-.27.1-.41c0-.28-.1-.51-.29-.68s-.46-.26-.81-.26c-.33,0-.59.1-.8.3-.21.2-.31.47-.31.79h-.95c0-.29.05-.55.14-.79s.23-.45.41-.61.39-.3.65-.4c.25-.1.54-.14.85-.14s.6.05.85.14c.25.09.47.22.65.39s.31.36.41.59.14.47.14.73c0,.2-.05.4-.14.6s-.2.38-.31.53c-.13.18-.28.35-.45.52l-1.79,1.95h2.69Z"></path>
      <path class=" st18_151987951" d="M242.07,423.03c-.31,0-.6-.05-.87-.16-.27-.11-.5-.26-.7-.46-.2-.2-.35-.42-.47-.69s-.17-.54-.17-.84c0-.19.03-.37.1-.56.06-.19.13-.35.21-.5.09-.17.19-.34.3-.49l1.75-2.65h1.05l-1.4,2.1s.07-.01.12-.02c.03,0,.07-.01.12-.02s.1-.01.15-.01c.26,0,.51.05.75.16.24.11.46.26.64.46.18.2.33.42.44.69s.17.54.17.84-.06.58-.17.84-.27.49-.47.69c-.2.2-.43.35-.7.46-.27.11-.56.16-.87.16ZM240.82,420.88c0,.19.03.36.1.52.06.16.15.3.27.41.11.11.25.2.4.27.15.07.32.1.49.1s.34-.03.49-.1c.15-.07.29-.16.4-.27.11-.11.2-.25.27-.41.06-.16.1-.33.1-.52s-.03-.36-.1-.52c-.06-.16-.15-.3-.27-.41-.11-.11-.25-.2-.4-.27-.15-.07-.32-.1-.49-.1s-.34.03-.49.1c-.15.07-.29.16-.4.27-.11.11-.2.25-.27.41-.06.16-.1.33-.1.52Z"></path>
      <path class=" st18_151987951" d="M245.5,421.93c.15,0,.28.06.39.17s.16.26.16.43c0,.25-.04.47-.12.64s-.18.32-.28.43c-.12.13-.25.24-.4.32l-.15-.2c.07-.05.13-.11.19-.18.05-.06.1-.13.15-.22s.08-.19.11-.3c-.17,0-.32-.05-.43-.16-.11-.11-.17-.23-.17-.39s.05-.28.16-.39.24-.16.39-.16Z"></path>
      <path class=" st18_151987951" d="M250.88,422.08v.9h-4.05v-.7l2.5-2.7c.11-.12.21-.24.3-.37.07-.11.14-.24.21-.37s.1-.27.1-.41c0-.28-.1-.51-.29-.68s-.46-.26-.81-.26c-.33,0-.59.1-.8.3-.21.2-.31.47-.31.79h-.95c0-.29.05-.55.14-.79s.23-.45.41-.61.39-.3.65-.4c.25-.1.54-.14.85-.14s.6.05.85.14c.25.09.47.22.65.39s.31.36.41.59.14.47.14.73c0,.2-.05.4-.14.6s-.2.38-.31.53c-.13.18-.28.35-.45.52l-1.79,1.95h2.69Z"></path>
    </g>
    <g>
      <path class=" st18_151987951" d="M465.43,147.96h-.7v1.25h-.95v-1.25h-2.8v-.8l2.65-4.25h1.1v4.15h.7v.9ZM463.78,147.06v-2.75l-1.7,2.75h1.7Z"></path>
      <path class=" st18_151987951" d="M466.56,148.16c.15,0,.28.06.39.17s.16.26.16.43c0,.25-.04.47-.12.65-.08.18-.18.32-.28.43-.12.13-.25.24-.4.32l-.15-.2c.07-.04.13-.11.19-.18.05-.06.1-.13.15-.22s.08-.19.11-.3c-.17,0-.32-.05-.43-.16s-.17-.24-.17-.39.05-.28.16-.39.24-.16.39-.16Z"></path>
      <path class=" st18_151987951" d="M469.95,142.91v6.3h-.95v-5l-.85.55-.45-.75,1.6-1.1h.65Z"></path>
    </g>
    <g>
      <path class=" st18_151987951" d="M419.93,242.16v6.3h-.95v-5l-.85.55-.45-.75,1.6-1.1h.65Z"></path>
      <path class=" st18_151987951" d="M426.11,245.31c0,.51-.07.97-.2,1.37s-.32.73-.55,1-.5.48-.8.62-.62.21-.96.21-.66-.07-.96-.21c-.3-.14-.57-.35-.8-.62-.23-.27-.41-.61-.54-1s-.2-.85-.2-1.37.07-.97.2-1.37.32-.73.54-1c.23-.27.49-.48.79-.62s.62-.21.96-.21.66.07.96.21.56.35.8.62.41.61.55,1,.2.85.2,1.37ZM425.15,245.31c0-.39-.05-.73-.13-1.02-.09-.29-.21-.54-.35-.74s-.31-.35-.5-.44c-.19-.1-.37-.15-.56-.15s-.37.05-.56.15c-.19.1-.35.25-.5.44s-.27.44-.36.74-.14.63-.14,1.02.05.73.14,1.02.21.54.36.74.31.35.5.44.37.15.56.15.37-.05.56-.15c.19-.1.35-.25.5-.44s.27-.44.35-.74.13-.63.13-1.02Z"></path>
      <path class=" st18_151987951" d="M427.38,247.41c.15,0,.28.06.39.17s.16.26.16.43c0,.25-.04.47-.12.65-.08.18-.18.32-.28.43-.12.13-.25.24-.4.32l-.15-.2c.07-.04.13-.11.19-.18.05-.06.1-.13.15-.22s.08-.19.11-.3c-.17,0-.32-.05-.43-.16s-.17-.24-.17-.39.05-.28.16-.39.24-.16.39-.16Z"></path>
      <path class=" st18_151987951" d="M428.66,243.86c.01-.24.07-.47.17-.68.1-.21.24-.4.42-.55.18-.16.39-.29.64-.38.24-.09.52-.14.82-.14.29,0,.55.05.79.14.24.1.45.23.64.39.18.16.32.35.42.56.1.21.15.43.15.66s-.04.42-.12.59c-.08.16-.18.3-.28.4-.12.12-.25.22-.4.31.19.09.35.2.5.34.13.12.24.28.34.48.1.2.15.44.15.73,0,.24-.05.47-.15.68-.1.21-.25.4-.43.57-.19.16-.41.3-.68.4s-.56.15-.88.15-.62-.05-.88-.14-.48-.22-.67-.38c-.18-.16-.33-.34-.43-.55-.1-.21-.16-.44-.18-.68h.95c.01.11.05.22.11.33.06.11.14.2.24.29.1.09.23.15.37.21.15.05.3.08.48.08.38,0,.68-.1.89-.29.21-.19.31-.43.31-.71s-.11-.52-.32-.71-.51-.29-.88-.29h-.45v-.85h.4c.33,0,.58-.09.77-.26.19-.17.28-.39.28-.64,0-.28-.09-.51-.28-.68-.19-.18-.44-.26-.77-.26s-.58.09-.78.26-.3.39-.33.64h-.95Z"></path>
    </g>
    <g>
      <path class=" st18_151987951" d="M244.21,71.83c.29,0,.56.06.82.16s.48.26.67.46.34.43.45.69.17.54.17.84-.06.58-.17.84-.27.49-.47.69-.43.35-.7.46-.56.16-.87.16-.6-.05-.85-.14-.47-.22-.65-.38-.32-.34-.43-.55-.16-.44-.18-.68h.95c.01.11.05.22.11.33s.14.2.24.29.22.15.36.21.29.08.44.08c.17,0,.34-.03.49-.1s.29-.16.4-.27.2-.25.27-.41.1-.33.1-.52-.03-.36-.1-.52-.15-.3-.27-.41-.25-.2-.4-.27-.32-.1-.49-.1c-.2,0-.37.04-.52.12s-.27.17-.36.26c-.11.11-.21.24-.27.37h-.8l.4-3.65h3.35v.9h-2.54l-.16,1.5c.07-.06.16-.12.27-.17.09-.04.19-.09.32-.12s.26-.06.41-.06Z"></path>
      <path class=" st18_151987951" d="M247.59,75.03c.15,0,.28.06.39.17s.16.26.16.43c0,.25-.04.47-.12.64s-.18.32-.28.43c-.12.13-.25.24-.4.32l-.15-.2c.07-.04.13-.11.19-.18.05-.06.1-.13.15-.22s.08-.19.11-.3c-.17,0-.32-.05-.43-.16s-.17-.24-.17-.39.05-.28.16-.39.24-.16.39-.16Z"></path>
      <path class=" st18_151987951" d="M253.17,74.83h-.7v1.25h-.95v-1.25h-2.8v-.8l2.65-4.25h1.1v4.15h.7v.9ZM251.51,73.93v-2.75l-1.7,2.75h1.7Z"></path>
    </g>
    <g>
      <path class=" st18_151987951" d="M349.5,155.17c-.33,0-.62-.05-.88-.15s-.49-.23-.68-.4c-.19-.17-.33-.36-.44-.59s-.16-.46-.16-.71c0-.3.05-.55.16-.75s.22-.37.35-.5c.15-.15.31-.26.5-.35-.14-.09-.27-.19-.38-.31-.1-.11-.18-.24-.25-.39s-.11-.34-.11-.55c0-.23.05-.44.14-.65.09-.2.22-.38.39-.54s.37-.28.61-.37.49-.14.76-.14.53.05.76.14c.23.09.43.22.61.37.17.16.3.34.39.54.09.2.14.42.14.65,0,.21-.04.4-.12.55-.08.15-.17.28-.26.39-.11.12-.24.23-.37.31.19.09.35.2.5.35.13.13.24.29.34.5.1.2.15.46.15.75,0,.25-.05.49-.15.71-.1.22-.25.42-.43.59-.19.17-.41.3-.68.4s-.56.15-.88.15ZM349.5,152.23c-.38,0-.68.1-.89.3-.21.2-.31.45-.31.75s.11.55.31.75c.21.2.51.3.89.3s.68-.1.89-.3c.21-.2.31-.45.31-.75s-.11-.55-.31-.75c-.21-.2-.51-.3-.89-.3ZM349.5,151.38c.28,0,.51-.08.68-.25s.26-.37.26-.6c0-.25-.09-.47-.26-.64s-.4-.26-.68-.26-.51.09-.69.26c-.18.17-.27.39-.27.64,0,.23.09.43.27.6.18.17.41.25.69.25Z"></path>
      <path class=" st18_151987951" d="M352.88,154.07c.15,0,.28.06.39.17s.16.26.16.43c0,.25-.04.47-.12.65-.08.18-.18.32-.28.43-.12.13-.25.24-.4.32l-.15-.2c.07-.04.13-.11.19-.18.05-.06.1-.13.15-.22s.08-.19.11-.3c-.17,0-.32-.05-.43-.16s-.17-.24-.17-.39.05-.28.16-.39.24-.16.39-.16Z"></path>
      <path class=" st18_151987951" d="M354.16,150.52c.01-.24.07-.47.17-.68.1-.21.24-.4.42-.55.18-.16.39-.29.64-.38.24-.09.52-.14.82-.14.29,0,.55.05.79.14.24.1.45.23.64.39.18.16.32.35.42.56.1.21.15.43.15.66s-.04.42-.12.59c-.08.16-.18.3-.28.4-.12.12-.25.22-.4.31.19.09.35.2.5.34.13.12.24.28.34.48.1.2.15.44.15.73,0,.24-.05.47-.15.68-.1.21-.25.4-.43.57-.19.16-.41.3-.68.4s-.56.15-.88.15-.62-.05-.88-.14-.48-.22-.67-.38c-.18-.16-.33-.34-.43-.55-.1-.21-.16-.44-.18-.68h.95c.01.11.05.22.11.33.06.11.14.2.24.29.1.09.23.15.37.21.15.05.3.08.48.08.38,0,.68-.1.89-.29.21-.19.31-.43.31-.71s-.11-.52-.32-.71-.51-.29-.88-.29h-.45v-.85h.4c.33,0,.58-.09.77-.26.19-.17.28-.39.28-.64,0-.28-.09-.51-.28-.68-.19-.18-.44-.26-.77-.26s-.58.09-.78.26-.3.39-.33.64h-.95Z"></path>
    </g>
    <g>
      <path class=" st18_151987951" d="M95.81,316.29v6.3h-.95v-5l-.85.55-.45-.75,1.6-1.1h.65Z"></path>
      <path class=" st18_151987951" d="M101.99,319.44c0,.52-.07.97-.2,1.36-.13.4-.32.73-.55,1s-.5.48-.8.62-.62.21-.96.21-.66-.07-.96-.21-.57-.35-.8-.62-.41-.61-.54-1c-.13-.39-.2-.85-.2-1.36s.07-.97.2-1.37.32-.73.54-1,.49-.48.79-.62.62-.21.96-.21.66.07.96.21.57.35.8.62c.23.27.41.61.55,1s.2.85.2,1.37ZM101.04,319.44c0-.39-.04-.73-.13-1.02s-.21-.54-.35-.73c-.15-.2-.31-.35-.5-.45s-.37-.15-.56-.15-.37.05-.56.15c-.19.1-.35.25-.5.45-.15.2-.26.44-.36.73s-.14.63-.14,1.02.04.73.14,1.02.21.54.36.73c.15.2.31.35.5.45.19.1.37.15.56.15s.37-.05.56-.15c.19-.1.35-.25.5-.45.15-.2.26-.44.35-.73s.13-.63.13-1.02Z"></path>
      <path class=" st18_151987951" d="M103.27,321.54c.15,0,.28.06.39.17s.16.26.16.43c0,.25-.04.47-.12.64s-.18.32-.28.43c-.12.13-.25.24-.4.32l-.15-.2c.07-.05.13-.11.19-.18.05-.06.1-.13.15-.22s.08-.19.11-.3c-.17,0-.32-.05-.43-.16-.11-.11-.17-.23-.17-.39s.05-.28.16-.39.24-.16.39-.16Z"></path>
      <path class=" st18_151987951" d="M106.69,322.64c-.31,0-.6-.05-.87-.16-.27-.11-.5-.26-.7-.46-.2-.2-.35-.42-.47-.69s-.17-.54-.17-.84c0-.19.03-.37.1-.56.06-.19.13-.35.21-.5.09-.17.19-.34.3-.49l1.75-2.65h1.05l-1.4,2.1s.07-.01.12-.02c.03,0,.07-.01.12-.02s.1-.01.15-.01c.26,0,.51.05.75.16.24.11.46.26.64.46.18.2.33.42.44.69s.17.54.17.84-.06.58-.17.84-.27.49-.47.69c-.2.2-.43.35-.7.46-.27.11-.56.16-.87.16ZM105.44,320.49c0,.19.03.36.1.52.06.16.15.3.27.41.11.11.25.2.4.27.15.07.32.1.49.1s.33-.03.49-.1c.15-.07.29-.16.4-.27.11-.11.2-.25.27-.41.06-.16.1-.33.1-.52s-.03-.36-.1-.52c-.06-.16-.15-.3-.27-.41-.11-.11-.25-.2-.4-.27-.15-.07-.32-.1-.49-.1s-.33.03-.49.1c-.15.07-.29.16-.4.27-.11.11-.2.25-.27.41-.06.16-.1.33-.1.52Z"></path>
      <path class=" st18_151987951" d="M112.4,324.39h-.85l2.6-8.1h.85l-2.6,8.1Z"></path>
      <path class=" st18_151987951" d="M119.96,318.34c.29,0,.56.05.82.16.26.11.48.26.67.46.19.2.34.42.45.69s.17.54.17.84-.06.58-.17.84-.27.49-.47.69c-.2.2-.43.35-.7.46-.27.11-.56.16-.87.16s-.6-.05-.85-.14c-.25-.09-.47-.22-.65-.38s-.32-.34-.43-.55c-.1-.21-.16-.43-.18-.68h.95c.01.11.05.22.11.33.06.11.14.2.24.29.1.09.22.15.36.2.14.05.29.08.44.08.17,0,.33-.03.49-.1.15-.07.29-.16.4-.27.11-.11.2-.25.27-.41.06-.16.1-.33.1-.52s-.03-.36-.1-.52c-.06-.16-.15-.3-.27-.41-.11-.11-.25-.2-.4-.27-.15-.07-.32-.1-.49-.1-.2,0-.37.04-.52.12-.15.08-.27.17-.36.26-.11.11-.21.24-.27.37h-.8l.4-3.65h3.35v.9h-2.54l-.16,1.5c.07-.06.17-.11.27-.17.09-.05.19-.09.32-.12s.26-.05.41-.05Z"></path>
      <path class=" st18_151987951" d="M123.33,321.54c.15,0,.28.06.39.17s.16.26.16.43c0,.25-.04.47-.12.64s-.18.32-.28.43c-.12.13-.25.24-.4.32l-.15-.2c.07-.05.13-.11.19-.18.05-.06.1-.13.15-.22s.08-.19.11-.3c-.17,0-.32-.05-.43-.16-.11-.11-.17-.23-.17-.39s.05-.28.16-.39.24-.16.39-.16Z"></path>
      <path class=" st18_151987951" d="M124.62,317.99c.01-.24.07-.47.17-.68.1-.21.24-.4.42-.55s.39-.29.64-.38c.25-.09.52-.14.82-.14.29,0,.55.05.79.14.24.1.45.23.64.39s.32.35.42.56c.1.21.15.43.15.66s-.04.42-.12.59-.18.3-.28.4c-.12.12-.25.22-.4.31.19.09.35.2.5.34.13.12.24.28.34.48.1.2.15.44.15.73,0,.24-.05.47-.15.68s-.25.4-.43.57c-.19.17-.41.3-.68.4-.26.1-.56.15-.88.15s-.62-.05-.88-.14c-.26-.09-.48-.22-.67-.38s-.33-.34-.43-.55c-.1-.21-.16-.43-.18-.68h.95c.01.11.05.22.11.33.06.11.14.2.24.29.1.09.23.15.37.2.14.05.3.08.48.08.38,0,.68-.1.89-.29.21-.19.32-.43.32-.71s-.11-.52-.32-.71-.51-.29-.88-.29h-.45v-.85h.4c.33,0,.58-.09.77-.26s.28-.39.28-.64c0-.28-.09-.51-.28-.68s-.44-.26-.77-.26-.58.09-.78.26-.3.39-.33.64h-.95Z"></path>
      <path class=" st18_151987951" d="M130.49,317.89l-1-.25.2-.65.95.35-.05-1.05h.7l-.05,1.05.95-.35.2.65-1,.25.65.8-.6.4-.5-.85-.5.85-.6-.4.65-.8Z"></path>
    </g>
  </g>
</svg></svg>