<svg xmlns="http://www.w3.org/2000/svg" version="1.1" xmlns:xlink="http://www.w3.org/1999/xlink"><svg data-name="Слой_1" xmlns="http://www.w3.org/2000/svg" xmlns:xlink="http://www.w3.org/1999/xlink" version="1.1" viewBox="0 0 560 560">
  
  <defs>
    <style>
      .st0_673753241, .st1_673753241, .st2_673753241, .st3_673753241, .st4_673753241, .st5_673753241, .st6_673753241 {
        fill: none;
      }

      .st1_673753241, .st2_673753241, .st3_673753241, .st4_673753241, .st5_673753241, .st7_673753241, .st8_673753241, .st9_673753241, .st10_673753241, .st11_673753241, .st12_673753241, .st13_673753241, .st14_673753241, .st15_673753241, .st6_673753241, .st16_673753241, .st17_673753241 {
        stroke-linecap: round;
        stroke-linejoin: round;
      }

      .st1_673753241, .st5_673753241, .st8_673753241, .st9_673753241, .st6_673753241, .st16_673753241, .st17_673753241 {
        stroke-width: .5px;
      }

      .st1_673753241, .st8_673753241 {
        stroke: #d8cbb5;
      }

      .st2_673753241 {
        stroke-width: .25px;
      }

      .st2_673753241, .st3_673753241, .st4_673753241, .st5_673753241, .st7_673753241, .st9_673753241, .st10_673753241, .st11_673753241, .st12_673753241, .st13_673753241, .st14_673753241, .st15_673753241, .st6_673753241, .st17_673753241 {
        stroke: #1b4732;
      }

      .st3_673753241 {
        stroke-width: .5px;
      }

      .st4_673753241 {
        stroke-width: .5px;
      }

      .st7_673753241 {
        fill: #fff;
        stroke-width: .5px;
      }

      .st8_673753241 {
        fill: url(#_Терраса);
      }

      .st18_673753241 {
        fill: #1b4732;
      }

      .st9_673753241, .st10_673753241, .st11_673753241, .st12_673753241, .st13_673753241, .st14_673753241, .st15_673753241 {
        fill: #f5e8d1;
      }

      .st10_673753241 {
        stroke-width: .5px;
      }

      .st11_673753241 {
        stroke-width: .5px;
      }

      .st12_673753241 {
        stroke-width: .5px;
      }

      .st13_673753241 {
        stroke-width: .5px;
      }

      .st14_673753241 {
        stroke-width: .5px;
      }

      .st15_673753241 {
        stroke-width: .5px;
      }

      .st6_673753241 {
        stroke-dasharray: 3;
      }

      .st16_673753241 {
        fill: #666c35;
        stroke: #666c35;
      }

      .st17_673753241 {
        fill: #e1d1b6;
      }
    </style>
    <pattern data-name="Терраса" x="0" y="0" width="10.1" height="8.7" patternTransform="translate(-8 -15304) scale(1 -1)" patternUnits="userSpaceOnUse" viewBox="0 0 10.1 8.7">
      <g>
        <rect class=" st0_673753241" width="10.1" height="8.7"></rect>
        <g>
          <rect class=" st0_673753241" width="10.1" height="8.7"></rect>
          <g>
            <line class=" st1_673753241" x1="10.15" y1="6.4" x2="20.15" y2="6.4"></line>
            <line class=" st1_673753241" x1="10.15" y1="2.3" x2="20.15" y2="2.3"></line>
          </g>
          <g>
            <line class=" st1_673753241" x1=".05" y1="6.4" x2="10.05" y2="6.4"></line>
            <line class=" st1_673753241" x1=".05" y1="2.3" x2="10.05" y2="2.3"></line>
          </g>
          <g>
            <line class=" st1_673753241" x1="-10.05" y1="6.4" x2="-.05" y2="6.4"></line>
            <line class=" st1_673753241" x1="-10.05" y1="2.3" x2="-.05" y2="2.3"></line>
          </g>
        </g>
      </g>
    </pattern>
  </defs>
  <g>
    <line class=" st6_673753241" x1="224.17" y1="390.62" x2="224.17" y2="284.37"></line>
    <line class=" st6_673753241" x1="189.37" y1="284.36" x2="144.96" y2="284.47"></line>
  </g>
  <g>
    <path class=" st8_673753241" d="M494.52,397.96c-.48-.5-1.15-.81-1.89-.81h-2.83c-6.19,0-11.35-2.57-15.31-7.33-2.88-3.45-7.21-5.64-12.05-5.64s-9.17,2.2-12.05,5.64c-3.97,4.75-9.96,7.33-16.15,7.33h-9.38c-1.1,0-2.04.68-2.42,1.64l-.12-105.93h72.2v105.09Z"></path>
  </g>
  <g>
    <rect class=" st5_673753241" x="487.61" y="231.74" width="8.36" height="30.33"></rect>
    <rect class=" st5_673753241" x="487.61" y="203.75" width="8.36" height="25.16"></rect>
    <rect class=" st5_673753241" x="487.61" y="169.1" width="8.36" height="31.84"></rect>
    <rect class=" st5_673753241" x="487.61" y="166.27" width="8.36" height="2.82"></rect>
    <rect class=" st5_673753241" x="487.61" y="200.93" width="8.36" height="2.82"></rect>
    <rect class=" st5_673753241" x="487.61" y="228.92" width="8.36" height="2.82"></rect>
    <rect class=" st5_673753241" x="487.61" y="262.06" width="8.36" height="2.85"></rect>
    <rect class=" st5_673753241" x="487.61" y="290.04" width="8.37" height="2.83"></rect>
    <rect class=" st5_673753241" x="494.52" y="292.87" width="1.47" height="106.9"></rect>
    <rect class=" st5_673753241" x="494.56" y="169.1" width="1.41" height="31.84"></rect>
    <rect class=" st5_673753241" x="494.56" y="203.75" width="1.41" height="25.16"></rect>
    <rect class=" st5_673753241" x="494.56" y="231.74" width="1.41" height="30.33"></rect>
  </g>
  <g>
    <rect class=" st7_673753241" x="483.26" y="204.92" width="1.19" height="24.55" transform="translate(-39.73 132.63) rotate(-15)"></rect>
  </g>
  <g>
    <path class=" st2_673753241" d="M476.44,167.63h11.42v103.04h-11.42v-103.04ZM476.44,173.68h11.17M476.44,179.68h11.17M476.44,185.68h11.17M476.44,191.68h11.17M476.44,197.68h11.17M476.44,203.69h11.17M476.44,209.69h11.17M476.44,215.69h11.17M476.44,221.69h11.17M476.44,227.69h11.17M476.44,233.69h11.17M476.44,239.69h11.17M476.44,245.69h11.17M476.44,251.69h11.17M476.44,257.69h11.17M476.44,263.69h11.17M401.05,289.09h11.42v96.01h-11.42v-96.01ZM401.17,295.09h11.17M401.17,301.09h11.17M401.17,307.09h11.17M401.17,313.09h11.17M401.17,319.09h11.17M401.17,325.1h11.17M401.17,331.1h11.17M401.17,337.1h11.17M401.17,343.1h11.17M401.17,349.1h11.17M401.17,355.1h11.17M401.17,361.1h11.17M401.17,367.1h11.17M401.17,373.1h11.17M401.17,379.1h11.17"></path>
  </g>
  <g>
    <rect class=" st15_673753241" x="268.47" y="193.81" width="28.47" height="1.33"></rect>
    <rect class=" st12_673753241" x="71.68" y="368.62" width="24.06" height="21.96"></rect>
    <rect class=" st13_673753241" x="56.73" y="224.66" width="14.5" height="7.61"></rect>
    <rect class=" st12_673753241" x="48.19" y="368.62" width="23.49" height="21.96"></rect>
    <g>
      <rect class=" st9_673753241" x="187.14" y="316.55" width="35.02" height="74.06"></rect>
      <g>
        <path class=" st9_673753241" d="M234.28,379.73h-12.12v-15.88h12.12c1.1,0,2,.89,2,2v11.88c0,1.1-.9,2-2,2Z"></path>
        <path class=" st9_673753241" d="M230.42,379.73h-8.26v-15.88h8.26c1.1,0,2,.89,2,2v11.88c0,1.1-.9,2-2,2Z"></path>
      </g>
      <g>
        <path class=" st9_673753241" d="M234.28,347.05h-12.12v-15.88h12.12c1.1,0,2,.89,2,2v11.88c0,1.11-.9,2-2,2Z"></path>
        <path class=" st9_673753241" d="M230.42,347.05h-8.26v-15.88h8.26c1.1,0,2,.89,2,2v11.88c0,1.11-.9,2-2,2Z"></path>
      </g>
    </g>
    <g>
      <path class=" st9_673753241" d="M435.41,360.4l7.42,7.42c.78.78,2.05.78,2.83,0l35.42-35.42c.78-.78.78-2.05,0-2.83l-7.42-7.42c-.78-.78-2.05-.78-2.83,0l-35.42,35.42c-.78.78-.78,2.05,0,2.83Z"></path>
      <path class=" st9_673753241" d="M438.21,357.6l7.42,7.42c.78.78,2.05.78,2.83,0l29.83-29.83c.78-.78.78-2.05,0-2.83l-7.42-7.42c-.78-.78-2.05-.78-2.83,0l-29.83,29.83c-.78.78-.78,2.05,0,2.83Z"></path>
      <path class=" st9_673753241" d="M442.83,322.15l-7.42,7.42c-.78.78-.78,2.05,0,2.83l35.42,35.42c.78.78,2.05.78,2.83,0l7.42-7.42c.78-.78.78-2.05,0-2.83l-35.42-35.42c-.78-.78-2.05-.78-2.83,0Z"></path>
      <path class=" st9_673753241" d="M445.63,324.95l-7.42,7.42c-.78.78-.78,2.05,0,2.83l29.83,29.83c.78.78,2.05.78,2.83,0l7.42-7.42c.78-.78.78-2.05,0-2.83l-29.83-29.83c-.78-.78-2.05-.78-2.83,0Z"></path>
      <circle class=" st9_673753241" cx="458.25" cy="344.99" r="16.22"></circle>
    </g>
    <g>
      <path class=" st9_673753241" d="M166.99,241.52h16.31c.55,0,1-.45,1-1v-10.84c0-.55-.45-1-1-1h-16.31c-.55,0-1,.45-1,1v10.84c0,.55.45,1,1,1Z"></path>
      <g>
        <line class=" st5_673753241" x1="169.37" y1="230.61" x2="171.97" y2="233.21"></line>
        <line class=" st5_673753241" x1="169.37" y1="233.21" x2="171.97" y2="230.61"></line>
        <line class=" st5_673753241" x1="178.73" y1="230.61" x2="181.33" y2="233.21"></line>
        <line class=" st5_673753241" x1="178.73" y1="233.21" x2="181.33" y2="230.61"></line>
        <line class=" st5_673753241" x1="178.73" y1="237" x2="181.33" y2="239.6"></line>
        <line class=" st5_673753241" x1="178.73" y1="239.6" x2="181.33" y2="237"></line>
        <line class=" st5_673753241" x1="171.97" y1="237" x2="169.37" y2="239.6"></line>
        <line class=" st5_673753241" x1="169.37" y1="237" x2="171.97" y2="239.6"></line>
      </g>
    </g>
    <rect class=" st9_673753241" x="121.92" y="284.37" width="23.4" height="106.25"></rect>
    <g>
      <rect class=" st14_673753241" x="121.92" y="329.81" width="23.4" height="32.61"></rect>
      <path class=" st9_673753241" d="M143.04,333.35v25.54c0,.55-.45,1-1,1h-14.56c-.55,0-1-.45-1-1v-25.54c0-.55.45-1,1-1h14.56c.55,0,1,.45,1,1Z"></path>
      <rect class=" st14_673753241" x="123.12" y="344.89" width="7.11" height="2.46"></rect>
      <circle class=" st9_673753241" cx="134.03" cy="346.12" r="1.52"></circle>
      <rect class=" st14_673753241" x="123.12" y="344.89" width="2.11" height="2.46"></rect>
    </g>
    <g>
      <rect class=" st9_673753241" x="95.74" y="368.62" width="22.12" height="22"></rect>
      <rect class=" st9_673753241" x="98.69" y="371.41" width="5.13" height="3.65"></rect>
      <rect class=" st9_673753241" x="98.7" y="366.69" width="15.88" height="1.95"></rect>
    </g>
    <rect class=" st9_673753241" x="191.31" y="224.43" width="59.95" height="19.82"></rect>
    <g>
      <path class=" st9_673753241" d="M202.28,240.55v-9.85h18.49v9.85c0,.55-.45,1-1,1h-16.49c-.55,0-1-.45-1-1Z"></path>
      <rect class=" st11_673753241" x="202.28" y="229.28" width="18.49" height="1.42"></rect>
      <rect class=" st11_673753241" x="210.64" y="227.14" width="1.78" height="5.43"></rect>
      <circle class=" st9_673753241" cx="211.53" cy="235.46" r="1.26"></circle>
    </g>
    <rect class=" st9_673753241" x="340.69" y="167.5" width="18.11" height="48.55"></rect>
    <g>
      <path class=" st9_673753241" d="M343.54,182.38h9.85v18.49h-9.85c-.55,0-1-.45-1-1v-16.49c0-.55.45-1,1-1Z"></path>
      <rect class=" st9_673753241" x="353.38" y="182.38" width="1.42" height="18.49"></rect>
      <rect class=" st9_673753241" x="351.51" y="190.74" width="5.43" height="1.78"></rect>
      <circle class=" st9_673753241" cx="348.62" cy="191.63" r="1.26"></circle>
    </g>
    <g>
      <path class=" st9_673753241" d="M289.25,214.2v-10.86c0-.83-.67-1.5-1.5-1.5h-15.24v13.86h15.24c.83,0,1.5-.67,1.5-1.5Z"></path>
      <rect class=" st9_673753241" x="268.47" y="201.84" width="4.04" height="13.86"></rect>
    </g>
    <g>
      <path class=" st9_673753241" d="M230.48,255.26v10.86c0,.83.67,1.5,1.5,1.5h15.24v-13.86h-15.24c-.83,0-1.5.67-1.5,1.5Z"></path>
      <rect class=" st10_673753241" x="247.22" y="253.76" width="4.04" height="13.86"></rect>
    </g>
    <g>
      <path class=" st9_673753241" d="M268.47,173.19h3.62c.28,0,.5.22.5.5v8.89c0,.28-.22.5-.5.5h-3.62v-9.89Z"></path>
      <rect class=" st9_673753241" x="272.59" y="173.77" width="1.75" height="2.96"></rect>
      <ellipse class=" st9_673753241" cx="284.49" cy="178.13" rx="4.48" ry="4.59"></ellipse>
      <line class=" st5_673753241" x1="268.47" y1="178.13" x2="284.49" y2="178.13"></line>
    </g>
    <g>
      <rect class=" st9_673753241" x="362.38" y="163.88" width="19.55" height="15.7"></rect>
      <rect class=" st9_673753241" x="362.38" y="179.57" width="19.55" height="2.1"></rect>
      <rect class=" st9_673753241" x="444.94" y="163.87" width="19.55" height="15.7"></rect>
      <rect class=" st9_673753241" x="444.94" y="179.57" width="19.54" height="2.1"></rect>
      <rect class=" st9_673753241" x="381.92" y="163.87" width="63.02" height="3.6"></rect>
      <rect class=" st9_673753241" x="381.92" y="167.47" width="63.02" height="19.66"></rect>
      <rect class=" st9_673753241" x="385.81" y="170.31" width="26.09" height="14.09"></rect>
      <rect class=" st9_673753241" x="415.01" y="170.31" width="26.05" height="14.09"></rect>
      <polygon class=" st9_673753241" points="418.58 178.95 393.04 190.83 388 188.56 381.92 187.12 381.92 235.66 444.95 235.66 444.95 178.95 418.58 178.95"></polygon>
      <polygon class=" st9_673753241" points="381.92 187.12 388 188.56 393.04 190.83 418.58 178.95 414.07 178.95 381.92 187.12"></polygon>
    </g>
    <g>
      <g>
        <rect class=" st9_673753241" x="403.73" y="271.25" width="39.57" height="1.63"></rect>
        <rect class=" st9_673753241" x="420.84" y="272.88" width="5.34" height="1.24"></rect>
      </g>
      <polyline class=" st5_673753241" points="414.98 267.83 423.53 271.25 432.08 267.84"></polyline>
    </g>
    <g>
      <g>
        <rect class=" st9_673753241" x="302.39" y="285.7" width="58.72" height="1.76"></rect>
        <rect class=" st9_673753241" x="327.79" y="284.37" width="7.93" height="1.33"></rect>
      </g>
      <polyline class=" st5_673753241" points="344.4 291.15 331.72 287.46 319.03 291.14"></polyline>
    </g>
    <rect class=" st9_673753241" x="422.43" y="283.47" width="65.18" height="9.39"></rect>
    <g>
      <rect class=" st9_673753241" x="276.73" y="259.32" width="86.15" height="20.59"></rect>
      <g>
        <line class=" st5_673753241" x1="280.55" y1="262.05" x2="281.82" y2="277.18"></line>
        <line class=" st5_673753241" x1="287.06" y1="262.05" x2="285.8" y2="277.18"></line>
        <line class=" st5_673753241" x1="291.19" y1="262.05" x2="291.19" y2="277.18"></line>
        <line class=" st5_673753241" x1="295.08" y1="262.05" x2="296.35" y2="277.18"></line>
        <line class=" st5_673753241" x1="310.75" y1="262.05" x2="312.02" y2="277.18"></line>
        <line class=" st5_673753241" x1="321.12" y1="262.05" x2="322.39" y2="277.18"></line>
        <line class=" st5_673753241" x1="337.7" y1="262.05" x2="338.97" y2="277.18"></line>
        <line class=" st5_673753241" x1="327.33" y1="262.05" x2="328.6" y2="277.18"></line>
        <line class=" st5_673753241" x1="301.54" y1="262.05" x2="300.27" y2="277.18"></line>
        <line class=" st5_673753241" x1="316.77" y1="262.05" x2="315.5" y2="277.18"></line>
        <line class=" st5_673753241" x1="333.35" y1="262.05" x2="332.08" y2="277.18"></line>
        <line class=" st5_673753241" x1="306.82" y1="262.05" x2="306.82" y2="277.18"></line>
        <line class=" st5_673753241" x1="347.43" y1="262.05" x2="348.7" y2="277.18"></line>
        <line class=" st5_673753241" x1="357.8" y1="262.05" x2="359.07" y2="277.18"></line>
        <line class=" st5_673753241" x1="353.45" y1="262.05" x2="352.18" y2="277.18"></line>
        <line class=" st5_673753241" x1="343.5" y1="262.05" x2="343.5" y2="277.18"></line>
      </g>
      <line class=" st5_673753241" x1="360.15" y1="269.62" x2="279.47" y2="269.62"></line>
    </g>
    <g>
      <rect class=" st9_673753241" x="48.18" y="301.47" width="20.37" height="67.15"></rect>
      <g>
        <line class=" st5_673753241" x1="50.88" y1="349.18" x2="65.85" y2="347.49"></line>
        <line class=" st5_673753241" x1="50.88" y1="364.59" x2="65.85" y2="362.9"></line>
        <line class=" st5_673753241" x1="50.88" y1="307.19" x2="65.85" y2="305.49"></line>
        <line class=" st5_673753241" x1="50.88" y1="335.73" x2="65.85" y2="334.04"></line>
        <line class=" st5_673753241" x1="50.88" y1="321.68" x2="65.85" y2="319.99"></line>
        <line class=" st5_673753241" x1="50.88" y1="358.01" x2="65.85" y2="359.71"></line>
        <line class=" st5_673753241" x1="50.88" y1="343.64" x2="65.85" y2="345.33"></line>
        <line class=" st5_673753241" x1="50.88" y1="315.11" x2="65.85" y2="316.8"></line>
        <line class=" st5_673753241" x1="50.88" y1="329.14" x2="65.85" y2="330.84"></line>
        <line class=" st5_673753241" x1="50.88" y1="310.48" x2="65.85" y2="310.48"></line>
        <line class=" st5_673753241" x1="50.88" y1="324.98" x2="65.85" y2="324.98"></line>
        <line class=" st5_673753241" x1="50.88" y1="352.47" x2="65.85" y2="352.47"></line>
        <line class=" st5_673753241" x1="50.88" y1="339.01" x2="65.85" y2="339.01"></line>
      </g>
      <line class=" st5_673753241" x1="58.37" y1="304.4" x2="58.37" y2="365.69"></line>
    </g>
    <g>
      <rect class=" st9_673753241" x="259.23" y="226.9" width="17.51" height="30.76"></rect>
      <g>
        <line class=" st5_673753241" x1="261.55" y1="236.68" x2="274.42" y2="237.65"></line>
        <line class=" st5_673753241" x1="261.55" y1="252.52" x2="274.42" y2="253.49"></line>
        <line class=" st5_673753241" x1="261.55" y1="232.05" x2="274.42" y2="231.07"></line>
        <line class=" st5_673753241" x1="261.55" y1="243.26" x2="274.42" y2="242.28"></line>
        <line class=" st5_673753241" x1="261.55" y1="247.89" x2="274.42" y2="247.89"></line>
      </g>
      <line class=" st5_673753241" x1="267.98" y1="255.27" x2="267.98" y2="229.29"></line>
    </g>
    <g>
      <rect class=" st9_673753241" x="48.19" y="232.27" width="23.04" height="48.04"></rect>
      <g>
        <line class=" st5_673753241" x1="51.24" y1="265.51" x2="68.17" y2="266.52"></line>
        <line class=" st5_673753241" x1="51.24" y1="251.18" x2="68.17" y2="252.19"></line>
        <line class=" st5_673753241" x1="51.24" y1="257.3" x2="68.17" y2="256.29"></line>
        <line class=" st5_673753241" x1="51.24" y1="271.63" x2="68.17" y2="270.62"></line>
        <line class=" st5_673753241" x1="51.24" y1="275.73" x2="68.17" y2="275.73"></line>
        <line class=" st5_673753241" x1="51.24" y1="236.86" x2="68.17" y2="237.87"></line>
        <line class=" st5_673753241" x1="51.24" y1="242.98" x2="68.17" y2="241.97"></line>
        <line class=" st5_673753241" x1="51.24" y1="247.08" x2="68.17" y2="247.08"></line>
        <line class=" st5_673753241" x1="51.24" y1="261.4" x2="68.17" y2="261.4"></line>
      </g>
      <line class=" st5_673753241" x1="59.7" y1="277.84" x2="59.7" y2="234.75"></line>
    </g>
    <g>
      <rect class=" st9_673753241" x="121.92" y="307.6" width="23.1" height="22.21"></rect>
      <rect class=" st9_673753241" x="143.25" y="307.6" width="1.76" height="22.21"></rect>
      <path class=" st9_673753241" d="M138.28,318.71h0c0,1.31-.62,2.18-1.52,2.7-1.1.64-2.48.64-3.64.13l-6.49-2.83,6.3-2.82c1.04-.46,2.25-.51,3.3-.06,1.14.49,2.06,1.41,2.06,2.88Z"></path>
    </g>
    <g>
      <rect class=" st9_673753241" x="121.92" y="362.42" width="23.1" height="22.71"></rect>
      <circle class=" st9_673753241" cx="138.56" cy="368.63" r="3.45"></circle>
      <circle class=" st9_673753241" cx="138.56" cy="378.93" r="3.45"></circle>
      <circle class=" st9_673753241" cx="128.37" cy="368.63" r="3.45"></circle>
      <circle class=" st9_673753241" cx="128.37" cy="378.93" r="3.45"></circle>
    </g>
    <g>
      <rect class=" st9_673753241" x="121.92" y="284.47" width="23.04" height="23.04"></rect>
      <rect class=" st9_673753241" x="143.2" y="284.47" width="1.76" height="22.76"></rect>
      <rect class=" st9_673753241" x="144.96" y="286.24" width="1.53" height="3.87"></rect>
      <g>
        <line class=" st5_673753241" x1="139.07" y1="295.99" x2="127.8" y2="295.99"></line>
        <line class=" st5_673753241" x1="130.62" y1="291.12" x2="136.25" y2="300.85"></line>
        <line class=" st5_673753241" x1="130.62" y1="300.85" x2="136.25" y2="291.12"></line>
      </g>
    </g>
    <g>
      <circle class=" st9_673753241" cx="324.18" cy="332.86" r="37.7"></circle>
      <circle class=" st9_673753241" cx="334.17" cy="335.47" r="13.91"></circle>
    </g>
    <g>
      <path class=" st9_673753241" d="M278.8,361.89h.01c-13.03-15.52,11.55-33.82,22.66-16.85l-.03.03c4.54,5.1,10.43,9.87,17.48,11.55,7.73,1.85,15.46.01,22.21-2.95h0c.19-.09.39-.15.59-.23.06-.04.12-.07.19-.11.1-.03.19-.05.29-.07,1.13-.4,2.33-.61,3.57-.6,15.15-.78,20.71,22.45,4.24,27.44-23.58,9.98-55.36,1.82-71.21-18.21Z"></path>
      <path class=" st9_673753241" d="M283.83,356.22c7.49,9.05,17.98,16.52,30.28,19.46,12.68,3.03,25.38,1.5,36.38-3.53l-.03-.06c2.54-1.34,4.51-3.72,5.23-6.73,1.33-5.55-2.1-11.12-7.64-12.45-2.42-.58-4.84-.26-6.91.75h0c-6.76,2.97-14.48,4.8-22.21,2.95-7.56-1.81-13.82-7.16-18.48-12.68l.02.02c-1.39-1.85-3.41-3.24-5.84-3.82-5.55-1.33-11.12,2.1-12.45,7.64-.73,3.04-.03,6.08,1.66,8.44Z"></path>
      <g>
        <line class=" st5_673753241" x1="330.01" y1="357.07" x2="334.6" y2="384"></line>
        <line class=" st5_673753241" x1="309.17" y1="352.09" x2="290.91" y2="373.04"></line>
      </g>
    </g>
    <g>
      <path class=" st9_673753241" d="M384.12,347.63l3.33-19.79c.39-2.29-1.16-4.46-3.45-4.84l-18.32-3.08c-.21-.04-.41.11-.44.32l-4.66,27.72c-.04.21.11.41.32.44l17.91,3.01c2.51.42,4.89-1.27,5.31-3.78Z"></path>
      <path class=" st9_673753241" d="M379.98,344.62l2.35-13.99c.33-1.94-.98-3.78-2.92-4.1l-17.51-2.94c-.48-.08-.94.25-1.03.73l-3.09,18.39c-.08.48.25.94.73,1.03l18.39,3.09c1.46.24,2.83-.74,3.08-2.19Z"></path>
      <path class=" st9_673753241" d="M369.94,343.2l7.04-9.45c.17-.22.48-.27.7-.1l5.14,3.82c.22.17.27.48.1.7l-7.04,9.45c-.17.22-.48.27-.7.1l-5.14-3.82c-.22-.17-.27-.48-.1-.7Z"></path>
    </g>
  </g>
  <g>
    <path class=" st17_673753241" d="M492.63,397.15h-2.83c-6.19,0-11.35-2.57-15.31-7.33-2.88-3.45-7.21-5.64-12.05-5.64s-9.17,2.2-12.05,5.64c-3.97,4.75-9.96,7.33-16.15,7.33h-9.38c-1.1,0-2.04.68-2.42,1.64v-13.69h-7.76v5.52H121.92v-106.25h23.4v-4.06h-31.97v4.06h4.51v106.25H48.19v-89.15h17.41v-17.1h14.44v-4.06h-31.85v-48.04h8.54v-7.61h23.31v-10.08h-40.04v187.46h382.43v-1.3c.39.96,1.32,1.64,2.42,1.64h9.22c6.25,0,12.29,2.64,16.27,7.46,2.87,3.49,7.22,5.71,12.1,5.71s9.23-2.23,12.1-5.71c3.98-4.83,9.18-7.46,15.43-7.46h2.67c1.45,0,2.62-1.17,2.62-2.62,0-1.45-1.17-2.62-2.62-2.62ZM44.75,228.93v-8.15h8.54v8.15h-8.54ZM44.86,297.41v-13.04h16.68v13.04h-16.68ZM495.97,264.91v27.96h-8.36v-9.43h-65.18v9.43h-7.96v-8.5h-16.72v-4.46h5.41v-5.8h84.44v-9.2h8.36ZM354.54,144.44v4.08h-104.67v63.76h-121.04v2.54h-7.54v9.84h66.13v22.18h3.89v-22.18h59.95v55.25h-59.95v-3.69h-3.89v8.15h177.39v-4.46h-88.08v-22.25h-17.51v-30.76h48.26v-3.81h-39.03v-63h90.33v63h-21.6v3.78l25.18.02v-63.05h125.23v3.14h8.36v-22.55h-141.43ZM262.15,261.63h10.09v18.28h-10.09v-18.28ZM265.23,223.1h-7.29v-66.62h7.29v66.62Z"></path>
  </g>
  <g>
    <path class=" st5_673753241" d="M495.98,167.69h24.02M495.98,230.24h24.02M495.98,291.45h24.02M495.98,341.73h24.02"></path>
    <path class=" st5_673753241" d="M495.97,144.44v226.01c13.27,0,24.03-10.76,24.03-24.03v-201.98h-24.03Z"></path>
  </g>
  <g>
    <g>
      <rect class=" st4_673753241" x="109.76" y="283.65" width="1.9" height="29.76"></rect>
      <rect class=" st4_673753241" x="111.67" y="281.28" width="1.68" height="3.08"></rect>
      <rect class=" st4_673753241" x="80.04" y="281.28" width="1.68" height="3.08"></rect>
      <path class=" st5_673753241" d="M109.76,313.41c-16.31,0-28.05-16.92-28.05-28.94"></path>
    </g>
    <g>
      <rect class=" st5_673753241" x="190.68" y="273.06" width="26.25" height="1.68"></rect>
      <rect class=" st5_673753241" x="188.59" y="274.74" width="2.72" height="1.48"></rect>
      <rect class=" st5_673753241" x="188.59" y="246.84" width="2.72" height="1.48"></rect>
      <path class=" st5_673753241" d="M216.93,273.06c0-14.39-14.92-24.74-25.53-24.74"></path>
    </g>
    <g>
      <rect class=" st3_673753241" x="308.98" y="197.2" width="1.7" height="26.54"></rect>
      <rect class=" st3_673753241" x="307.49" y="223.1" width="1.49" height="2.75"></rect>
      <rect class=" st3_673753241" x="335.7" y="223.1" width="1.49" height="2.75"></rect>
      <path class=" st5_673753241" d="M310.68,197.2c14.55,0,25.01,15.08,25.01,25.81"></path>
    </g>
    <g>
      <rect class=" st3_673753241" x="82.11" y="223.77" width="2.36" height="36.86"></rect>
      <rect class=" st3_673753241" x="80.04" y="220.84" width="2.08" height="3.82"></rect>
      <rect class=" st3_673753241" x="119.21" y="220.84" width="2.08" height="3.82"></rect>
      <path class=" st5_673753241" d="M84.47,260.63c20.2,0,34.74-20.95,34.74-35.85"></path>
    </g>
    <g>
      <rect class=" st3_673753241" x="366.47" y="251.19" width="1.88" height="29.44"></rect>
      <rect class=" st3_673753241" x="364.81" y="279.91" width="1.66" height="3.05"></rect>
      <rect class=" st3_673753241" x="396.1" y="279.91" width="1.66" height="3.05"></rect>
      <path class=" st5_673753241" d="M368.35,251.18c16.13,0,27.74,16.73,27.74,28.63"></path>
    </g>
    <rect class=" st5_673753241" x="412.47" y="382.27" width="9.84" height="2.83"></rect>
    <rect class=" st5_673753241" x="412.47" y="292.87" width="9.84" height="2.83"></rect>
    <rect class=" st5_673753241" x="418.75" y="339.86" width="1.78" height="42.41"></rect>
    <rect class=" st5_673753241" x="420.53" y="295.69" width="1.78" height="44.17"></rect>
  </g>
  <g>
    <polygon class=" st16_673753241" points="109.72 201.97 109.28 201.97 100.84 212.55 101.64 188.88 101.64 188.36 99.68 188.36 99.68 188.88 100.49 212.55 92.05 201.97 91.61 201.97 91.61 204.55 100.64 213.62 109.72 204.55 109.72 201.97"></polygon>
  </g>
  <g>
    <g>
      <path class=" st18_673753241" d="M409.21,249.99v6.3h-.95v-5l-.85.55-.45-.75,1.6-1.1h.65Z"></path>
      <path class=" st18_673753241" d="M412.54,256.34c-.31,0-.6-.05-.87-.16s-.5-.26-.7-.46c-.2-.2-.35-.43-.47-.69s-.17-.54-.17-.84c0-.19.03-.37.1-.56.06-.19.13-.35.21-.5.09-.17.19-.34.3-.49l1.75-2.65h1.05l-1.4,2.1s.07-.01.12-.02c.03,0,.07-.01.12-.02.05,0,.1,0,.15,0,.26,0,.51.05.76.16.24.11.45.26.64.46.18.2.33.43.44.69s.17.54.17.84-.06.58-.17.84-.27.49-.47.69c-.2.2-.43.35-.7.46s-.56.16-.87.16ZM411.29,254.19c0,.19.03.36.1.52.06.16.15.3.27.41s.25.2.4.27.32.1.49.1.33-.03.49-.1.29-.16.4-.27.2-.25.27-.41c.06-.16.1-.33.1-.52s-.03-.36-.1-.52c-.06-.16-.15-.3-.27-.41s-.25-.2-.4-.27-.32-.1-.49-.1-.33.03-.49.1-.29.16-.4.27-.2.25-.27.41c-.07.16-.1.34-.1.52Z"></path>
      <path class=" st18_673753241" d="M415.97,255.24c.15,0,.28.06.39.17s.16.26.16.43c0,.25-.04.47-.12.64-.08.18-.18.32-.28.43-.12.13-.25.24-.4.32l-.15-.2c.07-.05.13-.11.19-.18.05-.06.1-.13.15-.22s.08-.19.11-.3c-.17,0-.32-.05-.43-.16s-.17-.24-.17-.39.05-.28.16-.39.24-.16.39-.16Z"></path>
      <path class=" st18_673753241" d="M419.35,249.99v6.3h-.95v-5l-.85.55-.45-.75,1.6-1.1h.65Z"></path>
    </g>
    <g>
      <path class=" st18_673753241" d="M253.72,308.77v6.3h-.95v-5l-.85.55-.45-.75,1.6-1.1h.65Z"></path>
      <path class=" st18_673753241" d="M258.85,308.77v.65l-2.6,5.65h-1l2.5-5.4h-2.85v-.9h3.95Z"></path>
      <path class=" st18_673753241" d="M260.02,314.02c.15,0,.28.06.39.17s.16.26.16.43c0,.25-.04.47-.12.64s-.17.32-.28.43c-.12.13-.25.24-.4.32l-.15-.2c.07-.05.13-.11.19-.18.05-.06.1-.13.15-.22s.08-.19.11-.3c-.17,0-.32-.05-.43-.16-.11-.11-.17-.23-.17-.39s.05-.28.16-.39.24-.16.39-.16Z"></path>
      <path class=" st18_673753241" d="M261.3,310.47c.01-.24.07-.47.17-.68.1-.21.24-.4.42-.55s.39-.29.64-.38c.25-.09.52-.14.82-.14.29,0,.55.05.79.14.24.1.45.23.64.39s.32.35.42.56c.1.21.15.43.15.66s-.04.42-.12.59-.17.3-.28.4c-.12.12-.25.22-.4.31.19.09.35.2.5.34.13.12.24.28.34.48.1.2.15.44.15.73,0,.24-.05.47-.15.68s-.25.4-.43.57c-.19.17-.41.3-.68.4-.26.1-.56.15-.88.15s-.62-.05-.88-.14c-.26-.09-.48-.22-.67-.38s-.33-.34-.43-.55c-.1-.21-.16-.43-.18-.68h.95c.01.11.05.22.11.33.06.11.14.2.24.29.1.09.23.15.37.2.14.05.3.08.48.08.38,0,.68-.1.89-.29.21-.19.32-.43.32-.71s-.11-.52-.32-.71-.51-.29-.88-.29h-.45v-.85h.4c.33,0,.58-.09.77-.26s.28-.39.28-.64c0-.28-.09-.51-.28-.68s-.44-.26-.77-.26-.58.09-.78.26-.3.39-.33.64h-.95Z"></path>
    </g>
    <g>
      <path class=" st18_673753241" d="M174.42,306.39c-.33,0-.62-.05-.88-.15-.26-.1-.49-.23-.68-.4-.19-.17-.33-.36-.44-.59-.1-.22-.16-.46-.16-.72,0-.3.05-.55.16-.76.1-.2.22-.37.35-.49.15-.15.31-.26.5-.35-.14-.09-.27-.19-.38-.31-.09-.11-.18-.24-.25-.39s-.11-.33-.11-.55c0-.23.05-.44.14-.65.09-.2.22-.38.39-.54s.37-.28.6-.37c.23-.09.49-.14.76-.14s.53.05.76.14c.23.09.43.22.6.37s.3.34.4.54c.09.2.14.42.14.65,0,.21-.04.4-.12.55-.08.15-.17.28-.26.39-.11.12-.24.23-.37.31.19.09.35.2.5.35.13.13.24.29.34.49.1.2.15.45.15.76,0,.25-.05.49-.15.72-.1.22-.25.42-.43.59-.19.17-.41.3-.68.4-.26.1-.56.15-.88.15ZM174.42,303.44c-.38,0-.68.1-.89.3-.21.2-.32.45-.32.75s.1.55.32.75c.21.2.51.3.89.3s.68-.1.89-.3c.21-.2.32-.45.32-.75s-.1-.55-.32-.75c-.21-.2-.51-.3-.89-.3ZM174.42,302.59c.28,0,.51-.08.68-.25s.26-.37.26-.6c0-.25-.09-.47-.26-.64s-.4-.26-.68-.26-.51.09-.69.26-.27.39-.27.64c0,.23.09.43.27.6s.41.25.69.25Z"></path>
      <path class=" st18_673753241" d="M177.8,305.29c.15,0,.28.06.39.17s.16.26.16.43c0,.25-.04.47-.12.64s-.18.32-.28.43c-.12.13-.25.24-.4.32l-.15-.2c.07-.05.13-.11.19-.18.05-.06.1-.13.15-.22s.08-.19.11-.3c-.17,0-.32-.05-.43-.16-.11-.11-.17-.23-.17-.39s.05-.28.16-.39.24-.16.39-.16Z"></path>
      <path class=" st18_673753241" d="M181.23,299.99c.31,0,.6.05.87.16.27.11.5.26.7.46.2.2.35.42.47.69s.17.54.17.84c0,.19-.03.38-.1.56s-.13.35-.21.49c-.09.17-.19.33-.3.49l-1.75,2.65h-1.05l1.4-2.1s-.07.02-.11.03c-.03,0-.07.01-.12.02s-.1,0-.16,0c-.26,0-.51-.05-.75-.16-.24-.11-.46-.26-.64-.46-.18-.2-.33-.42-.44-.69s-.17-.54-.17-.84.06-.58.17-.84.27-.49.47-.69c.2-.2.43-.35.7-.46.27-.11.56-.16.87-.16ZM182.48,302.14c0-.19-.03-.36-.1-.52-.06-.16-.15-.3-.27-.41-.11-.11-.25-.2-.4-.27-.15-.07-.32-.1-.49-.1s-.34.03-.49.1c-.15.07-.29.16-.4.27-.11.11-.2.25-.27.41s-.1.33-.1.52.03.36.1.52.15.3.27.41.25.2.4.27c.15.07.32.1.49.1s.34-.03.49-.1c.15-.07.29-.16.4-.27s.2-.25.27-.41.1-.33.1-.52Z"></path>
    </g>
    <g>
      <path class=" st18_673753241" d="M132.1,249.99v.65l-2.6,5.65h-1l2.5-5.4h-2.85v-.9h3.95Z"></path>
      <path class=" st18_673753241" d="M133.28,255.24c.15,0,.28.06.39.17s.16.26.16.43c0,.25-.04.47-.12.64s-.18.32-.28.43c-.12.13-.25.24-.4.32l-.15-.2c.07-.05.13-.11.19-.18.05-.06.1-.13.15-.22s.08-.19.11-.3c-.17,0-.32-.05-.43-.16s-.17-.24-.17-.39.05-.28.16-.39.24-.16.39-.16Z"></path>
      <path class=" st18_673753241" d="M139.56,253.14c0,.51-.07.97-.2,1.37s-.32.73-.55,1-.5.48-.8.62c-.3.14-.62.21-.96.21s-.66-.07-.96-.21-.57-.35-.8-.62-.41-.61-.54-1-.2-.85-.2-1.37.07-.97.2-1.37.32-.73.54-1,.49-.48.79-.62.62-.21.96-.21.66.07.96.21.57.35.8.62.41.61.55,1,.2.85.2,1.37ZM138.61,253.14c0-.39-.04-.73-.13-1.02s-.21-.54-.35-.74-.31-.35-.5-.44-.37-.15-.56-.15-.37.05-.56.15-.35.25-.5.44-.26.44-.36.74-.14.63-.14,1.02.04.73.14,1.02.21.54.36.74.31.35.5.44.37.15.56.15.37-.05.56-.15.35-.25.5-.44.26-.44.35-.74.13-.63.13-1.02Z"></path>
    </g>
    <g>
      <path class=" st18_673753241" d="M90.13,335.78c-.31,0-.6-.05-.87-.16-.27-.11-.5-.26-.7-.46-.2-.2-.35-.42-.47-.69s-.17-.54-.17-.84c0-.19.03-.37.1-.56.06-.19.13-.35.21-.5.09-.17.19-.34.3-.49l1.75-2.65h1.05l-1.4,2.1s.07-.01.12-.02c.03,0,.07-.01.12-.02s.1-.01.15-.01c.26,0,.51.05.75.16.24.11.46.26.64.46.18.2.33.42.44.69s.17.54.17.84-.06.58-.17.84-.27.49-.47.69c-.2.2-.43.35-.7.46-.27.11-.56.16-.87.16ZM88.88,333.64c0,.19.03.36.1.52.06.16.15.3.27.41.11.11.25.2.4.27.15.07.32.1.49.1s.33-.03.49-.1c.15-.07.29-.16.4-.27.11-.11.2-.25.27-.41.06-.16.1-.33.1-.52s-.03-.36-.1-.52c-.06-.16-.15-.3-.27-.41-.11-.11-.25-.2-.4-.27-.15-.07-.32-.1-.49-.1s-.33.03-.49.1c-.15.07-.29.16-.4.27-.11.11-.2.25-.27.41-.06.16-.1.33-.1.52Z"></path>
      <path class=" st18_673753241" d="M93.56,334.68c.15,0,.28.06.39.17s.16.26.16.43c0,.25-.04.47-.12.64s-.18.32-.28.43c-.12.13-.25.24-.4.32l-.15-.2c.07-.05.13-.11.19-.18.05-.06.1-.13.15-.22s.08-.19.11-.3c-.17,0-.32-.05-.43-.16-.11-.11-.17-.23-.17-.39s.05-.28.16-.39.24-.16.39-.16Z"></path>
      <path class=" st18_673753241" d="M96.94,329.44v6.3h-.95v-5l-.85.55-.45-.75,1.6-1.1h.65Z"></path>
    </g>
    <g>
      <path class=" st18_673753241" d="M214.48,250.67c.01-.24.07-.47.17-.68s.24-.4.42-.55.39-.29.63-.38.52-.14.82-.14c.29,0,.55.05.79.14s.45.23.63.39.32.35.42.56.15.43.15.66-.04.42-.12.59-.18.3-.28.4c-.12.12-.25.22-.4.31.19.09.35.2.5.34.13.12.24.28.34.48s.15.44.15.73c0,.24-.05.47-.15.68s-.25.4-.43.57-.41.3-.68.4-.56.15-.88.15-.62-.05-.88-.14-.48-.22-.67-.38-.33-.34-.43-.55-.16-.44-.18-.68h.95c.01.11.05.22.11.33s.14.2.24.29.23.15.37.21.3.08.48.08c.38,0,.68-.1.89-.29s.32-.43.32-.71-.11-.52-.32-.71-.51-.29-.88-.29h-.45v-.85h.4c.33,0,.58-.09.77-.26s.28-.39.28-.64c0-.28-.09-.51-.28-.68s-.44-.26-.77-.26-.58.09-.78.26-.3.39-.33.64h-.95Z"></path>
      <path class=" st18_673753241" d="M220,254.22c.15,0,.28.06.39.17s.16.26.16.43c0,.25-.04.47-.12.65s-.18.32-.28.43c-.12.13-.25.24-.4.32l-.15-.2c.07-.04.13-.11.19-.18.05-.06.1-.13.15-.22s.08-.19.11-.3c-.17,0-.32-.05-.43-.16s-.17-.24-.17-.39.05-.28.16-.39.24-.16.39-.16Z"></path>
      <path class=" st18_673753241" d="M221.29,250.67c.01-.24.07-.47.17-.68s.24-.4.42-.55.39-.29.63-.38.52-.14.82-.14c.29,0,.55.05.79.14s.45.23.63.39.32.35.42.56.15.43.15.66-.04.42-.12.59-.18.3-.28.4c-.12.12-.25.22-.4.31.19.09.35.2.5.34.13.12.24.28.34.48s.15.44.15.73c0,.24-.05.47-.15.68s-.25.4-.43.57-.41.3-.68.4-.56.15-.88.15-.62-.05-.88-.14-.48-.22-.67-.38-.33-.34-.43-.55-.16-.44-.18-.68h.95c.01.11.05.22.11.33s.14.2.24.29.23.15.37.21.3.08.48.08c.38,0,.68-.1.89-.29s.32-.43.32-.71-.11-.52-.32-.71-.51-.29-.88-.29h-.45v-.85h.4c.33,0,.58-.09.77-.26s.28-.39.28-.64c0-.28-.09-.51-.28-.68s-.44-.26-.77-.26-.58.09-.78.26-.3.39-.33.64h-.95Z"></path>
    </g>
    <g>
      <path class=" st18_673753241" d="M309.42,175.32c.29,0,.56.05.82.16s.48.26.67.46c.19.2.34.43.45.69s.17.54.17.84-.06.58-.17.84-.27.49-.47.69c-.2.2-.43.35-.7.46s-.56.16-.87.16-.6-.05-.85-.14-.47-.22-.65-.38-.32-.34-.42-.55-.16-.44-.18-.68h.95c.01.11.05.22.11.33.06.11.14.2.24.29s.22.15.36.21.29.08.44.08c.17,0,.33-.03.49-.1s.29-.16.4-.27.2-.25.27-.41c.06-.16.1-.33.1-.52s-.03-.36-.1-.52c-.06-.16-.15-.3-.27-.41s-.25-.2-.4-.27-.32-.1-.49-.1c-.2,0-.37.04-.52.12-.15.08-.27.17-.36.26-.11.11-.2.24-.27.37h-.8l.4-3.65h3.35v.9h-2.54l-.16,1.5c.08-.06.16-.12.27-.17.09-.04.19-.09.32-.12.12-.04.26-.06.41-.06Z"></path>
      <path class=" st18_673753241" d="M312.8,178.52c.15,0,.28.06.39.17s.16.26.16.43c0,.25-.04.47-.12.65-.08.18-.18.32-.28.43-.12.13-.25.24-.4.32l-.15-.2c.07-.04.13-.11.19-.18.05-.06.1-.13.15-.22s.08-.19.11-.3c-.17,0-.32-.05-.43-.16s-.17-.24-.17-.39.05-.28.16-.39.24-.16.39-.16Z"></path>
      <path class=" st18_673753241" d="M316.33,175.32c.29,0,.56.05.82.16s.48.26.67.46c.19.2.34.43.45.69s.17.54.17.84-.06.58-.17.84-.27.49-.47.69c-.2.2-.43.35-.7.46s-.56.16-.87.16-.6-.05-.85-.14-.47-.22-.65-.38-.32-.34-.42-.55-.16-.44-.18-.68h.95c.01.11.05.22.11.33.06.11.14.2.24.29s.22.15.36.21.29.08.44.08c.17,0,.33-.03.49-.1s.29-.16.4-.27.2-.25.27-.41c.06-.16.1-.33.1-.52s-.03-.36-.1-.52c-.06-.16-.15-.3-.27-.41s-.25-.2-.4-.27-.32-.1-.49-.1c-.2,0-.37.04-.52.12-.15.08-.27.17-.36.26-.11.11-.2.24-.27.37h-.8l.4-3.65h3.35v.9h-2.54l-.16,1.5c.08-.06.16-.12.27-.17.09-.04.19-.09.32-.12.12-.04.26-.06.41-.06Z"></path>
    </g>
    <g>
      <path class=" st18_673753241" d="M444.63,309.69c.29,0,.56.05.82.16.26.11.48.26.67.46.19.2.34.42.45.69s.17.54.17.84-.06.58-.17.84-.27.49-.47.69c-.2.2-.43.35-.7.46-.27.11-.56.16-.87.16s-.6-.05-.85-.14c-.25-.09-.47-.22-.65-.38s-.32-.34-.42-.55c-.1-.21-.16-.43-.18-.68h.95c.01.11.05.22.11.33.06.11.14.2.24.29.1.09.22.15.36.2.14.05.29.08.44.08.17,0,.33-.03.49-.1.15-.07.29-.16.4-.27.11-.11.2-.25.27-.41.06-.16.1-.33.1-.52s-.03-.36-.1-.52c-.06-.16-.15-.3-.27-.41-.11-.11-.25-.2-.4-.27-.15-.07-.32-.1-.49-.1-.2,0-.37.04-.52.12-.15.08-.27.17-.36.26-.11.11-.2.24-.27.37h-.8l.4-3.65h3.35v.9h-2.54l-.16,1.5c.08-.06.16-.11.27-.17.09-.05.19-.09.32-.12.12-.03.26-.05.41-.05Z"></path>
      <path class=" st18_673753241" d="M448.01,312.89c.15,0,.28.06.39.17s.16.26.16.43c0,.25-.04.47-.12.64-.08.18-.18.32-.28.43-.12.13-.25.24-.4.32l-.15-.2c.07-.05.13-.11.19-.18.05-.06.1-.13.15-.22s.08-.19.11-.3c-.17,0-.32-.05-.43-.16-.11-.11-.17-.23-.17-.39s.05-.28.16-.39.24-.16.39-.16Z"></path>
      <path class=" st18_673753241" d="M453.39,313.04v.9h-4.05v-.7l2.5-2.7c.11-.12.21-.24.3-.37.08-.11.14-.24.21-.37.06-.13.1-.27.1-.41,0-.28-.1-.51-.29-.68-.19-.18-.46-.26-.81-.26-.33,0-.59.1-.8.3-.2.2-.31.47-.31.79h-.95c0-.29.05-.55.14-.79.1-.24.23-.45.41-.61.18-.17.39-.3.64-.4.25-.1.54-.14.85-.14s.6.05.85.14c.25.09.47.22.64.39.18.17.31.36.41.59.1.23.14.47.14.73,0,.2-.05.4-.14.6-.09.2-.2.38-.31.53-.13.18-.28.35-.45.52l-1.79,1.95h2.69Z"></path>
      <path class=" st18_673753241" d="M457,315.74h-.85l2.6-8.1h.85l-2.6,8.1Z"></path>
      <path class=" st18_673753241" d="M466.4,313.04v.9h-4.05v-.7l2.5-2.7c.11-.12.21-.24.3-.37.08-.11.14-.24.21-.37.06-.13.1-.27.1-.41,0-.28-.1-.51-.29-.68-.19-.18-.46-.26-.81-.26-.33,0-.59.1-.8.3-.2.2-.31.47-.31.79h-.95c0-.29.05-.55.14-.79.1-.24.23-.45.41-.61.18-.17.39-.3.64-.4.25-.1.54-.14.85-.14s.6.05.85.14c.25.09.47.22.64.39.18.17.31.36.41.59.1.23.14.47.14.73,0,.2-.05.4-.14.6-.09.2-.2.38-.31.53-.13.18-.28.35-.45.52l-1.79,1.95h2.69Z"></path>
      <path class=" st18_673753241" d="M467.73,312.89c.15,0,.28.06.39.17s.16.26.16.43c0,.25-.04.47-.12.64-.08.18-.18.32-.28.43-.12.13-.25.24-.4.32l-.15-.2c.07-.05.13-.11.19-.18.05-.06.1-.13.15-.22s.08-.19.11-.3c-.17,0-.32-.05-.43-.16-.11-.11-.17-.23-.17-.39s.05-.28.16-.39.24-.16.39-.16Z"></path>
      <path class=" st18_673753241" d="M471.16,313.99c-.31,0-.6-.05-.87-.16-.27-.11-.5-.26-.7-.46-.2-.2-.35-.42-.47-.69s-.17-.54-.17-.84c0-.19.03-.37.1-.56.06-.19.13-.35.21-.5.09-.17.19-.34.3-.49l1.75-2.65h1.05l-1.4,2.1s.07-.01.12-.02c.03,0,.07-.01.12-.02.05,0,.1-.01.15-.01.26,0,.51.05.76.16.24.11.45.26.64.46.18.2.33.42.44.69s.17.54.17.84-.06.58-.17.84-.27.49-.47.69c-.2.2-.43.35-.7.46-.27.11-.56.16-.87.16ZM469.91,311.84c0,.19.03.36.1.52.06.16.15.3.27.41.11.11.25.2.4.27.15.07.32.1.49.1s.33-.03.49-.1c.15-.07.29-.16.4-.27.11-.11.2-.25.27-.41.06-.16.1-.33.1-.52s-.03-.36-.1-.52c-.06-.16-.15-.3-.27-.41-.11-.11-.25-.2-.4-.27-.15-.07-.32-.1-.49-.1s-.33.03-.49.1c-.15.07-.29.16-.4.27-.11.11-.2.25-.27.41-.07.16-.1.33-.1.52Z"></path>
      <path class=" st18_673753241" d="M474.94,309.24l-1-.25.2-.65.95.35-.05-1.05h.7l-.05,1.05.95-.35.2.65-1,.25.65.8-.6.4-.5-.85-.5.85-.6-.4.65-.8Z"></path>
    </g>
  </g>
</svg></svg>