<svg xmlns="http://www.w3.org/2000/svg" version="1.1" xmlns:xlink="http://www.w3.org/1999/xlink"><svg data-name="Слой_1" xmlns="http://www.w3.org/2000/svg" xmlns:xlink="http://www.w3.org/1999/xlink" version="1.1" viewBox="0 0 560 560">
  
  <defs>
    <style>
      .st0_1436670229, .st1_1436670229, .st2_1436670229, .st3_1436670229, .st4_1436670229, .st5_1436670229, .st6_1436670229 {
        fill: none;
      }

      .st1_1436670229, .st2_1436670229, .st3_1436670229, .st4_1436670229, .st5_1436670229, .st7_1436670229, .st8_1436670229, .st9_1436670229, .st10_1436670229, .st11_1436670229, .st12_1436670229, .st13_1436670229, .st14_1436670229, .st15_1436670229, .st6_1436670229, .st16_1436670229, .st17_1436670229 {
        stroke-linecap: round;
        stroke-linejoin: round;
      }

      .st1_1436670229, .st5_1436670229, .st8_1436670229, .st9_1436670229, .st6_1436670229, .st16_1436670229, .st17_1436670229 {
        stroke-width: .5px;
      }

      .st1_1436670229, .st8_1436670229 {
        stroke: #d8cbb5;
      }

      .st2_1436670229 {
        stroke-width: .25px;
      }

      .st2_1436670229, .st3_1436670229, .st4_1436670229, .st5_1436670229, .st7_1436670229, .st9_1436670229, .st10_1436670229, .st11_1436670229, .st12_1436670229, .st13_1436670229, .st14_1436670229, .st15_1436670229, .st6_1436670229, .st17_1436670229 {
        stroke: #1b4732;
      }

      .st3_1436670229 {
        stroke-width: .5px;
      }

      .st4_1436670229 {
        stroke-width: .5px;
      }

      .st7_1436670229 {
        fill: #fff;
        stroke-width: .5px;
      }

      .st8_1436670229 {
        fill: url(#_Терраса);
      }

      .st18_1436670229 {
        fill: #1b4732;
      }

      .st9_1436670229, .st10_1436670229, .st11_1436670229, .st12_1436670229, .st13_1436670229, .st14_1436670229, .st15_1436670229 {
        fill: #f5e8d1;
      }

      .st10_1436670229 {
        stroke-width: .5px;
      }

      .st11_1436670229 {
        stroke-width: .5px;
      }

      .st12_1436670229 {
        stroke-width: .5px;
      }

      .st13_1436670229 {
        stroke-width: .5px;
      }

      .st14_1436670229 {
        stroke-width: .5px;
      }

      .st15_1436670229 {
        stroke-width: .5px;
      }

      .st6_1436670229 {
        stroke-dasharray: 3;
      }

      .st16_1436670229 {
        fill: #666c35;
        stroke: #666c35;
      }

      .st17_1436670229 {
        fill: #e1d1b6;
      }
    </style>
    <pattern data-name="Терраса" x="0" y="0" width="10.1" height="8.7" patternTransform="translate(-8 -15304) scale(1 -1)" patternUnits="userSpaceOnUse" viewBox="0 0 10.1 8.7">
      <g>
        <rect class=" st0_1436670229" width="10.1" height="8.7"></rect>
        <g>
          <rect class=" st0_1436670229" width="10.1" height="8.7"></rect>
          <g>
            <line class=" st1_1436670229" x1="10.15" y1="6.4" x2="20.15" y2="6.4"></line>
            <line class=" st1_1436670229" x1="10.15" y1="2.3" x2="20.15" y2="2.3"></line>
          </g>
          <g>
            <line class=" st1_1436670229" x1=".05" y1="6.4" x2="10.05" y2="6.4"></line>
            <line class=" st1_1436670229" x1=".05" y1="2.3" x2="10.05" y2="2.3"></line>
          </g>
          <g>
            <line class=" st1_1436670229" x1="-10.05" y1="6.4" x2="-.05" y2="6.4"></line>
            <line class=" st1_1436670229" x1="-10.05" y1="2.3" x2="-.05" y2="2.3"></line>
          </g>
        </g>
      </g>
    </pattern>
  </defs>
  <g>
    <line class=" st6_1436670229" x1="191.58" y1="274.73" x2="191.58" y2="216.19"></line>
    <line class=" st6_1436670229" x1="187.78" y1="424.27" x2="187.78" y2="392.73"></line>
  </g>
  <g>
    <rect class=" st8_1436670229" x="414.11" y="182.53" width="63.44" height="196.34"></rect>
  </g>
  <g>
    <rect class=" st5_1436670229" x="475.64" y="122.26" width="7.88" height="28.58"></rect>
    <rect class=" st5_1436670229" x="475.64" y="95.89" width="7.88" height="23.71"></rect>
    <rect class=" st5_1436670229" x="475.64" y="63.23" width="7.88" height="30"></rect>
    <rect class=" st5_1436670229" x="475.64" y="467.26" width="7.88" height="29.31"></rect>
    <rect class=" st5_1436670229" x="475.64" y="440.15" width="7.88" height="24.45"></rect>
    <rect class=" st5_1436670229" x="475.64" y="378.87" width="7.88" height="58.63"></rect>
    <rect class=" st5_1436670229" x="475.64" y="60.57" width="7.88" height="2.66"></rect>
    <rect class=" st5_1436670229" x="475.64" y="93.23" width="7.88" height="2.66"></rect>
    <rect class=" st5_1436670229" x="475.64" y="119.61" width="7.88" height="2.66"></rect>
    <rect class=" st5_1436670229" x="475.64" y="150.84" width="7.88" height="2.68"></rect>
    <rect class=" st5_1436670229" x="475.64" y="179.87" width="7.89" height="2.66"></rect>
    <rect class=" st5_1436670229" x="475.64" y="378.86" width="7.89" height="2.66"></rect>
    <rect class=" st5_1436670229" x="475.64" y="405.8" width="7.89" height="2.66"></rect>
    <rect class=" st5_1436670229" x="475.64" y="437.49" width="7.88" height="2.66"></rect>
    <rect class=" st5_1436670229" x="475.64" y="496.57" width="7.88" height="2.66"></rect>
    <rect class=" st5_1436670229" x="477.55" y="182.53" width="5.98" height="196.33"></rect>
    <rect class=" st5_1436670229" x="482.19" y="63.23" width="1.33" height="30"></rect>
    <rect class=" st5_1436670229" x="482.19" y="95.89" width="1.33" height="23.71"></rect>
    <rect class=" st5_1436670229" x="482.19" y="122.26" width="1.33" height="28.58"></rect>
    <rect class=" st5_1436670229" x="482.19" y="408.47" width="1.33" height="29.03"></rect>
    <rect class=" st5_1436670229" x="475.64" y="464.6" width="7.88" height="2.66"></rect>
    <rect class=" st5_1436670229" x="482.19" y="440.15" width="1.33" height="24.45"></rect>
    <rect class=" st5_1436670229" x="482.19" y="467.26" width="1.33" height="29.31"></rect>
  </g>
  <g>
    <rect class=" st7_1436670229" x="471.54" y="96.99" width="1.12" height="23.13" transform="translate(-12.01 125.88) rotate(-15)"></rect>
    <rect class=" st7_1436670229" x="460.51" y="450.74" width="23.13" height="1.12" transform="translate(-86.02 790.5) rotate(-75)"></rect>
  </g>
  <g>
    <path class=" st2_1436670229" d="M465.11,61.85h10.77v97.1h-10.77V61.85ZM465.11,67.56h10.53M465.11,73.21h10.53M465.11,78.86h10.53M465.11,84.52h10.53M465.11,90.17h10.53M465.11,95.83h10.53M465.11,101.48h10.53M465.11,107.14h10.53M465.11,112.79h10.53M465.11,118.45h10.53M465.11,124.1h10.53M465.11,129.76h10.53M465.11,135.41h10.53M465.11,141.07h10.53M465.11,146.72h10.53M465.11,152.38h10.53M394.07,293.18h10.77v94.72h-10.77v-94.72ZM394.19,299.68h10.53M394.19,305.52h10.53M394.19,311.37h10.53M394.19,317.21h10.53M394.19,323.05h10.53M394.19,328.9h10.53M394.19,334.74h10.53M394.19,340.58h10.53M394.19,346.43h10.53M394.19,352.27h10.53M394.19,358.12h10.53M394.19,363.96h10.53M394.19,369.8h10.53M394.19,375.65h10.53M394.19,381.49h10.53M394.07,176.31h10.77v90.47h-10.77v-90.47ZM394.19,181.96h10.53M394.19,187.62h10.53M394.19,193.27h10.53M394.19,198.93h10.53M394.19,204.58h10.53M394.19,210.24h10.53M394.19,215.89h10.53M394.19,221.55h10.53M394.19,227.2h10.53M394.19,232.86h10.53M394.19,238.51h10.53M394.19,244.16h10.53M394.19,249.82h10.53M394.19,255.47h10.53M394.19,261.13h10.53M394.07,266.78h10.77v26.4h-10.77v-26.4ZM394.19,273.38h10.53M394.19,279.98h10.53M394.19,286.58h10.53M475.64,496.32h-10.77v-92.4h10.77v92.4ZM464.87,414.42h10.77M464.87,420.25h10.77M464.87,426.08h10.77M464.87,431.9h10.77M464.87,437.73h10.77M464.87,443.56h10.77M464.87,449.39h10.77M464.87,455.22h10.77M464.87,461.05h10.77M464.87,466.88h10.77M464.87,472.7h10.77M464.87,478.53h10.77M464.87,484.36h10.77M464.87,490.19h10.77M464.87,409.21h10.77"></path>
  </g>
  <g>
    <g>
      <path class=" st9_1436670229" d="M269.13,76.41h3.38c.28,0,.5-.22.5-.5v-8.32c0-.28-.22-.5-.5-.5h-3.38v9.32Z"></path>
      <rect class=" st9_1436670229" x="273.02" y="73.08" width="1.65" height="2.79"></rect>
      <ellipse class=" st9_1436670229" cx="284.23" cy="71.75" rx="4.22" ry="4.33"></ellipse>
      <line class=" st5_1436670229" x1="269.13" y1="71.75" x2="284.23" y2="71.75"></line>
    </g>
    <rect class=" st15_1436670229" x="269.13" y="86.52" width="26.83" height="1.25"></rect>
    <rect class=" st9_1436670229" x="61.55" y="322.73" width="28.75" height="1.25"></rect>
    <polygon class=" st9_1436670229" points="91.1 322.73 90.21 323.61 107.79 340.94 108.68 340.06 91.1 322.73"></polygon>
    <polygon class=" st9_1436670229" points="98.95 303.52 98.07 304.4 115.65 321.73 116.53 320.85 98.95 303.52"></polygon>
    <rect class=" st9_1436670229" x="98.07" y="290.23" width="1.25" height="14.17"></rect>
    <rect class=" st14_1436670229" x="82.21" y="169.7" width="20.69" height="20.69"></rect>
    <circle class=" st9_1436670229" cx="431.23" cy="339.78" r="7.94"></circle>
    <g>
      <rect class=" st9_1436670229" x="414.11" y="354.16" width="63.44" height="24.48"></rect>
      <rect class=" st9_1436670229" x="414.11" y="362" width="4.6" height="12.17"></rect>
      <rect class=" st9_1436670229" x="418.71" y="374.17" width="45.1" height="4.47"></rect>
    </g>
    <g>
      <rect class=" st11_1436670229" x="267.49" y="214.91" width="81.58" height="33.55"></rect>
      <g>
        <path class=" st9_1436670229" d="M342.76,202.92v11.99h-15.74v-11.99c0-1.1.89-2,2-2h11.74c1.11,0,2,.9,2,2Z"></path>
        <path class=" st9_1436670229" d="M342.76,206.74v8.17h-15.74v-8.17c0-1.1.89-2,2-2h11.74c1.11,0,2,.9,2,2Z"></path>
      </g>
      <g>
        <path class=" st9_1436670229" d="M316.15,202.92v11.99h-15.74v-11.99c0-1.1.89-2,2-2h11.74c1.1,0,2,.9,2,2Z"></path>
        <path class=" st9_1436670229" d="M316.15,206.74v8.17h-15.74v-8.17c0-1.1.89-2,2-2h11.74c1.1,0,2,.9,2,2Z"></path>
      </g>
      <g>
        <path class=" st9_1436670229" d="M289.53,202.92v11.99h-15.74v-11.99c0-1.1.89-2,2-2h11.74c1.1,0,2,.9,2,2Z"></path>
        <path class=" st9_1436670229" d="M289.53,206.74v8.17h-15.74v-8.17c0-1.1.89-2,2-2h11.74c1.1,0,2,.9,2,2Z"></path>
      </g>
      <g>
        <path class=" st9_1436670229" d="M342.76,260.45v-11.99h-15.74v11.99c0,1.11.89,2,2,2h11.74c1.11,0,2-.89,2-2Z"></path>
        <path class=" st9_1436670229" d="M342.76,256.63v-8.17h-15.74v8.17c0,1.11.89,2,2,2h11.74c1.11,0,2-.9,2-2Z"></path>
      </g>
      <g>
        <path class=" st9_1436670229" d="M316.15,260.45v-11.99h-15.74v11.99c0,1.11.89,2,2,2h11.74c1.1,0,2-.89,2-2Z"></path>
        <path class=" st9_1436670229" d="M316.15,256.63v-8.17h-15.74v8.17c0,1.11.89,2,2,2h11.74c1.1,0,2-.9,2-2Z"></path>
      </g>
      <g>
        <path class=" st9_1436670229" d="M289.53,260.45v-11.99h-15.74v11.99c0,1.11.89,2,2,2h11.74c1.1,0,2-.89,2-2Z"></path>
        <path class=" st9_1436670229" d="M289.53,256.63v-8.17h-15.74v8.17c0,1.11.89,2,2,2h11.74c1.1,0,2-.9,2-2Z"></path>
      </g>
    </g>
    <g>
      <path class=" st9_1436670229" d="M427.02,243.59l6.83,6.83c.78.78,2.05.78,2.83,0l33.22-33.22c.78-.78.78-2.05,0-2.83l-6.83-6.83c-.78-.78-2.05-.78-2.83,0l-33.22,33.22c-.78.78-.78,2.05,0,2.83Z"></path>
      <path class=" st9_1436670229" d="M429.65,240.95l6.83,6.83c.78.78,2.05.78,2.83,0l27.94-27.94c.78-.78.78-2.05,0-2.83l-6.83-6.83c-.78-.78-2.05-.78-2.83,0l-27.94,27.94c-.78.78-.78,2.05,0,2.83Z"></path>
      <path class=" st9_1436670229" d="M433.85,207.54l-6.83,6.83c-.78.78-.78,2.05,0,2.83l33.22,33.22c.78.78,2.05.78,2.83,0l6.83-6.83c.78-.78.78-2.05,0-2.83l-33.22-33.22c-.78-.78-2.05-.78-2.83,0Z"></path>
      <path class=" st9_1436670229" d="M436.49,210.18l-6.83,6.83c-.78.78-.78,2.05,0,2.83l27.94,27.94c.78.78,2.05.78,2.83,0l6.83-6.83c.78-.78.78-2.05,0-2.83l-27.94-27.94c-.78-.78-2.05-.78-2.83,0Z"></path>
      <circle class=" st9_1436670229" cx="448.45" cy="228.98" r="15.28"></circle>
    </g>
    <g>
      <path class=" st9_1436670229" d="M185.13,131.6h15.26c.55,0,1-.45,1-1v-10.1c0-.55-.45-1-1-1h-15.26c-.55,0-1,.45-1,1v10.1c0,.55.45,1,1,1Z"></path>
      <g>
        <line class=" st5_1436670229" x1="187.32" y1="121.31" x2="189.77" y2="123.76"></line>
        <line class=" st5_1436670229" x1="187.32" y1="123.76" x2="189.77" y2="121.31"></line>
        <line class=" st5_1436670229" x1="196.13" y1="121.31" x2="198.59" y2="123.76"></line>
        <line class=" st5_1436670229" x1="196.13" y1="123.76" x2="198.59" y2="121.31"></line>
        <line class=" st5_1436670229" x1="196.13" y1="127.34" x2="198.59" y2="129.79"></line>
        <line class=" st5_1436670229" x1="196.13" y1="129.79" x2="198.59" y2="127.34"></line>
        <line class=" st5_1436670229" x1="189.77" y1="127.34" x2="187.32" y2="129.79"></line>
        <line class=" st5_1436670229" x1="187.32" y1="127.34" x2="189.77" y2="129.79"></line>
      </g>
    </g>
    <circle class=" st9_1436670229" cx="446.52" cy="450.43" r="10.21"></circle>
    <g>
      <path class=" st9_1436670229" d="M458.77,414.68l-13.98-11.96c-1.76-1.51-4.42-1.3-5.92.46l-11.21,13.1c-.14.16-.12.4.04.54l20.09,17.2c.16.14.4.12.54-.04l10.94-12.79c1.66-1.94,1.43-4.85-.5-6.51Z"></path>
      <path class=" st9_1436670229" d="M454.42,416.64l-9.89-8.46c-1.49-1.28-3.74-1.11-5.02.39l-10.71,12.52c-.32.37-.28.94.1,1.26l13.27,11.36c.37.32.94.28,1.26-.1l11.29-13.19c.96-1.12.83-2.81-.29-3.77Z"></path>
      <path class=" st9_1436670229" d="M448.5,424.14l-4.19-10.22c-.11-.26.02-.55.27-.65l5.53-2.27c.26-.11.55.02.65.27l4.19,10.22c.11.26-.02.55-.27.65l-5.53,2.27c-.26.1-.55-.02-.65-.27Z"></path>
    </g>
    <g>
      <path class=" st9_1436670229" d="M458.5,486.06l-14.35,11.51c-1.81,1.45-4.45,1.16-5.91-.65l-10.79-13.45c-.13-.17-.11-.41.06-.54l20.63-16.55c.17-.13.41-.11.54.06l10.53,13.13c1.6,1.99,1.28,4.89-.71,6.49Z"></path>
      <path class=" st9_1436670229" d="M454.2,483.97l-10.15,8.14c-1.54,1.23-3.78.98-5.01-.55l-10.31-12.85c-.31-.38-.25-.94.14-1.25l13.62-10.93c.38-.31.94-.25,1.25.14l10.87,13.55c.92,1.15.74,2.83-.41,3.76Z"></path>
      <path class=" st9_1436670229" d="M448.53,476.28l-4.51,10.08c-.11.25,0,.55.25.66l5.45,2.44c.25.11.55,0,.66-.25l4.51-10.08c.11-.25,0-.55-.25-.66l-5.45-2.44c-.25-.11-.55,0-.66.25Z"></path>
    </g>
    <g>
      <rect class=" st9_1436670229" x="102.91" y="169.7" width="20.85" height="20.73"></rect>
      <rect class=" st9_1436670229" x="105.69" y="172.33" width="4.84" height="3.45"></rect>
      <rect class=" st9_1436670229" x="105.7" y="167.88" width="14.97" height="1.83"></rect>
    </g>
    <rect class=" st9_1436670229" x="107.58" y="290.23" width="46.08" height="17.06"></rect>
    <g>
      <path class=" st9_1436670229" d="M110.53,304.03v-9.22h17.43v9.22c0,.55-.45,1-1,1h-15.43c-.55,0-1-.45-1-1Z"></path>
      <rect class=" st9_1436670229" x="110.53" y="293.47" width="17.43" height="1.34"></rect>
      <rect class=" st9_1436670229" x="118.4" y="291.46" width="1.68" height="5.12"></rect>
      <circle class=" st9_1436670229" cx="119.24" cy="299.3" r="1.19"></circle>
    </g>
    <g>
      <path class=" st9_1436670229" d="M133.38,304.03v-9.22h17.43v9.22c0,.55-.45,1-1,1h-15.43c-.55,0-1-.45-1-1Z"></path>
      <rect class=" st9_1436670229" x="133.38" y="293.47" width="17.43" height="1.34"></rect>
      <rect class=" st9_1436670229" x="141.26" y="291.46" width="1.68" height="5.12"></rect>
      <circle class=" st9_1436670229" cx="142.1" cy="299.3" r="1.19"></circle>
    </g>
    <rect class=" st12_1436670229" x="82.6" y="115.6" width="35.99" height="17.06"></rect>
    <g>
      <path class=" st9_1436670229" d="M91.5,129.48v-9.22h17.43v9.22c0,.55-.45,1-1,1h-15.43c-.55,0-1-.45-1-1Z"></path>
      <rect class=" st12_1436670229" x="91.5" y="118.92" width="17.43" height="1.34"></rect>
      <rect class=" st12_1436670229" x="99.37" y="116.91" width="1.68" height="5.12"></rect>
      <circle class=" st9_1436670229" cx="100.21" cy="124.75" r="1.19"></circle>
    </g>
    <rect class=" st9_1436670229" x="337.19" y="61.73" width="17.06" height="45.75"></rect>
    <g>
      <path class=" st9_1436670229" d="M339.93,75.76h9.22v17.43h-9.22c-.55,0-1-.45-1-1v-15.43c0-.55.45-1,1-1Z"></path>
      <rect class=" st9_1436670229" x="349.15" y="75.76" width="1.34" height="17.43"></rect>
      <rect class=" st9_1436670229" x="347.38" y="83.63" width="5.12" height="1.68"></rect>
      <circle class=" st9_1436670229" cx="344.66" cy="84.47" r="1.19"></circle>
    </g>
    <g>
      <path class=" st9_1436670229" d="M81.14,346.99v-10.06c0-.83-.67-1.5-1.5-1.5h-14.28v13.06h14.28c.83,0,1.5-.67,1.5-1.5Z"></path>
      <rect class=" st13_1436670229" x="61.55" y="335.43" width="3.81" height="13.06"></rect>
    </g>
    <g>
      <path class=" st9_1436670229" d="M84.69,151.36v-10.06c0-.83-.67-1.5-1.5-1.5h-14.28v13.06h14.28c.83,0,1.5-.67,1.5-1.5Z"></path>
      <rect class=" st13_1436670229" x="65.1" y="139.8" width="3.81" height="13.06"></rect>
    </g>
    <g>
      <path class=" st9_1436670229" d="M288.72,105.65v-10.06c0-.83-.67-1.5-1.5-1.5h-14.28v13.06h14.28c.83,0,1.5-.67,1.5-1.5Z"></path>
      <rect class=" st9_1436670229" x="269.13" y="94.09" width="3.81" height="13.06"></rect>
    </g>
    <g>
      <path class=" st9_1436670229" d="M61.55,302.53h3.38c.28,0,.5.22.5.5v8.32c0,.28-.22.5-.5.5h-3.38v-9.32Z"></path>
      <rect class=" st9_1436670229" x="65.44" y="303.07" width="1.65" height="2.79"></rect>
      <ellipse class=" st9_1436670229" cx="76.65" cy="307.18" rx="4.22" ry="4.33"></ellipse>
      <line class=" st5_1436670229" x1="61.55" y1="307.18" x2="76.65" y2="307.18"></line>
    </g>
    <g>
      <rect class=" st9_1436670229" x="357.65" y="58.31" width="18.42" height="14.79"></rect>
      <rect class=" st9_1436670229" x="357.65" y="73.11" width="18.42" height="1.98"></rect>
      <rect class=" st9_1436670229" x="435.45" y="58.31" width="18.42" height="14.8"></rect>
      <rect class=" st9_1436670229" x="435.45" y="73.11" width="18.42" height="1.98"></rect>
      <rect class=" st9_1436670229" x="376.07" y="58.31" width="59.38" height="3.39"></rect>
      <rect class=" st9_1436670229" x="376.07" y="61.7" width="59.39" height="18.52"></rect>
      <rect class=" st9_1436670229" x="379.73" y="64.37" width="24.59" height="13.28"></rect>
      <rect class=" st9_1436670229" x="407.24" y="64.37" width="24.55" height="13.28"></rect>
      <polygon class=" st9_1436670229" points="410.61 72.52 386.54 83.71 381.79 81.57 376.07 80.22 376.07 125.96 435.45 125.96 435.45 72.52 410.61 72.52"></polygon>
      <polygon class=" st9_1436670229" points="376.07 80.22 381.79 81.57 386.54 83.71 410.61 72.52 406.36 72.52 376.07 80.22"></polygon>
    </g>
    <g>
      <rect class=" st9_1436670229" x="317.38" y="487.61" width="18.42" height="14.74"></rect>
      <rect class=" st9_1436670229" x="317.38" y="485.64" width="18.42" height="1.97"></rect>
      <rect class=" st9_1436670229" x="395.21" y="487.61" width="18.42" height="14.74"></rect>
      <rect class=" st9_1436670229" x="395.21" y="485.64" width="18.42" height="1.97"></rect>
      <rect class=" st9_1436670229" x="335.81" y="498.98" width="59.4" height="3.38"></rect>
      <rect class=" st9_1436670229" x="335.81" y="480.53" width="59.41" height="18.45"></rect>
      <rect class=" st9_1436670229" x="339.47" y="483.08" width="24.6" height="13.23"></rect>
      <rect class=" st9_1436670229" x="366.99" y="483.08" width="24.55" height="13.23"></rect>
      <polygon class=" st9_1436670229" points="370.36 488.2 346.29 477.05 341.53 479.18 335.81 480.53 335.81 434.96 395.22 434.96 395.22 488.2 370.36 488.2"></polygon>
      <polygon class=" st9_1436670229" points="335.81 480.53 341.53 479.18 346.29 477.05 370.36 488.2 366.11 488.2 335.81 480.53"></polygon>
    </g>
    <g>
      <g>
        <rect class=" st9_1436670229" x="346.47" y="393.89" width="37.29" height="1.54"></rect>
        <rect class=" st9_1436670229" x="362.6" y="392.73" width="5.03" height="1.17"></rect>
      </g>
      <polyline class=" st5_1436670229" points="373.15 398.64 365.1 395.43 357.04 398.64"></polyline>
    </g>
    <g>
      <g>
        <rect class=" st9_1436670229" x="414.53" y="159.49" width="37.29" height="1.54"></rect>
        <rect class=" st9_1436670229" x="430.65" y="161.03" width="5.03" height="1.16"></rect>
      </g>
      <polyline class=" st5_1436670229" points="425.14 156.28 433.19 159.49 441.25 156.28"></polyline>
    </g>
    <g>
      <g>
        <rect class=" st9_1436670229" x="281.38" y="386.26" width="55.33" height="1.66"></rect>
        <rect class=" st9_1436670229" x="305.31" y="387.92" width="7.47" height="1.26"></rect>
      </g>
      <polyline class=" st5_1436670229" points="297.12 382.79 309.08 386.26 321.03 382.79"></polyline>
    </g>
    <rect class=" st9_1436670229" x="414.11" y="175.75" width="61.53" height="6.78"></rect>
    <rect class=" st9_1436670229" x="414.11" y="380.73" width="61.53" height="10.11"></rect>
    <g>
      <path class=" st9_1436670229" d="M187.78,312.6s-1.91.04-2.79-.23c-1.87-.57-3.56-2.27-3.56-2.27l-3.35-2.27-.56,44.83,4.42-3.97s.71-1.73,2.97-2.55c.67-.24,2.86-.4,2.86-.4v-33.15Z"></path>
      <path class=" st9_1436670229" d="M182.24,354.5v-48.52c0-2.24-1.84-4.08-4.08-4.08h-17.04c-2.24,0-4.08,1.84-4.08,4.08v48.52c0,2.24,1.84,4.08,4.08,4.08h17.04c2.24,0,4.08-1.84,4.08-4.08Z"></path>
      <ellipse class=" st9_1436670229" cx="169.64" cy="330.24" rx="7.88" ry="22.42"></ellipse>
      <circle class=" st9_1436670229" cx="169.64" cy="330.24" r="1.53"></circle>
    </g>
    <rect class=" st9_1436670229" x="414.11" y="378.42" width="61.52" height="5.68"></rect>
    <g>
      <path class=" st9_1436670229" d="M272.4,297.55c-3.43,7.33-8.2,17.88-6.03,30.2,1.43,8.14,5.85,13.62,9.32,19.66,10.54,19.04-18.59,31.89-26.66,12.58-8.79-22.74-14.08-51.45-2.69-71.8,6.82-16.51,31.52-7.45,26.06,9.37Z"></path>
      <path class=" st9_1436670229" d="M249.8,311.82c-1.46,3.87-3.49,9.48-2.32,16.14,1.35,7.59,10.8,18.33.82,22.3-9.09,3.61-13.3-17.53-13.86-23.71-.7-7.76,3.51-26.52,11.72-23.93,3.04.96,4.85,5.12,3.64,9.2Z"></path>
    </g>
    <g>
      <circle class=" st9_1436670229" cx="312.78" cy="321.28" r="40.57"></circle>
      <circle class=" st9_1436670229" cx="296.77" cy="304.01" r="11.96"></circle>
      <circle class=" st9_1436670229" cx="319.97" cy="325.25" r="23.09"></circle>
    </g>
    <g>
      <path class=" st9_1436670229" d="M383.52,308.55l-6.32-17.28c-.8-2.18-3.21-3.3-5.39-2.5l-16.19,5.92c-.2.07-.3.29-.23.49l9.08,24.83c.07.2.29.3.49.23l15.8-5.78c2.39-.88,3.62-3.52,2.75-5.92Z"></path>
      <path class=" st9_1436670229" d="M378.76,308.12l-4.47-12.22c-.68-1.85-2.72-2.8-4.57-2.12l-15.47,5.66c-.46.17-.7.68-.53,1.14l6,16.4c.17.46.68.7,1.14.53l16.31-5.97c1.39-.51,2.1-2.04,1.59-3.43Z"></path>
      <path class=" st9_1436670229" d="M369.93,311.76l1.35-10.96c.03-.27.28-.47.56-.43l5.93.73c.27.03.47.28.43.56l-1.35,10.96c-.03.27-.28.47-.56.43l-5.93-.73c-.27-.03-.47-.28-.43-.56Z"></path>
    </g>
    <g>
      <path class=" st9_1436670229" d="M379.02,346.36l-8.39,16.37c-1.06,2.07-3.59,2.88-5.66,1.82l-15.34-7.86c-.19-.1-.26-.33-.17-.52l12.06-23.53c.1-.19.33-.26.52-.17l14.98,7.68c2.27,1.16,3.16,3.94,2,6.21Z"></path>
      <path class=" st9_1436670229" d="M374.24,346.21l-5.93,11.58c-.9,1.75-3.05,2.44-4.8,1.55l-14.66-7.51c-.44-.22-.61-.76-.39-1.2l7.97-15.54c.22-.44.76-.61,1.2-.39l15.45,7.92c1.31.67,1.83,2.28,1.16,3.6Z"></path>
      <path class=" st9_1436670229" d="M365.92,341.51v11.04c0,.28.22.5.5.5h5.98c.28,0,.5-.22.5-.5v-11.04c0-.28-.22-.5-.5-.5h-5.98c-.28,0-.5.22-.5.5Z"></path>
    </g>
    <rect class=" st9_1436670229" x="61.55" y="194.25" width="21.94" height="80.48"></rect>
    <rect class=" st9_1436670229" x="61.55" y="194.25" width="126.36" height="21.94"></rect>
    <rect class=" st9_1436670229" x="83.49" y="274.73" width="47.26" height="11.99"></rect>
    <g>
      <rect class=" st9_1436670229" x="61.55" y="233.82" width="21.94" height="21.57"></rect>
      <circle class=" st9_1436670229" cx="77.36" cy="239.71" r="3.27"></circle>
      <circle class=" st9_1436670229" cx="77.36" cy="249.49" r="3.27"></circle>
      <circle class=" st9_1436670229" cx="67.68" cy="239.71" r="3.27"></circle>
      <circle class=" st9_1436670229" cx="67.68" cy="249.49" r="3.27"></circle>
    </g>
    <g>
      <rect class=" st9_1436670229" x="122.94" y="194.25" width="21.09" height="21.94"></rect>
      <rect class=" st9_1436670229" x="122.94" y="214.52" width="21.09" height="1.68"></rect>
      <path class=" st9_1436670229" d="M133.49,209.79h0c1.24,0,2.07-.59,2.56-1.44.61-1.04.61-2.35.13-3.46l-2.69-6.16-2.67,5.98c-.44.99-.49,2.13-.06,3.13.46,1.08,1.34,1.95,2.73,1.95Z"></path>
    </g>
    <g>
      <rect class=" st9_1436670229" x="92.37" y="194.25" width="30.57" height="21.94"></rect>
      <path class=" st9_1436670229" d="M119.56,214.06h-23.82c-.55,0-1-.45-1-1v-13.52c0-.55.45-1,1-1h23.82c.55,0,1,.45,1,1v13.52c0,.55-.45,1-1,1Z"></path>
      <rect class=" st9_1436670229" x="106.5" y="195.38" width="2.3" height="6.66"></rect>
      <circle class=" st9_1436670229" cx="107.65" cy="205.6" r="1.43"></circle>
      <rect class=" st9_1436670229" x="106.5" y="195.38" width="2.3" height="1.98"></rect>
    </g>
    <g>
      <rect class=" st9_1436670229" x="144.03" y="194.25" width="21.94" height="21.94"></rect>
      <rect class=" st9_1436670229" x="144.03" y="214.52" width="21.94" height="1.68"></rect>
      <rect class=" st9_1436670229" x="160.6" y="216.19" width="3.69" height="1.46"></rect>
      <g>
        <line class=" st5_1436670229" x1="155" y1="210.59" x2="155" y2="199.86"></line>
        <line class=" st5_1436670229" x1="159.63" y1="202.54" x2="150.38" y2="207.9"></line>
        <line class=" st5_1436670229" x1="150.38" y1="202.54" x2="159.63" y2="207.9"></line>
      </g>
    </g>
    <g>
      <rect class=" st9_1436670229" x="165.97" y="194.25" width="21.94" height="21.94"></rect>
      <rect class=" st9_1436670229" x="165.97" y="214.52" width="21.94" height="1.68"></rect>
      <rect class=" st9_1436670229" x="167.66" y="216.19" width="3.69" height="1.46"></rect>
      <g>
        <line class=" st5_1436670229" x1="176.94" y1="210.59" x2="176.94" y2="199.86"></line>
        <line class=" st5_1436670229" x1="172.31" y1="202.54" x2="181.57" y2="207.9"></line>
        <line class=" st5_1436670229" x1="181.57" y1="202.54" x2="172.31" y2="207.9"></line>
      </g>
    </g>
    <g>
      <rect class=" st9_1436670229" x="234.76" y="115.6" width="21.91" height="52.06"></rect>
      <g>
        <line class=" st5_1436670229" x1="237.67" y1="132.91" x2="253.77" y2="134.15"></line>
        <line class=" st5_1436670229" x1="237.67" y1="143.1" x2="253.77" y2="144.35"></line>
        <line class=" st5_1436670229" x1="237.67" y1="159.4" x2="253.77" y2="160.65"></line>
        <line class=" st5_1436670229" x1="237.67" y1="149.21" x2="253.77" y2="150.46"></line>
        <line class=" st5_1436670229" x1="237.67" y1="123.85" x2="253.77" y2="122.61"></line>
        <line class=" st5_1436670229" x1="237.67" y1="138.82" x2="253.77" y2="137.58"></line>
        <line class=" st5_1436670229" x1="237.67" y1="155.12" x2="253.77" y2="153.88"></line>
        <line class=" st5_1436670229" x1="237.67" y1="129.04" x2="253.77" y2="129.04"></line>
      </g>
      <line class=" st5_1436670229" x1="245.72" y1="164.39" x2="245.72" y2="118.86"></line>
    </g>
    <g>
      <rect class=" st10_1436670229" x="81.93" y="424.27" width="107.74" height="21.38"></rect>
      <g>
        <line class=" st5_1436670229" x1="86.95" y1="427.1" x2="88.22" y2="442.82"></line>
        <line class=" st5_1436670229" x1="93.72" y1="427.1" x2="92.45" y2="442.82"></line>
        <line class=" st5_1436670229" x1="97.95" y1="427.1" x2="97.95" y2="442.82"></line>
        <line class=" st5_1436670229" x1="102.18" y1="427.1" x2="103.45" y2="442.82"></line>
        <line class=" st5_1436670229" x1="117.4" y1="427.1" x2="118.67" y2="442.82"></line>
        <line class=" st5_1436670229" x1="128.4" y1="427.1" x2="129.67" y2="442.82"></line>
        <line class=" st5_1436670229" x1="144.89" y1="427.1" x2="146.17" y2="442.82"></line>
        <line class=" st5_1436670229" x1="133.9" y1="427.1" x2="135.17" y2="442.82"></line>
        <line class=" st5_1436670229" x1="108.95" y1="427.1" x2="107.67" y2="442.82"></line>
        <line class=" st5_1436670229" x1="124.17" y1="427.1" x2="122.9" y2="442.82"></line>
        <line class=" st5_1436670229" x1="140.67" y1="427.1" x2="139.39" y2="442.82"></line>
        <line class=" st5_1436670229" x1="155.89" y1="427.1" x2="157.16" y2="442.82"></line>
        <line class=" st5_1436670229" x1="172.39" y1="427.1" x2="173.66" y2="442.82"></line>
        <line class=" st5_1436670229" x1="161.39" y1="427.1" x2="162.66" y2="442.82"></line>
        <line class=" st5_1436670229" x1="151.66" y1="427.1" x2="150.39" y2="442.82"></line>
        <line class=" st5_1436670229" x1="168.16" y1="427.1" x2="166.89" y2="442.82"></line>
        <line class=" st5_1436670229" x1="177.89" y1="427.1" x2="179.16" y2="442.82"></line>
        <line class=" st5_1436670229" x1="184.66" y1="427.1" x2="183.38" y2="442.82"></line>
        <line class=" st5_1436670229" x1="113.17" y1="427.1" x2="113.17" y2="442.82"></line>
      </g>
      <line class=" st5_1436670229" x1="187.07" y1="434.96" x2="84.54" y2="434.96"></line>
    </g>
    <g>
      <rect class=" st9_1436670229" x="61.55" y="365.61" width="20.38" height="80.04"></rect>
      <g>
        <line class=" st5_1436670229" x1="64.25" y1="441.78" x2="79.23" y2="440.51"></line>
        <line class=" st5_1436670229" x1="64.25" y1="435.25" x2="79.23" y2="436.52"></line>
        <line class=" st5_1436670229" x1="64.25" y1="431.11" x2="79.23" y2="431.11"></line>
        <line class=" st5_1436670229" x1="64.25" y1="427.21" x2="79.23" y2="425.94"></line>
        <line class=" st5_1436670229" x1="64.25" y1="411.49" x2="79.23" y2="410.21"></line>
        <line class=" st5_1436670229" x1="64.25" y1="401.09" x2="79.23" y2="399.82"></line>
        <line class=" st5_1436670229" x1="64.25" y1="384.46" x2="79.23" y2="383.18"></line>
        <line class=" st5_1436670229" x1="64.25" y1="394.86" x2="79.23" y2="393.58"></line>
        <line class=" st5_1436670229" x1="64.25" y1="420.73" x2="79.23" y2="422"></line>
        <line class=" st5_1436670229" x1="64.25" y1="405.45" x2="79.23" y2="406.73"></line>
        <line class=" st5_1436670229" x1="64.25" y1="388.82" x2="79.23" y2="390.09"></line>
        <line class=" st5_1436670229" x1="64.25" y1="373.61" x2="79.23" y2="372.33"></line>
        <line class=" st5_1436670229" x1="64.25" y1="377.97" x2="79.23" y2="379.24"></line>
        <line class=" st5_1436670229" x1="64.25" y1="415.43" x2="79.23" y2="415.43"></line>
      </g>
      <line class=" st5_1436670229" x1="71.74" y1="369.01" x2="71.74" y2="443.22"></line>
    </g>
    <g>
      <rect class=" st9_1436670229" x="255.16" y="445.65" width="21.77" height="56.71"></rect>
      <g>
        <line class=" st5_1436670229" x1="258.04" y1="497.15" x2="274.04" y2="495.98"></line>
        <line class=" st5_1436670229" x1="258.04" y1="491.15" x2="274.04" y2="492.32"></line>
        <line class=" st5_1436670229" x1="258.04" y1="487.35" x2="274.04" y2="487.35"></line>
        <line class=" st5_1436670229" x1="258.04" y1="483.76" x2="274.04" y2="482.59"></line>
        <line class=" st5_1436670229" x1="258.04" y1="469.32" x2="274.04" y2="468.15"></line>
        <line class=" st5_1436670229" x1="258.04" y1="459.76" x2="274.04" y2="458.59"></line>
        <line class=" st5_1436670229" x1="258.04" y1="454.03" x2="274.04" y2="452.86"></line>
        <line class=" st5_1436670229" x1="258.04" y1="477.8" x2="274.04" y2="478.97"></line>
        <line class=" st5_1436670229" x1="258.04" y1="463.77" x2="274.04" y2="464.94"></line>
        <line class=" st5_1436670229" x1="258.04" y1="472.94" x2="274.04" y2="472.94"></line>
      </g>
      <line class=" st5_1436670229" x1="266.04" y1="448.33" x2="266.04" y2="499.92"></line>
    </g>
    <g>
      <rect class=" st9_1436670229" x="280.21" y="148.26" width="77.9" height="19.4"></rect>
      <g>
        <line class=" st5_1436670229" x1="283.66" y1="150.83" x2="284.81" y2="165.09"></line>
        <line class=" st5_1436670229" x1="289.55" y1="150.83" x2="288.4" y2="165.09"></line>
        <line class=" st5_1436670229" x1="293.28" y1="150.83" x2="293.28" y2="165.09"></line>
        <line class=" st5_1436670229" x1="296.79" y1="150.83" x2="297.94" y2="165.09"></line>
        <line class=" st5_1436670229" x1="310.97" y1="150.83" x2="312.11" y2="165.09"></line>
        <line class=" st5_1436670229" x1="320.34" y1="150.83" x2="321.49" y2="165.09"></line>
        <line class=" st5_1436670229" x1="335.33" y1="150.83" x2="336.48" y2="165.09"></line>
        <line class=" st5_1436670229" x1="325.96" y1="150.83" x2="327.11" y2="165.09"></line>
        <line class=" st5_1436670229" x1="302.64" y1="150.83" x2="301.49" y2="165.09"></line>
        <line class=" st5_1436670229" x1="316.41" y1="150.83" x2="315.26" y2="165.09"></line>
        <line class=" st5_1436670229" x1="331.4" y1="150.83" x2="330.25" y2="165.09"></line>
        <line class=" st5_1436670229" x1="307.41" y1="150.83" x2="307.41" y2="165.09"></line>
        <line class=" st5_1436670229" x1="344.13" y1="150.83" x2="345.28" y2="165.09"></line>
        <line class=" st5_1436670229" x1="353.51" y1="150.83" x2="354.65" y2="165.09"></line>
        <line class=" st5_1436670229" x1="349.57" y1="150.83" x2="348.43" y2="165.09"></line>
        <line class=" st5_1436670229" x1="340.58" y1="150.83" x2="340.58" y2="165.09"></line>
      </g>
      <line class=" st5_1436670229" x1="355.63" y1="157.96" x2="282.68" y2="157.96"></line>
    </g>
    <g>
      <rect class=" st9_1436670229" x="81.93" y="365.61" width="33.92" height="21.24"></rect>
      <g>
        <line class=" st5_1436670229" x1="103.84" y1="368.43" x2="102.12" y2="384.04"></line>
        <line class=" st5_1436670229" x1="107.74" y1="368.43" x2="109.46" y2="384.04"></line>
        <line class=" st5_1436670229" x1="94.62" y1="368.43" x2="96.34" y2="384.04"></line>
        <line class=" st5_1436670229" x1="88.32" y1="368.43" x2="88.32" y2="384.04"></line>
      </g>
      <line class=" st5_1436670229" x1="84.7" y1="376.23" x2="113.08" y2="376.23"></line>
    </g>
    <g>
      <rect class=" st9_1436670229" x="260.43" y="117.71" width="19.78" height="20.32"></rect>
      <g>
        <line class=" st5_1436670229" x1="263.05" y1="134.4" x2="277.59" y2="135.17"></line>
        <line class=" st5_1436670229" x1="263.05" y1="124.54" x2="277.59" y2="125.31"></line>
        <line class=" st5_1436670229" x1="263.05" y1="121.77" x2="277.59" y2="121"></line>
        <line class=" st5_1436670229" x1="263.05" y1="128.86" x2="277.59" y2="128.09"></line>
        <line class=" st5_1436670229" x1="263.05" y1="131.63" x2="277.59" y2="131.63"></line>
      </g>
      <line class=" st5_1436670229" x1="270.32" y1="136.45" x2="270.32" y2="119.59"></line>
    </g>
    <g>
      <rect class=" st9_1436670229" x="127.58" y="168.88" width="60.33" height="21.55"></rect>
      <g>
        <line class=" st5_1436670229" x1="155.77" y1="171.73" x2="154.82" y2="187.58"></line>
        <line class=" st5_1436670229" x1="169.51" y1="171.73" x2="168.56" y2="187.58"></line>
        <line class=" st5_1436670229" x1="163.66" y1="171.73" x2="164.62" y2="187.58"></line>
        <line class=" st5_1436670229" x1="149.92" y1="171.73" x2="150.87" y2="187.58"></line>
        <line class=" st5_1436670229" x1="145.97" y1="171.73" x2="145.97" y2="187.58"></line>
        <line class=" st5_1436670229" x1="183.26" y1="171.73" x2="182.31" y2="187.58"></line>
        <line class=" st5_1436670229" x1="177.41" y1="171.73" x2="178.36" y2="187.58"></line>
        <line class=" st5_1436670229" x1="173.46" y1="171.73" x2="173.46" y2="187.58"></line>
        <line class=" st5_1436670229" x1="142.02" y1="171.73" x2="141.07" y2="187.58"></line>
        <line class=" st5_1436670229" x1="136.17" y1="171.73" x2="137.12" y2="187.58"></line>
        <line class=" st5_1436670229" x1="132.23" y1="171.73" x2="132.23" y2="187.58"></line>
        <line class=" st5_1436670229" x1="159.72" y1="171.73" x2="159.72" y2="187.58"></line>
      </g>
      <line class=" st5_1436670229" x1="130.3" y1="179.65" x2="185.19" y2="179.65"></line>
    </g>
    <g>
      <rect class=" st9_1436670229" x="143.57" y="365.61" width="44.21" height="21.77"></rect>
      <g>
        <line class=" st5_1436670229" x1="163.81" y1="368.5" x2="162.13" y2="384.5"></line>
        <line class=" st5_1436670229" x1="154.09" y1="368.5" x2="154.09" y2="384.5"></line>
        <line class=" st5_1436670229" x1="167.89" y1="368.5" x2="167.89" y2="384.5"></line>
        <line class=" st5_1436670229" x1="171.82" y1="368.5" x2="173.51" y2="384.5"></line>
        <line class=" st5_1436670229" x1="157.16" y1="368.5" x2="158.84" y2="384.5"></line>
        <line class=" st5_1436670229" x1="183.1" y1="368.5" x2="181.41" y2="384.5"></line>
        <line class=" st5_1436670229" x1="149.93" y1="368.5" x2="148.25" y2="384.5"></line>
        <line class=" st5_1436670229" x1="177.05" y1="368.5" x2="177.05" y2="384.5"></line>
      </g>
      <line class=" st5_1436670229" x1="186.1" y1="376.5" x2="145.24" y2="376.5"></line>
    </g>
  </g>
  <g>
    <path class=" st17_1436670229" d="M483.52,381.53v24.26h-7.88v-7.79h-79.35v-5.27h-167.57v-3.55h178.11v-9.07h7.28v4.09h61.52v-2.66h7.88ZM441.98,268.43c-6.99,0-12.65,5.67-12.65,12.65s5.67,12.65,12.65,12.65,12.65-5.67,12.65-12.65-5.67-12.65-12.65-12.65ZM475.64,153.52v8.67h-79.57v5.46h-5.1v4.2h15.75v8.01h7.5v-4.12h61.42v4.12h7.88v-26.35h-7.88ZM483.52,40v21.25h-7.88v-2.96h-118.01v59.42l-23.73-.02v-3.57h20.35v-59.37h-85.12v59.37s36.77,0,36.77,0v3.59h-45.48v20.32h19.78v29.63h79.71v4.2h-125.15v-4.2h21.91v-52.06h-87.36v-9.27h7.87v-2.4h74.43v-60.08h98.64v-3.84h133.28ZM263.17,167.66h12.83v-24.29h-12.83v24.29ZM266.08,51.34h-6.87v62.78h6.87v-62.78ZM414.11,266.78h-7.48v26.4h7.48v-26.4ZM483.52,499.23v20.77h-50.57v-7.33h-192.31v-56.59H53.84V106.1h76.6s0,9.49,0,9.49h-2.86v17.46h-3.82v-17.46h-54.15v7.17h-4.5v43.47h17.07v24.19h41.58v-29.23h3.82v29.23h60.33v-21.55h3.67v47.31h-3.67v-21.94H61.55v80.48h21.94v11.99h47.26v-11.99h60.83v114.44h5.88v3.55h-9.68v-27.11h-44.32v-3.32h44.32v-72.06h-122.67v72.06h50.75v3.32h-54.3v80.04h193.6v56.71h220.48v-3.13h7.88ZM173.13,286.72h14.64v-8.52h-14.64v8.52ZM58.42,171.86v14.43h17.22v-14.43h-17.22ZM58.32,119.62h8.05v-7.68h-8.05s0,7.68,0,7.68ZM58.35,286.72h21.88v-8.52h-21.88v8.52Z"></path>
  </g>
  <g>
    <path class=" st5_1436670229" d="M483.53,61.91h22.63M483.53,120.85h22.63M483.53,178.54h22.63M483.53,380.2h22.63M483.53,438.83h22.63M483.53,497.9h22.63M483.52,206.26v147.87M483.53,225.91h22.63M483.53,336.56h22.63"></path>
    <path class=" st5_1436670229" d="M506.16,330.46v189.54h-22.64v-212.16c6.27,0,11.92,2.54,16.02,6.62,4.08,4.11,6.62,9.76,6.62,16ZM483.52,40v212.98c12.51,0,22.64-10.13,22.64-22.64V40h-22.64Z"></path>
  </g>
  <g>
    <g>
      <rect class=" st3_1436670229" x="199.13" y="362.01" width="1.78" height="27.84"></rect>
      <rect class=" st3_1436670229" x="197.56" y="389.17" width="1.57" height="2.89"></rect>
      <rect class=" st3_1436670229" x="227.15" y="389.17" width="1.57" height="2.89"></rect>
      <path class=" st5_1436670229" d="M200.91,362.01c15.26,0,26.24,15.82,26.24,27.08"></path>
    </g>
    <g>
      <rect class=" st5_1436670229" x="100.43" y="158.18" width="25.15" height="1.61"></rect>
      <rect class=" st5_1436670229" x="124.97" y="159.79" width="2.61" height="1.42"></rect>
      <rect class=" st5_1436670229" x="124.97" y="133.06" width="2.61" height="1.42"></rect>
      <path class=" st5_1436670229" d="M100.43,158.18c0-13.78,14.29-23.7,24.46-23.7"></path>
    </g>
    <g>
      <rect class=" st3_1436670229" x="307.31" y="89.71" width="1.6" height="25.01"></rect>
      <rect class=" st3_1436670229" x="305.91" y="114.12" width="1.41" height="2.59"></rect>
      <rect class=" st3_1436670229" x="332.49" y="114.12" width="1.41" height="2.59"></rect>
      <path class=" st5_1436670229" d="M308.92,89.71c13.71,0,23.57,14.21,23.57,24.32"></path>
    </g>
    <g>
      <rect class=" st4_1436670229" x="117.25" y="338.88" width="1.58" height="24.76"></rect>
      <rect class=" st4_1436670229" x="115.85" y="363.05" width="1.39" height="2.57"></rect>
      <rect class=" st4_1436670229" x="142.17" y="363.05" width="1.39" height="2.57"></rect>
      <path class=" st5_1436670229" d="M118.83,338.88c13.57,0,23.34,14.07,23.34,24.08"></path>
    </g>
    <g>
      <rect class=" st3_1436670229" x="132.4" y="114.76" width="2.22" height="34.73"></rect>
      <rect class=" st3_1436670229" x="130.44" y="112" width="1.96" height="3.6"></rect>
      <rect class=" st3_1436670229" x="167.36" y="112" width="1.96" height="3.6"></rect>
      <path class=" st5_1436670229" d="M134.62,149.49c19.04,0,32.74-19.74,32.74-33.78"></path>
    </g>
    <g>
      <rect class=" st3_1436670229" x="361.48" y="140.59" width="1.77" height="27.74"></rect>
      <rect class=" st3_1436670229" x="359.92" y="167.66" width="1.56" height="2.88"></rect>
      <rect class=" st3_1436670229" x="389.4" y="167.66" width="1.56" height="2.88"></rect>
      <path class=" st5_1436670229" d="M363.26,140.59c15.2,0,26.14,15.77,26.14,26.98"></path>
    </g>
    <rect class=" st5_1436670229" x="404.83" y="264.12" width="9.27" height="2.66"></rect>
    <rect class=" st5_1436670229" x="404.83" y="179.87" width="9.27" height="2.66"></rect>
    <rect class=" st5_1436670229" x="404.83" y="377.43" width="9.27" height="2.66"></rect>
    <rect class=" st5_1436670229" x="404.83" y="293.18" width="9.27" height="2.66"></rect>
    <rect class=" st5_1436670229" x="410.75" y="224.15" width="1.68" height="39.97"></rect>
    <rect class=" st5_1436670229" x="412.43" y="182.53" width="1.68" height="41.62"></rect>
    <rect class=" st5_1436670229" x="412.43" y="337.47" width="1.68" height="39.97"></rect>
    <rect class=" st5_1436670229" x="410.75" y="295.85" width="1.68" height="41.62"></rect>
  </g>
  <g>
    <polygon class=" st16_1436670229" points="156.7 94.21 156.3 94.21 148.34 104.18 149.1 81.88 149.1 81.39 147.25 81.39 147.25 81.88 148.01 104.18 140.05 94.21 139.64 94.21 139.64 96.64 148.15 105.19 156.7 96.64 156.7 94.21"></polygon>
  </g>
  <g>
    <g>
      <path class=" st18_1436670229" d="M290.87,423.93v.9h-4.05v-.7l2.5-2.7c.11-.12.21-.24.3-.37.08-.11.14-.24.21-.37.06-.13.1-.27.1-.41,0-.28-.1-.51-.29-.68-.19-.18-.46-.26-.81-.26-.33,0-.59.1-.8.3-.2.2-.31.47-.31.79h-.95c0-.29.05-.55.14-.79.1-.24.23-.45.41-.61.18-.17.39-.3.64-.4.25-.1.54-.14.85-.14s.6.05.85.14c.25.09.47.22.64.39.18.17.31.36.41.59.1.23.14.47.14.73,0,.2-.05.4-.14.6-.09.2-.2.38-.31.53-.13.18-.28.35-.45.52l-1.79,1.95h2.69Z"></path>
      <path class=" st18_1436670229" d="M293.85,424.87c-.31,0-.6-.05-.87-.16-.27-.11-.5-.26-.7-.46-.2-.2-.35-.42-.47-.69s-.17-.54-.17-.84c0-.19.03-.37.1-.56.06-.19.13-.35.21-.5.09-.17.19-.34.3-.49l1.75-2.65h1.05l-1.4,2.1s.07-.01.12-.02c.03,0,.07-.01.12-.02.05,0,.1-.01.15-.01.26,0,.51.05.76.16.24.11.45.26.64.46.18.2.33.42.44.69s.17.54.17.84-.06.58-.17.84-.27.49-.47.69c-.2.2-.43.35-.7.46-.27.11-.56.16-.87.16ZM292.6,422.73c0,.19.03.36.1.52.06.16.15.3.27.41.11.11.25.2.4.27.15.07.32.1.49.1s.33-.03.49-.1c.15-.07.29-.16.4-.27.11-.11.2-.25.27-.41.06-.16.1-.33.1-.52s-.03-.36-.1-.52c-.06-.16-.15-.3-.27-.41-.11-.11-.25-.2-.4-.27-.15-.07-.32-.1-.49-.1s-.33.03-.49.1c-.15.07-.29.16-.4.27-.11.11-.2.25-.27.41-.07.16-.1.33-.1.52Z"></path>
      <path class=" st18_1436670229" d="M297.28,423.77c.15,0,.28.06.39.17s.16.26.16.43c0,.25-.04.47-.12.64-.08.18-.18.32-.28.43-.12.13-.25.24-.4.32l-.15-.2c.07-.05.13-.11.19-.18.05-.06.1-.13.15-.22s.08-.19.11-.3c-.17,0-.32-.05-.43-.16-.11-.11-.17-.23-.17-.39s.05-.28.16-.39.24-.16.39-.16Z"></path>
      <path class=" st18_1436670229" d="M302.66,423.93v.9h-4.05v-.7l2.5-2.7c.11-.12.21-.24.3-.37.08-.11.14-.24.21-.37.06-.13.1-.27.1-.41,0-.28-.1-.51-.29-.68-.19-.18-.46-.26-.81-.26-.33,0-.59.1-.8.3-.2.2-.31.47-.31.79h-.95c0-.29.05-.55.14-.79.1-.24.23-.45.41-.61.18-.17.39-.3.64-.4.25-.1.54-.14.85-.14s.6.05.85.14c.25.09.47.22.64.39.18.17.31.36.41.59.1.23.14.47.14.73,0,.2-.05.4-.14.6-.09.2-.2.38-.31.53-.13.18-.28.35-.45.52l-1.79,1.95h2.69Z"></path>
    </g>
    <g>
      <path class=" st18_1436670229" d="M401.9,140.19v6.3h-.95v-5l-.85.55-.45-.75,1.6-1.1h.65Z"></path>
      <path class=" st18_1436670229" d="M405.33,142.24c.29,0,.56.05.82.16s.48.26.67.46c.19.2.34.43.45.69s.17.54.17.84-.06.58-.17.84-.27.49-.47.69c-.2.2-.43.35-.7.46s-.56.16-.87.16-.6-.05-.85-.14-.47-.22-.65-.38-.32-.34-.42-.55-.16-.44-.18-.68h.95c.01.11.05.22.11.33.06.11.14.2.24.29s.22.15.36.21.29.08.44.08c.17,0,.33-.03.49-.1s.29-.16.4-.27.2-.25.27-.41c.06-.16.1-.33.1-.52s-.03-.36-.1-.52c-.06-.16-.15-.3-.27-.41s-.25-.2-.4-.27-.32-.1-.49-.1c-.2,0-.37.04-.52.12-.15.08-.27.17-.36.26-.11.11-.2.24-.27.37h-.8l.4-3.65h3.35v.9h-2.54l-.16,1.5c.08-.06.16-.12.27-.17.09-.04.19-.09.32-.12.12-.04.26-.06.41-.06Z"></path>
      <path class=" st18_1436670229" d="M408.71,145.44c.15,0,.28.06.39.17s.16.26.16.43c0,.25-.04.47-.12.65-.08.18-.18.32-.28.43-.12.13-.25.24-.4.32l-.15-.2c.07-.04.13-.11.19-.18.05-.06.1-.13.15-.22s.08-.19.11-.3c-.17,0-.32-.05-.43-.16s-.17-.24-.17-.39.05-.28.16-.39.24-.16.39-.16Z"></path>
      <path class=" st18_1436670229" d="M412.14,140.14c.31,0,.6.05.87.16s.5.26.7.46c.2.2.35.43.47.69s.17.54.17.84c0,.19-.03.38-.1.56-.06.18-.13.35-.21.5-.09.17-.19.34-.3.49l-1.75,2.65h-1.05l1.4-2.1s-.07.02-.11.03c-.03,0-.07.01-.12.01-.05,0-.1,0-.16,0-.26,0-.51-.05-.76-.16-.24-.11-.45-.26-.64-.46-.18-.2-.33-.43-.44-.69s-.17-.54-.17-.84.06-.58.17-.84.27-.49.47-.69c.2-.2.43-.35.7-.46s.56-.16.87-.16ZM413.39,142.29c0-.19-.03-.36-.1-.52-.06-.16-.15-.3-.27-.41s-.25-.2-.4-.27-.32-.1-.49-.1-.33.03-.49.1-.29.16-.4.27-.2.25-.27.41c-.06.16-.1.33-.1.52s.03.36.1.52c.06.16.15.3.27.41s.25.2.4.27.32.1.49.1.33-.03.49-.1.29-.16.4-.27.2-.25.27-.41c.06-.16.1-.33.1-.52Z"></path>
    </g>
    <g>
      <path class=" st18_1436670229" d="M220.31,235.38h-.7v1.25h-.95v-1.25h-2.8v-.8l2.65-4.25h1.1v4.15h.7v.9ZM218.66,234.48v-2.75l-1.7,2.75h1.7Z"></path>
      <path class=" st18_1436670229" d="M220.94,232.02c.01-.24.07-.47.17-.68s.24-.4.42-.55.39-.29.63-.38.52-.14.82-.14c.29,0,.55.05.79.14s.45.23.63.39.32.35.42.56.15.43.15.66-.04.42-.12.59-.18.3-.28.4c-.12.12-.25.22-.4.31.19.09.35.2.5.34.13.12.24.28.34.48s.15.44.15.73c0,.24-.05.47-.15.68s-.25.4-.43.57-.41.3-.68.4-.56.15-.88.15-.62-.05-.88-.14-.48-.22-.67-.38-.33-.34-.43-.55-.16-.44-.18-.68h.95c.01.11.05.22.11.33s.14.2.24.29.23.15.37.21.3.08.48.08c.38,0,.68-.1.89-.29s.32-.43.32-.71-.11-.52-.32-.71-.51-.29-.88-.29h-.45v-.85h.4c.33,0,.58-.09.77-.26s.28-.39.28-.64c0-.28-.09-.51-.28-.68s-.44-.26-.77-.26-.58.09-.78.26-.3.39-.33.64h-.95Z"></path>
      <path class=" st18_1436670229" d="M226.46,235.57c.15,0,.28.06.39.17s.16.26.16.43c0,.25-.04.47-.12.65s-.18.32-.28.43c-.12.13-.25.24-.4.32l-.15-.2c.07-.04.13-.11.19-.18.05-.06.1-.13.15-.22s.08-.19.11-.3c-.17,0-.32-.05-.43-.16s-.17-.24-.17-.39.05-.28.16-.39.24-.16.39-.16Z"></path>
      <path class=" st18_1436670229" d="M229.85,230.33v6.3h-.95v-5l-.85.55-.45-.75,1.6-1.1h.65Z"></path>
    </g>
    <g>
      <path class=" st18_1436670229" d="M130.03,242.16v6.3h-.95v-5l-.85.55-.45-.75,1.6-1.1h.65Z"></path>
      <path class=" st18_1436670229" d="M136.21,245.31c0,.51-.07.97-.2,1.37s-.32.73-.55,1-.5.48-.8.62-.62.21-.96.21-.66-.07-.96-.21-.57-.35-.8-.62-.41-.61-.54-1-.2-.85-.2-1.37.07-.97.2-1.37.32-.73.54-1,.49-.48.79-.62.62-.21.96-.21.66.07.96.21.57.35.8.62.41.61.55,1,.2.85.2,1.37ZM135.25,245.31c0-.39-.04-.73-.13-1.02s-.21-.54-.35-.74-.31-.35-.5-.44-.37-.15-.56-.15-.37.05-.56.15-.35.25-.5.44-.26.44-.36.74-.14.63-.14,1.02.04.73.14,1.02.21.54.36.74.31.35.5.44.37.15.56.15.37-.05.56-.15.35-.25.5-.44.26-.44.35-.74.13-.63.13-1.02Z"></path>
      <path class=" st18_1436670229" d="M137.48,247.41c.15,0,.28.06.39.17s.16.26.16.43c0,.25-.04.47-.12.65s-.18.32-.28.43c-.12.13-.25.24-.4.32l-.15-.2c.07-.04.13-.11.19-.18.05-.06.1-.13.15-.22s.08-.19.11-.3c-.17,0-.32-.05-.43-.16s-.17-.24-.17-.39.05-.28.16-.39.24-.16.39-.16Z"></path>
      <path class=" st18_1436670229" d="M138.76,243.86c.01-.24.07-.47.17-.68s.24-.4.42-.55.39-.29.63-.38.52-.14.82-.14c.29,0,.55.05.79.14s.45.23.63.39.32.35.42.56.15.43.15.66-.04.42-.12.59-.18.3-.28.4c-.12.12-.25.22-.4.31.19.09.35.2.5.34.13.12.24.28.34.48s.15.44.15.73c0,.24-.05.47-.15.68s-.25.4-.43.57-.41.3-.68.4-.56.15-.88.15-.62-.05-.88-.14-.48-.22-.67-.38-.33-.34-.43-.55-.16-.44-.18-.68h.95c.01.11.05.22.11.33s.14.2.24.29.23.15.37.21.3.08.48.08c.38,0,.68-.1.89-.29s.32-.43.32-.71-.11-.52-.32-.71-.51-.29-.88-.29h-.45v-.85h.4c.33,0,.58-.09.77-.26s.28-.39.28-.64c0-.28-.09-.51-.28-.68s-.44-.26-.77-.26-.58.09-.78.26-.3.39-.33.64h-.95Z"></path>
    </g>
    <g>
      <path class=" st18_1436670229" d="M93.28,146.32h-.7v1.25h-.95v-1.25h-2.8v-.8l2.65-4.25h1.1v4.15h.7v.9ZM91.63,145.42v-2.75l-1.7,2.75h1.7Z"></path>
      <path class=" st18_1436670229" d="M94.41,146.52c.15,0,.28.06.39.17s.16.26.16.43c0,.25-.04.47-.12.65s-.18.32-.28.43c-.12.13-.25.24-.4.32l-.15-.2c.07-.04.13-.11.19-.18.05-.06.1-.13.15-.22s.08-.19.11-.3c-.17,0-.32-.05-.43-.16s-.17-.24-.17-.39.05-.28.16-.39.24-.16.39-.16Z"></path>
      <path class=" st18_1436670229" d="M97.79,141.27v6.3h-.95v-5l-.85.55-.45-.75,1.6-1.1h.65Z"></path>
    </g>
    <g>
      <path class=" st18_1436670229" d="M190.36,153.93c-.33,0-.62-.05-.88-.15s-.49-.23-.68-.4-.33-.36-.44-.59-.16-.46-.16-.71c0-.3.05-.55.16-.75s.22-.37.35-.5c.15-.15.31-.26.5-.35-.14-.09-.27-.19-.38-.31-.09-.11-.18-.24-.25-.39s-.11-.34-.11-.55c0-.23.05-.44.14-.65s.22-.38.39-.54.37-.28.6-.37.49-.14.76-.14.53.05.76.14.43.22.6.37.3.34.4.54.14.42.14.65c0,.21-.04.4-.12.55s-.17.28-.26.39c-.11.12-.24.23-.37.31.19.09.35.2.5.35.13.13.24.29.34.5s.15.46.15.75c0,.25-.05.49-.15.71s-.25.42-.43.59-.41.3-.68.4-.56.15-.88.15ZM190.36,150.98c-.38,0-.68.1-.89.3s-.32.45-.32.75.1.55.32.75.51.3.89.3.68-.1.89-.3.32-.45.32-.75-.1-.55-.32-.75-.5-.3-.89-.3ZM190.36,150.13c.28,0,.51-.08.68-.25s.26-.37.26-.6c0-.25-.09-.47-.26-.64s-.4-.26-.68-.26-.51.09-.69.26-.27.39-.27.64c0,.23.09.43.27.6s.41.25.69.25Z"></path>
      <path class=" st18_1436670229" d="M193.74,152.83c.15,0,.28.06.39.17s.16.26.16.43c0,.25-.04.47-.12.65s-.18.32-.28.43c-.12.13-.25.24-.4.32l-.15-.2c.07-.04.13-.11.19-.18.05-.06.1-.13.15-.22s.08-.19.11-.3c-.17,0-.32-.05-.43-.16s-.17-.24-.17-.39.05-.28.16-.39.24-.16.39-.16Z"></path>
      <path class=" st18_1436670229" d="M195.02,149.28c.01-.24.07-.47.17-.68s.24-.4.42-.55.39-.29.63-.38.52-.14.82-.14c.29,0,.55.05.79.14s.45.23.63.39.32.35.42.56.15.43.15.66-.04.42-.12.59-.18.3-.28.4c-.12.12-.25.22-.4.31.19.09.35.2.5.34.13.12.24.28.34.48s.15.44.15.73c0,.24-.05.47-.15.68s-.25.4-.43.57-.41.3-.68.4-.56.15-.88.15-.62-.05-.88-.14-.48-.22-.67-.38-.33-.34-.43-.55-.16-.44-.18-.68h.95c.01.11.05.22.11.33s.14.2.24.29.23.15.37.21.3.08.48.08c.38,0,.68-.1.89-.29s.32-.43.32-.71-.11-.52-.32-.71-.51-.29-.88-.29h-.45v-.85h.4c.33,0,.58-.09.77-.26s.28-.39.28-.64c0-.28-.09-.51-.28-.68s-.44-.26-.77-.26-.58.09-.78.26-.3.39-.33.64h-.95Z"></path>
    </g>
    <g>
      <path class=" st18_1436670229" d="M305.98,70.84c.29,0,.56.06.82.16s.48.26.67.46c.19.2.34.43.45.69s.17.54.17.84-.06.58-.17.84-.27.49-.47.69c-.2.2-.43.35-.7.46s-.56.16-.87.16-.6-.05-.85-.14-.47-.22-.65-.38-.32-.34-.42-.55-.16-.44-.18-.68h.95c.01.11.05.22.11.33.06.11.14.2.24.29s.22.15.36.21.29.08.44.08c.17,0,.33-.03.49-.1s.29-.16.4-.27.2-.25.27-.41c.06-.16.1-.33.1-.52s-.03-.36-.1-.52c-.06-.16-.15-.3-.27-.41s-.25-.2-.4-.27-.32-.1-.49-.1c-.2,0-.37.04-.52.12-.15.08-.27.17-.36.26-.11.11-.2.24-.27.37h-.8l.4-3.65h3.35v.9h-2.54l-.16,1.5c.08-.06.16-.12.27-.17.09-.04.19-.09.32-.12.12-.04.26-.06.41-.06Z"></path>
      <path class=" st18_1436670229" d="M309.36,74.04c.15,0,.28.06.39.17s.16.26.16.43c0,.25-.04.47-.12.64-.08.18-.18.32-.28.43-.12.13-.25.24-.4.32l-.15-.2c.07-.04.13-.11.19-.18.05-.06.1-.13.15-.22s.08-.19.11-.3c-.17,0-.32-.05-.43-.16s-.17-.24-.17-.39.05-.28.16-.39.24-.16.39-.16Z"></path>
      <path class=" st18_1436670229" d="M314.94,73.84h-.7v1.25h-.95v-1.25h-2.8v-.8l2.65-4.25h1.1v4.15h.7v.9ZM313.29,72.94v-2.75l-1.7,2.75h1.7Z"></path>
    </g>
    <g>
      <path class=" st18_1436670229" d="M135.84,328.76c-.33,0-.62-.05-.88-.15-.26-.1-.49-.23-.68-.4-.19-.17-.33-.36-.44-.59-.1-.22-.16-.46-.16-.72,0-.3.05-.55.16-.76.1-.2.22-.37.35-.49.15-.15.31-.26.5-.35-.14-.09-.27-.19-.38-.31-.09-.11-.18-.24-.25-.39s-.11-.33-.11-.55c0-.23.05-.44.14-.65.09-.2.22-.38.39-.54s.37-.28.6-.37c.23-.09.49-.14.76-.14s.53.05.76.14c.23.09.43.22.6.37s.3.34.4.54c.09.2.14.42.14.65,0,.21-.04.4-.12.55-.08.15-.17.28-.26.39-.11.12-.24.23-.37.31.19.09.35.2.5.35.13.13.24.29.34.49.1.2.15.45.15.76,0,.25-.05.49-.15.72-.1.22-.25.42-.43.59-.19.17-.41.3-.68.4-.26.1-.56.15-.88.15ZM135.84,325.81c-.38,0-.68.1-.89.3-.21.2-.32.45-.32.75s.1.55.32.75c.21.2.51.3.89.3s.68-.1.89-.3c.21-.2.32-.45.32-.75s-.1-.55-.32-.75c-.21-.2-.51-.3-.89-.3ZM135.84,324.96c.28,0,.51-.08.68-.25s.26-.37.26-.6c0-.25-.09-.47-.26-.64s-.4-.26-.68-.26-.51.09-.69.26-.27.39-.27.64c0,.23.09.43.27.6s.41.25.69.25Z"></path>
      <path class=" st18_1436670229" d="M139.21,327.66c.15,0,.28.06.39.17s.16.26.16.43c0,.25-.04.47-.12.64s-.18.32-.28.43c-.12.13-.25.24-.4.32l-.15-.2c.07-.05.13-.11.19-.18.05-.06.1-.13.15-.22s.08-.19.11-.3c-.17,0-.32-.05-.43-.16-.11-.11-.17-.23-.17-.39s.05-.28.16-.39.24-.16.39-.16Z"></path>
      <path class=" st18_1436670229" d="M144.79,327.46h-.7v1.25h-.95v-1.25h-2.8v-.8l2.65-4.25h1.1v4.15h.7v.9ZM143.14,326.56v-2.75l-1.7,2.75h1.7Z"></path>
    </g>
    <g>
      <path class=" st18_1436670229" d="M131.53,402.15c.31,0,.6.05.87.16.27.11.5.26.7.46.2.2.35.42.47.69s.17.54.17.84c0,.19-.03.38-.1.56s-.13.35-.21.49c-.09.17-.19.33-.3.49l-1.75,2.65h-1.05l1.4-2.1s-.07.02-.11.03c-.03,0-.07.01-.12.02s-.1,0-.16,0c-.26,0-.51-.05-.75-.16-.24-.11-.46-.26-.64-.46-.18-.2-.33-.42-.44-.69s-.17-.54-.17-.84.06-.58.17-.84.27-.49.47-.69c.2-.2.43-.35.7-.46.27-.11.56-.16.87-.16ZM132.78,404.3c0-.19-.03-.36-.1-.52-.06-.16-.15-.3-.27-.41-.11-.11-.25-.2-.4-.27-.15-.07-.32-.1-.49-.1s-.34.03-.49.1c-.15.07-.29.16-.4.27-.11.11-.2.25-.27.41s-.1.33-.1.52.03.36.1.52.15.3.27.41.25.2.4.27c.15.07.32.1.49.1s.34-.03.49-.1c.15-.07.29-.16.4-.27s.2-.25.27-.41.1-.33.1-.52Z"></path>
      <path class=" st18_1436670229" d="M134.96,407.45c.15,0,.28.06.39.17s.16.26.16.43c0,.25-.04.47-.12.64s-.18.32-.28.43c-.12.13-.25.24-.4.32l-.15-.2c.07-.05.13-.11.19-.18.05-.06.1-.13.15-.22s.08-.19.11-.3c-.17,0-.32-.05-.43-.16-.11-.11-.17-.23-.17-.39s.05-.28.16-.39.24-.16.39-.16Z"></path>
      <path class=" st18_1436670229" d="M140.19,402.2v.65l-2.6,5.65h-1l2.5-5.4h-2.85v-.9h3.95Z"></path>
    </g>
    <g>
      <path class=" st18_1436670229" d="M431.77,316.33v6.3h-.95v-5l-.85.55-.45-.75,1.6-1.1h.65Z"></path>
      <path class=" st18_1436670229" d="M437.95,319.48c0,.52-.07.97-.2,1.36-.13.4-.32.73-.55,1s-.5.48-.8.62-.62.21-.96.21-.66-.07-.96-.21c-.3-.14-.57-.35-.8-.62-.23-.27-.41-.61-.54-1-.13-.39-.2-.85-.2-1.36s.07-.97.2-1.37.32-.73.54-1c.23-.27.49-.48.79-.62s.62-.21.96-.21.66.07.96.21.56.35.8.62c.23.27.41.61.55,1s.2.85.2,1.37ZM437,319.48c0-.39-.05-.73-.13-1.02-.09-.29-.21-.54-.35-.73-.15-.2-.31-.35-.5-.45-.19-.1-.37-.15-.56-.15s-.37.05-.56.15c-.19.1-.35.25-.5.45-.15.2-.27.44-.36.73s-.14.63-.14,1.02.05.73.14,1.02.21.54.36.73c.15.2.31.35.5.45.19.1.37.15.56.15s.37-.05.56-.15c.19-.1.35-.25.5-.45.15-.2.27-.44.35-.73s.13-.63.13-1.02Z"></path>
      <path class=" st18_1436670229" d="M439.23,321.58c.15,0,.28.06.39.17s.16.26.16.43c0,.25-.04.47-.12.64-.08.18-.18.32-.28.43-.12.13-.25.24-.4.32l-.15-.2c.07-.05.13-.11.19-.18.05-.06.1-.13.15-.22s.08-.19.11-.3c-.17,0-.32-.05-.43-.16-.11-.11-.17-.23-.17-.39s.05-.28.16-.39.24-.16.39-.16Z"></path>
      <path class=" st18_1436670229" d="M442.65,322.68c-.31,0-.6-.05-.87-.16-.27-.11-.5-.26-.7-.46-.2-.2-.35-.42-.47-.69s-.17-.54-.17-.84c0-.19.03-.37.1-.56.06-.19.13-.35.21-.5.09-.17.19-.34.3-.49l1.75-2.65h1.05l-1.4,2.1s.07-.01.12-.02c.03,0,.07-.01.12-.02.05,0,.1-.01.15-.01.26,0,.51.05.76.16.24.11.45.26.64.46.18.2.33.42.44.69s.17.54.17.84-.06.58-.17.84-.27.49-.47.69c-.2.2-.43.35-.7.46-.27.11-.56.16-.87.16ZM441.4,320.53c0,.19.03.36.1.52.06.16.15.3.27.41.11.11.25.2.4.27.15.07.32.1.49.1s.33-.03.49-.1c.15-.07.29-.16.4-.27.11-.11.2-.25.27-.41.06-.16.1-.33.1-.52s-.03-.36-.1-.52c-.06-.16-.15-.3-.27-.41-.11-.11-.25-.2-.4-.27-.15-.07-.32-.1-.49-.1s-.33.03-.49.1c-.15.07-.29.16-.4.27-.11.11-.2.25-.27.41-.06.16-.1.33-.1.52Z"></path>
      <path class=" st18_1436670229" d="M448.36,324.43h-.85l2.6-8.1h.85l-2.6,8.1Z"></path>
      <path class=" st18_1436670229" d="M455.91,318.39c.29,0,.56.05.82.16.26.11.48.26.67.46.19.2.34.42.45.69s.17.54.17.84-.06.58-.17.84-.27.49-.47.69c-.2.2-.43.35-.7.46-.27.11-.56.16-.87.16s-.6-.05-.85-.14c-.25-.09-.47-.22-.65-.38s-.32-.34-.42-.55c-.1-.21-.16-.43-.18-.68h.95c.01.11.05.22.11.33.06.11.14.2.24.29.1.09.22.15.36.2.14.05.29.08.44.08.17,0,.33-.03.49-.1.15-.07.29-.16.4-.27.11-.11.2-.25.27-.41.06-.16.1-.33.1-.52s-.03-.36-.1-.52c-.06-.16-.15-.3-.27-.41-.11-.11-.25-.2-.4-.27-.15-.07-.32-.1-.49-.1-.2,0-.37.04-.52.12-.15.08-.27.17-.36.26-.11.11-.2.24-.27.37h-.8l.4-3.65h3.35v.9h-2.54l-.16,1.5c.08-.06.16-.11.27-.17.09-.05.19-.09.32-.12.12-.03.26-.05.41-.05Z"></path>
      <path class=" st18_1436670229" d="M459.3,321.58c.15,0,.28.06.39.17s.16.26.16.43c0,.25-.04.47-.12.64-.08.18-.18.32-.28.43-.12.13-.25.24-.4.32l-.15-.2c.07-.05.13-.11.19-.18.05-.06.1-.13.15-.22s.08-.19.11-.3c-.17,0-.32-.05-.43-.16-.11-.11-.17-.23-.17-.39s.05-.28.16-.39.24-.16.39-.16Z"></path>
      <path class=" st18_1436670229" d="M460.58,318.03c.01-.24.07-.47.17-.68.1-.21.24-.4.42-.55.18-.16.39-.29.64-.38.24-.09.52-.14.82-.14.29,0,.55.05.79.14.24.1.45.23.64.39.18.16.32.35.42.56.1.21.15.43.15.66s-.04.42-.12.59c-.08.16-.18.3-.28.4-.12.12-.25.22-.4.31.19.09.35.2.5.34.13.12.24.28.34.48.1.2.15.44.15.73,0,.24-.05.47-.15.68-.1.21-.25.4-.43.57-.19.17-.41.3-.68.4s-.56.15-.88.15-.62-.05-.88-.14c-.26-.09-.48-.22-.67-.38-.18-.16-.33-.34-.43-.55-.1-.21-.16-.43-.18-.68h.95c.01.11.05.22.11.33.06.11.14.2.24.29.1.09.23.15.37.2.15.05.3.08.48.08.38,0,.68-.1.89-.29.21-.19.31-.43.31-.71s-.11-.52-.32-.71-.51-.29-.88-.29h-.45v-.85h.4c.33,0,.58-.09.77-.26.19-.17.28-.39.28-.64,0-.28-.09-.51-.28-.68-.19-.18-.44-.26-.77-.26s-.58.09-.78.26-.3.39-.33.64h-.95Z"></path>
      <path class=" st18_1436670229" d="M466.45,317.93l-1-.25.2-.65.95.35-.05-1.05h.7l-.05,1.05.95-.35.2.65-1,.25.65.8-.6.4-.5-.85-.5.85-.6-.4.65-.8Z"></path>
    </g>
  </g>
</svg></svg>