<svg xmlns="http://www.w3.org/2000/svg" version="1.1" xmlns:xlink="http://www.w3.org/1999/xlink"><svg data-name="Слой_1" xmlns="http://www.w3.org/2000/svg" xmlns:xlink="http://www.w3.org/1999/xlink" version="1.1" viewBox="0 0 560 560">
  
  <defs>
    <style>
      .st0_1053691972, .st1_1053691972, .st2_1053691972, .st3_1053691972, .st4_1053691972, .st5_1053691972, .st6_1053691972 {
        fill: none;
      }

      .st1_1053691972, .st2_1053691972, .st3_1053691972, .st4_1053691972, .st5_1053691972, .st7_1053691972, .st8_1053691972, .st9_1053691972, .st10_1053691972, .st11_1053691972, .st12_1053691972, .st13_1053691972, .st14_1053691972, .st15_1053691972, .st16_1053691972, .st17_1053691972, .st6_1053691972, .st18_1053691972, .st19_1053691972 {
        stroke-linecap: round;
        stroke-linejoin: round;
      }

      .st1_1053691972, .st5_1053691972, .st9_1053691972, .st11_1053691972, .st6_1053691972, .st18_1053691972, .st19_1053691972 {
        stroke-width: .5px;
      }

      .st1_1053691972, .st9_1053691972 {
        stroke: #d8cbb5;
      }

      .st2_1053691972 {
        stroke-width: .25px;
      }

      .st2_1053691972, .st3_1053691972, .st4_1053691972, .st5_1053691972, .st7_1053691972, .st8_1053691972, .st10_1053691972, .st11_1053691972, .st12_1053691972, .st13_1053691972, .st14_1053691972, .st15_1053691972, .st16_1053691972, .st17_1053691972, .st6_1053691972, .st19_1053691972 {
        stroke: #1b4732;
      }

      .st3_1053691972 {
        stroke-width: .5px;
      }

      .st4_1053691972 {
        stroke-width: .5px;
      }

      .st7_1053691972 {
        stroke-width: .5px;
      }

      .st7_1053691972, .st8_1053691972 {
        fill: #fff;
      }

      .st8_1053691972 {
        stroke-width: .5px;
      }

      .st9_1053691972 {
        fill: url(#_Терраса);
      }

      .st20_1053691972 {
        fill: #1b4732;
      }

      .st10_1053691972 {
        stroke-width: .5px;
      }

      .st10_1053691972, .st11_1053691972, .st12_1053691972, .st13_1053691972, .st14_1053691972, .st15_1053691972, .st16_1053691972, .st17_1053691972 {
        fill: #f5e8d1;
      }

      .st12_1053691972 {
        stroke-width: .5px;
      }

      .st13_1053691972 {
        stroke-width: .5px;
      }

      .st14_1053691972 {
        stroke-width: .5px;
      }

      .st15_1053691972 {
        stroke-width: .5px;
      }

      .st16_1053691972 {
        stroke-width: .5px;
      }

      .st17_1053691972 {
        stroke-width: .5px;
      }

      .st6_1053691972 {
        stroke-dasharray: 3;
      }

      .st18_1053691972 {
        fill: #666c35;
        stroke: #666c35;
      }

      .st19_1053691972 {
        fill: #e1d1b6;
      }
    </style>
    <pattern data-name="Терраса" x="0" y="0" width="10.1" height="8.7" patternTransform="translate(-8 -15304) scale(1 -1)" patternUnits="userSpaceOnUse" viewBox="0 0 10.1 8.7">
      <g>
        <rect class=" st0_1053691972" width="10.1" height="8.7"></rect>
        <g>
          <rect class=" st0_1053691972" width="10.1" height="8.7"></rect>
          <g>
            <line class=" st1_1053691972" x1="10.15" y1="6.4" x2="20.15" y2="6.4"></line>
            <line class=" st1_1053691972" x1="10.15" y1="2.3" x2="20.15" y2="2.3"></line>
          </g>
          <g>
            <line class=" st1_1053691972" x1=".05" y1="6.4" x2="10.05" y2="6.4"></line>
            <line class=" st1_1053691972" x1=".05" y1="2.3" x2="10.05" y2="2.3"></line>
          </g>
          <g>
            <line class=" st1_1053691972" x1="-10.05" y1="6.4" x2="-.05" y2="6.4"></line>
            <line class=" st1_1053691972" x1="-10.05" y1="2.3" x2="-.05" y2="2.3"></line>
          </g>
        </g>
      </g>
    </pattern>
  </defs>
  <g>
    <line class=" st6_1053691972" x1="342.05" y1="295.27" x2="342.05" y2="204.37"></line>
    <line class=" st6_1053691972" x1="351.12" y1="295.27" x2="320.03" y2="295.27"></line>
  </g>
  <g>
    <path class=" st9_1053691972" d="M501.01,191.97c0-22.05-17.94-40-40-40h-126c-22.17,0-40.23,17.94-40.43,40.08h49.23s-.02,3.04-.02,3.04h107.49v-3.04l49.73-.07h0Z"></path>
  </g>
  <g>
    <rect class=" st5_1053691972" x="499.75" y="349.65" width="5.23" height="23.64"></rect>
    <rect class=" st5_1053691972" x="499.75" y="332.25" width="5.23" height="15.64"></rect>
    <rect class=" st5_1053691972" x="499.75" y="306.92" width="5.23" height="23.57"></rect>
    <rect class=" st5_1053691972" x="499.75" y="274.83" width="5.23" height="30.33"></rect>
    <rect class=" st5_1053691972" x="499.75" y="257.36" width="5.23" height="15.68"></rect>
    <rect class=" st5_1053691972" x="499.75" y="224.77" width="5.23" height="30.83"></rect>
    <rect class=" st5_1053691972" x="451.28" y="192.05" width="27.95" height="5.23"></rect>
    <polygon class=" st5_1053691972" points="504.98 192.05 504.98 223 499.75 223 499.75 197.27 481.01 197.27 481.01 192.05 504.98 192.05"></polygon>
    <rect class=" st5_1053691972" x="314.27" y="192.05" width="29.54" height="5.23"></rect>
    <rect class=" st5_1053691972" x="154.62" y="218.56" width="19.58" height="5.23"></rect>
    <rect class=" st5_1053691972" x="175.96" y="218.56" width="15.38" height="5.23"></rect>
    <rect class=" st5_1053691972" x="193.11" y="218.56" width="57.78" height="5.23"></rect>
    <rect class=" st5_1053691972" x="252.65" y="218.56" width="15.38" height="5.23"></rect>
    <rect class=" st5_1053691972" x="269.8" y="218.56" width="20.8" height="5.23"></rect>
    <rect class=" st5_1053691972" x="499.75" y="223" width="5.23" height="1.76"></rect>
    <rect class=" st5_1053691972" x="288.83" y="218.56" width="1.77" height="5.23"></rect>
    <rect class=" st5_1053691972" x="268.04" y="218.56" width="1.76" height="5.23"></rect>
    <rect class=" st5_1053691972" x="250.89" y="218.56" width="1.76" height="5.23"></rect>
    <rect class=" st5_1053691972" x="191.35" y="218.56" width="1.76" height="5.23"></rect>
    <rect class=" st5_1053691972" x="174.2" y="218.56" width="1.76" height="5.23"></rect>
    <rect class=" st5_1053691972" x="152.91" y="218.56" width="1.71" height="5.23"></rect>
    <rect class=" st5_1053691972" x="231.55" y="218.55" width="1.77" height="5.23"></rect>
    <rect class=" st5_1053691972" x="212.01" y="218.55" width="1.77" height="5.23"></rect>
    <rect class=" st5_1053691972" x="314.82" y="192.04" width="1.77" height="5.23"></rect>
    <rect class=" st5_1053691972" x="499.75" y="255.6" width="5.23" height="1.76"></rect>
    <rect class=" st5_1053691972" x="499.75" y="273.05" width="5.23" height="1.78"></rect>
    <rect class=" st5_1053691972" x="499.75" y="305.15" width="5.23" height="1.76"></rect>
    <rect class=" st5_1053691972" x="499.75" y="330.49" width="5.23" height="1.76"></rect>
    <rect class=" st5_1053691972" x="499.75" y="347.89" width="5.23" height="1.76"></rect>
    <rect class=" st5_1053691972" x="499.75" y="373.29" width="5.23" height="1.76"></rect>
    <rect class=" st5_1053691972" x="59.72" y="148" width="31.29" height="5.3"></rect>
    <rect class=" st5_1053691972" x="92.79" y="148" width="15.66" height="5.3"></rect>
    <path class=" st5_1053691972" d="M129.78,159.08c5.54,3.46,10.13,8.23,13.25,13.96l5.27-2.97c-7.95-14.63-20.22-21.77-38.07-22.05v5.28c6.54.13,12.69,1.89,18.03,4.88l1.53.9Z"></path>
    <path class=" st5_1053691972" d="M152.86,189.76c-.24-6.14-1.18-12.71-3.77-17.92l-5.22,2.85c2.34,4.8,3.68,9.46,3.75,15.15l5.24-.07Z"></path>
    <path class=" st5_1053691972" d="M132.92,153.64l-1.55-.85-.55.94-2.55,4.45c.51.28,1.03.58,1.52.9l2.57-4.45.57-.99Z"></path>
    <path class=" st5_1053691972" d="M132.35,154.63c6.26,3.84,11.46,9.55,14.95,16"></path>
    <path class=" st5_1053691972" d="M130.73,153.86c-5.97-3.32-13.12-4.6-20.51-4.72"></path>
    <line class=" st5_1053691972" x1="91.01" y1="149.14" x2="59.72" y2="149.14"></line>
    <polyline class=" st5_1053691972" points="92.79 149.14 101.73 149.14 108.45 149.14"></polyline>
    <path class=" st5_1053691972" d="M110.23,153.3v-5.28c-.24-.02-1.78-.02-1.78-.02v5.3h1.78Z"></path>
    <rect class=" st5_1053691972" x="91.01" y="148" width="1.78" height="5.3"></rect>
    <rect class=" st5_1053691972" x="91.01" y="153.3" width="1.78" height=".02"></rect>
    <rect class=" st5_1053691972" x="57.94" y="148" width="1.78" height="5.3"></rect>
    <path class=" st5_1053691972" d="M152.91,191.54c0-.6-.02-1.18-.05-1.78l-5.24.07.02.85c.02.17,0,.66,0,.85h5.27Z"></path>
    <path class=" st5_1053691972" d="M147.62,191.11h.02c0-.19,0-.38-.02-.55v.55Z"></path>
    <path class=" st5_1053691972" d="M149.09,171.84c-.12-.39-.8-1.77-.8-1.77l-5.27,2.97c.27.46.84,1.65.84,1.65l5.22-2.84Z"></path>
    <polygon class=" st5_1053691972" points="504.98 193.29 504.98 223 504.1 223 504.1 194.19 504.98 193.29"></polygon>
    <rect class=" st5_1053691972" x="504.1" y="224.77" width=".88" height="30.83"></rect>
    <rect class=" st5_1053691972" x="451.28" y="192.05" width="1.78" height="5.23"></rect>
    <line class=" st5_1053691972" x1="451.28" y1="192.05" x2="451.28" y2="192.93"></line>
    <rect class=" st5_1053691972" x="479.23" y="192.05" width="1.78" height="5.23"></rect>
    <rect class=" st5_1053691972" x="453.06" y="192.05" width="26.17" height=".88"></rect>
    <polygon class=" st5_1053691972" points="503.73 192.04 502.87 192.93 481.01 192.93 481.01 192.05 503.73 192.04"></polygon>
    <rect class=" st5_1053691972" x="504.1" y="257.36" width=".88" height="15.68"></rect>
    <rect class=" st5_1053691972" x="504.1" y="274.83" width=".88" height="30.33"></rect>
    <rect class=" st5_1053691972" x="504.1" y="306.92" width=".88" height="23.57"></rect>
    <rect class=" st5_1053691972" x="504.1" y="332.25" width=".88" height="15.64"></rect>
    <rect class=" st5_1053691972" x="504.1" y="349.65" width=".88" height="23.64"></rect>
    <rect class=" st5_1053691972" x="342.05" y="192.05" width="1.76" height="5.23"></rect>
    <rect class=" st5_1053691972" x="316.58" y="192.05" width="25.46" height=".88"></rect>
    <line class=" st5_1053691972" x1="343.81" y1="192.93" x2="343.81" y2="192.05"></line>
    <rect class=" st5_1053691972" x="154.62" y="218.56" width="19.58" height=".88"></rect>
    <rect class=" st5_1053691972" x="175.96" y="218.56" width="15.38" height=".88"></rect>
    <rect class=" st5_1053691972" x="193.11" y="218.56" width="18.9" height=".88"></rect>
    <rect class=" st5_1053691972" x="213.77" y="218.55" width="17.78" height=".88"></rect>
    <polygon class=" st5_1053691972" points="288.87 218.55 288.87 219.43 269.8 219.43 269.8 218.56 268.04 218.56 268.04 219.43 252.65 219.43 252.65 218.56 250.89 218.56 250.89 219.43 233.32 219.43 233.32 218.55 288.87 218.55"></polygon>
    <line class=" st5_1053691972" x1="499.75" y1="198.52" x2="504.98" y2="193.29"></line>
    <line class=" st5_1053691972" x1="503.73" y1="192.04" x2="498.5" y2="197.27"></line>
    <path class=" st5_1053691972" d="M148.1,172.38c2.49,5.07,3.47,11.37,3.73,17.38"></path>
  </g>
  <g>
    <rect class=" st7_1053691972" x="259.87" y="218.24" width=".63" height="15.77" transform="translate(-25.57 418.92) rotate(-75)"></rect>
    <rect class=" st7_1053691972" x="176.01" y="225.82" width="15.77" height=".63" transform="translate(-52.26 55.3) rotate(-15)"></rect>
    <rect class=" st8_1053691972" x="497.09" y="257.65" width=".63" height="15.77" transform="translate(-51.77 137.78) rotate(-15)"></rect>
    <rect class=" st8_1053691972" x="489.5" y="339.47" width="15.77" height=".63" transform="translate(40.45 732.28) rotate(-75)"></rect>
    <rect class=" st7_1053691972" x="92.87" y="155.33" width="15.77" height=".63" transform="translate(-36.85 31.38) rotate(-15)"></rect>
  </g>
  <g>
    <path class=" st2_1053691972" d="M308.25,204.37v-7.13s191.5.03,191.5.03l-7.61,7.13-183.89-.03ZM492.06,204.28v-6.93M495.97,201.07v-3.72M487.68,204.38v-7.11M483.37,204.38v-7.11M479.07,204.38v-7.11M474.77,204.38v-7.11M470.47,204.38v-7.11M466.17,204.38v-7.11M461.86,204.38v-7.11M457.56,204.38v-7.11M453.26,204.38v-7.11M448.95,204.38v-7.11M444.65,204.38v-7.11M440.35,204.38v-7.11M436.05,204.38v-7.11M431.75,204.38v-7.11M427.44,204.38v-7.11M423.14,204.38v-7.11M418.84,204.37v-7.11M414.82,204.37v-7.11M410.79,204.37v-7.11M406.77,204.37v-7.11M402.75,204.37v-7.11M398.73,204.37v-7.11M394.7,204.37v-7.11M390.68,204.37v-7.11M386.66,204.37v-7.11M382.64,204.37v-7.11M378.61,204.37v-7.11M374.59,204.37v-7.11M370.49,204.37v-7.11M366.39,204.37v-7.11M362.29,204.37v-7.11M358.12,204.37v-7.11M353.95,204.37v-7.11M349.78,204.37v-7.11M345.61,204.37v-7.11M341.44,204.37v-7.11M337.27,204.37v-7.11M332.76,204.37v-7.11M328.18,204.37v-7.11M324.1,204.37v-7.11M319.59,204.37v-7.11M315.01,204.37v-7.11M310.92,204.37v-7.11M499.75,197.27v103.8h-7.13v-96.71M495.97,201.07h3.7M492.7,204.99h6.97M499.76,209.37h-7.15M499.76,213.68h-7.15M499.76,217.9h-7.15M499.76,222.12h-7.15M499.76,226.35h-7.15M499.76,230.57h-7.15M499.76,234.79h-7.15M499.76,239.02h-7.15M499.76,243.24h-7.15M499.76,247.47h-7.15M499.76,251.69h-7.15M499.76,255.91h-7.15M499.76,260.14h-7.15M499.76,264.36h-7.15M499.76,268.58h-7.15M499.76,272.81h-7.15M499.76,277.03h-7.15M499.76,281.25h-7.15M499.76,285.48h-7.15M499.76,289.7h-7.15M499.76,293.92h-7.15M499.76,298.15h-7.15M492.69,310.84h7.14v63.33h-7.14v-63.33ZM499.75,314.59h-6.98M499.75,318.35h-6.98M499.75,322.1h-6.98M499.75,325.85h-6.98M499.75,329.6h-6.98M499.75,333.35h-6.98M499.75,337.1h-6.98M499.75,340.85h-6.98M499.75,344.61h-6.98M499.75,348.36h-6.98M499.75,352.11h-6.98M499.75,355.86h-6.98M499.75,359.61h-6.98M499.75,363.36h-6.98M499.75,367.11h-6.98M499.75,370.86h-6.98M55.7,160.79v-7.42h54.52c21.4.91,37.89,18.39,37.41,36.89v1.25h-7.65v-1.25c0-16.28-13.32-29.47-29.76-29.47h-54.52ZM68.24,153.3v7.41M72.42,153.3v7.41M76.6,153.3v7.41M80.78,153.3v7.41M59.88,153.3v7.41M64.06,153.3v7.41M84.96,153.3v7.41M89.13,153.3v7.41M93.31,153.3v7.41M97.49,153.3v7.41M101.67,153.3v7.41M105.85,153.3v7.41M110.03,153.3v7.41M114.63,153.65l-.87,7.29M119.15,154.61l-1.75,7M123.52,156.08l-2.58,6.63M127.67,158.04l-3.35,6.18M131.62,160.36l-4.16,5.8M135.17,163.27l-4.82,5.22M138.37,166.53l-5.44,4.59M141.14,170.16l-5.97,3.89M143.7,173.98l-6.71,3.27M145.49,178.23l-7.07,2.41M146.75,182.65l-7.32,1.52M147.4,187.2l-7.45.61M232.79,230.77v-6.98M236.5,230.77v-6.98M240.22,230.77v-6.98M243.93,230.77v-6.98M229.07,230.77v-6.98M232.79,230.77v-6.98M247.65,230.77v-6.98M251.37,230.77v-6.98M255.08,230.77v-6.98M258.8,230.77v-6.98M262.51,230.77v-6.98M266.23,230.77v-6.98M269.95,230.77v-6.98M273.66,230.77v-6.98M277.38,230.77v-6.98M281.1,230.77v-6.98M284.81,230.77v-6.98M288.53,230.77v-6.98M225.35,230.93h67.67v-7.14h-67.67v7.14h0ZM215.94,230.77v-6.98M212.22,230.77v-6.98M208.51,230.77v-6.98M204.79,230.77v-6.98M201.07,230.77v-6.98M197.36,230.77v-6.98M193.64,230.77v-6.98M189.93,230.77v-6.98M186.21,230.77v-6.98M182.49,230.77v-6.98M178.78,230.77v-6.98M175.06,230.77v-6.98M171.35,230.77v-6.98M167.63,230.77v-6.98M163.91,230.77v-6.98M160.2,230.77v-6.98M156.48,230.77v-6.98M152.76,230.93v-7.14M151.03,230.93h68.63v-7.14h-68.63v7.14Z"></path>
  </g>
  <g>
    <rect class=" st11_1053691972" x="82.04" y="352.18" width=".83" height="24.19"></rect>
    <rect class=" st11_1053691972" x="177.24" y="344.83" width=".83" height="17.8"></rect>
    <rect class=" st16_1053691972" x="96.85" y="352.17" width="15.66" height=".83"></rect>
    <rect class=" st17_1053691972" x="81.12" y="347.11" width="13.98" height=".83" transform="translate(-219.93 164.09) rotate(-45)"></rect>
    <rect class=" st15_1053691972" x="52.78" y="352.18" width="15.28" height=".83"></rect>
    <rect class=" st17_1053691972" x="76.39" y="340.54" width=".83" height="13.98" transform="translate(-223.24 156.1) rotate(-45)"></rect>
    <g>
      <rect class=" st11_1053691972" x="326.87" y="164.06" width="29.16" height="14.99"></rect>
      <g>
        <path class=" st11_1053691972" d="M329.57,184.41v-5.37h8.28v5.37c0,1.1-.89,2-2,2h-4.28c-1.1,0-2-.89-2-2Z"></path>
        <path class=" st11_1053691972" d="M329.57,182.4v-3.35h8.28v3.35c0,1.1-.89,2-2,2h-4.28c-1.1,0-2-.9-2-2Z"></path>
      </g>
      <g>
        <path class=" st11_1053691972" d="M344.85,184.41v-5.37h8.28v5.37c0,1.1-.89,2-2,2h-4.28c-1.1,0-2-.89-2-2Z"></path>
        <path class=" st11_1053691972" d="M344.85,182.4v-3.35h8.28v3.35c0,1.1-.89,2-2,2h-4.28c-1.1,0-2-.9-2-2Z"></path>
      </g>
      <g>
        <path class=" st11_1053691972" d="M353.13,158.69v5.37h-8.28v-5.37c0-1.1.89-2,2-2h4.28c1.11,0,2,.9,2,2Z"></path>
        <path class=" st11_1053691972" d="M353.13,160.7v3.35h-8.28v-3.35c0-1.1.89-2,2-2h4.28c1.11,0,2,.89,2,2Z"></path>
      </g>
      <g>
        <path class=" st11_1053691972" d="M337.85,158.69v5.37h-8.28v-5.37c0-1.1.89-2,2-2h4.28c1.1,0,2,.9,2,2Z"></path>
        <path class=" st11_1053691972" d="M337.85,160.7v3.35h-8.28v-3.35c0-1.1.89-2,2-2h4.28c1.1,0,2,.89,2,2Z"></path>
      </g>
    </g>
    <g>
      <rect class=" st11_1053691972" x="339.71" y="223.01" width="22.26" height="45.13"></rect>
      <g>
        <path class=" st11_1053691972" d="M369.26,265.62h-7.28v-10.44h7.28c1.11,0,2,.89,2,2v6.44c0,1.1-.9,2-2,2Z"></path>
        <path class=" st11_1053691972" d="M366.72,265.62h-4.75v-10.44h4.75c1.11,0,2,.89,2,2v6.44c0,1.1-.9,2-2,2Z"></path>
      </g>
      <g>
        <path class=" st11_1053691972" d="M369.26,251.05h-7.28v-10.44h7.28c1.11,0,2,.9,2,2v6.44c0,1.11-.9,2-2,2Z"></path>
        <path class=" st11_1053691972" d="M366.72,251.05h-4.75v-10.44h4.75c1.11,0,2,.9,2,2v6.44c0,1.11-.9,2-2,2Z"></path>
      </g>
      <g>
        <path class=" st11_1053691972" d="M369.26,236.62h-7.28v-10.44h7.28c1.11,0,2,.9,2,2v6.44c0,1.11-.9,2-2,2Z"></path>
        <path class=" st11_1053691972" d="M366.72,236.62h-4.75v-10.44h4.75c1.11,0,2,.9,2,2v6.44c0,1.11-.9,2-2,2Z"></path>
      </g>
      <g>
        <path class=" st11_1053691972" d="M332.43,265.62h7.28v-10.44h-7.28c-1.11,0-2,.89-2,2v6.44c0,1.1.9,2,2,2Z"></path>
        <path class=" st11_1053691972" d="M334.96,265.62h4.75v-10.44h-4.75c-1.11,0-2,.89-2,2v6.44c0,1.1.9,2,2,2Z"></path>
      </g>
      <g>
        <path class=" st11_1053691972" d="M332.43,251.05h7.28v-10.44h-7.28c-1.11,0-2,.9-2,2v6.44c0,1.11.9,2,2,2Z"></path>
        <path class=" st11_1053691972" d="M334.96,251.05h4.75v-10.44h-4.75c-1.11,0-2,.9-2,2v6.44c0,1.11.9,2,2,2Z"></path>
      </g>
      <g>
        <path class=" st11_1053691972" d="M332.43,236.62h7.28v-10.44h-7.28c-1.11,0-2,.9-2,2v6.44c0,1.11.9,2,2,2Z"></path>
        <path class=" st11_1053691972" d="M334.96,236.62h4.75v-10.44h-4.75c-1.11,0-2,.9-2,2v6.44c0,1.11.9,2,2,2Z"></path>
      </g>
    </g>
    <rect class=" st11_1053691972" x="223.14" y="223.78" width="71.75" height="9.1"></rect>
    <g>
      <path class=" st11_1053691972" d="M283.81,232.88v6.87c0,1.1-.89,2-2,2h-8.26c-1.11,0-2-.9-2-2v-6.87h12.26Z"></path>
      <path class=" st11_1053691972" d="M283.81,232.88v4.44c0,1.1-.89,2-2,2h-8.26c-1.11,0-2-.9-2-2v-4.44h12.26Z"></path>
    </g>
    <circle class=" st11_1053691972" cx="452.82" cy="163.61" r="6.77"></circle>
    <g>
      <path class=" st11_1053691972" d="M467.83,183.11c.11.1.2.21.31.31,5.25,4.75,13.36,4.35,18.12-.9,4.75-5.25,4.35-13.36-.9-18.12-.11-.1-.23-.18-.34-.28l-17.19,18.98Z"></path>
      <circle class=" st11_1053691972" cx="476.42" cy="173.62" r="9.85"></circle>
      <path class=" st11_1053691972" d="M487.59,176.06l-7.63,8.43c-.18.21-.5.22-.71.04l-3.78-3.42c-.2-.18-.22-.5-.04-.71l7.63-8.43c.18-.21.5-.22.71-.04l3.78,3.42c.2.19.22.5.04.71Z"></path>
    </g>
    <g>
      <path class=" st11_1053691972" d="M439.66,182.51c-.1.11-.18.23-.28.34-4.75,5.25-12.87,5.65-18.12.9-5.25-4.75-5.65-12.87-.9-18.12.1-.11.21-.2.31-.31l18.99,17.19Z"></path>
      <circle class=" st11_1053691972" cx="430.17" cy="173.91" r="9.85"></circle>
      <path class=" st11_1053691972" d="M419.3,177.45l8.42,7.63c.2.18.52.17.71-.04l3.42-3.78c.18-.21.17-.52-.04-.71l-8.42-7.63c-.2-.18-.52-.17-.71.04l-3.42,3.78c-.19.2-.17.52.04.71Z"></path>
    </g>
    <rect class=" st11_1053691972" x="404.91" y="336.52" width="11.64" height="25.65"></rect>
    <g>
      <path class=" st11_1053691972" d="M407.23,342.78h5.78v11.56h-5.78c-.55,0-1-.45-1-1v-9.56c0-.55.45-1,1-1Z"></path>
      <rect class=" st11_1053691972" x="413.01" y="342.78" width=".89" height="11.56"></rect>
      <rect class=" st11_1053691972" x="411.84" y="348" width="3.4" height="1.11"></rect>
      <circle class=" st11_1053691972" cx="410.04" cy="348.56" r=".79"></circle>
    </g>
    <rect class=" st11_1053691972" x="180.61" y="351.58" width="15.78" height="11.06"></rect>
    <g>
      <path class=" st11_1053691972" d="M194.17,354.15v5.78h-11.56v-5.78c0-.55.45-1,1-1h9.56c.55,0,1,.45,1,1Z"></path>
      <rect class=" st10_1053691972" x="182.61" y="359.93" width="11.56" height=".89"></rect>
      <rect class=" st10_1053691972" x="187.84" y="358.76" width="1.11" height="3.4"></rect>
      <circle class=" st11_1053691972" cx="188.39" cy="356.96" r=".79"></circle>
    </g>
    <rect class=" st11_1053691972" x="245.53" y="351.58" width="15.78" height="11.06"></rect>
    <g>
      <path class=" st11_1053691972" d="M259.09,354.15v5.78h-11.56v-5.78c0-.55.45-1,1-1h9.56c.55,0,1,.45,1,1Z"></path>
      <rect class=" st10_1053691972" x="247.53" y="359.93" width="11.56" height=".89"></rect>
      <rect class=" st10_1053691972" x="252.76" y="358.76" width="1.11" height="3.4"></rect>
      <circle class=" st11_1053691972" cx="253.31" cy="356.96" r=".79"></circle>
    </g>
    <rect class=" st11_1053691972" x="52.78" y="319.88" width="11.32" height="30.6"></rect>
    <g>
      <path class=" st11_1053691972" d="M61.94,348.09h-5.78v-11.56h5.78c.55,0,1,.45,1,1v9.56c0,.55-.45,1-1,1Z"></path>
      <rect class=" st11_1053691972" x="55.27" y="336.53" width=".89" height="11.56"></rect>
      <rect class=" st11_1053691972" x="53.93" y="341.75" width="3.4" height="1.11"></rect>
      <circle class=" st11_1053691972" cx="59.14" cy="342.31" r=".79"></circle>
    </g>
    <g>
      <path class=" st11_1053691972" d="M61.94,332.75h-5.78v-11.56h5.78c.55,0,1,.45,1,1v9.56c0,.55-.45,1-1,1Z"></path>
      <rect class=" st11_1053691972" x="55.27" y="321.19" width=".89" height="11.56"></rect>
      <rect class=" st11_1053691972" x="53.93" y="326.41" width="3.4" height="1.11"></rect>
      <circle class=" st11_1053691972" cx="59.14" cy="326.97" r=".79"></circle>
    </g>
    <g>
      <path class=" st11_1053691972" d="M384.21,352.29v-5.66c0-.83-.67-1.5-1.5-1.5h-8.97v8.66h8.97c.83,0,1.5-.67,1.5-1.5Z"></path>
      <rect class=" st11_1053691972" x="371.21" y="345.13" width="2.53" height="8.66"></rect>
    </g>
    <g>
      <path class=" st11_1053691972" d="M212.28,349.64h-5.66c-.83,0-1.5.67-1.5,1.5v8.97h8.66v-8.97c0-.83-.67-1.5-1.5-1.5Z"></path>
      <rect class=" st11_1053691972" x="205.12" y="360.11" width="8.66" height="2.53"></rect>
    </g>
    <g>
      <path class=" st11_1053691972" d="M235.6,349.64h-5.66c-.83,0-1.5.67-1.5,1.5v8.97h8.66v-8.97c0-.83-.67-1.5-1.5-1.5Z"></path>
      <rect class=" st11_1053691972" x="228.43" y="360.11" width="8.66" height="2.53"></rect>
    </g>
    <g>
      <path class=" st11_1053691972" d="M100.11,363.38h-5.66c-.83,0-1.5.67-1.5,1.5v8.97h8.66v-8.97c0-.83-.67-1.5-1.5-1.5Z"></path>
      <rect class=" st11_1053691972" x="92.95" y="373.84" width="8.66" height="2.53"></rect>
    </g>
    <g>
      <path class=" st11_1053691972" d="M71.21,376.37v-2.06c0-.28-.22-.5-.5-.5h-4.97c-.28,0-.5.22-.5.5v2.06h5.97Z"></path>
      <rect class=" st12_1053691972" x="69.07" y="372.72" width="1.79" height="1.09"></rect>
      <ellipse class=" st11_1053691972" cx="68.22" cy="366.42" rx="2.77" ry="2.79"></ellipse>
      <line class=" st5_1053691972" x1="68.22" y1="376.37" x2="68.22" y2="366.42"></line>
    </g>
    <g>
      <path class=" st11_1053691972" d="M169.82,362.63v-2.06c0-.28-.22-.5-.5-.5h-4.97c-.28,0-.5.22-.5.5v2.06h5.97Z"></path>
      <rect class=" st12_1053691972" x="167.69" y="358.98" width="1.79" height="1.09"></rect>
      <ellipse class=" st11_1053691972" cx="166.84" cy="352.68" rx="2.77" ry="2.79"></ellipse>
      <line class=" st5_1053691972" x1="166.84" y1="362.63" x2="166.84" y2="352.68"></line>
    </g>
    <g>
      <g>
        <rect class=" st11_1053691972" x="371.21" y="362.17" width="45.33" height="17.23"></rect>
        <path class=" st11_1053691972" d="M412.83,363.39h-34.15c-1.92,0-3.48,1.56-3.48,3.48v7.29c0,1.92,1.56,3.48,3.48,3.48h34.15c1.1,0,1.99-.89,1.99-1.99v-10.27c0-1.1-.89-1.99-1.99-1.99Z"></path>
        <path class=" st11_1053691972" d="M416.3,373.95h-2.09c-.28,0-.5-.22-.5-.5v-5.26c0-.28.22-.5.5-.5h2.09v6.26Z"></path>
        <rect class=" st11_1053691972" x="412.61" y="371.71" width="1.1" height="1.88"></rect>
        <ellipse class=" st11_1053691972" cx="406.24" cy="370.82" rx="2.81" ry="2.91"></ellipse>
      </g>
      <line class=" st5_1053691972" x1="416.55" y1="370.82" x2="406.24" y2="370.82"></line>
    </g>
    <g>
      <rect class=" st11_1053691972" x="470.35" y="367.03" width="12.22" height="9.81"></rect>
      <rect class=" st11_1053691972" x="470.35" y="365.72" width="12.22" height="1.31"></rect>
      <rect class=" st11_1053691972" x="418.74" y="367.03" width="12.22" height="9.82"></rect>
      <rect class=" st11_1053691972" x="418.74" y="365.72" width="12.22" height="1.31"></rect>
      <rect class=" st11_1053691972" x="430.95" y="374.6" width="39.4" height="2.25"></rect>
      <rect class=" st11_1053691972" x="430.95" y="362.32" width="39.4" height="12.29"></rect>
      <rect class=" st11_1053691972" x="451.61" y="364.02" width="16.31" height="8.81"></rect>
      <rect class=" st11_1053691972" x="433.39" y="364.02" width="16.28" height="8.81"></rect>
      <polygon class=" st11_1053691972" points="447.44 367.42 463.4 360 466.56 361.42 470.35 362.32 470.35 331.97 430.95 331.97 430.95 367.42 447.44 367.42"></polygon>
      <polygon class=" st11_1053691972" points="470.35 362.32 466.56 361.42 463.4 360 447.44 367.42 450.26 367.42 470.35 362.32"></polygon>
    </g>
    <g>
      <rect class=" st11_1053691972" x="293.1" y="270.89" width="9.86" height="8.56"></rect>
      <rect class=" st11_1053691972" x="291.78" y="270.89" width="1.32" height="8.56"></rect>
      <rect class=" st11_1053691972" x="300.7" y="247.25" width="2.26" height="23.64"></rect>
      <rect class=" st11_1053691972" x="288.36" y="247.25" width="12.35" height="23.64"></rect>
      <rect class=" st11_1053691972" x="290.07" y="259.64" width="8.85" height="9.79"></rect>
      <rect class=" st11_1053691972" x="290.07" y="248.71" width="8.85" height="9.77"></rect>
      <polygon class=" st11_1053691972" points="293.49 257.14 286.03 266.72 287.45 268.61 288.36 270.89 257.87 270.89 257.87 247.25 293.49 247.25 293.49 257.14"></polygon>
      <polygon class=" st11_1053691972" points="288.36 270.89 287.45 268.61 286.03 266.72 293.49 257.14 293.49 258.83 288.36 270.89"></polygon>
    </g>
    <rect class=" st11_1053691972" x="149.34" y="223.78" width="71.52" height="9.1"></rect>
    <g>
      <path class=" st11_1053691972" d="M160.41,232.88v6.87c0,1.1.9,2,2,2h8.26c1.1,0,2-.9,2-2v-6.87h-12.26Z"></path>
      <path class=" st11_1053691972" d="M160.41,232.88v4.44c0,1.1.9,2,2,2h8.26c1.1,0,2-.9,2-2v-4.44h-12.26Z"></path>
    </g>
    <g>
      <rect class=" st11_1053691972" x="142.53" y="270.89" width="9.86" height="8.56"></rect>
      <rect class=" st11_1053691972" x="152.39" y="270.89" width="1.32" height="8.56"></rect>
      <rect class=" st11_1053691972" x="142.52" y="247.25" width="2.26" height="23.64"></rect>
      <rect class=" st11_1053691972" x="144.78" y="247.25" width="12.35" height="23.64"></rect>
      <rect class=" st11_1053691972" x="146.57" y="259.64" width="8.85" height="9.79"></rect>
      <rect class=" st11_1053691972" x="146.57" y="248.71" width="8.85" height="9.77"></rect>
      <polygon class=" st11_1053691972" points="152 257.14 159.46 266.72 158.03 268.61 157.13 270.89 187.62 270.89 187.62 247.25 152 247.25 152 257.14"></polygon>
      <polygon class=" st11_1053691972" points="157.13 270.89 158.03 268.61 159.46 266.72 152 257.14 152 258.83 157.13 270.89"></polygon>
    </g>
    <g>
      <rect class=" st11_1053691972" x="54.64" y="224" width="9.67" height="11.94"></rect>
      <rect class=" st11_1053691972" x="64.31" y="224" width="1.29" height="11.94"></rect>
      <rect class=" st11_1053691972" x="54.63" y="173.55" width="9.68" height="11.94"></rect>
      <rect class=" st11_1053691972" x="64.31" y="173.55" width="1.29" height="11.94"></rect>
      <rect class=" st11_1053691972" x="54.63" y="185.5" width="2.22" height="38.51"></rect>
      <rect class=" st11_1053691972" x="56.85" y="185.49" width="12.11" height="38.51"></rect>
      <rect class=" st11_1053691972" x="58.6" y="205.68" width="8.68" height="15.94"></rect>
      <rect class=" st11_1053691972" x="58.6" y="187.87" width="8.68" height="15.92"></rect>
      <polygon class=" st11_1053691972" points="63.93 201.61 71.25 217.21 69.85 220.29 68.96 224 98.87 224 98.87 185.49 63.93 185.49 63.93 201.61"></polygon>
      <polygon class=" st11_1053691972" points="68.96 224 69.85 220.29 71.25 217.21 63.93 201.61 63.93 204.36 68.96 224"></polygon>
    </g>
    <rect class=" st11_1053691972" x="419.37" y="307.89" width="71.31" height="4.8"></rect>
    <rect class=" st11_1053691972" x="419.37" y="295.27" width="71.33" height="8.93"></rect>
    <g>
      <g>
        <rect class=" st11_1053691972" x="219.22" y="247.08" width=".93" height="22.61"></rect>
        <rect class=" st11_1053691972" x="220.15" y="256.86" width=".71" height="3.05"></rect>
      </g>
      <polyline class=" st5_1053691972" points="217.27 263.26 219.22 258.38 217.27 253.49"></polyline>
    </g>
    <g>
      <g>
        <rect class=" st11_1053691972" x="138.51" y="193.9" width=".99" height="24.01"></rect>
        <rect class=" st11_1053691972" x="139.5" y="204.29" width=".75" height="3.24"></rect>
      </g>
      <polyline class=" st5_1053691972" points="136.44 211.08 138.51 205.89 136.45 200.71"></polyline>
    </g>
    <g>
      <g>
        <rect class=" st12_1053691972" x="223.84" y="247.03" width=".93" height="22.61"></rect>
        <rect class=" st12_1053691972" x="223.14" y="256.8" width=".71" height="3.05"></rect>
      </g>
      <polyline class=" st5_1053691972" points="226.72 253.46 224.77 258.34 226.72 263.23"></polyline>
    </g>
    <g>
      <g>
        <rect class=" st11_1053691972" x="427.69" y="301.6" width="35.81" height="1.48"></rect>
        <rect class=" st11_1053691972" x="443.17" y="303.07" width="4.83" height="1.12"></rect>
      </g>
      <polyline class=" st5_1053691972" points="437.87 298.51 445.61 301.6 453.35 298.51"></polyline>
    </g>
    <g>
      <g>
        <rect class=" st11_1053691972" x="434.94" y="308.71" width="26.35" height="1.09"></rect>
        <rect class=" st11_1053691972" x="446.34" y="307.89" width="3.56" height=".82"></rect>
      </g>
      <polyline class=" st5_1053691972" points="453.8 312.07 448.1 309.8 442.41 312.07"></polyline>
    </g>
    <g>
      <path class=" st11_1053691972" d="M76.7,298.57s.03,1.27-.15,1.85c-.38,1.24-1.51,2.36-1.51,2.36l-1.5,2.22,29.74.37-2.63-2.93s-1.15-.47-1.69-1.97c-.16-.45-.27-1.9-.27-1.9h-21.99Z"></path>
      <path class=" st11_1053691972" d="M103.12,302.24h-29.44c-2.25,0-4.08,1.84-4.08,4.08v8.56c0,2.24,1.84,4.08,4.08,4.08h29.44c2.25,0,4.08-1.84,4.08-4.08v-8.56c0-2.24-1.84-4.08-4.08-4.08Z"></path>
      <ellipse class=" st11_1053691972" cx="88.4" cy="310.61" rx="14.87" ry="5.23"></ellipse>
      <circle class=" st11_1053691972" cx="88.4" cy="310.61" r="1.02"></circle>
    </g>
    <g>
      <rect class=" st11_1053691972" x="294.56" y="281.52" width="8.4" height="5.04"></rect>
      <line class=" st5_1053691972" x1="294.56" y1="281.52" x2="302.96" y2="286.56"></line>
      <line class=" st5_1053691972" x1="302.96" y1="281.52" x2="294.56" y2="286.56"></line>
    </g>
    <rect class=" st11_1053691972" x="301.15" y="365.03" width="5.56" height="21.14"></rect>
    <polygon class=" st11_1053691972" points="281.78 373.54 279 373.54 279 362.64 283.86 362.64 283.86 377.35 281.78 377.35 281.78 373.54"></polygon>
    <g>
      <rect class=" st11_1053691972" x="283.86" y="362.63" width="14.8" height="14.72"></rect>
      <rect class=" st11_1053691972" x="285.83" y="364.49" width="3.43" height="2.45"></rect>
      <rect class=" st11_1053691972" x="285.84" y="361.34" width="10.63" height="1.3"></rect>
    </g>
    <g>
      <rect class=" st11_1053691972" x="305.57" y="252.57" width="14.44" height="13.89"></rect>
      <rect class=" st11_1053691972" x="318.91" y="252.57" width="1.1" height="13.89"></rect>
      <path class=" st11_1053691972" d="M315.8,259.51h0c0,.82-.39,1.36-.95,1.69-.69.4-1.55.4-2.28.08l-4.06-1.77,3.94-1.76c.65-.29,1.4-.32,2.06-.04.71.31,1.28.88,1.28,1.8Z"></path>
    </g>
    <g>
      <rect class=" st11_1053691972" x="305.57" y="239.74" width="14.44" height="12.84"></rect>
      <path class=" st11_1053691972" d="M318.61,250.57v-8.84c0-.55-.45-1-1-1h-8.22c-.55,0-1,.45-1,1v8.84c0,.55.45,1,1,1h8.22c.55,0,1-.45,1-1Z"></path>
      <rect class=" st11_1053691972" x="306.31" y="245.49" width="4.39" height="1.33"></rect>
      <ellipse class=" st11_1053691972" cx="313.04" cy="246.15" rx=".94" ry=".82"></ellipse>
      <rect class=" st11_1053691972" x="306.31" y="245.49" width="1.3" height="1.33"></rect>
    </g>
    <g>
      <rect class=" st11_1053691972" x="305.57" y="225.54" width="14.44" height="14.2"></rect>
      <circle class=" st11_1053691972" cx="315.98" cy="229.42" r="2.15"></circle>
      <circle class=" st11_1053691972" cx="315.98" cy="235.86" r="2.15"></circle>
      <circle class=" st11_1053691972" cx="309.61" cy="229.42" r="2.15"></circle>
      <circle class=" st11_1053691972" cx="309.61" cy="235.86" r="2.15"></circle>
    </g>
    <g>
      <rect class=" st11_1053691972" x="305.57" y="280.86" width="14.4" height="14.4"></rect>
      <rect class=" st11_1053691972" x="318.87" y="280.86" width="1.1" height="14.4"></rect>
      <rect class=" st11_1053691972" x="319.98" y="281.97" width=".95" height="2.42"></rect>
      <g>
        <line class=" st5_1053691972" x1="316.3" y1="288.06" x2="309.25" y2="288.06"></line>
        <line class=" st5_1053691972" x1="311.01" y1="285.02" x2="314.53" y2="291.1"></line>
        <line class=" st5_1053691972" x1="311.01" y1="291.1" x2="314.53" y2="285.02"></line>
      </g>
    </g>
    <g>
      <rect class=" st11_1053691972" x="305.57" y="266.46" width="14.4" height="14.4"></rect>
      <rect class=" st11_1053691972" x="318.87" y="266.46" width="1.1" height="14.4"></rect>
      <rect class=" st11_1053691972" x="319.98" y="277.33" width=".95" height="2.42"></rect>
      <g>
        <line class=" st5_1053691972" x1="316.3" y1="273.66" x2="309.25" y2="273.66"></line>
        <line class=" st5_1053691972" x1="311.01" y1="276.7" x2="314.53" y2="270.62"></line>
        <line class=" st5_1053691972" x1="311.01" y1="270.62" x2="314.53" y2="276.7"></line>
      </g>
    </g>
    <g>
      <rect class=" st11_1053691972" x="305.57" y="211.38" width="14.44" height="14.16"></rect>
      <line class=" st5_1053691972" x1="320.01" y1="211.38" x2="305.57" y2="225.54"></line>
      <line class=" st5_1053691972" x1="320.01" y1="225.54" x2="305.57" y2="211.38"></line>
    </g>
    <g>
      <rect class=" st11_1053691972" x="305.57" y="197.28" width="14.44" height="14.1"></rect>
      <line class=" st5_1053691972" x1="320.01" y1="197.28" x2="305.57" y2="211.38"></line>
      <line class=" st5_1053691972" x1="320.01" y1="211.38" x2="305.57" y2="197.28"></line>
    </g>
    <g>
      <rect class=" st14_1053691972" x="115.04" y="367.69" width="25.21" height="13.39"></rect>
      <g>
        <line class=" st5_1053691972" x1="126.39" y1="369.47" x2="125.19" y2="379.31"></line>
        <line class=" st5_1053691972" x1="128.9" y1="369.47" x2="130.09" y2="379.31"></line>
        <line class=" st5_1053691972" x1="121.49" y1="369.47" x2="122.68" y2="379.31"></line>
        <line class=" st5_1053691972" x1="118.98" y1="369.47" x2="118.98" y2="379.31"></line>
        <line class=" st5_1053691972" x1="132.6" y1="369.47" x2="132.6" y2="379.31"></line>
        <line class=" st5_1053691972" x1="136.3" y1="369.47" x2="135.11" y2="379.31"></line>
      </g>
      <line class=" st5_1053691972" x1="116.72" y1="374.39" x2="138.56" y2="374.39"></line>
    </g>
    <g>
      <rect class=" st11_1053691972" x="353.88" y="297.63" width="62.98" height="15.05"></rect>
      <g>
        <line class=" st5_1053691972" x1="356.48" y1="299.63" x2="357.34" y2="310.69"></line>
        <line class=" st5_1053691972" x1="360.86" y1="299.63" x2="360.01" y2="310.69"></line>
        <line class=" st5_1053691972" x1="363.64" y1="299.63" x2="363.64" y2="310.69"></line>
        <line class=" st5_1053691972" x1="366.26" y1="299.63" x2="367.12" y2="310.69"></line>
        <line class=" st5_1053691972" x1="376.82" y1="299.63" x2="377.67" y2="310.69"></line>
        <line class=" st5_1053691972" x1="383.8" y1="299.63" x2="384.65" y2="310.69"></line>
        <line class=" st5_1053691972" x1="394.96" y1="299.63" x2="395.82" y2="310.69"></line>
        <line class=" st5_1053691972" x1="387.98" y1="299.63" x2="388.83" y2="310.69"></line>
        <line class=" st5_1053691972" x1="370.61" y1="299.63" x2="369.76" y2="310.69"></line>
        <line class=" st5_1053691972" x1="380.87" y1="299.63" x2="380.01" y2="310.69"></line>
        <line class=" st5_1053691972" x1="392.03" y1="299.63" x2="391.18" y2="310.69"></line>
        <line class=" st5_1053691972" x1="402.24" y1="299.63" x2="403.1" y2="310.69"></line>
        <line class=" st5_1053691972" x1="413.41" y1="299.63" x2="414.26" y2="310.69"></line>
        <line class=" st5_1053691972" x1="406.43" y1="299.63" x2="407.28" y2="310.69"></line>
        <line class=" st5_1053691972" x1="399.32" y1="299.63" x2="398.46" y2="310.69"></line>
        <line class=" st5_1053691972" x1="410.48" y1="299.63" x2="409.62" y2="310.69"></line>
        <line class=" st5_1053691972" x1="374.17" y1="299.63" x2="374.17" y2="310.69"></line>
      </g>
      <line class=" st5_1053691972" x1="415.23" y1="305.16" x2="355.51" y2="305.16"></line>
    </g>
    <g>
      <rect class=" st11_1053691972" x="306.71" y="323.95" width="13.25" height="62.24"></rect>
      <g>
        <line class=" st5_1053691972" x1="308.47" y1="383.62" x2="318.21" y2="382.78"></line>
        <line class=" st5_1053691972" x1="308.47" y1="379.29" x2="318.21" y2="380.14"></line>
        <line class=" st5_1053691972" x1="308.47" y1="376.55" x2="318.21" y2="376.55"></line>
        <line class=" st5_1053691972" x1="308.47" y1="373.96" x2="318.21" y2="373.11"></line>
        <line class=" st5_1053691972" x1="308.47" y1="363.53" x2="318.21" y2="362.68"></line>
        <line class=" st5_1053691972" x1="308.47" y1="356.63" x2="318.21" y2="355.79"></line>
        <line class=" st5_1053691972" x1="308.47" y1="345.6" x2="318.21" y2="344.75"></line>
        <line class=" st5_1053691972" x1="308.47" y1="352.49" x2="318.21" y2="351.65"></line>
        <line class=" st5_1053691972" x1="308.47" y1="369.66" x2="318.21" y2="370.5"></line>
        <line class=" st5_1053691972" x1="308.47" y1="359.52" x2="318.21" y2="360.37"></line>
        <line class=" st5_1053691972" x1="308.47" y1="348.49" x2="318.21" y2="349.34"></line>
        <line class=" st5_1053691972" x1="308.47" y1="338.4" x2="318.21" y2="337.55"></line>
        <line class=" st5_1053691972" x1="308.47" y1="327.36" x2="318.21" y2="326.52"></line>
        <line class=" st5_1053691972" x1="308.47" y1="334.26" x2="318.21" y2="333.42"></line>
        <line class=" st5_1053691972" x1="308.47" y1="341.29" x2="318.21" y2="342.14"></line>
        <line class=" st5_1053691972" x1="308.47" y1="330.26" x2="318.21" y2="331.1"></line>
        <line class=" st5_1053691972" x1="308.47" y1="366.14" x2="318.21" y2="366.14"></line>
      </g>
      <line class=" st5_1053691972" x1="313.34" y1="325.56" x2="313.34" y2="384.58"></line>
    </g>
    <g>
      <rect class=" st13_1053691972" x="52.78" y="242.23" width="60.38" height="14.67"></rect>
      <g>
        <line class=" st5_1053691972" x1="66.11" y1="244.17" x2="65" y2="254.96"></line>
        <line class=" st5_1053691972" x1="59.56" y1="244.17" x2="59.56" y2="254.96"></line>
        <line class=" st5_1053691972" x1="68.27" y1="244.17" x2="68.27" y2="254.96"></line>
        <line class=" st5_1053691972" x1="70.43" y1="244.17" x2="71.54" y2="254.96"></line>
        <line class=" st5_1053691972" x1="61.72" y1="244.17" x2="62.84" y2="254.96"></line>
        <line class=" st5_1053691972" x1="87.85" y1="244.17" x2="88.96" y2="254.96"></line>
        <line class=" st5_1053691972" x1="79.14" y1="244.17" x2="80.25" y2="254.96"></line>
        <line class=" st5_1053691972" x1="105.26" y1="244.17" x2="106.38" y2="254.96"></line>
        <line class=" st5_1053691972" x1="96.56" y1="244.17" x2="97.67" y2="254.96"></line>
        <line class=" st5_1053691972" x1="83.53" y1="244.17" x2="82.41" y2="254.96"></line>
        <line class=" st5_1053691972" x1="74.82" y1="244.17" x2="73.71" y2="254.96"></line>
        <line class=" st5_1053691972" x1="92.24" y1="244.17" x2="91.12" y2="254.96"></line>
        <line class=" st5_1053691972" x1="109.65" y1="244.17" x2="108.54" y2="254.96"></line>
        <line class=" st5_1053691972" x1="100.94" y1="244.17" x2="99.83" y2="254.96"></line>
        <line class=" st5_1053691972" x1="57.4" y1="244.17" x2="56.29" y2="254.96"></line>
        <line class=" st5_1053691972" x1="103.1" y1="244.17" x2="103.1" y2="254.96"></line>
        <line class=" st5_1053691972" x1="85.69" y1="244.17" x2="85.69" y2="254.96"></line>
        <line class=" st5_1053691972" x1="76.98" y1="244.17" x2="76.98" y2="254.96"></line>
        <line class=" st5_1053691972" x1="94.4" y1="244.17" x2="94.4" y2="254.96"></line>
      </g>
      <line class=" st5_1053691972" x1="111.45" y1="249.56" x2="54.49" y2="249.56"></line>
    </g>
    <g>
      <rect class=" st13_1053691972" x="52.78" y="281.01" width="60.38" height="14.67"></rect>
      <g>
        <line class=" st5_1053691972" x1="66.11" y1="282.96" x2="65" y2="293.74"></line>
        <line class=" st5_1053691972" x1="59.56" y1="282.96" x2="59.56" y2="293.74"></line>
        <line class=" st5_1053691972" x1="68.27" y1="282.96" x2="68.27" y2="293.74"></line>
        <line class=" st5_1053691972" x1="70.43" y1="282.96" x2="71.54" y2="293.74"></line>
        <line class=" st5_1053691972" x1="61.72" y1="282.96" x2="62.84" y2="293.74"></line>
        <line class=" st5_1053691972" x1="87.85" y1="282.96" x2="88.96" y2="293.74"></line>
        <line class=" st5_1053691972" x1="79.14" y1="282.96" x2="80.25" y2="293.74"></line>
        <line class=" st5_1053691972" x1="105.26" y1="282.96" x2="106.38" y2="293.74"></line>
        <line class=" st5_1053691972" x1="96.56" y1="282.96" x2="97.67" y2="293.74"></line>
        <line class=" st5_1053691972" x1="83.53" y1="282.96" x2="82.41" y2="293.74"></line>
        <line class=" st5_1053691972" x1="74.82" y1="282.96" x2="73.71" y2="293.74"></line>
        <line class=" st5_1053691972" x1="92.24" y1="282.96" x2="91.12" y2="293.74"></line>
        <line class=" st5_1053691972" x1="109.65" y1="282.96" x2="108.54" y2="293.74"></line>
        <line class=" st5_1053691972" x1="100.94" y1="282.96" x2="99.83" y2="293.74"></line>
        <line class=" st5_1053691972" x1="57.4" y1="282.96" x2="56.29" y2="293.74"></line>
        <line class=" st5_1053691972" x1="103.1" y1="282.96" x2="103.1" y2="293.74"></line>
        <line class=" st5_1053691972" x1="85.69" y1="282.96" x2="85.69" y2="293.74"></line>
        <line class=" st5_1053691972" x1="76.98" y1="282.96" x2="76.98" y2="293.74"></line>
        <line class=" st5_1053691972" x1="94.4" y1="282.96" x2="94.4" y2="293.74"></line>
      </g>
      <line class=" st5_1053691972" x1="111.45" y1="288.35" x2="54.49" y2="288.35"></line>
    </g>
    <g>
      <rect class=" st11_1053691972" x="250.07" y="281.52" width="44.5" height="13.07"></rect>
      <g>
        <line class=" st5_1053691972" x1="287.04" y1="283.25" x2="286.08" y2="292.86"></line>
        <line class=" st5_1053691972" x1="276.17" y1="283.25" x2="275.22" y2="292.86"></line>
        <line class=" st5_1053691972" x1="264.97" y1="283.25" x2="264.02" y2="292.86"></line>
        <line class=" st5_1053691972" x1="290.07" y1="283.25" x2="291.02" y2="292.86"></line>
        <line class=" st5_1053691972" x1="279.18" y1="283.25" x2="280.13" y2="292.86"></line>
        <line class=" st5_1053691972" x1="259.81" y1="283.25" x2="260.76" y2="292.86"></line>
        <line class=" st5_1053691972" x1="267.58" y1="283.25" x2="268.53" y2="292.86"></line>
        <line class=" st5_1053691972" x1="283.05" y1="283.25" x2="283.05" y2="292.86"></line>
        <line class=" st5_1053691972" x1="271.39" y1="283.25" x2="271.39" y2="292.86"></line>
        <line class=" st5_1053691972" x1="253.61" y1="283.25" x2="254.56" y2="292.86"></line>
        <line class=" st5_1053691972" x1="257.41" y1="283.25" x2="257.41" y2="292.86"></line>
      </g>
      <line class=" st5_1053691972" x1="251.93" y1="288.06" x2="292.7" y2="288.06"></line>
    </g>
    <g>
      <rect class=" st11_1053691972" x="140.14" y="323.99" width="12.92" height="53.45"></rect>
      <g>
        <line class=" st5_1053691972" x1="151.35" y1="369.9" x2="141.85" y2="368.95"></line>
        <line class=" st5_1053691972" x1="151.35" y1="358.48" x2="141.85" y2="357.53"></line>
        <line class=" st5_1053691972" x1="151.35" y1="347.06" x2="141.85" y2="346.11"></line>
        <line class=" st5_1053691972" x1="151.35" y1="373.07" x2="141.85" y2="374.02"></line>
        <line class=" st5_1053691972" x1="151.35" y1="361.65" x2="141.85" y2="362.6"></line>
        <line class=" st5_1053691972" x1="151.35" y1="341.99" x2="141.85" y2="342.94"></line>
        <line class=" st5_1053691972" x1="151.35" y1="350.23" x2="141.85" y2="351.19"></line>
        <line class=" st5_1053691972" x1="151.35" y1="365.77" x2="141.85" y2="365.77"></line>
        <line class=" st5_1053691972" x1="151.35" y1="354.36" x2="141.85" y2="354.36"></line>
        <line class=" st5_1053691972" x1="151.35" y1="334.7" x2="141.85" y2="335.65"></line>
        <line class=" st5_1053691972" x1="151.35" y1="338.82" x2="141.85" y2="338.82"></line>
        <line class=" st5_1053691972" x1="151.35" y1="331.52" x2="141.85" y2="331.52"></line>
        <line class=" st5_1053691972" x1="151.35" y1="327.4" x2="141.85" y2="328.35"></line>
      </g>
      <line class=" st5_1053691972" x1="146.6" y1="326.23" x2="146.6" y2="375.19"></line>
    </g>
    <g>
      <rect class=" st11_1053691972" x="142.53" y="281.52" width="50.89" height="13.07"></rect>
      <g>
        <line class=" st5_1053691972" x1="150.07" y1="283.25" x2="151.02" y2="292.86"></line>
        <line class=" st5_1053691972" x1="160.71" y1="283.25" x2="161.67" y2="292.86"></line>
        <line class=" st5_1053691972" x1="171.36" y1="283.25" x2="172.32" y2="292.86"></line>
        <line class=" st5_1053691972" x1="147.15" y1="283.25" x2="146.2" y2="292.86"></line>
        <line class=" st5_1053691972" x1="157.8" y1="283.25" x2="156.85" y2="292.86"></line>
        <line class=" st5_1053691972" x1="176.18" y1="283.25" x2="175.23" y2="292.86"></line>
        <line class=" st5_1053691972" x1="168.45" y1="283.25" x2="167.5" y2="292.86"></line>
        <line class=" st5_1053691972" x1="153.93" y1="283.25" x2="153.93" y2="292.86"></line>
        <line class=" st5_1053691972" x1="185.88" y1="283.25" x2="186.83" y2="292.86"></line>
        <line class=" st5_1053691972" x1="189.74" y1="283.25" x2="189.74" y2="292.86"></line>
        <line class=" st5_1053691972" x1="164.58" y1="283.25" x2="164.58" y2="292.86"></line>
        <line class=" st5_1053691972" x1="182.96" y1="283.25" x2="182.01" y2="292.86"></line>
        <line class=" st5_1053691972" x1="179.1" y1="283.25" x2="179.1" y2="292.86"></line>
      </g>
      <line class=" st5_1053691972" x1="190.95" y1="288.06" x2="145" y2="288.06"></line>
    </g>
    <g>
      <rect class=" st11_1053691972" x="266.15" y="323.99" width="12.84" height="38.65"></rect>
      <g>
        <line class=" st5_1053691972" x1="277.3" y1="356.1" x2="267.86" y2="355.27"></line>
        <line class=" st5_1053691972" x1="277.3" y1="346.67" x2="267.86" y2="345.84"></line>
        <line class=" st5_1053691972" x1="277.3" y1="336.94" x2="267.86" y2="336.11"></line>
        <line class=" st5_1053691972" x1="277.3" y1="358.74" x2="267.86" y2="359.56"></line>
        <line class=" st5_1053691972" x1="277.3" y1="349.28" x2="267.86" y2="350.1"></line>
        <line class=" st5_1053691972" x1="277.3" y1="332.45" x2="267.86" y2="333.28"></line>
        <line class=" st5_1053691972" x1="277.3" y1="339.2" x2="267.86" y2="340.03"></line>
        <line class=" st5_1053691972" x1="277.3" y1="352.64" x2="267.86" y2="352.64"></line>
        <line class=" st5_1053691972" x1="277.3" y1="342.51" x2="267.86" y2="342.51"></line>
        <line class=" st5_1053691972" x1="277.3" y1="327.07" x2="267.86" y2="327.89"></line>
        <line class=" st5_1053691972" x1="277.3" y1="330.37" x2="267.86" y2="330.37"></line>
      </g>
      <line class=" st5_1053691972" x1="272.58" y1="325.61" x2="272.58" y2="361.02"></line>
    </g>
    <g>
      <circle class=" st11_1053691972" cx="431.09" cy="262.87" r="26.91"></circle>
      <circle class=" st11_1053691972" cx="430.79" cy="247.25" r="7.93"></circle>
      <circle class=" st11_1053691972" cx="429.77" cy="267.89" r="15.32"></circle>
    </g>
    <g>
      <path class=" st11_1053691972" d="M445.69,234.14c-4.83-2.34-11.8-5.59-19.99-4.25-5.41.88-9.08,3.77-13.12,6.02-12.72,6.84-21-12.59-8.12-17.79,15.15-5.65,34.24-8.92,47.65-1.2,10.9,4.66,4.69,20.97-6.42,17.21Z"></path>
      <path class=" st11_1053691972" d="M436.41,219.03c-2.56-1-6.26-2.39-10.69-1.67-5.05.84-12.24,7.01-14.8.36-2.32-6.06,11.74-8.68,15.84-9,5.15-.4,17.57,2.54,15.78,7.97-.66,2.01-3.44,3.18-6.13,2.34Z"></path>
    </g>
    <g>
      <path class=" st11_1053691972" d="M475.53,285.06l2.97-8.75c.74-2.2-.43-4.58-2.63-5.33l-9.37-3.18c-.2-.07-.42.04-.49.24l-5.55,16.37c-.07.2.04.42.24.49l8.98,3.05c2.41.82,5.03-.48,5.85-2.89Z"></path>
      <path class=" st11_1053691972" d="M473.04,283.48l2.1-6.19c.63-1.86-.37-3.89-2.23-4.52l-8.93-3.03c-.47-.16-.97.09-1.13.56l-3.53,10.41c-.16.47.09.97.56,1.13l9.77,3.32c1.4.47,2.92-.28,3.39-1.67Z"></path>
      <path class=" st11_1053691972" d="M466.79,282.42l5.02-4.87c.2-.19.52-.19.71.01l2.53,2.6c.19.2.19.52-.01.71l-5.02,4.87c-.2.19-.52.19-.71-.01l-2.53-2.6c-.19-.2-.19-.51.01-.71Z"></path>
    </g>
    <g>
      <path class=" st11_1053691972" d="M477.96,252.9l-2.26-8.96c-.57-2.25-2.85-3.62-5.1-3.05l-9.59,2.42c-.21.05-.33.26-.28.47l4.22,16.76c.05.21.26.33.47.28l9.2-2.32c2.47-.62,3.97-3.13,3.35-5.6Z"></path>
      <path class=" st11_1053691972" d="M475.01,252.92l-1.6-6.34c-.48-1.91-2.42-3.07-4.33-2.59l-9.14,2.3c-.48.12-.77.6-.65,1.08l2.68,10.66c.12.48.6.77,1.08.65l10.01-2.52c1.43-.36,2.3-1.81,1.94-3.24Z"></path>
      <path class=" st11_1053691972" d="M469.19,255.42l1.57-6.81c.06-.27.33-.44.6-.38l3.54.82c.27.06.44.33.38.6l-1.57,6.81c-.06.27-.33.44-.6.38l-3.54-.82c-.27-.06-.44-.33-.38-.6Z"></path>
    </g>
  </g>
  <g>
    <path class=" st19_1053691972" d="M485.81,222.68c0,4.64-3.76,8.4-8.4,8.4s-8.4-3.76-8.4-8.4,3.76-8.4,8.4-8.4,8.4,3.76,8.4,8.4ZM504.98,375.05v13.93h-85.76v-2.35h-63.05v40.37h-80.78v-9.72h4.96v1.98h70.77v-86.34h2.76v.97h31.33v2.71h-14v42.79h45.35v-42.79h-12.86v-2.71h15.04v42.95h81.01v-1.8h5.23ZM364.35,338.74h-10.47v36.2h10.47v-36.2ZM499.75,304.19h-80.38v-8.93h-68.25v17.42h2.76v-15.05h62.98v15.05h2.51v-4.79h80.38v-3.7ZM223.14,294.59v-70.8h-2.28v70.8h-2.36v3.04h7.09v-3.04h-2.46ZM319.98,295.27v2.37h-73.96v-3.04h48.55v-8.03h8.4v-45.6h-8.08v-17.17h-4.28v-31.74h24.22v5.23h-9.25v97.99h14.4ZM302.96,294.59v-5.66h-6.03v5.66h6.03ZM301.15,365.03v21.14h18.81v2.46h-39.61v2.08h-4.96v-4.54H45.16v-238.17h12.78v5.3h-5.16v87.09h62.26v16.51h-1.84v-14.67h-60.42v53.45h60.42v-14.59h1.84v45.3h-2.53v-27.82h-59.73v77.8h59.73v-31.67h2.53v36.38h25.21v-3.65h12.92v-53.45h-12.92v-4.31h2.28v1.85h37.25v2.46h-24.13v38.65h63.88s0-38.64,0-38.64h-21.24v-2.46h35.53v2.46h-11.81v38.65h41.67s0-38.65,0-38.65h-11.47v-2.46h29.87v2.46h-15.92v38.65h12.84v10.64h2.79v4.07h16.87v-14.71h5.57v-38.65h-3.65v-2.46h19.38v2.46h-13.25v41.04h-5.56ZM112.5,379.06h-61.66v4.46h61.66v-4.46ZM165.67,367.31h-10.14v12.29h10.14v-12.29ZM272.46,370.04h-103.97v13.68h103.97v-13.68ZM279.98,374.95h-4.71v4.71h4.71v-4.71ZM198.08,294.59h-55.56v-54.2h6.81v-16.6h3.57l-.05-32.24h-5.23v1.41h-7.38v106.05h2.27v-1.37h55.56v-3.04h0Z"></path>
  </g>
  <g>
    <g>
      <path class=" st5_1053691972" d="M313.16,153.74l-7.77-13.45M397.79,148v-15.01M366.57,148v-15.01M334.98,148v-15.01M429.75,148v-15.01M460.82,148v-15.01M499.18,170.13l13.11-7.95M482.24,153.46l8.21-12.96M504.98,192.04h15.02M504.98,223.88h15.02M504.98,273.94h15.02M504.98,306.04h15.02M504.98,348.77h15.02M296.33,170.6l-13.14-8.35M290.6,192.04h-15.02M275.58,203.56l15.02,15M251.77,218.56v-15.01M221.63,218.56v-15.01M192.23,218.56v-15.01M148.14,169.77l12.23-6.36M132.23,153.32l7.11-12.1M109.87,148v-15.01M79.65,148v-15.01M48.97,148v-15.01M48.97,148v-15.01M152.91,217.72l14.16-14.16M167.07,191.54h-14.16"></path>
      <path class=" st5_1053691972" d="M290.6,192.41h3.97c0-22.3,18.14-40.44,40.44-40.44h126.01c22.05,0,40,17.94,40,40h3.97c0-24.28-19.68-43.96-43.97-43.96h-126.01c-24.52,0-44.41,19.89-44.41,44.41h0Z"></path>
      <path class=" st5_1053691972" d="M45.16,148v-15.01h64.58c31.67,0,57.33,25.67,57.33,57.33v13.23h108.51v-12.58c0-32.01,25.95-57.98,57.98-57.98h128.3c32.11,0,58.14,26.03,58.14,58.14v197.86h-15.02v-197.02c0-24.28-19.68-43.96-43.96-43.96h-126.01c-24.52,0-44.41,19.89-44.41,44.41v26.15h-137.69v-27.3c0-26.22-17.55-43.26-43.04-43.26H45.16Z"></path>
    </g>
    <g>
      <path class=" st5_1053691972" d="M313.16,153.74l-7.77-13.45M397.79,148v-15.01M366.57,148v-15.01M334.98,148v-15.01M429.75,148v-15.01M460.82,148v-15.01M499.18,170.13l13.11-7.95M482.24,153.46l8.21-12.96M504.98,192.04h15.02M504.98,223.88h15.02M504.98,273.94h15.02M504.98,306.04h15.02M504.98,348.77h15.02M296.33,170.6l-13.14-8.35M290.6,192.04h-15.02M275.58,203.56l15.02,15M251.77,218.56v-15.01M221.63,218.56v-15.01M192.23,218.56v-15.01M148.14,169.77l12.23-6.36M132.23,153.32l7.11-12.1M109.87,148v-15.01M79.65,148v-15.01M48.97,148v-15.01M48.97,148v-15.01M152.91,217.72l14.16-14.16M167.07,191.54h-14.16"></path>
      <path class=" st5_1053691972" d="M290.6,192.41h3.97c0-22.3,18.14-40.44,40.44-40.44h126.01c22.05,0,40,17.94,40,40h3.97c0-24.28-19.68-43.96-43.97-43.96h-126.01c-24.52,0-44.41,19.89-44.41,44.41h0Z"></path>
      <path class=" st5_1053691972" d="M45.16,148v-15.01h64.58c31.67,0,57.33,25.67,57.33,57.33v13.23h108.51v-12.58c0-32.01,25.95-57.98,57.98-57.98h128.3c32.11,0,58.14,26.03,58.14,58.14v197.86h-15.02v-197.02c0-24.28-19.68-43.96-43.96-43.96h-126.01c-24.52,0-44.41,19.89-44.41,44.41v26.15h-137.69v-27.3c0-26.22-17.55-43.26-43.04-43.26H45.16Z"></path>
    </g>
  </g>
  <g>
    <g>
      <rect class=" st5_1053691972" x="353.45" y="330.75" width="18.08" height="1.16"></rect>
      <rect class=" st5_1053691972" x="352.01" y="331.9" width="1.88" height="1.02"></rect>
      <rect class=" st5_1053691972" x="352.01" y="312.68" width="1.88" height="1.02"></rect>
      <path class=" st5_1053691972" d="M371.53,330.75c0-9.91-10.28-17.05-17.59-17.05"></path>
    </g>
    <g>
      <rect class=" st5_1053691972" x="96.53" y="342.73" width="16.36" height="1.05"></rect>
      <rect class=" st5_1053691972" x="112.5" y="343.78" width="1.7" height=".92"></rect>
      <rect class=" st5_1053691972" x="112.5" y="326.39" width="1.7" height=".92"></rect>
      <path class=" st5_1053691972" d="M96.53,342.73c0-8.97,9.3-15.42,15.92-15.42"></path>
    </g>
    <g>
      <rect class=" st5_1053691972" x="122.22" y="317.45" width="18.47" height="1.18"></rect>
      <rect class=" st5_1053691972" x="140.24" y="318.63" width="1.91" height="1.04"></rect>
      <rect class=" st5_1053691972" x="140.24" y="299" width="1.91" height="1.04"></rect>
      <path class=" st5_1053691972" d="M122.22,317.45c0-10.12,10.5-17.41,17.96-17.41"></path>
    </g>
    <g>
      <rect class=" st4_1053691972" x="386.14" y="336.21" width="1.06" height="16.51"></rect>
      <rect class=" st4_1053691972" x="385.21" y="334.9" width=".93" height="1.71"></rect>
      <rect class=" st4_1053691972" x="402.77" y="334.9" width=".93" height="1.71"></rect>
      <path class=" st5_1053691972" d="M387.2,352.73c9.05,0,15.57-9.39,15.57-16.06"></path>
    </g>
    <g>
      <rect class=" st3_1053691972" x="226.62" y="276.79" width="1.17" height="18.24"></rect>
      <rect class=" st3_1053691972" x="225.59" y="294.59" width="1.03" height="1.89"></rect>
      <rect class=" st3_1053691972" x="244.98" y="294.59" width="1.03" height="1.89"></rect>
      <path class=" st5_1053691972" d="M227.79,276.79c10,0,17.2,10.37,17.2,17.74"></path>
    </g>
    <g>
      <rect class=" st3_1053691972" x="216.3" y="276.79" width="1.17" height="18.24"></rect>
      <rect class=" st3_1053691972" x="217.47" y="294.59" width="1.03" height="1.89"></rect>
      <rect class=" st3_1053691972" x="198.08" y="294.59" width="1.03" height="1.89"></rect>
      <path class=" st5_1053691972" d="M216.3,276.79c-10,0-17.2,10.37-17.2,17.74"></path>
    </g>
    <g>
      <rect class=" st4_1053691972" x="298.59" y="323.59" width="1.06" height="16.54"></rect>
      <rect class=" st4_1053691972" x="299.65" y="322.27" width=".93" height="1.71"></rect>
      <rect class=" st4_1053691972" x="282.07" y="322.27" width=".93" height="1.71"></rect>
      <path class=" st5_1053691972" d="M298.59,340.12c-9.06,0-15.58-9.4-15.58-16.08"></path>
    </g>
    <g>
      <rect class=" st4_1053691972" x="196.29" y="323.59" width="1.06" height="16.54"></rect>
      <rect class=" st4_1053691972" x="197.35" y="322.27" width=".93" height="1.71"></rect>
      <rect class=" st4_1053691972" x="179.78" y="322.27" width=".93" height="1.71"></rect>
      <path class=" st5_1053691972" d="M196.29,340.12c-9.06,0-15.59-9.4-15.59-16.08"></path>
    </g>
    <g>
      <rect class=" st5_1053691972" x="279.77" y="414.43" width="23.74" height="1.52"></rect>
      <rect class=" st5_1053691972" x="277.88" y="415.95" width="2.46" height="1.34"></rect>
      <rect class=" st5_1053691972" x="277.88" y="390.71" width="2.46" height="1.34"></rect>
      <path class=" st5_1053691972" d="M303.52,414.43c0-13.02-13.49-22.38-23.09-22.38"></path>
    </g>
    <g>
      <rect class=" st4_1053691972" x="234.74" y="323.59" width="1.05" height="16.43"></rect>
      <rect class=" st4_1053691972" x="233.81" y="322.28" width=".93" height="1.7"></rect>
      <rect class=" st4_1053691972" x="251.28" y="322.28" width=".93" height="1.7"></rect>
      <path class=" st5_1053691972" d="M235.79,340.02c9.01,0,15.49-9.34,15.49-15.98"></path>
    </g>
    <rect class=" st5_1053691972" x="402.23" y="196.22" width="26.87" height="1.13"></rect>
    <rect class=" st5_1053691972" x="424.41" y="195.09" width="26.87" height="1.13"></rect>
    <rect class=" st5_1053691972" x="366.76" y="196.22" width="26.87" height="1.13"></rect>
    <rect class=" st5_1053691972" x="343.79" y="195.09" width="26.87" height="1.13"></rect>
  </g>
  <g>
    <polygon class=" st18_1053691972" points="268.91 398.34 268.91 398.61 275.52 403.89 260.73 403.38 260.4 403.38 260.4 404.61 260.73 404.61 275.52 404.1 268.91 409.38 268.91 409.66 270.52 409.66 276.19 404.01 270.52 398.34 268.91 398.34"></polygon>
  </g>
  <g>
    <g>
      <path class=" st20_1053691972" d="M247.88,338.71c.01-.24.07-.47.17-.68.1-.21.24-.4.42-.55s.39-.29.63-.38c.25-.09.52-.14.82-.14.29,0,.55.05.79.14.24.1.45.23.63.39s.32.35.42.56c.1.21.15.43.15.66s-.04.42-.12.59-.18.3-.28.4c-.12.12-.25.22-.4.31.19.09.35.2.5.34.13.12.24.28.34.48.1.2.15.44.15.73,0,.24-.05.47-.15.68s-.25.4-.43.57c-.19.17-.41.3-.68.4-.26.1-.56.15-.88.15s-.62-.05-.88-.14c-.26-.09-.48-.22-.67-.38s-.33-.34-.43-.55c-.1-.21-.16-.43-.18-.68h.95c.01.11.05.22.11.33.06.11.14.2.24.29.1.09.23.15.37.2.15.05.3.08.48.08.38,0,.68-.1.89-.29.21-.19.32-.43.32-.71s-.11-.52-.32-.71-.51-.29-.88-.29h-.45v-.85h.4c.33,0,.58-.09.77-.26s.28-.39.28-.64c0-.28-.09-.51-.28-.68s-.44-.26-.77-.26-.58.09-.78.26-.3.39-.33.64h-.95Z"></path>
      <path class=" st20_1053691972" d="M253.41,342.26c.15,0,.28.06.39.17s.16.26.16.43c0,.25-.04.47-.12.64s-.18.32-.28.43c-.12.13-.25.24-.4.32l-.15-.2c.07-.05.13-.11.19-.18.05-.06.1-.13.15-.22s.08-.19.11-.3c-.17,0-.32-.05-.43-.16-.11-.11-.17-.23-.17-.39s.05-.28.16-.39.24-.16.39-.16Z"></path>
      <path class=" st20_1053691972" d="M258.64,337.02v.65l-2.6,5.65h-1l2.5-5.4h-2.85v-.9h3.95Z"></path>
    </g>
    <g>
      <path class=" st20_1053691972" d="M286.43,348.55c.01-.24.07-.47.17-.68.1-.21.24-.4.42-.55.18-.16.39-.29.64-.38.24-.09.52-.14.82-.14.29,0,.55.05.79.14.24.1.45.23.64.39.18.16.32.35.42.56.1.21.15.43.15.66s-.04.42-.12.59c-.08.16-.18.3-.28.4-.12.12-.25.22-.4.31.19.09.35.2.5.34.13.12.24.28.34.48.1.2.15.44.15.73,0,.24-.05.47-.15.68-.1.21-.25.4-.43.57-.19.17-.41.3-.68.4s-.56.15-.88.15-.62-.05-.88-.14c-.26-.09-.48-.22-.67-.38-.18-.16-.33-.34-.43-.55-.1-.21-.16-.43-.18-.68h.95c.01.11.05.22.11.33.06.11.14.2.24.29.1.09.23.15.37.2.15.05.3.08.48.08.38,0,.68-.1.89-.29.21-.19.31-.43.31-.71s-.11-.52-.32-.71-.51-.29-.88-.29h-.45v-.85h.4c.33,0,.58-.09.77-.26.19-.17.28-.39.28-.64,0-.28-.09-.51-.28-.68-.19-.18-.44-.26-.77-.26s-.58.09-.78.26-.3.39-.33.64h-.95Z"></path>
      <path class=" st20_1053691972" d="M291.96,352.1c.15,0,.28.06.39.17s.16.26.16.43c0,.25-.04.47-.12.64-.08.18-.18.32-.28.43-.12.13-.25.24-.4.32l-.15-.2c.07-.05.13-.11.19-.18.05-.06.1-.13.15-.22s.08-.19.11-.3c-.17,0-.32-.05-.43-.16-.11-.11-.17-.23-.17-.39s.05-.28.16-.39.24-.16.39-.16Z"></path>
      <path class=" st20_1053691972" d="M295.34,353.2c-.33,0-.62-.05-.88-.15-.26-.1-.49-.23-.68-.4-.19-.17-.33-.36-.44-.59-.1-.22-.16-.46-.16-.72,0-.3.05-.55.16-.76.1-.2.22-.37.35-.49.15-.15.31-.26.5-.35-.14-.09-.27-.19-.38-.31-.1-.11-.18-.24-.25-.39s-.11-.33-.11-.55c0-.23.05-.44.14-.65.09-.2.22-.38.39-.54s.37-.28.61-.37c.23-.09.49-.14.76-.14s.53.05.76.14c.23.09.43.22.61.37.17.16.3.34.39.54.09.2.14.42.14.65,0,.21-.04.4-.12.55-.08.15-.17.28-.26.39-.11.12-.24.23-.37.31.19.09.35.2.5.35.13.13.24.29.34.49.1.2.15.45.15.76,0,.25-.05.49-.15.72-.1.22-.25.42-.43.59-.19.17-.41.3-.68.4-.26.1-.56.15-.88.15ZM295.34,350.25c-.38,0-.68.1-.89.3-.21.2-.31.45-.31.75s.11.55.31.75c.21.2.51.3.89.3s.68-.1.89-.3c.21-.2.31-.45.31-.75s-.11-.55-.31-.75c-.21-.2-.51-.3-.89-.3ZM295.34,349.4c.28,0,.51-.08.68-.25s.26-.37.26-.6c0-.25-.09-.47-.26-.64s-.4-.26-.68-.26-.51.09-.69.26c-.18.17-.27.39-.27.64,0,.23.09.43.27.6.18.17.41.25.69.25Z"></path>
    </g>
    <g>
      <path class=" st20_1053691972" d="M167.01,334.15c.29,0,.56.05.82.16.26.11.48.26.67.46.19.2.34.42.45.69s.17.54.17.84-.06.58-.17.84-.27.49-.47.69c-.2.2-.43.35-.7.46-.27.11-.56.16-.87.16s-.6-.05-.85-.14c-.25-.09-.47-.22-.65-.38s-.32-.34-.43-.55c-.1-.21-.16-.43-.18-.68h.95c.01.11.05.22.11.33.06.11.14.2.24.29.1.09.22.15.36.2.14.05.29.08.44.08.17,0,.34-.03.49-.1.15-.07.29-.16.4-.27.11-.11.2-.25.27-.41.06-.16.1-.33.1-.52s-.03-.36-.1-.52c-.06-.16-.15-.3-.27-.41-.11-.11-.25-.2-.4-.27-.15-.07-.32-.1-.49-.1-.2,0-.37.04-.52.12-.15.08-.27.17-.36.26-.11.11-.21.24-.27.37h-.8l.4-3.65h3.35v.9h-2.54l-.16,1.5c.07-.06.16-.11.27-.17.09-.05.19-.09.32-.12s.26-.05.41-.05Z"></path>
      <path class=" st20_1053691972" d="M170.39,337.35c.15,0,.28.06.39.17s.16.26.16.43c0,.25-.04.47-.12.64s-.18.32-.28.43c-.12.13-.25.24-.4.32l-.15-.2c.07-.05.13-.11.19-.18.05-.06.1-.13.15-.22s.08-.19.11-.3c-.17,0-.32-.05-.43-.16-.11-.11-.17-.23-.17-.39s.05-.28.16-.39.24-.16.39-.16Z"></path>
      <path class=" st20_1053691972" d="M173.77,338.45c-.33,0-.62-.05-.88-.15-.26-.1-.49-.23-.68-.4-.19-.17-.33-.36-.44-.59-.1-.22-.16-.46-.16-.72,0-.3.05-.55.16-.76.1-.2.22-.37.35-.49.15-.15.31-.26.5-.35-.14-.09-.27-.19-.38-.31-.09-.11-.18-.24-.25-.39s-.11-.33-.11-.55c0-.23.05-.44.14-.65.09-.2.22-.38.39-.54s.37-.28.6-.37c.23-.09.49-.14.76-.14s.53.05.76.14c.23.09.43.22.6.37s.3.34.4.54c.09.2.14.42.14.65,0,.21-.04.4-.12.55-.08.15-.17.28-.26.39-.11.12-.24.23-.37.31.19.09.35.2.5.35.13.13.24.29.34.49.1.2.15.45.15.76,0,.25-.05.49-.15.72-.1.22-.25.42-.43.59-.19.17-.41.3-.68.4-.26.1-.56.15-.88.15ZM173.77,335.5c-.38,0-.68.1-.89.3-.21.2-.32.45-.32.75s.1.55.32.75c.21.2.51.3.89.3s.68-.1.89-.3c.21-.2.32-.45.32-.75s-.1-.55-.32-.75c-.21-.2-.51-.3-.89-.3ZM173.77,334.65c.28,0,.51-.08.68-.25s.26-.37.26-.6c0-.25-.09-.47-.26-.64s-.4-.26-.68-.26-.51.09-.69.26-.27.39-.27.64c0,.23.09.43.27.6s.41.25.69.25Z"></path>
    </g>
    <g>
      <path class=" st20_1053691972" d="M448.04,319.55v6.3h-.95v-5l-.85.55-.45-.75,1.6-1.1h.65Z"></path>
      <path class=" st20_1053691972" d="M453.17,319.55v.65l-2.6,5.65h-1l2.5-5.4h-2.85v-.9h3.95Z"></path>
      <path class=" st20_1053691972" d="M454.34,324.8c.15,0,.28.06.39.17s.16.26.16.43c0,.25-.04.47-.12.64-.08.18-.18.32-.28.43-.12.13-.25.24-.4.32l-.15-.2c.07-.05.13-.11.19-.18.05-.06.1-.13.15-.22s.08-.19.11-.3c-.17,0-.32-.05-.43-.16-.11-.11-.17-.23-.17-.39s.05-.28.16-.39.24-.16.39-.16Z"></path>
      <path class=" st20_1053691972" d="M455.62,321.25c.01-.24.07-.47.17-.68.1-.21.24-.4.42-.55.18-.16.39-.29.64-.38.24-.09.52-.14.82-.14.29,0,.55.05.79.14.24.1.45.23.64.39.18.16.32.35.42.56.1.21.15.43.15.66s-.04.42-.12.59c-.08.16-.18.3-.28.4-.12.12-.25.22-.4.31.19.09.35.2.5.34.13.12.24.28.34.48.1.2.15.44.15.73,0,.24-.05.47-.15.68-.1.21-.25.4-.43.57-.19.17-.41.3-.68.4s-.56.15-.88.15-.62-.05-.88-.14c-.26-.09-.48-.22-.67-.38-.18-.16-.33-.34-.43-.55-.1-.21-.16-.43-.18-.68h.95c.01.11.05.22.11.33.06.11.14.2.24.29.1.09.23.15.37.2.15.05.3.08.48.08.38,0,.68-.1.89-.29.21-.19.31-.43.31-.71s-.11-.52-.32-.71-.51-.29-.88-.29h-.45v-.85h.4c.33,0,.58-.09.77-.26.19-.17.28-.39.28-.64,0-.28-.09-.51-.28-.68-.19-.18-.44-.26-.77-.26s-.58.09-.78.26-.3.39-.33.64h-.95Z"></path>
    </g>
    <g>
      <path class=" st20_1053691972" d="M329.53,210.21v.65l-2.6,5.65h-1l2.5-5.4h-2.85v-.9h3.95Z"></path>
      <path class=" st20_1053691972" d="M330.7,215.46c.15,0,.28.06.39.17s.16.26.16.43c0,.25-.04.47-.12.65-.08.18-.18.32-.28.43-.12.13-.25.24-.4.32l-.15-.2c.07-.04.13-.11.19-.18.05-.06.1-.13.15-.22s.08-.19.11-.3c-.17,0-.32-.05-.43-.16s-.17-.24-.17-.39.05-.28.16-.39.24-.16.39-.16Z"></path>
      <path class=" st20_1053691972" d="M334.14,216.56c-.31,0-.6-.05-.87-.16s-.5-.26-.7-.46c-.2-.2-.35-.43-.47-.69s-.17-.54-.17-.84c0-.19.03-.37.1-.56.06-.19.13-.35.21-.5.09-.17.19-.34.3-.49l1.75-2.65h1.05l-1.4,2.1s.07-.01.12-.02c.03,0,.07-.01.12-.02.05,0,.1,0,.15,0,.26,0,.51.05.76.16.24.11.45.26.64.46.18.2.33.43.44.69s.17.54.17.84-.06.58-.17.84-.27.49-.47.69c-.2.2-.43.35-.7.46s-.56.16-.87.16ZM332.89,214.41c0,.19.03.36.1.52.06.16.15.3.27.41s.25.2.4.27.32.1.49.1.33-.03.49-.1.29-.16.4-.27.2-.25.27-.41c.06-.16.1-.33.1-.52s-.03-.36-.1-.52c-.06-.16-.15-.3-.27-.41s-.25-.2-.4-.27-.32-.1-.49-.1-.33.03-.49.1-.29.16-.4.27-.2.25-.27.41c-.07.16-.1.34-.1.52Z"></path>
    </g>
    <g>
      <path class=" st20_1053691972" d="M326.95,312.8v.9h-4.05v-.7l2.5-2.7c.11-.12.21-.24.3-.37.08-.11.14-.24.21-.37.06-.13.1-.27.1-.41,0-.28-.1-.51-.29-.68-.19-.18-.46-.26-.81-.26-.33,0-.59.1-.8.3-.2.2-.31.47-.31.79h-.95c0-.29.05-.55.14-.79.1-.24.23-.45.41-.61.18-.17.39-.3.64-.4.25-.1.54-.14.85-.14s.6.05.85.14c.25.09.47.22.64.39.18.17.31.36.41.59.1.23.14.47.14.73,0,.2-.05.4-.14.6-.09.2-.2.38-.31.53-.13.18-.28.35-.45.52l-1.79,1.95h2.69Z"></path>
      <path class=" st20_1053691972" d="M331.88,312.8v.9h-4.05v-.7l2.5-2.7c.11-.12.21-.24.3-.37.08-.11.14-.24.21-.37.06-.13.1-.27.1-.41,0-.28-.1-.51-.29-.68-.19-.18-.46-.26-.81-.26-.33,0-.59.1-.8.3-.2.2-.31.47-.31.79h-.95c0-.29.05-.55.14-.79.1-.24.23-.45.41-.61.18-.17.39-.3.64-.4.25-.1.54-.14.85-.14s.6.05.85.14c.25.09.47.22.64.39.18.17.31.36.41.59.1.23.14.47.14.73,0,.2-.05.4-.14.6-.09.2-.2.38-.31.53-.13.18-.28.35-.45.52l-1.79,1.95h2.69Z"></path>
      <path class=" st20_1053691972" d="M333.21,312.65c.15,0,.28.06.39.17s.16.26.16.43c0,.25-.04.47-.12.64-.08.18-.18.32-.28.43-.12.13-.25.24-.4.32l-.15-.2c.07-.05.13-.11.19-.18.05-.06.1-.13.15-.22s.08-.19.11-.3c-.17,0-.32-.05-.43-.16-.11-.11-.17-.23-.17-.39s.05-.28.16-.39.24-.16.39-.16Z"></path>
      <path class=" st20_1053691972" d="M334.49,309.1c.01-.24.07-.47.17-.68.1-.21.24-.4.42-.55.18-.16.39-.29.64-.38.24-.09.52-.14.82-.14.29,0,.55.05.79.14.24.1.45.23.64.39.18.16.32.35.42.56.1.21.15.43.15.66s-.04.42-.12.59c-.08.16-.18.3-.28.4-.12.12-.25.22-.4.31.19.09.35.2.5.34.13.12.24.28.34.48.1.2.15.44.15.73,0,.24-.05.47-.15.68-.1.21-.25.4-.43.57-.19.17-.41.3-.68.4s-.56.15-.88.15-.62-.05-.88-.14c-.26-.09-.48-.22-.67-.38-.18-.16-.33-.34-.43-.55-.1-.21-.16-.43-.18-.68h.95c.01.11.05.22.11.33.06.11.14.2.24.29.1.09.23.15.37.2.15.05.3.08.48.08.38,0,.68-.1.89-.29.21-.19.31-.43.31-.71s-.11-.52-.32-.71-.51-.29-.88-.29h-.45v-.85h.4c.33,0,.58-.09.77-.26.19-.17.28-.39.28-.64,0-.28-.09-.51-.28-.68-.19-.18-.44-.26-.77-.26s-.58.09-.78.26-.3.39-.33.64h-.95Z"></path>
    </g>
    <g>
      <path class=" st20_1053691972" d="M394.83,358.67h-.7v1.25h-.95v-1.25h-2.8v-.8l2.65-4.25h1.1v4.15h.7v.9ZM393.18,357.77v-2.75l-1.7,2.75h1.7Z"></path>
      <path class=" st20_1053691972" d="M395.96,358.87c.15,0,.28.06.39.17s.16.26.16.43c0,.25-.04.47-.12.64-.08.18-.18.32-.28.43-.12.13-.25.24-.4.32l-.15-.2c.07-.05.13-.11.19-.18.05-.06.1-.13.15-.22s.08-.19.11-.3c-.17,0-.32-.05-.43-.16-.11-.11-.17-.23-.17-.39s.05-.28.16-.39.24-.16.39-.16Z"></path>
      <path class=" st20_1053691972" d="M401.19,353.62v.65l-2.6,5.65h-1l2.5-5.4h-2.85v-.9h3.95Z"></path>
    </g>
    <g>
      <path class=" st20_1053691972" d="M366.61,281.96c.01-.24.07-.47.17-.68.1-.21.24-.39.42-.55.18-.16.39-.29.64-.38.24-.09.52-.14.82-.14.29,0,.55.05.79.14.24.1.45.23.64.39.18.16.32.35.42.56.1.21.15.43.15.66s-.04.42-.12.59c-.08.16-.18.3-.28.4-.12.12-.25.22-.4.31.19.09.35.2.5.34.13.12.24.28.34.48.1.2.15.44.15.73,0,.24-.05.47-.15.68-.1.21-.25.4-.43.57-.19.17-.41.3-.68.4s-.56.15-.88.15-.62-.05-.88-.14c-.26-.09-.48-.22-.67-.38-.18-.16-.33-.34-.43-.55-.1-.21-.16-.43-.18-.68h.95c.01.11.05.22.11.33.06.11.14.2.24.29.1.09.23.15.37.2.15.05.3.08.48.08.38,0,.68-.1.89-.29.21-.19.31-.43.31-.71s-.11-.52-.32-.71-.51-.29-.88-.29h-.45v-.85h.4c.33,0,.58-.09.77-.26.19-.17.28-.39.28-.64,0-.28-.09-.51-.28-.68-.19-.18-.44-.26-.77-.26s-.58.09-.78.26-.3.39-.33.64h-.95Z"></path>
      <path class=" st20_1053691972" d="M375.94,285.31h-.7v1.25h-.95v-1.25h-2.8v-.8l2.65-4.25h1.1v4.15h.7v.9ZM374.29,284.41v-2.75l-1.7,2.75h1.7Z"></path>
      <path class=" st20_1053691972" d="M377.07,285.51c.15,0,.28.06.39.17s.16.26.16.43c0,.25-.04.47-.12.64-.08.18-.18.32-.28.43-.12.13-.25.24-.4.32l-.15-.2c.07-.05.13-.11.19-.18.05-.06.1-.13.15-.22s.08-.19.11-.3c-.17,0-.32-.05-.43-.16-.11-.11-.17-.23-.17-.39s.05-.28.16-.39.24-.16.39-.16Z"></path>
      <path class=" st20_1053691972" d="M383.35,283.41c0,.52-.07.97-.2,1.36-.13.4-.32.73-.55,1s-.5.48-.8.62-.62.21-.96.21-.66-.07-.96-.21c-.3-.14-.57-.35-.8-.62-.23-.27-.41-.61-.54-1-.13-.39-.2-.85-.2-1.36s.07-.97.2-1.37.32-.73.54-1c.23-.27.49-.48.79-.62s.62-.21.96-.21.66.07.96.21.56.35.8.62c.23.27.41.61.55,1s.2.85.2,1.37ZM382.4,283.41c0-.39-.05-.73-.13-1.02-.09-.29-.21-.54-.35-.73-.15-.2-.31-.35-.5-.44-.19-.1-.37-.15-.56-.15s-.37.05-.56.15c-.19.1-.35.25-.5.44-.15.2-.27.44-.36.73s-.14.63-.14,1.02.05.73.14,1.02.21.54.36.73c.15.2.31.35.5.45.19.1.37.15.56.15s.37-.05.56-.15c.19-.1.35-.25.5-.45.15-.2.27-.44.35-.73.09-.29.13-.63.13-1.02Z"></path>
    </g>
    <g>
      <path class=" st20_1053691972" d="M109.69,201.08c.01-.24.07-.47.17-.68s.24-.4.42-.55.39-.29.64-.38.52-.14.82-.14c.29,0,.55.05.79.14s.45.23.64.39.32.35.42.56.15.43.15.66-.04.42-.12.59-.18.3-.28.4c-.12.12-.25.22-.4.31.19.09.35.2.5.34.13.12.24.28.34.48s.15.44.15.73c0,.24-.05.47-.15.68s-.25.4-.43.57-.41.3-.68.4-.56.15-.88.15-.62-.05-.88-.14-.48-.22-.67-.38-.33-.34-.43-.55-.16-.44-.18-.68h.95c.01.11.05.22.11.33s.14.2.24.29.23.15.37.21.3.08.48.08c.38,0,.68-.1.89-.29s.32-.43.32-.71-.11-.52-.32-.71-.51-.29-.88-.29h-.45v-.85h.4c.33,0,.58-.09.77-.26s.28-.39.28-.64c0-.28-.09-.51-.28-.68s-.44-.26-.77-.26-.58.09-.78.26-.3.39-.33.64h-.95Z"></path>
      <path class=" st20_1053691972" d="M118.81,204.78v.9h-4.05v-.7l2.5-2.7c.11-.12.21-.24.3-.37.07-.11.14-.24.21-.37s.1-.27.1-.41c0-.28-.1-.51-.29-.68s-.46-.26-.81-.26c-.33,0-.59.1-.8.3s-.31.47-.31.79h-.95c0-.29.05-.55.14-.79s.23-.45.41-.62.39-.3.64-.4.54-.14.85-.14.6.05.85.14.47.22.64.39.31.36.41.59.14.47.14.73c0,.2-.05.4-.14.6s-.2.38-.31.53c-.13.18-.28.35-.45.52l-1.79,1.95h2.69Z"></path>
      <path class=" st20_1053691972" d="M120.14,204.63c.15,0,.28.06.39.17s.16.26.16.43c0,.25-.04.47-.12.65s-.18.32-.28.43c-.12.13-.25.24-.4.32l-.15-.2c.07-.04.13-.11.19-.18.05-.06.1-.13.15-.22s.08-.19.11-.3c-.17,0-.32-.05-.43-.16s-.17-.24-.17-.39.05-.28.16-.39.24-.16.39-.16Z"></path>
      <path class=" st20_1053691972" d="M125.37,199.38v.65l-2.6,5.65h-1l2.5-5.4h-2.85v-.9h3.95Z"></path>
    </g>
    <g>
      <path class=" st20_1053691972" d="M372.94,177.14v6.3h-.95v-5l-.85.55-.45-.75,1.6-1.1h.65Z"></path>
      <path class=" st20_1053691972" d="M376.37,179.19c.29,0,.56.05.82.16s.48.26.67.46c.19.2.34.43.45.69s.17.54.17.84-.06.58-.17.84-.27.49-.47.69c-.2.2-.43.35-.7.46s-.56.16-.87.16-.6-.05-.85-.14-.47-.22-.65-.38-.32-.34-.42-.55-.16-.44-.18-.68h.95c.01.11.05.22.11.33.06.11.14.2.24.29s.22.15.36.21.29.08.44.08c.17,0,.33-.03.49-.1s.29-.16.4-.27.2-.25.27-.41c.06-.16.1-.33.1-.52s-.03-.36-.1-.52c-.06-.16-.15-.3-.27-.41s-.25-.2-.4-.27-.32-.1-.49-.1c-.2,0-.37.04-.52.12-.15.08-.27.17-.36.26-.11.11-.2.24-.27.37h-.8l.4-3.65h3.35v.9h-2.54l-.16,1.5c.08-.06.16-.12.27-.17.09-.04.19-.09.32-.12.12-.04.26-.06.41-.06Z"></path>
      <path class=" st20_1053691972" d="M379.75,182.39c.15,0,.28.06.39.17s.16.26.16.43c0,.25-.04.47-.12.65-.08.18-.18.32-.28.43-.12.13-.25.24-.4.32l-.15-.2c.07-.04.13-.11.19-.18.05-.06.1-.13.15-.22s.08-.19.11-.3c-.17,0-.32-.05-.43-.16s-.17-.24-.17-.39.05-.28.16-.39.24-.16.39-.16Z"></path>
      <path class=" st20_1053691972" d="M381.03,178.84c.01-.24.07-.47.17-.68.1-.21.24-.4.42-.55.18-.16.39-.29.64-.38.24-.09.52-.14.82-.14.29,0,.55.05.79.14.24.1.45.23.64.39.18.16.32.35.42.56.1.21.15.43.15.66s-.04.42-.12.59c-.08.16-.18.3-.28.4-.12.12-.25.22-.4.31.19.09.35.2.5.34.13.12.24.28.34.48.1.2.15.44.15.73,0,.24-.05.47-.15.68-.1.21-.25.4-.43.57-.19.16-.41.3-.68.4s-.56.15-.88.15-.62-.05-.88-.14-.48-.22-.67-.38c-.18-.16-.33-.34-.43-.55-.1-.21-.16-.44-.18-.68h.95c.01.11.05.22.11.33.06.11.14.2.24.29.1.09.23.15.37.21.15.05.3.08.48.08.38,0,.68-.1.89-.29.21-.19.31-.43.31-.71s-.11-.52-.32-.71-.51-.29-.88-.29h-.45v-.85h.4c.33,0,.58-.09.77-.26.19-.17.28-.39.28-.64,0-.28-.09-.51-.28-.68-.19-.18-.44-.26-.77-.26s-.58.09-.78.26-.3.39-.33.64h-.95Z"></path>
      <path class=" st20_1053691972" d="M388.83,185.24h-.85l2.6-8.1h.85l-2.6,8.1Z"></path>
      <path class=" st20_1053691972" d="M398.43,182.19h-.7v1.25h-.95v-1.25h-2.8v-.8l2.65-4.25h1.1v4.15h.7v.9ZM396.78,181.29v-2.75l-1.7,2.75h1.7Z"></path>
      <path class=" st20_1053691972" d="M399.56,182.39c.15,0,.28.06.39.17s.16.26.16.43c0,.25-.04.47-.12.65-.08.18-.18.32-.28.43-.12.13-.25.24-.4.32l-.15-.2c.07-.04.13-.11.19-.18.05-.06.1-.13.15-.22s.08-.19.11-.3c-.17,0-.32-.05-.43-.16s-.17-.24-.17-.39.05-.28.16-.39.24-.16.39-.16Z"></path>
      <path class=" st20_1053691972" d="M402.99,183.49c-.31,0-.6-.05-.87-.16s-.5-.26-.7-.46c-.2-.2-.35-.43-.47-.69s-.17-.54-.17-.84c0-.19.03-.37.1-.56.06-.19.13-.35.21-.5.09-.17.19-.34.3-.49l1.75-2.65h1.05l-1.4,2.1s.07-.01.12-.02c.03,0,.07-.01.12-.02.05,0,.1,0,.15,0,.26,0,.51.05.76.16.24.11.45.26.64.46.18.2.33.43.44.69s.17.54.17.84-.06.58-.17.84-.27.49-.47.69c-.2.2-.43.35-.7.46s-.56.16-.87.16ZM401.74,181.34c0,.19.03.36.1.52.06.16.15.3.27.41s.25.2.4.27.32.1.49.1.33-.03.49-.1.29-.16.4-.27.2-.25.27-.41c.06-.16.1-.33.1-.52s-.03-.36-.1-.52c-.06-.16-.15-.3-.27-.41s-.25-.2-.4-.27-.32-.1-.49-.1-.33.03-.49.1-.29.16-.4.27-.2.25-.27.41c-.07.16-.1.33-.1.52Z"></path>
      <path class=" st20_1053691972" d="M406.77,178.74l-1-.25.2-.65.95.35-.05-1.05h.7l-.05,1.05.95-.35.2.65-1,.25.65.8-.6.4-.5-.85-.5.85-.6-.4.65-.8Z"></path>
    </g>
    <g>
      <path class=" st20_1053691972" d="M238.84,257.15v6.3h-.95v-5l-.85.55-.45-.75,1.6-1.1h.65Z"></path>
      <path class=" st20_1053691972" d="M242.12,257.15v6.3h-.95v-5l-.85.55-.45-.75,1.6-1.1h.65Z"></path>
      <path class=" st20_1053691972" d="M243.79,262.4c.15,0,.28.06.39.17s.16.26.16.43c0,.25-.04.47-.12.64s-.18.32-.28.43c-.12.13-.25.24-.4.32l-.15-.2c.07-.05.13-.11.19-.18.05-.06.1-.13.15-.22s.08-.19.11-.3c-.17,0-.32-.05-.43-.16s-.17-.23-.17-.39.05-.28.16-.39.24-.16.39-.16Z"></path>
      <path class=" st20_1053691972" d="M245.07,258.85c.01-.24.07-.47.17-.68s.24-.39.42-.55.39-.29.63-.38.52-.14.82-.14c.29,0,.55.05.79.14s.45.23.63.39.32.35.42.56.15.43.15.66-.04.42-.12.59-.18.3-.28.4c-.12.12-.25.22-.4.31.19.09.35.2.5.34.13.12.24.28.34.48s.15.44.15.73c0,.24-.05.47-.15.68s-.25.4-.43.57-.41.3-.68.4-.56.15-.88.15-.62-.05-.88-.14-.48-.22-.67-.38-.33-.34-.43-.55-.16-.44-.18-.68h.95c.01.11.05.22.11.33s.14.2.24.29.23.15.37.2.3.08.48.08c.38,0,.68-.1.89-.29s.32-.43.32-.71-.11-.52-.32-.71-.51-.29-.88-.29h-.45v-.85h.4c.33,0,.58-.09.77-.26s.28-.39.28-.64c0-.28-.09-.51-.28-.68s-.44-.26-.77-.26-.58.09-.78.26-.3.39-.33.64h-.95Z"></path>
    </g>
    <g>
      <path class=" st20_1053691972" d="M198.3,257.15v6.3h-.95v-5l-.85.55-.45-.75,1.6-1.1h.65Z"></path>
      <path class=" st20_1053691972" d="M201.58,257.15v6.3h-.95v-5l-.85.55-.45-.75,1.6-1.1h.65Z"></path>
      <path class=" st20_1053691972" d="M203.25,262.4c.15,0,.28.06.39.17s.16.26.16.43c0,.25-.04.47-.12.64s-.18.32-.28.43c-.12.13-.25.24-.4.32l-.15-.2c.07-.05.13-.11.19-.18.05-.06.1-.13.15-.22s.08-.19.11-.3c-.17,0-.32-.05-.43-.16s-.17-.23-.17-.39.05-.28.16-.39.24-.16.39-.16Z"></path>
      <path class=" st20_1053691972" d="M204.53,258.85c.01-.24.07-.47.17-.68s.24-.39.42-.55.39-.29.63-.38.52-.14.82-.14c.29,0,.55.05.79.14s.45.23.63.39.32.35.42.56.15.43.15.66-.04.42-.12.59-.18.3-.28.4c-.12.12-.25.22-.4.31.19.09.35.2.5.34.13.12.24.28.34.48s.15.44.15.73c0,.24-.05.47-.15.68s-.25.4-.43.57-.41.3-.68.4-.56.15-.88.15-.62-.05-.88-.14-.48-.22-.67-.38-.33-.34-.43-.55-.16-.44-.18-.68h.95c.01.11.05.22.11.33s.14.2.24.29.23.15.37.2.3.08.48.08c.38,0,.68-.1.89-.29s.32-.43.32-.71-.11-.52-.32-.71-.51-.29-.88-.29h-.45v-.85h.4c.33,0,.58-.09.77-.26s.28-.39.28-.64c0-.28-.09-.51-.28-.68s-.44-.26-.77-.26-.58.09-.78.26-.3.39-.33.64h-.95Z"></path>
    </g>
    <g>
      <path class=" st20_1053691972" d="M75.99,329.35v6.3h-.95v-5l-.85.55-.45-.75,1.6-1.1h.65Z"></path>
      <path class=" st20_1053691972" d="M82.16,332.5c0,.52-.07.97-.2,1.36-.13.4-.32.73-.55,1s-.5.48-.8.62-.62.21-.96.21-.66-.07-.96-.21-.57-.35-.8-.62-.41-.61-.54-1c-.13-.39-.2-.85-.2-1.36s.07-.97.2-1.37.32-.73.54-1,.49-.48.79-.62.62-.21.96-.21.66.07.96.21.57.35.8.62c.23.27.41.61.55,1s.2.85.2,1.37ZM81.21,332.5c0-.39-.04-.73-.13-1.02s-.21-.54-.35-.73c-.15-.2-.31-.35-.5-.45s-.37-.15-.56-.15-.37.05-.56.15c-.19.1-.35.25-.5.45-.15.2-.26.44-.36.73s-.14.63-.14,1.02.04.73.14,1.02.21.54.36.73c.15.2.31.35.5.45.19.1.37.15.56.15s.37-.05.56-.15c.19-.1.35-.25.5-.45.15-.2.26-.44.35-.73s.13-.63.13-1.02Z"></path>
      <path class=" st20_1053691972" d="M83.44,334.6c.15,0,.28.06.39.17s.16.26.16.43c0,.25-.04.47-.12.64s-.18.32-.28.43c-.12.13-.25.24-.4.32l-.15-.2c.07-.05.13-.11.19-.18.05-.06.1-.13.15-.22s.08-.19.11-.3c-.17,0-.32-.05-.43-.16-.11-.11-.17-.23-.17-.39s.05-.28.16-.39.24-.16.39-.16Z"></path>
      <path class=" st20_1053691972" d="M86.87,329.3c.31,0,.6.05.87.16.27.11.5.26.7.46.2.2.35.42.47.69s.17.54.17.84c0,.19-.03.38-.1.56s-.13.35-.21.49c-.09.17-.19.33-.3.49l-1.75,2.65h-1.05l1.4-2.1s-.07.02-.11.03c-.03,0-.07.01-.12.02s-.11,0-.16,0c-.26,0-.51-.05-.75-.16-.24-.11-.46-.26-.64-.46-.18-.2-.33-.42-.44-.69s-.17-.54-.17-.84.06-.58.17-.84.27-.49.47-.69c.2-.2.43-.35.7-.46.27-.11.56-.16.87-.16ZM88.12,331.45c0-.19-.03-.36-.1-.52-.06-.16-.15-.3-.27-.41-.11-.11-.25-.2-.4-.27-.15-.07-.32-.1-.49-.1s-.33.03-.49.1c-.15.07-.29.16-.4.27-.11.11-.2.25-.27.41s-.1.33-.1.52.03.36.1.52.15.3.27.41.25.2.4.27c.15.07.32.1.49.1s.33-.03.49-.1c.15-.07.29-.16.4-.27s.2-.25.27-.41.1-.33.1-.52Z"></path>
    </g>
  </g>
</svg></svg>