<svg xmlns="http://www.w3.org/2000/svg" version="1.1" xmlns:xlink="http://www.w3.org/1999/xlink"><svg data-name="Слой_1" xmlns="http://www.w3.org/2000/svg" xmlns:xlink="http://www.w3.org/1999/xlink" version="1.1" viewBox="0 0 560 560">
  
  <defs>
    <style>
      .st0_1189851464, .st1_1189851464, .st2_1189851464, .st3_1189851464, .st4_1189851464, .st5_1189851464, .st6_1189851464 {
        fill: none;
      }

      .st1_1189851464, .st2_1189851464, .st3_1189851464, .st4_1189851464, .st5_1189851464, .st7_1189851464, .st8_1189851464, .st9_1189851464, .st10_1189851464, .st11_1189851464, .st12_1189851464, .st13_1189851464, .st14_1189851464, .st15_1189851464, .st16_1189851464, .st6_1189851464, .st17_1189851464, .st18_1189851464 {
        stroke-linecap: round;
        stroke-linejoin: round;
      }

      .st1_1189851464, .st5_1189851464, .st9_1189851464, .st10_1189851464, .st6_1189851464, .st17_1189851464, .st18_1189851464 {
        stroke-width: .5px;
      }

      .st1_1189851464, .st9_1189851464 {
        stroke: #d8cbb5;
      }

      .st2_1189851464 {
        stroke-width: .25px;
      }

      .st2_1189851464, .st3_1189851464, .st4_1189851464, .st5_1189851464, .st7_1189851464, .st8_1189851464, .st10_1189851464, .st11_1189851464, .st12_1189851464, .st13_1189851464, .st14_1189851464, .st15_1189851464, .st16_1189851464, .st6_1189851464, .st18_1189851464 {
        stroke: #1b4732;
      }

      .st3_1189851464 {
        stroke-width: .5px;
      }

      .st4_1189851464 {
        stroke-width: .5px;
      }

      .st7_1189851464 {
        stroke-width: .5px;
      }

      .st7_1189851464, .st8_1189851464 {
        fill: #fff;
      }

      .st8_1189851464 {
        stroke-width: .5px;
      }

      .st9_1189851464 {
        fill: url(#_Терраса);
      }

      .st19_1189851464 {
        fill: #1b4732;
      }

      .st10_1189851464, .st11_1189851464, .st12_1189851464, .st13_1189851464, .st14_1189851464, .st15_1189851464, .st16_1189851464 {
        fill: #f5e8d1;
      }

      .st11_1189851464 {
        stroke-width: .5px;
      }

      .st12_1189851464 {
        stroke-width: .5px;
      }

      .st13_1189851464 {
        stroke-width: .5px;
      }

      .st14_1189851464 {
        stroke-width: .5px;
      }

      .st15_1189851464 {
        stroke-width: .5px;
      }

      .st16_1189851464 {
        stroke-width: .5px;
      }

      .st6_1189851464 {
        stroke-dasharray: 3;
      }

      .st17_1189851464 {
        fill: #666c35;
        stroke: #666c35;
      }

      .st18_1189851464 {
        fill: #e1d1b6;
      }
    </style>
    <pattern data-name="Терраса" x="0" y="0" width="10.1" height="8.7" patternTransform="translate(-8 -15304) scale(1 -1)" patternUnits="userSpaceOnUse" viewBox="0 0 10.1 8.7">
      <g>
        <rect class=" st0_1189851464" width="10.1" height="8.7"></rect>
        <g>
          <rect class=" st0_1189851464" width="10.1" height="8.7"></rect>
          <g>
            <line class=" st1_1189851464" x1="10.15" y1="6.4" x2="20.15" y2="6.4"></line>
            <line class=" st1_1189851464" x1="10.15" y1="2.3" x2="20.15" y2="2.3"></line>
          </g>
          <g>
            <line class=" st1_1189851464" x1=".05" y1="6.4" x2="10.05" y2="6.4"></line>
            <line class=" st1_1189851464" x1=".05" y1="2.3" x2="10.05" y2="2.3"></line>
          </g>
          <g>
            <line class=" st1_1189851464" x1="-10.05" y1="6.4" x2="-.05" y2="6.4"></line>
            <line class=" st1_1189851464" x1="-10.05" y1="2.3" x2="-.05" y2="2.3"></line>
          </g>
        </g>
      </g>
    </pattern>
  </defs>
  <g>
    <line class=" st6_1189851464" x1="231.81" y1="243.5" x2="292.19" y2="243.49"></line>
    <line class=" st6_1189851464" x1="272.88" y1="388.64" x2="272.88" y2="243.49"></line>
    <line class=" st6_1189851464" x1="157.37" y1="125.04" x2="157.37" y2="78.23"></line>
  </g>
  <g>
    <path class=" st9_1189851464" d="M255.15,468.27h178.11c35.27,0,63.39-26.48,63.47-61.72l-75.05-.14v-3.85h-156.03v3.85l-74.69-.04c-.57,31.65,27.09,63.51,64.19,61.9Z"></path>
  </g>
  <g>
    <rect class=" st5_1189851464" x="421.68" y="398.88" width="39.27" height="7.54"></rect>
    <polygon class=" st5_1189851464" points="498.33 361.08 498.33 406.42 463.52 406.42 463.52 398.88 490.79 398.88 490.79 361.08 498.33 361.08"></polygon>
    <rect class=" st5_1189851464" x="490.79" y="314.66" width="7.54" height="43.86"></rect>
    <rect class=" st5_1189851464" x="490.79" y="289.61" width="7.54" height="22.51"></rect>
    <rect class=" st5_1189851464" x="490.79" y="243.12" width="7.54" height="43.95"></rect>
    <rect class=" st5_1189851464" x="490.79" y="206.87" width="7.54" height="33.68"></rect>
    <rect class=" st5_1189851464" x="490.79" y="181.84" width="7.54" height="22.48"></rect>
    <rect class=" st5_1189851464" x="490.79" y="144.55" width="7.54" height="34.75"></rect>
    <rect class=" st5_1189851464" x="103.15" y="359.72" width="27.98" height="7.54"></rect>
    <rect class=" st5_1189851464" x="133.68" y="359.72" width="22.92" height="7.54"></rect>
    <rect class=" st5_1189851464" x="159.14" y="359.72" width="29.98" height="7.54"></rect>
    <rect class=" st5_1189851464" x="490.79" y="142.44" width="7.54" height="2.11"></rect>
    <rect class=" st5_1189851464" x="490.79" y="142.01" width="7.54" height=".43"></rect>
    <rect class=" st5_1189851464" x="490.79" y="204.33" width="7.54" height="2.54"></rect>
    <rect class=" st5_1189851464" x="490.79" y="240.55" width="7.54" height="2.57"></rect>
    <rect class=" st5_1189851464" x="490.79" y="179.3" width="7.54" height="2.54"></rect>
    <rect class=" st5_1189851464" x="490.79" y="358.52" width="7.54" height="2.57"></rect>
    <rect class=" st5_1189851464" x="460.95" y="398.88" width="2.57" height="7.54"></rect>
    <rect class=" st5_1189851464" x="421.68" y="398.88" width="2.54" height="7.54"></rect>
    <rect class=" st5_1189851464" x="225.86" y="398.88" width="39.79" height="7.54"></rect>
    <rect class=" st5_1189851464" x="263.11" y="398.88" width="2.54" height="7.54"></rect>
    <rect class=" st5_1189851464" x="186.57" y="359.71" width="2.55" height="7.55"></rect>
    <rect class=" st5_1189851464" x="156.59" y="359.72" width="2.54" height="7.54"></rect>
    <rect class=" st5_1189851464" x="156.59" y="359.7" width="2.54" height=".02"></rect>
    <rect class=" st5_1189851464" x="131.13" y="359.72" width="2.54" height="7.54"></rect>
    <rect class=" st5_1189851464" x="131.13" y="359.7" width="2.54" height=".02"></rect>
    <rect class=" st5_1189851464" x="103.16" y="359.7" width="2.55" height="7.55"></rect>
    <rect class=" st5_1189851464" x="225.87" y="398.87" width="2.55" height="7.55"></rect>
    <rect class=" st5_1189851464" x="105.7" y="365.99" width="25.44" height="1.27"></rect>
    <rect class=" st5_1189851464" x="133.68" y="365.99" width="22.92" height="1.27"></rect>
    <rect class=" st5_1189851464" x="159.14" y="365.99" width="27.43" height="1.27"></rect>
    <rect class=" st5_1189851464" x="228.41" y="405.14" width="34.7" height="1.27"></rect>
    <rect class=" st5_1189851464" x="424.23" y="405.14" width="36.72" height="1.27"></rect>
    <polygon class=" st5_1189851464" points="496.38 406.17 496.38 406.42 463.52 406.42 463.52 405.14 495.31 405.14 496.38 406.17"></polygon>
    <rect class=" st5_1189851464" x="497.06" y="144.55" width="1.27" height="34.75"></rect>
    <rect class=" st5_1189851464" x="497.06" y="181.84" width="1.27" height="22.48"></rect>
    <rect class=" st5_1189851464" x="497.06" y="206.87" width="1.27" height="33.68"></rect>
    <rect class=" st5_1189851464" x="490.79" y="312.12" width="7.54" height="2.54"></rect>
    <rect class=" st5_1189851464" x="490.79" y="287.07" width="7.54" height="2.54"></rect>
    <rect class=" st5_1189851464" x="497.06" y="243.12" width="1.27" height="43.95"></rect>
    <rect class=" st5_1189851464" x="497.06" y="289.61" width="1.27" height="22.51"></rect>
    <rect class=" st5_1189851464" x="497.06" y="314.66" width="1.27" height="43.86"></rect>
    <polygon class=" st5_1189851464" points="498.33 361.08 498.33 404.37 497.06 403.26 497.06 361.08 498.33 361.08"></polygon>
    <line class=" st5_1189851464" x1="490.86" y1="397.08" x2="498.25" y2="404.45"></line>
    <polyline class=" st5_1189851464" points="496.47 406.31 495.27 405.11 489.08 398.9"></polyline>
  </g>
  <g>
    <rect class=" st8_1189851464" x="486.87" y="182.58" width="1.07" height="22.14" transform="translate(-33.51 132.74) rotate(-15)"></rect>
    <rect class=" st8_1189851464" x="476.33" y="299.49" width="22.14" height="1.07" transform="translate(71.45 693.16) rotate(-75)"></rect>
    <rect class=" st7_1189851464" x="145.39" y="345.26" width="1.07" height="22.14" transform="translate(-236.03 405.06) rotate(-75)"></rect>
  </g>
  <g>
    <path class=" st2_1189851464" d="M490.79,236.38h-10.3v-91.2h10.3v91.2ZM480.49,150.7h10.3M480.49,156.45h10.3M480.49,162.2h10.3M480.49,167.95h10.3M480.49,173.7h10.3M480.49,179.45h10.3M480.49,185.2h10.3M480.49,190.95h10.3M480.49,196.7h10.3M480.49,202.45h10.3M480.49,208.2h10.3M480.49,213.95h10.3M480.49,219.69h10.3M480.49,225.44h10.3M480.49,231.19h10.3M480.52,388.6l10.28,10.28-277.34.05v-10.28s267.06-.05,267.06-.05ZM479.7,388.77v9.99M485.34,393.4v5.36M473.38,388.62v10.25M467.17,388.62v10.25M460.97,388.62v10.25M454.76,388.62v10.25M448.56,388.62v10.25M442.35,388.62v10.25M436.15,388.62v10.25M429.94,388.62v10.25M423.74,388.62v10.25M417.53,388.62v10.25M411.33,388.62v10.25M405.12,388.62v10.25M398.92,388.62v10.25M392.71,388.62v10.25M386.51,388.62v10.25M380.3,388.62v10.25M374.1,388.64v10.25M368.29,388.64v10.25M362.49,388.64v10.25M356.69,388.64v10.25M350.89,388.64v10.25M345.09,388.64v10.25M339.29,388.64v10.25M333.48,388.64v10.25M327.68,388.64v10.25M321.88,388.64v10.25M316.08,388.64v10.25M310.28,388.64v10.25M304.36,388.64v10.25M298.45,388.64v10.25M292.53,388.64v10.25M286.52,388.64v10.25M280.5,388.64v10.25M274.49,388.64v10.25M268.47,388.64v10.25M262.46,388.64v10.25M256.45,388.64v10.25M250.43,388.64v10.25M244.42,388.64v10.25M238.41,388.64v10.25M232.39,388.64v10.25M226.38,388.64v10.25M220.37,388.64v10.25M480.52,388.29v-140h10.28v150.59M485.34,393.4h5.34M480.63,387.75h10.05M490.81,381.42h-10.31M490.81,375.21h-10.31M490.81,369.12h-10.31M490.81,363.03h-10.31M490.81,356.94h-10.31M490.81,350.85h-10.31M490.81,344.76h-10.31M490.81,338.67h-10.31M490.81,332.58h-10.31M490.81,326.48h-10.31M490.81,320.39h-10.31M490.81,314.3h-10.31M490.81,308.21h-10.31M490.81,302.12h-10.31M490.81,296.03h-10.31M490.81,289.93h-10.31M490.81,283.84h-10.31M490.81,277.75h-10.31M490.81,271.66h-10.31M490.81,265.57h-10.31M490.81,259.48h-10.31M490.81,253.39h-10.31M104.27,359.72v-10.3h88.91v10.3h-88.91ZM110.28,349.44v10.25M116.29,349.44v10.25M122.31,349.44v10.25M128.32,349.44v10.25M134.34,349.44v10.25M140.35,349.44v10.25M146.36,349.44v10.25M152.38,349.44v10.25M158.39,349.44v10.25M164.4,349.44v10.25M170.42,349.44v10.25M176.43,349.44v10.25M182.44,349.44v10.25M188.46,349.44v10.25"></path>
  </g>
  <g>
    <rect class=" st10_1189851464" x="343.87" y="164.99" width="16.32" height="35.9"></rect>
    <g>
      <path class=" st10_1189851464" d="M346.53,174.18h8.78v16.67h-8.78c-.55,0-1-.45-1-1v-14.67c0-.55.45-1,1-1Z"></path>
      <rect class=" st10_1189851464" x="355.31" y="174.18" width="1.28" height="16.67"></rect>
      <rect class=" st10_1189851464" x="353.62" y="181.71" width="4.9" height="1.6"></rect>
      <circle class=" st10_1189851464" cx="351.02" cy="182.51" r="1.14"></circle>
    </g>
    <rect class=" st10_1189851464" x="177.44" y="78.23" width="19.82" height="28.03"></rect>
    <g>
      <rect class=" st10_1189851464" x="266.4" y="309.26" width="25.01" height="63.07"></rect>
      <g>
        <path class=" st10_1189851464" d="M302.8,361.88h-11.39v-15.06h11.39c1.11,0,2,.89,2,2v11.06c0,1.1-.9,2-2,2Z"></path>
        <path class=" st10_1189851464" d="M299.14,361.88h-7.73v-15.06h7.73c1.11,0,2,.89,2,2v11.06c0,1.1-.9,2-2,2Z"></path>
      </g>
      <g>
        <path class=" st10_1189851464" d="M255.01,361.88h11.39v-15.06h-11.39c-1.1,0-2,.89-2,2v11.06c0,1.1.9,2,2,2Z"></path>
        <path class=" st10_1189851464" d="M258.66,361.88h7.73v-15.06h-7.73c-1.11,0-2,.89-2,2v11.06c0,1.1.9,2,2,2Z"></path>
      </g>
      <g>
        <path class=" st10_1189851464" d="M302.8,334.78h-11.39v-15.06h11.39c1.11,0,2,.89,2,2v11.06c0,1.11-.9,2-2,2Z"></path>
        <path class=" st10_1189851464" d="M299.14,334.78h-7.73v-15.06h7.73c1.11,0,2,.89,2,2v11.06c0,1.11-.9,2-2,2Z"></path>
      </g>
      <g>
        <path class=" st10_1189851464" d="M255.01,334.78h11.39v-15.06h-11.39c-1.1,0-2,.89-2,2v11.06c0,1.11.9,2,2,2Z"></path>
        <path class=" st10_1189851464" d="M258.66,334.78h7.73v-15.06h-7.73c-1.11,0-2,.89-2,2v11.06c0,1.11.9,2,2,2Z"></path>
      </g>
    </g>
    <rect class=" st10_1189851464" x="196.95" y="247.09" width="9.13" height="89.55"></rect>
    <rect class=" st10_1189851464" x="209.89" y="243.5" width="21.92" height="155.37"></rect>
    <g>
      <rect class=" st16_1189851464" x="209.89" y="287.35" width="21.92" height="21.08"></rect>
      <rect class=" st16_1189851464" x="230.14" y="287.35" width="1.67" height="21.08"></rect>
      <path class=" st10_1189851464" d="M225.41,297.89h0c0,1.24-.59,2.07-1.44,2.56-1.04.61-2.35.61-3.46.12l-6.16-2.68,5.98-2.67c.99-.44,2.13-.49,3.13-.06,1.08.46,1.95,1.34,1.95,2.73Z"></path>
    </g>
    <g>
      <rect class=" st16_1189851464" x="209.89" y="308.43" width="21.92" height="30.55"></rect>
      <path class=" st10_1189851464" d="M229.68,335.61v-23.8c0-.55-.45-1-1-1h-13.51c-.55,0-1,.45-1,1v23.8c0,.55.45,1,1,1h13.51c.55,0,1-.45,1-1Z"></path>
      <rect class=" st16_1189851464" x="211.02" y="322.55" width="6.66" height="2.3"></rect>
      <circle class=" st10_1189851464" cx="221.23" cy="323.71" r="1.43"></circle>
      <rect class=" st16_1189851464" x="211.01" y="322.56" width="1.98" height="2.3"></rect>
    </g>
    <g>
      <rect class=" st10_1189851464" x="209.89" y="338.98" width="21.92" height="21.55"></rect>
      <circle class=" st10_1189851464" cx="225.69" cy="344.87" r="3.27"></circle>
      <circle class=" st10_1189851464" cx="225.69" cy="354.65" r="3.27"></circle>
      <circle class=" st10_1189851464" cx="216.02" cy="344.87" r="3.27"></circle>
      <circle class=" st10_1189851464" cx="216.02" cy="354.65" r="3.27"></circle>
    </g>
    <g>
      <rect class=" st10_1189851464" x="177.44" y="106.26" width="19.84" height="19.95"></rect>
      <rect class=" st10_1189851464" x="191.47" y="108.92" width="3.3" height="4.63"></rect>
      <rect class=" st10_1189851464" x="197.26" y="108.93" width="1.75" height="14.32"></rect>
    </g>
    <rect class=" st10_1189851464" x="124.14" y="225.42" width="37.22" height="17.86"></rect>
    <g>
      <path class=" st10_1189851464" d="M151.09,228.86v8.78h-16.67v-8.78c0-.55.45-1,1-1h14.67c.55,0,1,.45,1,1Z"></path>
      <rect class=" st13_1189851464" x="134.41" y="237.64" width="16.67" height="1.28"></rect>
      <rect class=" st13_1189851464" x="141.95" y="235.95" width="1.6" height="4.9"></rect>
      <circle class=" st10_1189851464" cx="142.75" cy="233.35" r="1.14"></circle>
    </g>
    <rect class=" st10_1189851464" x="205.89" y="78.23" width="37.22" height="17.86"></rect>
    <g>
      <path class=" st10_1189851464" d="M216.16,92.66v-8.78h16.67v8.78c0,.55-.45,1-1,1h-14.67c-.55,0-1-.45-1-1Z"></path>
      <rect class=" st13_1189851464" x="216.16" y="82.59" width="16.67" height="1.28"></rect>
      <rect class=" st13_1189851464" x="223.69" y="80.67" width="1.61" height="4.9"></rect>
      <circle class=" st10_1189851464" cx="224.5" cy="88.17" r="1.14"></circle>
    </g>
    <g>
      <path class=" st10_1189851464" d="M247.2,109.65v9.5c0,.83.67,1.5,1.5,1.5h13.6v-12.5h-13.6c-.83,0-1.5.67-1.5,1.5Z"></path>
      <rect class=" st11_1189851464" x="262.3" y="108.15" width="3.64" height="12.5"></rect>
    </g>
    <g>
      <path class=" st10_1189851464" d="M137.33,197.16h9.5c.83,0,1.5-.67,1.5-1.5v-13.6h-12.5v13.6c0,.83.67,1.5,1.5,1.5Z"></path>
      <rect class=" st10_1189851464" x="135.83" y="178.42" width="12.5" height="3.64"></rect>
    </g>
    <g>
      <path class=" st10_1189851464" d="M314.65,187.26v-9.5c0-.83-.67-1.5-1.5-1.5h-13.6v12.5h13.6c.83,0,1.5-.67,1.5-1.5Z"></path>
      <rect class=" st10_1189851464" x="295.91" y="176.27" width="3.64" height="12.5"></rect>
    </g>
    <g>
      <g>
        <rect class=" st12_1189851464" x="98.05" y="178.42" width="26.09" height="64.86"></rect>
        <path class=" st10_1189851464" d="M99.9,182.87v51.5c0,1.9,1.54,3.43,3.43,3.43h14.69c1.9,0,3.43-1.54,3.43-3.43v-51.5c0-1.08-.88-1.96-1.96-1.96h-17.63c-1.08,0-1.96.88-1.96,1.96Z"></path>
        <path class=" st10_1189851464" d="M115.88,178.77v3.22c0,.28-.22.5-.5.5h-8.47c-.28,0-.5-.22-.5-.5v-3.22h9.47Z"></path>
        <rect class=" st14_1189851464" x="112.49" y="182.49" width="2.84" height="1.58"></rect>
        <ellipse class=" st10_1189851464" cx="111.14" cy="193.22" rx="4.4" ry="4.04"></ellipse>
      </g>
      <line class=" st5_1189851464" x1="111.14" y1="178.42" x2="111.14" y2="193.22"></line>
    </g>
    <rect class=" st15_1189851464" x="295.91" y="164.49" width="26.45" height="1.2"></rect>
    <g>
      <path class=" st10_1189851464" d="M295.91,144.33h3.22c.28,0,.5.22.5.5v7.91c0,.28-.22.5-.5.5h-3.22v-8.91Z"></path>
      <rect class=" st10_1189851464" x="299.62" y="144.84" width="1.58" height="2.67"></rect>
      <ellipse class=" st10_1189851464" cx="310.36" cy="148.78" rx="4.04" ry="4.14"></ellipse>
      <line class=" st5_1189851464" x1="295.91" y1="148.78" x2="310.36" y2="148.78"></line>
    </g>
    <g>
      <rect class=" st10_1189851464" x="397.04" y="132.38" width="14.06" height="14.23"></rect>
      <rect class=" st10_1189851464" x="397.04" y="146.61" width="14.06" height="1.9"></rect>
      <rect class=" st10_1189851464" x="411.11" y="132.38" width="38.84" height="3.26"></rect>
      <rect class=" st10_1189851464" x="411.1" y="135.64" width="38.85" height="17.81"></rect>
      <rect class=" st10_1189851464" x="431.47" y="138.21" width="16.08" height="12.77"></rect>
      <rect class=" st10_1189851464" x="413.5" y="138.21" width="16.06" height="12.77"></rect>
      <polygon class=" st10_1189851464" points="427.36 146.04 443.1 156.81 446.21 154.75 449.95 153.45 449.95 197.42 411.1 197.42 411.1 146.04 427.36 146.04"></polygon>
      <polygon class=" st10_1189851464" points="449.95 153.45 446.21 154.75 443.1 156.81 427.36 146.04 430.14 146.04 449.95 153.45"></polygon>
    </g>
    <g>
      <rect class=" st10_1189851464" x="98.06" y="270.97" width="14.14" height="14.53"></rect>
      <rect class=" st10_1189851464" x="112.2" y="270.97" width="1.89" height="14.53"></rect>
      <rect class=" st10_1189851464" x="98.05" y="332.33" width="14.15" height="14.53"></rect>
      <rect class=" st10_1189851464" x="112.2" y="332.33" width="1.89" height="14.53"></rect>
      <rect class=" st10_1189851464" x="98.05" y="285.5" width="3.24" height="46.83"></rect>
      <rect class=" st10_1189851464" x="101.29" y="285.5" width="17.71" height="46.84"></rect>
      <rect class=" st10_1189851464" x="103.85" y="288.39" width="12.7" height="19.39"></rect>
      <rect class=" st10_1189851464" x="103.85" y="310.08" width="12.7" height="19.36"></rect>
      <polygon class=" st10_1189851464" points="111.64 312.74 122.35 293.76 120.3 290.01 119 285.5 162.74 285.5 162.74 332.33 111.64 332.33 111.64 312.74"></polygon>
      <polygon class=" st10_1189851464" points="119 285.5 120.3 290.01 122.35 293.76 111.64 312.74 111.64 309.39 119 285.5"></polygon>
    </g>
    <g>
      <g>
        <rect class=" st10_1189851464" x="203.49" y="278.58" width="1.47" height="35.68"></rect>
        <rect class=" st10_1189851464" x="204.97" y="294.01" width="1.11" height="4.82"></rect>
      </g>
      <polyline class=" st5_1189851464" points="200.42 304.11 203.49 296.4 200.42 288.7"></polyline>
    </g>
    <g>
      <g>
        <rect class=" st10_1189851464" x="345.21" y="245.14" width="52.62" height="2.17"></rect>
        <rect class=" st10_1189851464" x="367.97" y="243.49" width="7.1" height="1.64"></rect>
      </g>
      <polyline class=" st5_1189851464" points="382.86 251.84 371.5 247.31 360.13 251.84"></polyline>
    </g>
    <g>
      <rect class=" st10_1189851464" x="209.89" y="379.7" width="21.92" height="19.17"></rect>
      <line class=" st5_1189851464" x1="209.89" y1="379.7" x2="231.81" y2="398.87"></line>
      <line class=" st5_1189851464" x1="209.89" y1="398.87" x2="231.81" y2="379.7"></line>
    </g>
    <g>
      <rect class=" st10_1189851464" x="209.89" y="360.53" width="21.92" height="19.17"></rect>
      <line class=" st5_1189851464" x1="209.89" y1="360.54" x2="231.81" y2="379.7"></line>
      <line class=" st5_1189851464" x1="209.89" y1="379.7" x2="231.81" y2="360.54"></line>
    </g>
    <circle class=" st10_1189851464" cx="422.02" cy="450.02" r="9.77"></circle>
    <g>
      <rect class=" st10_1189851464" x="240.44" y="427.83" width="42.05" height="21.62"></rect>
      <g>
        <path class=" st10_1189851464" d="M244.32,458.07v-8.62h11.95v8.62c0,1.11-.9,2-2,2h-7.95c-1.11,0-2-.9-2-2Z"></path>
        <path class=" st10_1189851464" d="M244.32,455.17v-5.72h11.95v5.72c0,1.11-.9,2-2,2h-7.95c-1.11,0-2-.9-2-2Z"></path>
      </g>
      <g>
        <path class=" st10_1189851464" d="M266.36,458.07v-8.62h11.95v8.62c0,1.11-.89,2-2,2h-7.95c-1.1,0-2-.9-2-2Z"></path>
        <path class=" st10_1189851464" d="M266.36,455.17v-5.72h11.95v5.72c0,1.11-.89,2-2,2h-7.95c-1.1,0-2-.9-2-2Z"></path>
      </g>
      <g>
        <path class=" st10_1189851464" d="M278.3,419.2v8.62h-11.95v-8.62c0-1.11.89-2,2-2h7.95c1.1,0,2,.89,2,2Z"></path>
        <path class=" st10_1189851464" d="M278.3,422.1v5.72h-11.95v-5.72c0-1.11.89-2,2-2h7.95c1.1,0,2,.9,2,2Z"></path>
      </g>
      <g>
        <path class=" st10_1189851464" d="M256.27,419.2v8.62h-11.95v-8.62c0-1.11.9-2,2-2h7.95c1.11,0,2,.89,2,2Z"></path>
        <path class=" st10_1189851464" d="M256.27,422.1v5.72h-11.95v-5.72c0-1.11.9-2,2-2h7.95c1.11,0,2,.9,2,2Z"></path>
      </g>
    </g>
    <g>
      <path class=" st10_1189851464" d="M403.49,423.48c-.13-.17-.25-.34-.38-.5-6.61-7.79-18.29-8.74-26.08-2.13-7.79,6.61-8.74,18.29-2.13,26.08.14.16.29.3.43.46l28.16-23.9Z"></path>
      <circle class=" st10_1189851464" cx="389.41" cy="435.43" r="14.2"></circle>
      <path class=" st10_1189851464" d="M373.73,429.96l12.83-10.89c.21-.18.53-.15.7.06l5.05,5.95c.18.21.15.53-.06.7l-12.83,10.89c-.21.18-.53.15-.7-.06l-5.05-5.95c-.18-.21-.15-.53.06-.7Z"></path>
    </g>
    <g>
      <path class=" st10_1189851464" d="M443.15,422.19c.15-.15.28-.31.44-.45,7.49-6.95,19.2-6.51,26.14.99,6.95,7.49,6.51,19.2-.99,26.14-.16.14-.32.27-.48.4l-25.11-27.09Z"></path>
      <circle class=" st10_1189851464" cx="455.71" cy="435.73" r="14.2"></circle>
      <path class=" st10_1189851464" d="M471.92,432.17l-11.45-12.35c-.19-.2-.5-.21-.71-.03l-5.72,5.3c-.2.19-.21.5-.03.71l11.45,12.35c.19.2.5.21.71.03l5.72-5.3c.2-.19.21-.5.03-.71Z"></path>
    </g>
    <g>
      <rect class=" st10_1189851464" x="154.86" y="78.23" width="18.78" height="46.81"></rect>
      <g>
        <line class=" st5_1189851464" x1="157.35" y1="103.6" x2="171.16" y2="105.38"></line>
        <line class=" st5_1189851464" x1="157.35" y1="113.89" x2="171.16" y2="113.89"></line>
        <line class=" st5_1189851464" x1="157.35" y1="99.29" x2="171.16" y2="99.29"></line>
        <line class=" st5_1189851464" x1="157.35" y1="95.12" x2="171.16" y2="93.34"></line>
        <line class=" st5_1189851464" x1="157.35" y1="110.64" x2="171.16" y2="108.86"></line>
        <line class=" st5_1189851464" x1="157.35" y1="83.18" x2="171.16" y2="84.97"></line>
        <line class=" st5_1189851464" x1="157.35" y1="118.3" x2="171.16" y2="120.08"></line>
        <line class=" st5_1189851464" x1="157.35" y1="89.58" x2="171.16" y2="89.58"></line>
      </g>
      <line class=" st5_1189851464" x1="164.25" y1="80" x2="164.25" y2="123.26"></line>
    </g>
    <g>
      <rect class=" st10_1189851464" x="100.05" y="128.85" width="19.51" height="43.03"></rect>
      <g>
        <line class=" st5_1189851464" x1="102.64" y1="152.17" x2="116.98" y2="153.81"></line>
        <line class=" st5_1189851464" x1="102.64" y1="161.63" x2="116.98" y2="161.63"></line>
        <line class=" st5_1189851464" x1="102.64" y1="148.21" x2="116.98" y2="148.21"></line>
        <line class=" st5_1189851464" x1="102.64" y1="144.38" x2="116.98" y2="142.74"></line>
        <line class=" st5_1189851464" x1="102.64" y1="158.65" x2="116.98" y2="157.01"></line>
        <line class=" st5_1189851464" x1="102.64" y1="133.4" x2="116.98" y2="135.04"></line>
        <line class=" st5_1189851464" x1="102.64" y1="165.68" x2="116.98" y2="167.32"></line>
        <line class=" st5_1189851464" x1="102.64" y1="139.28" x2="116.98" y2="139.28"></line>
      </g>
      <line class=" st5_1189851464" x1="109.81" y1="130.48" x2="109.81" y2="170.25"></line>
    </g>
    <g>
      <rect class=" st10_1189851464" x="98.05" y="247.09" width="67.11" height="19.12"></rect>
      <g>
        <line class=" st5_1189851464" x1="102.59" y1="249.63" x2="103.74" y2="263.68"></line>
        <line class=" st5_1189851464" x1="108.46" y1="249.63" x2="107.32" y2="263.68"></line>
        <line class=" st5_1189851464" x1="112.18" y1="249.63" x2="112.18" y2="263.68"></line>
        <line class=" st5_1189851464" x1="115.69" y1="249.63" x2="116.84" y2="263.68"></line>
        <line class=" st5_1189851464" x1="129.83" y1="249.63" x2="130.98" y2="263.68"></line>
        <line class=" st5_1189851464" x1="139.18" y1="249.63" x2="140.33" y2="263.68"></line>
        <line class=" st5_1189851464" x1="154.14" y1="249.63" x2="155.29" y2="263.68"></line>
        <line class=" st5_1189851464" x1="144.79" y1="249.63" x2="145.93" y2="263.68"></line>
        <line class=" st5_1189851464" x1="121.53" y1="249.63" x2="120.38" y2="263.68"></line>
        <line class=" st5_1189851464" x1="135.26" y1="249.63" x2="134.12" y2="263.68"></line>
        <line class=" st5_1189851464" x1="150.22" y1="249.63" x2="149.07" y2="263.68"></line>
        <line class=" st5_1189851464" x1="126.29" y1="249.63" x2="126.29" y2="263.68"></line>
        <line class=" st5_1189851464" x1="160.63" y1="249.63" x2="159.48" y2="263.68"></line>
      </g>
      <line class=" st5_1189851464" x1="162.74" y1="256.65" x2="100.48" y2="256.65"></line>
    </g>
    <g>
      <rect class=" st10_1189851464" x="165.17" y="175.69" width="62.9" height="19.12"></rect>
      <g>
        <line class=" st5_1189851464" x1="171.08" y1="178.22" x2="169.93" y2="192.28"></line>
        <line class=" st5_1189851464" x1="174.82" y1="178.22" x2="174.82" y2="192.28"></line>
        <line class=" st5_1189851464" x1="178.35" y1="178.22" x2="179.5" y2="192.28"></line>
        <line class=" st5_1189851464" x1="192.56" y1="178.22" x2="193.71" y2="192.28"></line>
        <line class=" st5_1189851464" x1="201.96" y1="178.22" x2="203.11" y2="192.28"></line>
        <line class=" st5_1189851464" x1="216.99" y1="178.22" x2="218.14" y2="192.28"></line>
        <line class=" st5_1189851464" x1="207.59" y1="178.22" x2="208.74" y2="192.28"></line>
        <line class=" st5_1189851464" x1="184.21" y1="178.22" x2="183.06" y2="192.28"></line>
        <line class=" st5_1189851464" x1="198.01" y1="178.22" x2="196.86" y2="192.28"></line>
        <line class=" st5_1189851464" x1="213.05" y1="178.22" x2="211.9" y2="192.28"></line>
        <line class=" st5_1189851464" x1="189" y1="178.22" x2="189" y2="192.28"></line>
        <line class=" st5_1189851464" x1="223.51" y1="178.22" x2="222.36" y2="192.28"></line>
      </g>
      <line class=" st5_1189851464" x1="225.63" y1="185.25" x2="167.65" y2="185.25"></line>
    </g>
    <g>
      <rect class=" st10_1189851464" x="363.9" y="132.38" width="21.23" height="68.43"></rect>
      <g>
        <line class=" st5_1189851464" x1="366.71" y1="178.36" x2="382.32" y2="177.24"></line>
        <line class=" st5_1189851464" x1="366.71" y1="172.62" x2="382.32" y2="173.74"></line>
        <line class=" st5_1189851464" x1="366.71" y1="168.98" x2="382.32" y2="168.98"></line>
        <line class=" st5_1189851464" x1="366.71" y1="165.55" x2="382.32" y2="164.43"></line>
        <line class=" st5_1189851464" x1="366.71" y1="151.73" x2="382.32" y2="150.61"></line>
        <line class=" st5_1189851464" x1="366.71" y1="142.59" x2="382.32" y2="141.47"></line>
        <line class=" st5_1189851464" x1="366.71" y1="137.93" x2="382.32" y2="136.81"></line>
        <line class=" st5_1189851464" x1="366.71" y1="159.85" x2="382.32" y2="160.97"></line>
        <line class=" st5_1189851464" x1="366.71" y1="195.28" x2="382.32" y2="196.4"></line>
        <line class=" st5_1189851464" x1="366.71" y1="191.65" x2="382.32" y2="191.65"></line>
        <line class=" st5_1189851464" x1="366.71" y1="188.21" x2="382.32" y2="187.1"></line>
        <line class=" st5_1189851464" x1="366.71" y1="182.51" x2="382.32" y2="183.63"></line>
        <line class=" st5_1189851464" x1="366.71" y1="146.42" x2="382.32" y2="147.54"></line>
        <line class=" st5_1189851464" x1="366.71" y1="155.19" x2="382.32" y2="155.19"></line>
      </g>
      <line class=" st5_1189851464" x1="374.51" y1="134.46" x2="374.51" y2="198.82"></line>
    </g>
    <g>
      <rect class=" st10_1189851464" x="209.89" y="265.43" width="21.92" height="21.92"></rect>
      <rect class=" st10_1189851464" x="230.14" y="265.43" width="1.67" height="21.65"></rect>
      <rect class=" st10_1189851464" x="231.81" y="267.12" width="1.45" height="3.68"></rect>
      <g>
        <line class=" st5_1189851464" x1="226.21" y1="276.39" x2="215.49" y2="276.39"></line>
        <line class=" st5_1189851464" x1="218.17" y1="271.77" x2="223.53" y2="281.02"></line>
        <line class=" st5_1189851464" x1="218.17" y1="281.02" x2="223.53" y2="271.77"></line>
      </g>
    </g>
    <g>
      <rect class=" st10_1189851464" x="209.89" y="243.51" width="21.92" height="21.92"></rect>
      <rect class=" st10_1189851464" x="230.14" y="243.78" width="1.67" height="21.65"></rect>
      <rect class=" st10_1189851464" x="231.81" y="260.06" width="1.45" height="3.68"></rect>
      <g>
        <line class=" st5_1189851464" x1="226.21" y1="254.47" x2="215.49" y2="254.47"></line>
        <line class=" st5_1189851464" x1="218.17" y1="259.09" x2="223.53" y2="249.84"></line>
        <line class=" st5_1189851464" x1="218.17" y1="249.84" x2="223.53" y2="259.09"></line>
      </g>
    </g>
    <circle class=" st10_1189851464" cx="394.32" cy="373.59" r="9.77"></circle>
    <g>
      <circle class=" st10_1189851464" cx="390.25" cy="320.15" r="38.82"></circle>
      <circle class=" st10_1189851464" cx="374.63" cy="336.38" r="11.44"></circle>
      <circle class=" st10_1189851464" cx="396.73" cy="316.37" r="22.1"></circle>
    </g>
    <g>
      <path class=" st10_1189851464" d="M350.86,292.89c-4.45,6.34-10.7,15.49-10.7,27.46,0,7.9,3.25,13.81,5.52,20.08,6.78,19.69-22.81,26.97-27.21,7.43-4.51-22.88-4.73-50.82,9.38-68.11,9.16-14.43,30.94-1.79,23.01,13.15Z"></path>
      <path class=" st10_1189851464" d="M327.19,302.59c-2.02,3.41-4.86,8.36-4.86,14.83.02,7.38,7.13,19.06-2.93,21.14-9.17,1.9-9.63-18.73-9.13-24.64.63-7.43,7.71-24.41,15.02-20.6,2.7,1.41,3.72,5.63,1.9,9.27Z"></path>
    </g>
    <g>
      <path class=" st10_1189851464" d="M426.33,384.79l11.65-12.69c1.57-1.71,1.46-4.37-.25-5.94l-12.01-11.02c-.16-.14-.4-.13-.54.02l-17.09,18.61c-.14.16-.13.4.02.54l11.7,10.74c1.88,1.72,4.8,1.6,6.52-.28Z"></path>
      <path class=" st10_1189851464" d="M424.55,380.61l8.24-8.97c1.33-1.45,1.23-3.7-.21-5.03l-11.47-10.53c-.36-.33-.93-.31-1.26.05l-11.25,12.25c-.33.36-.31.93.05,1.26l12.13,11.13c1.09,1,2.78.92,3.77-.16Z"></path>
      <path class=" st10_1189851464" d="M417.51,374.78l9.87-3.65c.26-.1.55.04.64.3l1.97,5.32c.1.26-.04.55-.3.64l-9.87,3.65c-.26.1-.55-.04-.64-.3l-1.97-5.32c-.1-.26.04-.55.3-.64Z"></path>
    </g>
    <g>
      <path class=" st10_1189851464" d="M358.44,384.78l-12.44-11.92c-1.68-1.61-1.73-4.27-.13-5.94l11.28-11.77c.15-.15.39-.16.54-.01l18.25,17.48c.15.15.16.39.01.54l-10.99,11.47c-1.76,1.84-4.68,1.9-6.52.14Z"></path>
      <path class=" st10_1189851464" d="M359.95,380.5l-8.8-8.43c-1.42-1.36-1.47-3.62-.11-5.04l10.77-11.24c.34-.36.9-.37,1.26-.03l12.01,11.51c.36.34.37.9.03,1.26l-11.39,11.89c-1.02,1.07-2.71,1.1-3.78.08Z"></path>
      <path class=" st10_1189851464" d="M366.6,374.24l-10.08-3.01c-.27-.08-.54.07-.62.34l-1.62,5.44c-.08.27.07.54.34.62l10.08,3.01c.27.08.54-.07.62-.34l1.62-5.44c.08-.26-.07-.54-.34-.62Z"></path>
    </g>
  </g>
  <g>
    <path class=" st18_1189851464" d="M490.79,240v3.5h-198.6v-6.37h3.71v2.87h194.89ZM460.77,347.69c-6.69,0-12.11,5.42-12.11,12.11s5.42,12.11,12.11,12.11,12.11-5.42,12.11-12.11-5.42-12.11-12.11-12.11ZM100.06,171.88v-43.03h19.51v-3.81l-44.5.02v-4.95h-7.33v18.96h18.51v228.2h17.02v-7.54h-5.21v-112.63h67.11v-22.72h-3.81v18.91h-63.31v-64.86h63.3v18.96h3.81v-21.7h62.84v21.7h3.81v-25.5H100.06ZM209.89,243.5v155.37h15.97v7.55h-36.75v-46.7h8.44v-23.08h8.52v-89.55h-9.12v-16.72h31.05v-3.18h3.81v16.31h-21.92ZM206.08,240.01h21.92v-6.15h-27.56v9.74h5.64v-3.59ZM498.33,122.52v19.92h-7.54v-3.04h-40.85v-7.01h-86.05v68.51h21.23v3.29h-43.06v-3.29h18.12v-68.51h-64.28v68.51h19.21v3.29h-19.21v3.36h-3.71v-12.28h-22.89v-58.39h-30.99v-3.8h27.62v-54.85h-88.5v47.97h23.75v6.87h10.51v3.8h-56.84v-11.84h18.78v-46.81h-98.58v3.16h-7.33v-13.14h212.1v54.26s218.51,0,218.51,0ZM275.55,136.88h7.89v-5.92h-7.89v5.92ZM286.38,139.73h-10.83v42.97h10.83v-42.97Z"></path>
  </g>
  <g>
    <path class=" st5_1189851464" d="M498.34,180.57h21.66M498.34,241.61h21.66M498.34,288.35h21.66M498.34,359.8h21.66M498.34,406.42h21.66M508.76,449.58l-18.85-11.41M466.05,461.88l11.78,18.63M433.01,491.74v-21.67M389.21,491.74v-21.82M343.7,491.74v-21.67M298.77,491.74v-21.67M252.89,491.74v-21.67M189.12,406.42h-21.65M197.61,438.17l-19.51,10.88M220.1,461.04l-9.55,20.28M167.47,388.91l21.64-21.64M132.41,388.91v-21.64M90.41,388.91v-21.64"></path>
    <path class=" st5_1189851464" d="M252.85,469.89c-35.08,0-63.71-28.34-63.71-63.42l.19-.1h1.64c-.58,31.66,27.08,63.52,64.19,61.91h178.11c35.31,0,63.47-26.55,63.47-61.86h1.59v-.26c0,34.89-28.16,63.73-63.47,63.73h-182.01Z"></path>
    <path class=" st5_1189851464" d="M520,122.52v285.01c0,46.51-37.7,84.21-84.21,84.21h-184.8c-46.13,0-83.51-37.38-83.51-83.51v-19.33h-81.23v-21.64h102.87v39.11c0,35.18,28.53,63.71,63.71,63.71h181.99c35.09,0,63.52-28.43,63.52-63.52V122.52h21.67Z"></path>
  </g>
  <g>
    <g>
      <rect class=" st5_1189851464" x="202.01" y="198.88" width="26.64" height="1.71"></rect>
      <rect class=" st5_1189851464" x="228" y="197.38" width="2.76" height="1.5"></rect>
      <rect class=" st5_1189851464" x="228" y="225.7" width="2.76" height="1.5"></rect>
      <path class=" st5_1189851464" d="M202.01,200.59c0,14.6,15.14,25.11,25.91,25.11"></path>
    </g>
    <g>
      <rect class=" st5_1189851464" x="139.13" y="198.74" width="24.11" height="1.54"></rect>
      <rect class=" st5_1189851464" x="162.67" y="197.38" width="2.5" height="1.36"></rect>
      <rect class=" st5_1189851464" x="162.67" y="223.01" width="2.5" height="1.36"></rect>
      <path class=" st5_1189851464" d="M139.13,200.29c0,13.22,13.71,22.73,23.45,22.73"></path>
    </g>
    <g>
      <rect class=" st4_1189851464" x="213.04" y="111.41" width="1.52" height="23.59"></rect>
      <rect class=" st4_1189851464" x="211.7" y="134.43" width="1.34" height="2.45"></rect>
      <rect class=" st4_1189851464" x="236.98" y="134.43" width="1.34" height="2.45"></rect>
      <path class=" st5_1189851464" d="M214.56,111.41c13.04,0,22.42,13.41,22.42,22.94"></path>
    </g>
    <g>
      <rect class=" st3_1189851464" x="316.48" y="177.4" width="1.54" height="24.08"></rect>
      <rect class=" st3_1189851464" x="315.12" y="200.89" width="1.36" height="2.5"></rect>
      <rect class=" st3_1189851464" x="340.71" y="200.89" width="1.36" height="2.5"></rect>
      <path class=" st5_1189851464" d="M318.02,177.4c13.2,0,22.69,13.68,22.69,23.42"></path>
    </g>
    <g>
      <rect class=" st5_1189851464" x="74.23" y="115.94" width="34.56" height="2.21"></rect>
      <rect class=" st5_1189851464" x="71.48" y="118.16" width="3.58" height="1.95"></rect>
      <rect class=" st5_1189851464" x="71.48" y="81.42" width="3.58" height="1.95"></rect>
      <path class=" st5_1189851464" d="M108.79,115.94c0-18.95-19.64-32.58-33.61-32.58"></path>
    </g>
    <g>
      <rect class=" st5_1189851464" x="294.29" y="233.94" width="26.43" height="1.69"></rect>
      <rect class=" st5_1189851464" x="292.19" y="235.63" width="2.74" height="1.49"></rect>
      <rect class=" st5_1189851464" x="292.19" y="207.54" width="2.74" height="1.49"></rect>
      <path class=" st5_1189851464" d="M320.73,233.94c0-14.49-15.02-24.91-25.71-24.91"></path>
    </g>
    <rect class=" st5_1189851464" x="350.48" y="399.3" width="39.01" height="1.63"></rect>
    <rect class=" st5_1189851464" x="382.67" y="400.94" width="39.01" height="1.63"></rect>
    <rect class=" st5_1189851464" x="299" y="399.3" width="39.01" height="1.63"></rect>
    <rect class=" st5_1189851464" x="265.65" y="400.94" width="39.01" height="1.63"></rect>
  </g>
  <g>
    <polygon class=" st17_1189851464" points="52.27 92.6 52.27 92.99 61.81 100.6 40.47 99.88 40 99.88 40 101.65 40.47 101.65 61.81 100.92 52.27 108.53 52.27 108.93 54.6 108.93 62.78 100.78 54.6 92.6 52.27 92.6"></polygon>
  </g>
  <g>
    <g>
      <path class=" st19_1189851464" d="M248.32,262.66v6.3h-.95v-5l-.85.55-.45-.75,1.6-1.1h.65Z"></path>
      <path class=" st19_1189851464" d="M251.59,262.66v6.3h-.95v-5l-.85.55-.45-.75,1.6-1.1h.65Z"></path>
      <path class=" st19_1189851464" d="M253.27,267.91c.15,0,.28.06.39.17s.16.26.16.43c0,.25-.04.47-.12.64s-.18.32-.28.43c-.12.13-.25.24-.4.32l-.15-.2c.07-.05.13-.11.19-.18.05-.06.1-.13.15-.22s.08-.19.11-.3c-.17,0-.32-.05-.43-.16s-.17-.23-.17-.39.05-.28.16-.39.24-.16.39-.16Z"></path>
      <path class=" st19_1189851464" d="M258.65,268.06v.9h-4.05v-.7l2.5-2.7c.11-.12.21-.24.3-.37.08-.11.14-.24.21-.37s.1-.27.1-.41c0-.28-.1-.51-.29-.68s-.46-.26-.81-.26c-.33,0-.59.1-.8.3s-.31.47-.31.79h-.95c0-.29.05-.55.14-.79s.23-.45.41-.61.39-.3.65-.4.54-.14.85-.14.6.05.85.14.47.22.64.39.31.36.41.59.14.47.14.73c0,.2-.05.4-.14.6s-.2.38-.31.53c-.13.18-.28.35-.45.52l-1.79,1.95h2.69Z"></path>
    </g>
    <g>
      <path class=" st19_1189851464" d="M419.21,215.59v6.3h-.95v-5l-.85.55-.45-.75,1.6-1.1h.65Z"></path>
      <path class=" st19_1189851464" d="M422.54,221.94c-.31,0-.6-.05-.87-.16s-.5-.26-.7-.46c-.2-.2-.35-.43-.47-.69s-.17-.54-.17-.84c0-.19.03-.37.1-.56.06-.19.13-.35.21-.5.09-.17.19-.34.3-.49l1.75-2.65h1.05l-1.4,2.1s.07-.01.12-.02c.03,0,.07-.01.12-.02.05,0,.1,0,.15,0,.26,0,.51.05.76.16.24.11.45.26.64.46.18.2.33.43.44.69s.17.54.17.84-.06.58-.17.84-.27.49-.47.69c-.2.2-.43.35-.7.46s-.56.16-.87.16ZM421.29,219.79c0,.19.03.36.1.52.06.16.15.3.27.41s.25.2.4.27.32.1.49.1.33-.03.49-.1.29-.16.4-.27.2-.25.27-.41c.06-.16.1-.33.1-.52s-.03-.36-.1-.52c-.06-.16-.15-.3-.27-.41s-.25-.2-.4-.27-.32-.1-.49-.1-.33.03-.49.1-.29.16-.4.27-.2.25-.27.41c-.07.16-.1.34-.1.52Z"></path>
      <path class=" st19_1189851464" d="M425.97,220.84c.15,0,.28.06.39.17s.16.26.16.43c0,.25-.04.47-.12.65-.08.18-.18.32-.28.43-.12.13-.25.24-.4.32l-.15-.2c.07-.04.13-.11.19-.18.05-.06.1-.13.15-.22s.08-.19.11-.3c-.17,0-.32-.05-.43-.16s-.17-.24-.17-.39.05-.28.16-.39.24-.16.39-.16Z"></path>
      <path class=" st19_1189851464" d="M432.25,218.74c0,.51-.07.97-.2,1.37s-.32.73-.55,1-.5.48-.8.62-.62.21-.96.21-.66-.07-.96-.21c-.3-.14-.57-.35-.8-.62-.23-.27-.41-.61-.54-1s-.2-.85-.2-1.37.07-.97.2-1.37.32-.73.54-1c.23-.27.49-.48.79-.62s.62-.21.96-.21.66.07.96.21.56.35.8.62.41.61.55,1,.2.85.2,1.37ZM431.3,218.74c0-.39-.05-.73-.13-1.02-.09-.29-.21-.54-.35-.74s-.31-.35-.5-.44c-.19-.1-.37-.15-.56-.15s-.37.05-.56.15c-.19.1-.35.25-.5.44s-.27.44-.36.74-.14.63-.14,1.02.05.73.14,1.02.21.54.36.74.31.35.5.44.37.15.56.15.37-.05.56-.15c.19-.1.35-.25.5-.44s.27-.44.35-.74.13-.63.13-1.02Z"></path>
    </g>
    <g>
      <path class=" st19_1189851464" d="M128.74,107.59v6.3h-.95v-5l-.85.55-.45-.75,1.6-1.1s.65,0,.65,0Z"></path>
      <path class=" st19_1189851464" d="M132.07,113.94c-.31,0-.6-.06-.87-.16s-.5-.26-.7-.46-.35-.43-.47-.69-.17-.54-.17-.84c0-.19.03-.37.1-.56s.13-.35.21-.5c.09-.17.19-.34.3-.49l1.75-2.65h1.05l-1.4,2.1s.07-.01.12-.02c.03,0,.07-.01.12-.02s.1-.01.15-.01c.26,0,.51.06.75.16s.46.26.64.46.33.43.44.69.17.54.17.84-.06.58-.17.84-.27.49-.47.69-.43.35-.7.46-.56.16-.87.16ZM130.82,111.79c0,.19.03.36.1.52s.15.3.27.41.25.2.4.27.32.1.49.1.34-.03.49-.1.29-.16.4-.27.2-.25.27-.41.1-.33.1-.52-.03-.36-.1-.52-.15-.3-.27-.41-.25-.2-.4-.27-.32-.1-.49-.1-.34.03-.49.1-.29.16-.4.27-.2.25-.27.41-.1.33-.1.52Z"></path>
      <path class=" st19_1189851464" d="M135.5,112.84c.15,0,.28.06.39.17s.16.26.16.43c0,.25-.04.47-.12.64s-.18.32-.28.43c-.12.13-.25.24-.4.32l-.15-.2c.07-.04.13-.11.19-.18.05-.06.1-.13.15-.22s.08-.19.11-.3c-.17,0-.32-.05-.43-.16s-.17-.24-.17-.39.05-.28.16-.39.24-.16.39-.16Z"></path>
      <path class=" st19_1189851464" d="M141.07,112.64h-.7v1.25h-.95v-1.25h-2.8v-.8l2.65-4.25h1.1v4.15h.7v.9ZM139.42,111.74v-2.75l-1.7,2.75h1.7Z"></path>
    </g>
    <g>
      <path class=" st19_1189851464" d="M330.71,146.92c.29,0,.56.05.82.16.26.11.48.26.67.46s.34.43.45.69c.11.26.17.54.17.84s-.06.58-.17.84c-.11.26-.27.49-.47.69-.2.2-.43.35-.7.46-.27.11-.56.16-.87.16s-.6-.05-.85-.14-.47-.22-.65-.38c-.18-.16-.32-.34-.42-.55-.1-.21-.16-.44-.18-.68h.95c.01.11.05.22.11.33s.14.2.24.29c.1.09.22.15.36.21s.29.08.44.08c.17,0,.34-.03.49-.1.15-.07.29-.16.4-.27.11-.11.2-.25.27-.41s.1-.33.1-.52-.03-.36-.1-.52-.15-.3-.27-.41c-.11-.11-.25-.2-.4-.27-.15-.07-.32-.1-.49-.1-.2,0-.37.04-.52.12-.15.08-.27.17-.36.26-.11.11-.2.24-.27.37h-.8l.4-3.65h3.35v.9h-2.54l-.16,1.5c.08-.06.17-.12.27-.17.09-.04.19-.09.32-.12s.26-.06.41-.06Z"></path>
      <path class=" st19_1189851464" d="M334.09,150.12c.15,0,.28.06.39.17s.16.26.16.43c0,.25-.04.47-.12.65s-.17.32-.28.43c-.12.13-.25.24-.4.32l-.15-.2c.07-.04.13-.11.19-.18.05-.06.1-.13.15-.22s.08-.19.11-.3c-.17,0-.32-.05-.43-.16-.11-.11-.17-.24-.17-.39s.05-.28.16-.39.24-.16.39-.16Z"></path>
      <path class=" st19_1189851464" d="M340.37,148.02c0,.51-.07.97-.2,1.37-.13.4-.32.73-.55,1-.23.27-.5.48-.8.62-.3.14-.62.21-.96.21s-.66-.07-.96-.21c-.3-.14-.57-.35-.8-.62s-.41-.61-.55-1c-.13-.4-.2-.85-.2-1.37s.07-.97.2-1.37c.13-.4.32-.73.55-1s.49-.48.79-.62c.3-.14.62-.21.96-.21s.66.07.96.21c.3.14.57.35.8.62s.41.61.55,1c.13.4.2.85.2,1.37ZM339.42,148.02c0-.39-.05-.73-.13-1.02-.09-.29-.21-.54-.35-.74s-.31-.35-.5-.44c-.19-.1-.37-.15-.56-.15s-.37.05-.56.15c-.19.1-.35.25-.5.44s-.27.44-.36.74c-.09.29-.14.63-.14,1.02s.05.73.14,1.02c.09.29.21.54.36.74s.31.35.5.44.37.15.56.15.37-.05.56-.15c.19-.1.35-.25.5-.44s.27-.44.35-.74c.09-.29.13-.63.13-1.02Z"></path>
    </g>
    <g>
      <path class=" st19_1189851464" d="M229.1,106.22c.29,0,.56.06.82.16s.48.26.67.46.34.43.45.69.17.54.17.84-.06.58-.17.84-.27.49-.47.69-.43.35-.7.46-.56.16-.87.16-.6-.05-.85-.14-.47-.22-.65-.38-.32-.34-.43-.55-.16-.44-.18-.68h.95c.01.11.05.22.11.33s.14.2.24.29.22.15.36.21.29.08.44.08c.17,0,.34-.03.49-.1s.29-.16.4-.27.2-.25.27-.41.1-.33.1-.52-.03-.36-.1-.52-.15-.3-.27-.41-.25-.2-.4-.27-.32-.1-.49-.1c-.2,0-.37.04-.52.12s-.27.17-.36.26c-.11.11-.21.24-.27.37h-.8l.4-3.65h3.35v.9h-2.54l-.16,1.5c.07-.06.16-.12.27-.17.09-.04.19-.09.32-.12s.26-.06.41-.06Z"></path>
      <path class=" st19_1189851464" d="M232.48,109.42c.15,0,.28.06.39.17s.16.26.16.43c0,.25-.04.47-.12.64s-.18.32-.28.43c-.12.13-.25.24-.4.32l-.15-.2c.07-.04.13-.11.19-.18.05-.06.1-.13.15-.22s.08-.19.11-.3c-.17,0-.32-.05-.43-.16s-.17-.24-.17-.39.05-.28.16-.39.24-.16.39-.16Z"></path>
      <path class=" st19_1189851464" d="M233.76,105.87c.01-.24.07-.47.17-.68s.24-.39.42-.55.39-.29.63-.38.52-.14.82-.14c.29,0,.55.05.79.14s.45.23.63.39.32.35.42.56.15.43.15.66-.04.42-.12.59-.18.3-.28.4c-.12.12-.25.22-.4.31.19.09.35.2.5.34.13.12.24.28.34.48s.15.44.15.73c0,.24-.05.47-.15.68s-.25.4-.43.57-.41.3-.68.4-.56.15-.88.15-.62-.05-.88-.14-.48-.22-.67-.38-.33-.34-.43-.55-.16-.44-.18-.68h.95c.01.11.05.22.11.33s.14.2.24.29.23.15.37.21.3.08.48.08c.38,0,.68-.1.89-.29s.32-.43.32-.71-.11-.52-.32-.71-.51-.29-.88-.29h-.45v-.85h.4c.33,0,.58-.09.77-.26s.28-.39.28-.64c0-.28-.09-.51-.28-.68s-.44-.26-.77-.26-.58.09-.78.26-.3.39-.33.64h-.95Z"></path>
    </g>
    <g>
      <path class=" st19_1189851464" d="M175.31,277.37v6.3h-.95v-5l-.85.55-.45-.75,1.6-1.1h.65Z"></path>
      <path class=" st19_1189851464" d="M180.43,277.37v.65l-2.6,5.65h-1l2.5-5.4h-2.85v-.9h3.95Z"></path>
      <path class=" st19_1189851464" d="M181.61,282.62c.15,0,.28.06.39.17s.16.26.16.43c0,.25-.04.47-.12.64s-.18.32-.28.43c-.12.13-.25.24-.4.32l-.15-.2c.07-.05.13-.11.19-.18.05-.06.1-.13.15-.22s.08-.19.11-.3c-.17,0-.32-.05-.43-.16-.11-.11-.17-.24-.17-.39s.05-.28.16-.39.24-.16.39-.16Z"></path>
      <path class=" st19_1189851464" d="M187.19,282.42h-.7v1.25h-.95v-1.25h-2.8v-.8l2.65-4.25h1.1v4.15h.7v.9ZM185.54,281.52v-2.75l-1.7,2.75h1.7Z"></path>
    </g>
    <g>
      <path class=" st19_1189851464" d="M438.01,278.75c.01-.24.07-.47.17-.68.1-.21.24-.39.42-.55.18-.16.39-.29.64-.38.24-.09.52-.14.82-.14.29,0,.55.05.79.14.24.1.45.23.64.39.18.16.32.35.42.56.1.21.15.43.15.66s-.04.42-.12.59c-.08.16-.18.3-.28.4-.12.12-.25.22-.4.31.19.09.35.2.5.34.13.12.24.28.34.48.1.2.15.44.15.73,0,.24-.05.47-.15.68-.1.21-.25.4-.43.57-.19.17-.41.3-.68.4s-.56.15-.88.15-.62-.05-.88-.14c-.26-.09-.48-.22-.67-.38-.18-.16-.33-.34-.43-.55-.1-.21-.16-.44-.18-.68h.95c.01.11.05.22.11.33.06.11.14.2.24.29.1.09.23.15.37.2.15.05.3.08.48.08.38,0,.68-.1.89-.29.21-.19.31-.43.31-.71s-.11-.52-.32-.71c-.21-.19-.51-.29-.88-.29h-.45v-.85h.4c.33,0,.58-.09.77-.26.19-.17.28-.39.28-.64,0-.28-.09-.51-.28-.68-.19-.18-.44-.26-.77-.26s-.58.09-.78.26-.3.39-.33.64h-.95Z"></path>
      <path class=" st19_1189851464" d="M447.14,282.45v.9h-4.05v-.7l2.5-2.7c.11-.12.21-.24.3-.37.08-.11.14-.24.21-.37.06-.13.1-.27.1-.41,0-.28-.1-.51-.29-.68-.19-.18-.46-.26-.81-.26-.33,0-.59.1-.8.3s-.31.47-.31.79h-.95c0-.29.05-.55.14-.79.1-.24.23-.45.41-.61.18-.17.39-.3.64-.4.25-.1.54-.14.85-.14s.6.05.85.14c.25.09.47.22.64.39.18.17.31.36.41.59.1.23.14.47.14.73,0,.2-.05.4-.14.6-.09.2-.2.38-.31.53-.13.18-.28.35-.45.52l-1.79,1.95h2.69Z"></path>
      <path class=" st19_1189851464" d="M448.47,282.3c.15,0,.28.06.39.17s.16.26.16.43c0,.25-.04.47-.12.64-.08.18-.18.32-.28.43-.12.13-.25.24-.4.32l-.15-.2c.07-.05.13-.11.19-.18.05-.06.1-.13.15-.22s.08-.19.11-.3c-.17,0-.32-.05-.43-.16-.11-.11-.17-.24-.17-.39s.05-.28.16-.39.24-.16.39-.16Z"></path>
      <path class=" st19_1189851464" d="M449.75,278.75c.01-.24.07-.47.17-.68.1-.21.24-.39.42-.55.18-.16.39-.29.64-.38.24-.09.52-.14.82-.14.29,0,.55.05.79.14.24.1.45.23.64.39.18.16.32.35.42.56.1.21.15.43.15.66s-.04.42-.12.59c-.08.16-.18.3-.28.4-.12.12-.25.22-.4.31.19.09.35.2.5.34.13.12.24.28.34.48.1.2.15.44.15.73,0,.24-.05.47-.15.68-.1.21-.25.4-.43.57-.19.17-.41.3-.68.4s-.56.15-.88.15-.62-.05-.88-.14c-.26-.09-.48-.22-.67-.38-.18-.16-.33-.34-.43-.55-.1-.21-.16-.44-.18-.68h.95c.01.11.05.22.11.33.06.11.14.2.24.29.1.09.23.15.37.2.15.05.3.08.48.08.38,0,.68-.1.89-.29.21-.19.31-.43.31-.71s-.11-.52-.32-.71c-.21-.19-.51-.29-.88-.29h-.45v-.85h.4c.33,0,.58-.09.77-.26.19-.17.28-.39.28-.64,0-.28-.09-.51-.28-.68-.19-.18-.44-.26-.77-.26s-.58.09-.78.26-.3.39-.33.64h-.95Z"></path>
    </g>
    <g>
      <path class=" st19_1189851464" d="M133.11,217.43h-.7v1.25h-.95v-1.25h-2.8v-.8l2.65-4.25h1.1v4.15h.7v.9ZM131.46,216.53v-2.75l-1.7,2.75h1.7Z"></path>
      <path class=" st19_1189851464" d="M134.24,217.63c.15,0,.28.06.39.17s.16.26.16.43c0,.25-.04.47-.12.65s-.18.32-.28.43c-.12.13-.25.24-.4.32l-.15-.2c.07-.04.13-.11.19-.18.05-.06.1-.13.15-.22s.08-.19.11-.3c-.17,0-.32-.05-.43-.16s-.17-.24-.17-.39.05-.28.16-.39.24-.16.39-.16Z"></path>
      <path class=" st19_1189851464" d="M137.67,218.73c-.31,0-.6-.05-.87-.16s-.5-.26-.7-.46-.35-.43-.47-.69-.17-.54-.17-.84c0-.19.03-.37.1-.56s.13-.35.21-.5c.09-.17.19-.34.3-.49l1.75-2.65h1.05l-1.4,2.1s.07-.01.12-.02c.03,0,.07-.01.12-.02s.1,0,.15,0c.26,0,.51.05.75.16s.46.26.64.46.33.43.44.69.17.54.17.84-.06.58-.17.84-.27.49-.47.69-.43.35-.7.46-.56.16-.87.16ZM136.42,216.58c0,.19.03.36.1.52s.15.3.27.41.25.2.4.27.32.1.49.1.34-.03.49-.1.29-.16.4-.27.2-.25.27-.41.1-.33.1-.52-.03-.36-.1-.52-.15-.3-.27-.41-.25-.2-.4-.27-.32-.1-.49-.1-.34.03-.49.1-.29.16-.4.27-.2.25-.27.41-.1.34-.1.52Z"></path>
    </g>
    <g>
      <path class=" st19_1189851464" d="M318.19,438.74v6.3h-.95v-5l-.85.55-.45-.75,1.6-1.1h.65Z"></path>
      <path class=" st19_1189851464" d="M321.61,440.79c.29,0,.56.05.82.16.26.11.48.26.67.46.19.2.34.42.45.69.11.26.17.54.17.84s-.06.58-.17.84c-.11.26-.27.49-.47.69-.2.2-.43.35-.7.46-.27.11-.56.16-.87.16s-.6-.05-.85-.14c-.25-.09-.47-.22-.65-.38-.18-.16-.32-.34-.42-.55-.1-.21-.16-.43-.18-.68h.95c.01.11.05.22.11.33.06.11.14.2.24.29.1.09.22.15.36.2.14.05.28.08.44.08.17,0,.33-.03.49-.1.15-.07.29-.16.4-.27.11-.11.2-.25.27-.41.06-.16.1-.33.1-.52s-.03-.36-.1-.52c-.06-.16-.15-.3-.27-.41-.11-.11-.25-.2-.4-.27-.15-.07-.32-.1-.49-.1-.2,0-.37.04-.52.12-.15.08-.27.17-.36.26-.11.11-.2.24-.27.37h-.8l.4-3.65h3.35v.9h-2.54l-.16,1.5c.07-.06.16-.11.27-.17.09-.05.19-.09.31-.12s.26-.05.42-.05Z"></path>
      <path class=" st19_1189851464" d="M324.99,443.99c.15,0,.28.06.39.17s.16.26.16.43c0,.25-.04.47-.12.64s-.17.32-.27.43c-.12.13-.25.24-.4.32l-.15-.2c.06-.05.13-.11.19-.18.05-.06.1-.13.15-.22.05-.09.08-.19.11-.3-.17,0-.32-.05-.43-.16-.11-.11-.17-.23-.17-.39s.05-.28.16-.39.24-.16.39-.16Z"></path>
      <path class=" st19_1189851464" d="M326.27,440.44c.01-.24.07-.47.17-.68.1-.21.24-.4.42-.55.18-.16.39-.29.64-.38.25-.09.52-.14.82-.14.29,0,.55.05.79.14.24.1.45.23.64.39s.32.35.42.56c.1.21.15.43.15.66s-.04.42-.12.59-.17.3-.27.4c-.12.12-.25.22-.4.31.19.09.35.2.5.34.13.12.24.28.34.48.1.2.15.44.15.73,0,.24-.05.47-.15.68s-.25.4-.43.57c-.19.17-.41.3-.68.4s-.56.15-.88.15-.62-.05-.88-.14c-.26-.09-.48-.22-.67-.38-.18-.16-.33-.34-.43-.55-.1-.21-.16-.43-.18-.68h.95c.01.11.05.22.11.33.06.11.14.2.24.29.1.09.23.15.37.2.15.05.3.08.48.08.38,0,.68-.1.89-.29.21-.19.32-.43.32-.71s-.11-.52-.32-.71c-.21-.19-.51-.29-.88-.29h-.45v-.85h.4c.33,0,.58-.09.77-.26.19-.17.28-.39.28-.64,0-.28-.09-.51-.28-.68s-.44-.26-.77-.26-.58.09-.78.26c-.19.17-.3.39-.33.64h-.95Z"></path>
      <path class=" st19_1189851464" d="M334.08,446.84h-.85l2.6-8.1h.85l-2.6,8.1Z"></path>
      <path class=" st19_1189851464" d="M343.68,443.79h-.7v1.25h-.95v-1.25h-2.8v-.8l2.65-4.25h1.1v4.15h.7v.9ZM342.03,442.89v-2.75l-1.7,2.75h1.7Z"></path>
      <path class=" st19_1189851464" d="M344.81,443.99c.15,0,.28.06.39.17s.16.26.16.43c0,.25-.04.47-.12.64s-.17.32-.28.43c-.12.13-.25.24-.4.32l-.15-.2c.07-.05.13-.11.19-.18.05-.06.1-.13.15-.22s.08-.19.11-.3c-.17,0-.32-.05-.43-.16-.11-.11-.17-.23-.17-.39s.05-.28.16-.39.24-.16.39-.16Z"></path>
      <path class=" st19_1189851464" d="M348.24,445.09c-.31,0-.6-.05-.87-.16-.27-.11-.5-.26-.7-.46-.2-.2-.35-.42-.47-.69-.11-.26-.17-.54-.17-.84,0-.19.03-.37.1-.56.06-.19.13-.35.21-.5.09-.17.19-.34.3-.49l1.75-2.65h1.05l-1.4,2.1s.07-.01.12-.02c.03,0,.07-.01.12-.02.05,0,.1-.01.15-.01.26,0,.51.05.76.16.24.11.45.26.64.46.18.2.33.42.44.69.11.26.17.54.17.84s-.06.58-.17.84c-.11.26-.27.49-.47.69-.2.2-.43.35-.7.46-.27.11-.56.16-.87.16ZM346.99,442.94c0,.19.03.36.1.52.06.16.15.3.27.41.11.11.25.2.4.27.15.07.32.1.49.1s.34-.03.49-.1c.15-.07.29-.16.4-.27.11-.11.2-.25.27-.41.06-.16.1-.33.1-.52s-.03-.36-.1-.52c-.06-.16-.15-.3-.27-.41-.11-.11-.25-.2-.4-.27-.15-.07-.32-.1-.49-.1s-.33.03-.49.1c-.15.07-.29.16-.4.27-.11.11-.2.25-.27.41-.06.16-.1.33-.1.52Z"></path>
      <path class=" st19_1189851464" d="M352.02,440.34l-1-.25.2-.65.95.35-.05-1.05h.7l-.05,1.05.95-.35.2.65-1,.25.65.8-.6.4-.5-.85-.5.85-.6-.4.65-.8Z"></path>
    </g>
  </g>
</svg></svg>