<svg xmlns="http://www.w3.org/2000/svg" version="1.1" xmlns:xlink="http://www.w3.org/1999/xlink"><svg version="1.1" xmlns="http://www.w3.org/2000/svg" xmlns:xlink="http://www.w3.org/1999/xlink" x="0px" y="0px" viewBox="0 0 560 560" style="enable-background:new 0 0 560 560;" xml:space="preserve">
<style type="text/css">
	.st0_2093998582{fill:none;}
	.st1_2093998582{fill:none;stroke:#1B4732;stroke-width:0.5;stroke-linecap:round;stroke-linejoin:round;stroke-dasharray:3;}
	.st2_2093998582{fill:none;stroke:#1B4732;stroke-width:0.5;stroke-linecap:round;stroke-linejoin:round;stroke-miterlimit:10;}
	.st3_2093998582{fill:#FFFFFF;stroke:#1B4732;stroke-width:0.5;stroke-linecap:round;stroke-linejoin:round;stroke-miterlimit:10;}
	.st4_2093998582{fill:none;stroke:#1B4732;stroke-width:0.25;stroke-linecap:round;stroke-linejoin:round;}
	.st5_2093998582{fill:#F5E8D1;stroke:#1B4732;stroke-width:0.5;stroke-linecap:round;stroke-linejoin:round;stroke-miterlimit:10;}
	.st6_2093998582{fill:#F5E8D1;stroke:#1B4732;stroke-width:0.5;stroke-linecap:round;stroke-linejoin:round;}
	.st7_2093998582{fill:none;stroke:#1B4732;stroke-width:0.5;stroke-linecap:round;stroke-linejoin:round;}
	.st8_2093998582{fill:#E1D1B6;stroke:#1B4732;stroke-width:0.5;stroke-linecap:round;stroke-linejoin:round;stroke-miterlimit:10;}
	.st9_2093998582{fill:#666C35;stroke:#666C35;stroke-width:0.5;stroke-linecap:round;stroke-linejoin:round;stroke-miterlimit:10;}
	.st10_2093998582{fill:#1B4732;}
</style>

<g>
	<line class=" st1_2093998582" x1="331.468" y1="324.154" x2="399.042" y2="324.154"></line>
	<line class=" st1_2093998582" x1="270.056" y1="244.555" x2="322.608" y2="244.555"></line>
	<line class=" st1_2093998582" x1="322.608" y1="324.154" x2="322.608" y2="244.555"></line>
	<line class=" st1_2093998582" x1="170.671" y1="202.334" x2="202.427" y2="202.334"></line>
</g>
<g>
	<path class=" st2_2093998582" d="M256.969,452.865c6.133,11.43,15.166,21.021,26.151,27.823"></path>
	<path class=" st2_2093998582" d="M321.369,491.812c-12.964-0.223-25.063-3.652-35.546-9.535"></path>
	<line class=" st2_2093998582" x1="410.025" y1="491.84" x2="355.103" y2="491.84"></line>
	<polyline class=" st2_2093998582" points="324.492,491.84 336.285,491.84 351.981,491.84 	"></polyline>
	
		<rect x="348.743" y="487.224" transform="matrix(-4.554242e-11 1 -1 -4.554242e-11 842.1645 135.4122)" class=" st2_2093998582" width="9.266" height="3.129"></rect>
	
		<rect x="318.133" y="487.224" transform="matrix(-4.554242e-11 1 -1 -4.554242e-11 811.5542 166.0224)" class=" st2_2093998582" width="9.266" height="3.129"></rect>
	
		<rect x="406.957" y="487.224" transform="matrix(-4.554242e-11 1 -1 -4.554242e-11 900.3781 77.1986)" class=" st2_2093998582" width="9.266" height="3.129"></rect>
	<rect x="140.247" y="359.358" class=" st2_2093998582" width="34.096" height="9.256"></rect>
	<rect x="177.493" y="359.358" class=" st2_2093998582" width="28.102" height="9.256"></rect>
	<rect x="208.746" y="359.358" class=" st2_2093998582" width="38.055" height="9.256"></rect>
	<path class=" st2_2093998582" d="M246.798,417.237L246.798,417.237c0,42.081,34.113,76.194,76.194,76.194h90.496v-9.256h-90.496
		c-36.969,0-66.938-29.969-66.938-66.938v0H246.798z"></path>
	<rect x="174.343" y="359.358" class=" st2_2093998582" width="3.15" height="9.256"></rect>
	<rect x="174.343" y="359.33" class=" st2_2093998582" width="3.15" height="0.028"></rect>
	
		<rect x="137.175" y="362.407" transform="matrix(-1.836970e-16 1 -1 -1.836970e-16 505.78 222.1632)" class=" st2_2093998582" width="9.266" height="3.129"></rect>
	<rect x="205.595" y="359.358" class=" st2_2093998582" width="3.15" height="9.256"></rect>
	<rect x="205.595" y="359.33" class=" st2_2093998582" width="3.15" height="0.028"></rect>
	
		<rect x="240.609" y="362.407" transform="matrix(-1.836970e-16 1 -1 -1.836970e-16 609.214 118.7292)" class=" st2_2093998582" width="9.266" height="3.129"></rect>
	
		<rect x="281.79" y="477.006" transform="matrix(0.5 -0.866 0.866 0.5 -271.2022 487.4044)" class=" st2_2093998582" width="9.426" height="3.129"></rect>
	
		<rect x="246.807" y="417.249" transform="matrix(-1 4.554167e-11 -4.554167e-11 -1 502.88 837.6263)" class=" st2_2093998582" width="9.266" height="3.129"></rect>
	
		<rect x="254.74" y="448.37" transform="matrix(-0.8755 0.4832 -0.4832 -0.8755 703.8552 718.5439)" class=" st2_2093998582" width="9.266" height="3.129"></rect>
	<path class=" st2_2093998582" d="M248.013,420.633c0.446,10.65,3.039,20.714,7.416,29.691"></path>
	<rect x="143.369" y="367.053" class=" st2_2093998582" width="30.974" height="1.561"></rect>
	<rect x="177.493" y="367.053" class=" st2_2093998582" width="28.102" height="1.561"></rect>
	<rect x="208.746" y="367.053" class=" st2_2093998582" width="34.933" height="1.561"></rect>
</g>
<g>
	
		<rect x="323.698" y="479.446" transform="matrix(0.9659 -0.2588 0.2588 0.9659 -112.7286 103.7477)" class=" st3_2093998582" width="27.918" height="1.116"></rect>
	
		<rect x="179.054" y="354.549" transform="matrix(-0.9659 -0.2588 0.2588 -0.9659 286.7848 748.1683)" class=" st3_2093998582" width="27.174" height="1.315"></rect>
</g>
<g>
	<path class=" st4_2093998582" d="M136.895,359.358l0-12.644l111.907,0l0,12.644L136.895,359.358z M241.421,346.742v12.588 M233.95,346.742
		v12.588 M226.48,346.742v12.588 M219.009,346.742v12.588 M211.539,346.742v12.588 M204.068,346.742v12.588 M196.598,346.742v12.588
		 M189.127,346.742v12.588 M181.657,346.742v12.588 M174.186,346.742v12.588 M166.716,346.742v12.588 M159.245,346.742v12.588
		 M151.774,346.742v12.588 M144.304,346.742v12.588 M418.853,471.043l0,13.13l-96.534,0c-37.896-1.619-67.091-32.563-66.227-65.313
		v-2.209h13.539v2.21c0,28.819,23.588,52.182,52.686,52.182H418.853z M396.656,484.298v-13.114 M389.257,484.298l0-13.114
		 M381.858,484.298v-13.114 M374.459,484.298v-13.114 M411.454,484.298l0-13.114 M404.055,484.298v-13.114 M367.06,484.298l0-13.114
		 M359.661,484.298v-13.114 M352.262,484.298v-13.114 M344.863,484.298l0-13.114 M337.464,484.298v-13.114 M330.065,484.298v-13.114
		 M322.667,484.298l0-13.114 M314.525,483.686l1.536-12.905 M306.517,481.98l3.091-12.389 M298.786,479.378l4.563-11.731
		 M291.433,475.914l5.928-10.934 M284.437,471.794l7.362-10.274 M278.161,466.656l8.536-9.238 M272.484,460.883l9.628-8.128
		 M267.592,454.441l10.569-6.886 M263.052,447.68l11.881-5.789 M259.886,440.168l12.518-4.273 M257.653,432.331l12.959-2.689
		 M256.507,424.274l13.196-1.075"></path>
</g>
<g>
	<rect x="400.287" y="169.412" class=" st5_2093998582" width="24.337" height="19.74"></rect>
	<rect x="400.287" y="165.264" class=" st5_2093998582" width="13.841" height="4.149"></rect>
	<g>
		
			<rect x="324.618" y="264.459" transform="matrix(6.123234e-17 -1 1 6.123234e-17 45.1328 635.8957)" class=" st5_2093998582" width="31.792" height="61.845"></rect>
		<g>
			<path class=" st5_2093998582" d="M365.725,324.902v-13.625h-17.571v13.625c0,1.105,0.895,2,2,2h13.571
				C364.83,326.902,365.725,326.007,365.725,324.902z"></path>
			<path class=" st5_2093998582" d="M365.725,320.637v-9.359h-17.571v9.359c0,1.105,0.895,2,2,2h13.571
				C364.83,322.637,365.725,321.742,365.725,320.637z"></path>
		</g>
		<g>
			<path class=" st5_2093998582" d="M333.32,324.902v-13.625h-17.571v13.625c0,1.105,0.895,2,2,2h13.571
				C332.425,326.902,333.32,326.007,333.32,324.902z"></path>
			<path class=" st5_2093998582" d="M333.32,320.637v-9.359h-17.571v9.359c0,1.105,0.895,2,2,2h13.571
				C332.425,322.637,333.32,321.742,333.32,320.637z"></path>
		</g>
		<g>
			<path class=" st5_2093998582" d="M315.749,265.861l0,13.625h17.571l0-13.625c0-1.105-0.895-2-2-2h-13.571
				C316.644,263.861,315.749,264.756,315.749,265.861z"></path>
			<path class=" st5_2093998582" d="M315.749,270.126l0,9.359h17.571v-9.359c0-1.105-0.895-2-2-2h-13.571
				C316.644,268.126,315.749,269.021,315.749,270.126z"></path>
		</g>
		<g>
			<path class=" st5_2093998582" d="M348.154,265.861v13.625h17.571v-13.625c0-1.105-0.895-2-2-2h-13.571
				C349.049,263.861,348.154,264.756,348.154,265.861z"></path>
			<path class=" st5_2093998582" d="M348.154,270.126v9.359h17.571v-9.359c0-1.105-0.895-2-2-2h-13.571
				C349.049,268.126,348.154,269.021,348.154,270.126z"></path>
		</g>
	</g>
	<g>
		
			<rect x="400.22" y="189.22" transform="matrix(-1.836970e-16 1 -1 -1.836970e-16 613.8568 -211.0675)" class=" st5_2093998582" width="24.485" height="24.349"></rect>
		
			<rect x="402.554" y="205.51" transform="matrix(-1.836970e-16 1 -1 -1.836970e-16 612.9281 -197.8625)" class=" st5_2093998582" width="5.683" height="4.046"></rect>
		
			<rect x="390.44" y="200.488" transform="matrix(-1.836970e-16 1 -1 -1.836970e-16 600.7943 -197.6657)" class=" st5_2093998582" width="17.581" height="2.153"></rect>
	</g>
	
		<rect x="177.199" y="92.728" transform="matrix(6.123234e-17 -1 1 6.123234e-17 73.0071 301.4315)" class=" st5_2093998582" width="20.041" height="42.969"></rect>
	<g>
		<path class=" st5_2093998582" d="M197.453,121.185V110.18l-20.468,0v11.004c0,0.552,0.448,1,1,1l18.468,0
			C197.006,122.185,197.453,121.737,197.453,121.185z"></path>
		
			<rect x="186.431" y="99.158" transform="matrix(3.660301e-07 -1 1 3.660301e-07 77.827 296.6116)" class=" st5_2093998582" width="1.576" height="20.468"></rect>
		
			<rect x="184.212" y="108.262" transform="matrix(3.660256e-07 -1 1 3.660256e-07 77.9723 296.467)" class=" st5_2093998582" width="6.015" height="1.97"></rect>
		<circle class=" st5_2093998582" cx="187.219" cy="115.45" r="1.395"></circle>
	</g>
	<rect x="343.428" y="108.281" class=" st5_2093998582" width="27.014" height="15.655"></rect>
	<g>
		<path class=" st5_2093998582" d="M365.019,121.406v-8.483l-16.168,0v8.483c0,0.552,0.448,1,1,1l14.168,0
			C364.571,122.406,365.019,121.958,365.019,121.406z"></path>
		
			<rect x="356.312" y="104.217" transform="matrix(3.660300e-07 -1 1 3.660300e-07 244.6338 469.2356)" class=" st5_2093998582" width="1.245" height="16.168"></rect>
		
			<rect x="354.559" y="111.408" transform="matrix(3.660263e-07 -1 1 3.660263e-07 244.7486 469.1214)" class=" st5_2093998582" width="4.752" height="1.556"></rect>
		<circle class=" st5_2093998582" cx="356.935" cy="117.086" r="1.102"></circle>
	</g>
	<g>
		<path class=" st5_2093998582" d="M385.379,148.693v-12.339c0-0.828,0.672-1.5,1.5-1.5h17.034v15.339h-17.034
			C386.05,150.193,385.379,149.522,385.379,148.693z"></path>
		
			<rect x="398.481" y="140.287" transform="matrix(-1.836970e-16 1 -1 -1.836970e-16 548.6738 -263.6263)" class=" st5_2093998582" width="15.339" height="4.474"></rect>
	</g>
	<g>
		<path class=" st5_2093998582" d="M212.502,155.496v-12.339c0-0.828,0.672-1.5,1.5-1.5h17.034v15.339h-17.034
			C213.173,156.996,212.502,156.324,212.502,155.496z"></path>
		
			<rect x="225.604" y="147.09" transform="matrix(-1.961472e-08 1 -1 -1.961472e-08 382.5995 -83.9466)" class=" st5_2093998582" width="15.339" height="4.474"></rect>
	</g>
	<g>
		<g>
			
				<rect x="110.433" y="122.094" transform="matrix(6.123234e-17 -1 1 6.123234e-17 6.2364 282.447)" class=" st5_2093998582" width="67.817" height="32.022"></rect>
			<path class=" st5_2093998582" d="M158.08,109.268v55.471c0,1.919-1.556,3.475-3.475,3.475h-19.514c-1.919,0-3.475-1.556-3.475-3.475v-55.471
				c0-1.097,0.889-1.985,1.985-1.985h22.492C157.191,107.283,158.08,108.172,158.08,109.268z"></path>
			<path class=" st5_2093998582" d="M138.469,104.631v4.11c0,0.276,0.224,0.5,0.5,0.5h10.625c0.276,0,0.5-0.224,0.5-0.5v-4.11H138.469z"></path>
			
				<rect x="139.904" y="108.479" transform="matrix(6.123234e-17 -1 1 6.123234e-17 30.6631 251.1062)" class=" st5_2093998582" width="1.961" height="3.484"></rect>
			<ellipse class=" st5_2093998582" cx="144.282" cy="122.553" rx="5.402" ry="5.013"></ellipse>
		</g>
		<line class=" st2_2093998582" x1="144.282" y1="104.197" x2="144.282" y2="122.553"></line>
	</g>
	<g>
		
			<rect x="126.853" y="302.273" transform="matrix(5.168761e-11 -1 1 5.168761e-11 -173.9356 448.1947)" class=" st5_2093998582" width="20.552" height="17.584"></rect>
		
			<rect x="136.822" y="309.888" transform="matrix(5.217433e-11 -1 1 5.217433e-11 -163.9674 458.1629)" class=" st5_2093998582" width="20.552" height="2.353"></rect>
		
			<rect x="126.85" y="215.454" transform="matrix(5.195317e-11 -1 1 5.195317e-11 -87.1231 361.3755)" class=" st5_2093998582" width="20.552" height="17.591"></rect>
		
			<rect x="136.822" y="223.073" transform="matrix(5.195561e-11 -1 1 5.195561e-11 -77.1518 371.3477)" class=" st5_2093998582" width="20.551" height="2.353"></rect>
		
			<rect x="97.213" y="265.643" transform="matrix(5.217011e-11 -1 1 5.217011e-11 -137.3123 398.0021)" class=" st5_2093998582" width="66.264" height="4.028"></rect>
		
			<rect x="110.235" y="256.646" transform="matrix(5.204377e-11 -1 1 5.204377e-11 -124.2868 411.024)" class=" st5_2093998582" width="66.268" height="22.02"></rect>
		
			<rect x="129.715" y="275.091" transform="matrix(5.227469e-11 -1 1 5.227469e-11 -139.5496 426.4168)" class=" st5_2093998582" width="27.437" height="15.785"></rect>
		
			<rect x="129.739" y="244.414" transform="matrix(5.226581e-11 -1 1 5.226581e-11 -108.8735 395.7407)" class=" st5_2093998582" width="27.39" height="15.785"></rect>
		<g>
			<polygon class=" st5_2093998582" points="145.226,262.249 158.531,289.099 155.988,294.404 154.378,300.789 208.746,300.789 208.746,234.521 
				145.226,234.521 			"></polygon>
		</g>
		<polygon class=" st5_2093998582" points="154.378,300.789 155.988,294.404 158.531,289.099 145.226,262.249 145.226,266.988 		"></polygon>
	</g>
	<g>
		<g>
			
				<rect x="242.654" y="265.156" transform="matrix(7.124357e-07 -1 1 7.124357e-07 -2.8211 529.183)" class=" st5_2093998582" width="41.055" height="1.693"></rect>
			
				<rect x="261.897" y="265.357" transform="matrix(7.124362e-07 -1 1 7.124362e-07 -1.3295 530.6669)" class=" st5_2093998582" width="5.543" height="1.283"></rect>
		</g>
		<polyline class=" st2_2093998582" points="258.796,257.151 262.335,266.021 258.796,274.891 		"></polyline>
	</g>
	<g>
		<g>
			
				<rect x="241.162" y="369.056" transform="matrix(-6.928204e-07 1 -1 -6.928204e-07 643.7855 96.9852)" class=" st5_2093998582" width="64.475" height="2.659"></rect>
			
				<rect x="266.711" y="369.384" transform="matrix(-6.928207e-07 1 -1 -6.928207e-07 641.4551 99.3277)" class=" st5_2093998582" width="8.705" height="2.014"></rect>
		</g>
		<polyline class=" st2_2093998582" points="280.287,384.285 274.729,370.356 280.286,356.426 		"></polyline>
	</g>
	<g>
		
			<rect x="357.174" y="135.518" transform="matrix(6.123234e-17 -1 1 6.123234e-17 191.9323 535.805)" class=" st5_2093998582" width="13.39" height="72.837"></rect>
		<line class=" st5_2093998582" x1="327.45" y1="178.631" x2="400.287" y2="165.242"></line>
		<line class=" st5_2093998582" x1="327.45" y1="165.242" x2="400.287" y2="178.631"></line>
	</g>
	<g>
		<rect x="246.798" y="115.275" class=" st5_2093998582" width="23.174" height="56.738"></rect>
		<g>
			<line class=" st5_2093998582" x1="266.903" y1="134.142" x2="249.867" y2="135.502"></line>
			<line class=" st5_2093998582" x1="266.903" y1="145.25" x2="249.867" y2="146.609"></line>
			<line class=" st5_2093998582" x1="266.903" y1="163.016" x2="249.867" y2="164.376"></line>
			<line class=" st5_2093998582" x1="266.903" y1="151.909" x2="249.867" y2="153.268"></line>
			<line class=" st5_2093998582" x1="266.903" y1="124.273" x2="249.867" y2="122.914"></line>
			<line class=" st5_2093998582" x1="266.903" y1="140.589" x2="249.867" y2="139.229"></line>
			<line class=" st5_2093998582" x1="266.903" y1="158.355" x2="249.867" y2="156.996"></line>
			<line class=" st5_2093998582" x1="266.903" y1="129.932" x2="249.867" y2="129.932"></line>
		</g>
		<line class=" st5_2093998582" x1="258.385" y1="168.456" x2="258.385" y2="118.834"></line>
	</g>
	<g>
		
			<rect x="221.692" y="158.715" transform="matrix(6.123234e-17 -1 1 6.123234e-17 43.7115 424.0258)" class=" st5_2093998582" width="24.354" height="62.883"></rect>
		<g>
			<line class=" st5_2093998582" x1="259.641" y1="181.206" x2="258.441" y2="199.109"></line>
			<line class=" st5_2093998582" x1="252.304" y1="181.206" x2="253.504" y2="199.109"></line>
			<line class=" st5_2093998582" x1="214.003" y1="181.206" x2="214.003" y2="199.109"></line>
			<line class=" st5_2093998582" x1="247.773" y1="181.206" x2="246.573" y2="199.109"></line>
			<line class=" st5_2093998582" x1="236.449" y1="181.206" x2="235.249" y2="199.109"></line>
			<line class=" st5_2093998582" x1="219.545" y1="181.206" x2="218.345" y2="199.109"></line>
			<line class=" st5_2093998582" x1="240.435" y1="181.206" x2="241.635" y2="199.109"></line>
			<line class=" st5_2093998582" x1="224.041" y1="181.206" x2="225.241" y2="199.109"></line>
			<line class=" st5_2093998582" x1="208.096" y1="181.206" x2="209.296" y2="199.109"></line>
			<line class=" st5_2093998582" x1="230.998" y1="181.206" x2="230.998" y2="199.109"></line>
		</g>
		<line class=" st5_2093998582" x1="205.03" y1="190.157" x2="262.707" y2="190.157"></line>
	</g>
	<g>
		
			<rect x="137.324" y="168.987" transform="matrix(6.123234e-17 -1 1 6.123234e-17 -40.6559 339.6583)" class=" st5_2093998582" width="24.354" height="42.341"></rect>
		<g>
			<line class=" st5_2093998582" x1="138.793" y1="181.206" x2="138.793" y2="199.109"></line>
			<line class=" st5_2093998582" x1="160.92" y1="181.206" x2="159.737" y2="199.109"></line>
			<line class=" st5_2093998582" x1="144.256" y1="181.206" x2="143.073" y2="199.109"></line>
			<line class=" st5_2093998582" x1="164.849" y1="181.206" x2="166.032" y2="199.109"></line>
			<line class=" st5_2093998582" x1="148.689" y1="181.206" x2="149.872" y2="199.109"></line>
			<line class=" st5_2093998582" x1="132.97" y1="181.206" x2="134.153" y2="199.109"></line>
			<line class=" st5_2093998582" x1="155.546" y1="181.206" x2="155.546" y2="199.109"></line>
		</g>
		<line class=" st5_2093998582" x1="130.665" y1="190.157" x2="168.338" y2="190.157"></line>
	</g>
	<rect x="399.042" y="219.59" class=" st6_2093998582" width="25.568" height="104.563"></rect>
	<rect x="327.286" y="219.59" class=" st6_2093998582" width="97.324" height="25.568"></rect>
	<g>
		<rect x="377.332" y="219.603" class=" st5_2093998582" width="21.71" height="25.568"></rect>
		<path class=" st5_2093998582" d="M396.012,242.686h-15.649c-0.552,0-1-0.448-1-1v-16.088c0-0.552,0.448-1,1-1h15.649c0.552,0,1,0.448,1,1
			v16.088C397.012,242.238,396.564,242.686,396.012,242.686z"></path>
		<rect x="386.845" y="220.916" class=" st5_2093998582" width="2.685" height="7.767"></rect>
		<circle class=" st5_2093998582" cx="388.187" cy="232.834" r="1.667"></circle>
		<rect x="386.845" y="220.916" class=" st5_2093998582" width="2.685" height="2.305"></rect>
	</g>
	<g>
		<rect x="399.042" y="254.628" class=" st5_2093998582" width="25.568" height="25.137"></rect>
		<circle class=" st5_2093998582" cx="406.186" cy="261.497" r="3.816"></circle>
		<circle class=" st5_2093998582" cx="406.186" cy="272.898" r="3.816"></circle>
		<circle class=" st5_2093998582" cx="417.465" cy="261.497" r="3.816"></circle>
		<circle class=" st5_2093998582" cx="417.465" cy="272.898" r="3.816"></circle>
	</g>
	<g>
		
			<rect x="327.286" y="219.59" transform="matrix(6.123234e-17 -1 1 6.123234e-17 107.696 572.3386)" class=" st6_2093998582" width="25.462" height="25.462"></rect>
		
			<rect x="339.202" y="231.506" transform="matrix(6.123234e-17 -1 1 6.123234e-17 96.0942 584.2542)" class=" st6_2093998582" width="1.944" height="25.148"></rect>
		
			<rect x="347.804" y="243.757" transform="matrix(6.123234e-17 -1 1 6.123234e-17 102.7516 594.5449)" class=" st6_2093998582" width="1.689" height="4.278"></rect>
		<g>
			<line class=" st7_2093998582" x1="340.017" y1="238.547" x2="340.017" y2="226.095"></line>
			<line class=" st7_2093998582" x1="345.389" y1="229.209" x2="334.646" y2="235.434"></line>
			<line class=" st7_2093998582" x1="334.645" y1="229.209" x2="345.389" y2="235.434"></line>
		</g>
	</g>
	<g>
		
			<rect x="352.748" y="219.59" transform="matrix(-1 -4.509738e-11 4.509738e-11 -1 730.0804 464.7489)" class=" st6_2093998582" width="24.584" height="25.568"></rect>
		
			<rect x="352.748" y="243.192" transform="matrix(-1 -4.509738e-11 4.509738e-11 -1 730.0804 488.3503)" class=" st6_2093998582" width="24.584" height="1.967"></rect>
		<path class=" st5_2093998582" d="M365.043,237.697L365.043,237.697c-1.451,0-2.41-0.689-2.985-1.681c-0.706-1.217-0.711-2.739-0.146-4.033
			l3.131-7.181l3.116,6.971c0.515,1.152,0.567,2.488,0.069,3.648C367.686,236.683,366.664,237.697,365.043,237.697z"></path>
	</g>
	<g>
		<circle class=" st5_2093998582" cx="355.774" cy="383.88" r="41.725"></circle>
		<circle class=" st5_2093998582" cx="358.672" cy="395.174" r="15.398"></circle>
	</g>
	<g>
		<path class=" st5_2093998582" d="M392.113,333.68l-0.014,0.014c-16.327-15.365-38.081,10.668-20.012,24l0.031-0.031
			c5.358,5.336,10.259,12.139,11.683,20.028c1.563,8.657-0.943,17.082-4.64,24.365l-0.001-0.001
			c-0.113,0.202-0.186,0.425-0.287,0.634c-0.047,0.069-0.089,0.133-0.137,0.202c-0.039,0.107-0.061,0.21-0.098,0.317
			c-0.515,1.225-0.82,2.539-0.88,3.909c-1.805,16.691,23.532,24.279,30.064,6.388C420.311,388.059,413.268,352.444,392.113,333.68z"></path>
		<path class=" st5_2093998582" d="M385.534,338.894c9.532,8.836,17.147,20.891,19.634,34.666c2.564,14.198,0.085,28.14-6.16,39.985l-0.06-0.036
			c-1.638,2.721-4.395,4.749-7.766,5.358c-6.214,1.122-12.161-3.006-13.283-9.22c-0.489-2.707,0.019-5.363,1.261-7.592l0.001,0.001
			c3.697-7.283,6.203-15.707,4.64-24.364c-1.53-8.47-7.059-15.711-12.868-21.203l0.025,0.022c-1.956-1.655-3.371-3.974-3.862-6.693
			c-1.122-6.214,3.006-12.161,9.22-13.283C379.718,335.92,383.04,336.88,385.534,338.894z"></path>
		<g>
			<line class=" st2_2093998582" x1="383.616" y1="389.972" x2="413.091" y2="396.715"></line>
			<line class=" st2_2093998582" x1="379.401" y1="366.632" x2="403.688" y2="347.756"></line>
		</g>
	</g>
	<g>
		<path class=" st5_2093998582" d="M370.306,463.676h-23.148c-2.321,0-4.202-1.881-4.202-4.202v-21.051c0-0.212,0.172-0.384,0.384-0.384h31.195
			c0.212,0,0.384,0.172,0.384,0.384v20.64C374.92,461.611,372.854,463.676,370.306,463.676z"></path>
		<path class=" st5_2093998582" d="M367.569,458.604h-16.372c-1.968,0-3.563-1.595-3.563-3.563v-20.129c0-0.492,0.399-0.891,0.891-0.891h20.826
			c0.492,0,0.891,0.399,0.891,0.891v21.019C370.242,457.408,369.045,458.604,367.569,458.604z"></path>
		<path class=" st5_2093998582" d="M367.631,447.352l-11.699,5.996c-0.246,0.126-0.343,0.427-0.217,0.673l3.281,6.402
			c0.126,0.246,0.427,0.343,0.673,0.217l11.699-5.996c0.246-0.126,0.343-0.427,0.217-0.673l-3.281-6.402
			C368.178,447.324,367.877,447.227,367.631,447.352z"></path>
	</g>
	<g>
		<path class=" st5_2093998582" d="M304.951,445.653l-16.714-16.015c-1.676-1.606-1.733-4.266-0.127-5.941l14.564-15.2
			c0.147-0.153,0.39-0.159,0.544-0.012l22.524,21.582c0.153,0.147,0.159,0.39,0.012,0.544l-14.279,14.903
			C309.711,447.353,306.791,447.415,304.951,445.653z"></path>
		<path class=" st5_2093998582" d="M306.485,440.097l-11.822-11.327c-1.421-1.361-1.469-3.617-0.108-5.038l13.926-14.534
			c0.34-0.355,0.904-0.367,1.259-0.027l15.037,14.408c0.355,0.34,0.367,0.904,0.027,1.259l-14.542,15.177
			C309.242,441.081,307.55,441.118,306.485,440.097z"></path>
		<path class=" st5_2093998582" d="M314.313,432.015l-12.595-3.764c-0.265-0.079-0.543,0.071-0.622,0.336l-2.06,6.893
			c-0.079,0.265,0.071,0.543,0.336,0.622l12.595,3.764c0.265,0.079,0.543-0.071,0.622-0.336l2.06-6.893
			C314.728,432.373,314.578,432.094,314.313,432.015z"></path>
	</g>
</g>
<g>
	<path class=" st8_2093998582" d="M256.085,359.358v-28.325h9.225v-88.808h4.746v166.256h-13.972v8.754h-9.284v-57.877H256.085z M435.512,99.173
		v394.281H413.62v-9.281h10.999v-264.57H326.98v24.952h-4.098v-33.34h4.569v2.422h97.168v-44.225h-10.491v-4.17h-86.677v13.679
		h-4.569v-21.26h4.569v1.615h80.936v-50.524v-0.001l-80.936,0.001v17.154h-4.569l-0.056-42.149h-9.932V72.863h26.346l-0.285,26.31
		H435.512z M418.033,113.822h9.057v-9.513h-9.057v0.001V113.822z M431.48,119.043h-7.216v40.233h7.216V119.043z M272.89,72.863
		v10.893h-2.834v31.519h-23.255l0,56.738h23.255l0,33.011h-4.746l0-27.045h-62.883v-5.966h33.083l0-67.824l-107.179,0.008v67.817
		h42.341v5.966h-42.341v181.378h11.784v9.247h-26.28V72.894L272.89,72.863z M145.607,88.498h-16.962l0.057,11.617h16.905V88.498z
		 M218.215,77.285h-67.158v17.582h67.158V77.285z M241.664,84.641h-18.47l0.062,15.474h18.408V84.641z M265.176,85.169h-18.375
		v23.595h18.375V85.169z"></path>
</g>
<g>
	<path class=" st2_2093998582" d="M322.766,493.431V520 M376.847,493.431V520 M123.208,395.185v-26.58 M175.918,395.185v-26.58 M246.816,418.813
		h-26.586 M255.135,451.947l-24.27,13.82 M284.19,482.834l-14.32,24.047 M220.229,395.185l26.578-26.58 M429.828,520v-26.569"></path>
	<path class=" st2_2093998582" d="M113.835,368.616h132.963v26.569H113.835V368.616z M220.229,395.185v25.922
		c0,54.617,44.276,98.894,98.894,98.894h116.389v-26.569H322.966c-42.066,0-76.168-34.102-76.168-76.168v-22.078H220.229z"></path>
</g>
<g>
	<g>
		<rect x="232.684" y="206.898" class=" st2_2093998582" width="33.237" height="2.127"></rect>
		<rect x="265.118" y="205.025" class=" st2_2093998582" width="3.445" height="1.873"></rect>
		<rect x="265.118" y="240.352" class=" st2_2093998582" width="3.445" height="1.873"></rect>
		<path class=" st2_2093998582" d="M232.684,209.025c0,18.218,18.891,31.327,32.324,31.327"></path>
	</g>
	<g>
		
			<rect x="158.783" y="157.584" transform="matrix(1.000135e-06 1 -1 1.000135e-06 331.4828 -14.4964)" class=" st2_2093998582" width="28.413" height="1.819"></rect>
		
			<rect x="169.807" y="172.686" transform="matrix(1.000125e-06 1 -1 1.000125e-06 344.7663 2.2064)" class=" st2_2093998582" width="2.945" height="1.601"></rect>
		
			<rect x="200.007" y="172.686" transform="matrix(1.000132e-06 1 -1 1.000132e-06 374.9659 -27.9933)" class=" st2_2093998582" width="2.945" height="1.601"></rect>
		<path class=" st2_2093998582" d="M173.899,144.287c15.574,0,26.78,16.149,26.78,27.633"></path>
	</g>
	<g>
		
			<rect x="257.911" y="99.701" transform="matrix(1.000764e-06 -1 1 1.000764e-06 175.0209 376.7223)" class=" st2_2093998582" width="35.922" height="2.299"></rect>
		
			<rect x="271.848" y="80.883" transform="matrix(1.000755e-06 -1 1 1.000755e-06 191.8152 355.6051)" class=" st2_2093998582" width="3.724" height="2.024"></rect>
		
			<rect x="310.03" y="80.883" transform="matrix(1.000760e-06 -1 1 1.000760e-06 229.9964 393.7864)" class=" st2_2093998582" width="3.724" height="2.024"></rect>
		<path class=" st2_2093998582" d="M277.021,118.812c19.69,0,33.858-20.417,33.858-34.936"></path>
	</g>
	<g>
		
			<rect x="326.593" y="154.218" transform="matrix(-1 -1.000090e-06 1.000090e-06 -1 681.7991 310.267)" class=" st2_2093998582" width="28.613" height="1.831"></rect>
		
			<rect x="324.318" y="156.049" transform="matrix(-1 -1.000082e-06 1.000082e-06 -1 651.6014 313.7103)" class=" st2_2093998582" width="2.966" height="1.612"></rect>
		
			<rect x="324.318" y="125.636" transform="matrix(-1 -1.000092e-06 1.000092e-06 -1 651.6015 252.8851)" class=" st2_2093998582" width="2.966" height="1.612"></rect>
		<path class=" st2_2093998582" d="M355.206,154.218c0-15.684-16.263-26.969-27.827-26.969"></path>
	</g>
	<g>
		
			<rect x="326.593" y="207.502" transform="matrix(-1 -1.000001e-06 1.000001e-06 -1 681.7991 416.8365)" class=" st2_2093998582" width="28.613" height="1.831"></rect>
		
			<rect x="324.318" y="209.334" transform="matrix(-1 -9.999914e-07 9.999914e-07 -1 651.6014 420.2798)" class=" st2_2093998582" width="2.966" height="1.612"></rect>
		
			<rect x="324.318" y="178.921" transform="matrix(-1 -1.000002e-06 1.000002e-06 -1 651.6015 359.4546)" class=" st2_2093998582" width="2.966" height="1.612"></rect>
		<path class=" st2_2093998582" d="M355.206,207.502c0-15.684-16.263-26.969-27.827-26.969"></path>
	</g>
</g>
<g>
	<polygon class=" st9_2093998582" points="302.822,55.066 302.342,55.066 292.997,66.779 293.888,40.58 293.888,40 291.714,40 291.714,40.58 
		292.611,66.779 283.265,55.066 282.78,55.066 282.78,57.918 292.778,67.962 302.822,57.919 	"></polygon>
</g>
<g>
	<g>
		<g>
			<path class=" st10_2093998582" d="M227.692,270.415v6.299h-0.952v-5l-0.85,0.552l-0.449-0.752l1.602-1.099H227.692z"></path>
			<path class=" st10_2093998582" d="M233.168,275.464h-0.698v1.25h-0.952v-1.25h-2.798v-0.801l2.651-4.248h1.099v4.15h0.698V275.464z
				 M231.518,274.565v-2.754l-1.699,2.754H231.518z"></path>
			<path class=" st10_2093998582" d="M234.298,275.664c0.153,0,0.283,0.057,0.391,0.171s0.161,0.257,0.161,0.43c0,0.254-0.042,0.469-0.125,0.645
				s-0.175,0.321-0.276,0.435c-0.121,0.133-0.254,0.241-0.4,0.322l-0.151-0.2c0.065-0.045,0.128-0.106,0.19-0.181
				c0.052-0.059,0.102-0.132,0.149-0.22s0.084-0.189,0.11-0.303c-0.172,0-0.316-0.053-0.43-0.159s-0.171-0.235-0.171-0.388
				s0.054-0.283,0.161-0.391S234.145,275.664,234.298,275.664z"></path>
			<path class=" st10_2093998582" d="M237.728,276.763c-0.312,0-0.602-0.055-0.869-0.164s-0.499-0.262-0.696-0.459s-0.353-0.426-0.466-0.686
				s-0.171-0.541-0.171-0.84c0-0.186,0.032-0.372,0.095-0.559s0.133-0.354,0.208-0.5c0.088-0.172,0.187-0.337,0.298-0.493
				l1.753-2.646h1.05l-1.401,2.1c0.033-0.006,0.073-0.013,0.122-0.02c0.033-0.006,0.074-0.013,0.125-0.02s0.102-0.01,0.154-0.01
				c0.26,0,0.512,0.055,0.754,0.164s0.456,0.262,0.64,0.459s0.331,0.426,0.442,0.686s0.166,0.541,0.166,0.84s-0.057,0.58-0.171,0.84
				s-0.27,0.489-0.466,0.686s-0.429,0.35-0.696,0.459S238.04,276.763,237.728,276.763z M236.478,274.614
				c0,0.186,0.032,0.359,0.095,0.52s0.152,0.298,0.266,0.41s0.248,0.202,0.4,0.269s0.316,0.1,0.488,0.1s0.335-0.033,0.488-0.1
				s0.287-0.156,0.4-0.269s0.203-0.249,0.266-0.41s0.095-0.334,0.095-0.52s-0.032-0.359-0.095-0.52s-0.152-0.298-0.266-0.41
				s-0.248-0.202-0.4-0.269s-0.316-0.1-0.488-0.1s-0.335,0.033-0.488,0.1s-0.287,0.156-0.4,0.269s-0.203,0.249-0.266,0.41
				S236.478,274.429,236.478,274.614z"></path>
		</g>
	</g>
	<g>
		<g>
			<path class=" st10_2093998582" d="M185.328,191.779v0.898h-4.048v-0.698l2.5-2.7c0.114-0.121,0.213-0.244,0.298-0.371
				c0.075-0.114,0.144-0.238,0.208-0.371s0.095-0.27,0.095-0.41c0-0.28-0.095-0.508-0.286-0.684s-0.461-0.264-0.813-0.264
				c-0.326,0-0.591,0.102-0.796,0.305s-0.308,0.468-0.308,0.793h-0.947c0-0.287,0.048-0.55,0.144-0.791s0.233-0.446,0.41-0.615
				s0.392-0.302,0.645-0.398s0.536-0.144,0.852-0.144c0.312,0,0.595,0.046,0.847,0.139s0.467,0.222,0.645,0.388
				s0.314,0.363,0.41,0.591s0.144,0.47,0.144,0.728c0,0.199-0.046,0.399-0.139,0.601s-0.196,0.379-0.31,0.532
				c-0.133,0.179-0.283,0.352-0.449,0.518l-1.792,1.953H185.328z"></path>
			<path class=" st10_2093998582" d="M186.658,191.627c0.153,0,0.283,0.057,0.391,0.171s0.161,0.257,0.161,0.43c0,0.254-0.042,0.469-0.125,0.645
				s-0.175,0.321-0.276,0.435c-0.121,0.133-0.254,0.241-0.4,0.322l-0.151-0.2c0.065-0.045,0.128-0.106,0.19-0.181
				c0.052-0.059,0.102-0.132,0.149-0.22s0.084-0.189,0.11-0.303c-0.172,0-0.316-0.053-0.43-0.159s-0.171-0.235-0.171-0.388
				s0.054-0.283,0.161-0.391S186.505,191.627,186.658,191.627z"></path>
			<path class=" st10_2093998582" d="M192.236,191.427h-0.698v1.25h-0.952v-1.25h-2.798v-0.801l2.651-4.248h1.099v4.15h0.698V191.427z
				 M190.586,190.529v-2.754l-1.699,2.754H190.586z"></path>
		</g>
	</g>
	<g>
		<g>
			<path class=" st10_2093998582" d="M191.756,137.398c0.287,0,0.558,0.055,0.815,0.164s0.481,0.262,0.671,0.459s0.341,0.426,0.452,0.686
				s0.166,0.541,0.166,0.84s-0.057,0.58-0.171,0.84s-0.27,0.489-0.466,0.686s-0.429,0.35-0.696,0.459s-0.557,0.164-0.869,0.164
				s-0.596-0.046-0.85-0.139s-0.47-0.219-0.649-0.378s-0.321-0.344-0.425-0.554s-0.163-0.436-0.176-0.676h0.947
				c0.013,0.114,0.05,0.224,0.11,0.33s0.141,0.202,0.242,0.288s0.22,0.155,0.356,0.205s0.285,0.076,0.444,0.076
				c0.172,0,0.335-0.033,0.488-0.1s0.287-0.156,0.4-0.269s0.203-0.249,0.266-0.41s0.095-0.334,0.095-0.52s-0.032-0.359-0.095-0.52
				s-0.152-0.298-0.266-0.41s-0.248-0.202-0.4-0.269s-0.316-0.1-0.488-0.1c-0.199,0-0.372,0.04-0.52,0.12s-0.268,0.167-0.359,0.261
				c-0.114,0.114-0.205,0.236-0.273,0.366h-0.796l0.4-3.647h3.35v0.898h-2.544l-0.156,1.499c0.075-0.059,0.165-0.116,0.269-0.171
				c0.088-0.045,0.193-0.086,0.315-0.122S191.603,137.398,191.756,137.398z"></path>
			<path class=" st10_2093998582" d="M195.137,140.597c0.153,0,0.283,0.057,0.391,0.171s0.161,0.257,0.161,0.43c0,0.254-0.042,0.469-0.125,0.645
				s-0.175,0.321-0.276,0.435c-0.121,0.133-0.254,0.241-0.4,0.322l-0.151-0.2c0.065-0.045,0.128-0.106,0.19-0.181
				c0.052-0.059,0.102-0.132,0.149-0.22s0.084-0.189,0.11-0.303c-0.172,0-0.316-0.053-0.43-0.159s-0.171-0.235-0.171-0.388
				s0.054-0.283,0.161-0.391S194.984,140.597,195.137,140.597z"></path>
			<path class=" st10_2093998582" d="M200.368,135.348v0.649l-2.603,5.649h-1.001l2.5-5.4h-2.847v-0.898H200.368z"></path>
		</g>
	</g>
	<g>
		<g>
			<path class=" st10_2093998582" d="M378.006,264.398h-0.698v1.25h-0.952v-1.25h-2.798v-0.801l2.651-4.248h1.099v4.15h0.698V264.398z
				 M376.355,263.5v-2.754l-1.699,2.754H376.355z"></path>
			<path class=" st10_2093998582" d="M379.136,264.599c0.153,0,0.283,0.057,0.391,0.171s0.161,0.257,0.161,0.43c0,0.254-0.042,0.469-0.124,0.645
				c-0.084,0.176-0.176,0.321-0.276,0.435c-0.12,0.133-0.254,0.241-0.4,0.322l-0.151-0.2c0.065-0.045,0.129-0.106,0.19-0.181
				c0.052-0.059,0.102-0.132,0.149-0.22c0.047-0.088,0.083-0.189,0.109-0.303c-0.173,0-0.315-0.053-0.43-0.159
				s-0.171-0.235-0.171-0.388s0.054-0.283,0.161-0.391S378.982,264.599,379.136,264.599z"></path>
			<path class=" st10_2093998582" d="M382.663,261.4c0.286,0,0.559,0.055,0.815,0.164s0.481,0.262,0.671,0.459
				c0.191,0.197,0.342,0.426,0.452,0.686s0.166,0.541,0.166,0.84s-0.057,0.58-0.171,0.84s-0.27,0.489-0.467,0.686
				c-0.196,0.197-0.429,0.35-0.695,0.459s-0.557,0.164-0.869,0.164s-0.596-0.046-0.85-0.139s-0.471-0.219-0.649-0.378
				s-0.32-0.344-0.425-0.554s-0.163-0.436-0.176-0.676h0.947c0.013,0.114,0.05,0.224,0.109,0.33
				c0.061,0.106,0.142,0.202,0.242,0.288s0.22,0.155,0.356,0.205s0.285,0.076,0.444,0.076c0.173,0,0.335-0.033,0.488-0.1
				s0.286-0.156,0.4-0.269s0.203-0.249,0.266-0.41c0.064-0.161,0.096-0.334,0.096-0.52s-0.031-0.359-0.096-0.52
				c-0.062-0.161-0.151-0.298-0.266-0.41s-0.247-0.202-0.4-0.269s-0.315-0.1-0.488-0.1c-0.198,0-0.372,0.04-0.52,0.12
				c-0.148,0.08-0.269,0.167-0.359,0.261c-0.114,0.114-0.205,0.236-0.273,0.366h-0.796l0.4-3.647h3.35v0.898h-2.544l-0.156,1.499
				c0.075-0.059,0.164-0.116,0.269-0.171c0.088-0.045,0.192-0.086,0.315-0.122C382.372,261.418,382.51,261.4,382.663,261.4z"></path>
		</g>
	</g>
	<g>
		<g>
			<path class=" st10_2093998582" d="M298.846,346.857v0.898h-4.048v-0.698l2.5-2.7c0.114-0.12,0.213-0.244,0.298-0.371
				c0.075-0.114,0.144-0.237,0.208-0.371c0.062-0.134,0.095-0.271,0.095-0.41c0-0.28-0.095-0.508-0.286-0.684
				c-0.189-0.176-0.461-0.264-0.812-0.264c-0.325,0-0.591,0.102-0.796,0.305c-0.205,0.204-0.308,0.469-0.308,0.794h-0.947
				c0-0.286,0.048-0.55,0.145-0.791c0.096-0.241,0.232-0.446,0.41-0.615c0.177-0.169,0.392-0.302,0.645-0.397
				c0.252-0.097,0.536-0.145,0.852-0.145c0.312,0,0.595,0.047,0.848,0.139c0.252,0.094,0.467,0.223,0.645,0.389
				c0.177,0.166,0.313,0.363,0.41,0.591c0.096,0.228,0.144,0.471,0.144,0.728c0,0.198-0.046,0.398-0.14,0.601
				c-0.092,0.202-0.195,0.379-0.31,0.532c-0.134,0.179-0.283,0.352-0.449,0.518l-1.792,1.953H298.846z"></path>
			<path class=" st10_2093998582" d="M303.774,346.857v0.898h-4.048v-0.698l2.5-2.7c0.114-0.12,0.213-0.244,0.298-0.371
				c0.075-0.114,0.144-0.237,0.208-0.371c0.062-0.134,0.095-0.271,0.095-0.41c0-0.28-0.095-0.508-0.286-0.684
				c-0.189-0.176-0.461-0.264-0.812-0.264c-0.325,0-0.591,0.102-0.796,0.305c-0.205,0.204-0.308,0.469-0.308,0.794h-0.947
				c0-0.286,0.048-0.55,0.145-0.791c0.096-0.241,0.232-0.446,0.41-0.615c0.177-0.169,0.392-0.302,0.645-0.397
				c0.252-0.097,0.536-0.145,0.852-0.145c0.312,0,0.595,0.047,0.848,0.139c0.252,0.094,0.467,0.223,0.645,0.389
				c0.177,0.166,0.313,0.363,0.41,0.591c0.096,0.228,0.144,0.471,0.144,0.728c0,0.198-0.046,0.398-0.14,0.601
				c-0.092,0.202-0.195,0.379-0.31,0.532c-0.134,0.179-0.283,0.352-0.449,0.518l-1.792,1.953H303.774z"></path>
			<path class=" st10_2093998582" d="M305.104,346.706c0.153,0,0.283,0.057,0.391,0.171s0.161,0.257,0.161,0.43c0,0.254-0.042,0.469-0.124,0.645
				c-0.084,0.176-0.176,0.32-0.276,0.435c-0.12,0.134-0.254,0.241-0.4,0.322l-0.151-0.2c0.065-0.046,0.129-0.105,0.19-0.181
				c0.052-0.059,0.102-0.132,0.149-0.22c0.047-0.088,0.083-0.188,0.109-0.303c-0.173,0-0.315-0.053-0.43-0.158
				c-0.114-0.106-0.171-0.235-0.171-0.389s0.054-0.283,0.161-0.391S304.951,346.706,305.104,346.706z"></path>
			<path class=" st10_2093998582" d="M310.336,341.457v0.649l-2.603,5.649h-1.001l2.5-5.4h-2.847v-0.898H310.336z"></path>
		</g>
	</g>
	<g>
		<g>
			<path class=" st10_2093998582" d="M294.371,171.968c-0.312,0-0.603-0.055-0.869-0.164s-0.499-0.262-0.695-0.459
				c-0.197-0.197-0.353-0.426-0.467-0.686s-0.171-0.541-0.171-0.84c0-0.186,0.032-0.372,0.095-0.559
				c0.064-0.187,0.133-0.354,0.208-0.5c0.088-0.172,0.188-0.337,0.298-0.493l1.753-2.646h1.05l-1.401,2.1
				c0.032-0.006,0.073-0.013,0.122-0.02c0.032-0.006,0.074-0.013,0.125-0.02c0.05-0.006,0.102-0.01,0.153-0.01
				c0.261,0,0.512,0.055,0.755,0.164c0.242,0.109,0.455,0.262,0.639,0.459c0.185,0.197,0.332,0.426,0.442,0.686
				s0.166,0.541,0.166,0.84s-0.057,0.58-0.171,0.84s-0.27,0.489-0.467,0.686c-0.196,0.197-0.429,0.35-0.695,0.459
				S294.684,171.968,294.371,171.968z M293.121,169.82c0,0.186,0.031,0.359,0.096,0.52c0.062,0.161,0.151,0.298,0.266,0.41
				s0.247,0.202,0.4,0.269s0.315,0.1,0.488,0.1s0.335-0.033,0.488-0.1s0.286-0.156,0.4-0.269s0.203-0.249,0.266-0.41
				c0.064-0.161,0.096-0.334,0.096-0.52s-0.031-0.359-0.096-0.52c-0.062-0.161-0.151-0.298-0.266-0.41s-0.247-0.202-0.4-0.269
				s-0.315-0.1-0.488-0.1s-0.335,0.033-0.488,0.1s-0.286,0.156-0.4,0.269s-0.203,0.249-0.266,0.41
				C293.152,169.461,293.121,169.634,293.121,169.82z"></path>
			<path class=" st10_2093998582" d="M297.801,170.87c0.153,0,0.283,0.057,0.391,0.171s0.161,0.257,0.161,0.43c0,0.254-0.042,0.469-0.124,0.645
				c-0.084,0.176-0.176,0.321-0.276,0.435c-0.12,0.133-0.254,0.241-0.4,0.322l-0.151-0.2c0.065-0.045,0.129-0.106,0.19-0.181
				c0.052-0.059,0.102-0.132,0.149-0.22c0.047-0.088,0.083-0.189,0.109-0.303c-0.173,0-0.315-0.053-0.43-0.159
				s-0.171-0.235-0.171-0.388s0.054-0.283,0.161-0.391S297.647,170.87,297.801,170.87z"></path>
			<path class=" st10_2093998582" d="M301.23,165.572c0.312,0,0.603,0.055,0.869,0.164s0.499,0.262,0.695,0.459
				c0.197,0.197,0.353,0.426,0.467,0.686s0.171,0.541,0.171,0.84c0,0.192-0.032,0.38-0.095,0.564
				c-0.064,0.184-0.133,0.349-0.208,0.496c-0.088,0.172-0.188,0.335-0.298,0.488l-1.753,2.651h-1.05l1.401-2.1
				c-0.032,0.013-0.07,0.023-0.112,0.029c-0.032,0.006-0.074,0.011-0.125,0.015c-0.05,0.003-0.104,0.005-0.163,0.005
				c-0.261,0-0.512-0.055-0.755-0.164c-0.242-0.109-0.455-0.262-0.639-0.459c-0.185-0.197-0.332-0.426-0.442-0.686
				s-0.166-0.541-0.166-0.84s0.057-0.58,0.171-0.84s0.27-0.489,0.467-0.686c0.196-0.197,0.429-0.35,0.695-0.459
				S300.918,165.572,301.23,165.572z M302.48,167.72c0-0.186-0.031-0.359-0.096-0.52c-0.062-0.161-0.151-0.298-0.266-0.41
				s-0.247-0.202-0.4-0.269s-0.315-0.1-0.488-0.1s-0.335,0.033-0.488,0.1s-0.286,0.156-0.4,0.269s-0.203,0.248-0.266,0.408
				c-0.064,0.16-0.096,0.333-0.096,0.522c0,0.186,0.031,0.358,0.096,0.518c0.062,0.16,0.151,0.296,0.266,0.41s0.247,0.204,0.4,0.271
				s0.315,0.1,0.488,0.1s0.335-0.033,0.488-0.1s0.286-0.157,0.4-0.271s0.203-0.25,0.266-0.41
				C302.449,168.078,302.48,167.906,302.48,167.72z"></path>
		</g>
	</g>
	<g>
		<g>
			<path class=" st10_2093998582" d="M364.22,139.045c0.013-0.241,0.07-0.466,0.174-0.676c0.102-0.21,0.242-0.395,0.42-0.554
				c0.177-0.16,0.389-0.286,0.635-0.378c0.245-0.093,0.52-0.139,0.822-0.139c0.286,0,0.551,0.048,0.793,0.144
				c0.243,0.096,0.455,0.226,0.635,0.388c0.182,0.163,0.321,0.349,0.42,0.559c0.1,0.21,0.149,0.429,0.149,0.657
				s-0.042,0.423-0.124,0.586c-0.084,0.163-0.176,0.298-0.276,0.405c-0.12,0.121-0.254,0.223-0.4,0.308
				c0.186,0.088,0.354,0.202,0.503,0.342c0.127,0.121,0.242,0.281,0.344,0.481c0.104,0.2,0.154,0.443,0.154,0.73
				c0,0.241-0.051,0.469-0.154,0.684c-0.102,0.215-0.247,0.404-0.434,0.569c-0.188,0.165-0.413,0.296-0.677,0.396
				s-0.559,0.149-0.884,0.149s-0.618-0.046-0.879-0.139s-0.482-0.219-0.666-0.378c-0.185-0.16-0.328-0.344-0.43-0.554
				c-0.104-0.21-0.162-0.436-0.179-0.676h0.952c0.013,0.114,0.05,0.224,0.109,0.33c0.061,0.106,0.143,0.202,0.244,0.288
				c0.104,0.086,0.227,0.155,0.371,0.205c0.146,0.05,0.304,0.076,0.477,0.076c0.381,0,0.676-0.097,0.887-0.291
				c0.209-0.194,0.314-0.431,0.314-0.71s-0.105-0.516-0.317-0.708s-0.506-0.288-0.884-0.288h-0.449v-0.854h0.4
				c0.325,0,0.582-0.086,0.77-0.259c0.187-0.172,0.28-0.386,0.28-0.64c0-0.28-0.094-0.508-0.28-0.684
				c-0.188-0.176-0.444-0.264-0.77-0.264s-0.584,0.086-0.776,0.259s-0.301,0.386-0.327,0.64H364.22z"></path>
			<path class=" st10_2093998582" d="M369.744,142.595c0.153,0,0.283,0.057,0.391,0.171s0.161,0.257,0.161,0.43c0,0.254-0.042,0.469-0.124,0.645
				c-0.084,0.176-0.176,0.321-0.276,0.435c-0.12,0.133-0.254,0.241-0.4,0.322l-0.151-0.2c0.065-0.045,0.129-0.106,0.19-0.181
				c0.052-0.059,0.102-0.132,0.149-0.22c0.047-0.088,0.083-0.189,0.109-0.303c-0.173,0-0.315-0.053-0.43-0.159
				s-0.171-0.235-0.171-0.388s0.054-0.283,0.161-0.391S369.591,142.595,369.744,142.595z"></path>
			<path class=" st10_2093998582" d="M371.025,139.045c0.013-0.241,0.07-0.466,0.174-0.676c0.102-0.21,0.242-0.395,0.42-0.554
				c0.177-0.16,0.389-0.286,0.635-0.378c0.245-0.093,0.52-0.139,0.822-0.139c0.286,0,0.551,0.048,0.793,0.144
				c0.243,0.096,0.455,0.226,0.635,0.388c0.182,0.163,0.321,0.349,0.42,0.559c0.1,0.21,0.149,0.429,0.149,0.657
				s-0.042,0.423-0.124,0.586c-0.084,0.163-0.176,0.298-0.276,0.405c-0.12,0.121-0.254,0.223-0.4,0.308
				c0.186,0.088,0.354,0.202,0.503,0.342c0.127,0.121,0.242,0.281,0.344,0.481c0.104,0.2,0.154,0.443,0.154,0.73
				c0,0.241-0.051,0.469-0.154,0.684c-0.102,0.215-0.247,0.404-0.434,0.569c-0.188,0.165-0.413,0.296-0.677,0.396
				s-0.559,0.149-0.884,0.149s-0.618-0.046-0.879-0.139s-0.482-0.219-0.666-0.378c-0.185-0.16-0.328-0.344-0.43-0.554
				c-0.104-0.21-0.162-0.436-0.179-0.676h0.952c0.013,0.114,0.05,0.224,0.109,0.33c0.061,0.106,0.143,0.202,0.244,0.288
				c0.104,0.086,0.227,0.155,0.371,0.205c0.146,0.05,0.304,0.076,0.477,0.076c0.381,0,0.676-0.097,0.887-0.291
				c0.209-0.194,0.314-0.431,0.314-0.71s-0.105-0.516-0.317-0.708s-0.506-0.288-0.884-0.288h-0.449v-0.854h0.4
				c0.325,0,0.582-0.086,0.77-0.259c0.187-0.172,0.28-0.386,0.28-0.64c0-0.28-0.094-0.508-0.28-0.684
				c-0.188-0.176-0.444-0.264-0.77-0.264s-0.584,0.086-0.776,0.259s-0.301,0.386-0.327,0.64H371.025z"></path>
		</g>
	</g>
	<g>
		<g>
			<path class=" st10_2093998582" d="M368.926,194.509c0.013-0.241,0.07-0.466,0.174-0.676c0.102-0.21,0.242-0.395,0.42-0.554
				c0.177-0.16,0.389-0.286,0.635-0.378c0.245-0.093,0.52-0.139,0.822-0.139c0.286,0,0.551,0.048,0.793,0.144
				c0.243,0.096,0.455,0.226,0.635,0.388c0.182,0.163,0.321,0.349,0.42,0.559c0.1,0.21,0.149,0.429,0.149,0.657
				s-0.042,0.423-0.124,0.586c-0.084,0.163-0.176,0.298-0.276,0.405c-0.12,0.121-0.254,0.223-0.4,0.308
				c0.186,0.088,0.354,0.202,0.503,0.342c0.127,0.121,0.242,0.281,0.344,0.481c0.104,0.2,0.154,0.443,0.154,0.73
				c0,0.241-0.051,0.469-0.154,0.684c-0.102,0.215-0.247,0.404-0.434,0.569c-0.188,0.165-0.413,0.296-0.677,0.396
				s-0.559,0.149-0.884,0.149s-0.618-0.046-0.879-0.139s-0.482-0.219-0.666-0.378c-0.185-0.16-0.328-0.344-0.43-0.554
				c-0.104-0.21-0.162-0.436-0.179-0.676h0.952c0.013,0.114,0.05,0.224,0.109,0.33c0.061,0.106,0.143,0.202,0.244,0.288
				c0.104,0.086,0.227,0.155,0.371,0.205c0.146,0.05,0.304,0.076,0.477,0.076c0.381,0,0.676-0.097,0.887-0.291
				c0.209-0.194,0.314-0.431,0.314-0.71s-0.105-0.516-0.317-0.708s-0.506-0.288-0.884-0.288h-0.449v-0.854h0.4
				c0.325,0,0.582-0.086,0.77-0.259c0.187-0.172,0.28-0.386,0.28-0.64c0-0.28-0.094-0.508-0.28-0.684
				c-0.188-0.176-0.444-0.264-0.77-0.264s-0.584,0.086-0.776,0.259s-0.301,0.386-0.327,0.64H368.926z"></path>
			<path class=" st10_2093998582" d="M374.45,198.059c0.153,0,0.283,0.057,0.391,0.171s0.161,0.257,0.161,0.43c0,0.254-0.042,0.469-0.124,0.645
				c-0.084,0.176-0.176,0.321-0.276,0.435c-0.12,0.133-0.254,0.241-0.4,0.322l-0.151-0.2c0.065-0.045,0.129-0.106,0.19-0.181
				c0.052-0.059,0.102-0.132,0.149-0.22c0.047-0.088,0.083-0.189,0.109-0.303c-0.173,0-0.315-0.053-0.43-0.159
				s-0.171-0.235-0.171-0.388s0.054-0.283,0.161-0.391S374.297,198.059,374.45,198.059z"></path>
			<path class=" st10_2093998582" d="M379.828,198.21v0.898h-4.048v-0.698l2.5-2.7c0.114-0.121,0.213-0.244,0.298-0.371
				c0.075-0.114,0.144-0.238,0.208-0.371c0.062-0.133,0.095-0.27,0.095-0.41c0-0.28-0.095-0.508-0.286-0.684
				c-0.189-0.176-0.461-0.264-0.812-0.264c-0.325,0-0.591,0.102-0.796,0.305s-0.308,0.468-0.308,0.793h-0.947
				c0-0.287,0.048-0.55,0.145-0.791c0.096-0.241,0.232-0.446,0.41-0.615c0.177-0.169,0.392-0.302,0.645-0.398
				c0.252-0.096,0.536-0.144,0.852-0.144c0.312,0,0.595,0.046,0.848,0.139c0.252,0.093,0.467,0.222,0.645,0.388
				c0.177,0.166,0.313,0.363,0.41,0.591c0.096,0.228,0.144,0.47,0.144,0.728c0,0.199-0.046,0.399-0.14,0.601
				c-0.092,0.202-0.195,0.379-0.31,0.532c-0.134,0.179-0.283,0.352-0.449,0.518l-1.792,1.953H379.828z"></path>
		</g>
	</g>
</g>

</svg></svg>